%TF.GenerationSoftware,KiCad,Pcbnew,9.0.4*%
%TF.CreationDate,2026-03-27T12:45:51+01:00*%
%TF.ProjectId,mmWave-Shield,6d6d5761-7665-42d5-9368-69656c642e6b,rev?*%
%TF.SameCoordinates,Original*%
%TF.FileFunction,Legend,Top*%
%TF.FilePolarity,Positive*%
%FSLAX46Y46*%
G04 Gerber Fmt 4.6, Leading zero omitted, Abs format (unit mm)*
G04 Created by KiCad (PCBNEW 9.0.4) date 2026-03-27 12:45:51*
%MOMM*%
%LPD*%
G01*
G04 APERTURE LIST*
%ADD10C,0.200000*%
%ADD11C,0.100000*%
%ADD12C,0.125000*%
%ADD13C,0.120000*%
%ADD14C,0.250000*%
%ADD15C,0.000000*%
%ADD16C,0.152400*%
G04 APERTURE END LIST*
D10*
X144650000Y-94450000D02*
X144850000Y-94200000D01*
X144850000Y-95200000D02*
X144650000Y-94950000D01*
D11*
X138944549Y-102214723D02*
X138944549Y-102164723D01*
D10*
X144850000Y-94200000D02*
X145050000Y-94450000D01*
D11*
X138944549Y-103414723D02*
X138944549Y-103364723D01*
D10*
X144850000Y-95200000D02*
X144850000Y-94200000D01*
X148900000Y-94600000D02*
X149150000Y-94400000D01*
D11*
X139094549Y-102364723D02*
X138944549Y-102564723D01*
X139094549Y-103564723D02*
X138944549Y-103764723D01*
D10*
X148900000Y-94600000D02*
X149900000Y-94600000D01*
D11*
X138664705Y-102364723D02*
X139123146Y-102364723D01*
X138944549Y-103364723D02*
X139094549Y-103564723D01*
D10*
X145050000Y-94950000D02*
X144850000Y-95200000D01*
D11*
X138944549Y-102164723D02*
X139094549Y-102364723D01*
X138944549Y-103764723D02*
X138944549Y-103414723D01*
D10*
X149900000Y-94600000D02*
X149650000Y-94800000D01*
X149150000Y-94800000D02*
X148900000Y-94600000D01*
X149650000Y-94400000D02*
X149900000Y-94600000D01*
D11*
X138944549Y-102564723D02*
X138944549Y-102214723D01*
X138668432Y-103564723D02*
X139124393Y-103564723D01*
D10*
X155193409Y-106346993D02*
X155241028Y-106204136D01*
X155241028Y-106204136D02*
X155288647Y-106156517D01*
X155288647Y-106156517D02*
X155383885Y-106108898D01*
X155383885Y-106108898D02*
X155526742Y-106108898D01*
X155526742Y-106108898D02*
X155621980Y-106156517D01*
X155621980Y-106156517D02*
X155669600Y-106204136D01*
X155669600Y-106204136D02*
X155717219Y-106299374D01*
X155717219Y-106299374D02*
X155717219Y-106680326D01*
X155717219Y-106680326D02*
X154717219Y-106680326D01*
X154717219Y-106680326D02*
X154717219Y-106346993D01*
X154717219Y-106346993D02*
X154764838Y-106251755D01*
X154764838Y-106251755D02*
X154812457Y-106204136D01*
X154812457Y-106204136D02*
X154907695Y-106156517D01*
X154907695Y-106156517D02*
X155002933Y-106156517D01*
X155002933Y-106156517D02*
X155098171Y-106204136D01*
X155098171Y-106204136D02*
X155145790Y-106251755D01*
X155145790Y-106251755D02*
X155193409Y-106346993D01*
X155193409Y-106346993D02*
X155193409Y-106680326D01*
X155717219Y-105680326D02*
X155050552Y-105680326D01*
X154717219Y-105680326D02*
X154764838Y-105727945D01*
X154764838Y-105727945D02*
X154812457Y-105680326D01*
X154812457Y-105680326D02*
X154764838Y-105632707D01*
X154764838Y-105632707D02*
X154717219Y-105680326D01*
X154717219Y-105680326D02*
X154812457Y-105680326D01*
X155717219Y-105061279D02*
X155669600Y-105156517D01*
X155669600Y-105156517D02*
X155621980Y-105204136D01*
X155621980Y-105204136D02*
X155526742Y-105251755D01*
X155526742Y-105251755D02*
X155241028Y-105251755D01*
X155241028Y-105251755D02*
X155145790Y-105204136D01*
X155145790Y-105204136D02*
X155098171Y-105156517D01*
X155098171Y-105156517D02*
X155050552Y-105061279D01*
X155050552Y-105061279D02*
X155050552Y-104918422D01*
X155050552Y-104918422D02*
X155098171Y-104823184D01*
X155098171Y-104823184D02*
X155145790Y-104775565D01*
X155145790Y-104775565D02*
X155241028Y-104727946D01*
X155241028Y-104727946D02*
X155526742Y-104727946D01*
X155526742Y-104727946D02*
X155621980Y-104775565D01*
X155621980Y-104775565D02*
X155669600Y-104823184D01*
X155669600Y-104823184D02*
X155717219Y-104918422D01*
X155717219Y-104918422D02*
X155717219Y-105061279D01*
X154764838Y-103775565D02*
X154717219Y-103870803D01*
X154717219Y-103870803D02*
X154717219Y-104013660D01*
X154717219Y-104013660D02*
X154764838Y-104156517D01*
X154764838Y-104156517D02*
X154860076Y-104251755D01*
X154860076Y-104251755D02*
X154955314Y-104299374D01*
X154955314Y-104299374D02*
X155145790Y-104346993D01*
X155145790Y-104346993D02*
X155288647Y-104346993D01*
X155288647Y-104346993D02*
X155479123Y-104299374D01*
X155479123Y-104299374D02*
X155574361Y-104251755D01*
X155574361Y-104251755D02*
X155669600Y-104156517D01*
X155669600Y-104156517D02*
X155717219Y-104013660D01*
X155717219Y-104013660D02*
X155717219Y-103918422D01*
X155717219Y-103918422D02*
X155669600Y-103775565D01*
X155669600Y-103775565D02*
X155621980Y-103727946D01*
X155621980Y-103727946D02*
X155288647Y-103727946D01*
X155288647Y-103727946D02*
X155288647Y-103918422D01*
X155431504Y-103346993D02*
X155431504Y-102870803D01*
X155717219Y-103442231D02*
X154717219Y-103108898D01*
X154717219Y-103108898D02*
X155717219Y-102775565D01*
X155717219Y-102442231D02*
X154717219Y-102442231D01*
X154717219Y-102442231D02*
X154717219Y-102061279D01*
X154717219Y-102061279D02*
X154764838Y-101966041D01*
X154764838Y-101966041D02*
X154812457Y-101918422D01*
X154812457Y-101918422D02*
X154907695Y-101870803D01*
X154907695Y-101870803D02*
X155050552Y-101870803D01*
X155050552Y-101870803D02*
X155145790Y-101918422D01*
X155145790Y-101918422D02*
X155193409Y-101966041D01*
X155193409Y-101966041D02*
X155241028Y-102061279D01*
X155241028Y-102061279D02*
X155241028Y-102442231D01*
G36*
X137945133Y-101744723D02*
G01*
X137753158Y-101744723D01*
X137753158Y-101023351D01*
X137679213Y-101083574D01*
X137596890Y-101132451D01*
X137505191Y-101170263D01*
X137505191Y-100994408D01*
X137553597Y-100974606D01*
X137607715Y-100944134D01*
X137668467Y-100900986D01*
X137722256Y-100851239D01*
X137762039Y-100797908D01*
X137789367Y-100740396D01*
X137945133Y-100740396D01*
X137945133Y-101744723D01*
G37*
G36*
X138529484Y-101744723D02*
G01*
X138171546Y-100740396D01*
X138390815Y-100740396D01*
X138644278Y-101482894D01*
X138889498Y-100740396D01*
X139104004Y-100740396D01*
X138745334Y-101744723D01*
X138529484Y-101744723D01*
G37*
G36*
X139559267Y-100745577D02*
G01*
X139618697Y-100760076D01*
X139668218Y-100782850D01*
X139709482Y-100813608D01*
X139744071Y-100852729D01*
X139768433Y-100896019D01*
X139783254Y-100944350D01*
X139788373Y-100998988D01*
X139784237Y-101044371D01*
X139772157Y-101085453D01*
X139752164Y-101123124D01*
X139725138Y-101156134D01*
X139691510Y-101183758D01*
X139650375Y-101206228D01*
X139702800Y-101232774D01*
X139744538Y-101265293D01*
X139777076Y-101303925D01*
X139800962Y-101348427D01*
X139815450Y-101397447D01*
X139820430Y-101452120D01*
X139814544Y-101520199D01*
X139797661Y-101579454D01*
X139770271Y-101631513D01*
X139731953Y-101677556D01*
X139685297Y-101714723D01*
X139631514Y-101741613D01*
X139569235Y-101758371D01*
X139496625Y-101764262D01*
X139428783Y-101759426D01*
X139369074Y-101745561D01*
X139316214Y-101723245D01*
X139269173Y-101692516D01*
X139222348Y-101646348D01*
X139189304Y-101593295D01*
X139169034Y-101531987D01*
X139161951Y-101460302D01*
X139163477Y-101442472D01*
X139351178Y-101442472D01*
X139356186Y-101494240D01*
X139370012Y-101534976D01*
X139391783Y-101567097D01*
X139421308Y-101592072D01*
X139454691Y-101606807D01*
X139493266Y-101611854D01*
X139530969Y-101606969D01*
X139563289Y-101592769D01*
X139591574Y-101568807D01*
X139612277Y-101537840D01*
X139625630Y-101497329D01*
X139630531Y-101444487D01*
X139625785Y-101398754D01*
X139612425Y-101361373D01*
X139590902Y-101330548D01*
X139562139Y-101306634D01*
X139529137Y-101292407D01*
X139490518Y-101287500D01*
X139446144Y-101293352D01*
X139412039Y-101309676D01*
X139385677Y-101336410D01*
X139366346Y-101370277D01*
X139354981Y-101405401D01*
X139351178Y-101442472D01*
X139163477Y-101442472D01*
X139166493Y-101407230D01*
X139179899Y-101357757D01*
X139202251Y-101311069D01*
X139233313Y-101270220D01*
X139275045Y-101235331D01*
X139329318Y-101206228D01*
X139282527Y-101181543D01*
X139247043Y-101152715D01*
X139221058Y-101119705D01*
X139202261Y-101081806D01*
X139191028Y-101041793D01*
X139188465Y-101012910D01*
X139368886Y-101012910D01*
X139372827Y-101050024D01*
X139383793Y-101079428D01*
X139401309Y-101102852D01*
X139424754Y-101120436D01*
X139453108Y-101131261D01*
X139487771Y-101135092D01*
X139522865Y-101131214D01*
X139551536Y-101120264D01*
X139575210Y-101102486D01*
X139592951Y-101078847D01*
X139604027Y-101049330D01*
X139607999Y-101012238D01*
X139604140Y-100977427D01*
X139593235Y-100948953D01*
X139575515Y-100925410D01*
X139552094Y-100907581D01*
X139523969Y-100896657D01*
X139489786Y-100892803D01*
X139454268Y-100896735D01*
X139425391Y-100907814D01*
X139401675Y-100925776D01*
X139383765Y-100949529D01*
X139372769Y-100978113D01*
X139368886Y-101012910D01*
X139188465Y-101012910D01*
X139187230Y-100998988D01*
X139192312Y-100944311D01*
X139207023Y-100895964D01*
X139231184Y-100852688D01*
X139265449Y-100813608D01*
X139306379Y-100782928D01*
X139355852Y-100760151D01*
X139415603Y-100745607D01*
X139487832Y-100740396D01*
X139559267Y-100745577D01*
G37*
X157467219Y-106680326D02*
X156800552Y-106680326D01*
X156895790Y-106680326D02*
X156848171Y-106632707D01*
X156848171Y-106632707D02*
X156800552Y-106537469D01*
X156800552Y-106537469D02*
X156800552Y-106394612D01*
X156800552Y-106394612D02*
X156848171Y-106299374D01*
X156848171Y-106299374D02*
X156943409Y-106251755D01*
X156943409Y-106251755D02*
X157467219Y-106251755D01*
X156943409Y-106251755D02*
X156848171Y-106204136D01*
X156848171Y-106204136D02*
X156800552Y-106108898D01*
X156800552Y-106108898D02*
X156800552Y-105966041D01*
X156800552Y-105966041D02*
X156848171Y-105870802D01*
X156848171Y-105870802D02*
X156943409Y-105823183D01*
X156943409Y-105823183D02*
X157467219Y-105823183D01*
X157467219Y-105346993D02*
X156800552Y-105346993D01*
X156895790Y-105346993D02*
X156848171Y-105299374D01*
X156848171Y-105299374D02*
X156800552Y-105204136D01*
X156800552Y-105204136D02*
X156800552Y-105061279D01*
X156800552Y-105061279D02*
X156848171Y-104966041D01*
X156848171Y-104966041D02*
X156943409Y-104918422D01*
X156943409Y-104918422D02*
X157467219Y-104918422D01*
X156943409Y-104918422D02*
X156848171Y-104870803D01*
X156848171Y-104870803D02*
X156800552Y-104775565D01*
X156800552Y-104775565D02*
X156800552Y-104632708D01*
X156800552Y-104632708D02*
X156848171Y-104537469D01*
X156848171Y-104537469D02*
X156943409Y-104489850D01*
X156943409Y-104489850D02*
X157467219Y-104489850D01*
X156467219Y-104108898D02*
X157467219Y-103870803D01*
X157467219Y-103870803D02*
X156752933Y-103680327D01*
X156752933Y-103680327D02*
X157467219Y-103489851D01*
X157467219Y-103489851D02*
X156467219Y-103251756D01*
X157467219Y-102442232D02*
X156943409Y-102442232D01*
X156943409Y-102442232D02*
X156848171Y-102489851D01*
X156848171Y-102489851D02*
X156800552Y-102585089D01*
X156800552Y-102585089D02*
X156800552Y-102775565D01*
X156800552Y-102775565D02*
X156848171Y-102870803D01*
X157419600Y-102442232D02*
X157467219Y-102537470D01*
X157467219Y-102537470D02*
X157467219Y-102775565D01*
X157467219Y-102775565D02*
X157419600Y-102870803D01*
X157419600Y-102870803D02*
X157324361Y-102918422D01*
X157324361Y-102918422D02*
X157229123Y-102918422D01*
X157229123Y-102918422D02*
X157133885Y-102870803D01*
X157133885Y-102870803D02*
X157086266Y-102775565D01*
X157086266Y-102775565D02*
X157086266Y-102537470D01*
X157086266Y-102537470D02*
X157038647Y-102442232D01*
X156800552Y-102061279D02*
X157467219Y-101823184D01*
X157467219Y-101823184D02*
X156800552Y-101585089D01*
X157419600Y-100823184D02*
X157467219Y-100918422D01*
X157467219Y-100918422D02*
X157467219Y-101108898D01*
X157467219Y-101108898D02*
X157419600Y-101204136D01*
X157419600Y-101204136D02*
X157324361Y-101251755D01*
X157324361Y-101251755D02*
X156943409Y-101251755D01*
X156943409Y-101251755D02*
X156848171Y-101204136D01*
X156848171Y-101204136D02*
X156800552Y-101108898D01*
X156800552Y-101108898D02*
X156800552Y-100918422D01*
X156800552Y-100918422D02*
X156848171Y-100823184D01*
X156848171Y-100823184D02*
X156943409Y-100775565D01*
X156943409Y-100775565D02*
X157038647Y-100775565D01*
X157038647Y-100775565D02*
X157133885Y-101251755D01*
X157419600Y-99632707D02*
X157467219Y-99537469D01*
X157467219Y-99537469D02*
X157467219Y-99346993D01*
X157467219Y-99346993D02*
X157419600Y-99251755D01*
X157419600Y-99251755D02*
X157324361Y-99204136D01*
X157324361Y-99204136D02*
X157276742Y-99204136D01*
X157276742Y-99204136D02*
X157181504Y-99251755D01*
X157181504Y-99251755D02*
X157133885Y-99346993D01*
X157133885Y-99346993D02*
X157133885Y-99489850D01*
X157133885Y-99489850D02*
X157086266Y-99585088D01*
X157086266Y-99585088D02*
X156991028Y-99632707D01*
X156991028Y-99632707D02*
X156943409Y-99632707D01*
X156943409Y-99632707D02*
X156848171Y-99585088D01*
X156848171Y-99585088D02*
X156800552Y-99489850D01*
X156800552Y-99489850D02*
X156800552Y-99346993D01*
X156800552Y-99346993D02*
X156848171Y-99251755D01*
X157467219Y-98775564D02*
X156467219Y-98775564D01*
X157467219Y-98346993D02*
X156943409Y-98346993D01*
X156943409Y-98346993D02*
X156848171Y-98394612D01*
X156848171Y-98394612D02*
X156800552Y-98489850D01*
X156800552Y-98489850D02*
X156800552Y-98632707D01*
X156800552Y-98632707D02*
X156848171Y-98727945D01*
X156848171Y-98727945D02*
X156895790Y-98775564D01*
X157467219Y-97870802D02*
X156800552Y-97870802D01*
X156467219Y-97870802D02*
X156514838Y-97918421D01*
X156514838Y-97918421D02*
X156562457Y-97870802D01*
X156562457Y-97870802D02*
X156514838Y-97823183D01*
X156514838Y-97823183D02*
X156467219Y-97870802D01*
X156467219Y-97870802D02*
X156562457Y-97870802D01*
X157419600Y-97013660D02*
X157467219Y-97108898D01*
X157467219Y-97108898D02*
X157467219Y-97299374D01*
X157467219Y-97299374D02*
X157419600Y-97394612D01*
X157419600Y-97394612D02*
X157324361Y-97442231D01*
X157324361Y-97442231D02*
X156943409Y-97442231D01*
X156943409Y-97442231D02*
X156848171Y-97394612D01*
X156848171Y-97394612D02*
X156800552Y-97299374D01*
X156800552Y-97299374D02*
X156800552Y-97108898D01*
X156800552Y-97108898D02*
X156848171Y-97013660D01*
X156848171Y-97013660D02*
X156943409Y-96966041D01*
X156943409Y-96966041D02*
X157038647Y-96966041D01*
X157038647Y-96966041D02*
X157133885Y-97442231D01*
X157467219Y-96394612D02*
X157419600Y-96489850D01*
X157419600Y-96489850D02*
X157324361Y-96537469D01*
X157324361Y-96537469D02*
X156467219Y-96537469D01*
X157467219Y-95585088D02*
X156467219Y-95585088D01*
X157419600Y-95585088D02*
X157467219Y-95680326D01*
X157467219Y-95680326D02*
X157467219Y-95870802D01*
X157467219Y-95870802D02*
X157419600Y-95966040D01*
X157419600Y-95966040D02*
X157371980Y-96013659D01*
X157371980Y-96013659D02*
X157276742Y-96061278D01*
X157276742Y-96061278D02*
X156991028Y-96061278D01*
X156991028Y-96061278D02*
X156895790Y-96013659D01*
X156895790Y-96013659D02*
X156848171Y-95966040D01*
X156848171Y-95966040D02*
X156800552Y-95870802D01*
X156800552Y-95870802D02*
X156800552Y-95680326D01*
X156800552Y-95680326D02*
X156848171Y-95585088D01*
G36*
X137447122Y-104925139D02*
G01*
X137632930Y-104901631D01*
X137642893Y-104949456D01*
X137659038Y-104986493D01*
X137680740Y-105014899D01*
X137708692Y-105036738D01*
X137739753Y-105049637D01*
X137775018Y-105054039D01*
X137812678Y-105048994D01*
X137845612Y-105034186D01*
X137875096Y-105008915D01*
X137897054Y-104976586D01*
X137910828Y-104936671D01*
X137915763Y-104887099D01*
X137911036Y-104840214D01*
X137897845Y-104802553D01*
X137876806Y-104772121D01*
X137848640Y-104748337D01*
X137817381Y-104734417D01*
X137781857Y-104729684D01*
X137743519Y-104732931D01*
X137693746Y-104744033D01*
X137714934Y-104589000D01*
X137765716Y-104585691D01*
X137804386Y-104574093D01*
X137833758Y-104555417D01*
X137856414Y-104529261D01*
X137870034Y-104498183D01*
X137874791Y-104460651D01*
X137871206Y-104428396D01*
X137861096Y-104402138D01*
X137844688Y-104380539D01*
X137823000Y-104364212D01*
X137796806Y-104354171D01*
X137764821Y-104350619D01*
X137733380Y-104354442D01*
X137705669Y-104365629D01*
X137680740Y-104384508D01*
X137661386Y-104409180D01*
X137647097Y-104441520D01*
X137638425Y-104483487D01*
X137461471Y-104453690D01*
X137476876Y-104393602D01*
X137495628Y-104345563D01*
X137517158Y-104307632D01*
X137544779Y-104274265D01*
X137579086Y-104245686D01*
X137620962Y-104221720D01*
X137666327Y-104204560D01*
X137715847Y-104194023D01*
X137770255Y-104190396D01*
X137839724Y-104196445D01*
X137899580Y-104213724D01*
X137951610Y-104241656D01*
X137997096Y-104280644D01*
X138028573Y-104319806D01*
X138050266Y-104360249D01*
X138063116Y-104402540D01*
X138067438Y-104447462D01*
X138061940Y-104496942D01*
X138045753Y-104541757D01*
X138018448Y-104583137D01*
X137978470Y-104621823D01*
X137923273Y-104657999D01*
X137977599Y-104675771D01*
X138022997Y-104703246D01*
X138060904Y-104740797D01*
X138089284Y-104786022D01*
X138106526Y-104837247D01*
X138112500Y-104896075D01*
X138106389Y-104960126D01*
X138088500Y-105018188D01*
X138058765Y-105071577D01*
X138016147Y-105121205D01*
X137965266Y-105161781D01*
X137909128Y-105190585D01*
X137846667Y-105208182D01*
X137776422Y-105214262D01*
X137709335Y-105208939D01*
X137650254Y-105193635D01*
X137597801Y-105168835D01*
X137550925Y-105134333D01*
X137511137Y-105091582D01*
X137480780Y-105043109D01*
X137459384Y-104988043D01*
X137447122Y-104925139D01*
G37*
G36*
X138529484Y-105194723D02*
G01*
X138171546Y-104190396D01*
X138390815Y-104190396D01*
X138644278Y-104932894D01*
X138889498Y-104190396D01*
X139104004Y-104190396D01*
X138745334Y-105194723D01*
X138529484Y-105194723D01*
G37*
G36*
X139157799Y-104925139D02*
G01*
X139343606Y-104901631D01*
X139353570Y-104949456D01*
X139369715Y-104986493D01*
X139391417Y-105014899D01*
X139419368Y-105036738D01*
X139450430Y-105049637D01*
X139485695Y-105054039D01*
X139523355Y-105048994D01*
X139556289Y-105034186D01*
X139585773Y-105008915D01*
X139607731Y-104976586D01*
X139621505Y-104936671D01*
X139626440Y-104887099D01*
X139621713Y-104840214D01*
X139608522Y-104802553D01*
X139587483Y-104772121D01*
X139559317Y-104748337D01*
X139528058Y-104734417D01*
X139492533Y-104729684D01*
X139454196Y-104732931D01*
X139404423Y-104744033D01*
X139425611Y-104589000D01*
X139476393Y-104585691D01*
X139515063Y-104574093D01*
X139544435Y-104555417D01*
X139567091Y-104529261D01*
X139580711Y-104498183D01*
X139585468Y-104460651D01*
X139581883Y-104428396D01*
X139571773Y-104402138D01*
X139555365Y-104380539D01*
X139533677Y-104364212D01*
X139507483Y-104354171D01*
X139475498Y-104350619D01*
X139444057Y-104354442D01*
X139416346Y-104365629D01*
X139391417Y-104384508D01*
X139372063Y-104409180D01*
X139357774Y-104441520D01*
X139349102Y-104483487D01*
X139172148Y-104453690D01*
X139187553Y-104393602D01*
X139206305Y-104345563D01*
X139227835Y-104307632D01*
X139255456Y-104274265D01*
X139289763Y-104245686D01*
X139331639Y-104221720D01*
X139377004Y-104204560D01*
X139426524Y-104194023D01*
X139480932Y-104190396D01*
X139550401Y-104196445D01*
X139610257Y-104213724D01*
X139662286Y-104241656D01*
X139707773Y-104280644D01*
X139739250Y-104319806D01*
X139760943Y-104360249D01*
X139773793Y-104402540D01*
X139778114Y-104447462D01*
X139772617Y-104496942D01*
X139756430Y-104541757D01*
X139729125Y-104583137D01*
X139689147Y-104621823D01*
X139633950Y-104657999D01*
X139688276Y-104675771D01*
X139733673Y-104703246D01*
X139771581Y-104740797D01*
X139799960Y-104786022D01*
X139817203Y-104837247D01*
X139823177Y-104896075D01*
X139817066Y-104960126D01*
X139799177Y-105018188D01*
X139769442Y-105071577D01*
X139726823Y-105121205D01*
X139675943Y-105161781D01*
X139619805Y-105190585D01*
X139557343Y-105208182D01*
X139487099Y-105214262D01*
X139420012Y-105208939D01*
X139360931Y-105193635D01*
X139308478Y-105168835D01*
X139261602Y-105134333D01*
X139221814Y-105091582D01*
X139191457Y-105043109D01*
X139170061Y-104988043D01*
X139157799Y-104925139D01*
G37*
X155193409Y-100596993D02*
X155241028Y-100454136D01*
X155241028Y-100454136D02*
X155288647Y-100406517D01*
X155288647Y-100406517D02*
X155383885Y-100358898D01*
X155383885Y-100358898D02*
X155526742Y-100358898D01*
X155526742Y-100358898D02*
X155621980Y-100406517D01*
X155621980Y-100406517D02*
X155669600Y-100454136D01*
X155669600Y-100454136D02*
X155717219Y-100549374D01*
X155717219Y-100549374D02*
X155717219Y-100930326D01*
X155717219Y-100930326D02*
X154717219Y-100930326D01*
X154717219Y-100930326D02*
X154717219Y-100596993D01*
X154717219Y-100596993D02*
X154764838Y-100501755D01*
X154764838Y-100501755D02*
X154812457Y-100454136D01*
X154812457Y-100454136D02*
X154907695Y-100406517D01*
X154907695Y-100406517D02*
X155002933Y-100406517D01*
X155002933Y-100406517D02*
X155098171Y-100454136D01*
X155098171Y-100454136D02*
X155145790Y-100501755D01*
X155145790Y-100501755D02*
X155193409Y-100596993D01*
X155193409Y-100596993D02*
X155193409Y-100930326D01*
X155621980Y-99930326D02*
X155669600Y-99882707D01*
X155669600Y-99882707D02*
X155717219Y-99930326D01*
X155717219Y-99930326D02*
X155669600Y-99977945D01*
X155669600Y-99977945D02*
X155621980Y-99930326D01*
X155621980Y-99930326D02*
X155717219Y-99930326D01*
X155717219Y-98977946D02*
X155717219Y-99454136D01*
X155717219Y-99454136D02*
X154717219Y-99454136D01*
X155717219Y-98501755D02*
X155669600Y-98596993D01*
X155669600Y-98596993D02*
X155621980Y-98644612D01*
X155621980Y-98644612D02*
X155526742Y-98692231D01*
X155526742Y-98692231D02*
X155241028Y-98692231D01*
X155241028Y-98692231D02*
X155145790Y-98644612D01*
X155145790Y-98644612D02*
X155098171Y-98596993D01*
X155098171Y-98596993D02*
X155050552Y-98501755D01*
X155050552Y-98501755D02*
X155050552Y-98358898D01*
X155050552Y-98358898D02*
X155098171Y-98263660D01*
X155098171Y-98263660D02*
X155145790Y-98216041D01*
X155145790Y-98216041D02*
X155241028Y-98168422D01*
X155241028Y-98168422D02*
X155526742Y-98168422D01*
X155526742Y-98168422D02*
X155621980Y-98216041D01*
X155621980Y-98216041D02*
X155669600Y-98263660D01*
X155669600Y-98263660D02*
X155717219Y-98358898D01*
X155717219Y-98358898D02*
X155717219Y-98501755D01*
X154717219Y-98596993D02*
X154764838Y-98549374D01*
X154764838Y-98549374D02*
X154812457Y-98596993D01*
X154812457Y-98596993D02*
X154764838Y-98644612D01*
X154764838Y-98644612D02*
X154717219Y-98596993D01*
X154717219Y-98596993D02*
X154812457Y-98596993D01*
X154717219Y-98216041D02*
X154764838Y-98168422D01*
X154764838Y-98168422D02*
X154812457Y-98216041D01*
X154812457Y-98216041D02*
X154764838Y-98263660D01*
X154764838Y-98263660D02*
X154717219Y-98216041D01*
X154717219Y-98216041D02*
X154812457Y-98216041D01*
X155717219Y-97596993D02*
X155669600Y-97692231D01*
X155669600Y-97692231D02*
X155574361Y-97739850D01*
X155574361Y-97739850D02*
X154717219Y-97739850D01*
X155717219Y-97216040D02*
X155050552Y-97216040D01*
X154717219Y-97216040D02*
X154764838Y-97263659D01*
X154764838Y-97263659D02*
X154812457Y-97216040D01*
X154812457Y-97216040D02*
X154764838Y-97168421D01*
X154764838Y-97168421D02*
X154717219Y-97216040D01*
X154717219Y-97216040D02*
X154812457Y-97216040D01*
X155050552Y-96311279D02*
X155860076Y-96311279D01*
X155860076Y-96311279D02*
X155955314Y-96358898D01*
X155955314Y-96358898D02*
X156002933Y-96406517D01*
X156002933Y-96406517D02*
X156050552Y-96501755D01*
X156050552Y-96501755D02*
X156050552Y-96644612D01*
X156050552Y-96644612D02*
X156002933Y-96739850D01*
X155669600Y-96311279D02*
X155717219Y-96406517D01*
X155717219Y-96406517D02*
X155717219Y-96596993D01*
X155717219Y-96596993D02*
X155669600Y-96692231D01*
X155669600Y-96692231D02*
X155621980Y-96739850D01*
X155621980Y-96739850D02*
X155526742Y-96787469D01*
X155526742Y-96787469D02*
X155241028Y-96787469D01*
X155241028Y-96787469D02*
X155145790Y-96739850D01*
X155145790Y-96739850D02*
X155098171Y-96692231D01*
X155098171Y-96692231D02*
X155050552Y-96596993D01*
X155050552Y-96596993D02*
X155050552Y-96406517D01*
X155050552Y-96406517D02*
X155098171Y-96311279D01*
X155669600Y-95454136D02*
X155717219Y-95549374D01*
X155717219Y-95549374D02*
X155717219Y-95739850D01*
X155717219Y-95739850D02*
X155669600Y-95835088D01*
X155669600Y-95835088D02*
X155574361Y-95882707D01*
X155574361Y-95882707D02*
X155193409Y-95882707D01*
X155193409Y-95882707D02*
X155098171Y-95835088D01*
X155098171Y-95835088D02*
X155050552Y-95739850D01*
X155050552Y-95739850D02*
X155050552Y-95549374D01*
X155050552Y-95549374D02*
X155098171Y-95454136D01*
X155098171Y-95454136D02*
X155193409Y-95406517D01*
X155193409Y-95406517D02*
X155288647Y-95406517D01*
X155288647Y-95406517D02*
X155383885Y-95882707D01*
X155717219Y-94977945D02*
X155050552Y-94977945D01*
X155241028Y-94977945D02*
X155145790Y-94930326D01*
X155145790Y-94930326D02*
X155098171Y-94882707D01*
X155098171Y-94882707D02*
X155050552Y-94787469D01*
X155050552Y-94787469D02*
X155050552Y-94692231D01*
X145619673Y-94593409D02*
X145953006Y-94593409D01*
X146095863Y-95117219D02*
X145619673Y-95117219D01*
X145619673Y-95117219D02*
X145619673Y-94117219D01*
X145619673Y-94117219D02*
X146095863Y-94117219D01*
X146524435Y-94736266D02*
X147286340Y-94736266D01*
X147762530Y-95117219D02*
X147762530Y-94117219D01*
X147762530Y-94117219D02*
X148143482Y-94117219D01*
X148143482Y-94117219D02*
X148238720Y-94164838D01*
X148238720Y-94164838D02*
X148286339Y-94212457D01*
X148286339Y-94212457D02*
X148333958Y-94307695D01*
X148333958Y-94307695D02*
X148333958Y-94450552D01*
X148333958Y-94450552D02*
X148286339Y-94545790D01*
X148286339Y-94545790D02*
X148238720Y-94593409D01*
X148238720Y-94593409D02*
X148143482Y-94641028D01*
X148143482Y-94641028D02*
X147762530Y-94641028D01*
X150286340Y-95117219D02*
X150286340Y-94117219D01*
X150286340Y-94593409D02*
X150857768Y-94593409D01*
X150857768Y-95117219D02*
X150857768Y-94117219D01*
X151333959Y-94736266D02*
X152095864Y-94736266D01*
X152572054Y-95117219D02*
X152572054Y-94117219D01*
X152572054Y-94117219D02*
X152953006Y-94117219D01*
X152953006Y-94117219D02*
X153048244Y-94164838D01*
X153048244Y-94164838D02*
X153095863Y-94212457D01*
X153095863Y-94212457D02*
X153143482Y-94307695D01*
X153143482Y-94307695D02*
X153143482Y-94450552D01*
X153143482Y-94450552D02*
X153095863Y-94545790D01*
X153095863Y-94545790D02*
X153048244Y-94593409D01*
X153048244Y-94593409D02*
X152953006Y-94641028D01*
X152953006Y-94641028D02*
X152572054Y-94641028D01*
D12*
X150035714Y-99974809D02*
X150035714Y-99474809D01*
X150035714Y-99474809D02*
X150154762Y-99474809D01*
X150154762Y-99474809D02*
X150226190Y-99498619D01*
X150226190Y-99498619D02*
X150273809Y-99546238D01*
X150273809Y-99546238D02*
X150297619Y-99593857D01*
X150297619Y-99593857D02*
X150321428Y-99689095D01*
X150321428Y-99689095D02*
X150321428Y-99760523D01*
X150321428Y-99760523D02*
X150297619Y-99855761D01*
X150297619Y-99855761D02*
X150273809Y-99903380D01*
X150273809Y-99903380D02*
X150226190Y-99951000D01*
X150226190Y-99951000D02*
X150154762Y-99974809D01*
X150154762Y-99974809D02*
X150035714Y-99974809D01*
X150535714Y-99974809D02*
X150535714Y-99474809D01*
X150702381Y-99474809D02*
X150869047Y-99974809D01*
X150869047Y-99974809D02*
X151035714Y-99474809D01*
D13*
%TO.C,R1*%
X150070000Y-105403641D02*
X150070000Y-105096359D01*
X150830000Y-105403641D02*
X150830000Y-105096359D01*
%TO.C,TP4*%
X138664705Y-102364723D02*
G75*
G02*
X138024393Y-102364723I-320156J0D01*
G01*
X138024393Y-102364723D02*
G75*
G02*
X138664705Y-102364723I320156J0D01*
G01*
%TO.C,C14*%
X153782836Y-95790000D02*
X153567164Y-95790000D01*
X153782836Y-96510000D02*
X153567164Y-96510000D01*
%TO.C,C5*%
X146790000Y-105142164D02*
X146790000Y-105357836D01*
X147510000Y-105142164D02*
X147510000Y-105357836D01*
%TO.C,R4*%
X139515000Y-98672936D02*
X139515000Y-99127064D01*
X140985000Y-98672936D02*
X140985000Y-99127064D01*
%TO.C,U2*%
X141880000Y-95430000D02*
X141880000Y-95630000D01*
X141880000Y-96470000D02*
X141880000Y-96270000D01*
X142080000Y-95430000D02*
X141880000Y-95430000D01*
X142080000Y-96470000D02*
X141880000Y-96470000D01*
X142720000Y-95430000D02*
X142920000Y-95430000D01*
X142920000Y-95430000D02*
X142920000Y-95630000D01*
D10*
X142870001Y-96460000D02*
X142870001Y-96460000D01*
X142870001Y-96460000D01*
X142870001Y-96460000D01*
X142870001Y-96460000D01*
X142870001Y-96460000D01*
X142870001Y-96460001D01*
X142870001Y-96460001D01*
X142870001Y-96460001D01*
X142870001Y-96460001D01*
X142870001Y-96460001D01*
X142870001Y-96460001D01*
X142870001Y-96460001D01*
X142870000Y-96460001D01*
X142870000Y-96460001D01*
X142870000Y-96460001D01*
X142870000Y-96460001D01*
X142870000Y-96460001D01*
X142870000Y-96460001D01*
X142870000Y-96460001D01*
X142870000Y-96460001D01*
X142870000Y-96460001D01*
X142870000Y-96460001D01*
X142870000Y-96460001D01*
X142870000Y-96460001D01*
X142869999Y-96460001D01*
X142869999Y-96460001D01*
X142869999Y-96460001D01*
X142869999Y-96460001D01*
X142869999Y-96460001D01*
X142869999Y-96460001D01*
X142869999Y-96460000D01*
X142869999Y-96460000D01*
X142869999Y-96460000D01*
X142869999Y-96460000D01*
X142869999Y-96460000D01*
X142869999Y-96460000D01*
X142869999Y-96460000D02*
X142869999Y-96460000D01*
X142869999Y-96460000D01*
X142869999Y-96460000D01*
X142869999Y-96460000D01*
X142869999Y-96460000D01*
X142869999Y-96460000D01*
X142869999Y-96459999D01*
X142869999Y-96459999D01*
X142869999Y-96459999D01*
X142869999Y-96459999D01*
X142869999Y-96459999D01*
X142870000Y-96459999D01*
X142870000Y-96459999D01*
X142870000Y-96459999D01*
X142870000Y-96459999D01*
X142870000Y-96459999D01*
X142870000Y-96459999D01*
X142870000Y-96459999D01*
X142870000Y-96459999D01*
X142870000Y-96459999D01*
X142870000Y-96459999D01*
X142870000Y-96459999D01*
X142870000Y-96459999D01*
X142870001Y-96459999D01*
X142870001Y-96459999D01*
X142870001Y-96459999D01*
X142870001Y-96459999D01*
X142870001Y-96459999D01*
X142870001Y-96459999D01*
X142870001Y-96460000D01*
X142870001Y-96460000D01*
X142870001Y-96460000D01*
X142870001Y-96460000D01*
X142870001Y-96460000D01*
X142870001Y-96460000D01*
X142870001Y-96460000D01*
D13*
%TO.C,C2*%
X150367164Y-100290000D02*
X150582836Y-100290000D01*
X150367164Y-101010000D02*
X150582836Y-101010000D01*
%TO.C,C13*%
X151682836Y-95790000D02*
X151467164Y-95790000D01*
X151682836Y-96510000D02*
X151467164Y-96510000D01*
D10*
%TO.C,U$1*%
X142150000Y-103650000D02*
X142150000Y-98450000D01*
X148850000Y-98450000D02*
X142150000Y-98450000D01*
X148850000Y-103650000D02*
X142150000Y-103650000D01*
X148850000Y-103650000D02*
X148850000Y-98450000D01*
D14*
X141805000Y-103190000D02*
G75*
G02*
X141555000Y-103190000I-125000J0D01*
G01*
X141555000Y-103190000D02*
G75*
G02*
X141805000Y-103190000I125000J0D01*
G01*
D13*
%TO.C,C8*%
X148990000Y-105142164D02*
X148990000Y-105357836D01*
X149710000Y-105142164D02*
X149710000Y-105357836D01*
%TO.C,C9*%
X145890000Y-96857836D02*
X145890000Y-96642164D01*
X146610000Y-96857836D02*
X146610000Y-96642164D01*
%TO.C,DIV*%
X150430000Y-98550000D02*
G75*
G02*
X149670000Y-98550000I-380000J0D01*
G01*
X149670000Y-98550000D02*
G75*
G02*
X150430000Y-98550000I380000J0D01*
G01*
%TO.C,C16*%
X149842164Y-106590000D02*
X150057836Y-106590000D01*
X149842164Y-107310000D02*
X150057836Y-107310000D01*
%TO.C,C18*%
X137440000Y-95927836D02*
X137440000Y-95712164D01*
X138160000Y-95927836D02*
X138160000Y-95712164D01*
%TO.C,C4*%
X150367164Y-101290000D02*
X150582836Y-101290000D01*
X150367164Y-102010000D02*
X150582836Y-102010000D01*
%TO.C,C12*%
X151682836Y-96890000D02*
X151467164Y-96890000D01*
X151682836Y-97610000D02*
X151467164Y-97610000D01*
%TO.C,C10*%
X146990000Y-96857836D02*
X146990000Y-96642164D01*
X147710000Y-96857836D02*
X147710000Y-96642164D01*
D15*
%TO.C,REF\u002A\u002A*%
G36*
X143733199Y-106291209D02*
G01*
X143720617Y-106375080D01*
X143705541Y-106425378D01*
X143680782Y-106450675D01*
X143639152Y-106459542D01*
X143591151Y-106460567D01*
X143524552Y-106456792D01*
X143492755Y-106444074D01*
X143487409Y-106429807D01*
X143491664Y-106392184D01*
X143502509Y-106330506D01*
X143510368Y-106291994D01*
X143533327Y-106184941D01*
X143640311Y-106184941D01*
X143747296Y-106184941D01*
X143733199Y-106291209D01*
G37*
G36*
X146220042Y-106275049D02*
G01*
X146201427Y-106363059D01*
X146186974Y-106417794D01*
X146170492Y-106447097D01*
X146145792Y-106458815D01*
X146106681Y-106460793D01*
X146073649Y-106460567D01*
X146006400Y-106456916D01*
X145973914Y-106444581D01*
X145968043Y-106429807D01*
X145972298Y-106392184D01*
X145983143Y-106330506D01*
X145991002Y-106291994D01*
X146013961Y-106184941D01*
X146126562Y-106184941D01*
X146239162Y-106184941D01*
X146220042Y-106275049D01*
G37*
G36*
X144245234Y-106186243D02*
G01*
X144277649Y-106193042D01*
X144286421Y-106209681D01*
X144282797Y-106232645D01*
X144271386Y-106284961D01*
X144257530Y-106352552D01*
X144255035Y-106365158D01*
X144238368Y-106449966D01*
X144127914Y-106456374D01*
X144066097Y-106456724D01*
X144026012Y-106450737D01*
X144017459Y-106444009D01*
X144021370Y-106414319D01*
X144031472Y-106357198D01*
X144041588Y-106305088D01*
X144065717Y-106184941D01*
X144179805Y-106184941D01*
X144245234Y-106186243D01*
G37*
G36*
X145972365Y-107510066D02*
G01*
X145834589Y-108199131D01*
X145720695Y-108199131D01*
X145655349Y-108197833D01*
X145623038Y-108191037D01*
X145614409Y-108174391D01*
X145618184Y-108151427D01*
X145624768Y-108120620D01*
X145638106Y-108055740D01*
X145656980Y-107962866D01*
X145680173Y-107848080D01*
X145706468Y-107717462D01*
X145734648Y-107577092D01*
X145763495Y-107433052D01*
X145791793Y-107291420D01*
X145818325Y-107158279D01*
X145841873Y-107039709D01*
X145861219Y-106941789D01*
X145875148Y-106870601D01*
X145882442Y-106832225D01*
X145883235Y-106827302D01*
X145902391Y-106823809D01*
X145951678Y-106821521D01*
X145996688Y-106821001D01*
X146110140Y-106821001D01*
X145972365Y-107510066D01*
G37*
G36*
X145457454Y-106828214D02*
G01*
X145502112Y-106848444D01*
X145557124Y-106880811D01*
X145593639Y-106908452D01*
X145601106Y-106918104D01*
X145590979Y-106943265D01*
X145557500Y-106986073D01*
X145523369Y-107021866D01*
X145438627Y-107104614D01*
X145390606Y-107059788D01*
X145309324Y-107010562D01*
X145215788Y-106999080D01*
X145116072Y-107024850D01*
X145016250Y-107087377D01*
X145012485Y-107090515D01*
X144973702Y-107127561D01*
X144940672Y-107171191D01*
X144911432Y-107226954D01*
X144884022Y-107300398D01*
X144856479Y-107397075D01*
X144826842Y-107522531D01*
X144793150Y-107682318D01*
X144779711Y-107749007D01*
X144689765Y-108199131D01*
X144575829Y-108199131D01*
X144510467Y-108197834D01*
X144478142Y-108191043D01*
X144469501Y-108174407D01*
X144473276Y-108151427D01*
X144479860Y-108120620D01*
X144493198Y-108055740D01*
X144512072Y-107962866D01*
X144535265Y-107848080D01*
X144561560Y-107717462D01*
X144589740Y-107577092D01*
X144618587Y-107433052D01*
X144646885Y-107291420D01*
X144673417Y-107158279D01*
X144696964Y-107039709D01*
X144716311Y-106941789D01*
X144730240Y-106870601D01*
X144737534Y-106832225D01*
X144738327Y-106827302D01*
X144757412Y-106823706D01*
X144806204Y-106821425D01*
X144844337Y-106821001D01*
X144907922Y-106823233D01*
X144939635Y-106832710D01*
X144949894Y-106853597D01*
X144950347Y-106863405D01*
X144952578Y-106897881D01*
X144955648Y-106905720D01*
X144975819Y-106896915D01*
X145022239Y-106874309D01*
X145065251Y-106852715D01*
X145194834Y-106808192D01*
X145329252Y-106799989D01*
X145457454Y-106828214D01*
G37*
G36*
X147168327Y-106815372D02*
G01*
X147186075Y-106820643D01*
X147246924Y-106848743D01*
X147310619Y-106890337D01*
X147366034Y-106936533D01*
X147402045Y-106978439D01*
X147409780Y-106999448D01*
X147395266Y-107029148D01*
X147360543Y-107070884D01*
X147318837Y-107111099D01*
X147283375Y-107136233D01*
X147273605Y-107139031D01*
X147248492Y-107126155D01*
X147205409Y-107093705D01*
X147185110Y-107076471D01*
X147091335Y-107018643D01*
X146990461Y-106998748D01*
X146887789Y-107014172D01*
X146788622Y-107062297D01*
X146698262Y-107140508D01*
X146622010Y-107246189D01*
X146565169Y-107376723D01*
X146563076Y-107383389D01*
X146519503Y-107552718D01*
X146503289Y-107692531D01*
X146514668Y-107805904D01*
X146553870Y-107895911D01*
X146606143Y-107953771D01*
X146700561Y-108007910D01*
X146804506Y-108022885D01*
X146912400Y-107999152D01*
X147018662Y-107937170D01*
X147041673Y-107918090D01*
X147115171Y-107853558D01*
X147176805Y-107925635D01*
X147214629Y-107975307D01*
X147236891Y-108015022D01*
X147239302Y-108024682D01*
X147222304Y-108051782D01*
X147177173Y-108089152D01*
X147114591Y-108129984D01*
X147045238Y-108167474D01*
X146979797Y-108194817D01*
X146965269Y-108199278D01*
X146821766Y-108221524D01*
X146676300Y-108212724D01*
X146543963Y-108174155D01*
X146517144Y-108161299D01*
X146441030Y-108114660D01*
X146388378Y-108060913D01*
X146345107Y-107989262D01*
X146312611Y-107919431D01*
X146294622Y-107854996D01*
X146287281Y-107777887D01*
X146286387Y-107714364D01*
X146302151Y-107506001D01*
X146347318Y-107316968D01*
X146419955Y-107151277D01*
X146518130Y-107012942D01*
X146639912Y-106905975D01*
X146690366Y-106875261D01*
X146799674Y-106831909D01*
X146926908Y-106806250D01*
X147055361Y-106800125D01*
X147168327Y-106815372D01*
G37*
G36*
X142946266Y-106908721D02*
G01*
X142938908Y-106937184D01*
X142924221Y-106969759D01*
X142899263Y-107010211D01*
X142861090Y-107062307D01*
X142806762Y-107129815D01*
X142733337Y-107216500D01*
X142637870Y-107326130D01*
X142517422Y-107462471D01*
X142486699Y-107497077D01*
X142041952Y-107997712D01*
X142394910Y-108003531D01*
X142524953Y-108006008D01*
X142618309Y-108008954D01*
X142680695Y-108013076D01*
X142717827Y-108019081D01*
X142735421Y-108027675D01*
X142739194Y-108039565D01*
X142737973Y-108045935D01*
X142725844Y-108094436D01*
X142715103Y-108140826D01*
X142702127Y-108199131D01*
X142204814Y-108199131D01*
X141707501Y-108199131D01*
X141719763Y-108130225D01*
X141726225Y-108100781D01*
X141736636Y-108071262D01*
X141753897Y-108037921D01*
X141780909Y-107997014D01*
X141820573Y-107944796D01*
X141875791Y-107877521D01*
X141949464Y-107791444D01*
X142044492Y-107682819D01*
X142163778Y-107547902D01*
X142219517Y-107485077D01*
X142322335Y-107368843D01*
X142415317Y-107262939D01*
X142494904Y-107171481D01*
X142557538Y-107098588D01*
X142599659Y-107048375D01*
X142617708Y-107024962D01*
X142618127Y-107023934D01*
X142598147Y-107019718D01*
X142543093Y-107016140D01*
X142460295Y-107013479D01*
X142357080Y-107012015D01*
X142300097Y-107011819D01*
X142178016Y-107011638D01*
X142092024Y-107010463D01*
X142035806Y-107007345D01*
X142003048Y-107001337D01*
X141987433Y-106991491D01*
X141982649Y-106976858D01*
X141982356Y-106964114D01*
X141988375Y-106902712D01*
X141995430Y-106868705D01*
X142000429Y-106853312D01*
X142009617Y-106841647D01*
X142028299Y-106833193D01*
X142061777Y-106827435D01*
X142115356Y-106823853D01*
X142194337Y-106821932D01*
X142304025Y-106821154D01*
X142449722Y-106821002D01*
X142484650Y-106821001D01*
X142961086Y-106821001D01*
X142946266Y-106908721D01*
G37*
G36*
X143389010Y-107280964D02*
G01*
X143361822Y-107419317D01*
X143337799Y-107547386D01*
X143318189Y-107658036D01*
X143304239Y-107744133D01*
X143297196Y-107798544D01*
X143296591Y-107809388D01*
X143315771Y-107887507D01*
X143365873Y-107957778D01*
X143435733Y-108007132D01*
X143476704Y-108020293D01*
X143579343Y-108019289D01*
X143682757Y-107982939D01*
X143776948Y-107916912D01*
X143851920Y-107826875D01*
X143867915Y-107798508D01*
X143883798Y-107754841D01*
X143905667Y-107676953D01*
X143931694Y-107572299D01*
X143960050Y-107448334D01*
X143988906Y-107312514D01*
X143997277Y-107271125D01*
X144087224Y-106821001D01*
X144200755Y-106821001D01*
X144263670Y-106822064D01*
X144304897Y-106824800D01*
X144314287Y-106827302D01*
X144310296Y-106849326D01*
X144299135Y-106906836D01*
X144282020Y-106993751D01*
X144260170Y-107103991D01*
X144234800Y-107231474D01*
X144207129Y-107370121D01*
X144178373Y-107513852D01*
X144149750Y-107656585D01*
X144122476Y-107792239D01*
X144097769Y-107914736D01*
X144076846Y-108017993D01*
X144060924Y-108095930D01*
X144051221Y-108142468D01*
X144049235Y-108151427D01*
X144036831Y-108180237D01*
X144009667Y-108194456D01*
X143955807Y-108198951D01*
X143932247Y-108199131D01*
X143868769Y-108196859D01*
X143837170Y-108187278D01*
X143827046Y-108166244D01*
X143826641Y-108157067D01*
X143824581Y-108132907D01*
X143811845Y-108127203D01*
X143778596Y-108140507D01*
X143736532Y-108162112D01*
X143633082Y-108199584D01*
X143513929Y-108217161D01*
X143394805Y-108214293D01*
X143291441Y-108190434D01*
X143264788Y-108178549D01*
X143180853Y-108122166D01*
X143123532Y-108049140D01*
X143083781Y-107947537D01*
X143080398Y-107935249D01*
X143071930Y-107897759D01*
X143067904Y-107858803D01*
X143069057Y-107811514D01*
X143076124Y-107749028D01*
X143089842Y-107664481D01*
X143110949Y-107551006D01*
X143134626Y-107429836D01*
X143161079Y-107296225D01*
X143186193Y-107170058D01*
X143208257Y-107059880D01*
X143225561Y-106974234D01*
X143236382Y-106921710D01*
X143257701Y-106821001D01*
X143369565Y-106821001D01*
X143481429Y-106821001D01*
X143389010Y-107280964D01*
G37*
G36*
X148101030Y-106194947D02*
G01*
X148109446Y-106201727D01*
X148105428Y-106228193D01*
X148094361Y-106288457D01*
X148077722Y-106374782D01*
X148056990Y-106479428D01*
X148045840Y-106534774D01*
X148023584Y-106646422D01*
X148004726Y-106744390D01*
X147990758Y-106820660D01*
X147983171Y-106867218D01*
X147982234Y-106876599D01*
X147994254Y-106888138D01*
X148032974Y-106873648D01*
X148059094Y-106859030D01*
X148128216Y-106829330D01*
X148219106Y-106811872D01*
X148297617Y-106805719D01*
X148386892Y-106803323D01*
X148448919Y-106808420D01*
X148498559Y-106823497D01*
X148543655Y-106846914D01*
X148634902Y-106923563D01*
X148696471Y-107026265D01*
X148723843Y-107146936D01*
X148724800Y-107170834D01*
X148721076Y-107223079D01*
X148709988Y-107309001D01*
X148692768Y-107420751D01*
X148670652Y-107550482D01*
X148644871Y-107690348D01*
X148635652Y-107737988D01*
X148545310Y-108199131D01*
X148433388Y-108199131D01*
X148371010Y-108196413D01*
X148330411Y-108189428D01*
X148321535Y-108183230D01*
X148325519Y-108158707D01*
X148336649Y-108098699D01*
X148353753Y-108009297D01*
X148375660Y-107896597D01*
X148401197Y-107766691D01*
X148415701Y-107693460D01*
X148446302Y-107537513D01*
X148468808Y-107417191D01*
X148483950Y-107326644D01*
X148492459Y-107260021D01*
X148495065Y-107211472D01*
X148492500Y-107175146D01*
X148485493Y-107145193D01*
X148484538Y-107142208D01*
X148441187Y-107067333D01*
X148374434Y-107020438D01*
X148291914Y-107000606D01*
X148201259Y-107006921D01*
X148110103Y-107038467D01*
X148026079Y-107094327D01*
X147956821Y-107173584D01*
X147936822Y-107207961D01*
X147916863Y-107260477D01*
X147891571Y-107348492D01*
X147862528Y-107465668D01*
X147831316Y-107605669D01*
X147803199Y-107743288D01*
X147715825Y-108188530D01*
X147605207Y-108194939D01*
X147535452Y-108195588D01*
X147501227Y-108186398D01*
X147495203Y-108173737D01*
X147499410Y-108147920D01*
X147511220Y-108084761D01*
X147529804Y-107988475D01*
X147554332Y-107863278D01*
X147583974Y-107713384D01*
X147617901Y-107543008D01*
X147655283Y-107356367D01*
X147692634Y-107170834D01*
X147889449Y-106195542D01*
X147999447Y-106189133D01*
X148061116Y-106188830D01*
X148101030Y-106194947D01*
G37*
G36*
X144571153Y-104092082D02*
G01*
X144563197Y-104128361D01*
X144548344Y-104198030D01*
X144528312Y-104292962D01*
X144504819Y-104405029D01*
X144488125Y-104485037D01*
X144416224Y-104830287D01*
X144631035Y-104824269D01*
X144845846Y-104818251D01*
X144924971Y-104436615D01*
X144950071Y-104315457D01*
X144971967Y-104209579D01*
X144989296Y-104125582D01*
X145000698Y-104070071D01*
X145004805Y-104049678D01*
X145025042Y-104047833D01*
X145080331Y-104046268D01*
X145163323Y-104045104D01*
X145266666Y-104044463D01*
X145323544Y-104044378D01*
X145446350Y-104044779D01*
X145532970Y-104046465D01*
X145589615Y-104050160D01*
X145622500Y-104056589D01*
X145637837Y-104066475D01*
X145641840Y-104080544D01*
X145641855Y-104081481D01*
X145637809Y-104109285D01*
X145626110Y-104174354D01*
X145607590Y-104272410D01*
X145583085Y-104399171D01*
X145553426Y-104550358D01*
X145519448Y-104721691D01*
X145481984Y-104908889D01*
X145445736Y-105088572D01*
X145249337Y-106058559D01*
X144926006Y-106058564D01*
X144814351Y-106058132D01*
X144719387Y-106056938D01*
X144648384Y-106055139D01*
X144608610Y-106052893D01*
X144602675Y-106051557D01*
X144606664Y-106029536D01*
X144617734Y-105972740D01*
X144634541Y-105887951D01*
X144655741Y-105781954D01*
X144676883Y-105676932D01*
X144700830Y-105557922D01*
X144721562Y-105454173D01*
X144737734Y-105372470D01*
X144748003Y-105319596D01*
X144751090Y-105302307D01*
X144731389Y-105299355D01*
X144678292Y-105297016D01*
X144600805Y-105295591D01*
X144540498Y-105295296D01*
X144442694Y-105296209D01*
X144379370Y-105299829D01*
X144342625Y-105307482D01*
X144324559Y-105320491D01*
X144319104Y-105332400D01*
X144311506Y-105365007D01*
X144297425Y-105431372D01*
X144278484Y-105523627D01*
X144256304Y-105633907D01*
X144240424Y-105714036D01*
X144172547Y-106058568D01*
X143846556Y-106058568D01*
X143520565Y-106058568D01*
X143531956Y-106010864D01*
X143538433Y-105980504D01*
X143551740Y-105915715D01*
X143570706Y-105822340D01*
X143594161Y-105706228D01*
X143620936Y-105573223D01*
X143649859Y-105429172D01*
X143679761Y-105279922D01*
X143709472Y-105131318D01*
X143737822Y-104989206D01*
X143763641Y-104859433D01*
X143785758Y-104747845D01*
X143803004Y-104660288D01*
X143814208Y-104602608D01*
X143818201Y-104580652D01*
X143798378Y-104578228D01*
X143744424Y-104576245D01*
X143664611Y-104574910D01*
X143568569Y-104574428D01*
X143318936Y-104574428D01*
X143171540Y-105316498D01*
X143024144Y-106058568D01*
X142700305Y-106058568D01*
X142588559Y-106057540D01*
X142493498Y-106054706D01*
X142422384Y-106050438D01*
X142382480Y-106045110D01*
X142376465Y-106041917D01*
X142380493Y-106017929D01*
X142391941Y-105957227D01*
X142409860Y-105864666D01*
X142433298Y-105745102D01*
X142461303Y-105603391D01*
X142492925Y-105444387D01*
X142521821Y-105299847D01*
X142667177Y-104574428D01*
X141962375Y-104574428D01*
X141257574Y-104574428D01*
X141242860Y-104672548D01*
X141231678Y-104737824D01*
X141220680Y-104787743D01*
X141216982Y-104799760D01*
X141219528Y-104809546D01*
X141238773Y-104816943D01*
X141279370Y-104822258D01*
X141345972Y-104825793D01*
X141443230Y-104827855D01*
X141575798Y-104828748D01*
X141660850Y-104828852D01*
X142115882Y-104828852D01*
X142070356Y-105056773D01*
X142024829Y-105284695D01*
X141570732Y-105295296D01*
X141116635Y-105305897D01*
X141092237Y-105427809D01*
X141067839Y-105549720D01*
X141522162Y-105549720D01*
X141672121Y-105549931D01*
X141784779Y-105550850D01*
X141865237Y-105552902D01*
X141918598Y-105556515D01*
X141949962Y-105562114D01*
X141964433Y-105570127D01*
X141967110Y-105580981D01*
X141965851Y-105586824D01*
X141957114Y-105623959D01*
X141943120Y-105690500D01*
X141926423Y-105774173D01*
X141920622Y-105804144D01*
X141903589Y-105890831D01*
X141888396Y-105964531D01*
X141877598Y-106012971D01*
X141875393Y-106021465D01*
X141870182Y-106031162D01*
X141857955Y-106039013D01*
X141834633Y-106045212D01*
X141796138Y-106049951D01*
X141738390Y-106053424D01*
X141657313Y-106055824D01*
X141548826Y-106057345D01*
X141408853Y-106058179D01*
X141233313Y-106058519D01*
X141092315Y-106058568D01*
X140916075Y-106058410D01*
X140753961Y-106057961D01*
X140610676Y-106057257D01*
X140490922Y-106056335D01*
X140399402Y-106055230D01*
X140340818Y-106053979D01*
X140319874Y-106052618D01*
X140319871Y-106052600D01*
X140323885Y-106030824D01*
X140335265Y-105972458D01*
X140353012Y-105882479D01*
X140376132Y-105765870D01*
X140403627Y-105627610D01*
X140434502Y-105472679D01*
X140467759Y-105306057D01*
X140502404Y-105132724D01*
X140537438Y-104957661D01*
X140571867Y-104785848D01*
X140604693Y-104622265D01*
X140634920Y-104471891D01*
X140661553Y-104339707D01*
X140683594Y-104230694D01*
X140700047Y-104149831D01*
X140709916Y-104102098D01*
X140712101Y-104092082D01*
X140723517Y-104044378D01*
X142652899Y-104044378D01*
X144582281Y-104044378D01*
X144571153Y-104092082D01*
G37*
D13*
%TO.C,U1*%
X138480000Y-95430000D02*
X138480000Y-95630000D01*
X138480000Y-96470000D02*
X138480000Y-96270000D01*
X138680000Y-95430000D02*
X138480000Y-95430000D01*
X138680000Y-96470000D02*
X138480000Y-96470000D01*
X139320000Y-95430000D02*
X139520000Y-95430000D01*
X139520000Y-95430000D02*
X139520000Y-95630000D01*
D10*
X139440001Y-96520000D02*
X139440001Y-96520000D01*
X139440001Y-96520000D01*
X139440001Y-96520000D01*
X139440001Y-96520000D01*
X139440001Y-96520000D01*
X139440001Y-96520001D01*
X139440001Y-96520001D01*
X139440001Y-96520001D01*
X139440001Y-96520001D01*
X139440001Y-96520001D01*
X139440001Y-96520001D01*
X139440001Y-96520001D01*
X139440000Y-96520001D01*
X139440000Y-96520001D01*
X139440000Y-96520001D01*
X139440000Y-96520001D01*
X139440000Y-96520001D01*
X139440000Y-96520001D01*
X139440000Y-96520001D01*
X139440000Y-96520001D01*
X139440000Y-96520001D01*
X139440000Y-96520001D01*
X139440000Y-96520001D01*
X139440000Y-96520001D01*
X139439999Y-96520001D01*
X139439999Y-96520001D01*
X139439999Y-96520001D01*
X139439999Y-96520001D01*
X139439999Y-96520001D01*
X139439999Y-96520001D01*
X139439999Y-96520000D01*
X139439999Y-96520000D01*
X139439999Y-96520000D01*
X139439999Y-96520000D01*
X139439999Y-96520000D01*
X139439999Y-96520000D01*
X139439999Y-96520000D02*
X139439999Y-96520000D01*
X139439999Y-96520000D01*
X139439999Y-96520000D01*
X139439999Y-96520000D01*
X139439999Y-96520000D01*
X139439999Y-96520000D01*
X139439999Y-96519999D01*
X139439999Y-96519999D01*
X139439999Y-96519999D01*
X139439999Y-96519999D01*
X139439999Y-96519999D01*
X139440000Y-96519999D01*
X139440000Y-96519999D01*
X139440000Y-96519999D01*
X139440000Y-96519999D01*
X139440000Y-96519999D01*
X139440000Y-96519999D01*
X139440000Y-96519999D01*
X139440000Y-96519999D01*
X139440000Y-96519999D01*
X139440000Y-96519999D01*
X139440000Y-96519999D01*
X139440000Y-96519999D01*
X139440001Y-96519999D01*
X139440001Y-96519999D01*
X139440001Y-96519999D01*
X139440001Y-96519999D01*
X139440001Y-96519999D01*
X139440001Y-96519999D01*
X139440001Y-96520000D01*
X139440001Y-96520000D01*
X139440001Y-96520000D01*
X139440001Y-96520000D01*
X139440001Y-96520000D01*
X139440001Y-96520000D01*
X139440001Y-96520000D01*
D13*
%TO.C,R3*%
X137515000Y-98672936D02*
X137515000Y-99127064D01*
X138985000Y-98672936D02*
X138985000Y-99127064D01*
%TO.C,TP3*%
X139764705Y-103564723D02*
G75*
G02*
X139124393Y-103564723I-320156J0D01*
G01*
X139124393Y-103564723D02*
G75*
G02*
X139764705Y-103564723I320156J0D01*
G01*
%TO.C,C6*%
X145665000Y-105142164D02*
X145665000Y-105357836D01*
X146385000Y-105142164D02*
X146385000Y-105357836D01*
%TO.C,TP5*%
X139765952Y-102364723D02*
G75*
G02*
X139123146Y-102364723I-321403J0D01*
G01*
X139123146Y-102364723D02*
G75*
G02*
X139765952Y-102364723I321403J0D01*
G01*
%TO.C,C1*%
X147890000Y-105142164D02*
X147890000Y-105357836D01*
X148610000Y-105142164D02*
X148610000Y-105357836D01*
%TO.C,C11*%
X149582836Y-95790000D02*
X149367164Y-95790000D01*
X149582836Y-96510000D02*
X149367164Y-96510000D01*
%TO.C,C3*%
X144790000Y-96857836D02*
X144790000Y-96642164D01*
X145510000Y-96857836D02*
X145510000Y-96642164D01*
%TO.C,C20*%
X140840000Y-95927836D02*
X140840000Y-95712164D01*
X141560000Y-95927836D02*
X141560000Y-95712164D01*
%TO.C,C7*%
X150367164Y-102290000D02*
X150582836Y-102290000D01*
X150367164Y-103010000D02*
X150582836Y-103010000D01*
%TO.C,TP2*%
X138668432Y-103564723D02*
G75*
G02*
X138020666Y-103564723I-323883J0D01*
G01*
X138020666Y-103564723D02*
G75*
G02*
X138668432Y-103564723I323883J0D01*
G01*
D16*
%TO.C,X1*%
X151822900Y-105387539D02*
X151822900Y-105912461D01*
X153677100Y-105912461D02*
X153677100Y-105387539D01*
X153637000Y-107690000D02*
G75*
G02*
X153383000Y-107690000I-127000J0D01*
G01*
X153383000Y-107690000D02*
G75*
G02*
X153637000Y-107690000I127000J0D01*
G01*
D13*
%TO.C,C15*%
X153567164Y-102940000D02*
X153782836Y-102940000D01*
X153567164Y-103660000D02*
X153782836Y-103660000D01*
%TD*%
M02*
