%TF.GenerationSoftware,KiCad,Pcbnew,9.0.4*%
%TF.CreationDate,2026-03-27T12:45:51+01:00*%
%TF.ProjectId,mmWave-Shield,6d6d5761-7665-42d5-9368-69656c642e6b,rev?*%
%TF.SameCoordinates,Original*%
%TF.FileFunction,Copper,L2,Inr*%
%TF.FilePolarity,Positive*%
%FSLAX46Y46*%
G04 Gerber Fmt 4.6, Leading zero omitted, Abs format (unit mm)*
G04 Created by KiCad (PCBNEW 9.0.4) date 2026-03-27 12:45:51*
%MOMM*%
%LPD*%
G01*
G04 APERTURE LIST*
%TA.AperFunction,ViaPad*%
%ADD10C,1.300000*%
%TD*%
%TA.AperFunction,ViaPad*%
%ADD11C,0.400000*%
%TD*%
G04 APERTURE END LIST*
D10*
%TO.N,*%
X141100000Y-107300000D03*
D11*
%TO.N,GND*%
X156500000Y-105800000D03*
X156500000Y-107800000D03*
X146600000Y-106850000D03*
X144600000Y-95550000D03*
X143200000Y-94250000D03*
X142550000Y-98350000D03*
X146600000Y-95550000D03*
X142200000Y-94250000D03*
X144500000Y-106800000D03*
X145500000Y-107800000D03*
X144750000Y-98350000D03*
X142050000Y-101550000D03*
X147425001Y-103976415D03*
X147500000Y-107800000D03*
X156500000Y-104800000D03*
X146550000Y-98350000D03*
X151500000Y-107800000D03*
X149500000Y-107800000D03*
X155500000Y-104800000D03*
X153500000Y-107800000D03*
X147600000Y-95550000D03*
X152650000Y-97250000D03*
X149050000Y-99450000D03*
X155500000Y-105800000D03*
X148150000Y-96100000D03*
X143500000Y-105800000D03*
X145600000Y-95550000D03*
X148800000Y-106950000D03*
X139500000Y-107500000D03*
X155500000Y-107800000D03*
X144500000Y-107800000D03*
X155500000Y-101800000D03*
X142050000Y-102350000D03*
X143300000Y-98350000D03*
X148500000Y-107800000D03*
X156500000Y-106800000D03*
X155500000Y-103800000D03*
X146500000Y-107800000D03*
X141200000Y-94250000D03*
X152500000Y-107800000D03*
X155500000Y-100800000D03*
X145500000Y-106850000D03*
X138550000Y-107500000D03*
X143500000Y-106800000D03*
X154200000Y-95600000D03*
X142050000Y-99200000D03*
X147200000Y-98350000D03*
X155500000Y-106800000D03*
X152449479Y-103249479D03*
X151650000Y-100650000D03*
X149100000Y-98750000D03*
X155500000Y-99800000D03*
X152050000Y-95600000D03*
X149050000Y-100100000D03*
X151150000Y-103450000D03*
X155500000Y-94800000D03*
X142050000Y-99850000D03*
X142050000Y-103100000D03*
X142050000Y-100850000D03*
X140200000Y-94250000D03*
X143500000Y-107800000D03*
X154500000Y-107800000D03*
X155500000Y-95800000D03*
X148600000Y-95550000D03*
X147700000Y-106850000D03*
X144000000Y-98350000D03*
X139200000Y-94250000D03*
X155500000Y-102800000D03*
X154500000Y-106800000D03*
X156500000Y-94800000D03*
X150500000Y-107800000D03*
%TO.N,VDD_RF*%
X147900000Y-97900000D03*
X149880212Y-105172001D03*
%TO.N,VDD_PLL*%
X150350000Y-101300000D03*
X152500521Y-98549479D03*
%TO.N,VDD_A*%
X147598848Y-105002739D03*
X152550000Y-100150000D03*
%TO.N,VDD_D*%
X152550000Y-100850000D03*
X145472000Y-104900000D03*
%TO.N,VDD_LF*%
X154750000Y-97250000D03*
X150243691Y-102297980D03*
%TO.N,1V8*%
X149955000Y-95600000D03*
X139862500Y-96500000D03*
X151095000Y-95605000D03*
X140312503Y-96500000D03*
%TO.N,3V3*%
X143300000Y-97000000D03*
X153200000Y-95600000D03*
X143700000Y-97000000D03*
%TO.N,GAP_GPIO46*%
X145400000Y-103900000D03*
%TO.N,nRF_P1.11_GAP_GPIO63*%
X145900000Y-103650000D03*
%TO.N,nRF_P0.12_GAP_GPIO64*%
X143900000Y-103650000D03*
%TO.N,VD2*%
X139899997Y-100550000D03*
X138100000Y-105650000D03*
X138100000Y-106050000D03*
X140350000Y-100550000D03*
%TO.N,/sensor/DIV_OUT*%
X150050000Y-99150000D03*
X148950000Y-101150000D03*
%TO.N,SPI_A_CLK*%
X142750000Y-104100000D03*
%TO.N,SPI_A_MISO*%
X140389000Y-103561000D03*
%TO.N,SPI_A_MOSI*%
X143400000Y-104100000D03*
%TO.N,nRF_P0.07{slash}AMUX*%
X141700000Y-94550000D03*
X138800000Y-95000000D03*
%TO.N,/sensor/sw_in_1v8*%
X139200000Y-101750000D03*
X138750000Y-96700000D03*
X139200000Y-101350000D03*
X138750000Y-97100000D03*
%TO.N,/sensor/sw_in_3v3*%
X139450000Y-105650000D03*
X141850000Y-97050000D03*
X139450000Y-106050000D03*
X141850000Y-96650000D03*
%TO.N,1V8_Connector*%
X139150000Y-100000000D03*
X139150000Y-99550000D03*
%TD*%
%TA.AperFunction,Conductor*%
%TO.N,GND*%
G36*
X155903234Y-93850712D02*
G01*
X156128412Y-93865470D01*
X156141237Y-93867159D01*
X156359386Y-93910551D01*
X156371886Y-93913900D01*
X156582500Y-93985395D01*
X156594463Y-93990351D01*
X156793926Y-94088715D01*
X156805142Y-94095190D01*
X156990072Y-94218757D01*
X157000345Y-94226640D01*
X157167560Y-94373282D01*
X157176717Y-94382439D01*
X157323359Y-94549654D01*
X157331242Y-94559927D01*
X157454809Y-94744857D01*
X157461284Y-94756073D01*
X157559648Y-94955536D01*
X157564604Y-94967499D01*
X157636097Y-95178108D01*
X157639449Y-95190617D01*
X157682839Y-95408755D01*
X157684529Y-95421594D01*
X157699288Y-95646765D01*
X157699500Y-95653240D01*
X157699500Y-106646759D01*
X157699288Y-106653234D01*
X157684529Y-106878405D01*
X157682839Y-106891244D01*
X157639449Y-107109382D01*
X157636097Y-107121891D01*
X157564604Y-107332500D01*
X157559648Y-107344463D01*
X157461284Y-107543926D01*
X157454809Y-107555142D01*
X157331242Y-107740072D01*
X157323359Y-107750345D01*
X157176717Y-107917560D01*
X157167560Y-107926717D01*
X157000345Y-108073359D01*
X156990072Y-108081242D01*
X156805142Y-108204809D01*
X156793926Y-108211284D01*
X156594463Y-108309648D01*
X156582500Y-108314604D01*
X156371891Y-108386097D01*
X156359382Y-108389449D01*
X156141244Y-108432839D01*
X156128405Y-108434529D01*
X155903234Y-108449288D01*
X155896759Y-108449500D01*
X138903241Y-108449500D01*
X138896766Y-108449288D01*
X138671594Y-108434529D01*
X138658755Y-108432839D01*
X138440617Y-108389449D01*
X138428108Y-108386097D01*
X138217499Y-108314604D01*
X138205536Y-108309648D01*
X138006073Y-108211284D01*
X137994857Y-108204809D01*
X137809927Y-108081242D01*
X137799654Y-108073359D01*
X137632439Y-107926717D01*
X137623282Y-107917560D01*
X137476640Y-107750345D01*
X137468757Y-107740072D01*
X137345190Y-107555142D01*
X137338715Y-107543926D01*
X137240351Y-107344463D01*
X137235395Y-107332500D01*
X137205079Y-107243192D01*
X137195926Y-107216230D01*
X140249500Y-107216230D01*
X140249500Y-107383769D01*
X140282183Y-107548079D01*
X140282185Y-107548085D01*
X140346296Y-107702862D01*
X140346297Y-107702863D01*
X140439374Y-107842162D01*
X140557838Y-107960626D01*
X140697137Y-108053703D01*
X140851918Y-108117816D01*
X141016233Y-108150500D01*
X141016234Y-108150500D01*
X141183766Y-108150500D01*
X141183767Y-108150500D01*
X141348082Y-108117816D01*
X141502863Y-108053703D01*
X141642162Y-107960626D01*
X141760626Y-107842162D01*
X141853703Y-107702863D01*
X141917816Y-107548082D01*
X141950500Y-107383767D01*
X141950500Y-107216233D01*
X141917816Y-107051918D01*
X141853703Y-106897137D01*
X141760626Y-106757838D01*
X141642162Y-106639374D01*
X141502863Y-106546297D01*
X141502864Y-106546297D01*
X141502862Y-106546296D01*
X141348085Y-106482185D01*
X141348079Y-106482183D01*
X141183769Y-106449500D01*
X141183767Y-106449500D01*
X141016233Y-106449500D01*
X141016230Y-106449500D01*
X140851920Y-106482183D01*
X140851914Y-106482185D01*
X140697137Y-106546296D01*
X140557838Y-106639374D01*
X140557834Y-106639377D01*
X140439377Y-106757834D01*
X140439374Y-106757838D01*
X140346296Y-106897137D01*
X140282185Y-107051914D01*
X140282183Y-107051920D01*
X140249500Y-107216230D01*
X137195926Y-107216230D01*
X137163902Y-107121891D01*
X137160550Y-107109382D01*
X137117159Y-106891237D01*
X137115470Y-106878405D01*
X137100712Y-106653234D01*
X137100500Y-106646759D01*
X137100500Y-105597273D01*
X137699500Y-105597273D01*
X137699500Y-105702727D01*
X137726793Y-105804587D01*
X137726794Y-105804589D01*
X137729276Y-105810581D01*
X137726795Y-105811608D01*
X137737154Y-105860352D01*
X137727895Y-105888847D01*
X137729276Y-105889419D01*
X137726794Y-105895410D01*
X137726793Y-105895412D01*
X137726793Y-105895413D01*
X137699500Y-105997273D01*
X137699500Y-106102727D01*
X137726793Y-106204587D01*
X137726794Y-106204589D01*
X137726794Y-106204590D01*
X137779518Y-106295910D01*
X137779520Y-106295913D01*
X137854087Y-106370480D01*
X137945413Y-106423207D01*
X138047273Y-106450500D01*
X138047275Y-106450500D01*
X138152725Y-106450500D01*
X138152727Y-106450500D01*
X138254587Y-106423207D01*
X138345913Y-106370480D01*
X138420480Y-106295913D01*
X138473207Y-106204587D01*
X138500500Y-106102727D01*
X138500500Y-105997273D01*
X138473207Y-105895413D01*
X138473206Y-105895411D01*
X138473205Y-105895407D01*
X138470723Y-105889415D01*
X138473209Y-105888385D01*
X138462843Y-105839676D01*
X138472108Y-105811158D01*
X138470723Y-105810585D01*
X138473205Y-105804592D01*
X138473205Y-105804589D01*
X138473207Y-105804587D01*
X138500500Y-105702727D01*
X138500500Y-105597273D01*
X139049500Y-105597273D01*
X139049500Y-105702727D01*
X139076793Y-105804587D01*
X139076794Y-105804589D01*
X139079276Y-105810581D01*
X139076795Y-105811608D01*
X139087154Y-105860352D01*
X139077895Y-105888847D01*
X139079276Y-105889419D01*
X139076794Y-105895410D01*
X139076793Y-105895412D01*
X139076793Y-105895413D01*
X139049500Y-105997273D01*
X139049500Y-106102727D01*
X139076793Y-106204587D01*
X139076794Y-106204589D01*
X139076794Y-106204590D01*
X139129518Y-106295910D01*
X139129520Y-106295913D01*
X139204087Y-106370480D01*
X139295413Y-106423207D01*
X139397273Y-106450500D01*
X139397275Y-106450500D01*
X139502725Y-106450500D01*
X139502727Y-106450500D01*
X139604587Y-106423207D01*
X139695913Y-106370480D01*
X139770480Y-106295913D01*
X139823207Y-106204587D01*
X139850500Y-106102727D01*
X139850500Y-105997273D01*
X139823207Y-105895413D01*
X139823206Y-105895411D01*
X139823205Y-105895407D01*
X139820723Y-105889415D01*
X139823209Y-105888385D01*
X139812843Y-105839676D01*
X139822108Y-105811158D01*
X139820723Y-105810585D01*
X139823205Y-105804592D01*
X139823205Y-105804589D01*
X139823207Y-105804587D01*
X139850500Y-105702727D01*
X139850500Y-105597273D01*
X139823207Y-105495413D01*
X139821514Y-105492481D01*
X139770481Y-105404089D01*
X139770480Y-105404087D01*
X139695913Y-105329520D01*
X139690838Y-105326590D01*
X139604589Y-105276794D01*
X139604588Y-105276793D01*
X139604587Y-105276793D01*
X139502727Y-105249500D01*
X139397273Y-105249500D01*
X139295413Y-105276793D01*
X139295412Y-105276793D01*
X139295410Y-105276794D01*
X139295409Y-105276794D01*
X139204089Y-105329518D01*
X139129518Y-105404089D01*
X139076794Y-105495409D01*
X139076794Y-105495410D01*
X139076793Y-105495412D01*
X139076793Y-105495413D01*
X139049500Y-105597273D01*
X138500500Y-105597273D01*
X138473207Y-105495413D01*
X138471514Y-105492481D01*
X138420481Y-105404089D01*
X138420480Y-105404087D01*
X138345913Y-105329520D01*
X138340838Y-105326590D01*
X138254589Y-105276794D01*
X138254588Y-105276793D01*
X138254587Y-105276793D01*
X138152727Y-105249500D01*
X138047273Y-105249500D01*
X137945413Y-105276793D01*
X137945412Y-105276793D01*
X137945410Y-105276794D01*
X137945409Y-105276794D01*
X137854089Y-105329518D01*
X137779518Y-105404089D01*
X137726794Y-105495409D01*
X137726794Y-105495410D01*
X137726793Y-105495412D01*
X137726793Y-105495413D01*
X137699500Y-105597273D01*
X137100500Y-105597273D01*
X137100500Y-104847273D01*
X145071500Y-104847273D01*
X145071500Y-104952727D01*
X145088832Y-105017410D01*
X145098794Y-105054589D01*
X145098794Y-105054590D01*
X145151518Y-105145910D01*
X145151520Y-105145913D01*
X145226087Y-105220480D01*
X145317413Y-105273207D01*
X145419273Y-105300500D01*
X145419275Y-105300500D01*
X145524725Y-105300500D01*
X145524727Y-105300500D01*
X145626587Y-105273207D01*
X145717913Y-105220480D01*
X145792480Y-105145913D01*
X145845207Y-105054587D01*
X145872500Y-104952727D01*
X145872500Y-104950012D01*
X147198348Y-104950012D01*
X147198348Y-105055466D01*
X147222583Y-105145913D01*
X147225642Y-105157328D01*
X147225642Y-105157329D01*
X147262103Y-105220480D01*
X147278368Y-105248652D01*
X147352935Y-105323219D01*
X147444261Y-105375946D01*
X147546121Y-105403239D01*
X147546123Y-105403239D01*
X147651573Y-105403239D01*
X147651575Y-105403239D01*
X147753435Y-105375946D01*
X147844761Y-105323219D01*
X147919328Y-105248652D01*
X147972055Y-105157326D01*
X147982251Y-105119274D01*
X149479712Y-105119274D01*
X149479712Y-105224728D01*
X149506103Y-105323220D01*
X149507006Y-105326590D01*
X149507006Y-105326591D01*
X149551259Y-105403239D01*
X149559732Y-105417914D01*
X149634299Y-105492481D01*
X149725625Y-105545208D01*
X149827485Y-105572501D01*
X149827487Y-105572501D01*
X149932937Y-105572501D01*
X149932939Y-105572501D01*
X150034799Y-105545208D01*
X150126125Y-105492481D01*
X150200692Y-105417914D01*
X150253419Y-105326588D01*
X150280712Y-105224728D01*
X150280712Y-105119274D01*
X150253419Y-105017414D01*
X150200692Y-104926088D01*
X150126125Y-104851521D01*
X150118767Y-104847273D01*
X150034801Y-104798795D01*
X150034800Y-104798794D01*
X150034799Y-104798794D01*
X149932939Y-104771501D01*
X149827485Y-104771501D01*
X149725625Y-104798794D01*
X149725624Y-104798794D01*
X149725622Y-104798795D01*
X149725621Y-104798795D01*
X149634301Y-104851519D01*
X149559730Y-104926090D01*
X149507006Y-105017410D01*
X149507006Y-105017411D01*
X149507005Y-105017413D01*
X149507005Y-105017414D01*
X149479712Y-105119274D01*
X147982251Y-105119274D01*
X147999348Y-105055466D01*
X147999348Y-104950012D01*
X147972055Y-104848152D01*
X147919328Y-104756826D01*
X147844761Y-104682259D01*
X147753435Y-104629532D01*
X147651575Y-104602239D01*
X147546121Y-104602239D01*
X147444261Y-104629532D01*
X147444260Y-104629532D01*
X147444258Y-104629533D01*
X147444257Y-104629533D01*
X147352937Y-104682257D01*
X147278366Y-104756828D01*
X147225642Y-104848148D01*
X147225642Y-104848149D01*
X147225641Y-104848151D01*
X147225641Y-104848152D01*
X147198348Y-104950012D01*
X145872500Y-104950012D01*
X145872500Y-104847273D01*
X145845207Y-104745413D01*
X145792480Y-104654087D01*
X145717913Y-104579520D01*
X145626587Y-104526793D01*
X145524727Y-104499500D01*
X145419273Y-104499500D01*
X145317413Y-104526793D01*
X145317412Y-104526793D01*
X145317410Y-104526794D01*
X145317409Y-104526794D01*
X145226089Y-104579518D01*
X145151518Y-104654089D01*
X145098794Y-104745409D01*
X145098794Y-104745410D01*
X145098793Y-104745412D01*
X145098793Y-104745413D01*
X145071500Y-104847273D01*
X137100500Y-104847273D01*
X137100500Y-104047273D01*
X142349500Y-104047273D01*
X142349500Y-104152727D01*
X142376793Y-104254587D01*
X142376794Y-104254589D01*
X142376794Y-104254590D01*
X142425000Y-104338084D01*
X142429520Y-104345913D01*
X142504087Y-104420480D01*
X142595413Y-104473207D01*
X142697273Y-104500500D01*
X142697275Y-104500500D01*
X142802725Y-104500500D01*
X142802727Y-104500500D01*
X142904587Y-104473207D01*
X142995913Y-104420480D01*
X143004998Y-104411394D01*
X143059513Y-104383619D01*
X143119945Y-104393190D01*
X143145000Y-104411393D01*
X143154087Y-104420480D01*
X143245413Y-104473207D01*
X143347273Y-104500500D01*
X143347275Y-104500500D01*
X143452725Y-104500500D01*
X143452727Y-104500500D01*
X143554587Y-104473207D01*
X143645913Y-104420480D01*
X143720480Y-104345913D01*
X143773207Y-104254587D01*
X143800500Y-104152727D01*
X143800500Y-104149500D01*
X143801214Y-104147302D01*
X143801347Y-104146293D01*
X143801533Y-104146317D01*
X143819407Y-104091309D01*
X143868907Y-104055345D01*
X143899500Y-104050500D01*
X143952725Y-104050500D01*
X143952727Y-104050500D01*
X144054587Y-104023207D01*
X144145913Y-103970480D01*
X144220480Y-103895913D01*
X144248562Y-103847273D01*
X144999500Y-103847273D01*
X144999500Y-103952727D01*
X145024834Y-104047274D01*
X145026794Y-104054589D01*
X145026794Y-104054590D01*
X145079518Y-104145910D01*
X145079520Y-104145913D01*
X145154087Y-104220480D01*
X145245413Y-104273207D01*
X145347273Y-104300500D01*
X145347275Y-104300500D01*
X145452725Y-104300500D01*
X145452727Y-104300500D01*
X145554587Y-104273207D01*
X145645913Y-104220480D01*
X145720480Y-104145913D01*
X145747558Y-104099011D01*
X145793025Y-104058072D01*
X145840784Y-104051149D01*
X145840784Y-104050500D01*
X145845266Y-104050500D01*
X145846225Y-104050361D01*
X145847266Y-104050498D01*
X145847273Y-104050500D01*
X145847280Y-104050500D01*
X145952725Y-104050500D01*
X145952727Y-104050500D01*
X146054587Y-104023207D01*
X146145913Y-103970480D01*
X146220480Y-103895913D01*
X146273207Y-103804587D01*
X146300500Y-103702727D01*
X146300500Y-103597273D01*
X146273207Y-103495413D01*
X146271194Y-103491927D01*
X146221821Y-103406410D01*
X146220480Y-103404087D01*
X146145913Y-103329520D01*
X146120914Y-103315087D01*
X146054589Y-103276794D01*
X146054588Y-103276793D01*
X146054587Y-103276793D01*
X145952727Y-103249500D01*
X145847273Y-103249500D01*
X145745413Y-103276793D01*
X145745412Y-103276793D01*
X145745410Y-103276794D01*
X145745409Y-103276794D01*
X145654089Y-103329518D01*
X145579519Y-103404088D01*
X145552442Y-103450987D01*
X145506972Y-103491927D01*
X145459216Y-103498851D01*
X145459216Y-103499500D01*
X145454744Y-103499500D01*
X145453785Y-103499639D01*
X145452729Y-103499500D01*
X145452727Y-103499500D01*
X145347273Y-103499500D01*
X145245413Y-103526793D01*
X145245412Y-103526793D01*
X145245410Y-103526794D01*
X145245409Y-103526794D01*
X145154089Y-103579518D01*
X145079518Y-103654089D01*
X145026794Y-103745409D01*
X145026794Y-103745410D01*
X145026793Y-103745412D01*
X145026793Y-103745413D01*
X144999500Y-103847273D01*
X144248562Y-103847273D01*
X144273207Y-103804587D01*
X144300500Y-103702727D01*
X144300500Y-103597273D01*
X144273207Y-103495413D01*
X144271194Y-103491927D01*
X144221821Y-103406410D01*
X144220480Y-103404087D01*
X144145913Y-103329520D01*
X144120914Y-103315087D01*
X144054589Y-103276794D01*
X144054588Y-103276793D01*
X144054587Y-103276793D01*
X143952727Y-103249500D01*
X143847273Y-103249500D01*
X143745413Y-103276793D01*
X143745412Y-103276793D01*
X143745410Y-103276794D01*
X143745409Y-103276794D01*
X143654089Y-103329518D01*
X143579518Y-103404089D01*
X143526794Y-103495409D01*
X143526794Y-103495410D01*
X143526793Y-103495412D01*
X143526793Y-103495413D01*
X143504258Y-103579518D01*
X143499500Y-103597274D01*
X143499500Y-103600500D01*
X143498785Y-103602697D01*
X143498653Y-103603707D01*
X143498466Y-103603682D01*
X143480593Y-103658691D01*
X143431093Y-103694655D01*
X143400500Y-103699500D01*
X143347273Y-103699500D01*
X143245413Y-103726793D01*
X143245412Y-103726793D01*
X143245410Y-103726794D01*
X143245409Y-103726794D01*
X143154089Y-103779518D01*
X143154087Y-103779519D01*
X143154087Y-103779520D01*
X143145001Y-103788605D01*
X143090487Y-103816381D01*
X143030055Y-103806810D01*
X143004999Y-103788606D01*
X142995913Y-103779520D01*
X142904587Y-103726793D01*
X142802727Y-103699500D01*
X142697273Y-103699500D01*
X142595413Y-103726793D01*
X142595412Y-103726793D01*
X142595410Y-103726794D01*
X142595409Y-103726794D01*
X142504089Y-103779518D01*
X142429518Y-103854089D01*
X142376794Y-103945409D01*
X142376794Y-103945410D01*
X142376793Y-103945412D01*
X142376793Y-103945413D01*
X142349500Y-104047273D01*
X137100500Y-104047273D01*
X137100500Y-103508273D01*
X139988500Y-103508273D01*
X139988500Y-103613727D01*
X140015793Y-103715587D01*
X140015794Y-103715589D01*
X140015794Y-103715590D01*
X140068518Y-103806910D01*
X140068520Y-103806913D01*
X140143087Y-103881480D01*
X140234413Y-103934207D01*
X140336273Y-103961500D01*
X140336275Y-103961500D01*
X140441725Y-103961500D01*
X140441727Y-103961500D01*
X140543587Y-103934207D01*
X140634913Y-103881480D01*
X140709480Y-103806913D01*
X140762207Y-103715587D01*
X140789500Y-103613727D01*
X140789500Y-103508273D01*
X140762207Y-103406413D01*
X140760865Y-103404089D01*
X140709481Y-103315089D01*
X140709480Y-103315087D01*
X140634913Y-103240520D01*
X140543587Y-103187793D01*
X140441727Y-103160500D01*
X140336273Y-103160500D01*
X140234413Y-103187793D01*
X140234412Y-103187793D01*
X140234410Y-103187794D01*
X140234409Y-103187794D01*
X140143089Y-103240518D01*
X140068518Y-103315089D01*
X140015794Y-103406409D01*
X140015794Y-103406410D01*
X140015793Y-103406412D01*
X140015793Y-103406413D01*
X139988500Y-103508273D01*
X137100500Y-103508273D01*
X137100500Y-102245253D01*
X149843191Y-102245253D01*
X149843191Y-102350707D01*
X149870484Y-102452567D01*
X149870485Y-102452569D01*
X149870485Y-102452570D01*
X149923209Y-102543890D01*
X149923211Y-102543893D01*
X149997778Y-102618460D01*
X150089104Y-102671187D01*
X150190964Y-102698480D01*
X150190966Y-102698480D01*
X150296416Y-102698480D01*
X150296418Y-102698480D01*
X150398278Y-102671187D01*
X150489604Y-102618460D01*
X150564171Y-102543893D01*
X150616898Y-102452567D01*
X150644191Y-102350707D01*
X150644191Y-102245253D01*
X150616898Y-102143393D01*
X150616750Y-102143137D01*
X150564172Y-102052069D01*
X150564171Y-102052067D01*
X150489604Y-101977500D01*
X150398278Y-101924773D01*
X150343429Y-101910076D01*
X150298849Y-101898131D01*
X150298847Y-101898130D01*
X150296418Y-101897480D01*
X150190964Y-101897480D01*
X150089104Y-101924773D01*
X150089103Y-101924773D01*
X150089101Y-101924774D01*
X150089100Y-101924774D01*
X149997780Y-101977498D01*
X149923209Y-102052069D01*
X149870485Y-102143389D01*
X149870485Y-102143390D01*
X149870484Y-102143392D01*
X149870484Y-102143393D01*
X149843191Y-102245253D01*
X137100500Y-102245253D01*
X137100500Y-101297273D01*
X138799500Y-101297273D01*
X138799500Y-101402727D01*
X138826793Y-101504587D01*
X138826794Y-101504589D01*
X138829276Y-101510581D01*
X138826795Y-101511608D01*
X138837154Y-101560352D01*
X138827895Y-101588847D01*
X138829276Y-101589419D01*
X138826794Y-101595410D01*
X138826793Y-101595412D01*
X138826793Y-101595413D01*
X138799500Y-101697273D01*
X138799500Y-101802727D01*
X138826793Y-101904587D01*
X138826794Y-101904589D01*
X138826794Y-101904590D01*
X138868888Y-101977498D01*
X138879520Y-101995913D01*
X138954087Y-102070480D01*
X139045413Y-102123207D01*
X139147273Y-102150500D01*
X139147275Y-102150500D01*
X139252725Y-102150500D01*
X139252727Y-102150500D01*
X139354587Y-102123207D01*
X139445913Y-102070480D01*
X139520480Y-101995913D01*
X139573207Y-101904587D01*
X139600500Y-101802727D01*
X139600500Y-101697273D01*
X139573207Y-101595413D01*
X139573206Y-101595411D01*
X139573205Y-101595407D01*
X139570723Y-101589415D01*
X139573209Y-101588385D01*
X139562843Y-101539676D01*
X139572108Y-101511158D01*
X139570723Y-101510585D01*
X139573205Y-101504592D01*
X139573205Y-101504589D01*
X139573207Y-101504587D01*
X139600500Y-101402727D01*
X139600500Y-101297273D01*
X139573207Y-101195413D01*
X139520480Y-101104087D01*
X139513666Y-101097273D01*
X148549500Y-101097273D01*
X148549500Y-101202727D01*
X148574834Y-101297274D01*
X148576794Y-101304589D01*
X148576794Y-101304590D01*
X148629518Y-101395910D01*
X148629520Y-101395913D01*
X148704087Y-101470480D01*
X148795413Y-101523207D01*
X148897273Y-101550500D01*
X148897275Y-101550500D01*
X149002725Y-101550500D01*
X149002727Y-101550500D01*
X149104587Y-101523207D01*
X149195913Y-101470480D01*
X149270480Y-101395913D01*
X149323207Y-101304587D01*
X149338564Y-101247273D01*
X149949500Y-101247273D01*
X149949500Y-101352727D01*
X149976793Y-101454587D01*
X149976794Y-101454589D01*
X149976794Y-101454590D01*
X150025919Y-101539676D01*
X150029520Y-101545913D01*
X150104087Y-101620480D01*
X150195413Y-101673207D01*
X150297273Y-101700500D01*
X150312494Y-101700500D01*
X150402725Y-101700500D01*
X150402727Y-101700500D01*
X150504587Y-101673207D01*
X150595913Y-101620480D01*
X150670480Y-101545913D01*
X150723207Y-101454587D01*
X150750500Y-101352727D01*
X150750500Y-101247273D01*
X150723207Y-101145413D01*
X150699347Y-101104087D01*
X150670481Y-101054089D01*
X150670480Y-101054087D01*
X150595913Y-100979520D01*
X150591191Y-100976794D01*
X150504589Y-100926794D01*
X150504588Y-100926793D01*
X150504587Y-100926793D01*
X150402727Y-100899500D01*
X150297273Y-100899500D01*
X150195413Y-100926793D01*
X150195412Y-100926793D01*
X150195410Y-100926794D01*
X150195409Y-100926794D01*
X150104089Y-100979518D01*
X150029518Y-101054089D01*
X149976794Y-101145409D01*
X149976794Y-101145410D01*
X149976793Y-101145412D01*
X149976793Y-101145413D01*
X149949500Y-101247273D01*
X149338564Y-101247273D01*
X149350500Y-101202727D01*
X149350500Y-101097273D01*
X149323207Y-100995413D01*
X149312457Y-100976794D01*
X149270481Y-100904089D01*
X149270480Y-100904087D01*
X149195913Y-100829520D01*
X149140061Y-100797274D01*
X149104589Y-100776794D01*
X149104588Y-100776793D01*
X149104587Y-100776793D01*
X149002727Y-100749500D01*
X148897273Y-100749500D01*
X148795413Y-100776793D01*
X148795412Y-100776793D01*
X148795410Y-100776794D01*
X148795409Y-100776794D01*
X148704089Y-100829518D01*
X148629518Y-100904089D01*
X148576794Y-100995409D01*
X148576794Y-100995410D01*
X148576793Y-100995412D01*
X148576793Y-100995413D01*
X148549500Y-101097273D01*
X139513666Y-101097273D01*
X139445913Y-101029520D01*
X139402731Y-101004589D01*
X139354589Y-100976794D01*
X139354588Y-100976793D01*
X139354587Y-100976793D01*
X139252727Y-100949500D01*
X139147273Y-100949500D01*
X139045413Y-100976793D01*
X139045412Y-100976793D01*
X139045410Y-100976794D01*
X139045409Y-100976794D01*
X138954089Y-101029518D01*
X138879518Y-101104089D01*
X138826794Y-101195409D01*
X138826794Y-101195410D01*
X138826793Y-101195412D01*
X138826793Y-101195413D01*
X138799500Y-101297273D01*
X137100500Y-101297273D01*
X137100500Y-99497273D01*
X138749500Y-99497273D01*
X138749500Y-99602727D01*
X138776793Y-99704587D01*
X138788867Y-99725500D01*
X138788868Y-99725502D01*
X138801587Y-99785351D01*
X138788868Y-99824497D01*
X138776793Y-99845413D01*
X138749500Y-99947273D01*
X138749500Y-100052727D01*
X138775019Y-100147966D01*
X138776794Y-100154589D01*
X138776794Y-100154590D01*
X138829518Y-100245910D01*
X138829520Y-100245913D01*
X138904087Y-100320480D01*
X138995413Y-100373207D01*
X139097273Y-100400500D01*
X139097275Y-100400500D01*
X139202725Y-100400500D01*
X139202727Y-100400500D01*
X139304587Y-100373207D01*
X139367509Y-100336878D01*
X139427357Y-100324157D01*
X139483253Y-100349043D01*
X139513846Y-100402031D01*
X139512635Y-100448237D01*
X139499497Y-100497273D01*
X139499497Y-100602727D01*
X139524332Y-100695413D01*
X139526791Y-100704589D01*
X139526791Y-100704590D01*
X139579515Y-100795910D01*
X139579517Y-100795913D01*
X139654084Y-100870480D01*
X139745410Y-100923207D01*
X139847270Y-100950500D01*
X139847272Y-100950500D01*
X139952722Y-100950500D01*
X139952724Y-100950500D01*
X140054584Y-100923207D01*
X140075497Y-100911132D01*
X140135343Y-100898410D01*
X140174495Y-100911130D01*
X140195413Y-100923207D01*
X140297273Y-100950500D01*
X140297275Y-100950500D01*
X140402725Y-100950500D01*
X140402727Y-100950500D01*
X140504587Y-100923207D01*
X140595913Y-100870480D01*
X140670480Y-100795913D01*
X140723207Y-100704587D01*
X140750500Y-100602727D01*
X140750500Y-100497273D01*
X140723207Y-100395413D01*
X140710386Y-100373207D01*
X140670481Y-100304089D01*
X140670480Y-100304087D01*
X140595913Y-100229520D01*
X140589543Y-100225842D01*
X140504590Y-100176794D01*
X140504587Y-100176793D01*
X140402727Y-100149500D01*
X140297273Y-100149500D01*
X140195413Y-100176793D01*
X140195411Y-100176793D01*
X140195411Y-100176794D01*
X140174496Y-100188869D01*
X140114647Y-100201588D01*
X140075499Y-100188868D01*
X140054586Y-100176794D01*
X140054585Y-100176793D01*
X140054584Y-100176793D01*
X139952724Y-100149500D01*
X139847270Y-100149500D01*
X139796340Y-100163146D01*
X139745408Y-100176793D01*
X139682486Y-100213121D01*
X139622637Y-100225842D01*
X139566742Y-100200954D01*
X139536150Y-100147966D01*
X139537360Y-100101763D01*
X139538563Y-100097273D01*
X152149500Y-100097273D01*
X152149500Y-100202727D01*
X152161071Y-100245910D01*
X152176794Y-100304589D01*
X152176794Y-100304590D01*
X152229231Y-100395413D01*
X152229520Y-100395913D01*
X152263605Y-100429998D01*
X152291381Y-100484513D01*
X152281810Y-100544945D01*
X152263606Y-100570000D01*
X152230882Y-100602725D01*
X152229518Y-100604089D01*
X152176794Y-100695409D01*
X152176794Y-100695410D01*
X152176793Y-100695412D01*
X152176793Y-100695413D01*
X152149500Y-100797273D01*
X152149500Y-100902727D01*
X152174335Y-100995413D01*
X152176794Y-101004589D01*
X152176794Y-101004590D01*
X152229518Y-101095910D01*
X152229520Y-101095913D01*
X152304087Y-101170480D01*
X152395413Y-101223207D01*
X152497273Y-101250500D01*
X152497275Y-101250500D01*
X152602725Y-101250500D01*
X152602727Y-101250500D01*
X152704587Y-101223207D01*
X152795913Y-101170480D01*
X152870480Y-101095913D01*
X152923207Y-101004587D01*
X152950500Y-100902727D01*
X152950500Y-100797273D01*
X152923207Y-100695413D01*
X152870480Y-100604087D01*
X152836394Y-100570001D01*
X152808619Y-100515487D01*
X152818190Y-100455055D01*
X152836393Y-100429999D01*
X152870480Y-100395913D01*
X152923207Y-100304587D01*
X152950500Y-100202727D01*
X152950500Y-100097273D01*
X152923207Y-99995413D01*
X152870480Y-99904087D01*
X152795913Y-99829520D01*
X152787218Y-99824500D01*
X152704589Y-99776794D01*
X152704588Y-99776793D01*
X152704587Y-99776793D01*
X152602727Y-99749500D01*
X152497273Y-99749500D01*
X152395413Y-99776793D01*
X152395412Y-99776793D01*
X152395410Y-99776794D01*
X152395409Y-99776794D01*
X152304089Y-99829518D01*
X152229518Y-99904089D01*
X152176794Y-99995409D01*
X152176794Y-99995410D01*
X152176793Y-99995412D01*
X152176793Y-99995413D01*
X152149500Y-100097273D01*
X139538563Y-100097273D01*
X139550500Y-100052727D01*
X139550500Y-99947273D01*
X139523207Y-99845413D01*
X139511133Y-99824500D01*
X139498411Y-99764652D01*
X139511133Y-99725500D01*
X139512813Y-99722588D01*
X139523207Y-99704587D01*
X139550500Y-99602727D01*
X139550500Y-99497273D01*
X139523207Y-99395413D01*
X139470480Y-99304087D01*
X139395913Y-99229520D01*
X139395910Y-99229518D01*
X139304590Y-99176794D01*
X139304587Y-99176793D01*
X139202727Y-99149500D01*
X139097273Y-99149500D01*
X138995413Y-99176793D01*
X138995412Y-99176793D01*
X138995410Y-99176794D01*
X138995409Y-99176794D01*
X138904089Y-99229518D01*
X138829518Y-99304089D01*
X138776794Y-99395409D01*
X138776794Y-99395410D01*
X138776793Y-99395412D01*
X138776793Y-99395413D01*
X138749500Y-99497273D01*
X137100500Y-99497273D01*
X137100500Y-99097273D01*
X149649500Y-99097273D01*
X149649500Y-99202727D01*
X149676659Y-99304087D01*
X149676794Y-99304589D01*
X149676794Y-99304590D01*
X149729231Y-99395413D01*
X149729520Y-99395913D01*
X149804087Y-99470480D01*
X149895413Y-99523207D01*
X149997273Y-99550500D01*
X149997275Y-99550500D01*
X150102725Y-99550500D01*
X150102727Y-99550500D01*
X150204587Y-99523207D01*
X150295913Y-99470480D01*
X150370480Y-99395913D01*
X150423207Y-99304587D01*
X150450500Y-99202727D01*
X150450500Y-99097273D01*
X150423207Y-98995413D01*
X150370480Y-98904087D01*
X150295913Y-98829520D01*
X150236801Y-98795392D01*
X150204589Y-98776794D01*
X150204588Y-98776793D01*
X150204587Y-98776793D01*
X150102727Y-98749500D01*
X149997273Y-98749500D01*
X149895413Y-98776793D01*
X149895412Y-98776793D01*
X149895410Y-98776794D01*
X149895409Y-98776794D01*
X149804089Y-98829518D01*
X149729518Y-98904089D01*
X149676794Y-98995409D01*
X149676794Y-98995410D01*
X149676793Y-98995412D01*
X149676793Y-98995413D01*
X149649500Y-99097273D01*
X137100500Y-99097273D01*
X137100500Y-98496752D01*
X152100021Y-98496752D01*
X152100021Y-98602206D01*
X152127314Y-98704066D01*
X152127315Y-98704068D01*
X152127315Y-98704069D01*
X152153545Y-98749500D01*
X152180041Y-98795392D01*
X152254608Y-98869959D01*
X152345934Y-98922686D01*
X152447794Y-98949979D01*
X152447796Y-98949979D01*
X152553246Y-98949979D01*
X152553248Y-98949979D01*
X152655108Y-98922686D01*
X152746434Y-98869959D01*
X152821001Y-98795392D01*
X152873728Y-98704066D01*
X152901021Y-98602206D01*
X152901021Y-98496752D01*
X152873728Y-98394892D01*
X152821001Y-98303566D01*
X152746434Y-98228999D01*
X152731680Y-98220481D01*
X152655110Y-98176273D01*
X152655109Y-98176272D01*
X152655108Y-98176272D01*
X152553248Y-98148979D01*
X152447794Y-98148979D01*
X152345934Y-98176272D01*
X152345933Y-98176272D01*
X152345931Y-98176273D01*
X152345930Y-98176273D01*
X152254610Y-98228997D01*
X152180039Y-98303568D01*
X152127315Y-98394888D01*
X152127315Y-98394889D01*
X152127314Y-98394891D01*
X152127314Y-98394892D01*
X152100021Y-98496752D01*
X137100500Y-98496752D01*
X137100500Y-97847273D01*
X147499500Y-97847273D01*
X147499500Y-97952727D01*
X147526793Y-98054587D01*
X147526794Y-98054589D01*
X147526794Y-98054590D01*
X147579518Y-98145910D01*
X147579520Y-98145913D01*
X147654087Y-98220480D01*
X147745413Y-98273207D01*
X147847273Y-98300500D01*
X147847275Y-98300500D01*
X147952725Y-98300500D01*
X147952727Y-98300500D01*
X148054587Y-98273207D01*
X148145913Y-98220480D01*
X148220480Y-98145913D01*
X148273207Y-98054587D01*
X148300500Y-97952727D01*
X148300500Y-97847273D01*
X148273207Y-97745413D01*
X148220480Y-97654087D01*
X148145913Y-97579520D01*
X148130255Y-97570480D01*
X148054589Y-97526794D01*
X148054588Y-97526793D01*
X148054587Y-97526793D01*
X147952727Y-97499500D01*
X147847273Y-97499500D01*
X147745413Y-97526793D01*
X147745412Y-97526793D01*
X147745410Y-97526794D01*
X147745409Y-97526794D01*
X147654089Y-97579518D01*
X147579518Y-97654089D01*
X147526794Y-97745409D01*
X147526794Y-97745410D01*
X147526793Y-97745412D01*
X147526793Y-97745413D01*
X147499500Y-97847273D01*
X137100500Y-97847273D01*
X137100500Y-96647273D01*
X138349500Y-96647273D01*
X138349500Y-96752727D01*
X138374335Y-96845413D01*
X138376794Y-96854589D01*
X138379276Y-96860581D01*
X138376795Y-96861608D01*
X138387154Y-96910352D01*
X138377895Y-96938847D01*
X138379276Y-96939419D01*
X138376794Y-96945410D01*
X138376793Y-96945412D01*
X138376793Y-96945413D01*
X138349500Y-97047273D01*
X138349500Y-97152727D01*
X138374469Y-97245913D01*
X138376794Y-97254589D01*
X138376794Y-97254590D01*
X138429518Y-97345910D01*
X138429520Y-97345913D01*
X138504087Y-97420480D01*
X138595413Y-97473207D01*
X138697273Y-97500500D01*
X138697275Y-97500500D01*
X138802725Y-97500500D01*
X138802727Y-97500500D01*
X138904587Y-97473207D01*
X138995913Y-97420480D01*
X139070480Y-97345913D01*
X139123207Y-97254587D01*
X139150500Y-97152727D01*
X139150500Y-97047273D01*
X139123207Y-96945413D01*
X139123206Y-96945411D01*
X139123205Y-96945407D01*
X139120723Y-96939415D01*
X139123209Y-96938385D01*
X139112843Y-96889676D01*
X139122108Y-96861158D01*
X139120723Y-96860585D01*
X139123205Y-96854592D01*
X139123205Y-96854589D01*
X139123207Y-96854587D01*
X139150500Y-96752727D01*
X139150500Y-96647273D01*
X139123207Y-96545413D01*
X139070480Y-96454087D01*
X139063666Y-96447273D01*
X139462000Y-96447273D01*
X139462000Y-96552727D01*
X139487334Y-96647274D01*
X139489294Y-96654589D01*
X139489294Y-96654590D01*
X139542018Y-96745910D01*
X139542020Y-96745913D01*
X139616587Y-96820480D01*
X139707913Y-96873207D01*
X139809773Y-96900500D01*
X139809775Y-96900500D01*
X139915225Y-96900500D01*
X139915227Y-96900500D01*
X140017087Y-96873207D01*
X140038000Y-96861132D01*
X140097846Y-96848410D01*
X140136998Y-96861130D01*
X140157916Y-96873207D01*
X140259776Y-96900500D01*
X140259778Y-96900500D01*
X140365228Y-96900500D01*
X140365230Y-96900500D01*
X140467090Y-96873207D01*
X140558416Y-96820480D01*
X140632983Y-96745913D01*
X140685710Y-96654587D01*
X140701067Y-96597273D01*
X141449500Y-96597273D01*
X141449500Y-96702727D01*
X141476793Y-96804587D01*
X141476794Y-96804589D01*
X141479276Y-96810581D01*
X141476795Y-96811608D01*
X141487154Y-96860352D01*
X141477895Y-96888847D01*
X141479276Y-96889419D01*
X141476794Y-96895410D01*
X141476793Y-96895412D01*
X141476793Y-96895413D01*
X141449500Y-96997273D01*
X141449500Y-97102727D01*
X141474834Y-97197274D01*
X141476794Y-97204589D01*
X141476794Y-97204590D01*
X141505662Y-97254590D01*
X141529520Y-97295913D01*
X141604087Y-97370480D01*
X141695413Y-97423207D01*
X141797273Y-97450500D01*
X141797275Y-97450500D01*
X141902725Y-97450500D01*
X141902727Y-97450500D01*
X142004587Y-97423207D01*
X142095913Y-97370480D01*
X142170480Y-97295913D01*
X142223207Y-97204587D01*
X142250500Y-97102727D01*
X142250500Y-96997273D01*
X142237103Y-96947273D01*
X142899500Y-96947273D01*
X142899500Y-97052727D01*
X142926793Y-97154587D01*
X142926794Y-97154589D01*
X142926794Y-97154590D01*
X142955662Y-97204590D01*
X142979520Y-97245913D01*
X143054087Y-97320480D01*
X143145413Y-97373207D01*
X143247273Y-97400500D01*
X143247275Y-97400500D01*
X143352725Y-97400500D01*
X143352727Y-97400500D01*
X143454587Y-97373207D01*
X143454589Y-97373205D01*
X143454592Y-97373205D01*
X143460585Y-97370723D01*
X143461614Y-97373209D01*
X143510324Y-97362843D01*
X143538841Y-97372108D01*
X143539415Y-97370723D01*
X143545407Y-97373205D01*
X143545411Y-97373206D01*
X143545413Y-97373207D01*
X143647273Y-97400500D01*
X143647275Y-97400500D01*
X143752725Y-97400500D01*
X143752727Y-97400500D01*
X143854587Y-97373207D01*
X143945913Y-97320480D01*
X144020480Y-97245913D01*
X144048562Y-97197273D01*
X154349500Y-97197273D01*
X154349500Y-97302727D01*
X154375698Y-97400500D01*
X154376794Y-97404589D01*
X154376794Y-97404590D01*
X154429518Y-97495910D01*
X154429520Y-97495913D01*
X154504087Y-97570480D01*
X154595413Y-97623207D01*
X154697273Y-97650500D01*
X154697275Y-97650500D01*
X154802725Y-97650500D01*
X154802727Y-97650500D01*
X154904587Y-97623207D01*
X154995913Y-97570480D01*
X155070480Y-97495913D01*
X155123207Y-97404587D01*
X155150500Y-97302727D01*
X155150500Y-97197273D01*
X155123207Y-97095413D01*
X155070480Y-97004087D01*
X154995913Y-96929520D01*
X154906317Y-96877792D01*
X154904589Y-96876794D01*
X154904588Y-96876793D01*
X154904587Y-96876793D01*
X154802727Y-96849500D01*
X154697273Y-96849500D01*
X154595413Y-96876793D01*
X154595412Y-96876793D01*
X154595410Y-96876794D01*
X154595409Y-96876794D01*
X154504089Y-96929518D01*
X154429518Y-97004089D01*
X154376794Y-97095409D01*
X154376794Y-97095410D01*
X154376793Y-97095412D01*
X154376793Y-97095413D01*
X154349500Y-97197273D01*
X144048562Y-97197273D01*
X144073207Y-97154587D01*
X144100500Y-97052727D01*
X144100500Y-96947273D01*
X144073207Y-96845413D01*
X144065782Y-96832553D01*
X144020481Y-96754089D01*
X144020480Y-96754087D01*
X143945913Y-96679520D01*
X143902731Y-96654589D01*
X143854589Y-96626794D01*
X143854588Y-96626793D01*
X143854587Y-96626793D01*
X143752727Y-96599500D01*
X143647273Y-96599500D01*
X143545413Y-96626793D01*
X143545412Y-96626793D01*
X143545410Y-96626794D01*
X143539419Y-96629276D01*
X143538391Y-96626795D01*
X143489648Y-96637154D01*
X143461152Y-96627895D01*
X143460581Y-96629276D01*
X143454589Y-96626794D01*
X143454588Y-96626793D01*
X143454587Y-96626793D01*
X143352727Y-96599500D01*
X143247273Y-96599500D01*
X143145413Y-96626793D01*
X143145412Y-96626793D01*
X143145410Y-96626794D01*
X143145409Y-96626794D01*
X143054089Y-96679518D01*
X142979518Y-96754089D01*
X142926794Y-96845409D01*
X142926794Y-96845410D01*
X142926793Y-96845412D01*
X142926793Y-96845413D01*
X142899500Y-96947273D01*
X142237103Y-96947273D01*
X142223207Y-96895413D01*
X142219621Y-96889203D01*
X142216284Y-96877792D01*
X142216854Y-96858525D01*
X142212843Y-96839676D01*
X142217870Y-96824201D01*
X142218095Y-96816633D01*
X142221951Y-96811642D01*
X142222108Y-96811158D01*
X142220723Y-96810585D01*
X142223205Y-96804592D01*
X142223205Y-96804589D01*
X142223207Y-96804587D01*
X142250500Y-96702727D01*
X142250500Y-96597273D01*
X142223207Y-96495413D01*
X142199347Y-96454087D01*
X142170481Y-96404089D01*
X142170480Y-96404087D01*
X142095913Y-96329520D01*
X142091191Y-96326794D01*
X142004589Y-96276794D01*
X142004588Y-96276793D01*
X142004587Y-96276793D01*
X141902727Y-96249500D01*
X141797273Y-96249500D01*
X141695413Y-96276793D01*
X141695412Y-96276793D01*
X141695410Y-96276794D01*
X141695409Y-96276794D01*
X141604089Y-96329518D01*
X141529518Y-96404089D01*
X141476794Y-96495409D01*
X141476794Y-96495410D01*
X141476793Y-96495412D01*
X141476793Y-96495413D01*
X141449500Y-96597273D01*
X140701067Y-96597273D01*
X140713003Y-96552727D01*
X140713003Y-96447273D01*
X140685710Y-96345413D01*
X140674960Y-96326794D01*
X140632984Y-96254089D01*
X140632983Y-96254087D01*
X140558416Y-96179520D01*
X140537503Y-96167446D01*
X140467092Y-96126794D01*
X140467091Y-96126793D01*
X140467090Y-96126793D01*
X140365230Y-96099500D01*
X140259776Y-96099500D01*
X140157916Y-96126793D01*
X140157914Y-96126793D01*
X140157914Y-96126794D01*
X140136999Y-96138869D01*
X140077150Y-96151588D01*
X140038002Y-96138868D01*
X140017089Y-96126794D01*
X140017088Y-96126793D01*
X140017087Y-96126793D01*
X139915227Y-96099500D01*
X139809773Y-96099500D01*
X139707913Y-96126793D01*
X139707912Y-96126793D01*
X139707910Y-96126794D01*
X139707909Y-96126794D01*
X139616589Y-96179518D01*
X139542018Y-96254089D01*
X139489294Y-96345409D01*
X139489294Y-96345410D01*
X139489293Y-96345412D01*
X139489293Y-96345413D01*
X139462000Y-96447273D01*
X139063666Y-96447273D01*
X138995913Y-96379520D01*
X138909310Y-96329520D01*
X138904589Y-96326794D01*
X138904588Y-96326793D01*
X138904587Y-96326793D01*
X138802727Y-96299500D01*
X138697273Y-96299500D01*
X138595413Y-96326793D01*
X138595412Y-96326793D01*
X138595410Y-96326794D01*
X138595409Y-96326794D01*
X138504089Y-96379518D01*
X138429518Y-96454089D01*
X138376794Y-96545409D01*
X138376794Y-96545410D01*
X138376793Y-96545412D01*
X138376793Y-96545413D01*
X138349500Y-96647273D01*
X137100500Y-96647273D01*
X137100500Y-95653240D01*
X137100712Y-95646765D01*
X137107233Y-95547273D01*
X149554500Y-95547273D01*
X149554500Y-95652727D01*
X149555840Y-95657727D01*
X149581794Y-95754589D01*
X149581794Y-95754590D01*
X149584681Y-95759590D01*
X149634520Y-95845913D01*
X149709087Y-95920480D01*
X149800413Y-95973207D01*
X149902273Y-96000500D01*
X149902275Y-96000500D01*
X150007725Y-96000500D01*
X150007727Y-96000500D01*
X150109587Y-95973207D01*
X150200913Y-95920480D01*
X150275480Y-95845913D01*
X150328207Y-95754587D01*
X150355500Y-95652727D01*
X150355500Y-95552273D01*
X150694500Y-95552273D01*
X150694500Y-95657727D01*
X150721793Y-95759587D01*
X150721794Y-95759589D01*
X150721794Y-95759590D01*
X150771633Y-95845913D01*
X150774520Y-95850913D01*
X150849087Y-95925480D01*
X150940413Y-95978207D01*
X151042273Y-96005500D01*
X151042275Y-96005500D01*
X151147725Y-96005500D01*
X151147727Y-96005500D01*
X151249587Y-95978207D01*
X151340913Y-95925480D01*
X151415480Y-95850913D01*
X151468207Y-95759587D01*
X151495500Y-95657727D01*
X151495500Y-95552273D01*
X151494160Y-95547273D01*
X152799500Y-95547273D01*
X152799500Y-95652727D01*
X152800840Y-95657727D01*
X152826794Y-95754589D01*
X152826794Y-95754590D01*
X152829681Y-95759590D01*
X152879520Y-95845913D01*
X152954087Y-95920480D01*
X153045413Y-95973207D01*
X153147273Y-96000500D01*
X153147275Y-96000500D01*
X153252725Y-96000500D01*
X153252727Y-96000500D01*
X153354587Y-95973207D01*
X153445913Y-95920480D01*
X153520480Y-95845913D01*
X153573207Y-95754587D01*
X153600500Y-95652727D01*
X153600500Y-95547273D01*
X153573207Y-95445413D01*
X153520480Y-95354087D01*
X153445913Y-95279520D01*
X153363247Y-95231793D01*
X153354589Y-95226794D01*
X153354588Y-95226793D01*
X153354587Y-95226793D01*
X153252727Y-95199500D01*
X153147273Y-95199500D01*
X153045413Y-95226793D01*
X153045412Y-95226793D01*
X153045410Y-95226794D01*
X153045409Y-95226794D01*
X152954089Y-95279518D01*
X152879518Y-95354089D01*
X152826794Y-95445409D01*
X152826794Y-95445410D01*
X152826793Y-95445412D01*
X152826793Y-95445413D01*
X152799500Y-95547273D01*
X151494160Y-95547273D01*
X151468207Y-95450413D01*
X151465320Y-95445413D01*
X151415481Y-95359089D01*
X151415480Y-95359087D01*
X151340913Y-95284520D01*
X151332249Y-95279518D01*
X151249589Y-95231794D01*
X151249588Y-95231793D01*
X151249587Y-95231793D01*
X151147727Y-95204500D01*
X151042273Y-95204500D01*
X150940413Y-95231793D01*
X150940412Y-95231793D01*
X150940410Y-95231794D01*
X150940409Y-95231794D01*
X150849089Y-95284518D01*
X150774518Y-95359089D01*
X150721794Y-95450409D01*
X150721794Y-95450410D01*
X150721793Y-95450412D01*
X150721793Y-95450413D01*
X150694500Y-95552273D01*
X150355500Y-95552273D01*
X150355500Y-95547273D01*
X150328207Y-95445413D01*
X150275480Y-95354087D01*
X150200913Y-95279520D01*
X150118247Y-95231793D01*
X150109589Y-95226794D01*
X150109588Y-95226793D01*
X150109587Y-95226793D01*
X150007727Y-95199500D01*
X149902273Y-95199500D01*
X149800413Y-95226793D01*
X149800412Y-95226793D01*
X149800410Y-95226794D01*
X149800409Y-95226794D01*
X149709089Y-95279518D01*
X149634518Y-95354089D01*
X149581794Y-95445409D01*
X149581794Y-95445410D01*
X149581793Y-95445412D01*
X149581793Y-95445413D01*
X149554500Y-95547273D01*
X137107233Y-95547273D01*
X137108083Y-95534309D01*
X137108083Y-95534308D01*
X137109725Y-95509243D01*
X137115470Y-95421587D01*
X137117158Y-95408764D01*
X137160552Y-95190609D01*
X137163899Y-95178117D01*
X137235397Y-94967493D01*
X137240345Y-94955548D01*
X137244426Y-94947273D01*
X138399500Y-94947273D01*
X138399500Y-95052727D01*
X138426793Y-95154587D01*
X138426794Y-95154589D01*
X138426794Y-95154590D01*
X138471368Y-95231794D01*
X138479520Y-95245913D01*
X138554087Y-95320480D01*
X138645413Y-95373207D01*
X138747273Y-95400500D01*
X138747275Y-95400500D01*
X138852725Y-95400500D01*
X138852727Y-95400500D01*
X138954587Y-95373207D01*
X139045913Y-95320480D01*
X139120480Y-95245913D01*
X139173207Y-95154587D01*
X139200500Y-95052727D01*
X139200500Y-94947273D01*
X139173207Y-94845413D01*
X139144626Y-94795910D01*
X139138055Y-94784529D01*
X139120480Y-94754087D01*
X139045913Y-94679520D01*
X138954587Y-94626793D01*
X138852727Y-94599500D01*
X138747273Y-94599500D01*
X138645413Y-94626793D01*
X138645412Y-94626793D01*
X138645410Y-94626794D01*
X138645409Y-94626794D01*
X138554089Y-94679518D01*
X138479518Y-94754089D01*
X138426794Y-94845409D01*
X138426794Y-94845410D01*
X138426793Y-94845412D01*
X138426793Y-94845413D01*
X138399500Y-94947273D01*
X137244426Y-94947273D01*
X137338723Y-94756056D01*
X137345186Y-94744862D01*
X137468760Y-94559922D01*
X137476627Y-94549668D01*
X137522576Y-94497273D01*
X141299500Y-94497273D01*
X141299500Y-94602727D01*
X141326793Y-94704587D01*
X141326794Y-94704589D01*
X141326794Y-94704590D01*
X141356518Y-94756073D01*
X141379520Y-94795913D01*
X141454087Y-94870480D01*
X141545413Y-94923207D01*
X141647273Y-94950500D01*
X141647275Y-94950500D01*
X141752725Y-94950500D01*
X141752727Y-94950500D01*
X141854587Y-94923207D01*
X141945913Y-94870480D01*
X142020480Y-94795913D01*
X142073207Y-94704587D01*
X142100500Y-94602727D01*
X142100500Y-94497273D01*
X142073207Y-94395413D01*
X142065716Y-94382439D01*
X142020481Y-94304089D01*
X142020480Y-94304087D01*
X141945913Y-94229520D01*
X141933513Y-94222361D01*
X141854589Y-94176794D01*
X141854588Y-94176793D01*
X141854587Y-94176793D01*
X141752727Y-94149500D01*
X141647273Y-94149500D01*
X141545413Y-94176793D01*
X141545412Y-94176793D01*
X141545410Y-94176794D01*
X141545409Y-94176794D01*
X141454089Y-94229518D01*
X141379518Y-94304089D01*
X141326794Y-94395409D01*
X141326794Y-94395410D01*
X141326793Y-94395412D01*
X141326793Y-94395413D01*
X141299500Y-94497273D01*
X137522576Y-94497273D01*
X137623291Y-94382429D01*
X137632429Y-94373291D01*
X137799659Y-94226635D01*
X137809922Y-94218760D01*
X137994862Y-94095186D01*
X138006067Y-94088717D01*
X138205543Y-93990348D01*
X138217493Y-93985397D01*
X138428117Y-93913899D01*
X138440609Y-93910552D01*
X138658764Y-93867158D01*
X138671585Y-93865471D01*
X138896766Y-93850712D01*
X138903241Y-93850500D01*
X138939882Y-93850500D01*
X155860118Y-93850500D01*
X155896759Y-93850500D01*
X155903234Y-93850712D01*
G37*
%TD.AperFunction*%
%TD*%
M02*
