%TF.GenerationSoftware,KiCad,Pcbnew,9.0.4*%
%TF.CreationDate,2026-03-27T12:45:51+01:00*%
%TF.ProjectId,mmWave-Shield,6d6d5761-7665-42d5-9368-69656c642e6b,rev?*%
%TF.SameCoordinates,Original*%
%TF.FileFunction,Paste,Top*%
%TF.FilePolarity,Positive*%
%FSLAX46Y46*%
G04 Gerber Fmt 4.6, Leading zero omitted, Abs format (unit mm)*
G04 Created by KiCad (PCBNEW 9.0.4) date 2026-03-27 12:45:51*
%MOMM*%
%LPD*%
G01*
G04 APERTURE LIST*
G04 Aperture macros list*
%AMRoundRect*
0 Rectangle with rounded corners*
0 $1 Rounding radius*
0 $2 $3 $4 $5 $6 $7 $8 $9 X,Y pos of 4 corners*
0 Add a 4 corners polygon primitive as box body*
4,1,4,$2,$3,$4,$5,$6,$7,$8,$9,$2,$3,0*
0 Add four circle primitives for the rounded corners*
1,1,$1+$1,$2,$3*
1,1,$1+$1,$4,$5*
1,1,$1+$1,$6,$7*
1,1,$1+$1,$8,$9*
0 Add four rect primitives between the rounded corners*
20,1,$1+$1,$2,$3,$4,$5,0*
20,1,$1+$1,$4,$5,$6,$7,0*
20,1,$1+$1,$6,$7,$8,$9,0*
20,1,$1+$1,$8,$9,$2,$3,0*%
G04 Aperture macros list end*
%ADD10R,0.372400X0.549200*%
%ADD11RoundRect,0.135000X0.185000X-0.135000X0.185000X0.135000X-0.185000X0.135000X-0.185000X-0.135000X0*%
%ADD12RoundRect,0.140000X0.140000X0.170000X-0.140000X0.170000X-0.140000X-0.170000X0.140000X-0.170000X0*%
%ADD13RoundRect,0.140000X-0.170000X0.140000X-0.170000X-0.140000X0.170000X-0.140000X0.170000X0.140000X0*%
%ADD14RoundRect,0.250000X-0.450000X0.262500X-0.450000X-0.262500X0.450000X-0.262500X0.450000X0.262500X0*%
%ADD15C,0.230000*%
%ADD16RoundRect,0.140000X-0.140000X-0.170000X0.140000X-0.170000X0.140000X0.170000X-0.140000X0.170000X0*%
%ADD17RoundRect,0.137500X0.000010X-0.000010X0.000010X0.000010X-0.000010X0.000010X-0.000010X-0.000010X0*%
%ADD18RoundRect,0.140000X0.170000X-0.140000X0.170000X0.140000X-0.170000X0.140000X-0.170000X-0.140000X0*%
%ADD19R,0.812800X0.609600*%
G04 APERTURE END LIST*
D10*
%TO.C,FB7*%
X153208800Y-102000000D03*
X154141200Y-102000000D03*
%TD*%
D11*
%TO.C,R1*%
X150450000Y-105760000D03*
X150450000Y-104740000D03*
%TD*%
D12*
%TO.C,C14*%
X154155000Y-96150000D03*
X153195000Y-96150000D03*
%TD*%
D13*
%TO.C,C5*%
X147150000Y-104770000D03*
X147150000Y-105730000D03*
%TD*%
D14*
%TO.C,R4*%
X140250000Y-97987500D03*
X140250000Y-99812500D03*
%TD*%
D15*
%TO.C,U2*%
X142600000Y-96150000D03*
X142200000Y-96150000D03*
X142600000Y-95750000D03*
X142200000Y-95750000D03*
%TD*%
D10*
%TO.C,FB5*%
X153208800Y-97250000D03*
X154141200Y-97250000D03*
%TD*%
D16*
%TO.C,C2*%
X149995000Y-100650000D03*
X150955000Y-100650000D03*
%TD*%
D10*
%TO.C,FB1*%
X154141200Y-98900000D03*
X153208800Y-98900000D03*
%TD*%
D12*
%TO.C,C13*%
X152055000Y-96150000D03*
X151095000Y-96150000D03*
%TD*%
D10*
%TO.C,FB4*%
X154141200Y-101000000D03*
X153208800Y-101000000D03*
%TD*%
D17*
%TO.C,U$1*%
X142900000Y-103150000D03*
X142900000Y-102650000D03*
X142900000Y-102149996D03*
X142900000Y-101650000D03*
X142900000Y-101149997D03*
X142900000Y-100650000D03*
X142900000Y-100150000D03*
X142900000Y-99649997D03*
X142900000Y-99150000D03*
X143400000Y-103150000D03*
X143400000Y-102149996D03*
X143400000Y-101650000D03*
X143400000Y-99649997D03*
X143400000Y-99150000D03*
X143900000Y-103150000D03*
X143900000Y-99150000D03*
X144400000Y-103150000D03*
X144400000Y-99150000D03*
X144900000Y-103150000D03*
X144900000Y-99150000D03*
X145400000Y-103150000D03*
X145400000Y-99150000D03*
X145900000Y-103150000D03*
X145900000Y-99150000D03*
X146400000Y-103150000D03*
X146400000Y-99150000D03*
X146900000Y-103150000D03*
X146900000Y-99150000D03*
X147400003Y-103150000D03*
X147400003Y-99150000D03*
X147900000Y-103150000D03*
X147900000Y-99150000D03*
X148400000Y-103150000D03*
X148400000Y-102650000D03*
X148400000Y-102149996D03*
X148400000Y-101650000D03*
X148400000Y-101149997D03*
X148400000Y-100650000D03*
X148400000Y-100150000D03*
X148400000Y-99150000D03*
%TD*%
D13*
%TO.C,C8*%
X149350000Y-104770000D03*
X149350000Y-105730000D03*
%TD*%
D18*
%TO.C,C9*%
X146250000Y-97230000D03*
X146250000Y-96270000D03*
%TD*%
D16*
%TO.C,C16*%
X149470000Y-106950000D03*
X150430000Y-106950000D03*
%TD*%
D18*
%TO.C,C18*%
X137800000Y-96300000D03*
X137800000Y-95340000D03*
%TD*%
D16*
%TO.C,C4*%
X149995000Y-101650000D03*
X150955000Y-101650000D03*
%TD*%
D12*
%TO.C,C12*%
X152055000Y-97250000D03*
X151095000Y-97250000D03*
%TD*%
D18*
%TO.C,C10*%
X147350000Y-97230000D03*
X147350000Y-96270000D03*
%TD*%
D15*
%TO.C,U1*%
X139200000Y-96150000D03*
X138800000Y-96150000D03*
X139200000Y-95750000D03*
X138800000Y-95750000D03*
%TD*%
D14*
%TO.C,R3*%
X138250000Y-97987500D03*
X138250000Y-99812500D03*
%TD*%
D13*
%TO.C,C6*%
X146025000Y-104770000D03*
X146025000Y-105730000D03*
%TD*%
%TO.C,C1*%
X148250000Y-104770000D03*
X148250000Y-105730000D03*
%TD*%
D12*
%TO.C,C11*%
X149955000Y-96150000D03*
X148995000Y-96150000D03*
%TD*%
D10*
%TO.C,FB2*%
X154141200Y-99950000D03*
X153208800Y-99950000D03*
%TD*%
%TO.C,FB6*%
X151108800Y-98650000D03*
X152041200Y-98650000D03*
%TD*%
%TO.C,FB3*%
X149941200Y-97200000D03*
X149008800Y-97200000D03*
%TD*%
D18*
%TO.C,C3*%
X145150000Y-97230000D03*
X145150000Y-96270000D03*
%TD*%
%TO.C,C20*%
X141200000Y-96300000D03*
X141200000Y-95340000D03*
%TD*%
D16*
%TO.C,C7*%
X149995000Y-102650000D03*
X150955000Y-102650000D03*
%TD*%
D19*
%TO.C,X1*%
X153349999Y-106550001D03*
X153349999Y-104749999D03*
X152150001Y-104749999D03*
X152150001Y-106550001D03*
%TD*%
D16*
%TO.C,C15*%
X153195000Y-103300000D03*
X154155000Y-103300000D03*
%TD*%
M02*
