M48
; DRILL file {KiCad 9.0.4} date 2026-03-27T12:46:33+0100
; FORMAT={-:-/ absolute / metric / decimal}
; #@! TF.CreationDate,2026-03-27T12:46:33+01:00
; #@! TF.GenerationSoftware,Kicad,Pcbnew,9.0.4
; #@! TF.FileFunction,Plated,1,4,PTH
FMAT,2
METRIC
; #@! TA.AperFunction,Plated,PTH,ViaDrill
T1C0.200
; #@! TA.AperFunction,Plated,PTH,ViaDrill
T2C1.100
%
G90
G05
T1
X138.1Y-105.65
X138.1Y-106.05
X138.55Y-107.5
X138.75Y-96.7
X138.75Y-97.1
X138.8Y-95.0
X139.15Y-99.55
X139.15Y-100.0
X139.2Y-94.25
X139.2Y-101.35
X139.2Y-101.75
X139.45Y-105.65
X139.45Y-106.05
X139.5Y-107.5
X139.862Y-96.5
X139.9Y-100.55
X140.2Y-94.25
X140.313Y-96.5
X140.35Y-100.55
X140.389Y-103.561
X141.2Y-94.25
X141.7Y-94.55
X141.85Y-96.65
X141.85Y-97.05
X142.05Y-99.2
X142.05Y-99.85
X142.05Y-100.85
X142.05Y-101.55
X142.05Y-102.35
X142.05Y-103.1
X142.2Y-94.25
X142.55Y-98.35
X142.75Y-104.1
X143.2Y-94.25
X143.3Y-97.0
X143.3Y-98.35
X143.4Y-104.1
X143.5Y-105.8
X143.5Y-106.8
X143.5Y-107.8
X143.7Y-97.0
X143.9Y-103.65
X144.0Y-98.35
X144.5Y-106.8
X144.5Y-107.8
X144.6Y-95.55
X144.75Y-98.35
X145.4Y-103.9
X145.472Y-104.9
X145.5Y-106.85
X145.5Y-107.8
X145.6Y-95.55
X145.9Y-103.65
X146.5Y-107.8
X146.55Y-98.35
X146.6Y-95.55
X146.6Y-106.85
X147.2Y-98.35
X147.425Y-103.976
X147.5Y-107.8
X147.599Y-105.003
X147.6Y-95.55
X147.7Y-106.85
X147.9Y-97.9
X148.15Y-96.1
X148.5Y-107.8
X148.6Y-95.55
X148.8Y-106.95
X148.95Y-101.15
X149.05Y-99.45
X149.05Y-100.1
X149.1Y-98.75
X149.5Y-107.8
X149.88Y-105.172
X149.955Y-95.6
X150.05Y-99.15
X150.244Y-102.298
X150.35Y-101.3
X150.5Y-107.8
X151.095Y-95.605
X151.15Y-103.45
X151.5Y-107.8
X151.65Y-100.65
X152.05Y-95.6
X152.449Y-103.249
X152.5Y-107.8
X152.501Y-98.549
X152.55Y-100.15
X152.55Y-100.85
X152.65Y-97.25
X153.2Y-95.6
X153.5Y-107.8
X154.2Y-95.6
X154.5Y-106.8
X154.5Y-107.8
X154.75Y-97.25
X155.5Y-94.8
X155.5Y-95.8
X155.5Y-99.8
X155.5Y-100.8
X155.5Y-101.8
X155.5Y-102.8
X155.5Y-103.8
X155.5Y-104.8
X155.5Y-105.8
X155.5Y-106.8
X155.5Y-107.8
X156.5Y-94.8
X156.5Y-104.8
X156.5Y-105.8
X156.5Y-106.8
X156.5Y-107.8
T2
X141.1Y-107.3
M30
