ISO-10303-21;
HEADER;
/* Generated by software containing ST-Developer
 * from STEP Tools, Inc. (www.steptools.com) 
 */
/* OPTION: strings as raw bytes, not using required /X/ escapes */

FILE_DESCRIPTION(
/* description */ ('Unknown'),
/* implementation_level */ '2;1');

FILE_NAME(
/* name */ 'Body_larger',
/* time_stamp */ '2026-05-15T10:38:19+02:00',
/* author */ ('Unknown'),
/* organization */ ('Unknown'),
/* preprocessor_version */ 'ST-DEVELOPER v19.4',
/* originating_system */ 'Solid Edge',
/* authorisation */ 'Unknown');

FILE_SCHEMA (('AUTOMOTIVE_DESIGN {1 0 10303 214 3 1 1}'));
ENDSEC;

DATA;
#10=PROPERTY_DEFINITION_REPRESENTATION(#14,#12);
#11=PROPERTY_DEFINITION_REPRESENTATION(#15,#13);
#12=REPRESENTATION('',(#16),#2353);
#13=REPRESENTATION('',(#17),#2353);
#14=PROPERTY_DEFINITION('pmi validation property','',#2358);
#15=PROPERTY_DEFINITION('pmi validation property','',#2358);
#16=VALUE_REPRESENTATION_ITEM('number of annotations',COUNT_MEASURE(0.));
#17=VALUE_REPRESENTATION_ITEM('number of views',COUNT_MEASURE(0.));
#18=SHAPE_REPRESENTATION_RELATIONSHIP('','',#1495,#19);
#19=ADVANCED_BREP_SHAPE_REPRESENTATION('',(#1493),#2353);
#20=CYLINDRICAL_SURFACE('',#1571,1.);
#21=CYLINDRICAL_SURFACE('',#1572,1.);
#22=CIRCLE('',#1516,1.);
#23=CIRCLE('',#1517,1.);
#24=CIRCLE('',#1550,1.);
#25=CIRCLE('',#1555,1.);
#26=CIRCLE('',#1557,1.);
#27=CIRCLE('',#1560,1.);
#28=CIRCLE('',#1565,1.);
#29=CIRCLE('',#1567,1.);
#30=ORIENTED_EDGE('',*,*,#454,.F.);
#31=ORIENTED_EDGE('',*,*,#455,.T.);
#32=ORIENTED_EDGE('',*,*,#456,.T.);
#33=ORIENTED_EDGE('',*,*,#457,.F.);
#34=ORIENTED_EDGE('',*,*,#458,.F.);
#35=ORIENTED_EDGE('',*,*,#459,.F.);
#36=ORIENTED_EDGE('',*,*,#460,.T.);
#37=ORIENTED_EDGE('',*,*,#461,.T.);
#38=ORIENTED_EDGE('',*,*,#462,.T.);
#39=ORIENTED_EDGE('',*,*,#463,.T.);
#40=ORIENTED_EDGE('',*,*,#464,.F.);
#41=ORIENTED_EDGE('',*,*,#465,.F.);
#42=ORIENTED_EDGE('',*,*,#466,.F.);
#43=ORIENTED_EDGE('',*,*,#467,.F.);
#44=ORIENTED_EDGE('',*,*,#468,.F.);
#45=ORIENTED_EDGE('',*,*,#469,.F.);
#46=ORIENTED_EDGE('',*,*,#470,.T.);
#47=ORIENTED_EDGE('',*,*,#471,.T.);
#48=ORIENTED_EDGE('',*,*,#458,.T.);
#49=ORIENTED_EDGE('',*,*,#472,.F.);
#50=ORIENTED_EDGE('',*,*,#473,.F.);
#51=ORIENTED_EDGE('',*,*,#474,.F.);
#52=ORIENTED_EDGE('',*,*,#462,.F.);
#53=ORIENTED_EDGE('',*,*,#475,.F.);
#54=ORIENTED_EDGE('',*,*,#476,.F.);
#55=ORIENTED_EDGE('',*,*,#477,.F.);
#56=ORIENTED_EDGE('',*,*,#478,.F.);
#57=ORIENTED_EDGE('',*,*,#479,.T.);
#58=ORIENTED_EDGE('',*,*,#480,.T.);
#59=ORIENTED_EDGE('',*,*,#481,.T.);
#60=ORIENTED_EDGE('',*,*,#482,.T.);
#61=ORIENTED_EDGE('',*,*,#483,.T.);
#62=ORIENTED_EDGE('',*,*,#484,.T.);
#63=ORIENTED_EDGE('',*,*,#485,.F.);
#64=ORIENTED_EDGE('',*,*,#486,.F.);
#65=ORIENTED_EDGE('',*,*,#487,.F.);
#66=ORIENTED_EDGE('',*,*,#488,.T.);
#67=ORIENTED_EDGE('',*,*,#489,.F.);
#68=ORIENTED_EDGE('',*,*,#490,.T.);
#69=ORIENTED_EDGE('',*,*,#491,.T.);
#70=ORIENTED_EDGE('',*,*,#492,.T.);
#71=ORIENTED_EDGE('',*,*,#493,.T.);
#72=ORIENTED_EDGE('',*,*,#494,.T.);
#73=ORIENTED_EDGE('',*,*,#495,.T.);
#74=ORIENTED_EDGE('',*,*,#496,.F.);
#75=ORIENTED_EDGE('',*,*,#497,.F.);
#76=ORIENTED_EDGE('',*,*,#498,.F.);
#77=ORIENTED_EDGE('',*,*,#499,.F.);
#78=ORIENTED_EDGE('',*,*,#500,.F.);
#79=ORIENTED_EDGE('',*,*,#488,.F.);
#80=ORIENTED_EDGE('',*,*,#501,.F.);
#81=ORIENTED_EDGE('',*,*,#502,.F.);
#82=ORIENTED_EDGE('',*,*,#503,.T.);
#83=ORIENTED_EDGE('',*,*,#504,.F.);
#84=ORIENTED_EDGE('',*,*,#505,.F.);
#85=ORIENTED_EDGE('',*,*,#506,.F.);
#86=ORIENTED_EDGE('',*,*,#507,.F.);
#87=ORIENTED_EDGE('',*,*,#508,.F.);
#88=ORIENTED_EDGE('',*,*,#509,.T.);
#89=ORIENTED_EDGE('',*,*,#510,.T.);
#90=ORIENTED_EDGE('',*,*,#511,.T.);
#91=ORIENTED_EDGE('',*,*,#512,.F.);
#92=ORIENTED_EDGE('',*,*,#513,.F.);
#93=ORIENTED_EDGE('',*,*,#514,.F.);
#94=ORIENTED_EDGE('',*,*,#497,.T.);
#95=ORIENTED_EDGE('',*,*,#515,.F.);
#96=ORIENTED_EDGE('',*,*,#516,.F.);
#97=ORIENTED_EDGE('',*,*,#517,.T.);
#98=ORIENTED_EDGE('',*,*,#518,.T.);
#99=ORIENTED_EDGE('',*,*,#519,.F.);
#100=ORIENTED_EDGE('',*,*,#520,.F.);
#101=ORIENTED_EDGE('',*,*,#521,.F.);
#102=ORIENTED_EDGE('',*,*,#522,.T.);
#103=ORIENTED_EDGE('',*,*,#494,.F.);
#104=ORIENTED_EDGE('',*,*,#523,.F.);
#105=ORIENTED_EDGE('',*,*,#503,.F.);
#106=ORIENTED_EDGE('',*,*,#524,.T.);
#107=ORIENTED_EDGE('',*,*,#525,.T.);
#108=ORIENTED_EDGE('',*,*,#478,.T.);
#109=ORIENTED_EDGE('',*,*,#526,.T.);
#110=ORIENTED_EDGE('',*,*,#468,.T.);
#111=ORIENTED_EDGE('',*,*,#527,.T.);
#112=ORIENTED_EDGE('',*,*,#528,.F.);
#113=ORIENTED_EDGE('',*,*,#518,.F.);
#114=ORIENTED_EDGE('',*,*,#529,.F.);
#115=ORIENTED_EDGE('',*,*,#530,.T.);
#116=ORIENTED_EDGE('',*,*,#531,.F.);
#117=ORIENTED_EDGE('',*,*,#473,.T.);
#118=ORIENTED_EDGE('',*,*,#532,.F.);
#119=ORIENTED_EDGE('',*,*,#533,.T.);
#120=ORIENTED_EDGE('',*,*,#534,.F.);
#121=ORIENTED_EDGE('',*,*,#535,.F.);
#122=ORIENTED_EDGE('',*,*,#536,.F.);
#123=ORIENTED_EDGE('',*,*,#537,.F.);
#124=ORIENTED_EDGE('',*,*,#484,.F.);
#125=ORIENTED_EDGE('',*,*,#538,.F.);
#126=ORIENTED_EDGE('',*,*,#539,.F.);
#127=ORIENTED_EDGE('',*,*,#540,.T.);
#128=ORIENTED_EDGE('',*,*,#541,.F.);
#129=ORIENTED_EDGE('',*,*,#542,.F.);
#130=ORIENTED_EDGE('',*,*,#543,.F.);
#131=ORIENTED_EDGE('',*,*,#544,.F.);
#132=ORIENTED_EDGE('',*,*,#507,.T.);
#133=ORIENTED_EDGE('',*,*,#545,.T.);
#134=ORIENTED_EDGE('',*,*,#490,.F.);
#135=ORIENTED_EDGE('',*,*,#546,.F.);
#136=ORIENTED_EDGE('',*,*,#489,.T.);
#137=ORIENTED_EDGE('',*,*,#500,.T.);
#138=ORIENTED_EDGE('',*,*,#547,.T.);
#139=ORIENTED_EDGE('',*,*,#546,.T.);
#140=ORIENTED_EDGE('',*,*,#548,.F.);
#141=ORIENTED_EDGE('',*,*,#504,.T.);
#142=ORIENTED_EDGE('',*,*,#523,.T.);
#143=ORIENTED_EDGE('',*,*,#493,.F.);
#144=ORIENTED_EDGE('',*,*,#549,.F.);
#145=ORIENTED_EDGE('',*,*,#550,.T.);
#146=ORIENTED_EDGE('',*,*,#551,.T.);
#147=ORIENTED_EDGE('',*,*,#552,.T.);
#148=ORIENTED_EDGE('',*,*,#553,.T.);
#149=ORIENTED_EDGE('',*,*,#554,.T.);
#150=ORIENTED_EDGE('',*,*,#555,.T.);
#151=ORIENTED_EDGE('',*,*,#556,.F.);
#152=ORIENTED_EDGE('',*,*,#512,.T.);
#153=ORIENTED_EDGE('',*,*,#557,.T.);
#154=ORIENTED_EDGE('',*,*,#558,.F.);
#155=ORIENTED_EDGE('',*,*,#559,.T.);
#156=ORIENTED_EDGE('',*,*,#560,.F.);
#157=ORIENTED_EDGE('',*,*,#561,.F.);
#158=ORIENTED_EDGE('',*,*,#513,.T.);
#159=ORIENTED_EDGE('',*,*,#556,.T.);
#160=ORIENTED_EDGE('',*,*,#560,.T.);
#161=ORIENTED_EDGE('',*,*,#562,.T.);
#162=ORIENTED_EDGE('',*,*,#563,.T.);
#163=ORIENTED_EDGE('',*,*,#549,.T.);
#164=ORIENTED_EDGE('',*,*,#564,.F.);
#165=ORIENTED_EDGE('',*,*,#565,.T.);
#166=ORIENTED_EDGE('',*,*,#566,.F.);
#167=ORIENTED_EDGE('',*,*,#567,.F.);
#168=ORIENTED_EDGE('',*,*,#568,.T.);
#169=ORIENTED_EDGE('',*,*,#569,.T.);
#170=ORIENTED_EDGE('',*,*,#570,.F.);
#171=ORIENTED_EDGE('',*,*,#571,.F.);
#172=ORIENTED_EDGE('',*,*,#479,.F.);
#173=ORIENTED_EDGE('',*,*,#525,.F.);
#174=ORIENTED_EDGE('',*,*,#572,.T.);
#175=ORIENTED_EDGE('',*,*,#573,.F.);
#176=ORIENTED_EDGE('',*,*,#574,.T.);
#177=ORIENTED_EDGE('',*,*,#575,.T.);
#178=ORIENTED_EDGE('',*,*,#576,.T.);
#179=ORIENTED_EDGE('',*,*,#527,.F.);
#180=ORIENTED_EDGE('',*,*,#467,.T.);
#181=ORIENTED_EDGE('',*,*,#577,.T.);
#182=ORIENTED_EDGE('',*,*,#578,.T.);
#183=ORIENTED_EDGE('',*,*,#579,.T.);
#184=ORIENTED_EDGE('',*,*,#580,.F.);
#185=ORIENTED_EDGE('',*,*,#474,.T.);
#186=ORIENTED_EDGE('',*,*,#531,.T.);
#187=ORIENTED_EDGE('',*,*,#581,.F.);
#188=ORIENTED_EDGE('',*,*,#582,.T.);
#189=ORIENTED_EDGE('',*,*,#583,.T.);
#190=ORIENTED_EDGE('',*,*,#584,.T.);
#191=ORIENTED_EDGE('',*,*,#585,.T.);
#192=ORIENTED_EDGE('',*,*,#532,.T.);
#193=ORIENTED_EDGE('',*,*,#586,.F.);
#194=ORIENTED_EDGE('',*,*,#587,.T.);
#195=ORIENTED_EDGE('',*,*,#588,.F.);
#196=ORIENTED_EDGE('',*,*,#589,.T.);
#197=ORIENTED_EDGE('',*,*,#590,.T.);
#198=ORIENTED_EDGE('',*,*,#538,.T.);
#199=ORIENTED_EDGE('',*,*,#483,.F.);
#200=ORIENTED_EDGE('',*,*,#591,.F.);
#201=ORIENTED_EDGE('',*,*,#592,.T.);
#202=ORIENTED_EDGE('',*,*,#593,.F.);
#203=ORIENTED_EDGE('',*,*,#594,.T.);
#204=ORIENTED_EDGE('',*,*,#595,.T.);
#205=ORIENTED_EDGE('',*,*,#541,.T.);
#206=ORIENTED_EDGE('',*,*,#596,.F.);
#207=ORIENTED_EDGE('',*,*,#597,.T.);
#208=ORIENTED_EDGE('',*,*,#598,.T.);
#209=ORIENTED_EDGE('',*,*,#599,.T.);
#210=ORIENTED_EDGE('',*,*,#600,.T.);
#211=ORIENTED_EDGE('',*,*,#529,.T.);
#212=ORIENTED_EDGE('',*,*,#472,.T.);
#213=ORIENTED_EDGE('',*,*,#601,.T.);
#214=ORIENTED_EDGE('',*,*,#469,.T.);
#215=ORIENTED_EDGE('',*,*,#526,.F.);
#216=ORIENTED_EDGE('',*,*,#477,.T.);
#217=ORIENTED_EDGE('',*,*,#602,.T.);
#218=ORIENTED_EDGE('',*,*,#485,.T.);
#219=ORIENTED_EDGE('',*,*,#537,.T.);
#220=ORIENTED_EDGE('',*,*,#595,.F.);
#221=ORIENTED_EDGE('',*,*,#603,.T.);
#222=ORIENTED_EDGE('',*,*,#586,.T.);
#223=ORIENTED_EDGE('',*,*,#535,.T.);
#224=ORIENTED_EDGE('',*,*,#604,.T.);
#225=ORIENTED_EDGE('',*,*,#552,.F.);
#226=ORIENTED_EDGE('',*,*,#605,.F.);
#227=ORIENTED_EDGE('',*,*,#542,.T.);
#228=ORIENTED_EDGE('',*,*,#553,.F.);
#229=ORIENTED_EDGE('',*,*,#604,.F.);
#230=ORIENTED_EDGE('',*,*,#534,.T.);
#231=ORIENTED_EDGE('',*,*,#606,.T.);
#232=ORIENTED_EDGE('',*,*,#585,.F.);
#233=ORIENTED_EDGE('',*,*,#607,.T.);
#234=ORIENTED_EDGE('',*,*,#596,.T.);
#235=ORIENTED_EDGE('',*,*,#540,.F.);
#236=ORIENTED_EDGE('',*,*,#608,.T.);
#237=ORIENTED_EDGE('',*,*,#609,.T.);
#238=ORIENTED_EDGE('',*,*,#610,.T.);
#239=ORIENTED_EDGE('',*,*,#554,.F.);
#240=ORIENTED_EDGE('',*,*,#606,.F.);
#241=ORIENTED_EDGE('',*,*,#533,.F.);
#242=ORIENTED_EDGE('',*,*,#551,.F.);
#243=ORIENTED_EDGE('',*,*,#611,.F.);
#244=ORIENTED_EDGE('',*,*,#612,.T.);
#245=ORIENTED_EDGE('',*,*,#608,.F.);
#246=ORIENTED_EDGE('',*,*,#539,.T.);
#247=ORIENTED_EDGE('',*,*,#605,.T.);
#248=ORIENTED_EDGE('',*,*,#566,.T.);
#249=ORIENTED_EDGE('',*,*,#613,.T.);
#250=ORIENTED_EDGE('',*,*,#509,.F.);
#251=ORIENTED_EDGE('',*,*,#614,.F.);
#252=ORIENTED_EDGE('',*,*,#615,.F.);
#253=ORIENTED_EDGE('',*,*,#498,.T.);
#254=ORIENTED_EDGE('',*,*,#514,.T.);
#255=ORIENTED_EDGE('',*,*,#561,.T.);
#256=ORIENTED_EDGE('',*,*,#567,.T.);
#257=ORIENTED_EDGE('',*,*,#614,.T.);
#258=ORIENTED_EDGE('',*,*,#508,.T.);
#259=ORIENTED_EDGE('',*,*,#544,.T.);
#260=ORIENTED_EDGE('',*,*,#510,.F.);
#261=ORIENTED_EDGE('',*,*,#613,.F.);
#262=ORIENTED_EDGE('',*,*,#565,.F.);
#263=ORIENTED_EDGE('',*,*,#616,.F.);
#264=ORIENTED_EDGE('',*,*,#557,.F.);
#265=ORIENTED_EDGE('',*,*,#511,.F.);
#266=ORIENTED_EDGE('',*,*,#616,.T.);
#267=ORIENTED_EDGE('',*,*,#564,.T.);
#268=ORIENTED_EDGE('',*,*,#562,.F.);
#269=ORIENTED_EDGE('',*,*,#559,.F.);
#270=ORIENTED_EDGE('',*,*,#617,.F.);
#271=ORIENTED_EDGE('',*,*,#609,.F.);
#272=ORIENTED_EDGE('',*,*,#612,.F.);
#273=ORIENTED_EDGE('',*,*,#618,.F.);
#274=ORIENTED_EDGE('',*,*,#550,.F.);
#275=ORIENTED_EDGE('',*,*,#563,.F.);
#276=ORIENTED_EDGE('',*,*,#618,.T.);
#277=ORIENTED_EDGE('',*,*,#611,.T.);
#278=ORIENTED_EDGE('',*,*,#555,.F.);
#279=ORIENTED_EDGE('',*,*,#610,.F.);
#280=ORIENTED_EDGE('',*,*,#617,.T.);
#281=ORIENTED_EDGE('',*,*,#558,.T.);
#282=ORIENTED_EDGE('',*,*,#572,.F.);
#283=ORIENTED_EDGE('',*,*,#524,.F.);
#284=ORIENTED_EDGE('',*,*,#502,.T.);
#285=ORIENTED_EDGE('',*,*,#619,.F.);
#286=ORIENTED_EDGE('',*,*,#620,.F.);
#287=ORIENTED_EDGE('',*,*,#520,.T.);
#288=ORIENTED_EDGE('',*,*,#621,.T.);
#289=ORIENTED_EDGE('',*,*,#575,.F.);
#290=ORIENTED_EDGE('',*,*,#576,.F.);
#291=ORIENTED_EDGE('',*,*,#621,.F.);
#292=ORIENTED_EDGE('',*,*,#519,.T.);
#293=ORIENTED_EDGE('',*,*,#528,.T.);
#294=ORIENTED_EDGE('',*,*,#491,.F.);
#295=ORIENTED_EDGE('',*,*,#545,.F.);
#296=ORIENTED_EDGE('',*,*,#506,.T.);
#297=ORIENTED_EDGE('',*,*,#622,.T.);
#298=ORIENTED_EDGE('',*,*,#492,.F.);
#299=ORIENTED_EDGE('',*,*,#622,.F.);
#300=ORIENTED_EDGE('',*,*,#505,.T.);
#301=ORIENTED_EDGE('',*,*,#548,.T.);
#302=ORIENTED_EDGE('',*,*,#543,.T.);
#303=ORIENTED_EDGE('',*,*,#547,.F.);
#304=ORIENTED_EDGE('',*,*,#499,.T.);
#305=ORIENTED_EDGE('',*,*,#615,.T.);
#306=ORIENTED_EDGE('',*,*,#593,.T.);
#307=ORIENTED_EDGE('',*,*,#623,.T.);
#308=ORIENTED_EDGE('',*,*,#588,.T.);
#309=ORIENTED_EDGE('',*,*,#624,.T.);
#310=ORIENTED_EDGE('',*,*,#590,.F.);
#311=ORIENTED_EDGE('',*,*,#625,.T.);
#312=ORIENTED_EDGE('',*,*,#591,.T.);
#313=ORIENTED_EDGE('',*,*,#536,.T.);
#314=ORIENTED_EDGE('',*,*,#583,.F.);
#315=ORIENTED_EDGE('',*,*,#626,.T.);
#316=ORIENTED_EDGE('',*,*,#598,.F.);
#317=ORIENTED_EDGE('',*,*,#627,.T.);
#318=ORIENTED_EDGE('',*,*,#600,.F.);
#319=ORIENTED_EDGE('',*,*,#628,.T.);
#320=ORIENTED_EDGE('',*,*,#581,.T.);
#321=ORIENTED_EDGE('',*,*,#530,.F.);
#322=ORIENTED_EDGE('',*,*,#592,.F.);
#323=ORIENTED_EDGE('',*,*,#625,.F.);
#324=ORIENTED_EDGE('',*,*,#589,.F.);
#325=ORIENTED_EDGE('',*,*,#623,.F.);
#326=ORIENTED_EDGE('',*,*,#587,.F.);
#327=ORIENTED_EDGE('',*,*,#603,.F.);
#328=ORIENTED_EDGE('',*,*,#594,.F.);
#329=ORIENTED_EDGE('',*,*,#624,.F.);
#330=ORIENTED_EDGE('',*,*,#599,.F.);
#331=ORIENTED_EDGE('',*,*,#626,.F.);
#332=ORIENTED_EDGE('',*,*,#582,.F.);
#333=ORIENTED_EDGE('',*,*,#628,.F.);
#334=ORIENTED_EDGE('',*,*,#584,.F.);
#335=ORIENTED_EDGE('',*,*,#627,.F.);
#336=ORIENTED_EDGE('',*,*,#597,.F.);
#337=ORIENTED_EDGE('',*,*,#607,.F.);
#338=ORIENTED_EDGE('',*,*,#517,.F.);
#339=ORIENTED_EDGE('',*,*,#629,.T.);
#340=ORIENTED_EDGE('',*,*,#495,.F.);
#341=ORIENTED_EDGE('',*,*,#522,.F.);
#342=ORIENTED_EDGE('',*,*,#630,.F.);
#343=ORIENTED_EDGE('',*,*,#515,.T.);
#344=ORIENTED_EDGE('',*,*,#496,.T.);
#345=ORIENTED_EDGE('',*,*,#487,.T.);
#346=ORIENTED_EDGE('',*,*,#629,.F.);
#347=ORIENTED_EDGE('',*,*,#516,.T.);
#348=ORIENTED_EDGE('',*,*,#630,.T.);
#349=ORIENTED_EDGE('',*,*,#486,.T.);
#350=ORIENTED_EDGE('',*,*,#602,.F.);
#351=ORIENTED_EDGE('',*,*,#631,.F.);
#352=ORIENTED_EDGE('',*,*,#632,.F.);
#353=ORIENTED_EDGE('',*,*,#463,.F.);
#354=ORIENTED_EDGE('',*,*,#633,.F.);
#355=ORIENTED_EDGE('',*,*,#480,.F.);
#356=ORIENTED_EDGE('',*,*,#571,.T.);
#357=ORIENTED_EDGE('',*,*,#634,.T.);
#358=ORIENTED_EDGE('',*,*,#635,.T.);
#359=ORIENTED_EDGE('',*,*,#631,.T.);
#360=ORIENTED_EDGE('',*,*,#476,.T.);
#361=ORIENTED_EDGE('',*,*,#636,.F.);
#362=ORIENTED_EDGE('',*,*,#637,.F.);
#363=ORIENTED_EDGE('',*,*,#638,.F.);
#364=ORIENTED_EDGE('',*,*,#481,.F.);
#365=ORIENTED_EDGE('',*,*,#633,.T.);
#366=ORIENTED_EDGE('',*,*,#639,.F.);
#367=ORIENTED_EDGE('',*,*,#640,.T.);
#368=ORIENTED_EDGE('',*,*,#638,.T.);
#369=ORIENTED_EDGE('',*,*,#641,.T.);
#370=ORIENTED_EDGE('',*,*,#568,.F.);
#371=ORIENTED_EDGE('',*,*,#482,.F.);
#372=ORIENTED_EDGE('',*,*,#570,.T.);
#373=ORIENTED_EDGE('',*,*,#642,.T.);
#374=ORIENTED_EDGE('',*,*,#643,.F.);
#375=ORIENTED_EDGE('',*,*,#634,.F.);
#376=ORIENTED_EDGE('',*,*,#644,.F.);
#377=ORIENTED_EDGE('',*,*,#645,.T.);
#378=ORIENTED_EDGE('',*,*,#639,.T.);
#379=ORIENTED_EDGE('',*,*,#637,.T.);
#380=ORIENTED_EDGE('',*,*,#461,.F.);
#381=ORIENTED_EDGE('',*,*,#646,.T.);
#382=ORIENTED_EDGE('',*,*,#644,.T.);
#383=ORIENTED_EDGE('',*,*,#636,.T.);
#384=ORIENTED_EDGE('',*,*,#475,.T.);
#385=ORIENTED_EDGE('',*,*,#643,.T.);
#386=ORIENTED_EDGE('',*,*,#647,.T.);
#387=ORIENTED_EDGE('',*,*,#459,.T.);
#388=ORIENTED_EDGE('',*,*,#632,.T.);
#389=ORIENTED_EDGE('',*,*,#635,.F.);
#390=ORIENTED_EDGE('',*,*,#648,.T.);
#391=ORIENTED_EDGE('',*,*,#649,.T.);
#392=ORIENTED_EDGE('',*,*,#650,.T.);
#393=ORIENTED_EDGE('',*,*,#470,.F.);
#394=ORIENTED_EDGE('',*,*,#651,.F.);
#395=ORIENTED_EDGE('',*,*,#652,.F.);
#396=ORIENTED_EDGE('',*,*,#653,.F.);
#397=ORIENTED_EDGE('',*,*,#577,.F.);
#398=ORIENTED_EDGE('',*,*,#466,.T.);
#399=ORIENTED_EDGE('',*,*,#654,.T.);
#400=ORIENTED_EDGE('',*,*,#655,.T.);
#401=ORIENTED_EDGE('',*,*,#656,.T.);
#402=ORIENTED_EDGE('',*,*,#648,.F.);
#403=ORIENTED_EDGE('',*,*,#465,.T.);
#404=ORIENTED_EDGE('',*,*,#657,.T.);
#405=ORIENTED_EDGE('',*,*,#654,.F.);
#406=ORIENTED_EDGE('',*,*,#464,.T.);
#407=ORIENTED_EDGE('',*,*,#580,.T.);
#408=ORIENTED_EDGE('',*,*,#658,.T.);
#409=ORIENTED_EDGE('',*,*,#659,.T.);
#410=ORIENTED_EDGE('',*,*,#578,.F.);
#411=ORIENTED_EDGE('',*,*,#653,.T.);
#412=ORIENTED_EDGE('',*,*,#656,.F.);
#413=ORIENTED_EDGE('',*,*,#660,.T.);
#414=ORIENTED_EDGE('',*,*,#661,.T.);
#415=ORIENTED_EDGE('',*,*,#649,.F.);
#416=ORIENTED_EDGE('',*,*,#661,.F.);
#417=ORIENTED_EDGE('',*,*,#662,.T.);
#418=ORIENTED_EDGE('',*,*,#454,.T.);
#419=ORIENTED_EDGE('',*,*,#471,.F.);
#420=ORIENTED_EDGE('',*,*,#650,.F.);
#421=ORIENTED_EDGE('',*,*,#456,.F.);
#422=ORIENTED_EDGE('',*,*,#663,.T.);
#423=ORIENTED_EDGE('',*,*,#658,.F.);
#424=ORIENTED_EDGE('',*,*,#652,.T.);
#425=ORIENTED_EDGE('',*,*,#664,.F.);
#426=ORIENTED_EDGE('',*,*,#601,.F.);
#427=ORIENTED_EDGE('',*,*,#457,.T.);
#428=ORIENTED_EDGE('',*,*,#664,.T.);
#429=ORIENTED_EDGE('',*,*,#651,.T.);
#430=ORIENTED_EDGE('',*,*,#620,.T.);
#431=ORIENTED_EDGE('',*,*,#574,.F.);
#432=ORIENTED_EDGE('',*,*,#665,.F.);
#433=ORIENTED_EDGE('',*,*,#521,.T.);
#434=ORIENTED_EDGE('',*,*,#619,.T.);
#435=ORIENTED_EDGE('',*,*,#501,.T.);
#436=ORIENTED_EDGE('',*,*,#665,.T.);
#437=ORIENTED_EDGE('',*,*,#573,.T.);
#438=ORIENTED_EDGE('',*,*,#579,.F.);
#439=ORIENTED_EDGE('',*,*,#659,.F.);
#440=ORIENTED_EDGE('',*,*,#663,.F.);
#441=ORIENTED_EDGE('',*,*,#455,.F.);
#442=ORIENTED_EDGE('',*,*,#662,.F.);
#443=ORIENTED_EDGE('',*,*,#660,.F.);
#444=ORIENTED_EDGE('',*,*,#655,.F.);
#445=ORIENTED_EDGE('',*,*,#657,.F.);
#446=ORIENTED_EDGE('',*,*,#640,.F.);
#447=ORIENTED_EDGE('',*,*,#645,.F.);
#448=ORIENTED_EDGE('',*,*,#646,.F.);
#449=ORIENTED_EDGE('',*,*,#460,.F.);
#450=ORIENTED_EDGE('',*,*,#647,.F.);
#451=ORIENTED_EDGE('',*,*,#642,.F.);
#452=ORIENTED_EDGE('',*,*,#569,.F.);
#453=ORIENTED_EDGE('',*,*,#641,.F.);
#454=EDGE_CURVE('',#666,#667,#806,.T.);
#455=EDGE_CURVE('',#666,#668,#807,.T.);
#456=EDGE_CURVE('',#668,#669,#808,.T.);
#457=EDGE_CURVE('',#670,#669,#809,.F.);
#458=EDGE_CURVE('',#667,#670,#810,.F.);
#459=EDGE_CURVE('',#671,#672,#811,.T.);
#460=EDGE_CURVE('',#671,#673,#812,.F.);
#461=EDGE_CURVE('',#673,#674,#813,.T.);
#462=EDGE_CURVE('',#674,#675,#814,.F.);
#463=EDGE_CURVE('',#675,#672,#815,.F.);
#464=EDGE_CURVE('',#676,#677,#816,.F.);
#465=EDGE_CURVE('',#678,#676,#817,.F.);
#466=EDGE_CURVE('',#679,#678,#818,.F.);
#467=EDGE_CURVE('',#680,#679,#819,.T.);
#468=EDGE_CURVE('',#681,#680,#820,.T.);
#469=EDGE_CURVE('',#682,#681,#821,.T.);
#470=EDGE_CURVE('',#682,#683,#822,.F.);
#471=EDGE_CURVE('',#683,#667,#823,.F.);
#472=EDGE_CURVE('',#684,#670,#824,.T.);
#473=EDGE_CURVE('',#685,#684,#825,.T.);
#474=EDGE_CURVE('',#677,#685,#826,.T.);
#475=EDGE_CURVE('',#686,#674,#827,.F.);
#476=EDGE_CURVE('',#687,#686,#828,.F.);
#477=EDGE_CURVE('',#688,#687,#829,.T.);
#478=EDGE_CURVE('',#689,#688,#830,.T.);
#479=EDGE_CURVE('',#689,#690,#831,.T.);
#480=EDGE_CURVE('',#690,#691,#832,.F.);
#481=EDGE_CURVE('',#691,#692,#833,.F.);
#482=EDGE_CURVE('',#692,#693,#834,.F.);
#483=EDGE_CURVE('',#693,#694,#835,.T.);
#484=EDGE_CURVE('',#694,#695,#836,.T.);
#485=EDGE_CURVE('',#675,#695,#837,.T.);
#486=EDGE_CURVE('',#696,#697,#838,.T.);
#487=EDGE_CURVE('',#698,#696,#839,.T.);
#488=EDGE_CURVE('',#698,#699,#840,.T.);
#489=EDGE_CURVE('',#700,#699,#841,.T.);
#490=EDGE_CURVE('',#700,#701,#842,.T.);
#491=EDGE_CURVE('',#701,#702,#843,.T.);
#492=EDGE_CURVE('',#702,#703,#844,.T.);
#493=EDGE_CURVE('',#703,#704,#845,.T.);
#494=EDGE_CURVE('',#704,#705,#846,.T.);
#495=EDGE_CURVE('',#705,#697,#847,.T.);
#496=EDGE_CURVE('',#706,#698,#848,.T.);
#497=EDGE_CURVE('',#707,#706,#849,.T.);
#498=EDGE_CURVE('',#708,#707,#850,.T.);
#499=EDGE_CURVE('',#709,#708,#851,.T.);
#500=EDGE_CURVE('',#699,#709,#852,.T.);
#501=EDGE_CURVE('',#710,#711,#853,.T.);
#502=EDGE_CURVE('',#712,#710,#854,.T.);
#503=EDGE_CURVE('',#712,#713,#855,.T.);
#504=EDGE_CURVE('',#714,#713,#856,.T.);
#505=EDGE_CURVE('',#715,#714,#857,.T.);
#506=EDGE_CURVE('',#716,#715,#858,.T.);
#507=EDGE_CURVE('',#717,#716,#859,.T.);
#508=EDGE_CURVE('',#718,#717,#860,.T.);
#509=EDGE_CURVE('',#718,#719,#861,.T.);
#510=EDGE_CURVE('',#719,#720,#862,.T.);
#511=EDGE_CURVE('',#720,#721,#863,.T.);
#512=EDGE_CURVE('',#722,#721,#864,.T.);
#513=EDGE_CURVE('',#723,#722,#865,.T.);
#514=EDGE_CURVE('',#707,#723,#866,.T.);
#515=EDGE_CURVE('',#724,#706,#867,.T.);
#516=EDGE_CURVE('',#725,#724,#868,.T.);
#517=EDGE_CURVE('',#725,#726,#869,.T.);
#518=EDGE_CURVE('',#726,#727,#870,.T.);
#519=EDGE_CURVE('',#728,#727,#871,.T.);
#520=EDGE_CURVE('',#729,#728,#872,.T.);
#521=EDGE_CURVE('',#711,#729,#873,.T.);
#522=EDGE_CURVE('',#726,#705,#874,.T.);
#523=EDGE_CURVE('',#713,#704,#875,.T.);
#524=EDGE_CURVE('',#712,#730,#876,.T.);
#525=EDGE_CURVE('',#730,#689,#877,.T.);
#526=EDGE_CURVE('',#688,#681,#878,.T.);
#527=EDGE_CURVE('',#680,#731,#879,.T.);
#528=EDGE_CURVE('',#727,#731,#880,.T.);
#529=EDGE_CURVE('',#732,#684,#881,.T.);
#530=EDGE_CURVE('',#732,#733,#882,.T.);
#531=EDGE_CURVE('',#685,#733,#883,.T.);
#532=EDGE_CURVE('',#734,#735,#884,.T.);
#533=EDGE_CURVE('',#734,#736,#885,.T.);
#534=EDGE_CURVE('',#737,#736,#886,.T.);
#535=EDGE_CURVE('',#735,#737,#887,.T.);
#536=EDGE_CURVE('',#738,#739,#888,.T.);
#537=EDGE_CURVE('',#695,#738,#889,.T.);
#538=EDGE_CURVE('',#739,#694,#890,.T.);
#539=EDGE_CURVE('',#740,#741,#891,.T.);
#540=EDGE_CURVE('',#740,#742,#892,.T.);
#541=EDGE_CURVE('',#743,#742,#893,.T.);
#542=EDGE_CURVE('',#741,#743,#894,.T.);
#543=EDGE_CURVE('',#744,#745,#895,.T.);
#544=EDGE_CURVE('',#717,#744,#896,.T.);
#545=EDGE_CURVE('',#716,#701,#897,.T.);
#546=EDGE_CURVE('',#745,#700,#898,.T.);
#547=EDGE_CURVE('',#709,#745,#899,.T.);
#548=EDGE_CURVE('',#714,#703,#900,.T.);
#549=EDGE_CURVE('',#746,#747,#901,.T.);
#550=EDGE_CURVE('',#746,#748,#902,.T.);
#551=EDGE_CURVE('',#748,#749,#903,.T.);
#552=EDGE_CURVE('',#749,#750,#904,.T.);
#553=EDGE_CURVE('',#750,#751,#905,.T.);
#554=EDGE_CURVE('',#751,#752,#906,.T.);
#555=EDGE_CURVE('',#752,#753,#907,.T.);
#556=EDGE_CURVE('',#722,#753,#908,.T.);
#557=EDGE_CURVE('',#721,#747,#909,.T.);
#558=EDGE_CURVE('',#754,#753,#910,.T.);
#559=EDGE_CURVE('',#754,#755,#911,.T.);
#560=EDGE_CURVE('',#756,#755,#912,.T.);
#561=EDGE_CURVE('',#723,#756,#913,.T.);
#562=EDGE_CURVE('',#755,#757,#914,.T.);
#563=EDGE_CURVE('',#757,#746,#915,.T.);
#564=EDGE_CURVE('',#758,#747,#916,.T.);
#565=EDGE_CURVE('',#758,#759,#917,.T.);
#566=EDGE_CURVE('',#760,#759,#918,.T.);
#567=EDGE_CURVE('',#756,#760,#919,.T.);
#568=EDGE_CURVE('',#693,#761,#920,.T.);
#569=EDGE_CURVE('',#761,#762,#22,.F.);
#570=EDGE_CURVE('',#763,#762,#921,.T.);
#571=EDGE_CURVE('',#690,#763,#922,.T.);
#572=EDGE_CURVE('',#730,#764,#923,.T.);
#573=EDGE_CURVE('',#765,#764,#924,.T.);
#574=EDGE_CURVE('',#765,#766,#925,.T.);
#575=EDGE_CURVE('',#766,#767,#926,.T.);
#576=EDGE_CURVE('',#767,#731,#927,.T.);
#577=EDGE_CURVE('',#679,#768,#928,.T.);
#578=EDGE_CURVE('',#768,#769,#929,.T.);
#579=EDGE_CURVE('',#769,#770,#23,.F.);
#580=EDGE_CURVE('',#677,#770,#930,.T.);
#581=EDGE_CURVE('',#771,#733,#931,.T.);
#582=EDGE_CURVE('',#771,#772,#932,.T.);
#583=EDGE_CURVE('',#772,#773,#933,.T.);
#584=EDGE_CURVE('',#773,#774,#934,.T.);
#585=EDGE_CURVE('',#774,#734,#935,.T.);
#586=EDGE_CURVE('',#775,#735,#936,.T.);
#587=EDGE_CURVE('',#775,#776,#937,.F.);
#588=EDGE_CURVE('',#777,#776,#938,.T.);
#589=EDGE_CURVE('',#777,#778,#939,.T.);
#590=EDGE_CURVE('',#778,#739,#940,.T.);
#591=EDGE_CURVE('',#779,#738,#941,.T.);
#592=EDGE_CURVE('',#779,#780,#942,.T.);
#593=EDGE_CURVE('',#781,#780,#943,.T.);
#594=EDGE_CURVE('',#781,#782,#944,.F.);
#595=EDGE_CURVE('',#782,#743,#945,.T.);
#596=EDGE_CURVE('',#783,#742,#946,.T.);
#597=EDGE_CURVE('',#783,#784,#947,.T.);
#598=EDGE_CURVE('',#784,#785,#948,.T.);
#599=EDGE_CURVE('',#785,#786,#949,.T.);
#600=EDGE_CURVE('',#786,#732,#950,.T.);
#601=EDGE_CURVE('',#670,#682,#951,.T.);
#602=EDGE_CURVE('',#687,#675,#952,.T.);
#603=EDGE_CURVE('',#782,#775,#953,.T.);
#604=EDGE_CURVE('',#737,#750,#954,.T.);
#605=EDGE_CURVE('',#741,#749,#955,.T.);
#606=EDGE_CURVE('',#736,#751,#956,.T.);
#607=EDGE_CURVE('',#774,#783,#957,.T.);
#608=EDGE_CURVE('',#740,#787,#958,.T.);
#609=EDGE_CURVE('',#787,#788,#959,.T.);
#610=EDGE_CURVE('',#788,#752,#960,.T.);
#611=EDGE_CURVE('',#789,#748,#961,.T.);
#612=EDGE_CURVE('',#789,#787,#962,.T.);
#613=EDGE_CURVE('',#759,#719,#963,.T.);
#614=EDGE_CURVE('',#760,#718,#964,.T.);
#615=EDGE_CURVE('',#708,#744,#965,.T.);
#616=EDGE_CURVE('',#720,#758,#966,.T.);
#617=EDGE_CURVE('',#788,#754,#967,.T.);
#618=EDGE_CURVE('',#757,#789,#968,.T.);
#619=EDGE_CURVE('',#764,#710,#969,.T.);
#620=EDGE_CURVE('',#729,#766,#970,.T.);
#621=EDGE_CURVE('',#728,#767,#971,.T.);
#622=EDGE_CURVE('',#715,#702,#972,.T.);
#623=EDGE_CURVE('',#780,#777,#973,.T.);
#624=EDGE_CURVE('',#776,#781,#974,.T.);
#625=EDGE_CURVE('',#778,#779,#975,.T.);
#626=EDGE_CURVE('',#772,#785,#976,.T.);
#627=EDGE_CURVE('',#784,#773,#977,.T.);
#628=EDGE_CURVE('',#786,#771,#978,.T.);
#629=EDGE_CURVE('',#725,#697,#979,.T.);
#630=EDGE_CURVE('',#724,#696,#980,.T.);
#631=EDGE_CURVE('',#790,#687,#981,.F.);
#632=EDGE_CURVE('',#672,#790,#982,.F.);
#633=EDGE_CURVE('',#691,#791,#983,.T.);
#634=EDGE_CURVE('',#763,#792,#984,.T.);
#635=EDGE_CURVE('',#792,#790,#985,.T.);
#636=EDGE_CURVE('',#793,#686,#986,.T.);
#637=EDGE_CURVE('',#791,#793,#987,.T.);
#638=EDGE_CURVE('',#692,#794,#988,.T.);
#639=EDGE_CURVE('',#795,#791,#989,.T.);
#640=EDGE_CURVE('',#795,#794,#24,.T.);
#641=EDGE_CURVE('',#794,#761,#990,.F.);
#642=EDGE_CURVE('',#762,#796,#991,.T.);
#643=EDGE_CURVE('',#792,#796,#992,.T.);
#644=EDGE_CURVE('',#797,#793,#993,.T.);
#645=EDGE_CURVE('',#797,#795,#994,.F.);
#646=EDGE_CURVE('',#673,#797,#25,.T.);
#647=EDGE_CURVE('',#796,#671,#26,.F.);
#648=EDGE_CURVE('',#678,#798,#995,.T.);
#649=EDGE_CURVE('',#798,#799,#996,.T.);
#650=EDGE_CURVE('',#799,#683,#997,.T.);
#651=EDGE_CURVE('',#800,#682,#998,.F.);
#652=EDGE_CURVE('',#801,#800,#999,.T.);
#653=EDGE_CURVE('',#768,#801,#1000,.T.);
#654=EDGE_CURVE('',#676,#802,#1001,.T.);
#655=EDGE_CURVE('',#802,#803,#27,.F.);
#656=EDGE_CURVE('',#803,#798,#1002,.T.);
#657=EDGE_CURVE('',#770,#802,#1003,.T.);
#658=EDGE_CURVE('',#801,#804,#1004,.T.);
#659=EDGE_CURVE('',#804,#769,#1005,.F.);
#660=EDGE_CURVE('',#803,#805,#1006,.T.);
#661=EDGE_CURVE('',#805,#799,#1007,.T.);
#662=EDGE_CURVE('',#805,#666,#28,.F.);
#663=EDGE_CURVE('',#668,#804,#29,.T.);
#664=EDGE_CURVE('',#669,#800,#1008,.F.);
#665=EDGE_CURVE('',#711,#765,#1009,.T.);
#666=VERTEX_POINT('',#1934);
#667=VERTEX_POINT('',#1935);
#668=VERTEX_POINT('',#1937);
#669=VERTEX_POINT('',#1939);
#670=VERTEX_POINT('',#1941);
#671=VERTEX_POINT('',#1945);
#672=VERTEX_POINT('',#1946);
#673=VERTEX_POINT('',#1948);
#674=VERTEX_POINT('',#1950);
#675=VERTEX_POINT('',#1952);
#676=VERTEX_POINT('',#1956);
#677=VERTEX_POINT('',#1957);
#678=VERTEX_POINT('',#1959);
#679=VERTEX_POINT('',#1961);
#680=VERTEX_POINT('',#1963);
#681=VERTEX_POINT('',#1965);
#682=VERTEX_POINT('',#1967);
#683=VERTEX_POINT('',#1969);
#684=VERTEX_POINT('',#1972);
#685=VERTEX_POINT('',#1974);
#686=VERTEX_POINT('',#1978);
#687=VERTEX_POINT('',#1980);
#688=VERTEX_POINT('',#1982);
#689=VERTEX_POINT('',#1984);
#690=VERTEX_POINT('',#1986);
#691=VERTEX_POINT('',#1988);
#692=VERTEX_POINT('',#1990);
#693=VERTEX_POINT('',#1992);
#694=VERTEX_POINT('',#1994);
#695=VERTEX_POINT('',#1996);
#696=VERTEX_POINT('',#2000);
#697=VERTEX_POINT('',#2001);
#698=VERTEX_POINT('',#2003);
#699=VERTEX_POINT('',#2005);
#700=VERTEX_POINT('',#2007);
#701=VERTEX_POINT('',#2009);
#702=VERTEX_POINT('',#2011);
#703=VERTEX_POINT('',#2013);
#704=VERTEX_POINT('',#2015);
#705=VERTEX_POINT('',#2017);
#706=VERTEX_POINT('',#2021);
#707=VERTEX_POINT('',#2023);
#708=VERTEX_POINT('',#2025);
#709=VERTEX_POINT('',#2027);
#710=VERTEX_POINT('',#2031);
#711=VERTEX_POINT('',#2032);
#712=VERTEX_POINT('',#2034);
#713=VERTEX_POINT('',#2036);
#714=VERTEX_POINT('',#2038);
#715=VERTEX_POINT('',#2040);
#716=VERTEX_POINT('',#2042);
#717=VERTEX_POINT('',#2044);
#718=VERTEX_POINT('',#2046);
#719=VERTEX_POINT('',#2048);
#720=VERTEX_POINT('',#2050);
#721=VERTEX_POINT('',#2052);
#722=VERTEX_POINT('',#2054);
#723=VERTEX_POINT('',#2056);
#724=VERTEX_POINT('',#2059);
#725=VERTEX_POINT('',#2061);
#726=VERTEX_POINT('',#2063);
#727=VERTEX_POINT('',#2065);
#728=VERTEX_POINT('',#2067);
#729=VERTEX_POINT('',#2069);
#730=VERTEX_POINT('',#2075);
#731=VERTEX_POINT('',#2079);
#732=VERTEX_POINT('',#2083);
#733=VERTEX_POINT('',#2085);
#734=VERTEX_POINT('',#2089);
#735=VERTEX_POINT('',#2090);
#736=VERTEX_POINT('',#2092);
#737=VERTEX_POINT('',#2094);
#738=VERTEX_POINT('',#2098);
#739=VERTEX_POINT('',#2099);
#740=VERTEX_POINT('',#2104);
#741=VERTEX_POINT('',#2105);
#742=VERTEX_POINT('',#2107);
#743=VERTEX_POINT('',#2109);
#744=VERTEX_POINT('',#2113);
#745=VERTEX_POINT('',#2114);
#746=VERTEX_POINT('',#2124);
#747=VERTEX_POINT('',#2125);
#748=VERTEX_POINT('',#2127);
#749=VERTEX_POINT('',#2129);
#750=VERTEX_POINT('',#2131);
#751=VERTEX_POINT('',#2133);
#752=VERTEX_POINT('',#2135);
#753=VERTEX_POINT('',#2137);
#754=VERTEX_POINT('',#2142);
#755=VERTEX_POINT('',#2144);
#756=VERTEX_POINT('',#2146);
#757=VERTEX_POINT('',#2150);
#758=VERTEX_POINT('',#2153);
#759=VERTEX_POINT('',#2155);
#760=VERTEX_POINT('',#2157);
#761=VERTEX_POINT('',#2161);
#762=VERTEX_POINT('',#2163);
#763=VERTEX_POINT('',#2165);
#764=VERTEX_POINT('',#2168);
#765=VERTEX_POINT('',#2170);
#766=VERTEX_POINT('',#2172);
#767=VERTEX_POINT('',#2174);
#768=VERTEX_POINT('',#2177);
#769=VERTEX_POINT('',#2179);
#770=VERTEX_POINT('',#2181);
#771=VERTEX_POINT('',#2184);
#772=VERTEX_POINT('',#2186);
#773=VERTEX_POINT('',#2188);
#774=VERTEX_POINT('',#2190);
#775=VERTEX_POINT('',#2193);
#776=VERTEX_POINT('',#2195);
#777=VERTEX_POINT('',#2197);
#778=VERTEX_POINT('',#2199);
#779=VERTEX_POINT('',#2203);
#780=VERTEX_POINT('',#2205);
#781=VERTEX_POINT('',#2207);
#782=VERTEX_POINT('',#2209);
#783=VERTEX_POINT('',#2212);
#784=VERTEX_POINT('',#2214);
#785=VERTEX_POINT('',#2216);
#786=VERTEX_POINT('',#2218);
#787=VERTEX_POINT('',#2231);
#788=VERTEX_POINT('',#2233);
#789=VERTEX_POINT('',#2237);
#790=VERTEX_POINT('',#2283);
#791=VERTEX_POINT('',#2287);
#792=VERTEX_POINT('',#2289);
#793=VERTEX_POINT('',#2292);
#794=VERTEX_POINT('',#2296);
#795=VERTEX_POINT('',#2298);
#796=VERTEX_POINT('',#2304);
#797=VERTEX_POINT('',#2308);
#798=VERTEX_POINT('',#2316);
#799=VERTEX_POINT('',#2318);
#800=VERTEX_POINT('',#2321);
#801=VERTEX_POINT('',#2323);
#802=VERTEX_POINT('',#2327);
#803=VERTEX_POINT('',#2329);
#804=VERTEX_POINT('',#2335);
#805=VERTEX_POINT('',#2339);
#806=LINE('',#1933,#1010);
#807=LINE('',#1936,#1011);
#808=LINE('',#1938,#1012);
#809=LINE('',#1940,#1013);
#810=LINE('',#1942,#1014);
#811=LINE('',#1944,#1015);
#812=LINE('',#1947,#1016);
#813=LINE('',#1949,#1017);
#814=LINE('',#1951,#1018);
#815=LINE('',#1953,#1019);
#816=LINE('',#1955,#1020);
#817=LINE('',#1958,#1021);
#818=LINE('',#1960,#1022);
#819=LINE('',#1962,#1023);
#820=LINE('',#1964,#1024);
#821=LINE('',#1966,#1025);
#822=LINE('',#1968,#1026);
#823=LINE('',#1970,#1027);
#824=LINE('',#1971,#1028);
#825=LINE('',#1973,#1029);
#826=LINE('',#1975,#1030);
#827=LINE('',#1977,#1031);
#828=LINE('',#1979,#1032);
#829=LINE('',#1981,#1033);
#830=LINE('',#1983,#1034);
#831=LINE('',#1985,#1035);
#832=LINE('',#1987,#1036);
#833=LINE('',#1989,#1037);
#834=LINE('',#1991,#1038);
#835=LINE('',#1993,#1039);
#836=LINE('',#1995,#1040);
#837=LINE('',#1997,#1041);
#838=LINE('',#1999,#1042);
#839=LINE('',#2002,#1043);
#840=LINE('',#2004,#1044);
#841=LINE('',#2006,#1045);
#842=LINE('',#2008,#1046);
#843=LINE('',#2010,#1047);
#844=LINE('',#2012,#1048);
#845=LINE('',#2014,#1049);
#846=LINE('',#2016,#1050);
#847=LINE('',#2018,#1051);
#848=LINE('',#2020,#1052);
#849=LINE('',#2022,#1053);
#850=LINE('',#2024,#1054);
#851=LINE('',#2026,#1055);
#852=LINE('',#2028,#1056);
#853=LINE('',#2030,#1057);
#854=LINE('',#2033,#1058);
#855=LINE('',#2035,#1059);
#856=LINE('',#2037,#1060);
#857=LINE('',#2039,#1061);
#858=LINE('',#2041,#1062);
#859=LINE('',#2043,#1063);
#860=LINE('',#2045,#1064);
#861=LINE('',#2047,#1065);
#862=LINE('',#2049,#1066);
#863=LINE('',#2051,#1067);
#864=LINE('',#2053,#1068);
#865=LINE('',#2055,#1069);
#866=LINE('',#2057,#1070);
#867=LINE('',#2058,#1071);
#868=LINE('',#2060,#1072);
#869=LINE('',#2062,#1073);
#870=LINE('',#2064,#1074);
#871=LINE('',#2066,#1075);
#872=LINE('',#2068,#1076);
#873=LINE('',#2070,#1077);
#874=LINE('',#2072,#1078);
#875=LINE('',#2073,#1079);
#876=LINE('',#2074,#1080);
#877=LINE('',#2076,#1081);
#878=LINE('',#2077,#1082);
#879=LINE('',#2078,#1083);
#880=LINE('',#2080,#1084);
#881=LINE('',#2082,#1085);
#882=LINE('',#2084,#1086);
#883=LINE('',#2086,#1087);
#884=LINE('',#2088,#1088);
#885=LINE('',#2091,#1089);
#886=LINE('',#2093,#1090);
#887=LINE('',#2095,#1091);
#888=LINE('',#2097,#1092);
#889=LINE('',#2100,#1093);
#890=LINE('',#2101,#1094);
#891=LINE('',#2103,#1095);
#892=LINE('',#2106,#1096);
#893=LINE('',#2108,#1097);
#894=LINE('',#2110,#1098);
#895=LINE('',#2112,#1099);
#896=LINE('',#2115,#1100);
#897=LINE('',#2116,#1101);
#898=LINE('',#2117,#1102);
#899=LINE('',#2119,#1103);
#900=LINE('',#2121,#1104);
#901=LINE('',#2123,#1105);
#902=LINE('',#2126,#1106);
#903=LINE('',#2128,#1107);
#904=LINE('',#2130,#1108);
#905=LINE('',#2132,#1109);
#906=LINE('',#2134,#1110);
#907=LINE('',#2136,#1111);
#908=LINE('',#2138,#1112);
#909=LINE('',#2139,#1113);
#910=LINE('',#2141,#1114);
#911=LINE('',#2143,#1115);
#912=LINE('',#2145,#1116);
#913=LINE('',#2147,#1117);
#914=LINE('',#2149,#1118);
#915=LINE('',#2151,#1119);
#916=LINE('',#2152,#1120);
#917=LINE('',#2154,#1121);
#918=LINE('',#2156,#1122);
#919=LINE('',#2158,#1123);
#920=LINE('',#2160,#1124);
#921=LINE('',#2164,#1125);
#922=LINE('',#2166,#1126);
#923=LINE('',#2167,#1127);
#924=LINE('',#2169,#1128);
#925=LINE('',#2171,#1129);
#926=LINE('',#2173,#1130);
#927=LINE('',#2175,#1131);
#928=LINE('',#2176,#1132);
#929=LINE('',#2178,#1133);
#930=LINE('',#2182,#1134);
#931=LINE('',#2183,#1135);
#932=LINE('',#2185,#1136);
#933=LINE('',#2187,#1137);
#934=LINE('',#2189,#1138);
#935=LINE('',#2191,#1139);
#936=LINE('',#2192,#1140);
#937=LINE('',#2194,#1141);
#938=LINE('',#2196,#1142);
#939=LINE('',#2198,#1143);
#940=LINE('',#2200,#1144);
#941=LINE('',#2202,#1145);
#942=LINE('',#2204,#1146);
#943=LINE('',#2206,#1147);
#944=LINE('',#2208,#1148);
#945=LINE('',#2210,#1149);
#946=LINE('',#2211,#1150);
#947=LINE('',#2213,#1151);
#948=LINE('',#2215,#1152);
#949=LINE('',#2217,#1153);
#950=LINE('',#2219,#1154);
#951=LINE('',#2220,#1155);
#952=LINE('',#2221,#1156);
#953=LINE('',#2223,#1157);
#954=LINE('',#2224,#1158);
#955=LINE('',#2225,#1159);
#956=LINE('',#2227,#1160);
#957=LINE('',#2229,#1161);
#958=LINE('',#2230,#1162);
#959=LINE('',#2232,#1163);
#960=LINE('',#2234,#1164);
#961=LINE('',#2236,#1165);
#962=LINE('',#2238,#1166);
#963=LINE('',#2240,#1167);
#964=LINE('',#2241,#1168);
#965=LINE('',#2243,#1169);
#966=LINE('',#2245,#1170);
#967=LINE('',#2248,#1171);
#968=LINE('',#2249,#1172);
#969=LINE('',#2253,#1173);
#970=LINE('',#2255,#1174);
#971=LINE('',#2256,#1175);
#972=LINE('',#2259,#1176);
#973=LINE('',#2263,#1177);
#974=LINE('',#2264,#1178);
#975=LINE('',#2266,#1179);
#976=LINE('',#2268,#1180);
#977=LINE('',#2269,#1181);
#978=LINE('',#2271,#1182);
#979=LINE('',#2277,#1183);
#980=LINE('',#2279,#1184);
#981=LINE('',#2282,#1185);
#982=LINE('',#2284,#1186);
#983=LINE('',#2286,#1187);
#984=LINE('',#2288,#1188);
#985=LINE('',#2290,#1189);
#986=LINE('',#2291,#1190);
#987=LINE('',#2293,#1191);
#988=LINE('',#2295,#1192);
#989=LINE('',#2297,#1193);
#990=LINE('',#2301,#1194);
#991=LINE('',#2303,#1195);
#992=LINE('',#2305,#1196);
#993=LINE('',#2307,#1197);
#994=LINE('',#2309,#1198);
#995=LINE('',#2315,#1199);
#996=LINE('',#2317,#1200);
#997=LINE('',#2319,#1201);
#998=LINE('',#2320,#1202);
#999=LINE('',#2322,#1203);
#1000=LINE('',#2324,#1204);
#1001=LINE('',#2326,#1205);
#1002=LINE('',#2330,#1206);
#1003=LINE('',#2332,#1207);
#1004=LINE('',#2334,#1208);
#1005=LINE('',#2336,#1209);
#1006=LINE('',#2338,#1210);
#1007=LINE('',#2340,#1211);
#1008=LINE('',#2345,#1212);
#1009=LINE('',#2348,#1213);
#1010=VECTOR('',#1577,1000.);
#1011=VECTOR('',#1578,1000.);
#1012=VECTOR('',#1579,1000.);
#1013=VECTOR('',#1580,1000.);
#1014=VECTOR('',#1581,1000.);
#1015=VECTOR('',#1584,1000.);
#1016=VECTOR('',#1585,1000.);
#1017=VECTOR('',#1586,1000.);
#1018=VECTOR('',#1587,1000.);
#1019=VECTOR('',#1588,1000.);
#1020=VECTOR('',#1591,1000.);
#1021=VECTOR('',#1592,1000.);
#1022=VECTOR('',#1593,1000.);
#1023=VECTOR('',#1594,1000.);
#1024=VECTOR('',#1595,1000.);
#1025=VECTOR('',#1596,1000.);
#1026=VECTOR('',#1597,1000.);
#1027=VECTOR('',#1598,1000.);
#1028=VECTOR('',#1599,1000.);
#1029=VECTOR('',#1600,1000.);
#1030=VECTOR('',#1601,1000.);
#1031=VECTOR('',#1604,1000.);
#1032=VECTOR('',#1605,1000.);
#1033=VECTOR('',#1606,1000.);
#1034=VECTOR('',#1607,1000.);
#1035=VECTOR('',#1608,1000.);
#1036=VECTOR('',#1609,1000.);
#1037=VECTOR('',#1610,1000.);
#1038=VECTOR('',#1611,1000.);
#1039=VECTOR('',#1612,1000.);
#1040=VECTOR('',#1613,1000.);
#1041=VECTOR('',#1614,1000.);
#1042=VECTOR('',#1617,1000.);
#1043=VECTOR('',#1618,1000.);
#1044=VECTOR('',#1619,1000.);
#1045=VECTOR('',#1620,1000.);
#1046=VECTOR('',#1621,1000.);
#1047=VECTOR('',#1622,1000.);
#1048=VECTOR('',#1623,1000.);
#1049=VECTOR('',#1624,1000.);
#1050=VECTOR('',#1625,1000.);
#1051=VECTOR('',#1626,1000.);
#1052=VECTOR('',#1629,1000.);
#1053=VECTOR('',#1630,1000.);
#1054=VECTOR('',#1631,1000.);
#1055=VECTOR('',#1632,1000.);
#1056=VECTOR('',#1633,1000.);
#1057=VECTOR('',#1636,1000.);
#1058=VECTOR('',#1637,1000.);
#1059=VECTOR('',#1638,1000.);
#1060=VECTOR('',#1639,1000.);
#1061=VECTOR('',#1640,1000.);
#1062=VECTOR('',#1641,1000.);
#1063=VECTOR('',#1642,1000.);
#1064=VECTOR('',#1643,1000.);
#1065=VECTOR('',#1644,1000.);
#1066=VECTOR('',#1645,1000.);
#1067=VECTOR('',#1646,1000.);
#1068=VECTOR('',#1647,1000.);
#1069=VECTOR('',#1648,1000.);
#1070=VECTOR('',#1649,1000.);
#1071=VECTOR('',#1650,1000.);
#1072=VECTOR('',#1651,1000.);
#1073=VECTOR('',#1652,1000.);
#1074=VECTOR('',#1653,1000.);
#1075=VECTOR('',#1654,1000.);
#1076=VECTOR('',#1655,1000.);
#1077=VECTOR('',#1656,1000.);
#1078=VECTOR('',#1659,1000.);
#1079=VECTOR('',#1660,1000.);
#1080=VECTOR('',#1661,1000.);
#1081=VECTOR('',#1662,1000.);
#1082=VECTOR('',#1663,1000.);
#1083=VECTOR('',#1664,1000.);
#1084=VECTOR('',#1665,1000.);
#1085=VECTOR('',#1668,1000.);
#1086=VECTOR('',#1669,1000.);
#1087=VECTOR('',#1670,1000.);
#1088=VECTOR('',#1673,1000.);
#1089=VECTOR('',#1674,1000.);
#1090=VECTOR('',#1675,1000.);
#1091=VECTOR('',#1676,1000.);
#1092=VECTOR('',#1679,1000.);
#1093=VECTOR('',#1680,1000.);
#1094=VECTOR('',#1681,1000.);
#1095=VECTOR('',#1684,1000.);
#1096=VECTOR('',#1685,1000.);
#1097=VECTOR('',#1686,1000.);
#1098=VECTOR('',#1687,1000.);
#1099=VECTOR('',#1690,1000.);
#1100=VECTOR('',#1691,1000.);
#1101=VECTOR('',#1692,1000.);
#1102=VECTOR('',#1693,1000.);
#1103=VECTOR('',#1696,1000.);
#1104=VECTOR('',#1699,1000.);
#1105=VECTOR('',#1702,1000.);
#1106=VECTOR('',#1703,1000.);
#1107=VECTOR('',#1704,1000.);
#1108=VECTOR('',#1705,1000.);
#1109=VECTOR('',#1706,1000.);
#1110=VECTOR('',#1707,1000.);
#1111=VECTOR('',#1708,1000.);
#1112=VECTOR('',#1709,1000.);
#1113=VECTOR('',#1710,1000.);
#1114=VECTOR('',#1713,1000.);
#1115=VECTOR('',#1714,1000.);
#1116=VECTOR('',#1715,1000.);
#1117=VECTOR('',#1716,1000.);
#1118=VECTOR('',#1719,1000.);
#1119=VECTOR('',#1720,1000.);
#1120=VECTOR('',#1721,1000.);
#1121=VECTOR('',#1722,1000.);
#1122=VECTOR('',#1723,1000.);
#1123=VECTOR('',#1724,1000.);
#1124=VECTOR('',#1727,1000.);
#1125=VECTOR('',#1730,1000.);
#1126=VECTOR('',#1731,1000.);
#1127=VECTOR('',#1732,1000.);
#1128=VECTOR('',#1733,1000.);
#1129=VECTOR('',#1734,1000.);
#1130=VECTOR('',#1735,1000.);
#1131=VECTOR('',#1736,1000.);
#1132=VECTOR('',#1737,1000.);
#1133=VECTOR('',#1738,1000.);
#1134=VECTOR('',#1741,1000.);
#1135=VECTOR('',#1742,1000.);
#1136=VECTOR('',#1743,1000.);
#1137=VECTOR('',#1744,1000.);
#1138=VECTOR('',#1745,1000.);
#1139=VECTOR('',#1746,1000.);
#1140=VECTOR('',#1747,1000.);
#1141=VECTOR('',#1748,1000.);
#1142=VECTOR('',#1749,1000.);
#1143=VECTOR('',#1750,1000.);
#1144=VECTOR('',#1751,1000.);
#1145=VECTOR('',#1754,1000.);
#1146=VECTOR('',#1755,1000.);
#1147=VECTOR('',#1756,1000.);
#1148=VECTOR('',#1757,1000.);
#1149=VECTOR('',#1758,1000.);
#1150=VECTOR('',#1759,1000.);
#1151=VECTOR('',#1760,1000.);
#1152=VECTOR('',#1761,1000.);
#1153=VECTOR('',#1762,1000.);
#1154=VECTOR('',#1763,1000.);
#1155=VECTOR('',#1764,1000.);
#1156=VECTOR('',#1765,1000.);
#1157=VECTOR('',#1768,1000.);
#1158=VECTOR('',#1769,1000.);
#1159=VECTOR('',#1770,1000.);
#1160=VECTOR('',#1773,1000.);
#1161=VECTOR('',#1776,1000.);
#1162=VECTOR('',#1777,1000.);
#1163=VECTOR('',#1778,1000.);
#1164=VECTOR('',#1779,1000.);
#1165=VECTOR('',#1782,1000.);
#1166=VECTOR('',#1783,1000.);
#1167=VECTOR('',#1786,1000.);
#1168=VECTOR('',#1787,1000.);
#1169=VECTOR('',#1790,1000.);
#1170=VECTOR('',#1793,1000.);
#1171=VECTOR('',#1798,1000.);
#1172=VECTOR('',#1799,1000.);
#1173=VECTOR('',#1806,1000.);
#1174=VECTOR('',#1809,1000.);
#1175=VECTOR('',#1810,1000.);
#1176=VECTOR('',#1815,1000.);
#1177=VECTOR('',#1822,1000.);
#1178=VECTOR('',#1823,1000.);
#1179=VECTOR('',#1826,1000.);
#1180=VECTOR('',#1829,1000.);
#1181=VECTOR('',#1830,1000.);
#1182=VECTOR('',#1833,1000.);
#1183=VECTOR('',#1844,1000.);
#1184=VECTOR('',#1847,1000.);
#1185=VECTOR('',#1852,1000.);
#1186=VECTOR('',#1853,1000.);
#1187=VECTOR('',#1856,1000.);
#1188=VECTOR('',#1857,1000.);
#1189=VECTOR('',#1858,1000.);
#1190=VECTOR('',#1859,1000.);
#1191=VECTOR('',#1860,1000.);
#1192=VECTOR('',#1863,1000.);
#1193=VECTOR('',#1864,1000.);
#1194=VECTOR('',#1869,1000.);
#1195=VECTOR('',#1872,1000.);
#1196=VECTOR('',#1873,1000.);
#1197=VECTOR('',#1876,1000.);
#1198=VECTOR('',#1877,1000.);
#1199=VECTOR('',#1888,1000.);
#1200=VECTOR('',#1889,1000.);
#1201=VECTOR('',#1890,1000.);
#1202=VECTOR('',#1891,1000.);
#1203=VECTOR('',#1892,1000.);
#1204=VECTOR('',#1893,1000.);
#1205=VECTOR('',#1896,1000.);
#1206=VECTOR('',#1899,1000.);
#1207=VECTOR('',#1902,1000.);
#1208=VECTOR('',#1905,1000.);
#1209=VECTOR('',#1906,1000.);
#1210=VECTOR('',#1909,1000.);
#1211=VECTOR('',#1910,1000.);
#1212=VECTOR('',#1919,1000.);
#1213=VECTOR('',#1924,1000.);
#1214=EDGE_LOOP('',(#30,#31,#32,#33,#34));
#1215=EDGE_LOOP('',(#35,#36,#37,#38,#39));
#1216=EDGE_LOOP('',(#40,#41,#42,#43,#44,#45,#46,#47,#48,#49,#50,#51));
#1217=EDGE_LOOP('',(#52,#53,#54,#55,#56,#57,#58,#59,#60,#61,#62,#63));
#1218=EDGE_LOOP('',(#64,#65,#66,#67,#68,#69,#70,#71,#72,#73));
#1219=EDGE_LOOP('',(#74,#75,#76,#77,#78,#79));
#1220=EDGE_LOOP('',(#80,#81,#82,#83,#84,#85,#86,#87,#88,#89,#90,#91,#92,
#93,#94,#95,#96,#97,#98,#99,#100,#101));
#1221=EDGE_LOOP('',(#102,#103,#104,#105,#106,#107,#108,#109,#110,#111,#112,
#113));
#1222=EDGE_LOOP('',(#114,#115,#116,#117));
#1223=EDGE_LOOP('',(#118,#119,#120,#121));
#1224=EDGE_LOOP('',(#122,#123,#124,#125));
#1225=EDGE_LOOP('',(#126,#127,#128,#129));
#1226=EDGE_LOOP('',(#130,#131,#132,#133,#134,#135));
#1227=EDGE_LOOP('',(#136,#137,#138,#139));
#1228=EDGE_LOOP('',(#140,#141,#142,#143));
#1229=EDGE_LOOP('',(#144,#145,#146,#147,#148,#149,#150,#151,#152,#153));
#1230=EDGE_LOOP('',(#154,#155,#156,#157,#158,#159));
#1231=EDGE_LOOP('',(#160,#161,#162,#163,#164,#165,#166,#167));
#1232=EDGE_LOOP('',(#168,#169,#170,#171,#172,#173,#174,#175,#176,#177,#178,
#179,#180,#181,#182,#183,#184,#185,#186,#187,#188,#189,#190,#191,#192,#193,
#194,#195,#196,#197,#198,#199));
#1233=EDGE_LOOP('',(#200,#201,#202,#203,#204,#205,#206,#207,#208,#209,#210,
#211,#212,#213,#214,#215,#216,#217,#218,#219));
#1234=EDGE_LOOP('',(#220,#221,#222,#223,#224,#225,#226,#227));
#1235=EDGE_LOOP('',(#228,#229,#230,#231));
#1236=EDGE_LOOP('',(#232,#233,#234,#235,#236,#237,#238,#239,#240,#241));
#1237=EDGE_LOOP('',(#242,#243,#244,#245,#246,#247));
#1238=EDGE_LOOP('',(#248,#249,#250,#251));
#1239=EDGE_LOOP('',(#252,#253,#254,#255,#256,#257,#258,#259));
#1240=EDGE_LOOP('',(#260,#261,#262,#263));
#1241=EDGE_LOOP('',(#264,#265,#266,#267));
#1242=EDGE_LOOP('',(#268,#269,#270,#271,#272,#273));
#1243=EDGE_LOOP('',(#274,#275,#276,#277));
#1244=EDGE_LOOP('',(#278,#279,#280,#281));
#1245=EDGE_LOOP('',(#282,#283,#284,#285));
#1246=EDGE_LOOP('',(#286,#287,#288,#289));
#1247=EDGE_LOOP('',(#290,#291,#292,#293));
#1248=EDGE_LOOP('',(#294,#295,#296,#297));
#1249=EDGE_LOOP('',(#298,#299,#300,#301));
#1250=EDGE_LOOP('',(#302,#303,#304,#305));
#1251=EDGE_LOOP('',(#306,#307,#308,#309));
#1252=EDGE_LOOP('',(#310,#311,#312,#313));
#1253=EDGE_LOOP('',(#314,#315,#316,#317));
#1254=EDGE_LOOP('',(#318,#319,#320,#321));
#1255=EDGE_LOOP('',(#322,#323,#324,#325));
#1256=EDGE_LOOP('',(#326,#327,#328,#329));
#1257=EDGE_LOOP('',(#330,#331,#332,#333));
#1258=EDGE_LOOP('',(#334,#335,#336,#337));
#1259=EDGE_LOOP('',(#338,#339,#340,#341));
#1260=EDGE_LOOP('',(#342,#343,#344,#345));
#1261=EDGE_LOOP('',(#346,#347,#348,#349));
#1262=EDGE_LOOP('',(#350,#351,#352,#353));
#1263=EDGE_LOOP('',(#354,#355,#356,#357,#358,#359,#360,#361,#362));
#1264=EDGE_LOOP('',(#363,#364,#365,#366,#367));
#1265=EDGE_LOOP('',(#368,#369,#370,#371));
#1266=EDGE_LOOP('',(#372,#373,#374,#375));
#1267=EDGE_LOOP('',(#376,#377,#378,#379));
#1268=EDGE_LOOP('',(#380,#381,#382,#383,#384));
#1269=EDGE_LOOP('',(#385,#386,#387,#388,#389));
#1270=EDGE_LOOP('',(#390,#391,#392,#393,#394,#395,#396,#397,#398));
#1271=EDGE_LOOP('',(#399,#400,#401,#402,#403));
#1272=EDGE_LOOP('',(#404,#405,#406,#407));
#1273=EDGE_LOOP('',(#408,#409,#410,#411));
#1274=EDGE_LOOP('',(#412,#413,#414,#415));
#1275=EDGE_LOOP('',(#416,#417,#418,#419,#420));
#1276=EDGE_LOOP('',(#421,#422,#423,#424,#425));
#1277=EDGE_LOOP('',(#426,#427,#428,#429));
#1278=EDGE_LOOP('',(#430,#431,#432,#433));
#1279=EDGE_LOOP('',(#434,#435,#436,#437));
#1280=EDGE_LOOP('',(#438,#439,#440,#441,#442,#443,#444,#445));
#1281=EDGE_LOOP('',(#446,#447,#448,#449,#450,#451,#452,#453));
#1282=FACE_BOUND('',#1214,.T.);
#1283=FACE_BOUND('',#1215,.T.);
#1284=FACE_BOUND('',#1216,.T.);
#1285=FACE_BOUND('',#1217,.T.);
#1286=FACE_BOUND('',#1218,.T.);
#1287=FACE_BOUND('',#1219,.T.);
#1288=FACE_BOUND('',#1220,.T.);
#1289=FACE_BOUND('',#1221,.T.);
#1290=FACE_BOUND('',#1222,.T.);
#1291=FACE_BOUND('',#1223,.T.);
#1292=FACE_BOUND('',#1224,.T.);
#1293=FACE_BOUND('',#1225,.T.);
#1294=FACE_BOUND('',#1226,.T.);
#1295=FACE_BOUND('',#1227,.T.);
#1296=FACE_BOUND('',#1228,.T.);
#1297=FACE_BOUND('',#1229,.T.);
#1298=FACE_BOUND('',#1230,.T.);
#1299=FACE_BOUND('',#1231,.T.);
#1300=FACE_BOUND('',#1232,.T.);
#1301=FACE_BOUND('',#1233,.T.);
#1302=FACE_BOUND('',#1234,.T.);
#1303=FACE_BOUND('',#1235,.T.);
#1304=FACE_BOUND('',#1236,.T.);
#1305=FACE_BOUND('',#1237,.T.);
#1306=FACE_BOUND('',#1238,.T.);
#1307=FACE_BOUND('',#1239,.T.);
#1308=FACE_BOUND('',#1240,.T.);
#1309=FACE_BOUND('',#1241,.T.);
#1310=FACE_BOUND('',#1242,.T.);
#1311=FACE_BOUND('',#1243,.T.);
#1312=FACE_BOUND('',#1244,.T.);
#1313=FACE_BOUND('',#1245,.T.);
#1314=FACE_BOUND('',#1246,.T.);
#1315=FACE_BOUND('',#1247,.T.);
#1316=FACE_BOUND('',#1248,.T.);
#1317=FACE_BOUND('',#1249,.T.);
#1318=FACE_BOUND('',#1250,.T.);
#1319=FACE_BOUND('',#1251,.T.);
#1320=FACE_BOUND('',#1252,.T.);
#1321=FACE_BOUND('',#1253,.T.);
#1322=FACE_BOUND('',#1254,.T.);
#1323=FACE_BOUND('',#1255,.T.);
#1324=FACE_BOUND('',#1256,.T.);
#1325=FACE_BOUND('',#1257,.T.);
#1326=FACE_BOUND('',#1258,.T.);
#1327=FACE_BOUND('',#1259,.T.);
#1328=FACE_BOUND('',#1260,.T.);
#1329=FACE_BOUND('',#1261,.T.);
#1330=FACE_BOUND('',#1262,.T.);
#1331=FACE_BOUND('',#1263,.T.);
#1332=FACE_BOUND('',#1264,.T.);
#1333=FACE_BOUND('',#1265,.T.);
#1334=FACE_BOUND('',#1266,.T.);
#1335=FACE_BOUND('',#1267,.T.);
#1336=FACE_BOUND('',#1268,.T.);
#1337=FACE_BOUND('',#1269,.T.);
#1338=FACE_BOUND('',#1270,.T.);
#1339=FACE_BOUND('',#1271,.T.);
#1340=FACE_BOUND('',#1272,.T.);
#1341=FACE_BOUND('',#1273,.T.);
#1342=FACE_BOUND('',#1274,.T.);
#1343=FACE_BOUND('',#1275,.T.);
#1344=FACE_BOUND('',#1276,.T.);
#1345=FACE_BOUND('',#1277,.T.);
#1346=FACE_BOUND('',#1278,.T.);
#1347=FACE_BOUND('',#1279,.T.);
#1348=FACE_BOUND('',#1280,.T.);
#1349=FACE_BOUND('',#1281,.T.);
#1350=PLANE('',#1497);
#1351=PLANE('',#1498);
#1352=PLANE('',#1499);
#1353=PLANE('',#1500);
#1354=PLANE('',#1501);
#1355=PLANE('',#1502);
#1356=PLANE('',#1503);
#1357=PLANE('',#1504);
#1358=PLANE('',#1505);
#1359=PLANE('',#1506);
#1360=PLANE('',#1507);
#1361=PLANE('',#1508);
#1362=PLANE('',#1509);
#1363=PLANE('',#1510);
#1364=PLANE('',#1511);
#1365=PLANE('',#1512);
#1366=PLANE('',#1513);
#1367=PLANE('',#1514);
#1368=PLANE('',#1515);
#1369=PLANE('',#1518);
#1370=PLANE('',#1519);
#1371=PLANE('',#1520);
#1372=PLANE('',#1521);
#1373=PLANE('',#1522);
#1374=PLANE('',#1523);
#1375=PLANE('',#1524);
#1376=PLANE('',#1525);
#1377=PLANE('',#1526);
#1378=PLANE('',#1527);
#1379=PLANE('',#1528);
#1380=PLANE('',#1529);
#1381=PLANE('',#1530);
#1382=PLANE('',#1531);
#1383=PLANE('',#1532);
#1384=PLANE('',#1533);
#1385=PLANE('',#1534);
#1386=PLANE('',#1535);
#1387=PLANE('',#1536);
#1388=PLANE('',#1537);
#1389=PLANE('',#1538);
#1390=PLANE('',#1539);
#1391=PLANE('',#1540);
#1392=PLANE('',#1541);
#1393=PLANE('',#1542);
#1394=PLANE('',#1543);
#1395=PLANE('',#1544);
#1396=PLANE('',#1545);
#1397=PLANE('',#1546);
#1398=PLANE('',#1547);
#1399=PLANE('',#1548);
#1400=PLANE('',#1549);
#1401=PLANE('',#1551);
#1402=PLANE('',#1552);
#1403=PLANE('',#1553);
#1404=PLANE('',#1554);
#1405=PLANE('',#1556);
#1406=PLANE('',#1558);
#1407=PLANE('',#1559);
#1408=PLANE('',#1561);
#1409=PLANE('',#1562);
#1410=PLANE('',#1563);
#1411=PLANE('',#1564);
#1412=PLANE('',#1566);
#1413=PLANE('',#1568);
#1414=PLANE('',#1569);
#1415=PLANE('',#1570);
#1416=ADVANCED_FACE('',(#1282),#1350,.T.);
#1417=ADVANCED_FACE('',(#1283),#1351,.F.);
#1418=ADVANCED_FACE('',(#1284),#1352,.F.);
#1419=ADVANCED_FACE('',(#1285),#1353,.F.);
#1420=ADVANCED_FACE('',(#1286),#1354,.F.);
#1421=ADVANCED_FACE('',(#1287),#1355,.F.);
#1422=ADVANCED_FACE('',(#1288),#1356,.F.);
#1423=ADVANCED_FACE('',(#1289),#1357,.T.);
#1424=ADVANCED_FACE('',(#1290),#1358,.F.);
#1425=ADVANCED_FACE('',(#1291),#1359,.F.);
#1426=ADVANCED_FACE('',(#1292),#1360,.F.);
#1427=ADVANCED_FACE('',(#1293),#1361,.F.);
#1428=ADVANCED_FACE('',(#1294),#1362,.F.);
#1429=ADVANCED_FACE('',(#1295),#1363,.T.);
#1430=ADVANCED_FACE('',(#1296),#1364,.F.);
#1431=ADVANCED_FACE('',(#1297),#1365,.T.);
#1432=ADVANCED_FACE('',(#1298),#1366,.F.);
#1433=ADVANCED_FACE('',(#1299),#1367,.F.);
#1434=ADVANCED_FACE('',(#1300),#1368,.F.);
#1435=ADVANCED_FACE('',(#1301),#1369,.F.);
#1436=ADVANCED_FACE('',(#1302),#1370,.T.);
#1437=ADVANCED_FACE('',(#1303),#1371,.T.);
#1438=ADVANCED_FACE('',(#1304),#1372,.T.);
#1439=ADVANCED_FACE('',(#1305),#1373,.T.);
#1440=ADVANCED_FACE('',(#1306),#1374,.F.);
#1441=ADVANCED_FACE('',(#1307),#1375,.T.);
#1442=ADVANCED_FACE('',(#1308),#1376,.F.);
#1443=ADVANCED_FACE('',(#1309),#1377,.T.);
#1444=ADVANCED_FACE('',(#1310),#1378,.F.);
#1445=ADVANCED_FACE('',(#1311),#1379,.T.);
#1446=ADVANCED_FACE('',(#1312),#1380,.T.);
#1447=ADVANCED_FACE('',(#1313),#1381,.T.);
#1448=ADVANCED_FACE('',(#1314),#1382,.T.);
#1449=ADVANCED_FACE('',(#1315),#1383,.T.);
#1450=ADVANCED_FACE('',(#1316),#1384,.T.);
#1451=ADVANCED_FACE('',(#1317),#1385,.T.);
#1452=ADVANCED_FACE('',(#1318),#1386,.F.);
#1453=ADVANCED_FACE('',(#1319),#1387,.T.);
#1454=ADVANCED_FACE('',(#1320),#1388,.F.);
#1455=ADVANCED_FACE('',(#1321),#1389,.F.);
#1456=ADVANCED_FACE('',(#1322),#1390,.T.);
#1457=ADVANCED_FACE('',(#1323),#1391,.T.);
#1458=ADVANCED_FACE('',(#1324),#1392,.F.);
#1459=ADVANCED_FACE('',(#1325),#1393,.T.);
#1460=ADVANCED_FACE('',(#1326),#1394,.T.);
#1461=ADVANCED_FACE('',(#1327),#1395,.F.);
#1462=ADVANCED_FACE('',(#1328),#1396,.F.);
#1463=ADVANCED_FACE('',(#1329),#1397,.F.);
#1464=ADVANCED_FACE('',(#1330),#1398,.T.);
#1465=ADVANCED_FACE('',(#1331),#1399,.F.);
#1466=ADVANCED_FACE('',(#1332),#1400,.F.);
#1467=ADVANCED_FACE('',(#1333),#1401,.F.);
#1468=ADVANCED_FACE('',(#1334),#1402,.F.);
#1469=ADVANCED_FACE('',(#1335),#1403,.F.);
#1470=ADVANCED_FACE('',(#1336),#1404,.F.);
#1471=ADVANCED_FACE('',(#1337),#1405,.F.);
#1472=ADVANCED_FACE('',(#1338),#1406,.T.);
#1473=ADVANCED_FACE('',(#1339),#1407,.T.);
#1474=ADVANCED_FACE('',(#1340),#1408,.T.);
#1475=ADVANCED_FACE('',(#1341),#1409,.T.);
#1476=ADVANCED_FACE('',(#1342),#1410,.T.);
#1477=ADVANCED_FACE('',(#1343),#1411,.T.);
#1478=ADVANCED_FACE('',(#1344),#1412,.T.);
#1479=ADVANCED_FACE('',(#1345),#1413,.F.);
#1480=ADVANCED_FACE('',(#1346),#1414,.F.);
#1481=ADVANCED_FACE('',(#1347),#1415,.T.);
#1482=ADVANCED_FACE('',(#1348),#20,.T.);
#1483=ADVANCED_FACE('',(#1349),#21,.T.);
#1484=CLOSED_SHELL('',(#1416,#1417,#1418,#1419,#1420,#1421,#1422,#1423,
#1424,#1425,#1426,#1427,#1428,#1429,#1430,#1431,#1432,#1433,#1434,#1435,
#1436,#1437,#1438,#1439,#1440,#1441,#1442,#1443,#1444,#1445,#1446,#1447,
#1448,#1449,#1450,#1451,#1452,#1453,#1454,#1455,#1456,#1457,#1458,#1459,
#1460,#1461,#1462,#1463,#1464,#1465,#1466,#1467,#1468,#1469,#1470,#1471,
#1472,#1473,#1474,#1475,#1476,#1477,#1478,#1479,#1480,#1481,#1482,#1483));
#1485=STYLED_ITEM('',(#1486),#1493);
#1486=PRESENTATION_STYLE_ASSIGNMENT((#1487));
#1487=SURFACE_STYLE_USAGE(.BOTH.,#1488);
#1488=SURFACE_SIDE_STYLE('',(#1489));
#1489=SURFACE_STYLE_FILL_AREA(#1490);
#1490=FILL_AREA_STYLE('',(#1491));
#1491=FILL_AREA_STYLE_COLOUR('',#1492);
#1492=COLOUR_RGB('',0.506983280181885,0.531564235687256,0.550000011920929);
#1493=MANIFOLD_SOLID_BREP('',#1484);
#1494=SHAPE_DEFINITION_REPRESENTATION(#2358,#1495);
#1495=SHAPE_REPRESENTATION('PrintNormal',(#1496),#2353);
#1496=AXIS2_PLACEMENT_3D('',#1931,#1573,#1574);
#1497=AXIS2_PLACEMENT_3D('',#1932,#1575,#1576);
#1498=AXIS2_PLACEMENT_3D('',#1943,#1582,#1583);
#1499=AXIS2_PLACEMENT_3D('',#1954,#1589,#1590);
#1500=AXIS2_PLACEMENT_3D('',#1976,#1602,#1603);
#1501=AXIS2_PLACEMENT_3D('',#1998,#1615,#1616);
#1502=AXIS2_PLACEMENT_3D('',#2019,#1627,#1628);
#1503=AXIS2_PLACEMENT_3D('',#2029,#1634,#1635);
#1504=AXIS2_PLACEMENT_3D('',#2071,#1657,#1658);
#1505=AXIS2_PLACEMENT_3D('',#2081,#1666,#1667);
#1506=AXIS2_PLACEMENT_3D('',#2087,#1671,#1672);
#1507=AXIS2_PLACEMENT_3D('',#2096,#1677,#1678);
#1508=AXIS2_PLACEMENT_3D('',#2102,#1682,#1683);
#1509=AXIS2_PLACEMENT_3D('',#2111,#1688,#1689);
#1510=AXIS2_PLACEMENT_3D('',#2118,#1694,#1695);
#1511=AXIS2_PLACEMENT_3D('',#2120,#1697,#1698);
#1512=AXIS2_PLACEMENT_3D('',#2122,#1700,#1701);
#1513=AXIS2_PLACEMENT_3D('',#2140,#1711,#1712);
#1514=AXIS2_PLACEMENT_3D('',#2148,#1717,#1718);
#1515=AXIS2_PLACEMENT_3D('',#2159,#1725,#1726);
#1516=AXIS2_PLACEMENT_3D('',#2162,#1728,#1729);
#1517=AXIS2_PLACEMENT_3D('',#2180,#1739,#1740);
#1518=AXIS2_PLACEMENT_3D('',#2201,#1752,#1753);
#1519=AXIS2_PLACEMENT_3D('',#2222,#1766,#1767);
#1520=AXIS2_PLACEMENT_3D('',#2226,#1771,#1772);
#1521=AXIS2_PLACEMENT_3D('',#2228,#1774,#1775);
#1522=AXIS2_PLACEMENT_3D('',#2235,#1780,#1781);
#1523=AXIS2_PLACEMENT_3D('',#2239,#1784,#1785);
#1524=AXIS2_PLACEMENT_3D('',#2242,#1788,#1789);
#1525=AXIS2_PLACEMENT_3D('',#2244,#1791,#1792);
#1526=AXIS2_PLACEMENT_3D('',#2246,#1794,#1795);
#1527=AXIS2_PLACEMENT_3D('',#2247,#1796,#1797);
#1528=AXIS2_PLACEMENT_3D('',#2250,#1800,#1801);
#1529=AXIS2_PLACEMENT_3D('',#2251,#1802,#1803);
#1530=AXIS2_PLACEMENT_3D('',#2252,#1804,#1805);
#1531=AXIS2_PLACEMENT_3D('',#2254,#1807,#1808);
#1532=AXIS2_PLACEMENT_3D('',#2257,#1811,#1812);
#1533=AXIS2_PLACEMENT_3D('',#2258,#1813,#1814);
#1534=AXIS2_PLACEMENT_3D('',#2260,#1816,#1817);
#1535=AXIS2_PLACEMENT_3D('',#2261,#1818,#1819);
#1536=AXIS2_PLACEMENT_3D('',#2262,#1820,#1821);
#1537=AXIS2_PLACEMENT_3D('',#2265,#1824,#1825);
#1538=AXIS2_PLACEMENT_3D('',#2267,#1827,#1828);
#1539=AXIS2_PLACEMENT_3D('',#2270,#1831,#1832);
#1540=AXIS2_PLACEMENT_3D('',#2272,#1834,#1835);
#1541=AXIS2_PLACEMENT_3D('',#2273,#1836,#1837);
#1542=AXIS2_PLACEMENT_3D('',#2274,#1838,#1839);
#1543=AXIS2_PLACEMENT_3D('',#2275,#1840,#1841);
#1544=AXIS2_PLACEMENT_3D('',#2276,#1842,#1843);
#1545=AXIS2_PLACEMENT_3D('',#2278,#1845,#1846);
#1546=AXIS2_PLACEMENT_3D('',#2280,#1848,#1849);
#1547=AXIS2_PLACEMENT_3D('',#2281,#1850,#1851);
#1548=AXIS2_PLACEMENT_3D('',#2285,#1854,#1855);
#1549=AXIS2_PLACEMENT_3D('',#2294,#1861,#1862);
#1550=AXIS2_PLACEMENT_3D('',#2299,#1865,#1866);
#1551=AXIS2_PLACEMENT_3D('',#2300,#1867,#1868);
#1552=AXIS2_PLACEMENT_3D('',#2302,#1870,#1871);
#1553=AXIS2_PLACEMENT_3D('',#2306,#1874,#1875);
#1554=AXIS2_PLACEMENT_3D('',#2310,#1878,#1879);
#1555=AXIS2_PLACEMENT_3D('',#2311,#1880,#1881);
#1556=AXIS2_PLACEMENT_3D('',#2312,#1882,#1883);
#1557=AXIS2_PLACEMENT_3D('',#2313,#1884,#1885);
#1558=AXIS2_PLACEMENT_3D('',#2314,#1886,#1887);
#1559=AXIS2_PLACEMENT_3D('',#2325,#1894,#1895);
#1560=AXIS2_PLACEMENT_3D('',#2328,#1897,#1898);
#1561=AXIS2_PLACEMENT_3D('',#2331,#1900,#1901);
#1562=AXIS2_PLACEMENT_3D('',#2333,#1903,#1904);
#1563=AXIS2_PLACEMENT_3D('',#2337,#1907,#1908);
#1564=AXIS2_PLACEMENT_3D('',#2341,#1911,#1912);
#1565=AXIS2_PLACEMENT_3D('',#2342,#1913,#1914);
#1566=AXIS2_PLACEMENT_3D('',#2343,#1915,#1916);
#1567=AXIS2_PLACEMENT_3D('',#2344,#1917,#1918);
#1568=AXIS2_PLACEMENT_3D('',#2346,#1920,#1921);
#1569=AXIS2_PLACEMENT_3D('',#2347,#1922,#1923);
#1570=AXIS2_PLACEMENT_3D('',#2349,#1925,#1926);
#1571=AXIS2_PLACEMENT_3D('',#2350,#1927,#1928);
#1572=AXIS2_PLACEMENT_3D('',#2351,#1929,#1930);
#1573=DIRECTION('',(0.,0.,1.));
#1574=DIRECTION('',(1.,0.,0.));
#1575=DIRECTION('',(0.,0.,-1.));
#1576=DIRECTION('',(-1.,0.,0.));
#1577=DIRECTION('',(1.,0.,0.));
#1578=DIRECTION('',(0.,1.,0.));
#1579=DIRECTION('',(1.,0.,0.));
#1580=DIRECTION('',(1.22464679914735E-16,-1.,0.));
#1581=DIRECTION('',(1.22464679914735E-16,-1.,0.));
#1582=DIRECTION('',(0.,4.33680868994202E-16,1.));
#1583=DIRECTION('',(0.,-1.,4.33680868994202E-16));
#1584=DIRECTION('',(-1.,0.,0.));
#1585=DIRECTION('',(0.,1.,-4.33680868994202E-16));
#1586=DIRECTION('',(-1.,0.,0.));
#1587=DIRECTION('',(-2.65240274645337E-16,-1.,-4.33680868994202E-16));
#1588=DIRECTION('',(-2.65240274645337E-16,-1.,-4.33680868994202E-16));
#1589=DIRECTION('',(1.,0.,0.));
#1590=DIRECTION('',(0.,0.,-1.));
#1591=DIRECTION('',(0.,1.,0.));
#1592=DIRECTION('',(0.,0.,1.));
#1593=DIRECTION('',(0.,-1.,0.));
#1594=DIRECTION('',(0.,0.,-1.));
#1595=DIRECTION('',(0.,-1.,0.));
#1596=DIRECTION('',(0.,0.,1.));
#1597=DIRECTION('',(-1.22464679914735E-16,1.,0.));
#1598=DIRECTION('',(0.,0.,1.));
#1599=DIRECTION('',(0.,0.,1.));
#1600=DIRECTION('',(0.,1.,0.));
#1601=DIRECTION('',(0.,0.,-1.));
#1602=DIRECTION('',(-1.,1.42775594730601E-16,0.));
#1603=DIRECTION('',(-1.42775594730601E-16,-1.,0.));
#1604=DIRECTION('',(0.,0.,1.));
#1605=DIRECTION('',(2.65240274645337E-16,1.,-4.33680868994202E-16));
#1606=DIRECTION('',(0.,0.,-1.));
#1607=DIRECTION('',(1.42775594730601E-16,1.,0.));
#1608=DIRECTION('',(0.,0.,-1.));
#1609=DIRECTION('',(-1.42775594730601E-16,-1.,-4.33680868994202E-16));
#1610=DIRECTION('',(0.,0.,1.));
#1611=DIRECTION('',(1.42775594730601E-16,1.,-4.33680868994202E-16));
#1612=DIRECTION('',(0.,0.,-1.));
#1613=DIRECTION('',(1.42775594730601E-16,1.,0.));
#1614=DIRECTION('',(0.,0.,-1.));
#1615=DIRECTION('',(1.15648231731787E-16,1.,0.));
#1616=DIRECTION('',(-1.,1.15648231731787E-16,0.));
#1617=DIRECTION('',(-1.,1.15648231731787E-16,0.));
#1618=DIRECTION('',(0.5,-5.78241158658936E-17,0.866025403784438));
#1619=DIRECTION('',(0.,0.,-1.));
#1620=DIRECTION('',(-1.,1.15648231731787E-16,0.));
#1621=DIRECTION('',(0.,0.,1.));
#1622=DIRECTION('',(-0.5,5.78241158658936E-17,0.866025403784439));
#1623=DIRECTION('',(1.,-1.15648231731787E-16,-6.53796945228264E-16));
#1624=DIRECTION('',(0.,0.,1.));
#1625=DIRECTION('',(-1.,1.15648231731787E-16,0.));
#1626=DIRECTION('',(0.,0.,-1.));
#1627=DIRECTION('',(-1.,0.,0.));
#1628=DIRECTION('',(0.,0.,1.));
#1629=DIRECTION('',(1.15648231731787E-16,1.,0.));
#1630=DIRECTION('',(0.,0.,1.));
#1631=DIRECTION('',(0.,-1.,0.));
#1632=DIRECTION('',(0.,-0.780868809443031,0.624695047554424));
#1633=DIRECTION('',(0.,-1.,0.));
#1634=DIRECTION('',(1.15648231731787E-16,-1.,0.));
#1635=DIRECTION('',(1.,1.15648231731787E-16,0.));
#1636=DIRECTION('',(-1.,-1.51929083932157E-64,-1.0842021724855E-16));
#1637=DIRECTION('',(0.,0.,-1.));
#1638=DIRECTION('',(1.,1.15648231731787E-16,0.));
#1639=DIRECTION('',(0.,0.,1.));
#1640=DIRECTION('',(1.,-1.15648231731787E-16,-6.53796945228264E-16));
#1641=DIRECTION('',(-0.5,5.78241158658936E-17,0.866025403784439));
#1642=DIRECTION('',(0.,0.,1.));
#1643=DIRECTION('',(1.,0.,0.));
#1644=DIRECTION('',(0.,0.,-1.));
#1645=DIRECTION('',(-1.,0.,0.));
#1646=DIRECTION('',(0.,0.,-1.));
#1647=DIRECTION('',(1.,1.15648231731787E-16,0.));
#1648=DIRECTION('',(0.,0.,-1.));
#1649=DIRECTION('',(1.,0.,0.));
#1650=DIRECTION('',(-0.5,-5.78241158658936E-17,-0.866025403784438));
#1651=DIRECTION('',(1.,1.15648231731787E-16,0.));
#1652=DIRECTION('',(0.,0.,1.));
#1653=DIRECTION('',(1.,1.15648231731787E-16,0.));
#1654=DIRECTION('',(0.,0.,1.));
#1655=DIRECTION('',(-1.,-1.0842021724855E-16,-1.0842021724855E-16));
#1656=DIRECTION('',(-1.0842021724855E-16,-1.17549435082229E-32,1.));
#1657=DIRECTION('',(0.,0.,1.));
#1658=DIRECTION('',(1.,0.,0.));
#1659=DIRECTION('',(0.,1.,0.));
#1660=DIRECTION('',(0.,1.,0.));
#1661=DIRECTION('',(1.0842021724855E-16,-1.,0.));
#1662=DIRECTION('',(1.,1.0842021724855E-16,0.));
#1663=DIRECTION('',(-1.,1.0842021724855E-16,0.));
#1664=DIRECTION('',(1.,1.0842021724855E-16,0.));
#1665=DIRECTION('',(1.0842021724855E-16,-1.,0.));
#1666=DIRECTION('',(0.,0.,1.));
#1667=DIRECTION('',(1.,0.,0.));
#1668=DIRECTION('',(-1.,1.0842021724855E-16,0.));
#1669=DIRECTION('',(0.,-1.,0.));
#1670=DIRECTION('',(1.,1.0842021724855E-16,0.));
#1671=DIRECTION('',(0.,0.,1.));
#1672=DIRECTION('',(1.,0.,0.));
#1673=DIRECTION('',(1.,1.0842021724855E-16,0.));
#1674=DIRECTION('',(-5.89469142322216E-16,1.,0.));
#1675=DIRECTION('',(-1.,-1.44560289664734E-16,0.));
#1676=DIRECTION('',(-5.89469142322216E-16,1.,0.));
#1677=DIRECTION('',(0.,0.,1.));
#1678=DIRECTION('',(1.,0.,0.));
#1679=DIRECTION('',(0.,-1.,0.));
#1680=DIRECTION('',(-1.,1.0842021724855E-16,0.));
#1681=DIRECTION('',(1.,1.0842021724855E-16,0.));
#1682=DIRECTION('',(0.,0.,1.));
#1683=DIRECTION('',(1.,0.,0.));
#1684=DIRECTION('',(1.,-7.2280144832367E-17,0.));
#1685=DIRECTION('',(-5.89469142322216E-16,1.,0.));
#1686=DIRECTION('',(-1.,1.0842021724855E-16,0.));
#1687=DIRECTION('',(-5.89469142322216E-16,1.,0.));
#1688=DIRECTION('',(1.,0.,0.));
#1689=DIRECTION('',(0.,0.,-1.));
#1690=DIRECTION('',(0.,0.780868809443031,-0.624695047554424));
#1691=DIRECTION('',(0.,1.,0.));
#1692=DIRECTION('',(1.15648231731787E-16,1.,0.));
#1693=DIRECTION('',(0.,1.,0.));
#1694=DIRECTION('',(0.,0.,1.));
#1695=DIRECTION('',(1.,0.,0.));
#1696=DIRECTION('',(1.,0.,0.));
#1697=DIRECTION('',(1.,0.,0.));
#1698=DIRECTION('',(0.,0.,-1.));
#1699=DIRECTION('',(1.15648231731787E-16,1.,0.));
#1700=DIRECTION('',(0.,0.,1.));
#1701=DIRECTION('',(1.,0.,0.));
#1702=DIRECTION('',(1.,1.73472347597681E-15,0.));
#1703=DIRECTION('',(0.,-1.,0.));
#1704=DIRECTION('',(1.,-7.2280144832367E-17,0.));
#1705=DIRECTION('',(1.5770213417971E-16,-1.,0.));
#1706=DIRECTION('',(-1.,-1.44560289664734E-16,0.));
#1707=DIRECTION('',(0.,1.,0.));
#1708=DIRECTION('',(-1.,0.,0.));
#1709=DIRECTION('',(0.,1.,0.));
#1710=DIRECTION('',(-2.29764698804875E-16,1.,0.));
#1711=DIRECTION('',(-1.,0.,0.));
#1712=DIRECTION('',(0.,0.,1.));
#1713=DIRECTION('',(0.,0.,-1.));
#1714=DIRECTION('',(8.26058798084205E-16,1.,0.));
#1715=DIRECTION('',(0.,0.,-1.));
#1716=DIRECTION('',(0.,1.,0.));
#1717=DIRECTION('',(-1.73472347597681E-15,1.,0.));
#1718=DIRECTION('',(-1.,-1.73472347597681E-15,0.));
#1719=DIRECTION('',(1.,1.73578454795335E-15,0.));
#1720=DIRECTION('',(0.,0.,-1.));
#1721=DIRECTION('',(0.,0.,-1.));
#1722=DIRECTION('',(1.,1.73472347597681E-15,0.));
#1723=DIRECTION('',(0.,0.,-1.));
#1724=DIRECTION('',(1.,4.95938442272384E-16,0.));
#1725=DIRECTION('',(-1.0842021724855E-16,1.,0.));
#1726=DIRECTION('',(-1.,-1.0842021724855E-16,0.));
#1727=DIRECTION('',(1.,0.,0.));
#1728=DIRECTION('',(-1.0842021724855E-16,1.,0.));
#1729=DIRECTION('',(-1.,-1.0842021724855E-16,0.));
#1730=DIRECTION('',(0.,0.,-1.));
#1731=DIRECTION('',(1.,0.,0.));
#1732=DIRECTION('',(0.,0.,-1.));
#1733=DIRECTION('',(1.,1.51929083932157E-64,1.0842021724855E-16));
#1734=DIRECTION('',(-1.0842021724855E-16,-1.17549435082229E-32,1.));
#1735=DIRECTION('',(-1.,-1.0842021724855E-16,-1.0842021724855E-16));
#1736=DIRECTION('',(0.,0.,1.));
#1737=DIRECTION('',(-1.,0.,0.));
#1738=DIRECTION('',(0.,0.,-1.));
#1739=DIRECTION('',(-1.0842021724855E-16,1.,0.));
#1740=DIRECTION('',(-1.,-1.0842021724855E-16,0.));
#1741=DIRECTION('',(-1.,0.,0.));
#1742=DIRECTION('',(0.,0.,1.));
#1743=DIRECTION('',(0.707106781186548,7.66646708341687E-17,-0.707106781186548));
#1744=DIRECTION('',(1.,8.67361737988403E-16,0.));
#1745=DIRECTION('',(0.707106781186548,7.66646708341687E-17,0.707106781186548));
#1746=DIRECTION('',(0.,0.,1.));
#1747=DIRECTION('',(0.,0.,1.));
#1748=DIRECTION('',(-0.707106781186547,-7.66646708341687E-17,0.707106781186548));
#1749=DIRECTION('',(-1.,-8.67361737988403E-16,0.));
#1750=DIRECTION('',(0.707106781186548,7.66646708341687E-17,0.707106781186548));
#1751=DIRECTION('',(0.,0.,1.));
#1752=DIRECTION('',(-1.0842021724855E-16,-1.,0.));
#1753=DIRECTION('',(1.,-1.0842021724855E-16,0.));
#1754=DIRECTION('',(0.,0.,1.));
#1755=DIRECTION('',(-0.707106781186548,7.66646708341687E-17,-0.707106781186548));
#1756=DIRECTION('',(1.,-1.73472347597681E-15,0.));
#1757=DIRECTION('',(0.707106781186547,-7.66646708341687E-17,-0.707106781186548));
#1758=DIRECTION('',(0.,0.,1.));
#1759=DIRECTION('',(0.,0.,1.));
#1760=DIRECTION('',(-0.707106781186548,7.66646708341687E-17,-0.707106781186548));
#1761=DIRECTION('',(-1.,8.67361737988401E-16,0.));
#1762=DIRECTION('',(-0.707106781186548,7.66646708341687E-17,0.707106781186548));
#1763=DIRECTION('',(0.,0.,1.));
#1764=DIRECTION('',(0.,0.,1.));
#1765=DIRECTION('',(0.,0.,-1.));
#1766=DIRECTION('',(-1.,-1.5770213417971E-16,0.));
#1767=DIRECTION('',(1.5770213417971E-16,-1.,0.));
#1768=DIRECTION('',(1.5770213417971E-16,-1.,0.));
#1769=DIRECTION('',(0.,0.,1.));
#1770=DIRECTION('',(0.,0.,1.));
#1771=DIRECTION('',(-1.44560289664734E-16,1.,0.));
#1772=DIRECTION('',(-1.,-1.44560289664734E-16,0.));
#1773=DIRECTION('',(0.,0.,1.));
#1774=DIRECTION('',(1.,0.,0.));
#1775=DIRECTION('',(0.,0.,-1.));
#1776=DIRECTION('',(0.,1.,0.));
#1777=DIRECTION('',(0.,0.,1.));
#1778=DIRECTION('',(0.,-1.,0.));
#1779=DIRECTION('',(0.,0.,-1.));
#1780=DIRECTION('',(-7.2280144832367E-17,-1.,0.));
#1781=DIRECTION('',(1.,-7.2280144832367E-17,0.));
#1782=DIRECTION('',(0.,0.,-1.));
#1783=DIRECTION('',(-1.,5.86733785533607E-17,0.));
#1784=DIRECTION('',(1.,-1.14882349402438E-16,0.));
#1785=DIRECTION('',(1.14882349402438E-16,1.,0.));
#1786=DIRECTION('',(-1.14882349402438E-16,-1.,0.));
#1787=DIRECTION('',(-1.14882349402438E-16,-1.,0.));
#1788=DIRECTION('',(0.,0.,1.));
#1789=DIRECTION('',(1.,0.,0.));
#1790=DIRECTION('',(1.,0.,0.));
#1791=DIRECTION('',(0.,0.,-1.));
#1792=DIRECTION('',(-1.,0.,0.));
#1793=DIRECTION('',(-2.29764698804875E-16,1.,0.));
#1794=DIRECTION('',(-1.,-2.29764698804875E-16,0.));
#1795=DIRECTION('',(2.29764698804875E-16,-1.,0.));
#1796=DIRECTION('',(0.,0.,-1.));
#1797=DIRECTION('',(-1.,0.,0.));
#1798=DIRECTION('',(-1.,0.,0.));
#1799=DIRECTION('',(0.,-1.,0.));
#1800=DIRECTION('',(1.,0.,0.));
#1801=DIRECTION('',(0.,0.,-1.));
#1802=DIRECTION('',(0.,-1.,0.));
#1803=DIRECTION('',(0.,0.,-1.));
#1804=DIRECTION('',(-1.,-1.0842021724855E-16,0.));
#1805=DIRECTION('',(1.0842021724855E-16,-1.,0.));
#1806=DIRECTION('',(-1.27447352890596E-48,1.,1.17549435082229E-32));
#1807=DIRECTION('',(-1.0842021724855E-16,-1.17549435082229E-32,1.));
#1808=DIRECTION('',(1.,0.,1.0842021724855E-16));
#1809=DIRECTION('',(1.27447352890596E-48,-1.,-1.17549435082229E-32));
#1810=DIRECTION('',(1.0842021724855E-16,-1.,0.));
#1811=DIRECTION('',(1.,1.0842021724855E-16,0.));
#1812=DIRECTION('',(-1.0842021724855E-16,1.,0.));
#1813=DIRECTION('',(-0.866025403784438,1.00154306582477E-16,-0.5));
#1814=DIRECTION('',(-0.5,0.,0.866025403784439));
#1815=DIRECTION('',(1.15648231731787E-16,1.,0.));
#1816=DIRECTION('',(6.53796945228264E-16,-7.56104606272928E-32,1.));
#1817=DIRECTION('',(1.,0.,-6.53796945228264E-16));
#1818=DIRECTION('',(0.,-0.624695047554424,-0.780868809443031));
#1819=DIRECTION('',(0.,0.780868809443031,-0.624695047554424));
#1820=DIRECTION('',(0.,0.,-1.));
#1821=DIRECTION('',(-1.,0.,0.));
#1822=DIRECTION('',(0.,-1.,0.));
#1823=DIRECTION('',(-1.5770213417971E-16,1.,0.));
#1824=DIRECTION('',(-1.,0.,0.));
#1825=DIRECTION('',(0.,0.,1.));
#1826=DIRECTION('',(0.,1.,0.));
#1827=DIRECTION('',(0.,0.,1.));
#1828=DIRECTION('',(1.,0.,0.));
#1829=DIRECTION('',(0.,1.,0.));
#1830=DIRECTION('',(0.,-1.,0.));
#1831=DIRECTION('',(-1.,0.,0.));
#1832=DIRECTION('',(0.,0.,1.));
#1833=DIRECTION('',(0.,-1.,0.));
#1834=DIRECTION('',(0.707106781186547,0.,-0.707106781186547));
#1835=DIRECTION('',(0.,1.,0.));
#1836=DIRECTION('',(0.707106781186548,1.11512248486064E-16,0.707106781186547));
#1837=DIRECTION('',(-1.5770213417971E-16,1.,0.));
#1838=DIRECTION('',(-0.707106781186547,0.,-0.707106781186547));
#1839=DIRECTION('',(0.,1.,0.));
#1840=DIRECTION('',(0.707106781186547,0.,-0.707106781186547));
#1841=DIRECTION('',(0.,-1.,0.));
#1842=DIRECTION('',(-1.,0.,0.));
#1843=DIRECTION('',(0.,0.,1.));
#1844=DIRECTION('',(1.15648231731787E-16,1.,0.));
#1845=DIRECTION('',(-0.866025403784438,1.00154306582477E-16,0.5));
#1846=DIRECTION('',(0.5,0.,0.866025403784438));
#1847=DIRECTION('',(1.15648231731787E-16,1.,0.));
#1848=DIRECTION('',(0.,0.,-1.));
#1849=DIRECTION('',(-1.,0.,0.));
#1850=DIRECTION('',(-1.,1.22464679914735E-16,0.));
#1851=DIRECTION('',(0.,0.,-1.));
#1852=DIRECTION('',(2.65240274645337E-16,1.,-4.33680868994202E-16));
#1853=DIRECTION('',(0.,0.,-1.));
#1854=DIRECTION('',(0.,4.33680868994202E-16,-1.));
#1855=DIRECTION('',(0.,1.,4.33680868994202E-16));
#1856=DIRECTION('',(1.,0.,0.));
#1857=DIRECTION('',(0.,1.,0.));
#1858=DIRECTION('',(-1.,0.,0.));
#1859=DIRECTION('',(-1.,0.,0.));
#1860=DIRECTION('',(0.,1.,0.));
#1861=DIRECTION('',(0.,-1.,0.));
#1862=DIRECTION('',(0.,0.,-1.));
#1863=DIRECTION('',(1.,0.,0.));
#1864=DIRECTION('',(0.,0.,1.));
#1865=DIRECTION('',(0.,-1.,0.));
#1866=DIRECTION('',(0.,0.,-1.));
#1867=DIRECTION('',(0.,4.33680868994202E-16,1.));
#1868=DIRECTION('',(0.,-1.,4.33680868994202E-16));
#1869=DIRECTION('',(0.,1.,-4.33680868994202E-16));
#1870=DIRECTION('',(-1.,0.,0.));
#1871=DIRECTION('',(0.,0.,1.));
#1872=DIRECTION('',(0.,1.,-4.33680868994202E-16));
#1873=DIRECTION('',(0.,0.,-1.));
#1874=DIRECTION('',(1.,0.,0.));
#1875=DIRECTION('',(0.,0.,-1.));
#1876=DIRECTION('',(0.,0.,1.));
#1877=DIRECTION('',(0.,1.,-4.33680868994202E-16));
#1878=DIRECTION('',(0.,1.,0.));
#1879=DIRECTION('',(0.,0.,1.));
#1880=DIRECTION('',(0.,1.,0.));
#1881=DIRECTION('',(0.,0.,1.));
#1882=DIRECTION('',(0.,-1.,0.));
#1883=DIRECTION('',(0.,0.,-1.));
#1884=DIRECTION('',(0.,-1.,0.));
#1885=DIRECTION('',(0.,0.,-1.));
#1886=DIRECTION('',(0.,0.,1.));
#1887=DIRECTION('',(1.,0.,0.));
#1888=DIRECTION('',(-1.,0.,0.));
#1889=DIRECTION('',(0.,1.,0.));
#1890=DIRECTION('',(1.,0.,0.));
#1891=DIRECTION('',(-1.22464679914735E-16,1.,0.));
#1892=DIRECTION('',(1.,0.,0.));
#1893=DIRECTION('',(0.,1.,0.));
#1894=DIRECTION('',(0.,1.,0.));
#1895=DIRECTION('',(0.,0.,1.));
#1896=DIRECTION('',(-1.,0.,0.));
#1897=DIRECTION('',(0.,1.,0.));
#1898=DIRECTION('',(0.,0.,1.));
#1899=DIRECTION('',(0.,0.,1.));
#1900=DIRECTION('',(0.,0.,-1.));
#1901=DIRECTION('',(-1.,0.,0.));
#1902=DIRECTION('',(0.,1.,0.));
#1903=DIRECTION('',(-1.,0.,0.));
#1904=DIRECTION('',(0.,0.,1.));
#1905=DIRECTION('',(0.,0.,-1.));
#1906=DIRECTION('',(0.,1.,0.));
#1907=DIRECTION('',(1.,0.,0.));
#1908=DIRECTION('',(0.,0.,-1.));
#1909=DIRECTION('',(0.,1.,0.));
#1910=DIRECTION('',(0.,0.,1.));
#1911=DIRECTION('',(0.,-1.,0.));
#1912=DIRECTION('',(0.,0.,-1.));
#1913=DIRECTION('',(0.,-1.,0.));
#1914=DIRECTION('',(0.,0.,-1.));
#1915=DIRECTION('',(0.,1.,0.));
#1916=DIRECTION('',(0.,0.,1.));
#1917=DIRECTION('',(0.,1.,0.));
#1918=DIRECTION('',(0.,0.,1.));
#1919=DIRECTION('',(0.,0.,-1.));
#1920=DIRECTION('',(-1.,-1.22464679914735E-16,0.));
#1921=DIRECTION('',(0.,0.,-1.));
#1922=DIRECTION('',(-1.,0.,-1.0842021724855E-16));
#1923=DIRECTION('',(-1.0842021724855E-16,0.,1.));
#1924=DIRECTION('',(1.27447352890596E-48,-1.,-1.17549435082229E-32));
#1925=DIRECTION('',(-1.0842021724855E-16,-1.17549435082229E-32,1.));
#1926=DIRECTION('',(1.,0.,1.0842021724855E-16));
#1927=DIRECTION('',(0.,1.,0.));
#1928=DIRECTION('',(0.,0.,1.));
#1929=DIRECTION('',(0.,1.,-4.33680868994202E-16));
#1930=DIRECTION('',(0.,4.33680868994202E-16,1.));
#1931=CARTESIAN_POINT('',(0.,0.,0.));
#1932=CARTESIAN_POINT('',(-16.5,-12.15,-6.15));
#1933=CARTESIAN_POINT('',(-21.7,10.25,-6.15));
#1934=CARTESIAN_POINT('',(-20.5,10.25,-6.15));
#1935=CARTESIAN_POINT('',(-16.5,10.25,-6.15));
#1936=CARTESIAN_POINT('',(-20.5,-12.15,-6.15));
#1937=CARTESIAN_POINT('',(-20.5,12.25,-6.15));
#1938=CARTESIAN_POINT('',(-21.7,12.25,-6.15));
#1939=CARTESIAN_POINT('',(-16.5,12.25,-6.15));
#1940=CARTESIAN_POINT('',(-16.5,12.25,-6.15));
#1941=CARTESIAN_POINT('',(-16.5,12.15,-6.15));
#1942=CARTESIAN_POINT('',(-16.5,12.25,-6.15));
#1943=CARTESIAN_POINT('',(16.,-12.15,-6.15));
#1944=CARTESIAN_POINT('',(21.2,12.25,-6.15));
#1945=CARTESIAN_POINT('',(20.,12.25,-6.15));
#1946=CARTESIAN_POINT('',(16.,12.25,-6.15));
#1947=CARTESIAN_POINT('',(20.,-12.15,-6.15));
#1948=CARTESIAN_POINT('',(20.,10.25,-6.15000000000001));
#1949=CARTESIAN_POINT('',(21.2,10.25,-6.15));
#1950=CARTESIAN_POINT('',(16.,10.25,-6.15));
#1951=CARTESIAN_POINT('',(16.,12.25,-6.15));
#1952=CARTESIAN_POINT('',(16.,12.15,-6.15));
#1953=CARTESIAN_POINT('',(16.,12.25,-6.15));
#1954=CARTESIAN_POINT('',(-16.5,0.,0.));
#1955=CARTESIAN_POINT('',(-16.5,-12.15,-6.15));
#1956=CARTESIAN_POINT('',(-16.5,-10.15,-6.15));
#1957=CARTESIAN_POINT('',(-16.5,-12.15,-6.15));
#1958=CARTESIAN_POINT('',(-16.5,-10.15,-6.15));
#1959=CARTESIAN_POINT('',(-16.5,-10.15,-4.15));
#1960=CARTESIAN_POINT('',(-16.5,-10.15,-4.15));
#1961=CARTESIAN_POINT('',(-16.5,-12.15,-4.15));
#1962=CARTESIAN_POINT('',(-16.5,-12.15,8.15));
#1963=CARTESIAN_POINT('',(-16.5,-12.15,8.15));
#1964=CARTESIAN_POINT('',(-16.5,12.15,8.15));
#1965=CARTESIAN_POINT('',(-16.5,12.15,8.15));
#1966=CARTESIAN_POINT('',(-16.5,12.15,-8.15));
#1967=CARTESIAN_POINT('',(-16.5,12.15,-4.15));
#1968=CARTESIAN_POINT('',(-16.5,10.25,-4.15));
#1969=CARTESIAN_POINT('',(-16.5,10.25,-4.15));
#1970=CARTESIAN_POINT('',(-16.5,10.25,-6.15));
#1971=CARTESIAN_POINT('',(-16.5,12.15,-8.15));
#1972=CARTESIAN_POINT('',(-16.5,12.15,-8.15));
#1973=CARTESIAN_POINT('',(-16.5,-12.15,-8.15));
#1974=CARTESIAN_POINT('',(-16.5,-12.15,-8.15));
#1975=CARTESIAN_POINT('',(-16.5,-12.15,8.15));
#1976=CARTESIAN_POINT('',(16.,-12.15,8.15));
#1977=CARTESIAN_POINT('',(16.,10.25,-6.15));
#1978=CARTESIAN_POINT('',(16.,10.25,-4.14999999999999));
#1979=CARTESIAN_POINT('',(16.,10.25,-4.15));
#1980=CARTESIAN_POINT('',(16.,12.15,-4.15));
#1981=CARTESIAN_POINT('',(16.,12.15,8.15));
#1982=CARTESIAN_POINT('',(16.,12.15,8.15));
#1983=CARTESIAN_POINT('',(16.,-12.15,8.15));
#1984=CARTESIAN_POINT('',(16.,-12.15,8.15));
#1985=CARTESIAN_POINT('',(16.,-12.15,8.15));
#1986=CARTESIAN_POINT('',(16.,-12.15,-4.15));
#1987=CARTESIAN_POINT('',(16.,-10.15,-4.15));
#1988=CARTESIAN_POINT('',(16.,-10.15,-4.15));
#1989=CARTESIAN_POINT('',(16.,-10.15,-6.15));
#1990=CARTESIAN_POINT('',(16.,-10.15,-6.15));
#1991=CARTESIAN_POINT('',(16.,-12.15,-6.15));
#1992=CARTESIAN_POINT('',(16.,-12.15,-6.15));
#1993=CARTESIAN_POINT('',(16.,-12.15,8.15));
#1994=CARTESIAN_POINT('',(16.,-12.15,-8.15));
#1995=CARTESIAN_POINT('',(16.,-12.15,-8.15));
#1996=CARTESIAN_POINT('',(16.,12.15,-8.15));
#1997=CARTESIAN_POINT('',(16.,12.15,8.15));
#1998=CARTESIAN_POINT('',(15.,11.15,-7.15));
#1999=CARTESIAN_POINT('',(-14.3578551381276,11.15,7.15));
#2000=CARTESIAN_POINT('',(-14.3578551381276,11.15,7.15));
#2001=CARTESIAN_POINT('',(-15.5,11.15,7.15));
#2002=CARTESIAN_POINT('',(-15.5,11.15,5.17174706963329));
#2003=CARTESIAN_POINT('',(-15.5,11.15,5.17174706963329));
#2004=CARTESIAN_POINT('',(-15.5,11.15,8.15));
#2005=CARTESIAN_POINT('',(-15.5,11.15,-5.15));
#2006=CARTESIAN_POINT('',(15.,11.15,-5.15));
#2007=CARTESIAN_POINT('',(15.,11.15,-5.15));
#2008=CARTESIAN_POINT('',(15.,11.15,-7.15));
#2009=CARTESIAN_POINT('',(15.,11.15,4.85216944312481));
#2010=CARTESIAN_POINT('',(15.,11.15,4.85216944312481));
#2011=CARTESIAN_POINT('',(13.673346909436,11.15,7.15));
#2012=CARTESIAN_POINT('',(13.673346909436,11.15,7.15));
#2013=CARTESIAN_POINT('',(15.,11.15,7.15));
#2014=CARTESIAN_POINT('',(15.,11.15,-7.15));
#2015=CARTESIAN_POINT('',(15.,11.15,8.15));
#2016=CARTESIAN_POINT('',(15.,11.15,8.15));
#2017=CARTESIAN_POINT('',(-15.5,11.15,8.15));
#2018=CARTESIAN_POINT('',(-15.5,11.15,8.15));
#2019=CARTESIAN_POINT('',(-15.5,0.,0.));
#2020=CARTESIAN_POINT('',(-15.5,-11.25,5.17174706963329));
#2021=CARTESIAN_POINT('',(-15.5,-11.15,5.17174706963328));
#2022=CARTESIAN_POINT('',(-15.5,-11.15,-3.15));
#2023=CARTESIAN_POINT('',(-15.5,-11.15,-3.15));
#2024=CARTESIAN_POINT('',(-15.5,6.14999999999999,-3.15));
#2025=CARTESIAN_POINT('',(-15.5,6.14999999999999,-3.15));
#2026=CARTESIAN_POINT('',(-15.5,8.64999999999999,-5.15));
#2027=CARTESIAN_POINT('',(-15.5,8.64999999999999,-5.15));
#2028=CARTESIAN_POINT('',(-15.5,11.15,-5.15));
#2029=CARTESIAN_POINT('',(-15.,-11.15,-7.15));
#2030=CARTESIAN_POINT('',(10.5,-11.15,-1.65));
#2031=CARTESIAN_POINT('',(10.5,-11.15,-1.65));
#2032=CARTESIAN_POINT('',(7.50000000000001,-11.15,-1.65));
#2033=CARTESIAN_POINT('',(10.5,-11.15,8.15));
#2034=CARTESIAN_POINT('',(10.5,-11.15,8.15));
#2035=CARTESIAN_POINT('',(-15.,-11.15,8.15));
#2036=CARTESIAN_POINT('',(15.,-11.15,8.15));
#2037=CARTESIAN_POINT('',(15.,-11.15,-7.15));
#2038=CARTESIAN_POINT('',(15.,-11.15,7.15));
#2039=CARTESIAN_POINT('',(13.673346909436,-11.15,7.15));
#2040=CARTESIAN_POINT('',(13.673346909436,-11.15,7.15));
#2041=CARTESIAN_POINT('',(15.,-11.15,4.85216944312481));
#2042=CARTESIAN_POINT('',(15.,-11.15,4.85216944312481));
#2043=CARTESIAN_POINT('',(15.,-11.15,-7.15));
#2044=CARTESIAN_POINT('',(15.,-11.15,-3.15));
#2045=CARTESIAN_POINT('',(15.,-11.15,-3.15));
#2046=CARTESIAN_POINT('',(11.8,-11.15,-3.15));
#2047=CARTESIAN_POINT('',(11.8,-11.15,-3.15));
#2048=CARTESIAN_POINT('',(11.8,-11.15,-5.15));
#2049=CARTESIAN_POINT('',(11.8,-11.15,-5.15));
#2050=CARTESIAN_POINT('',(9.80000000000001,-11.15,-5.15));
#2051=CARTESIAN_POINT('',(9.80000000000001,-11.15,-5.15));
#2052=CARTESIAN_POINT('',(9.80000000000001,-11.15,-7.15));
#2053=CARTESIAN_POINT('',(-15.,-11.15,-7.15));
#2054=CARTESIAN_POINT('',(-9.3,-11.15,-7.15));
#2055=CARTESIAN_POINT('',(-9.3,-11.15,-3.15));
#2056=CARTESIAN_POINT('',(-9.3,-11.15,-3.15));
#2057=CARTESIAN_POINT('',(-15.,-11.15,-3.15));
#2058=CARTESIAN_POINT('',(-20.7104729906544,-11.15,-3.85305688164556));
#2059=CARTESIAN_POINT('',(-14.3578551381276,-11.15,7.15));
#2060=CARTESIAN_POINT('',(-15.,-11.15,7.15));
#2061=CARTESIAN_POINT('',(-15.5,-11.15,7.15));
#2062=CARTESIAN_POINT('',(-15.5,-11.15,-3.15));
#2063=CARTESIAN_POINT('',(-15.5,-11.15,8.15));
#2064=CARTESIAN_POINT('',(-15.,-11.15,8.15));
#2065=CARTESIAN_POINT('',(-1.5,-11.15,8.15));
#2066=CARTESIAN_POINT('',(-1.5,-11.15,0.349999999999997));
#2067=CARTESIAN_POINT('',(-1.5,-11.15,0.349999999999997));
#2068=CARTESIAN_POINT('',(10.5,-11.15,0.349999999999999));
#2069=CARTESIAN_POINT('',(7.50000000000001,-11.15,0.349999999999998));
#2070=CARTESIAN_POINT('',(7.50000000000001,-11.15,-1.65));
#2071=CARTESIAN_POINT('',(0.,0.,8.15));
#2072=CARTESIAN_POINT('',(-15.5,-11.15,8.15));
#2073=CARTESIAN_POINT('',(15.,-11.15,8.15));
#2074=CARTESIAN_POINT('',(10.5,-11.15,8.15));
#2075=CARTESIAN_POINT('',(10.5,-12.15,8.15));
#2076=CARTESIAN_POINT('',(-16.,-12.15,8.15));
#2077=CARTESIAN_POINT('',(16.,12.15,8.15));
#2078=CARTESIAN_POINT('',(-16.,-12.15,8.15));
#2079=CARTESIAN_POINT('',(-1.5,-12.15,8.15));
#2080=CARTESIAN_POINT('',(-1.5,-11.15,8.15));
#2081=CARTESIAN_POINT('',(0.,0.,-8.15));
#2082=CARTESIAN_POINT('',(16.,12.15,-8.15));
#2083=CARTESIAN_POINT('',(-8.,12.15,-8.15));
#2084=CARTESIAN_POINT('',(-8.,12.15,-8.15));
#2085=CARTESIAN_POINT('',(-8.,-12.15,-8.15));
#2086=CARTESIAN_POINT('',(-16.,-12.15,-8.15));
#2087=CARTESIAN_POINT('',(0.,0.,-8.15));
#2088=CARTESIAN_POINT('',(-16.,-12.15,-8.15));
#2089=CARTESIAN_POINT('',(-6.,-12.15,-8.15));
#2090=CARTESIAN_POINT('',(6.,-12.15,-8.15));
#2091=CARTESIAN_POINT('',(-5.99999999999999,1.85,-8.15));
#2092=CARTESIAN_POINT('',(-5.99999999999999,-9.15,-8.15));
#2093=CARTESIAN_POINT('',(6.00000000000001,-9.15,-8.15));
#2094=CARTESIAN_POINT('',(6.00000000000001,-9.15,-8.15));
#2095=CARTESIAN_POINT('',(6.00000000000001,1.85,-8.15));
#2096=CARTESIAN_POINT('',(0.,0.,-8.15));
#2097=CARTESIAN_POINT('',(8.,12.15,-8.15));
#2098=CARTESIAN_POINT('',(8.,12.15,-8.15));
#2099=CARTESIAN_POINT('',(8.,-12.15,-8.15));
#2100=CARTESIAN_POINT('',(16.,12.15,-8.15));
#2101=CARTESIAN_POINT('',(-16.,-12.15,-8.15));
#2102=CARTESIAN_POINT('',(0.,0.,-8.15));
#2103=CARTESIAN_POINT('',(-5.99999999999999,1.85,-8.15));
#2104=CARTESIAN_POINT('',(-5.99999999999999,1.85,-8.15));
#2105=CARTESIAN_POINT('',(6.00000000000001,1.85,-8.15));
#2106=CARTESIAN_POINT('',(-5.99999999999999,1.85,-8.15));
#2107=CARTESIAN_POINT('',(-6.,12.15,-8.15));
#2108=CARTESIAN_POINT('',(16.,12.15,-8.15));
#2109=CARTESIAN_POINT('',(6.,12.15,-8.15));
#2110=CARTESIAN_POINT('',(6.00000000000001,1.85,-8.15));
#2111=CARTESIAN_POINT('',(15.,-11.15,-7.15));
#2112=CARTESIAN_POINT('',(15.,6.14999999999999,-3.15));
#2113=CARTESIAN_POINT('',(15.,6.14999999999999,-3.15));
#2114=CARTESIAN_POINT('',(15.,8.64999999999999,-5.15));
#2115=CARTESIAN_POINT('',(15.,3.95000000000001,-3.15));
#2116=CARTESIAN_POINT('',(15.,-11.15,4.85216944312481));
#2117=CARTESIAN_POINT('',(15.,6.14999999999999,-5.15));
#2118=CARTESIAN_POINT('',(0.,0.,-5.15));
#2119=CARTESIAN_POINT('',(-15.,8.64999999999999,-5.15));
#2120=CARTESIAN_POINT('',(15.,-11.15,-7.15));
#2121=CARTESIAN_POINT('',(15.,-11.15,7.15));
#2122=CARTESIAN_POINT('',(0.,0.,-7.15));
#2123=CARTESIAN_POINT('',(11.8,3.95000000000001,-7.15));
#2124=CARTESIAN_POINT('',(-2.30427904709978,3.94999999999999,-7.15));
#2125=CARTESIAN_POINT('',(9.8,3.95000000000001,-7.15));
#2126=CARTESIAN_POINT('',(-2.30427904709978,3.94999999999999,-7.15));
#2127=CARTESIAN_POINT('',(-2.30427904709978,1.85,-7.15));
#2128=CARTESIAN_POINT('',(-5.99999999999999,1.85,-7.15));
#2129=CARTESIAN_POINT('',(6.00000000000001,1.85,-7.15));
#2130=CARTESIAN_POINT('',(6.00000000000001,1.85,-7.15));
#2131=CARTESIAN_POINT('',(6.00000000000001,-9.15,-7.15));
#2132=CARTESIAN_POINT('',(6.00000000000001,-9.15,-7.15));
#2133=CARTESIAN_POINT('',(-5.99999999999999,-9.15,-7.15));
#2134=CARTESIAN_POINT('',(-5.99999999999999,-9.15,-7.15));
#2135=CARTESIAN_POINT('',(-5.99999999999999,-3.05,-7.15));
#2136=CARTESIAN_POINT('',(-9.3,-3.05,-7.15));
#2137=CARTESIAN_POINT('',(-9.3,-3.05,-7.15));
#2138=CARTESIAN_POINT('',(-9.3,1.85,-7.15));
#2139=CARTESIAN_POINT('',(9.80000000000001,-11.15,-7.15));
#2140=CARTESIAN_POINT('',(-9.3,1.85,-3.15));
#2141=CARTESIAN_POINT('',(-9.3,-3.05,-5.15));
#2142=CARTESIAN_POINT('',(-9.3,-3.05,-5.15));
#2143=CARTESIAN_POINT('',(-9.3,1.85,-5.15));
#2144=CARTESIAN_POINT('',(-9.3,3.94999999999997,-5.15));
#2145=CARTESIAN_POINT('',(-9.3,3.95000000000001,-3.15));
#2146=CARTESIAN_POINT('',(-9.3,3.95000000000001,-3.15));
#2147=CARTESIAN_POINT('',(-9.3,-11.15,-3.15));
#2148=CARTESIAN_POINT('',(11.8,3.95000000000001,-3.15));
#2149=CARTESIAN_POINT('',(-2.30427904709978,3.94999999999999,-5.15));
#2150=CARTESIAN_POINT('',(-2.30427904709978,3.94999999999999,-5.15));
#2151=CARTESIAN_POINT('',(-2.30427904709978,3.94999999999999,-5.15));
#2152=CARTESIAN_POINT('',(9.8,3.95000000000001,-5.15));
#2153=CARTESIAN_POINT('',(9.8,3.95000000000001,-5.15));
#2154=CARTESIAN_POINT('',(11.8,3.95000000000001,-5.15));
#2155=CARTESIAN_POINT('',(11.8,3.95000000000001,-5.15));
#2156=CARTESIAN_POINT('',(11.8,3.95000000000001,-3.15));
#2157=CARTESIAN_POINT('',(11.8,3.95000000000001,-3.15));
#2158=CARTESIAN_POINT('',(-2.30427904709978,3.95000000000001,-3.15));
#2159=CARTESIAN_POINT('',(-16.,-12.15,8.15));
#2160=CARTESIAN_POINT('',(16.,-12.15,-6.15));
#2161=CARTESIAN_POINT('',(20.,-12.15,-6.15));
#2162=CARTESIAN_POINT('',(20.,-12.15,-5.15));
#2163=CARTESIAN_POINT('',(21.,-12.15,-5.15));
#2164=CARTESIAN_POINT('',(21.,-12.15,-4.15));
#2165=CARTESIAN_POINT('',(21.,-12.15,-4.15));
#2166=CARTESIAN_POINT('',(16.,-12.15,-4.15));
#2167=CARTESIAN_POINT('',(10.5,-12.15,8.15));
#2168=CARTESIAN_POINT('',(10.5,-12.15,-1.65));
#2169=CARTESIAN_POINT('',(7.50000000000001,-12.15,-1.65));
#2170=CARTESIAN_POINT('',(7.50000000000001,-12.15,-1.65));
#2171=CARTESIAN_POINT('',(7.50000000000001,-12.15,-1.65));
#2172=CARTESIAN_POINT('',(7.50000000000001,-12.15,0.349999999999998));
#2173=CARTESIAN_POINT('',(10.5,-12.15,0.349999999999999));
#2174=CARTESIAN_POINT('',(-1.5,-12.15,0.349999999999998));
#2175=CARTESIAN_POINT('',(-1.5,-12.15,0.349999999999997));
#2176=CARTESIAN_POINT('',(-16.5,-12.15,-4.15));
#2177=CARTESIAN_POINT('',(-21.5,-12.15,-4.15));
#2178=CARTESIAN_POINT('',(-21.5,-12.15,-4.15));
#2179=CARTESIAN_POINT('',(-21.5,-12.15,-5.15));
#2180=CARTESIAN_POINT('',(-20.5,-12.15,-5.15));
#2181=CARTESIAN_POINT('',(-20.5,-12.15,-6.15));
#2182=CARTESIAN_POINT('',(-16.5,-12.15,-6.15));
#2183=CARTESIAN_POINT('',(-8.,-12.15,-10.15));
#2184=CARTESIAN_POINT('',(-8.,-12.15,-9.65));
#2185=CARTESIAN_POINT('',(-8.,-12.15,-9.65));
#2186=CARTESIAN_POINT('',(-7.5,-12.15,-10.15));
#2187=CARTESIAN_POINT('',(-8.,-12.15,-10.15));
#2188=CARTESIAN_POINT('',(-6.49999999999999,-12.15,-10.15));
#2189=CARTESIAN_POINT('',(-5.99999999999999,-12.15,-9.65));
#2190=CARTESIAN_POINT('',(-6.,-12.15,-9.65));
#2191=CARTESIAN_POINT('',(-6.,-12.15,-10.15));
#2192=CARTESIAN_POINT('',(6.,-12.15,-10.15));
#2193=CARTESIAN_POINT('',(6.,-12.15,-9.65));
#2194=CARTESIAN_POINT('',(6.50000000000001,-12.15,-10.15));
#2195=CARTESIAN_POINT('',(6.50000000000001,-12.15,-10.15));
#2196=CARTESIAN_POINT('',(8.,-12.15,-10.15));
#2197=CARTESIAN_POINT('',(7.5,-12.15,-10.15));
#2198=CARTESIAN_POINT('',(7.5,-12.15,-10.15));
#2199=CARTESIAN_POINT('',(8.,-12.15,-9.65));
#2200=CARTESIAN_POINT('',(8.,-12.15,-10.15));
#2201=CARTESIAN_POINT('',(16.,12.15,8.15));
#2202=CARTESIAN_POINT('',(8.,12.15,-10.15));
#2203=CARTESIAN_POINT('',(8.,12.15,-9.65));
#2204=CARTESIAN_POINT('',(7.5,12.15,-10.15));
#2205=CARTESIAN_POINT('',(7.5,12.15,-10.15));
#2206=CARTESIAN_POINT('',(6.,12.15,-10.15));
#2207=CARTESIAN_POINT('',(6.50000000000001,12.15,-10.15));
#2208=CARTESIAN_POINT('',(6.50000000000001,12.15,-10.15));
#2209=CARTESIAN_POINT('',(6.,12.15,-9.65));
#2210=CARTESIAN_POINT('',(6.,12.15,-10.15));
#2211=CARTESIAN_POINT('',(-6.,12.15,-10.15));
#2212=CARTESIAN_POINT('',(-6.,12.15,-9.65));
#2213=CARTESIAN_POINT('',(-5.99999999999999,12.15,-9.65));
#2214=CARTESIAN_POINT('',(-6.49999999999999,12.15,-10.15));
#2215=CARTESIAN_POINT('',(-6.,12.15,-10.15));
#2216=CARTESIAN_POINT('',(-7.5,12.15,-10.15));
#2217=CARTESIAN_POINT('',(-8.,12.15,-9.65));
#2218=CARTESIAN_POINT('',(-8.,12.15,-9.65));
#2219=CARTESIAN_POINT('',(-8.,12.15,-10.15));
#2220=CARTESIAN_POINT('',(-16.5,12.15,-8.15));
#2221=CARTESIAN_POINT('',(16.,12.15,8.15));
#2222=CARTESIAN_POINT('',(6.00000000000001,1.85,-8.15));
#2223=CARTESIAN_POINT('',(6.00000000000001,1.85,-9.65));
#2224=CARTESIAN_POINT('',(6.00000000000001,-9.15,-8.15));
#2225=CARTESIAN_POINT('',(6.00000000000001,1.85,-8.15));
#2226=CARTESIAN_POINT('',(6.00000000000001,-9.15,-8.15));
#2227=CARTESIAN_POINT('',(-5.99999999999999,-9.15,-8.15));
#2228=CARTESIAN_POINT('',(-5.99999999999999,-9.15,-8.15));
#2229=CARTESIAN_POINT('',(-5.99999999999999,12.15,-9.65));
#2230=CARTESIAN_POINT('',(-5.99999999999999,1.85,-8.15));
#2231=CARTESIAN_POINT('',(-5.99999999999999,1.85,-5.15));
#2232=CARTESIAN_POINT('',(-5.99999999999999,-3.05,-5.15));
#2233=CARTESIAN_POINT('',(-5.99999999999999,-3.05,-5.15));
#2234=CARTESIAN_POINT('',(-5.99999999999999,-3.05,-5.15));
#2235=CARTESIAN_POINT('',(-5.99999999999999,1.85,-8.15));
#2236=CARTESIAN_POINT('',(-2.30427904709978,1.85,-5.15));
#2237=CARTESIAN_POINT('',(-2.30427904709978,1.85,-5.15));
#2238=CARTESIAN_POINT('',(-2.30427904709978,1.85,-5.15));
#2239=CARTESIAN_POINT('',(11.8,-11.15,-3.15));
#2240=CARTESIAN_POINT('',(11.8,-11.15,-5.15));
#2241=CARTESIAN_POINT('',(11.8,-11.15,-3.15));
#2242=CARTESIAN_POINT('',(0.,0.,-3.15));
#2243=CARTESIAN_POINT('',(-15.,6.14999999999999,-3.15));
#2244=CARTESIAN_POINT('',(0.,0.,-5.15));
#2245=CARTESIAN_POINT('',(9.80000000000001,-11.15,-5.15));
#2246=CARTESIAN_POINT('',(9.80000000000001,-11.15,-5.15));
#2247=CARTESIAN_POINT('',(0.,0.,-5.15));
#2248=CARTESIAN_POINT('',(-9.3,-3.05,-5.15));
#2249=CARTESIAN_POINT('',(-2.30427904709978,3.94999999999999,-5.15));
#2250=CARTESIAN_POINT('',(-2.30427904709978,3.94999999999999,-5.15));
#2251=CARTESIAN_POINT('',(-9.3,-3.05,-5.15));
#2252=CARTESIAN_POINT('',(10.5,-11.15,8.15));
#2253=CARTESIAN_POINT('',(10.5,-12.15,-1.65));
#2254=CARTESIAN_POINT('',(10.5,-11.15,0.349999999999999));
#2255=CARTESIAN_POINT('',(7.50000000000001,-11.15,0.349999999999998));
#2256=CARTESIAN_POINT('',(-1.5,-11.15,0.349999999999997));
#2257=CARTESIAN_POINT('',(-1.5,-11.15,0.349999999999997));
#2258=CARTESIAN_POINT('',(15.,-11.15,4.85216944312481));
#2259=CARTESIAN_POINT('',(13.673346909436,-11.15,7.15));
#2260=CARTESIAN_POINT('',(13.673346909436,-11.15,7.15));
#2261=CARTESIAN_POINT('',(-15.,6.14999999999999,-3.15));
#2262=CARTESIAN_POINT('',(0.,0.,-10.15));
#2263=CARTESIAN_POINT('',(7.5,-12.15,-10.15));
#2264=CARTESIAN_POINT('',(6.50000000000001,1.02506387216812E-15,-10.15));
#2265=CARTESIAN_POINT('',(8.,12.15,-10.15));
#2266=CARTESIAN_POINT('',(8.,12.15,-9.65));
#2267=CARTESIAN_POINT('',(0.,0.,-10.15));
#2268=CARTESIAN_POINT('',(-7.5,12.15,-10.15));
#2269=CARTESIAN_POINT('',(-6.49999999999999,-12.15,-10.15));
#2270=CARTESIAN_POINT('',(-8.,12.15,-10.15));
#2271=CARTESIAN_POINT('',(-8.,-12.15,-9.65));
#2272=CARTESIAN_POINT('',(7.5,0.,-10.15));
#2273=CARTESIAN_POINT('',(6.50000000000001,1.02506387216812E-15,-10.15));
#2274=CARTESIAN_POINT('',(-8.,12.15,-9.65));
#2275=CARTESIAN_POINT('',(-5.99999999999999,-9.15,-9.65));
#2276=CARTESIAN_POINT('',(-15.5,0.,0.));
#2277=CARTESIAN_POINT('',(-15.5,-11.25,7.15));
#2278=CARTESIAN_POINT('',(-15.5,-11.25,5.17174706963329));
#2279=CARTESIAN_POINT('',(-14.3578551381276,-11.25,7.15));
#2280=CARTESIAN_POINT('',(-14.3578551381276,-11.25,7.15));
#2281=CARTESIAN_POINT('',(16.,10.75,-5.65));
#2282=CARTESIAN_POINT('',(16.,10.25,-4.15));
#2283=CARTESIAN_POINT('',(16.,12.25,-4.15));
#2284=CARTESIAN_POINT('',(16.,12.25,-4.15));
#2285=CARTESIAN_POINT('',(16.,-10.15,-4.15));
#2286=CARTESIAN_POINT('',(16.,-10.15,-4.15));
#2287=CARTESIAN_POINT('',(19.,-10.15,-4.15));
#2288=CARTESIAN_POINT('',(21.,-12.35,-4.15));
#2289=CARTESIAN_POINT('',(21.,12.25,-4.15));
#2290=CARTESIAN_POINT('',(21.2,12.25,-4.15));
#2291=CARTESIAN_POINT('',(21.2,10.25,-4.15));
#2292=CARTESIAN_POINT('',(19.,10.25,-4.15));
#2293=CARTESIAN_POINT('',(19.,-12.35,-4.15));
#2294=CARTESIAN_POINT('',(16.,-10.15,-6.15));
#2295=CARTESIAN_POINT('',(16.,-10.15,-6.15));
#2296=CARTESIAN_POINT('',(20.,-10.15,-6.15));
#2297=CARTESIAN_POINT('',(19.,-10.15,-6.15));
#2298=CARTESIAN_POINT('',(19.,-10.15,-5.15));
#2299=CARTESIAN_POINT('',(20.,-10.15,-5.15));
#2300=CARTESIAN_POINT('',(16.,-12.15,-6.15));
#2301=CARTESIAN_POINT('',(20.,-12.15,-6.15));
#2302=CARTESIAN_POINT('',(21.,-12.35,-4.15));
#2303=CARTESIAN_POINT('',(21.,-12.35,-5.15));
#2304=CARTESIAN_POINT('',(21.,12.25,-5.15000000000001));
#2305=CARTESIAN_POINT('',(21.,12.25,-4.15));
#2306=CARTESIAN_POINT('',(19.,-12.35,-6.15));
#2307=CARTESIAN_POINT('',(19.,10.25,-6.15));
#2308=CARTESIAN_POINT('',(19.,10.25,-5.15000000000001));
#2309=CARTESIAN_POINT('',(19.,-12.35,-5.15));
#2310=CARTESIAN_POINT('',(21.2,10.25,-6.15));
#2311=CARTESIAN_POINT('',(20.,10.25,-5.15000000000001));
#2312=CARTESIAN_POINT('',(21.2,12.25,-4.15));
#2313=CARTESIAN_POINT('',(20.,12.25,-5.15000000000001));
#2314=CARTESIAN_POINT('',(-16.5,-10.15,-4.15));
#2315=CARTESIAN_POINT('',(-16.5,-10.15,-4.15));
#2316=CARTESIAN_POINT('',(-19.5,-10.15,-4.15));
#2317=CARTESIAN_POINT('',(-19.5,-12.35,-4.15));
#2318=CARTESIAN_POINT('',(-19.5,10.25,-4.15));
#2319=CARTESIAN_POINT('',(-21.7,10.25,-4.15));
#2320=CARTESIAN_POINT('',(-16.5,10.25,-4.15));
#2321=CARTESIAN_POINT('',(-16.5,12.25,-4.15));
#2322=CARTESIAN_POINT('',(-21.7,12.25,-4.15));
#2323=CARTESIAN_POINT('',(-21.5,12.25,-4.15));
#2324=CARTESIAN_POINT('',(-21.5,-12.35,-4.15));
#2325=CARTESIAN_POINT('',(-16.5,-10.15,-6.15));
#2326=CARTESIAN_POINT('',(-16.5,-10.15,-6.15));
#2327=CARTESIAN_POINT('',(-20.5,-10.15,-6.15));
#2328=CARTESIAN_POINT('',(-20.5,-10.15,-5.15));
#2329=CARTESIAN_POINT('',(-19.5,-10.15,-5.15));
#2330=CARTESIAN_POINT('',(-19.5,-10.15,-6.15));
#2331=CARTESIAN_POINT('',(-16.5,-12.15,-6.15));
#2332=CARTESIAN_POINT('',(-20.5,-12.15,-6.15));
#2333=CARTESIAN_POINT('',(-21.5,-12.35,-4.15));
#2334=CARTESIAN_POINT('',(-21.5,12.25,-4.15));
#2335=CARTESIAN_POINT('',(-21.5,12.25,-5.15));
#2336=CARTESIAN_POINT('',(-21.5,-12.35,-5.15));
#2337=CARTESIAN_POINT('',(-19.5,-12.35,-6.15));
#2338=CARTESIAN_POINT('',(-19.5,-12.35,-5.15));
#2339=CARTESIAN_POINT('',(-19.5,10.25,-5.15));
#2340=CARTESIAN_POINT('',(-19.5,10.25,-6.15));
#2341=CARTESIAN_POINT('',(-21.7,10.25,-6.15));
#2342=CARTESIAN_POINT('',(-20.5,10.25,-5.15));
#2343=CARTESIAN_POINT('',(-21.7,12.25,-4.15));
#2344=CARTESIAN_POINT('',(-20.5,12.25,-5.15));
#2345=CARTESIAN_POINT('',(-16.5,12.25,-4.15));
#2346=CARTESIAN_POINT('',(-16.5,10.75,-5.65));
#2347=CARTESIAN_POINT('',(7.50000000000001,-11.15,-1.65));
#2348=CARTESIAN_POINT('',(7.50000000000001,-11.15,-1.65));
#2349=CARTESIAN_POINT('',(1.78893358460108E-16,1.93956567885678E-32,-1.65));
#2350=CARTESIAN_POINT('',(-20.5,-12.15,-5.15));
#2351=CARTESIAN_POINT('',(20.,-12.15,-5.15));
#2352=MECHANICAL_DESIGN_GEOMETRIC_PRESENTATION_REPRESENTATION('',(#1485),
#2353);
#2353=(
GEOMETRIC_REPRESENTATION_CONTEXT(3)
GLOBAL_UNCERTAINTY_ASSIGNED_CONTEXT((#2354))
GLOBAL_UNIT_ASSIGNED_CONTEXT((#2357,#2356,#2355))
REPRESENTATION_CONTEXT('PrintNormal','TOP_LEVEL_ASSEMBLY_PART')
);
#2354=UNCERTAINTY_MEASURE_WITH_UNIT(LENGTH_MEASURE(0.005),#2357,
'DISTANCE_ACCURACY_VALUE','Maximum Tolerance applied to model');
#2355=(
NAMED_UNIT(*)
SI_UNIT($,.STERADIAN.)
SOLID_ANGLE_UNIT()
);
#2356=(
NAMED_UNIT(*)
PLANE_ANGLE_UNIT()
SI_UNIT($,.RADIAN.)
);
#2357=(
LENGTH_UNIT()
NAMED_UNIT(*)
SI_UNIT(.MILLI.,.METRE.)
);
#2358=PRODUCT_DEFINITION_SHAPE('','',#2359);
#2359=PRODUCT_DEFINITION('','',#2361,#2360);
#2360=PRODUCT_DEFINITION_CONTEXT('',#2367,'design');
#2361=PRODUCT_DEFINITION_FORMATION_WITH_SPECIFIED_SOURCE('','',#2363,
 .NOT_KNOWN.);
#2362=PRODUCT_RELATED_PRODUCT_CATEGORY('','',(#2363));
#2363=PRODUCT('PrintNormal','PrintNormal','PrintNormal',(#2365));
#2364=PRODUCT_CATEGORY('','');
#2365=PRODUCT_CONTEXT('',#2367,'mechanical');
#2366=APPLICATION_PROTOCOL_DEFINITION('international standard',
'automotive_design',2010,#2367);
#2367=APPLICATION_CONTEXT(
'core data for automotive mechanical design processes');
ENDSEC;
END-ISO-10303-21;
