ISO-10303-21;
HEADER;
/* Generated by software containing ST-Developer
 * from STEP Tools, Inc. (www.steptools.com) 
 */
/* OPTION: strings as raw bytes, not using required /X/ escapes */

FILE_DESCRIPTION(
/* description */ ('Unknown'),
/* implementation_level */ '2;1');

FILE_NAME(
/* name */ 'LidNormal_MoreBatSpace',
/* time_stamp */ '2026-05-08T17:17:35+02:00',
/* author */ ('Unknown'),
/* organization */ ('Unknown'),
/* preprocessor_version */ 'ST-DEVELOPER v19.4',
/* originating_system */ 'Solid Edge',
/* authorisation */ 'Unknown');

FILE_SCHEMA (('AUTOMOTIVE_DESIGN {1 0 10303 214 3 1 1}'));
ENDSEC;

DATA;
#10=PROPERTY_DEFINITION_REPRESENTATION(#14,#12);
#11=PROPERTY_DEFINITION_REPRESENTATION(#15,#13);
#12=REPRESENTATION('',(#16),#449);
#13=REPRESENTATION('',(#17),#449);
#14=PROPERTY_DEFINITION('pmi validation property','',#454);
#15=PROPERTY_DEFINITION('pmi validation property','',#454);
#16=VALUE_REPRESENTATION_ITEM('number of annotations',COUNT_MEASURE(0.));
#17=VALUE_REPRESENTATION_ITEM('number of views',COUNT_MEASURE(0.));
#18=SHAPE_REPRESENTATION_RELATIONSHIP('','',#291,#19);
#19=ADVANCED_BREP_SHAPE_REPRESENTATION('',(#289),#449);
#20=ORIENTED_EDGE('',*,*,#92,.T.);
#21=ORIENTED_EDGE('',*,*,#93,.T.);
#22=ORIENTED_EDGE('',*,*,#94,.T.);
#23=ORIENTED_EDGE('',*,*,#95,.T.);
#24=ORIENTED_EDGE('',*,*,#96,.F.);
#25=ORIENTED_EDGE('',*,*,#97,.T.);
#26=ORIENTED_EDGE('',*,*,#96,.T.);
#27=ORIENTED_EDGE('',*,*,#98,.T.);
#28=ORIENTED_EDGE('',*,*,#99,.T.);
#29=ORIENTED_EDGE('',*,*,#100,.T.);
#30=ORIENTED_EDGE('',*,*,#101,.T.);
#31=ORIENTED_EDGE('',*,*,#102,.T.);
#32=ORIENTED_EDGE('',*,*,#103,.T.);
#33=ORIENTED_EDGE('',*,*,#104,.T.);
#34=ORIENTED_EDGE('',*,*,#105,.T.);
#35=ORIENTED_EDGE('',*,*,#106,.T.);
#36=ORIENTED_EDGE('',*,*,#107,.T.);
#37=ORIENTED_EDGE('',*,*,#108,.F.);
#38=ORIENTED_EDGE('',*,*,#101,.F.);
#39=ORIENTED_EDGE('',*,*,#109,.F.);
#40=ORIENTED_EDGE('',*,*,#110,.T.);
#41=ORIENTED_EDGE('',*,*,#111,.F.);
#42=ORIENTED_EDGE('',*,*,#102,.F.);
#43=ORIENTED_EDGE('',*,*,#108,.T.);
#44=ORIENTED_EDGE('',*,*,#112,.T.);
#45=ORIENTED_EDGE('',*,*,#113,.F.);
#46=ORIENTED_EDGE('',*,*,#103,.F.);
#47=ORIENTED_EDGE('',*,*,#111,.T.);
#48=ORIENTED_EDGE('',*,*,#114,.T.);
#49=ORIENTED_EDGE('',*,*,#97,.F.);
#50=ORIENTED_EDGE('',*,*,#104,.F.);
#51=ORIENTED_EDGE('',*,*,#113,.T.);
#52=ORIENTED_EDGE('',*,*,#92,.F.);
#53=ORIENTED_EDGE('',*,*,#114,.F.);
#54=ORIENTED_EDGE('',*,*,#112,.F.);
#55=ORIENTED_EDGE('',*,*,#110,.F.);
#56=ORIENTED_EDGE('',*,*,#107,.F.);
#57=ORIENTED_EDGE('',*,*,#115,.F.);
#58=ORIENTED_EDGE('',*,*,#116,.T.);
#59=ORIENTED_EDGE('',*,*,#117,.T.);
#60=ORIENTED_EDGE('',*,*,#98,.F.);
#61=ORIENTED_EDGE('',*,*,#95,.F.);
#62=ORIENTED_EDGE('',*,*,#118,.T.);
#63=ORIENTED_EDGE('',*,*,#119,.T.);
#64=ORIENTED_EDGE('',*,*,#99,.F.);
#65=ORIENTED_EDGE('',*,*,#119,.F.);
#66=ORIENTED_EDGE('',*,*,#120,.T.);
#67=ORIENTED_EDGE('',*,*,#121,.T.);
#68=ORIENTED_EDGE('',*,*,#100,.F.);
#69=ORIENTED_EDGE('',*,*,#121,.F.);
#70=ORIENTED_EDGE('',*,*,#122,.T.);
#71=ORIENTED_EDGE('',*,*,#109,.T.);
#72=ORIENTED_EDGE('',*,*,#105,.F.);
#73=ORIENTED_EDGE('',*,*,#122,.F.);
#74=ORIENTED_EDGE('',*,*,#120,.F.);
#75=ORIENTED_EDGE('',*,*,#118,.F.);
#76=ORIENTED_EDGE('',*,*,#94,.F.);
#77=ORIENTED_EDGE('',*,*,#123,.F.);
#78=ORIENTED_EDGE('',*,*,#124,.T.);
#79=ORIENTED_EDGE('',*,*,#125,.T.);
#80=ORIENTED_EDGE('',*,*,#93,.F.);
#81=ORIENTED_EDGE('',*,*,#117,.F.);
#82=ORIENTED_EDGE('',*,*,#126,.T.);
#83=ORIENTED_EDGE('',*,*,#123,.T.);
#84=ORIENTED_EDGE('',*,*,#106,.F.);
#85=ORIENTED_EDGE('',*,*,#125,.F.);
#86=ORIENTED_EDGE('',*,*,#127,.T.);
#87=ORIENTED_EDGE('',*,*,#115,.T.);
#88=ORIENTED_EDGE('',*,*,#116,.F.);
#89=ORIENTED_EDGE('',*,*,#127,.F.);
#90=ORIENTED_EDGE('',*,*,#124,.F.);
#91=ORIENTED_EDGE('',*,*,#126,.F.);
#92=EDGE_CURVE('',#128,#129,#152,.T.);
#93=EDGE_CURVE('',#129,#130,#153,.T.);
#94=EDGE_CURVE('',#130,#131,#154,.T.);
#95=EDGE_CURVE('',#131,#132,#155,.T.);
#96=EDGE_CURVE('',#133,#132,#156,.T.);
#97=EDGE_CURVE('',#133,#128,#157,.T.);
#98=EDGE_CURVE('',#132,#134,#158,.T.);
#99=EDGE_CURVE('',#134,#135,#159,.T.);
#100=EDGE_CURVE('',#135,#136,#160,.T.);
#101=EDGE_CURVE('',#136,#137,#161,.T.);
#102=EDGE_CURVE('',#137,#138,#162,.T.);
#103=EDGE_CURVE('',#138,#139,#163,.T.);
#104=EDGE_CURVE('',#139,#133,#164,.T.);
#105=EDGE_CURVE('',#140,#141,#165,.T.);
#106=EDGE_CURVE('',#141,#142,#166,.T.);
#107=EDGE_CURVE('',#142,#143,#167,.T.);
#108=EDGE_CURVE('',#137,#143,#168,.T.);
#109=EDGE_CURVE('',#140,#136,#169,.T.);
#110=EDGE_CURVE('',#143,#144,#170,.T.);
#111=EDGE_CURVE('',#138,#144,#171,.T.);
#112=EDGE_CURVE('',#144,#145,#172,.T.);
#113=EDGE_CURVE('',#139,#145,#173,.T.);
#114=EDGE_CURVE('',#145,#128,#174,.T.);
#115=EDGE_CURVE('',#146,#142,#175,.T.);
#116=EDGE_CURVE('',#146,#147,#176,.T.);
#117=EDGE_CURVE('',#147,#129,#177,.T.);
#118=EDGE_CURVE('',#131,#148,#178,.T.);
#119=EDGE_CURVE('',#148,#134,#179,.T.);
#120=EDGE_CURVE('',#148,#149,#180,.T.);
#121=EDGE_CURVE('',#149,#135,#181,.T.);
#122=EDGE_CURVE('',#149,#140,#182,.T.);
#123=EDGE_CURVE('',#150,#130,#183,.T.);
#124=EDGE_CURVE('',#150,#151,#184,.T.);
#125=EDGE_CURVE('',#151,#141,#185,.T.);
#126=EDGE_CURVE('',#147,#150,#186,.T.);
#127=EDGE_CURVE('',#151,#146,#187,.T.);
#128=VERTEX_POINT('',#376);
#129=VERTEX_POINT('',#377);
#130=VERTEX_POINT('',#379);
#131=VERTEX_POINT('',#381);
#132=VERTEX_POINT('',#383);
#133=VERTEX_POINT('',#385);
#134=VERTEX_POINT('',#389);
#135=VERTEX_POINT('',#391);
#136=VERTEX_POINT('',#393);
#137=VERTEX_POINT('',#395);
#138=VERTEX_POINT('',#397);
#139=VERTEX_POINT('',#399);
#140=VERTEX_POINT('',#403);
#141=VERTEX_POINT('',#404);
#142=VERTEX_POINT('',#406);
#143=VERTEX_POINT('',#408);
#144=VERTEX_POINT('',#413);
#145=VERTEX_POINT('',#417);
#146=VERTEX_POINT('',#423);
#147=VERTEX_POINT('',#425);
#148=VERTEX_POINT('',#429);
#149=VERTEX_POINT('',#433);
#150=VERTEX_POINT('',#439);
#151=VERTEX_POINT('',#441);
#152=LINE('',#375,#188);
#153=LINE('',#378,#189);
#154=LINE('',#380,#190);
#155=LINE('',#382,#191);
#156=LINE('',#384,#192);
#157=LINE('',#386,#193);
#158=LINE('',#388,#194);
#159=LINE('',#390,#195);
#160=LINE('',#392,#196);
#161=LINE('',#394,#197);
#162=LINE('',#396,#198);
#163=LINE('',#398,#199);
#164=LINE('',#400,#200);
#165=LINE('',#402,#201);
#166=LINE('',#405,#202);
#167=LINE('',#407,#203);
#168=LINE('',#409,#204);
#169=LINE('',#410,#205);
#170=LINE('',#412,#206);
#171=LINE('',#414,#207);
#172=LINE('',#416,#208);
#173=LINE('',#418,#209);
#174=LINE('',#420,#210);
#175=LINE('',#422,#211);
#176=LINE('',#424,#212);
#177=LINE('',#426,#213);
#178=LINE('',#428,#214);
#179=LINE('',#430,#215);
#180=LINE('',#432,#216);
#181=LINE('',#434,#217);
#182=LINE('',#436,#218);
#183=LINE('',#438,#219);
#184=LINE('',#440,#220);
#185=LINE('',#442,#221);
#186=LINE('',#444,#222);
#187=LINE('',#446,#223);
#188=VECTOR('',#311,1000.);
#189=VECTOR('',#312,1000.);
#190=VECTOR('',#313,1000.);
#191=VECTOR('',#314,1000.);
#192=VECTOR('',#315,1000.);
#193=VECTOR('',#316,1000.);
#194=VECTOR('',#319,1000.);
#195=VECTOR('',#320,1000.);
#196=VECTOR('',#321,1000.);
#197=VECTOR('',#322,1000.);
#198=VECTOR('',#323,1000.);
#199=VECTOR('',#324,1000.);
#200=VECTOR('',#325,1000.);
#201=VECTOR('',#328,1000.);
#202=VECTOR('',#329,1000.);
#203=VECTOR('',#330,1000.);
#204=VECTOR('',#331,1000.);
#205=VECTOR('',#332,1000.);
#206=VECTOR('',#335,1000.);
#207=VECTOR('',#336,1000.);
#208=VECTOR('',#339,1000.);
#209=VECTOR('',#340,1000.);
#210=VECTOR('',#343,1000.);
#211=VECTOR('',#346,1000.);
#212=VECTOR('',#347,1000.);
#213=VECTOR('',#348,1000.);
#214=VECTOR('',#351,1000.);
#215=VECTOR('',#352,1000.);
#216=VECTOR('',#355,1000.);
#217=VECTOR('',#356,1000.);
#218=VECTOR('',#359,1000.);
#219=VECTOR('',#362,1000.);
#220=VECTOR('',#363,1000.);
#221=VECTOR('',#364,1000.);
#222=VECTOR('',#367,1000.);
#223=VECTOR('',#370,1000.);
#224=EDGE_LOOP('',(#20,#21,#22,#23,#24,#25));
#225=EDGE_LOOP('',(#26,#27,#28,#29,#30,#31,#32,#33));
#226=EDGE_LOOP('',(#34,#35,#36,#37,#38,#39));
#227=EDGE_LOOP('',(#40,#41,#42,#43));
#228=EDGE_LOOP('',(#44,#45,#46,#47));
#229=EDGE_LOOP('',(#48,#49,#50,#51));
#230=EDGE_LOOP('',(#52,#53,#54,#55,#56,#57,#58,#59));
#231=EDGE_LOOP('',(#60,#61,#62,#63));
#232=EDGE_LOOP('',(#64,#65,#66,#67));
#233=EDGE_LOOP('',(#68,#69,#70,#71));
#234=EDGE_LOOP('',(#72,#73,#74,#75,#76,#77,#78,#79));
#235=EDGE_LOOP('',(#80,#81,#82,#83));
#236=EDGE_LOOP('',(#84,#85,#86,#87));
#237=EDGE_LOOP('',(#88,#89,#90,#91));
#238=FACE_BOUND('',#224,.T.);
#239=FACE_BOUND('',#225,.T.);
#240=FACE_BOUND('',#226,.T.);
#241=FACE_BOUND('',#227,.T.);
#242=FACE_BOUND('',#228,.T.);
#243=FACE_BOUND('',#229,.T.);
#244=FACE_BOUND('',#230,.T.);
#245=FACE_BOUND('',#231,.T.);
#246=FACE_BOUND('',#232,.T.);
#247=FACE_BOUND('',#233,.T.);
#248=FACE_BOUND('',#234,.T.);
#249=FACE_BOUND('',#235,.T.);
#250=FACE_BOUND('',#236,.T.);
#251=FACE_BOUND('',#237,.T.);
#252=PLANE('',#293);
#253=PLANE('',#294);
#254=PLANE('',#295);
#255=PLANE('',#296);
#256=PLANE('',#297);
#257=PLANE('',#298);
#258=PLANE('',#299);
#259=PLANE('',#300);
#260=PLANE('',#301);
#261=PLANE('',#302);
#262=PLANE('',#303);
#263=PLANE('',#304);
#264=PLANE('',#305);
#265=PLANE('',#306);
#266=ADVANCED_FACE('',(#238),#252,.F.);
#267=ADVANCED_FACE('',(#239),#253,.T.);
#268=ADVANCED_FACE('',(#240),#254,.F.);
#269=ADVANCED_FACE('',(#241),#255,.F.);
#270=ADVANCED_FACE('',(#242),#256,.F.);
#271=ADVANCED_FACE('',(#243),#257,.F.);
#272=ADVANCED_FACE('',(#244),#258,.F.);
#273=ADVANCED_FACE('',(#245),#259,.T.);
#274=ADVANCED_FACE('',(#246),#260,.T.);
#275=ADVANCED_FACE('',(#247),#261,.T.);
#276=ADVANCED_FACE('',(#248),#262,.F.);
#277=ADVANCED_FACE('',(#249),#263,.T.);
#278=ADVANCED_FACE('',(#250),#264,.T.);
#279=ADVANCED_FACE('',(#251),#265,.F.);
#280=CLOSED_SHELL('',(#266,#267,#268,#269,#270,#271,#272,#273,#274,#275,
#276,#277,#278,#279));
#281=STYLED_ITEM('',(#282),#289);
#282=PRESENTATION_STYLE_ASSIGNMENT((#283));
#283=SURFACE_STYLE_USAGE(.BOTH.,#284);
#284=SURFACE_SIDE_STYLE('',(#285));
#285=SURFACE_STYLE_FILL_AREA(#286);
#286=FILL_AREA_STYLE('',(#287));
#287=FILL_AREA_STYLE_COLOUR('',#288);
#288=COLOUR_RGB('',0.506983280181885,0.531564235687256,0.550000011920929);
#289=MANIFOLD_SOLID_BREP('',#280);
#290=SHAPE_DEFINITION_REPRESENTATION(#454,#291);
#291=SHAPE_REPRESENTATION('Part3',(#292),#449);
#292=AXIS2_PLACEMENT_3D('',#373,#307,#308);
#293=AXIS2_PLACEMENT_3D('',#374,#309,#310);
#294=AXIS2_PLACEMENT_3D('',#387,#317,#318);
#295=AXIS2_PLACEMENT_3D('',#401,#326,#327);
#296=AXIS2_PLACEMENT_3D('',#411,#333,#334);
#297=AXIS2_PLACEMENT_3D('',#415,#337,#338);
#298=AXIS2_PLACEMENT_3D('',#419,#341,#342);
#299=AXIS2_PLACEMENT_3D('',#421,#344,#345);
#300=AXIS2_PLACEMENT_3D('',#427,#349,#350);
#301=AXIS2_PLACEMENT_3D('',#431,#353,#354);
#302=AXIS2_PLACEMENT_3D('',#435,#357,#358);
#303=AXIS2_PLACEMENT_3D('',#437,#360,#361);
#304=AXIS2_PLACEMENT_3D('',#443,#365,#366);
#305=AXIS2_PLACEMENT_3D('',#445,#368,#369);
#306=AXIS2_PLACEMENT_3D('',#447,#371,#372);
#307=DIRECTION('',(0.,0.,1.));
#308=DIRECTION('',(1.,0.,0.));
#309=DIRECTION('',(0.,1.,0.));
#310=DIRECTION('',(0.,0.,1.));
#311=DIRECTION('',(1.,0.,0.));
#312=DIRECTION('',(0.,0.,1.));
#313=DIRECTION('',(-1.,0.,0.));
#314=DIRECTION('',(0.,0.,-1.));
#315=DIRECTION('',(1.,0.,0.));
#316=DIRECTION('',(0.,0.,-1.));
#317=DIRECTION('',(0.,0.,1.));
#318=DIRECTION('',(1.,0.,0.));
#319=DIRECTION('',(0.,1.,0.));
#320=DIRECTION('',(1.,0.,0.));
#321=DIRECTION('',(-8.67361737988405E-16,-1.,0.));
#322=DIRECTION('',(1.,0.,0.));
#323=DIRECTION('',(0.,1.,0.));
#324=DIRECTION('',(-1.,0.,0.));
#325=DIRECTION('',(0.,-1.,0.));
#326=DIRECTION('',(0.,1.,0.));
#327=DIRECTION('',(0.,0.,1.));
#328=DIRECTION('',(-1.,0.,0.));
#329=DIRECTION('',(0.,0.,-1.));
#330=DIRECTION('',(1.,0.,0.));
#331=DIRECTION('',(0.,0.,-1.));
#332=DIRECTION('',(0.,0.,-1.));
#333=DIRECTION('',(-1.,0.,0.));
#334=DIRECTION('',(0.,0.,1.));
#335=DIRECTION('',(0.,1.,0.));
#336=DIRECTION('',(0.,0.,-1.));
#337=DIRECTION('',(0.,-1.,0.));
#338=DIRECTION('',(0.,0.,-1.));
#339=DIRECTION('',(-1.,0.,0.));
#340=DIRECTION('',(0.,0.,-1.));
#341=DIRECTION('',(1.,0.,0.));
#342=DIRECTION('',(0.,0.,-1.));
#343=DIRECTION('',(0.,-1.,0.));
#344=DIRECTION('',(0.,0.,1.));
#345=DIRECTION('',(1.,0.,0.));
#346=DIRECTION('',(0.,1.,0.));
#347=DIRECTION('',(-1.,0.,0.));
#348=DIRECTION('',(0.,1.,0.));
#349=DIRECTION('',(-1.,0.,0.));
#350=DIRECTION('',(0.,0.,1.));
#351=DIRECTION('',(0.,1.,0.));
#352=DIRECTION('',(0.,0.,-1.));
#353=DIRECTION('',(0.,1.,0.));
#354=DIRECTION('',(0.,0.,1.));
#355=DIRECTION('',(1.,0.,0.));
#356=DIRECTION('',(0.,0.,-1.));
#357=DIRECTION('',(1.,-8.67361737988405E-16,0.));
#358=DIRECTION('',(8.67361737988405E-16,1.,0.));
#359=DIRECTION('',(-8.67361737988405E-16,-1.,0.));
#360=DIRECTION('',(0.,0.,-1.));
#361=DIRECTION('',(-1.,0.,0.));
#362=DIRECTION('',(0.,1.,0.));
#363=DIRECTION('',(1.,0.,0.));
#364=DIRECTION('',(0.,1.,0.));
#365=DIRECTION('',(-1.,0.,0.));
#366=DIRECTION('',(0.,0.,1.));
#367=DIRECTION('',(0.,0.,1.));
#368=DIRECTION('',(1.,0.,0.));
#369=DIRECTION('',(0.,0.,-1.));
#370=DIRECTION('',(0.,0.,-1.));
#371=DIRECTION('',(0.,1.,0.));
#372=DIRECTION('',(0.,0.,1.));
#373=CARTESIAN_POINT('',(0.,0.,0.));
#374=CARTESIAN_POINT('',(-15.,-11.15,1.));
#375=CARTESIAN_POINT('',(-15.,-11.15,0.));
#376=CARTESIAN_POINT('',(-15.,-11.15,0.));
#377=CARTESIAN_POINT('',(-10.5,-11.15,0.));
#378=CARTESIAN_POINT('',(-10.5,-11.15,0.));
#379=CARTESIAN_POINT('',(-10.5,-11.15,4.));
#380=CARTESIAN_POINT('',(13.75,-11.15,4.));
#381=CARTESIAN_POINT('',(-13.75,-11.15,4.));
#382=CARTESIAN_POINT('',(-13.75,-11.15,4.));
#383=CARTESIAN_POINT('',(-13.75,-11.15,1.));
#384=CARTESIAN_POINT('',(-15.,-11.15,1.));
#385=CARTESIAN_POINT('',(-15.,-11.15,1.));
#386=CARTESIAN_POINT('',(-15.,-11.15,1.));
#387=CARTESIAN_POINT('',(0.,0.,1.));
#388=CARTESIAN_POINT('',(-13.75,-11.15,1.));
#389=CARTESIAN_POINT('',(-13.75,-9.15,1.));
#390=CARTESIAN_POINT('',(-13.75,-9.15,1.));
#391=CARTESIAN_POINT('',(13.75,-9.15,1.));
#392=CARTESIAN_POINT('',(13.75,-9.15,1.));
#393=CARTESIAN_POINT('',(13.75,-11.15,1.));
#394=CARTESIAN_POINT('',(-15.,-11.15,1.));
#395=CARTESIAN_POINT('',(15.,-11.15,1.));
#396=CARTESIAN_POINT('',(15.,-11.15,1.));
#397=CARTESIAN_POINT('',(15.,11.15,1.));
#398=CARTESIAN_POINT('',(15.,11.15,1.));
#399=CARTESIAN_POINT('',(-15.,11.15,1.));
#400=CARTESIAN_POINT('',(-15.,11.15,1.));
#401=CARTESIAN_POINT('',(-15.,-11.15,1.));
#402=CARTESIAN_POINT('',(13.75,-11.15,4.));
#403=CARTESIAN_POINT('',(13.75,-11.15,4.));
#404=CARTESIAN_POINT('',(1.5,-11.15,4.));
#405=CARTESIAN_POINT('',(1.5,-11.15,4.));
#406=CARTESIAN_POINT('',(1.5,-11.15,0.));
#407=CARTESIAN_POINT('',(-15.,-11.15,0.));
#408=CARTESIAN_POINT('',(15.,-11.15,0.));
#409=CARTESIAN_POINT('',(15.,-11.15,1.));
#410=CARTESIAN_POINT('',(13.75,-11.15,4.));
#411=CARTESIAN_POINT('',(15.,-11.15,1.));
#412=CARTESIAN_POINT('',(15.,-11.15,0.));
#413=CARTESIAN_POINT('',(15.,11.15,0.));
#414=CARTESIAN_POINT('',(15.,11.15,1.));
#415=CARTESIAN_POINT('',(15.,11.15,1.));
#416=CARTESIAN_POINT('',(15.,11.15,0.));
#417=CARTESIAN_POINT('',(-15.,11.15,0.));
#418=CARTESIAN_POINT('',(-15.,11.15,1.));
#419=CARTESIAN_POINT('',(-15.,11.15,1.));
#420=CARTESIAN_POINT('',(-15.,11.15,0.));
#421=CARTESIAN_POINT('',(0.,0.,0.));
#422=CARTESIAN_POINT('',(1.5,-12.15,0.));
#423=CARTESIAN_POINT('',(1.5,-12.15,0.));
#424=CARTESIAN_POINT('',(1.5,-12.15,0.));
#425=CARTESIAN_POINT('',(-10.5,-12.15,0.));
#426=CARTESIAN_POINT('',(-10.5,-12.15,0.));
#427=CARTESIAN_POINT('',(-13.75,-11.15,4.));
#428=CARTESIAN_POINT('',(-13.75,-11.15,4.));
#429=CARTESIAN_POINT('',(-13.75,-9.15,4.));
#430=CARTESIAN_POINT('',(-13.75,-9.15,4.));
#431=CARTESIAN_POINT('',(-13.75,-9.15,4.));
#432=CARTESIAN_POINT('',(-13.75,-9.15,4.));
#433=CARTESIAN_POINT('',(13.75,-9.15,4.));
#434=CARTESIAN_POINT('',(13.75,-9.15,4.));
#435=CARTESIAN_POINT('',(13.75,-9.15,4.));
#436=CARTESIAN_POINT('',(13.75,-9.15,4.));
#437=CARTESIAN_POINT('',(0.,0.,4.));
#438=CARTESIAN_POINT('',(-10.5,-12.15,4.));
#439=CARTESIAN_POINT('',(-10.5,-12.15,4.));
#440=CARTESIAN_POINT('',(-10.5,-12.15,4.));
#441=CARTESIAN_POINT('',(1.5,-12.15,4.));
#442=CARTESIAN_POINT('',(1.5,-12.15,4.));
#443=CARTESIAN_POINT('',(-10.5,-12.15,0.));
#444=CARTESIAN_POINT('',(-10.5,-12.15,0.));
#445=CARTESIAN_POINT('',(1.5,-12.15,4.));
#446=CARTESIAN_POINT('',(1.5,-12.15,4.));
#447=CARTESIAN_POINT('',(0.,-12.15,0.));
#448=MECHANICAL_DESIGN_GEOMETRIC_PRESENTATION_REPRESENTATION('',(#281),
#449);
#449=(
GEOMETRIC_REPRESENTATION_CONTEXT(3)
GLOBAL_UNCERTAINTY_ASSIGNED_CONTEXT((#450))
GLOBAL_UNIT_ASSIGNED_CONTEXT((#453,#452,#451))
REPRESENTATION_CONTEXT('Part3','TOP_LEVEL_ASSEMBLY_PART')
);
#450=UNCERTAINTY_MEASURE_WITH_UNIT(LENGTH_MEASURE(0.005),#453,
'DISTANCE_ACCURACY_VALUE','Maximum Tolerance applied to model');
#451=(
NAMED_UNIT(*)
SI_UNIT($,.STERADIAN.)
SOLID_ANGLE_UNIT()
);
#452=(
NAMED_UNIT(*)
PLANE_ANGLE_UNIT()
SI_UNIT($,.RADIAN.)
);
#453=(
LENGTH_UNIT()
NAMED_UNIT(*)
SI_UNIT(.MILLI.,.METRE.)
);
#454=PRODUCT_DEFINITION_SHAPE('','',#455);
#455=PRODUCT_DEFINITION('','',#457,#456);
#456=PRODUCT_DEFINITION_CONTEXT('',#463,'design');
#457=PRODUCT_DEFINITION_FORMATION_WITH_SPECIFIED_SOURCE('','',#459,
 .NOT_KNOWN.);
#458=PRODUCT_RELATED_PRODUCT_CATEGORY('','',(#459));
#459=PRODUCT('Part3','Part3','Part3',(#461));
#460=PRODUCT_CATEGORY('','');
#461=PRODUCT_CONTEXT('',#463,'mechanical');
#462=APPLICATION_PROTOCOL_DEFINITION('international standard',
'automotive_design',2010,#463);
#463=APPLICATION_CONTEXT(
'core data for automotive mechanical design processes');
ENDSEC;
END-ISO-10303-21;
