%TF.GenerationSoftware,KiCad,Pcbnew,9.0.4*%
%TF.CreationDate,2026-03-23T00:36:48+01:00*%
%TF.ProjectId,mmWave-Shield,6d6d5761-7665-42d5-9368-69656c642e6b,rev?*%
%TF.SameCoordinates,Original*%
%TF.FileFunction,Copper,L4,Bot*%
%TF.FilePolarity,Positive*%
%FSLAX46Y46*%
G04 Gerber Fmt 4.6, Leading zero omitted, Abs format (unit mm)*
G04 Created by KiCad (PCBNEW 9.0.4) date 2026-03-23 00:36:48*
%MOMM*%
%LPD*%
G01*
G04 APERTURE LIST*
G04 Aperture macros list*
%AMRoundRect*
0 Rectangle with rounded corners*
0 $1 Rounding radius*
0 $2 $3 $4 $5 $6 $7 $8 $9 X,Y pos of 4 corners*
0 Add a 4 corners polygon primitive as box body*
4,1,4,$2,$3,$4,$5,$6,$7,$8,$9,$2,$3,0*
0 Add four circle primitives for the rounded corners*
1,1,$1+$1,$2,$3*
1,1,$1+$1,$4,$5*
1,1,$1+$1,$6,$7*
1,1,$1+$1,$8,$9*
0 Add four rect primitives between the rounded corners*
20,1,$1+$1,$2,$3,$4,$5,0*
20,1,$1+$1,$4,$5,$6,$7,0*
20,1,$1+$1,$6,$7,$8,$9,0*
20,1,$1+$1,$8,$9,$2,$3,0*%
G04 Aperture macros list end*
%TA.AperFunction,SMDPad,CuDef*%
%ADD10RoundRect,0.050000X0.300000X-0.050000X0.300000X0.050000X-0.300000X0.050000X-0.300000X-0.050000X0*%
%TD*%
%TA.AperFunction,SMDPad,CuDef*%
%ADD11RoundRect,0.050000X-0.300000X0.050000X-0.300000X-0.050000X0.300000X-0.050000X0.300000X0.050000X0*%
%TD*%
%TA.AperFunction,ViaPad*%
%ADD12C,1.300000*%
%TD*%
%TA.AperFunction,ViaPad*%
%ADD13C,0.400000*%
%TD*%
%TA.AperFunction,Conductor*%
%ADD14C,0.150000*%
%TD*%
%TA.AperFunction,Conductor*%
%ADD15C,0.250000*%
%TD*%
%TA.AperFunction,Conductor*%
%ADD16C,0.400000*%
%TD*%
%TA.AperFunction,Conductor*%
%ADD17C,0.156000*%
%TD*%
%TA.AperFunction,Conductor*%
%ADD18C,0.200000*%
%TD*%
G04 APERTURE END LIST*
D10*
%TO.P,J4,1,1*%
%TO.N,unconnected-(J4-Pad1)*%
X141140000Y-95300000D03*
%TO.P,J4,2,2*%
%TO.N,unconnected-(J4-Pad2)*%
X138060000Y-95300000D03*
%TO.P,J4,3,3*%
%TO.N,unconnected-(J4-Pad3)*%
X141140000Y-95700000D03*
%TO.P,J4,4,4*%
%TO.N,unconnected-(J4-Pad4)*%
X138060000Y-95700000D03*
%TO.P,J4,5,5*%
%TO.N,unconnected-(J4-Pad5)*%
X141140000Y-96100000D03*
%TO.P,J4,6,6*%
%TO.N,unconnected-(J4-Pad6)*%
X138060000Y-96100000D03*
%TO.P,J4,7,7*%
%TO.N,unconnected-(J4-Pad7)*%
X141140000Y-96500000D03*
%TO.P,J4,8,8*%
%TO.N,unconnected-(J4-Pad8)*%
X138060000Y-96500000D03*
%TO.P,J4,9,9*%
%TO.N,unconnected-(J4-Pad9)*%
X141140000Y-96900000D03*
%TO.P,J4,10,10*%
%TO.N,unconnected-(J4-Pad10)*%
X138060000Y-96900000D03*
%TO.P,J4,11,11*%
%TO.N,1V8*%
X141140000Y-97300000D03*
%TO.P,J4,12,12*%
%TO.N,unconnected-(J4-Pad12)*%
X138060000Y-97300000D03*
%TO.P,J4,13,13*%
%TO.N,1V8*%
X141140000Y-97700000D03*
%TO.P,J4,14,14*%
%TO.N,unconnected-(J4-Pad14)*%
X138060000Y-97700000D03*
%TO.P,J4,15,15*%
%TO.N,GND*%
X141140000Y-98100000D03*
%TO.P,J4,16,16*%
X138060000Y-98100000D03*
%TO.P,J4,17,17*%
%TO.N,unconnected-(J4-Pad17)*%
X141140000Y-98500000D03*
%TO.P,J4,18,18*%
%TO.N,unconnected-(J4-Pad18)*%
X138060000Y-98500000D03*
%TO.P,J4,19,19*%
%TO.N,VD2*%
X141140000Y-98900000D03*
%TO.P,J4,20,20*%
%TO.N,unconnected-(J4-Pad20)*%
X138060000Y-98900000D03*
%TO.P,J4,21,21*%
%TO.N,unconnected-(J4-Pad21)*%
X141140000Y-99300000D03*
%TO.P,J4,22,22*%
%TO.N,unconnected-(J4-Pad22)*%
X138060000Y-99300000D03*
%TO.P,J4,23,23*%
%TO.N,unconnected-(J4-Pad23)*%
X141140000Y-99700000D03*
%TO.P,J4,24,24*%
%TO.N,unconnected-(J4-Pad24)*%
X138060000Y-99700000D03*
%TO.P,J4,25,25*%
%TO.N,unconnected-(J4-Pad25)*%
X141140000Y-100100000D03*
%TO.P,J4,26,26*%
%TO.N,unconnected-(J4-Pad26)*%
X138060000Y-100100000D03*
%TO.P,J4,27,27*%
%TO.N,unconnected-(J4-Pad27)*%
X141140000Y-100500000D03*
%TO.P,J4,28,28*%
%TO.N,unconnected-(J4-Pad28)*%
X138060000Y-100500000D03*
%TO.P,J4,29,29*%
%TO.N,unconnected-(J4-Pad29)*%
X141140000Y-100900000D03*
%TO.P,J4,30,30*%
%TO.N,unconnected-(J4-Pad30)*%
X138060000Y-100900000D03*
%TO.P,J4,31,31*%
%TO.N,unconnected-(J4-Pad31)*%
X141140000Y-101300000D03*
%TO.P,J4,32,32*%
%TO.N,unconnected-(J4-Pad32)*%
X138060000Y-101300000D03*
%TO.P,J4,33,33*%
%TO.N,unconnected-(J4-Pad33)*%
X141140000Y-101700000D03*
%TO.P,J4,34,34*%
%TO.N,SPI_A_MISO*%
X138060000Y-101700000D03*
%TO.P,J4,35,35*%
%TO.N,GND*%
X141140000Y-102100000D03*
%TO.P,J4,36,36*%
X138060000Y-102100000D03*
%TO.P,J4,37,37*%
%TO.N,unconnected-(J4-Pad37)*%
X141140000Y-102500000D03*
%TO.P,J4,38,38*%
%TO.N,unconnected-(J4-Pad38)*%
X138060000Y-102500000D03*
%TO.P,J4,39,39*%
%TO.N,unconnected-(J4-Pad39)*%
X141140000Y-102900000D03*
%TO.P,J4,40,40*%
%TO.N,SPI_A_CLK*%
X138060000Y-102900000D03*
%TO.P,J4,41,41*%
%TO.N,unconnected-(J4-Pad41)*%
X141140000Y-103300000D03*
%TO.P,J4,42,42*%
%TO.N,unconnected-(J4-Pad42)*%
X138060000Y-103300000D03*
%TO.P,J4,43,43*%
%TO.N,unconnected-(J4-Pad43)*%
X141140000Y-103700000D03*
%TO.P,J4,44,44*%
%TO.N,SPI_A_MOSI*%
X138060000Y-103700000D03*
%TO.P,J4,45,45*%
%TO.N,unconnected-(J4-Pad45)*%
X141140000Y-104100000D03*
%TO.P,J4,46,46*%
%TO.N,unconnected-(J4-Pad46)*%
X138060000Y-104100000D03*
%TO.P,J4,47,47*%
%TO.N,unconnected-(J4-Pad47)*%
X141140000Y-104500000D03*
%TO.P,J4,48,48*%
%TO.N,unconnected-(J4-Pad48)*%
X138060000Y-104500000D03*
%TO.P,J4,49,49*%
%TO.N,unconnected-(J4-Pad49)*%
X141140000Y-104900000D03*
%TO.P,J4,50,50*%
%TO.N,unconnected-(J4-Pad50)*%
X138060000Y-104900000D03*
%TD*%
D11*
%TO.P,J3,1,1*%
%TO.N,unconnected-(J3-Pad1)*%
X156540000Y-103800000D03*
%TO.P,J3,2,2*%
%TO.N,unconnected-(J3-Pad2)*%
X153460000Y-103800000D03*
%TO.P,J3,3,3*%
%TO.N,unconnected-(J3-Pad3)*%
X156540000Y-103400000D03*
%TO.P,J3,4,4*%
%TO.N,unconnected-(J3-Pad4)*%
X153460000Y-103400000D03*
%TO.P,J3,5,5*%
%TO.N,unconnected-(J3-Pad5)*%
X156540000Y-103000000D03*
%TO.P,J3,6,6*%
%TO.N,unconnected-(J3-Pad6)*%
X153460000Y-103000000D03*
%TO.P,J3,7,7*%
%TO.N,unconnected-(J3-Pad7)*%
X156540000Y-102600000D03*
%TO.P,J3,8,8*%
%TO.N,unconnected-(J3-Pad8)*%
X153460000Y-102600000D03*
%TO.P,J3,9,9*%
%TO.N,unconnected-(J3-Pad9)*%
X156540000Y-102200000D03*
%TO.P,J3,10,10*%
%TO.N,nRF_P1.11_GAP_GPIO63*%
X153460000Y-102200000D03*
%TO.P,J3,11,11*%
%TO.N,unconnected-(J3-Pad11)*%
X156540000Y-101800000D03*
%TO.P,J3,12,12*%
%TO.N,nRF_P0.12_GAP_GPIO64*%
X153460000Y-101800000D03*
%TO.P,J3,13,13*%
%TO.N,unconnected-(J3-Pad13)*%
X156540000Y-101400000D03*
%TO.P,J3,14,14*%
%TO.N,unconnected-(J3-Pad14)*%
X153460000Y-101400000D03*
%TO.P,J3,15,15*%
%TO.N,GND*%
X156540000Y-101000000D03*
%TO.P,J3,16,16*%
%TO.N,unconnected-(J3-Pad16)*%
X153460000Y-101000000D03*
%TO.P,J3,17,17*%
%TO.N,unconnected-(J3-Pad17)*%
X156540000Y-100600000D03*
%TO.P,J3,18,18*%
%TO.N,unconnected-(J3-Pad18)*%
X153460000Y-100600000D03*
%TO.P,J3,19,19*%
%TO.N,unconnected-(J3-Pad19)*%
X156540000Y-100200000D03*
%TO.P,J3,20,20*%
%TO.N,GAP_GPIO46*%
X153460000Y-100200000D03*
%TO.P,J3,21,21*%
%TO.N,GND*%
X156540000Y-99800000D03*
%TO.P,J3,22,22*%
%TO.N,unconnected-(J3-Pad22)*%
X153460000Y-99800000D03*
%TO.P,J3,23,23*%
%TO.N,unconnected-(J3-Pad23)*%
X156540000Y-99400000D03*
%TO.P,J3,24,24*%
%TO.N,unconnected-(J3-Pad24)*%
X153460000Y-99400000D03*
%TO.P,J3,25,25*%
%TO.N,unconnected-(J3-Pad25)*%
X156540000Y-99000000D03*
%TO.P,J3,26,26*%
%TO.N,unconnected-(J3-Pad26)*%
X153460000Y-99000000D03*
%TO.P,J3,27,27*%
%TO.N,GND*%
X156540000Y-98600000D03*
%TO.P,J3,28,28*%
%TO.N,unconnected-(J3-Pad28)*%
X153460000Y-98600000D03*
%TO.P,J3,29,29*%
%TO.N,GAP_GPIO46*%
X156540000Y-98200000D03*
%TO.P,J3,30,30*%
%TO.N,unconnected-(J3-Pad30)*%
X153460000Y-98200000D03*
%TO.P,J3,31,31*%
%TO.N,unconnected-(J3-Pad31)*%
X156540000Y-97800000D03*
%TO.P,J3,32,32*%
%TO.N,unconnected-(J3-Pad32)*%
X153460000Y-97800000D03*
%TO.P,J3,33,33*%
%TO.N,unconnected-(J3-Pad33)*%
X156540000Y-97400000D03*
%TO.P,J3,34,34*%
%TO.N,unconnected-(J3-Pad34)*%
X153460000Y-97400000D03*
%TO.P,J3,35,35*%
%TO.N,unconnected-(J3-Pad35)*%
X156540000Y-97000000D03*
%TO.P,J3,36,36*%
%TO.N,unconnected-(J3-Pad36)*%
X153460000Y-97000000D03*
%TO.P,J3,37,37*%
%TO.N,unconnected-(J3-Pad37)*%
X156540000Y-96600000D03*
%TO.P,J3,38,38*%
%TO.N,unconnected-(J3-Pad38)*%
X153460000Y-96600000D03*
%TO.P,J3,39,39*%
%TO.N,unconnected-(J3-Pad39)*%
X156540000Y-96200000D03*
%TO.P,J3,40,40*%
%TO.N,unconnected-(J3-Pad40)*%
X153460000Y-96200000D03*
%TD*%
D12*
%TO.N,*%
X141100000Y-107300000D03*
D13*
%TO.N,GND*%
X155800000Y-101000000D03*
X147100000Y-105000000D03*
X155800000Y-98600000D03*
X142500000Y-96900000D03*
X144700000Y-96900000D03*
X142000000Y-100100000D03*
X147375001Y-102526415D03*
X155800000Y-99800000D03*
X147800000Y-96900000D03*
X146500000Y-96900000D03*
X144400000Y-94800000D03*
X149000000Y-98650000D03*
X152600000Y-95800000D03*
X148100000Y-94650000D03*
X148750000Y-105500000D03*
X142000000Y-100900000D03*
X143250000Y-96900000D03*
X139250000Y-103600000D03*
X146000000Y-105000000D03*
X149000000Y-98000000D03*
X154150000Y-94150000D03*
X142000000Y-97750000D03*
X147150000Y-96900000D03*
X152399479Y-101799479D03*
X151600000Y-99200000D03*
X148989124Y-97289124D03*
X152000000Y-94150000D03*
X138650000Y-98100000D03*
X150849479Y-101849479D03*
X142000000Y-98400000D03*
X142000000Y-101650000D03*
X142000000Y-99400000D03*
X148200000Y-105000000D03*
X143950000Y-96900000D03*
%TO.N,VDD_VCO*%
X149150000Y-99200000D03*
%TO.N,VDD_RF*%
X148150000Y-96200000D03*
X145850000Y-97150000D03*
X148350000Y-102200000D03*
X145350000Y-97150000D03*
%TO.N,VDD_PLL*%
X149150000Y-100210678D03*
X151450000Y-97875000D03*
%TO.N,VDD_A*%
X152500000Y-98700000D03*
X146850000Y-102250000D03*
%TO.N,VDD_D*%
X146350000Y-102500000D03*
X152500000Y-99400000D03*
%TO.N,VDD_LF*%
X154700000Y-95800000D03*
X148870329Y-100700000D03*
%TO.N,1V8*%
X149905000Y-94150000D03*
X140500000Y-97500000D03*
X151045000Y-94155000D03*
X139950000Y-97500000D03*
%TO.N,GAP_GPIO46*%
X145350000Y-102450000D03*
%TO.N,nRF_P1.11_GAP_GPIO63*%
X145850000Y-102200000D03*
%TO.N,nRF_P0.12_GAP_GPIO64*%
X143850000Y-102200000D03*
%TO.N,VD2*%
X153150000Y-94150000D03*
X140500000Y-98900000D03*
%TO.N,/sensor/DIV_OUT*%
X150000000Y-97700000D03*
X148900000Y-99700000D03*
%TO.N,SPI_A_CLK*%
X138750000Y-103078000D03*
%TO.N,SPI_A_MISO*%
X140450000Y-103078000D03*
%TO.N,SPI_A_MOSI*%
X138759801Y-104166752D03*
%TD*%
D14*
%TO.N,GND*%
X141700000Y-98100000D02*
X141140000Y-98100000D01*
X141550000Y-102100000D02*
X142000000Y-101650000D01*
X138401708Y-102100000D02*
X139250000Y-102948292D01*
X139250000Y-102948292D02*
X139250000Y-103600000D01*
X142000000Y-97750000D02*
X142000000Y-97800000D01*
X138060000Y-98100000D02*
X138650000Y-98100000D01*
X156540000Y-99800000D02*
X155800000Y-99800000D01*
X142000000Y-97800000D02*
X141700000Y-98100000D01*
X156540000Y-98600000D02*
X155800000Y-98600000D01*
X156540000Y-101000000D02*
X155800000Y-101000000D01*
X141140000Y-102100000D02*
X141550000Y-102100000D01*
X138060000Y-102100000D02*
X138401708Y-102100000D01*
D15*
%TO.N,VDD_RF*%
X148350000Y-102200000D02*
X148350000Y-96423166D01*
X148350000Y-96423166D02*
X148150000Y-96223166D01*
X148150000Y-96223166D02*
X148150000Y-96200000D01*
D16*
%TO.N,1V8*%
X140800000Y-97500000D02*
X141300000Y-97500000D01*
X140500000Y-97500000D02*
X140800000Y-97500000D01*
X140800000Y-97500000D02*
X139950000Y-97500000D01*
D14*
%TO.N,GAP_GPIO46*%
X150150000Y-103150000D02*
X153100000Y-100200000D01*
X146000000Y-103150000D02*
X150150000Y-103150000D01*
X153100000Y-100200000D02*
X153460000Y-100200000D01*
X156540000Y-98200000D02*
X156514000Y-98174000D01*
X154700000Y-99600000D02*
X154100000Y-100200000D01*
X145350000Y-102450000D02*
X145350000Y-102500000D01*
X154700000Y-98850000D02*
X154700000Y-99600000D01*
X155376000Y-98174000D02*
X154700000Y-98850000D01*
X154100000Y-100200000D02*
X153460000Y-100200000D01*
X156514000Y-98174000D02*
X155376000Y-98174000D01*
X145350000Y-102500000D02*
X146000000Y-103150000D01*
D17*
%TO.N,nRF_P1.11_GAP_GPIO63*%
X143421000Y-102377698D02*
X144993302Y-103950000D01*
X144993302Y-103950000D02*
X151325000Y-103950000D01*
X151325000Y-103950000D02*
X153075000Y-102200000D01*
X143672302Y-101771000D02*
X143421000Y-102022302D01*
X153075000Y-102200000D02*
X153460000Y-102200000D01*
X145850000Y-102200000D02*
X145421000Y-101771000D01*
X143421000Y-102022302D02*
X143421000Y-102377698D01*
X145421000Y-101771000D02*
X143672302Y-101771000D01*
D14*
%TO.N,nRF_P0.12_GAP_GPIO64*%
X151250000Y-103550000D02*
X153000000Y-101800000D01*
X145200000Y-103550000D02*
X151250000Y-103550000D01*
X153000000Y-101800000D02*
X153460000Y-101800000D01*
X143850000Y-102200000D02*
X145200000Y-103550000D01*
D18*
%TO.N,VD2*%
X141140000Y-98900000D02*
X140500000Y-98900000D01*
D14*
%TO.N,/sensor/DIV_OUT*%
X149500000Y-99700000D02*
X148900000Y-99700000D01*
X150000000Y-97700000D02*
X150000000Y-99200000D01*
X150000000Y-99200000D02*
X149500000Y-99700000D01*
D17*
%TO.N,SPI_A_CLK*%
X138572000Y-102900000D02*
X138750000Y-103078000D01*
X138050736Y-102890736D02*
X138060000Y-102900000D01*
X138060000Y-102900000D02*
X138572000Y-102900000D01*
%TO.N,SPI_A_MISO*%
X139350000Y-101700000D02*
X138060000Y-101700000D01*
X140450000Y-103078000D02*
X140422000Y-103050000D01*
X140422000Y-103050000D02*
X139750000Y-103050000D01*
X139750000Y-103050000D02*
X139550000Y-102850000D01*
X139550000Y-101900000D02*
X139350000Y-101700000D01*
X139550000Y-102850000D02*
X139550000Y-101900000D01*
%TO.N,SPI_A_MOSI*%
X138409576Y-103700000D02*
X138060000Y-103700000D01*
X138759801Y-104166752D02*
X138759801Y-104050225D01*
X138759801Y-104050225D02*
X138409576Y-103700000D01*
%TD*%
%TA.AperFunction,Conductor*%
%TO.N,GND*%
G36*
X139214539Y-101998185D02*
G01*
X139260294Y-102050989D01*
X139271500Y-102102500D01*
X139271500Y-102733745D01*
X139251815Y-102800784D01*
X139199011Y-102846539D01*
X139129853Y-102856483D01*
X139066297Y-102827458D01*
X139059819Y-102821426D01*
X138995914Y-102757521D01*
X138995913Y-102757520D01*
X138904587Y-102704793D01*
X138802727Y-102677500D01*
X138802726Y-102677500D01*
X138776844Y-102677500D01*
X138761354Y-102673349D01*
X138747606Y-102674004D01*
X138714841Y-102660885D01*
X138672497Y-102636436D01*
X138624283Y-102585868D01*
X138610500Y-102529051D01*
X138610500Y-102425323D01*
X138610499Y-102425321D01*
X138595967Y-102352264D01*
X138595966Y-102352260D01*
X138592946Y-102347740D01*
X138540601Y-102269399D01*
X138457740Y-102214034D01*
X138457739Y-102214033D01*
X138447585Y-102207249D01*
X138449435Y-102204479D01*
X138410646Y-102173222D01*
X138388580Y-102106928D01*
X138405858Y-102039228D01*
X138456994Y-101991617D01*
X138512501Y-101978500D01*
X139147500Y-101978500D01*
X139214539Y-101998185D01*
G37*
%TD.AperFunction*%
%TA.AperFunction,Conductor*%
G36*
X152802595Y-100961417D02*
G01*
X152828834Y-100963294D01*
X152836182Y-100968795D01*
X152845146Y-100970764D01*
X152863708Y-100989401D01*
X152884767Y-101005166D01*
X152887974Y-101013765D01*
X152894452Y-101020269D01*
X152906719Y-101053362D01*
X152909500Y-101066271D01*
X152909500Y-101074674D01*
X152924034Y-101147740D01*
X152928485Y-101154402D01*
X152932683Y-101173886D01*
X152927558Y-101243568D01*
X152926025Y-101247452D01*
X152924033Y-101252259D01*
X152909500Y-101325323D01*
X152909500Y-101456432D01*
X152889815Y-101523471D01*
X152851880Y-101556341D01*
X152854096Y-101559657D01*
X152843940Y-101566442D01*
X151172204Y-103238181D01*
X151110881Y-103271666D01*
X151084523Y-103274500D01*
X150714477Y-103274500D01*
X150647438Y-103254815D01*
X150601683Y-103202011D01*
X150591739Y-103132853D01*
X150620764Y-103069297D01*
X150626796Y-103062819D01*
X151660334Y-102029281D01*
X152697819Y-100991794D01*
X152705874Y-100987396D01*
X152711390Y-100980059D01*
X152736058Y-100970914D01*
X152759142Y-100958310D01*
X152768295Y-100958964D01*
X152776903Y-100955774D01*
X152802595Y-100961417D01*
G37*
%TD.AperFunction*%
%TA.AperFunction,Conductor*%
G36*
X149433011Y-93857543D02*
G01*
X149457836Y-93860512D01*
X149465957Y-93867218D01*
X149476062Y-93870185D01*
X149492432Y-93889077D01*
X149511713Y-93904997D01*
X149514920Y-93915029D01*
X149521817Y-93922989D01*
X149525375Y-93947734D01*
X149532988Y-93971549D01*
X149531086Y-93987454D01*
X149531761Y-93992147D01*
X149528800Y-94006579D01*
X149504500Y-94097273D01*
X149504500Y-94202727D01*
X149531793Y-94304587D01*
X149584520Y-94395913D01*
X149659087Y-94470480D01*
X149750413Y-94523207D01*
X149852273Y-94550500D01*
X149852275Y-94550500D01*
X149957725Y-94550500D01*
X149957727Y-94550500D01*
X150059587Y-94523207D01*
X150150913Y-94470480D01*
X150225480Y-94395913D01*
X150278207Y-94304587D01*
X150305500Y-94202727D01*
X150305500Y-94097273D01*
X150281202Y-94006590D01*
X150281797Y-93981598D01*
X150278239Y-93956853D01*
X150282614Y-93947272D01*
X150282865Y-93936744D01*
X150296877Y-93916039D01*
X150307264Y-93893297D01*
X150316123Y-93887603D01*
X150322027Y-93878881D01*
X150345010Y-93869039D01*
X150366042Y-93855523D01*
X150381897Y-93853243D01*
X150386256Y-93851377D01*
X150400977Y-93850500D01*
X150550362Y-93850500D01*
X150617401Y-93870185D01*
X150663156Y-93922989D01*
X150673100Y-93992147D01*
X150670137Y-94006593D01*
X150644500Y-94102273D01*
X150644500Y-94207727D01*
X150671793Y-94309587D01*
X150724520Y-94400913D01*
X150799087Y-94475480D01*
X150890413Y-94528207D01*
X150992273Y-94555500D01*
X150992275Y-94555500D01*
X151097725Y-94555500D01*
X151097727Y-94555500D01*
X151199587Y-94528207D01*
X151290913Y-94475480D01*
X151365480Y-94400913D01*
X151418207Y-94309587D01*
X151445500Y-94207727D01*
X151445500Y-94102273D01*
X151419863Y-94006593D01*
X151421526Y-93936743D01*
X151460689Y-93878881D01*
X151524918Y-93851377D01*
X151539638Y-93850500D01*
X152654023Y-93850500D01*
X152721062Y-93870185D01*
X152766817Y-93922989D01*
X152776761Y-93992147D01*
X152773800Y-94006579D01*
X152749500Y-94097273D01*
X152749500Y-94202727D01*
X152776793Y-94304587D01*
X152829520Y-94395913D01*
X152904087Y-94470480D01*
X152995413Y-94523207D01*
X153097273Y-94550500D01*
X153097275Y-94550500D01*
X153202725Y-94550500D01*
X153202727Y-94550500D01*
X153304587Y-94523207D01*
X153395913Y-94470480D01*
X153470480Y-94395913D01*
X153523207Y-94304587D01*
X153550500Y-94202727D01*
X153550500Y-94097273D01*
X153526202Y-94006590D01*
X153527865Y-93936744D01*
X153567027Y-93878881D01*
X153631256Y-93851377D01*
X153645977Y-93850500D01*
X155860118Y-93850500D01*
X155895933Y-93850500D01*
X155904043Y-93850765D01*
X156126790Y-93865364D01*
X156142848Y-93867479D01*
X156326888Y-93904087D01*
X156357771Y-93910230D01*
X156373438Y-93914428D01*
X156526569Y-93966409D01*
X156580944Y-93984867D01*
X156595921Y-93991070D01*
X156627399Y-94006593D01*
X156792460Y-94087992D01*
X156806508Y-94096102D01*
X156988712Y-94217848D01*
X157001573Y-94227716D01*
X157089230Y-94304589D01*
X157166328Y-94372202D01*
X157177797Y-94383671D01*
X157300164Y-94523205D01*
X157322280Y-94548423D01*
X157332154Y-94561291D01*
X157453897Y-94743492D01*
X157462007Y-94757539D01*
X157558926Y-94954071D01*
X157565133Y-94969057D01*
X157635571Y-95176561D01*
X157639768Y-95192225D01*
X157639769Y-95192228D01*
X157682518Y-95407140D01*
X157684636Y-95423221D01*
X157699235Y-95645956D01*
X157699500Y-95654066D01*
X157699500Y-106645933D01*
X157699235Y-106654043D01*
X157684636Y-106876778D01*
X157682518Y-106892859D01*
X157639769Y-107107771D01*
X157635571Y-107123438D01*
X157565133Y-107330942D01*
X157558926Y-107345928D01*
X157462007Y-107542460D01*
X157453897Y-107556507D01*
X157332154Y-107738708D01*
X157322280Y-107751576D01*
X157177797Y-107916328D01*
X157166328Y-107927797D01*
X157001576Y-108072280D01*
X156988708Y-108082154D01*
X156806507Y-108203897D01*
X156792460Y-108212007D01*
X156595928Y-108308926D01*
X156580942Y-108315133D01*
X156373438Y-108385571D01*
X156357771Y-108389769D01*
X156142859Y-108432518D01*
X156126778Y-108434636D01*
X155904043Y-108449235D01*
X155895933Y-108449500D01*
X138904067Y-108449500D01*
X138895957Y-108449235D01*
X138673221Y-108434636D01*
X138657140Y-108432518D01*
X138442228Y-108389769D01*
X138426561Y-108385571D01*
X138219057Y-108315133D01*
X138204071Y-108308926D01*
X138007539Y-108212007D01*
X137993492Y-108203897D01*
X137811291Y-108082154D01*
X137798423Y-108072280D01*
X137633671Y-107927797D01*
X137622202Y-107916328D01*
X137557160Y-107842162D01*
X137477716Y-107751573D01*
X137467845Y-107738708D01*
X137346102Y-107556507D01*
X137337992Y-107542460D01*
X137335196Y-107536791D01*
X137241070Y-107345921D01*
X137234871Y-107330958D01*
X137195926Y-107216228D01*
X140249500Y-107216228D01*
X140249500Y-107383771D01*
X140282182Y-107548074D01*
X140282184Y-107548082D01*
X140346295Y-107702860D01*
X140439373Y-107842162D01*
X140557837Y-107960626D01*
X140650494Y-108022537D01*
X140697137Y-108053703D01*
X140851918Y-108117816D01*
X141016228Y-108150499D01*
X141016232Y-108150500D01*
X141016233Y-108150500D01*
X141183768Y-108150500D01*
X141183769Y-108150499D01*
X141348082Y-108117816D01*
X141502863Y-108053703D01*
X141642162Y-107960626D01*
X141760626Y-107842162D01*
X141853703Y-107702863D01*
X141917816Y-107548082D01*
X141950500Y-107383767D01*
X141950500Y-107216233D01*
X141917816Y-107051918D01*
X141853703Y-106897137D01*
X141777510Y-106783106D01*
X141760626Y-106757837D01*
X141642162Y-106639373D01*
X141502860Y-106546295D01*
X141348082Y-106482184D01*
X141348074Y-106482182D01*
X141183771Y-106449500D01*
X141183767Y-106449500D01*
X141016233Y-106449500D01*
X141016228Y-106449500D01*
X140851925Y-106482182D01*
X140851917Y-106482184D01*
X140697139Y-106546295D01*
X140557837Y-106639373D01*
X140439373Y-106757837D01*
X140346295Y-106897139D01*
X140282184Y-107051917D01*
X140282182Y-107051925D01*
X140249500Y-107216228D01*
X137195926Y-107216228D01*
X137164428Y-107123439D01*
X137160230Y-107107771D01*
X137154482Y-107078875D01*
X137117479Y-106892848D01*
X137115364Y-106876790D01*
X137100765Y-106654043D01*
X137100500Y-106645933D01*
X137100500Y-95654066D01*
X137100765Y-95645956D01*
X137102117Y-95625323D01*
X137115364Y-95423207D01*
X137117479Y-95407153D01*
X137123939Y-95374676D01*
X137509499Y-95374676D01*
X137524033Y-95447740D01*
X137526025Y-95452548D01*
X137533494Y-95522017D01*
X137526025Y-95547452D01*
X137524033Y-95552259D01*
X137509500Y-95625323D01*
X137509500Y-95625326D01*
X137509500Y-95774674D01*
X137509500Y-95774676D01*
X137509499Y-95774676D01*
X137524033Y-95847740D01*
X137526025Y-95852548D01*
X137533494Y-95922017D01*
X137526025Y-95947452D01*
X137524033Y-95952259D01*
X137509500Y-96025323D01*
X137509500Y-96025326D01*
X137509500Y-96174674D01*
X137509500Y-96174676D01*
X137509499Y-96174676D01*
X137524033Y-96247738D01*
X137526025Y-96252548D01*
X137533494Y-96322017D01*
X137526025Y-96347452D01*
X137524033Y-96352259D01*
X137509500Y-96425323D01*
X137509500Y-96425326D01*
X137509500Y-96574674D01*
X137509500Y-96574676D01*
X137509499Y-96574676D01*
X137524033Y-96647740D01*
X137526025Y-96652548D01*
X137533494Y-96722017D01*
X137526025Y-96747452D01*
X137524033Y-96752259D01*
X137509500Y-96825323D01*
X137509500Y-96825326D01*
X137509500Y-96974674D01*
X137509500Y-96974676D01*
X137509499Y-96974676D01*
X137524033Y-97047740D01*
X137526025Y-97052548D01*
X137533494Y-97122017D01*
X137526025Y-97147452D01*
X137524033Y-97152259D01*
X137509500Y-97225323D01*
X137509500Y-97225326D01*
X137509500Y-97374674D01*
X137509500Y-97374676D01*
X137509499Y-97374676D01*
X137524033Y-97447740D01*
X137526025Y-97452548D01*
X137533494Y-97522017D01*
X137526025Y-97547452D01*
X137524033Y-97552259D01*
X137509500Y-97625323D01*
X137509500Y-97774678D01*
X137524032Y-97847735D01*
X137524033Y-97847739D01*
X137524034Y-97847740D01*
X137579399Y-97930601D01*
X137650326Y-97977992D01*
X137672415Y-97992751D01*
X137671591Y-97993983D01*
X137715391Y-98029281D01*
X137737455Y-98095576D01*
X137720175Y-98163275D01*
X137669037Y-98210885D01*
X137662516Y-98213862D01*
X137579399Y-98269399D01*
X137524033Y-98352260D01*
X137524032Y-98352264D01*
X137509500Y-98425321D01*
X137509500Y-98425326D01*
X137509500Y-98574674D01*
X137509500Y-98574676D01*
X137509499Y-98574676D01*
X137524033Y-98647740D01*
X137526025Y-98652548D01*
X137533494Y-98722017D01*
X137526025Y-98747452D01*
X137524033Y-98752259D01*
X137509500Y-98825323D01*
X137509500Y-98825326D01*
X137509500Y-98974674D01*
X137509500Y-98974676D01*
X137509499Y-98974676D01*
X137524033Y-99047740D01*
X137526025Y-99052548D01*
X137533494Y-99122017D01*
X137526025Y-99147452D01*
X137524033Y-99152259D01*
X137509500Y-99225323D01*
X137509500Y-99225326D01*
X137509500Y-99374674D01*
X137509500Y-99374676D01*
X137509499Y-99374676D01*
X137524033Y-99447740D01*
X137526025Y-99452548D01*
X137533494Y-99522017D01*
X137526025Y-99547452D01*
X137524033Y-99552259D01*
X137509500Y-99625323D01*
X137509500Y-99625326D01*
X137509500Y-99774674D01*
X137509500Y-99774676D01*
X137509499Y-99774676D01*
X137524033Y-99847740D01*
X137526025Y-99852548D01*
X137533494Y-99922017D01*
X137526025Y-99947452D01*
X137524033Y-99952259D01*
X137509500Y-100025323D01*
X137509500Y-100025326D01*
X137509500Y-100174674D01*
X137509500Y-100174676D01*
X137509499Y-100174676D01*
X137524033Y-100247740D01*
X137526025Y-100252548D01*
X137533494Y-100322017D01*
X137526025Y-100347452D01*
X137524033Y-100352259D01*
X137509500Y-100425323D01*
X137509500Y-100425326D01*
X137509500Y-100574674D01*
X137509500Y-100574676D01*
X137509499Y-100574676D01*
X137524033Y-100647740D01*
X137526025Y-100652548D01*
X137533494Y-100722017D01*
X137526025Y-100747452D01*
X137524033Y-100752259D01*
X137509500Y-100825323D01*
X137509500Y-100825326D01*
X137509500Y-100974674D01*
X137509500Y-100974676D01*
X137509499Y-100974676D01*
X137524033Y-101047740D01*
X137526025Y-101052548D01*
X137533494Y-101122017D01*
X137526025Y-101147452D01*
X137524033Y-101152259D01*
X137509500Y-101225323D01*
X137509500Y-101225326D01*
X137509500Y-101374674D01*
X137509500Y-101374676D01*
X137509499Y-101374676D01*
X137524033Y-101447740D01*
X137526025Y-101452548D01*
X137533494Y-101522017D01*
X137526025Y-101547452D01*
X137524033Y-101552259D01*
X137509500Y-101625323D01*
X137509500Y-101774678D01*
X137524032Y-101847735D01*
X137524033Y-101847739D01*
X137524034Y-101847740D01*
X137579399Y-101930601D01*
X137661768Y-101985637D01*
X137672415Y-101992751D01*
X137671591Y-101993983D01*
X137715391Y-102029281D01*
X137737455Y-102095576D01*
X137720175Y-102163275D01*
X137669037Y-102210885D01*
X137662516Y-102213862D01*
X137579399Y-102269399D01*
X137524033Y-102352260D01*
X137524032Y-102352264D01*
X137509500Y-102425321D01*
X137509500Y-102425326D01*
X137509500Y-102574674D01*
X137509500Y-102574676D01*
X137509499Y-102574676D01*
X137524033Y-102647740D01*
X137526025Y-102652548D01*
X137533494Y-102722017D01*
X137526025Y-102747452D01*
X137524033Y-102752259D01*
X137509500Y-102825323D01*
X137509500Y-102825326D01*
X137509500Y-102974674D01*
X137509500Y-102974676D01*
X137509499Y-102974676D01*
X137524033Y-103047740D01*
X137526025Y-103052548D01*
X137533494Y-103122017D01*
X137526025Y-103147452D01*
X137524033Y-103152259D01*
X137509500Y-103225323D01*
X137509500Y-103225326D01*
X137509500Y-103374674D01*
X137509500Y-103374676D01*
X137509499Y-103374676D01*
X137524033Y-103447740D01*
X137526025Y-103452548D01*
X137533494Y-103522017D01*
X137526025Y-103547452D01*
X137524033Y-103552259D01*
X137509500Y-103625323D01*
X137509500Y-103625326D01*
X137509500Y-103774674D01*
X137509500Y-103774676D01*
X137509499Y-103774676D01*
X137524033Y-103847740D01*
X137526025Y-103852548D01*
X137533494Y-103922017D01*
X137526025Y-103947452D01*
X137524033Y-103952259D01*
X137509500Y-104025323D01*
X137509500Y-104025326D01*
X137509500Y-104174674D01*
X137509500Y-104174676D01*
X137509499Y-104174676D01*
X137524033Y-104247740D01*
X137526025Y-104252548D01*
X137533494Y-104322017D01*
X137526025Y-104347452D01*
X137524033Y-104352259D01*
X137509500Y-104425323D01*
X137509500Y-104425326D01*
X137509500Y-104574674D01*
X137509500Y-104574676D01*
X137509499Y-104574676D01*
X137524033Y-104647740D01*
X137526025Y-104652548D01*
X137533494Y-104722017D01*
X137526025Y-104747452D01*
X137524033Y-104752259D01*
X137509500Y-104825323D01*
X137509500Y-104974678D01*
X137524032Y-105047735D01*
X137524033Y-105047739D01*
X137524034Y-105047740D01*
X137579399Y-105130601D01*
X137662260Y-105185966D01*
X137662264Y-105185967D01*
X137735321Y-105200499D01*
X137735324Y-105200500D01*
X137735326Y-105200500D01*
X138384676Y-105200500D01*
X138384677Y-105200499D01*
X138457740Y-105185966D01*
X138540601Y-105130601D01*
X138595966Y-105047740D01*
X138610500Y-104974674D01*
X138610500Y-104825326D01*
X138610500Y-104825323D01*
X138610499Y-104825321D01*
X138595968Y-104752267D01*
X138595966Y-104752264D01*
X138595966Y-104752260D01*
X138595963Y-104752256D01*
X138593977Y-104747461D01*
X138590693Y-104716941D01*
X138585247Y-104686727D01*
X138586792Y-104680675D01*
X138586504Y-104677992D01*
X138593981Y-104652531D01*
X138597606Y-104643783D01*
X138641455Y-104589386D01*
X138707752Y-104567330D01*
X138712160Y-104567252D01*
X138812526Y-104567252D01*
X138812528Y-104567252D01*
X138914388Y-104539959D01*
X139005714Y-104487232D01*
X139080281Y-104412665D01*
X139133008Y-104321339D01*
X139160301Y-104219479D01*
X139160301Y-104114025D01*
X139133008Y-104012165D01*
X139080281Y-103920839D01*
X139005714Y-103846272D01*
X138914388Y-103793545D01*
X138914385Y-103793544D01*
X138907454Y-103790673D01*
X138900522Y-103786041D01*
X138895482Y-103784945D01*
X138867228Y-103763794D01*
X138780461Y-103677027D01*
X138746976Y-103615704D01*
X138751960Y-103546012D01*
X138793832Y-103490079D01*
X138836046Y-103469572D01*
X138904587Y-103451207D01*
X138995913Y-103398480D01*
X139070480Y-103323913D01*
X139123207Y-103232587D01*
X139150500Y-103130727D01*
X139150500Y-103130713D01*
X139150993Y-103126975D01*
X139152291Y-103124038D01*
X139152603Y-103122877D01*
X139152784Y-103122925D01*
X139179255Y-103063077D01*
X139237578Y-103024602D01*
X139307442Y-103023767D01*
X139361613Y-103055471D01*
X139578997Y-103272856D01*
X139578999Y-103272857D01*
X139579003Y-103272860D01*
X139642496Y-103309517D01*
X139642503Y-103309521D01*
X139713335Y-103328500D01*
X139786665Y-103328500D01*
X140082745Y-103328500D01*
X140149784Y-103348185D01*
X140170426Y-103364819D01*
X140204087Y-103398480D01*
X140295413Y-103451207D01*
X140397273Y-103478500D01*
X140397275Y-103478500D01*
X140467611Y-103478500D01*
X140534650Y-103498185D01*
X140580405Y-103550989D01*
X140590349Y-103620147D01*
X140589551Y-103624805D01*
X140589500Y-103625323D01*
X140589500Y-103625326D01*
X140589500Y-103774674D01*
X140589500Y-103774676D01*
X140589499Y-103774676D01*
X140604033Y-103847740D01*
X140606025Y-103852548D01*
X140613494Y-103922017D01*
X140606025Y-103947452D01*
X140604033Y-103952259D01*
X140589500Y-104025323D01*
X140589500Y-104025326D01*
X140589500Y-104174674D01*
X140589500Y-104174676D01*
X140589499Y-104174676D01*
X140604033Y-104247740D01*
X140606025Y-104252548D01*
X140613494Y-104322017D01*
X140606025Y-104347452D01*
X140604033Y-104352259D01*
X140589500Y-104425323D01*
X140589500Y-104425326D01*
X140589500Y-104574674D01*
X140589500Y-104574676D01*
X140589499Y-104574676D01*
X140604033Y-104647740D01*
X140606025Y-104652548D01*
X140613494Y-104722017D01*
X140606025Y-104747452D01*
X140604033Y-104752259D01*
X140589500Y-104825323D01*
X140589500Y-104974678D01*
X140604032Y-105047735D01*
X140604033Y-105047739D01*
X140604034Y-105047740D01*
X140659399Y-105130601D01*
X140742260Y-105185966D01*
X140742264Y-105185967D01*
X140815321Y-105200499D01*
X140815324Y-105200500D01*
X140815326Y-105200500D01*
X141464676Y-105200500D01*
X141464677Y-105200499D01*
X141537740Y-105185966D01*
X141620601Y-105130601D01*
X141675966Y-105047740D01*
X141690500Y-104974674D01*
X141690500Y-104825326D01*
X141690500Y-104825323D01*
X141690499Y-104825321D01*
X141675968Y-104752267D01*
X141675966Y-104752264D01*
X141675966Y-104752260D01*
X141675963Y-104752256D01*
X141673977Y-104747461D01*
X141666504Y-104677992D01*
X141673977Y-104652539D01*
X141675962Y-104647745D01*
X141675966Y-104647740D01*
X141690500Y-104574674D01*
X141690500Y-104425326D01*
X141690500Y-104425323D01*
X141690499Y-104425321D01*
X141675968Y-104352267D01*
X141675966Y-104352264D01*
X141675966Y-104352260D01*
X141675963Y-104352256D01*
X141673977Y-104347461D01*
X141666504Y-104277992D01*
X141673977Y-104252539D01*
X141675962Y-104247745D01*
X141675966Y-104247740D01*
X141679794Y-104228499D01*
X141690499Y-104174678D01*
X141690500Y-104174676D01*
X141690500Y-104025323D01*
X141690499Y-104025321D01*
X141675968Y-103952267D01*
X141675966Y-103952264D01*
X141675966Y-103952260D01*
X141675963Y-103952256D01*
X141673977Y-103947461D01*
X141666504Y-103877992D01*
X141673977Y-103852539D01*
X141675962Y-103847745D01*
X141675966Y-103847740D01*
X141690500Y-103774674D01*
X141690500Y-103625326D01*
X141690500Y-103625323D01*
X141690499Y-103625321D01*
X141675968Y-103552267D01*
X141675966Y-103552264D01*
X141675966Y-103552260D01*
X141675963Y-103552256D01*
X141673977Y-103547461D01*
X141666504Y-103477992D01*
X141673977Y-103452539D01*
X141675962Y-103447745D01*
X141675966Y-103447740D01*
X141690500Y-103374674D01*
X141690500Y-103225326D01*
X141690500Y-103225323D01*
X141690499Y-103225321D01*
X141675968Y-103152267D01*
X141675966Y-103152264D01*
X141675966Y-103152260D01*
X141675963Y-103152256D01*
X141673977Y-103147461D01*
X141666504Y-103077992D01*
X141673977Y-103052539D01*
X141675962Y-103047745D01*
X141675966Y-103047740D01*
X141678241Y-103036306D01*
X141690499Y-102974678D01*
X141690500Y-102974676D01*
X141690500Y-102825323D01*
X141690499Y-102825321D01*
X141675968Y-102752267D01*
X141675966Y-102752264D01*
X141675966Y-102752260D01*
X141675963Y-102752256D01*
X141673977Y-102747461D01*
X141666504Y-102677992D01*
X141673977Y-102652539D01*
X141675962Y-102647745D01*
X141675966Y-102647740D01*
X141677411Y-102640479D01*
X141690499Y-102574678D01*
X141690500Y-102574676D01*
X141690500Y-102425323D01*
X141690499Y-102425321D01*
X141675967Y-102352264D01*
X141675966Y-102352260D01*
X141672946Y-102347740D01*
X141620601Y-102269399D01*
X141537740Y-102214034D01*
X141537739Y-102214033D01*
X141527585Y-102207249D01*
X141528409Y-102206015D01*
X141484610Y-102170722D01*
X141462544Y-102104429D01*
X141479822Y-102036729D01*
X141508635Y-102003467D01*
X141527918Y-101987919D01*
X141537740Y-101985966D01*
X141538232Y-101985637D01*
X143142500Y-101985637D01*
X143142500Y-102341033D01*
X143142500Y-102414363D01*
X143152654Y-102452259D01*
X143161480Y-102485198D01*
X143161481Y-102485200D01*
X143198145Y-102548702D01*
X144770447Y-104121003D01*
X144770448Y-104121004D01*
X144822298Y-104172855D01*
X144885799Y-104209518D01*
X144885801Y-104209519D01*
X144885802Y-104209519D01*
X144885805Y-104209521D01*
X144956637Y-104228500D01*
X144956639Y-104228500D01*
X151361663Y-104228500D01*
X151361665Y-104228500D01*
X151432497Y-104209521D01*
X151496003Y-104172855D01*
X152697819Y-102971037D01*
X152759142Y-102937553D01*
X152828833Y-102942537D01*
X152884767Y-102984408D01*
X152907458Y-103036306D01*
X152909500Y-103047417D01*
X152909500Y-103074674D01*
X152924034Y-103147740D01*
X152929417Y-103155797D01*
X152933422Y-103177587D01*
X152931106Y-103199807D01*
X152933494Y-103222017D01*
X152926203Y-103246843D01*
X152926179Y-103247080D01*
X152926108Y-103247168D01*
X152926025Y-103247452D01*
X152924033Y-103252259D01*
X152909500Y-103325323D01*
X152909500Y-103325326D01*
X152909500Y-103474674D01*
X152909500Y-103474676D01*
X152909499Y-103474676D01*
X152924033Y-103547740D01*
X152926025Y-103552548D01*
X152933494Y-103622017D01*
X152926025Y-103647452D01*
X152924033Y-103652259D01*
X152909500Y-103725323D01*
X152909500Y-103874678D01*
X152924032Y-103947735D01*
X152924033Y-103947739D01*
X152924034Y-103947740D01*
X152979399Y-104030601D01*
X153062260Y-104085966D01*
X153062264Y-104085967D01*
X153135321Y-104100499D01*
X153135324Y-104100500D01*
X153135326Y-104100500D01*
X153784676Y-104100500D01*
X153784677Y-104100499D01*
X153857740Y-104085966D01*
X153940601Y-104030601D01*
X153995966Y-103947740D01*
X153996022Y-103947461D01*
X154010499Y-103874678D01*
X154010500Y-103874676D01*
X154010500Y-103725323D01*
X154010499Y-103725321D01*
X153995968Y-103652267D01*
X153995966Y-103652264D01*
X153995966Y-103652260D01*
X153995963Y-103652256D01*
X153993977Y-103647461D01*
X153986504Y-103577992D01*
X153993977Y-103552539D01*
X153995962Y-103547745D01*
X153995966Y-103547740D01*
X153996022Y-103547461D01*
X154010499Y-103474678D01*
X154010500Y-103474676D01*
X154010500Y-103325323D01*
X154010499Y-103325321D01*
X153995968Y-103252267D01*
X153995966Y-103252264D01*
X153995966Y-103252260D01*
X153995963Y-103252256D01*
X153993977Y-103247461D01*
X153986504Y-103177992D01*
X153993977Y-103152539D01*
X153995962Y-103147745D01*
X153995966Y-103147740D01*
X153996022Y-103147461D01*
X154010499Y-103074678D01*
X154010500Y-103074676D01*
X154010500Y-102925323D01*
X154010499Y-102925321D01*
X153995968Y-102852267D01*
X153995966Y-102852264D01*
X153995966Y-102852260D01*
X153995963Y-102852256D01*
X153993977Y-102847461D01*
X153986504Y-102777992D01*
X153993977Y-102752539D01*
X153995962Y-102747745D01*
X153995966Y-102747740D01*
X153996022Y-102747461D01*
X154010499Y-102674678D01*
X154010500Y-102674676D01*
X154010500Y-102525323D01*
X154010499Y-102525321D01*
X153995968Y-102452267D01*
X153995966Y-102452264D01*
X153995966Y-102452260D01*
X153995963Y-102452256D01*
X153993977Y-102447461D01*
X153986504Y-102377992D01*
X153993977Y-102352539D01*
X153995962Y-102347745D01*
X153995966Y-102347740D01*
X154010500Y-102274674D01*
X154010500Y-102125326D01*
X154010500Y-102125323D01*
X154010499Y-102125321D01*
X153995968Y-102052267D01*
X153995966Y-102052264D01*
X153995966Y-102052260D01*
X153995963Y-102052256D01*
X153993977Y-102047461D01*
X153986504Y-101977992D01*
X153993977Y-101952539D01*
X153995962Y-101947745D01*
X153995966Y-101947740D01*
X153999376Y-101930600D01*
X154010499Y-101874678D01*
X154010500Y-101874676D01*
X154010500Y-101725323D01*
X154010499Y-101725321D01*
X153995968Y-101652267D01*
X153995966Y-101652264D01*
X153995966Y-101652260D01*
X153995963Y-101652256D01*
X153993977Y-101647461D01*
X153986504Y-101577992D01*
X153993977Y-101552539D01*
X153995962Y-101547745D01*
X153995966Y-101547740D01*
X153996022Y-101547461D01*
X154010499Y-101474678D01*
X154010500Y-101474676D01*
X154010500Y-101325323D01*
X154010499Y-101325321D01*
X153995968Y-101252267D01*
X153995966Y-101252264D01*
X153995966Y-101252260D01*
X153995963Y-101252256D01*
X153993977Y-101247461D01*
X153986504Y-101177992D01*
X153993977Y-101152539D01*
X153995962Y-101147745D01*
X153995966Y-101147740D01*
X153996022Y-101147461D01*
X154010499Y-101074678D01*
X154010500Y-101074676D01*
X154010500Y-100925323D01*
X154010499Y-100925321D01*
X153995968Y-100852267D01*
X153995966Y-100852264D01*
X153995966Y-100852260D01*
X153995963Y-100852256D01*
X153993977Y-100847461D01*
X153985562Y-100784075D01*
X153988897Y-100758318D01*
X153995966Y-100747740D01*
X154010500Y-100674674D01*
X154010500Y-100591505D01*
X154011527Y-100583575D01*
X154022504Y-100558617D01*
X154030185Y-100532461D01*
X154036364Y-100527106D01*
X154039658Y-100519619D01*
X154062388Y-100504556D01*
X154082989Y-100486706D01*
X154092423Y-100484653D01*
X154097901Y-100481024D01*
X154109879Y-100480856D01*
X154134500Y-100475500D01*
X154154799Y-100475500D01*
X154154800Y-100475500D01*
X154256058Y-100433557D01*
X154333557Y-100356058D01*
X154333556Y-100356058D01*
X154392125Y-100297489D01*
X154933557Y-99756059D01*
X154962590Y-99685966D01*
X154975500Y-99654800D01*
X154975500Y-99015477D01*
X154995185Y-98948438D01*
X155011819Y-98927796D01*
X155453797Y-98485819D01*
X155515120Y-98452334D01*
X155541478Y-98449500D01*
X156050069Y-98449500D01*
X156066454Y-98454101D01*
X156082177Y-98453729D01*
X156109953Y-98466316D01*
X156114620Y-98467627D01*
X156116829Y-98468974D01*
X156142260Y-98485966D01*
X156145879Y-98486686D01*
X156158084Y-98494127D01*
X156175371Y-98513148D01*
X156195390Y-98529281D01*
X156198485Y-98538581D01*
X156205076Y-98545833D01*
X156209335Y-98571183D01*
X156217454Y-98595576D01*
X156215030Y-98605072D01*
X156216654Y-98614736D01*
X156206532Y-98638364D01*
X156200174Y-98663275D01*
X156193000Y-98669953D01*
X156189142Y-98678961D01*
X156167852Y-98693366D01*
X156149036Y-98710885D01*
X156142519Y-98713861D01*
X156059399Y-98769399D01*
X156004033Y-98852260D01*
X156004032Y-98852264D01*
X155989500Y-98925321D01*
X155989500Y-98925326D01*
X155989500Y-99074674D01*
X155989500Y-99074676D01*
X155989499Y-99074676D01*
X156004033Y-99147740D01*
X156006025Y-99152548D01*
X156013494Y-99222017D01*
X156006025Y-99247452D01*
X156004033Y-99252259D01*
X155989500Y-99325323D01*
X155989500Y-99474678D01*
X156004032Y-99547735D01*
X156004033Y-99547739D01*
X156008608Y-99554586D01*
X156059399Y-99630601D01*
X156142260Y-99685966D01*
X156152415Y-99692751D01*
X156151591Y-99693983D01*
X156195391Y-99729281D01*
X156217455Y-99795576D01*
X156200175Y-99863275D01*
X156149037Y-99910885D01*
X156142516Y-99913862D01*
X156059399Y-99969399D01*
X156004033Y-100052260D01*
X156004032Y-100052264D01*
X155989500Y-100125321D01*
X155989500Y-100125326D01*
X155989500Y-100274674D01*
X155989500Y-100274676D01*
X155989499Y-100274676D01*
X156004033Y-100347740D01*
X156006025Y-100352548D01*
X156013494Y-100422017D01*
X156006025Y-100447452D01*
X156004033Y-100452259D01*
X155989500Y-100525323D01*
X155989500Y-100674678D01*
X156004032Y-100747735D01*
X156004033Y-100747739D01*
X156004034Y-100747740D01*
X156059399Y-100830601D01*
X156142260Y-100885966D01*
X156152415Y-100892751D01*
X156151591Y-100893983D01*
X156195391Y-100929281D01*
X156217455Y-100995576D01*
X156200175Y-101063275D01*
X156149037Y-101110885D01*
X156142516Y-101113862D01*
X156059399Y-101169399D01*
X156004033Y-101252260D01*
X156004032Y-101252264D01*
X155989500Y-101325321D01*
X155989500Y-101325326D01*
X155989500Y-101474674D01*
X155989500Y-101474676D01*
X155989499Y-101474676D01*
X156004033Y-101547740D01*
X156006025Y-101552548D01*
X156013494Y-101622017D01*
X156006025Y-101647452D01*
X156004033Y-101652259D01*
X155989500Y-101725323D01*
X155989500Y-101725326D01*
X155989500Y-101874674D01*
X155989500Y-101874676D01*
X155989499Y-101874676D01*
X156004033Y-101947740D01*
X156006025Y-101952548D01*
X156013494Y-102022017D01*
X156006025Y-102047452D01*
X156004033Y-102052259D01*
X155989500Y-102125323D01*
X155989500Y-102125326D01*
X155989500Y-102274674D01*
X155989500Y-102274676D01*
X155989499Y-102274676D01*
X156004033Y-102347740D01*
X156006025Y-102352548D01*
X156013494Y-102422017D01*
X156006025Y-102447452D01*
X156004033Y-102452259D01*
X155989500Y-102525323D01*
X155989500Y-102525326D01*
X155989500Y-102674674D01*
X155989500Y-102674676D01*
X155989499Y-102674676D01*
X156004033Y-102747740D01*
X156006025Y-102752548D01*
X156013494Y-102822017D01*
X156006025Y-102847452D01*
X156004033Y-102852259D01*
X155989500Y-102925323D01*
X155989500Y-102925326D01*
X155989500Y-103074674D01*
X155989500Y-103074676D01*
X155989499Y-103074676D01*
X156004033Y-103147740D01*
X156006025Y-103152548D01*
X156013494Y-103222017D01*
X156006025Y-103247452D01*
X156004033Y-103252259D01*
X155989500Y-103325323D01*
X155989500Y-103325326D01*
X155989500Y-103474674D01*
X155989500Y-103474676D01*
X155989499Y-103474676D01*
X156004033Y-103547740D01*
X156006025Y-103552548D01*
X156013494Y-103622017D01*
X156006025Y-103647452D01*
X156004033Y-103652259D01*
X155989500Y-103725323D01*
X155989500Y-103874678D01*
X156004032Y-103947735D01*
X156004033Y-103947739D01*
X156004034Y-103947740D01*
X156059399Y-104030601D01*
X156142260Y-104085966D01*
X156142264Y-104085967D01*
X156215321Y-104100499D01*
X156215324Y-104100500D01*
X156215326Y-104100500D01*
X156864676Y-104100500D01*
X156864677Y-104100499D01*
X156937740Y-104085966D01*
X157020601Y-104030601D01*
X157075966Y-103947740D01*
X157076022Y-103947461D01*
X157090499Y-103874678D01*
X157090500Y-103874676D01*
X157090500Y-103725323D01*
X157090499Y-103725321D01*
X157075968Y-103652267D01*
X157075966Y-103652264D01*
X157075966Y-103652260D01*
X157075963Y-103652256D01*
X157073977Y-103647461D01*
X157066504Y-103577992D01*
X157073977Y-103552539D01*
X157075962Y-103547745D01*
X157075966Y-103547740D01*
X157076022Y-103547461D01*
X157090499Y-103474678D01*
X157090500Y-103474676D01*
X157090500Y-103325323D01*
X157090499Y-103325321D01*
X157075968Y-103252267D01*
X157075966Y-103252264D01*
X157075966Y-103252260D01*
X157075963Y-103252256D01*
X157073977Y-103247461D01*
X157066504Y-103177992D01*
X157073977Y-103152539D01*
X157075962Y-103147745D01*
X157075966Y-103147740D01*
X157076022Y-103147461D01*
X157090499Y-103074678D01*
X157090500Y-103074676D01*
X157090500Y-102925323D01*
X157090499Y-102925321D01*
X157075968Y-102852267D01*
X157075966Y-102852264D01*
X157075966Y-102852260D01*
X157075963Y-102852256D01*
X157073977Y-102847461D01*
X157066504Y-102777992D01*
X157073977Y-102752539D01*
X157075962Y-102747745D01*
X157075966Y-102747740D01*
X157076022Y-102747461D01*
X157090499Y-102674678D01*
X157090500Y-102674676D01*
X157090500Y-102525323D01*
X157090499Y-102525321D01*
X157075968Y-102452267D01*
X157075966Y-102452264D01*
X157075966Y-102452260D01*
X157075963Y-102452256D01*
X157073977Y-102447461D01*
X157066504Y-102377992D01*
X157073977Y-102352539D01*
X157075962Y-102347745D01*
X157075966Y-102347740D01*
X157090500Y-102274674D01*
X157090500Y-102125326D01*
X157090500Y-102125323D01*
X157090499Y-102125321D01*
X157075968Y-102052267D01*
X157075966Y-102052264D01*
X157075966Y-102052260D01*
X157075963Y-102052256D01*
X157073977Y-102047461D01*
X157066504Y-101977992D01*
X157073977Y-101952539D01*
X157075962Y-101947745D01*
X157075966Y-101947740D01*
X157079376Y-101930600D01*
X157090499Y-101874678D01*
X157090500Y-101874676D01*
X157090500Y-101725323D01*
X157090499Y-101725321D01*
X157075968Y-101652267D01*
X157075966Y-101652264D01*
X157075966Y-101652260D01*
X157075963Y-101652256D01*
X157073977Y-101647461D01*
X157066504Y-101577992D01*
X157073977Y-101552539D01*
X157075962Y-101547745D01*
X157075966Y-101547740D01*
X157076022Y-101547461D01*
X157090499Y-101474678D01*
X157090500Y-101474676D01*
X157090500Y-101325323D01*
X157090499Y-101325321D01*
X157075967Y-101252264D01*
X157075966Y-101252260D01*
X157070158Y-101243568D01*
X157020601Y-101169399D01*
X156937740Y-101114034D01*
X156937739Y-101114033D01*
X156927585Y-101107249D01*
X156928409Y-101106015D01*
X156884610Y-101070722D01*
X156862544Y-101004429D01*
X156879822Y-100936729D01*
X156930958Y-100889117D01*
X156937482Y-100886137D01*
X156937737Y-100885966D01*
X156937740Y-100885966D01*
X157020601Y-100830601D01*
X157075966Y-100747740D01*
X157076022Y-100747461D01*
X157090499Y-100674678D01*
X157090500Y-100674676D01*
X157090500Y-100525323D01*
X157090499Y-100525321D01*
X157075968Y-100452267D01*
X157075966Y-100452264D01*
X157075966Y-100452260D01*
X157075963Y-100452256D01*
X157073977Y-100447461D01*
X157066504Y-100377992D01*
X157073977Y-100352539D01*
X157075962Y-100347745D01*
X157075966Y-100347740D01*
X157076022Y-100347461D01*
X157085962Y-100297489D01*
X157090500Y-100274674D01*
X157090500Y-100125326D01*
X157090500Y-100125323D01*
X157090499Y-100125321D01*
X157075967Y-100052264D01*
X157075966Y-100052260D01*
X157020601Y-99969399D01*
X156937740Y-99914034D01*
X156937739Y-99914033D01*
X156927585Y-99907249D01*
X156928409Y-99906015D01*
X156884610Y-99870722D01*
X156862544Y-99804429D01*
X156879822Y-99736729D01*
X156930958Y-99689117D01*
X156937482Y-99686137D01*
X156937737Y-99685966D01*
X156937740Y-99685966D01*
X157020601Y-99630601D01*
X157075966Y-99547740D01*
X157076022Y-99547461D01*
X157090499Y-99474678D01*
X157090500Y-99474676D01*
X157090500Y-99325323D01*
X157090499Y-99325321D01*
X157075968Y-99252267D01*
X157075966Y-99252264D01*
X157075966Y-99252260D01*
X157075963Y-99252256D01*
X157073977Y-99247461D01*
X157066504Y-99177992D01*
X157073977Y-99152539D01*
X157075962Y-99147745D01*
X157075966Y-99147740D01*
X157076022Y-99147461D01*
X157090499Y-99074678D01*
X157090500Y-99074676D01*
X157090500Y-98925323D01*
X157090499Y-98925321D01*
X157075967Y-98852264D01*
X157075966Y-98852260D01*
X157058950Y-98826794D01*
X157020601Y-98769399D01*
X156937740Y-98714034D01*
X156937739Y-98714033D01*
X156927585Y-98707249D01*
X156928409Y-98706015D01*
X156884610Y-98670722D01*
X156862544Y-98604429D01*
X156879822Y-98536729D01*
X156930958Y-98489117D01*
X156937482Y-98486137D01*
X156937737Y-98485966D01*
X156937740Y-98485966D01*
X157020601Y-98430601D01*
X157075966Y-98347740D01*
X157090500Y-98274674D01*
X157090500Y-98125326D01*
X157090500Y-98125323D01*
X157090499Y-98125321D01*
X157075968Y-98052267D01*
X157075966Y-98052264D01*
X157075966Y-98052260D01*
X157075963Y-98052256D01*
X157073977Y-98047461D01*
X157066504Y-97977992D01*
X157073977Y-97952539D01*
X157075962Y-97947745D01*
X157075966Y-97947740D01*
X157076330Y-97945914D01*
X157086726Y-97893647D01*
X157090500Y-97874674D01*
X157090500Y-97725326D01*
X157090500Y-97725323D01*
X157090499Y-97725321D01*
X157075968Y-97652267D01*
X157075966Y-97652264D01*
X157075966Y-97652260D01*
X157075963Y-97652256D01*
X157073977Y-97647461D01*
X157066504Y-97577992D01*
X157073977Y-97552539D01*
X157075962Y-97547745D01*
X157075966Y-97547740D01*
X157076022Y-97547461D01*
X157090499Y-97474678D01*
X157090500Y-97474676D01*
X157090500Y-97325323D01*
X157090499Y-97325321D01*
X157075968Y-97252267D01*
X157075966Y-97252264D01*
X157075966Y-97252260D01*
X157075963Y-97252256D01*
X157073977Y-97247461D01*
X157066504Y-97177992D01*
X157073977Y-97152539D01*
X157075962Y-97147745D01*
X157075966Y-97147740D01*
X157076022Y-97147461D01*
X157090499Y-97074678D01*
X157090500Y-97074676D01*
X157090500Y-96925323D01*
X157090499Y-96925321D01*
X157075968Y-96852267D01*
X157075966Y-96852264D01*
X157075966Y-96852260D01*
X157075963Y-96852256D01*
X157073977Y-96847461D01*
X157066504Y-96777992D01*
X157073977Y-96752539D01*
X157075962Y-96747745D01*
X157075966Y-96747740D01*
X157076022Y-96747461D01*
X157090499Y-96674678D01*
X157090500Y-96674676D01*
X157090500Y-96525323D01*
X157090499Y-96525321D01*
X157075968Y-96452267D01*
X157075966Y-96452264D01*
X157075966Y-96452260D01*
X157075963Y-96452256D01*
X157073977Y-96447461D01*
X157066504Y-96377992D01*
X157073977Y-96352539D01*
X157075962Y-96347745D01*
X157075966Y-96347740D01*
X157076022Y-96347461D01*
X157090499Y-96274678D01*
X157090500Y-96274676D01*
X157090500Y-96125323D01*
X157090499Y-96125321D01*
X157075967Y-96052264D01*
X157075966Y-96052260D01*
X157071389Y-96045410D01*
X157020601Y-95969399D01*
X156937740Y-95914034D01*
X156937739Y-95914033D01*
X156937735Y-95914032D01*
X156864677Y-95899500D01*
X156864674Y-95899500D01*
X156215326Y-95899500D01*
X156215323Y-95899500D01*
X156142264Y-95914032D01*
X156142260Y-95914033D01*
X156059399Y-95969399D01*
X156004033Y-96052260D01*
X156004032Y-96052264D01*
X155989500Y-96125321D01*
X155989500Y-96125326D01*
X155989500Y-96274674D01*
X155989500Y-96274676D01*
X155989499Y-96274676D01*
X156004033Y-96347740D01*
X156006025Y-96352548D01*
X156013494Y-96422017D01*
X156006025Y-96447452D01*
X156004033Y-96452259D01*
X155989500Y-96525323D01*
X155989500Y-96525326D01*
X155989500Y-96674674D01*
X155989500Y-96674676D01*
X155989499Y-96674676D01*
X156004033Y-96747740D01*
X156006025Y-96752548D01*
X156013494Y-96822017D01*
X156006025Y-96847452D01*
X156004033Y-96852259D01*
X155989500Y-96925323D01*
X155989500Y-96925326D01*
X155989500Y-97074674D01*
X155989500Y-97074676D01*
X155989499Y-97074676D01*
X156004033Y-97147740D01*
X156006025Y-97152548D01*
X156013494Y-97222017D01*
X156006025Y-97247452D01*
X156004033Y-97252259D01*
X155989500Y-97325323D01*
X155989500Y-97325326D01*
X155989500Y-97474674D01*
X155989500Y-97474676D01*
X155989499Y-97474676D01*
X156004033Y-97547740D01*
X156006025Y-97552548D01*
X156014114Y-97618249D01*
X156010491Y-97642595D01*
X156004034Y-97652260D01*
X155989500Y-97725326D01*
X155989500Y-97783675D01*
X155988150Y-97792749D01*
X155977176Y-97816468D01*
X155969815Y-97841539D01*
X155962743Y-97847666D01*
X155958813Y-97856162D01*
X155936756Y-97870184D01*
X155917011Y-97887294D01*
X155906115Y-97889664D01*
X155899851Y-97893647D01*
X155888073Y-97893589D01*
X155865500Y-97898500D01*
X155321197Y-97898500D01*
X155250642Y-97927726D01*
X155219944Y-97940441D01*
X155219938Y-97940445D01*
X154543942Y-98616443D01*
X154466444Y-98693940D01*
X154424500Y-98795199D01*
X154424500Y-99434521D01*
X154404815Y-99501560D01*
X154388181Y-99522202D01*
X154203500Y-99706882D01*
X154142177Y-99740367D01*
X154072485Y-99735383D01*
X154016552Y-99693511D01*
X153999881Y-99663183D01*
X153996218Y-99653527D01*
X153995966Y-99652260D01*
X153995436Y-99651468D01*
X153992597Y-99643982D01*
X153990047Y-99610931D01*
X153986504Y-99577992D01*
X153987297Y-99575288D01*
X153987223Y-99574319D01*
X153988012Y-99572853D01*
X153993977Y-99552539D01*
X153995962Y-99547745D01*
X153995966Y-99547740D01*
X153996022Y-99547461D01*
X154010499Y-99474678D01*
X154010500Y-99474676D01*
X154010500Y-99325323D01*
X154010499Y-99325321D01*
X153995968Y-99252267D01*
X153995966Y-99252264D01*
X153995966Y-99252260D01*
X153995963Y-99252256D01*
X153993977Y-99247461D01*
X153986504Y-99177992D01*
X153993977Y-99152539D01*
X153995962Y-99147745D01*
X153995966Y-99147740D01*
X153996022Y-99147461D01*
X154010499Y-99074678D01*
X154010500Y-99074676D01*
X154010500Y-98925323D01*
X154010499Y-98925321D01*
X153995968Y-98852267D01*
X153995966Y-98852264D01*
X153995966Y-98852260D01*
X153995963Y-98852256D01*
X153993977Y-98847461D01*
X153986504Y-98777992D01*
X153993977Y-98752539D01*
X153995962Y-98747745D01*
X153995966Y-98747740D01*
X153996022Y-98747461D01*
X154010499Y-98674678D01*
X154010500Y-98674676D01*
X154010500Y-98525323D01*
X154010499Y-98525321D01*
X153995968Y-98452267D01*
X153995966Y-98452264D01*
X153995966Y-98452260D01*
X153995963Y-98452256D01*
X153993977Y-98447461D01*
X153986504Y-98377992D01*
X153993977Y-98352539D01*
X153995962Y-98347745D01*
X153995966Y-98347740D01*
X154000133Y-98326794D01*
X154005655Y-98299029D01*
X154010500Y-98274674D01*
X154010500Y-98125326D01*
X154010500Y-98125323D01*
X154010499Y-98125321D01*
X153995968Y-98052267D01*
X153995966Y-98052264D01*
X153995966Y-98052260D01*
X153995963Y-98052256D01*
X153993977Y-98047461D01*
X153986504Y-97977992D01*
X153993977Y-97952539D01*
X153995962Y-97947745D01*
X153995966Y-97947740D01*
X153996330Y-97945914D01*
X154006726Y-97893647D01*
X154010500Y-97874674D01*
X154010500Y-97725326D01*
X154010500Y-97725323D01*
X154010499Y-97725321D01*
X153995968Y-97652267D01*
X153995966Y-97652264D01*
X153995966Y-97652260D01*
X153995963Y-97652256D01*
X153993977Y-97647461D01*
X153986504Y-97577992D01*
X153993977Y-97552539D01*
X153995962Y-97547745D01*
X153995966Y-97547740D01*
X153996022Y-97547461D01*
X154010499Y-97474678D01*
X154010500Y-97474676D01*
X154010500Y-97325323D01*
X154010499Y-97325321D01*
X153995968Y-97252267D01*
X153995966Y-97252264D01*
X153995966Y-97252260D01*
X153995963Y-97252256D01*
X153993977Y-97247461D01*
X153986504Y-97177992D01*
X153993977Y-97152539D01*
X153995962Y-97147745D01*
X153995966Y-97147740D01*
X153996022Y-97147461D01*
X154010499Y-97074678D01*
X154010500Y-97074676D01*
X154010500Y-96925323D01*
X154010499Y-96925321D01*
X153995968Y-96852267D01*
X153995966Y-96852264D01*
X153995966Y-96852260D01*
X153995963Y-96852256D01*
X153993977Y-96847461D01*
X153986504Y-96777992D01*
X153993977Y-96752539D01*
X153995962Y-96747745D01*
X153995966Y-96747740D01*
X153996022Y-96747461D01*
X154010499Y-96674678D01*
X154010500Y-96674676D01*
X154010500Y-96525323D01*
X154010499Y-96525321D01*
X153995968Y-96452267D01*
X153995966Y-96452264D01*
X153995966Y-96452260D01*
X153995963Y-96452256D01*
X153993977Y-96447461D01*
X153986504Y-96377992D01*
X153993977Y-96352539D01*
X153995962Y-96347745D01*
X153995966Y-96347740D01*
X153996022Y-96347461D01*
X154010499Y-96274678D01*
X154010500Y-96274676D01*
X154010500Y-96125323D01*
X154010499Y-96125321D01*
X153995967Y-96052264D01*
X153995966Y-96052260D01*
X153991389Y-96045410D01*
X153940601Y-95969399D01*
X153857740Y-95914034D01*
X153857739Y-95914033D01*
X153857735Y-95914032D01*
X153784677Y-95899500D01*
X153784674Y-95899500D01*
X153135326Y-95899500D01*
X153135323Y-95899500D01*
X153062264Y-95914032D01*
X153062260Y-95914033D01*
X152979399Y-95969399D01*
X152924033Y-96052260D01*
X152924032Y-96052264D01*
X152909500Y-96125321D01*
X152909500Y-96125326D01*
X152909500Y-96274674D01*
X152909500Y-96274676D01*
X152909499Y-96274676D01*
X152924033Y-96347740D01*
X152926025Y-96352548D01*
X152933494Y-96422017D01*
X152926025Y-96447452D01*
X152924033Y-96452259D01*
X152909500Y-96525323D01*
X152909500Y-96525326D01*
X152909500Y-96674674D01*
X152909500Y-96674676D01*
X152909499Y-96674676D01*
X152924033Y-96747740D01*
X152926025Y-96752548D01*
X152933494Y-96822017D01*
X152926025Y-96847452D01*
X152924033Y-96852259D01*
X152909500Y-96925323D01*
X152909500Y-96925326D01*
X152909500Y-97074674D01*
X152909500Y-97074676D01*
X152909499Y-97074676D01*
X152924033Y-97147740D01*
X152926025Y-97152548D01*
X152933494Y-97222017D01*
X152926025Y-97247452D01*
X152924033Y-97252259D01*
X152909500Y-97325323D01*
X152909500Y-97325326D01*
X152909500Y-97474674D01*
X152909500Y-97474676D01*
X152909499Y-97474676D01*
X152924033Y-97547740D01*
X152926025Y-97552548D01*
X152933494Y-97622017D01*
X152926025Y-97647452D01*
X152924033Y-97652259D01*
X152909500Y-97725323D01*
X152909500Y-97725326D01*
X152909500Y-97874674D01*
X152909500Y-97874676D01*
X152909499Y-97874676D01*
X152924033Y-97947740D01*
X152926025Y-97952548D01*
X152933494Y-98022017D01*
X152926025Y-98047452D01*
X152924033Y-98052259D01*
X152909500Y-98125323D01*
X152909500Y-98259193D01*
X152889815Y-98326232D01*
X152837011Y-98371987D01*
X152767853Y-98381931D01*
X152723500Y-98366580D01*
X152654589Y-98326794D01*
X152654588Y-98326793D01*
X152654587Y-98326793D01*
X152552727Y-98299500D01*
X152447273Y-98299500D01*
X152345413Y-98326793D01*
X152345410Y-98326794D01*
X152254085Y-98379521D01*
X152179521Y-98454085D01*
X152126794Y-98545410D01*
X152126793Y-98545413D01*
X152099500Y-98647273D01*
X152099500Y-98752727D01*
X152126793Y-98854587D01*
X152170281Y-98929911D01*
X152179521Y-98945914D01*
X152195926Y-98962319D01*
X152229411Y-99023642D01*
X152224427Y-99093334D01*
X152195926Y-99137681D01*
X152179521Y-99154085D01*
X152126794Y-99245410D01*
X152126793Y-99245413D01*
X152099500Y-99347273D01*
X152099500Y-99452727D01*
X152126793Y-99554587D01*
X152179520Y-99645913D01*
X152254087Y-99720480D01*
X152345413Y-99773207D01*
X152447273Y-99800500D01*
X152447275Y-99800500D01*
X152552725Y-99800500D01*
X152552727Y-99800500D01*
X152654587Y-99773207D01*
X152723501Y-99733419D01*
X152756854Y-99725327D01*
X152790150Y-99716893D01*
X152790766Y-99717099D01*
X152791399Y-99716946D01*
X152823854Y-99728178D01*
X152856404Y-99739078D01*
X152856811Y-99739585D01*
X152857426Y-99739798D01*
X152878643Y-99766778D01*
X152900147Y-99793561D01*
X152900295Y-99794309D01*
X152900617Y-99794719D01*
X152908813Y-99827774D01*
X152909500Y-99834274D01*
X152909500Y-99874674D01*
X152918608Y-99920466D01*
X152919204Y-99926098D01*
X152913911Y-99955130D01*
X152911280Y-99984532D01*
X152907500Y-99990298D01*
X152906674Y-99994835D01*
X152899487Y-100002525D01*
X152883572Y-100026811D01*
X150072204Y-102838181D01*
X150010881Y-102871666D01*
X149984523Y-102874500D01*
X147008621Y-102874500D01*
X146941582Y-102854815D01*
X146895827Y-102802011D01*
X146885883Y-102732853D01*
X146914908Y-102669297D01*
X146973686Y-102631523D01*
X146976504Y-102630731D01*
X147004587Y-102623207D01*
X147095913Y-102570480D01*
X147170480Y-102495913D01*
X147223207Y-102404587D01*
X147250500Y-102302727D01*
X147250500Y-102197273D01*
X147223207Y-102095413D01*
X147170480Y-102004087D01*
X147095913Y-101929520D01*
X147009312Y-101879521D01*
X147004589Y-101876794D01*
X147004588Y-101876793D01*
X147004587Y-101876793D01*
X146902727Y-101849500D01*
X146797273Y-101849500D01*
X146695413Y-101876793D01*
X146695410Y-101876794D01*
X146604085Y-101929521D01*
X146529522Y-102004084D01*
X146529520Y-102004086D01*
X146529520Y-102004087D01*
X146510227Y-102037501D01*
X146501542Y-102045783D01*
X146496556Y-102056703D01*
X146476724Y-102069448D01*
X146459664Y-102085715D01*
X146446407Y-102088931D01*
X146437778Y-102094477D01*
X146402843Y-102099500D01*
X146326025Y-102099500D01*
X146258986Y-102079815D01*
X146218638Y-102037500D01*
X146170480Y-101954087D01*
X146095913Y-101879520D01*
X146004587Y-101826793D01*
X145902727Y-101799500D01*
X145902726Y-101799500D01*
X145894721Y-101799500D01*
X145827682Y-101779815D01*
X145807040Y-101763181D01*
X145592005Y-101548147D01*
X145592003Y-101548145D01*
X145592000Y-101548143D01*
X145591996Y-101548140D01*
X145528502Y-101511481D01*
X145528500Y-101511480D01*
X145528497Y-101511479D01*
X145457665Y-101492500D01*
X143708967Y-101492500D01*
X143635637Y-101492500D01*
X143564805Y-101511479D01*
X143564798Y-101511482D01*
X143501305Y-101548139D01*
X143501297Y-101548145D01*
X143249997Y-101799447D01*
X143249996Y-101799448D01*
X143198144Y-101851298D01*
X143161481Y-101914799D01*
X143161480Y-101914801D01*
X143161479Y-101914805D01*
X143142500Y-101985637D01*
X141538232Y-101985637D01*
X141620601Y-101930601D01*
X141675966Y-101847740D01*
X141690500Y-101774674D01*
X141690500Y-101625326D01*
X141690500Y-101625323D01*
X141690499Y-101625321D01*
X141675968Y-101552267D01*
X141675966Y-101552264D01*
X141675966Y-101552260D01*
X141675963Y-101552256D01*
X141673977Y-101547461D01*
X141666504Y-101477992D01*
X141673977Y-101452539D01*
X141675962Y-101447745D01*
X141675966Y-101447740D01*
X141677411Y-101440479D01*
X141690499Y-101374678D01*
X141690500Y-101374676D01*
X141690500Y-101225323D01*
X141690499Y-101225321D01*
X141675968Y-101152267D01*
X141675966Y-101152264D01*
X141675966Y-101152260D01*
X141675963Y-101152256D01*
X141673977Y-101147461D01*
X141666504Y-101077992D01*
X141673977Y-101052539D01*
X141675962Y-101047745D01*
X141675966Y-101047740D01*
X141681389Y-101020480D01*
X141687094Y-100991795D01*
X141690500Y-100974674D01*
X141690500Y-100825326D01*
X141690500Y-100825323D01*
X141690499Y-100825321D01*
X141675968Y-100752267D01*
X141675966Y-100752264D01*
X141675966Y-100752260D01*
X141675963Y-100752256D01*
X141673977Y-100747461D01*
X141666504Y-100677992D01*
X141673977Y-100652539D01*
X141675962Y-100647745D01*
X141675966Y-100647740D01*
X141683886Y-100607927D01*
X141690499Y-100574678D01*
X141690500Y-100574676D01*
X141690500Y-100425323D01*
X141690499Y-100425321D01*
X141675968Y-100352267D01*
X141675966Y-100352264D01*
X141675966Y-100352260D01*
X141675963Y-100352256D01*
X141673977Y-100347461D01*
X141666504Y-100277992D01*
X141673977Y-100252539D01*
X141675962Y-100247745D01*
X141675966Y-100247740D01*
X141690500Y-100174674D01*
X141690500Y-100025326D01*
X141690500Y-100025323D01*
X141690499Y-100025321D01*
X141675968Y-99952267D01*
X141675966Y-99952264D01*
X141675966Y-99952260D01*
X141675963Y-99952256D01*
X141673977Y-99947461D01*
X141666504Y-99877992D01*
X141673977Y-99852539D01*
X141675962Y-99847745D01*
X141675966Y-99847740D01*
X141690500Y-99774674D01*
X141690500Y-99625326D01*
X141690500Y-99625323D01*
X141690499Y-99625321D01*
X141675968Y-99552267D01*
X141675966Y-99552264D01*
X141675966Y-99552260D01*
X141675963Y-99552256D01*
X141673977Y-99547461D01*
X141666504Y-99477992D01*
X141673977Y-99452539D01*
X141675962Y-99447745D01*
X141675966Y-99447740D01*
X141678596Y-99434521D01*
X141690499Y-99374678D01*
X141690500Y-99374676D01*
X141690500Y-99225323D01*
X141690499Y-99225321D01*
X141675968Y-99152267D01*
X141675966Y-99152264D01*
X141675966Y-99152260D01*
X141675963Y-99152256D01*
X141673977Y-99147461D01*
X141666504Y-99077992D01*
X141673977Y-99052539D01*
X141675962Y-99047745D01*
X141675966Y-99047740D01*
X141676694Y-99044083D01*
X141690499Y-98974678D01*
X141690500Y-98974676D01*
X141690500Y-98825323D01*
X141690499Y-98825321D01*
X141675968Y-98752267D01*
X141675966Y-98752264D01*
X141675966Y-98752260D01*
X141675963Y-98752256D01*
X141673977Y-98747461D01*
X141666504Y-98677992D01*
X141673977Y-98652539D01*
X141675962Y-98647745D01*
X141675966Y-98647740D01*
X141682192Y-98616443D01*
X141690499Y-98574678D01*
X141690500Y-98574676D01*
X141690500Y-98425323D01*
X141690499Y-98425321D01*
X141675967Y-98352264D01*
X141675966Y-98352260D01*
X141672945Y-98347739D01*
X141620601Y-98269399D01*
X141537740Y-98214034D01*
X141537739Y-98214033D01*
X141527585Y-98207249D01*
X141528409Y-98206015D01*
X141484610Y-98170722D01*
X141462544Y-98104429D01*
X141479822Y-98036729D01*
X141530958Y-97989117D01*
X141537482Y-97986137D01*
X141537737Y-97985966D01*
X141537740Y-97985966D01*
X141620601Y-97930601D01*
X141675966Y-97847740D01*
X141690500Y-97774674D01*
X141690500Y-97625326D01*
X141690171Y-97621988D01*
X141689573Y-97609827D01*
X141689573Y-97593505D01*
X141700500Y-97552727D01*
X141700500Y-97447273D01*
X141689573Y-97406493D01*
X141689573Y-97390169D01*
X141690820Y-97385922D01*
X141690171Y-97378002D01*
X141690499Y-97374678D01*
X141690500Y-97374674D01*
X141690500Y-97225326D01*
X141690500Y-97225323D01*
X141690499Y-97225321D01*
X141675968Y-97152267D01*
X141675966Y-97152264D01*
X141675966Y-97152260D01*
X141675963Y-97152256D01*
X141673977Y-97147461D01*
X141670693Y-97116940D01*
X141667147Y-97097273D01*
X144949500Y-97097273D01*
X144949500Y-97202727D01*
X144976793Y-97304587D01*
X145029520Y-97395913D01*
X145104087Y-97470480D01*
X145195413Y-97523207D01*
X145297273Y-97550500D01*
X145297275Y-97550500D01*
X145402725Y-97550500D01*
X145402727Y-97550500D01*
X145504587Y-97523207D01*
X145538001Y-97503915D01*
X145605898Y-97487442D01*
X145661997Y-97503914D01*
X145695413Y-97523207D01*
X145797273Y-97550500D01*
X145797275Y-97550500D01*
X145902725Y-97550500D01*
X145902727Y-97550500D01*
X146004587Y-97523207D01*
X146095913Y-97470480D01*
X146170480Y-97395913D01*
X146223207Y-97304587D01*
X146250500Y-97202727D01*
X146250500Y-97097273D01*
X146223207Y-96995413D01*
X146170480Y-96904087D01*
X146095913Y-96829520D01*
X146004587Y-96776793D01*
X145902727Y-96749500D01*
X145797273Y-96749500D01*
X145695413Y-96776793D01*
X145695410Y-96776794D01*
X145662000Y-96796084D01*
X145594100Y-96812557D01*
X145538000Y-96796084D01*
X145504589Y-96776794D01*
X145504588Y-96776793D01*
X145504587Y-96776793D01*
X145402727Y-96749500D01*
X145297273Y-96749500D01*
X145195413Y-96776793D01*
X145195410Y-96776794D01*
X145104085Y-96829521D01*
X145029521Y-96904085D01*
X144976794Y-96995410D01*
X144976793Y-96995413D01*
X144949500Y-97097273D01*
X141667147Y-97097273D01*
X141665247Y-97086734D01*
X141666793Y-97080678D01*
X141666504Y-97077992D01*
X141673978Y-97052537D01*
X141675963Y-97047743D01*
X141675966Y-97047740D01*
X141675966Y-97047735D01*
X141675968Y-97047733D01*
X141690499Y-96974678D01*
X141690500Y-96974676D01*
X141690500Y-96825323D01*
X141690499Y-96825321D01*
X141675968Y-96752267D01*
X141675966Y-96752264D01*
X141675966Y-96752260D01*
X141675963Y-96752256D01*
X141673977Y-96747461D01*
X141666504Y-96677992D01*
X141673977Y-96652539D01*
X141675962Y-96647745D01*
X141675966Y-96647740D01*
X141690500Y-96574674D01*
X141690500Y-96425326D01*
X141690500Y-96425323D01*
X141690499Y-96425321D01*
X141675968Y-96352267D01*
X141675966Y-96352264D01*
X141675966Y-96352260D01*
X141675963Y-96352256D01*
X141673977Y-96347461D01*
X141666120Y-96280240D01*
X141669900Y-96256817D01*
X141675966Y-96247740D01*
X141690500Y-96174674D01*
X141690500Y-96147273D01*
X147749500Y-96147273D01*
X147749500Y-96252727D01*
X147776793Y-96354587D01*
X147829520Y-96445913D01*
X147904087Y-96520480D01*
X147962501Y-96554205D01*
X148010715Y-96604771D01*
X148024500Y-96661591D01*
X148024500Y-101929556D01*
X148007887Y-101991556D01*
X147976794Y-102045410D01*
X147976793Y-102045413D01*
X147949500Y-102147273D01*
X147949500Y-102252727D01*
X147976793Y-102354587D01*
X148029520Y-102445913D01*
X148104087Y-102520480D01*
X148195413Y-102573207D01*
X148297273Y-102600500D01*
X148297275Y-102600500D01*
X148402725Y-102600500D01*
X148402727Y-102600500D01*
X148504587Y-102573207D01*
X148595913Y-102520480D01*
X148670480Y-102445913D01*
X148723207Y-102354587D01*
X148750500Y-102252727D01*
X148750500Y-102147273D01*
X148723207Y-102045413D01*
X148692112Y-101991555D01*
X148675500Y-101929556D01*
X148675500Y-101223186D01*
X148695185Y-101156147D01*
X148747989Y-101110392D01*
X148809475Y-101101179D01*
X148809475Y-101100500D01*
X148814013Y-101100500D01*
X148815695Y-101100248D01*
X148817596Y-101100498D01*
X148817602Y-101100500D01*
X148817608Y-101100500D01*
X148923054Y-101100500D01*
X148923056Y-101100500D01*
X149024916Y-101073207D01*
X149116242Y-101020480D01*
X149190809Y-100945913D01*
X149243536Y-100854587D01*
X149270829Y-100752727D01*
X149270829Y-100674966D01*
X149290514Y-100607927D01*
X149332827Y-100567580D01*
X149395913Y-100531158D01*
X149470480Y-100456591D01*
X149523207Y-100365265D01*
X149550500Y-100263405D01*
X149550500Y-100157951D01*
X149535070Y-100100365D01*
X149536733Y-100030521D01*
X149575895Y-99972658D01*
X149607389Y-99953716D01*
X149656058Y-99933557D01*
X149733557Y-99856058D01*
X149733556Y-99856058D01*
X150233558Y-99356058D01*
X150275500Y-99254800D01*
X150275500Y-99145200D01*
X150275500Y-98042255D01*
X150295185Y-97975216D01*
X150311819Y-97954574D01*
X150313854Y-97952539D01*
X150320480Y-97945913D01*
X150373207Y-97854587D01*
X150381865Y-97822273D01*
X151049500Y-97822273D01*
X151049500Y-97927727D01*
X151072702Y-98014317D01*
X151076793Y-98029586D01*
X151076794Y-98029589D01*
X151088186Y-98049321D01*
X151129520Y-98120913D01*
X151204087Y-98195480D01*
X151295413Y-98248207D01*
X151397273Y-98275500D01*
X151397275Y-98275500D01*
X151502725Y-98275500D01*
X151502727Y-98275500D01*
X151604587Y-98248207D01*
X151695913Y-98195480D01*
X151770480Y-98120913D01*
X151823207Y-98029587D01*
X151850500Y-97927727D01*
X151850500Y-97822273D01*
X151823207Y-97720413D01*
X151770480Y-97629087D01*
X151695913Y-97554520D01*
X151604587Y-97501793D01*
X151502727Y-97474500D01*
X151397273Y-97474500D01*
X151295413Y-97501793D01*
X151295410Y-97501794D01*
X151204085Y-97554521D01*
X151129521Y-97629085D01*
X151076794Y-97720410D01*
X151076793Y-97720413D01*
X151049500Y-97822273D01*
X150381865Y-97822273D01*
X150400500Y-97752727D01*
X150400500Y-97647273D01*
X150373207Y-97545413D01*
X150320480Y-97454087D01*
X150245913Y-97379520D01*
X150154587Y-97326793D01*
X150052727Y-97299500D01*
X149947273Y-97299500D01*
X149845413Y-97326793D01*
X149845410Y-97326794D01*
X149754085Y-97379521D01*
X149679521Y-97454085D01*
X149626794Y-97545410D01*
X149626793Y-97545413D01*
X149599500Y-97647273D01*
X149599500Y-97752727D01*
X149624959Y-97847740D01*
X149626793Y-97854586D01*
X149626794Y-97854589D01*
X149640922Y-97879059D01*
X149669020Y-97927727D01*
X149679521Y-97945914D01*
X149688181Y-97954574D01*
X149721666Y-98015897D01*
X149724500Y-98042255D01*
X149724500Y-98931289D01*
X149704815Y-98998328D01*
X149652011Y-99044083D01*
X149582853Y-99054027D01*
X149519297Y-99025002D01*
X149493115Y-98993293D01*
X149470480Y-98954087D01*
X149395913Y-98879520D01*
X149304587Y-98826793D01*
X149202727Y-98799500D01*
X149097273Y-98799500D01*
X148995413Y-98826793D01*
X148995410Y-98826794D01*
X148904085Y-98879521D01*
X148887181Y-98896426D01*
X148825858Y-98929911D01*
X148756166Y-98924927D01*
X148700233Y-98883055D01*
X148675816Y-98817591D01*
X148675500Y-98808745D01*
X148675500Y-96476021D01*
X148675501Y-96476008D01*
X148675501Y-96380314D01*
X148668608Y-96354587D01*
X148653318Y-96297527D01*
X148624573Y-96247740D01*
X148610465Y-96223304D01*
X148574962Y-96187801D01*
X148570633Y-96182376D01*
X148562706Y-96162978D01*
X148547781Y-96137127D01*
X148523207Y-96045413D01*
X148470480Y-95954087D01*
X148395913Y-95879520D01*
X148304587Y-95826793D01*
X148202727Y-95799500D01*
X148097273Y-95799500D01*
X147995413Y-95826793D01*
X147995410Y-95826794D01*
X147904085Y-95879521D01*
X147829521Y-95954085D01*
X147776794Y-96045410D01*
X147776793Y-96045413D01*
X147749500Y-96147273D01*
X141690500Y-96147273D01*
X141690500Y-96025326D01*
X141690500Y-96025323D01*
X141690499Y-96025321D01*
X141675968Y-95952267D01*
X141675966Y-95952264D01*
X141675966Y-95952260D01*
X141675963Y-95952256D01*
X141673977Y-95947461D01*
X141666504Y-95877992D01*
X141673977Y-95852539D01*
X141675962Y-95847745D01*
X141675966Y-95847740D01*
X141680133Y-95826794D01*
X141690499Y-95774678D01*
X141690500Y-95774676D01*
X141690500Y-95747273D01*
X154299500Y-95747273D01*
X154299500Y-95852727D01*
X154326793Y-95954587D01*
X154379520Y-96045913D01*
X154454087Y-96120480D01*
X154545413Y-96173207D01*
X154647273Y-96200500D01*
X154647275Y-96200500D01*
X154752725Y-96200500D01*
X154752727Y-96200500D01*
X154854587Y-96173207D01*
X154945913Y-96120480D01*
X155020480Y-96045913D01*
X155073207Y-95954587D01*
X155100500Y-95852727D01*
X155100500Y-95747273D01*
X155073207Y-95645413D01*
X155020480Y-95554087D01*
X154945913Y-95479520D01*
X154854587Y-95426793D01*
X154752727Y-95399500D01*
X154647273Y-95399500D01*
X154545413Y-95426793D01*
X154545410Y-95426794D01*
X154454085Y-95479521D01*
X154379521Y-95554085D01*
X154326794Y-95645410D01*
X154326793Y-95645413D01*
X154299500Y-95747273D01*
X141690500Y-95747273D01*
X141690500Y-95625323D01*
X141690499Y-95625321D01*
X141675968Y-95552267D01*
X141675966Y-95552264D01*
X141675966Y-95552260D01*
X141675963Y-95552256D01*
X141673977Y-95547461D01*
X141666504Y-95477992D01*
X141673977Y-95452539D01*
X141675962Y-95447745D01*
X141675966Y-95447740D01*
X141680133Y-95426794D01*
X141690499Y-95374678D01*
X141690500Y-95374676D01*
X141690500Y-95225323D01*
X141690499Y-95225321D01*
X141675967Y-95152264D01*
X141675966Y-95152260D01*
X141620601Y-95069399D01*
X141537740Y-95014034D01*
X141537739Y-95014033D01*
X141537735Y-95014032D01*
X141464677Y-94999500D01*
X141464674Y-94999500D01*
X140815326Y-94999500D01*
X140815323Y-94999500D01*
X140742264Y-95014032D01*
X140742260Y-95014033D01*
X140659399Y-95069399D01*
X140604033Y-95152260D01*
X140604032Y-95152264D01*
X140589500Y-95225321D01*
X140589500Y-95225326D01*
X140589500Y-95374674D01*
X140589500Y-95374676D01*
X140589499Y-95374676D01*
X140604033Y-95447740D01*
X140606025Y-95452548D01*
X140613494Y-95522017D01*
X140606025Y-95547452D01*
X140604033Y-95552259D01*
X140589500Y-95625323D01*
X140589500Y-95625326D01*
X140589500Y-95774674D01*
X140589500Y-95774676D01*
X140589499Y-95774676D01*
X140604033Y-95847740D01*
X140606025Y-95852548D01*
X140613494Y-95922017D01*
X140606025Y-95947452D01*
X140604033Y-95952259D01*
X140589500Y-96025323D01*
X140589500Y-96025326D01*
X140589500Y-96174674D01*
X140589500Y-96174676D01*
X140589499Y-96174676D01*
X140604033Y-96247738D01*
X140606025Y-96252548D01*
X140613494Y-96322017D01*
X140606025Y-96347452D01*
X140604033Y-96352259D01*
X140589500Y-96425323D01*
X140589500Y-96425326D01*
X140589500Y-96574674D01*
X140589500Y-96574676D01*
X140589499Y-96574676D01*
X140604033Y-96647740D01*
X140606025Y-96652548D01*
X140613494Y-96722017D01*
X140606025Y-96747452D01*
X140604033Y-96752259D01*
X140589500Y-96825323D01*
X140589500Y-96975500D01*
X140569815Y-97042539D01*
X140517011Y-97088294D01*
X140465500Y-97099500D01*
X139897273Y-97099500D01*
X139795413Y-97126793D01*
X139795410Y-97126794D01*
X139704085Y-97179521D01*
X139629521Y-97254085D01*
X139576794Y-97345410D01*
X139576793Y-97345413D01*
X139549500Y-97447273D01*
X139549500Y-97552727D01*
X139576793Y-97654587D01*
X139629520Y-97745913D01*
X139704087Y-97820480D01*
X139795413Y-97873207D01*
X139897273Y-97900500D01*
X140447273Y-97900500D01*
X140577935Y-97900500D01*
X140644974Y-97920185D01*
X140645741Y-97920681D01*
X140658213Y-97928827D01*
X140659399Y-97930601D01*
X140742260Y-97985966D01*
X140747206Y-97986949D01*
X140761340Y-97996181D01*
X140776822Y-98014317D01*
X140795391Y-98029281D01*
X140799093Y-98040404D01*
X140806705Y-98049321D01*
X140809925Y-98072951D01*
X140817455Y-98095576D01*
X140814555Y-98106933D01*
X140816139Y-98118551D01*
X140806072Y-98140170D01*
X140800175Y-98163275D01*
X140791594Y-98171263D01*
X140786646Y-98181891D01*
X140766492Y-98194634D01*
X140749037Y-98210885D01*
X140742516Y-98213862D01*
X140659399Y-98269399D01*
X140604033Y-98352260D01*
X140604032Y-98352263D01*
X140594598Y-98399692D01*
X140562212Y-98461603D01*
X140501496Y-98496177D01*
X140472981Y-98499500D01*
X140447273Y-98499500D01*
X140345413Y-98526793D01*
X140345410Y-98526794D01*
X140254085Y-98579521D01*
X140179521Y-98654085D01*
X140126794Y-98745410D01*
X140126793Y-98745413D01*
X140099500Y-98847273D01*
X140099500Y-98952727D01*
X140126245Y-99052539D01*
X140126793Y-99054586D01*
X140126794Y-99054589D01*
X140140306Y-99077992D01*
X140179520Y-99145913D01*
X140254087Y-99220480D01*
X140345413Y-99273207D01*
X140447273Y-99300500D01*
X140447275Y-99300500D01*
X140472982Y-99300500D01*
X140500943Y-99308710D01*
X140529573Y-99314167D01*
X140534070Y-99318437D01*
X140540021Y-99320185D01*
X140559102Y-99342206D01*
X140580240Y-99362277D01*
X140583132Y-99369938D01*
X140585776Y-99372989D01*
X140593426Y-99395016D01*
X140594068Y-99397639D01*
X140604034Y-99447740D01*
X140607661Y-99453169D01*
X140611908Y-99470516D01*
X140610732Y-99496327D01*
X140613494Y-99522017D01*
X140608839Y-99537867D01*
X140608728Y-99540313D01*
X140607692Y-99541773D01*
X140606025Y-99547452D01*
X140604033Y-99552259D01*
X140589500Y-99625323D01*
X140589500Y-99625326D01*
X140589500Y-99774674D01*
X140589500Y-99774676D01*
X140589499Y-99774676D01*
X140604033Y-99847740D01*
X140606025Y-99852548D01*
X140613494Y-99922017D01*
X140606025Y-99947452D01*
X140604033Y-99952259D01*
X140589500Y-100025323D01*
X140589500Y-100025326D01*
X140589500Y-100174674D01*
X140589500Y-100174676D01*
X140589499Y-100174676D01*
X140604033Y-100247740D01*
X140606025Y-100252548D01*
X140613494Y-100322017D01*
X140606025Y-100347452D01*
X140604033Y-100352259D01*
X140589500Y-100425323D01*
X140589500Y-100425326D01*
X140589500Y-100574674D01*
X140589500Y-100574676D01*
X140589499Y-100574676D01*
X140604033Y-100647740D01*
X140606025Y-100652548D01*
X140613494Y-100722017D01*
X140606025Y-100747452D01*
X140604033Y-100752259D01*
X140589500Y-100825323D01*
X140589500Y-100825326D01*
X140589500Y-100974674D01*
X140589500Y-100974676D01*
X140589499Y-100974676D01*
X140604033Y-101047740D01*
X140606025Y-101052548D01*
X140613494Y-101122017D01*
X140606025Y-101147452D01*
X140604033Y-101152259D01*
X140589500Y-101225323D01*
X140589500Y-101225326D01*
X140589500Y-101374674D01*
X140589500Y-101374676D01*
X140589499Y-101374676D01*
X140604033Y-101447740D01*
X140606025Y-101452548D01*
X140613494Y-101522017D01*
X140606025Y-101547452D01*
X140604033Y-101552259D01*
X140589500Y-101625323D01*
X140589500Y-101774678D01*
X140604032Y-101847735D01*
X140604033Y-101847739D01*
X140604034Y-101847740D01*
X140659399Y-101930601D01*
X140741768Y-101985637D01*
X140752415Y-101992751D01*
X140751591Y-101993983D01*
X140795391Y-102029281D01*
X140817455Y-102095576D01*
X140800175Y-102163275D01*
X140749037Y-102210885D01*
X140742516Y-102213862D01*
X140659399Y-102269399D01*
X140604033Y-102352260D01*
X140604032Y-102352264D01*
X140589500Y-102425321D01*
X140589500Y-102553500D01*
X140569815Y-102620539D01*
X140517011Y-102666294D01*
X140465500Y-102677500D01*
X140397273Y-102677500D01*
X140295413Y-102704793D01*
X140295410Y-102704794D01*
X140235089Y-102739621D01*
X140208647Y-102754887D01*
X140193159Y-102759037D01*
X140181583Y-102766477D01*
X140146648Y-102771500D01*
X139952500Y-102771500D01*
X139885461Y-102751815D01*
X139839706Y-102699011D01*
X139828500Y-102647500D01*
X139828500Y-101863337D01*
X139828500Y-101863335D01*
X139809521Y-101792503D01*
X139792361Y-101762781D01*
X139772856Y-101728997D01*
X139521003Y-101477145D01*
X139521000Y-101477143D01*
X139520996Y-101477140D01*
X139457502Y-101440481D01*
X139457500Y-101440480D01*
X139457497Y-101440479D01*
X139386665Y-101421500D01*
X139386664Y-101421500D01*
X138734500Y-101421500D01*
X138733752Y-101421280D01*
X138733002Y-101421491D01*
X138700261Y-101411446D01*
X138667461Y-101401815D01*
X138666951Y-101401227D01*
X138666205Y-101400998D01*
X138644084Y-101374836D01*
X138621706Y-101349011D01*
X138621427Y-101348042D01*
X138621092Y-101347645D01*
X138620474Y-101344720D01*
X138611558Y-101313663D01*
X138610500Y-101305615D01*
X138610500Y-101225326D01*
X138595966Y-101152260D01*
X138588960Y-101141775D01*
X138585593Y-101116163D01*
X138588563Y-101097137D01*
X138586504Y-101077992D01*
X138593977Y-101052539D01*
X138595962Y-101047745D01*
X138595966Y-101047740D01*
X138601389Y-101020480D01*
X138607094Y-100991795D01*
X138610500Y-100974674D01*
X138610500Y-100825326D01*
X138610500Y-100825323D01*
X138610499Y-100825321D01*
X138595968Y-100752267D01*
X138595966Y-100752264D01*
X138595966Y-100752260D01*
X138595963Y-100752256D01*
X138593977Y-100747461D01*
X138586504Y-100677992D01*
X138593977Y-100652539D01*
X138595962Y-100647745D01*
X138595966Y-100647740D01*
X138603886Y-100607927D01*
X138610499Y-100574678D01*
X138610500Y-100574676D01*
X138610500Y-100425323D01*
X138610499Y-100425321D01*
X138595968Y-100352267D01*
X138595966Y-100352264D01*
X138595966Y-100352260D01*
X138595963Y-100352256D01*
X138593977Y-100347461D01*
X138586504Y-100277992D01*
X138593977Y-100252539D01*
X138595962Y-100247745D01*
X138595966Y-100247740D01*
X138610500Y-100174674D01*
X138610500Y-100025326D01*
X138610500Y-100025323D01*
X138610499Y-100025321D01*
X138595968Y-99952267D01*
X138595966Y-99952264D01*
X138595966Y-99952260D01*
X138595963Y-99952256D01*
X138593977Y-99947461D01*
X138586504Y-99877992D01*
X138593977Y-99852539D01*
X138595962Y-99847745D01*
X138595966Y-99847740D01*
X138610500Y-99774674D01*
X138610500Y-99625326D01*
X138610500Y-99625323D01*
X138610499Y-99625321D01*
X138595968Y-99552267D01*
X138595966Y-99552264D01*
X138595966Y-99552260D01*
X138595963Y-99552256D01*
X138593977Y-99547461D01*
X138586504Y-99477992D01*
X138593977Y-99452539D01*
X138595962Y-99447745D01*
X138595966Y-99447740D01*
X138598596Y-99434521D01*
X138610499Y-99374678D01*
X138610500Y-99374676D01*
X138610500Y-99225323D01*
X138610499Y-99225321D01*
X138595968Y-99152267D01*
X138595966Y-99152264D01*
X138595966Y-99152260D01*
X138595963Y-99152256D01*
X138593977Y-99147461D01*
X138586504Y-99077992D01*
X138593977Y-99052539D01*
X138595962Y-99047745D01*
X138595966Y-99047740D01*
X138596694Y-99044083D01*
X138610499Y-98974678D01*
X138610500Y-98974676D01*
X138610500Y-98825323D01*
X138610499Y-98825321D01*
X138595968Y-98752267D01*
X138595966Y-98752264D01*
X138595966Y-98752260D01*
X138595963Y-98752256D01*
X138593977Y-98747461D01*
X138586504Y-98677992D01*
X138593977Y-98652539D01*
X138595962Y-98647745D01*
X138595966Y-98647740D01*
X138602192Y-98616443D01*
X138610499Y-98574678D01*
X138610500Y-98574676D01*
X138610500Y-98425323D01*
X138610499Y-98425321D01*
X138595967Y-98352264D01*
X138595966Y-98352260D01*
X138592945Y-98347739D01*
X138540601Y-98269399D01*
X138457740Y-98214034D01*
X138457739Y-98214033D01*
X138447585Y-98207249D01*
X138448409Y-98206015D01*
X138404610Y-98170722D01*
X138382544Y-98104429D01*
X138399822Y-98036729D01*
X138450958Y-97989117D01*
X138457482Y-97986137D01*
X138457737Y-97985966D01*
X138457740Y-97985966D01*
X138540601Y-97930601D01*
X138595966Y-97847740D01*
X138610500Y-97774674D01*
X138610500Y-97625326D01*
X138610500Y-97625323D01*
X138610499Y-97625321D01*
X138595968Y-97552267D01*
X138595966Y-97552264D01*
X138595966Y-97552260D01*
X138595963Y-97552256D01*
X138593977Y-97547461D01*
X138586504Y-97477992D01*
X138593977Y-97452539D01*
X138595962Y-97447745D01*
X138595966Y-97447740D01*
X138610500Y-97374674D01*
X138610500Y-97225326D01*
X138610500Y-97225323D01*
X138610499Y-97225321D01*
X138595968Y-97152267D01*
X138595966Y-97152264D01*
X138595966Y-97152260D01*
X138595963Y-97152256D01*
X138593977Y-97147461D01*
X138586504Y-97077992D01*
X138593977Y-97052539D01*
X138595962Y-97047745D01*
X138595966Y-97047740D01*
X138595967Y-97047733D01*
X138595968Y-97047732D01*
X138606375Y-96995410D01*
X138610500Y-96974674D01*
X138610500Y-96825326D01*
X138610500Y-96825323D01*
X138610499Y-96825321D01*
X138595968Y-96752267D01*
X138595966Y-96752264D01*
X138595966Y-96752260D01*
X138595963Y-96752256D01*
X138593977Y-96747461D01*
X138586504Y-96677992D01*
X138593977Y-96652539D01*
X138595962Y-96647745D01*
X138595966Y-96647740D01*
X138610500Y-96574674D01*
X138610500Y-96425326D01*
X138610500Y-96425323D01*
X138610499Y-96425321D01*
X138595968Y-96352267D01*
X138595966Y-96352264D01*
X138595966Y-96352260D01*
X138595963Y-96352256D01*
X138593977Y-96347461D01*
X138586504Y-96277992D01*
X138593977Y-96252539D01*
X138595962Y-96247745D01*
X138595966Y-96247740D01*
X138610500Y-96174674D01*
X138610500Y-96025326D01*
X138610500Y-96025323D01*
X138610499Y-96025321D01*
X138595968Y-95952267D01*
X138595966Y-95952264D01*
X138595966Y-95952260D01*
X138595963Y-95952256D01*
X138593977Y-95947461D01*
X138586504Y-95877992D01*
X138593977Y-95852539D01*
X138595962Y-95847745D01*
X138595966Y-95847740D01*
X138600133Y-95826794D01*
X138610499Y-95774678D01*
X138610500Y-95774676D01*
X138610500Y-95625323D01*
X138610499Y-95625321D01*
X138595968Y-95552267D01*
X138595966Y-95552264D01*
X138595966Y-95552260D01*
X138595963Y-95552256D01*
X138593977Y-95547461D01*
X138586504Y-95477992D01*
X138593977Y-95452539D01*
X138595962Y-95447745D01*
X138595966Y-95447740D01*
X138600133Y-95426794D01*
X138610499Y-95374678D01*
X138610500Y-95374676D01*
X138610500Y-95225323D01*
X138610499Y-95225321D01*
X138595967Y-95152264D01*
X138595966Y-95152260D01*
X138540601Y-95069399D01*
X138457740Y-95014034D01*
X138457739Y-95014033D01*
X138457735Y-95014032D01*
X138384677Y-94999500D01*
X138384674Y-94999500D01*
X137735326Y-94999500D01*
X137735323Y-94999500D01*
X137662264Y-95014032D01*
X137662260Y-95014033D01*
X137579399Y-95069399D01*
X137524033Y-95152260D01*
X137524032Y-95152264D01*
X137509500Y-95225321D01*
X137509500Y-95225326D01*
X137509500Y-95374674D01*
X137509500Y-95374676D01*
X137509499Y-95374676D01*
X137123939Y-95374676D01*
X137160232Y-95192215D01*
X137164428Y-95176561D01*
X137200805Y-95069399D01*
X137234868Y-94969049D01*
X137241067Y-94954083D01*
X137337995Y-94757533D01*
X137346098Y-94743498D01*
X137467853Y-94561279D01*
X137477710Y-94548433D01*
X137622207Y-94383665D01*
X137633665Y-94372207D01*
X137798433Y-94227710D01*
X137811279Y-94217853D01*
X137993498Y-94096098D01*
X138007533Y-94087995D01*
X138204083Y-93991067D01*
X138219049Y-93984868D01*
X138421815Y-93916039D01*
X138426561Y-93914428D01*
X138442228Y-93910230D01*
X138657153Y-93867479D01*
X138673209Y-93865364D01*
X138886620Y-93851377D01*
X138895958Y-93850765D01*
X138904067Y-93850500D01*
X138939882Y-93850500D01*
X149409023Y-93850500D01*
X149433011Y-93857543D01*
G37*
%TD.AperFunction*%
%TD*%
M02*
