%TF.GenerationSoftware,KiCad,Pcbnew,9.0.4*%
%TF.CreationDate,2026-03-23T00:36:48+01:00*%
%TF.ProjectId,mmWave-Shield,6d6d5761-7665-42d5-9368-69656c642e6b,rev?*%
%TF.SameCoordinates,Original*%
%TF.FileFunction,Paste,Bot*%
%TF.FilePolarity,Positive*%
%FSLAX46Y46*%
G04 Gerber Fmt 4.6, Leading zero omitted, Abs format (unit mm)*
G04 Created by KiCad (PCBNEW 9.0.4) date 2026-03-23 00:36:48*
%MOMM*%
%LPD*%
G01*
G04 APERTURE LIST*
G04 Aperture macros list*
%AMRoundRect*
0 Rectangle with rounded corners*
0 $1 Rounding radius*
0 $2 $3 $4 $5 $6 $7 $8 $9 X,Y pos of 4 corners*
0 Add a 4 corners polygon primitive as box body*
4,1,4,$2,$3,$4,$5,$6,$7,$8,$9,$2,$3,0*
0 Add four circle primitives for the rounded corners*
1,1,$1+$1,$2,$3*
1,1,$1+$1,$4,$5*
1,1,$1+$1,$6,$7*
1,1,$1+$1,$8,$9*
0 Add four rect primitives between the rounded corners*
20,1,$1+$1,$2,$3,$4,$5,0*
20,1,$1+$1,$4,$5,$6,$7,0*
20,1,$1+$1,$6,$7,$8,$9,0*
20,1,$1+$1,$8,$9,$2,$3,0*%
G04 Aperture macros list end*
%ADD10RoundRect,0.050000X0.300000X-0.050000X0.300000X0.050000X-0.300000X0.050000X-0.300000X-0.050000X0*%
%ADD11RoundRect,0.050000X-0.300000X0.050000X-0.300000X-0.050000X0.300000X-0.050000X0.300000X0.050000X0*%
G04 APERTURE END LIST*
D10*
%TO.C,J4*%
X141140000Y-95300000D03*
X138060000Y-95300000D03*
X141140000Y-95700000D03*
X138060000Y-95700000D03*
X141140000Y-96100000D03*
X138060000Y-96100000D03*
X141140000Y-96500000D03*
X138060000Y-96500000D03*
X141140000Y-96900000D03*
X138060000Y-96900000D03*
X141140000Y-97300000D03*
X138060000Y-97300000D03*
X141140000Y-97700000D03*
X138060000Y-97700000D03*
X141140000Y-98100000D03*
X138060000Y-98100000D03*
X141140000Y-98500000D03*
X138060000Y-98500000D03*
X141140000Y-98900000D03*
X138060000Y-98900000D03*
X141140000Y-99300000D03*
X138060000Y-99300000D03*
X141140000Y-99700000D03*
X138060000Y-99700000D03*
X141140000Y-100100000D03*
X138060000Y-100100000D03*
X141140000Y-100500000D03*
X138060000Y-100500000D03*
X141140000Y-100900000D03*
X138060000Y-100900000D03*
X141140000Y-101300000D03*
X138060000Y-101300000D03*
X141140000Y-101700000D03*
X138060000Y-101700000D03*
X141140000Y-102100000D03*
X138060000Y-102100000D03*
X141140000Y-102500000D03*
X138060000Y-102500000D03*
X141140000Y-102900000D03*
X138060000Y-102900000D03*
X141140000Y-103300000D03*
X138060000Y-103300000D03*
X141140000Y-103700000D03*
X138060000Y-103700000D03*
X141140000Y-104100000D03*
X138060000Y-104100000D03*
X141140000Y-104500000D03*
X138060000Y-104500000D03*
X141140000Y-104900000D03*
X138060000Y-104900000D03*
%TD*%
D11*
%TO.C,J3*%
X156540000Y-103800000D03*
X153460000Y-103800000D03*
X156540000Y-103400000D03*
X153460000Y-103400000D03*
X156540000Y-103000000D03*
X153460000Y-103000000D03*
X156540000Y-102600000D03*
X153460000Y-102600000D03*
X156540000Y-102200000D03*
X153460000Y-102200000D03*
X156540000Y-101800000D03*
X153460000Y-101800000D03*
X156540000Y-101400000D03*
X153460000Y-101400000D03*
X156540000Y-101000000D03*
X153460000Y-101000000D03*
X156540000Y-100600000D03*
X153460000Y-100600000D03*
X156540000Y-100200000D03*
X153460000Y-100200000D03*
X156540000Y-99800000D03*
X153460000Y-99800000D03*
X156540000Y-99400000D03*
X153460000Y-99400000D03*
X156540000Y-99000000D03*
X153460000Y-99000000D03*
X156540000Y-98600000D03*
X153460000Y-98600000D03*
X156540000Y-98200000D03*
X153460000Y-98200000D03*
X156540000Y-97800000D03*
X153460000Y-97800000D03*
X156540000Y-97400000D03*
X153460000Y-97400000D03*
X156540000Y-97000000D03*
X153460000Y-97000000D03*
X156540000Y-96600000D03*
X153460000Y-96600000D03*
X156540000Y-96200000D03*
X153460000Y-96200000D03*
%TD*%
M02*
