%TF.GenerationSoftware,KiCad,Pcbnew,9.0.4*%
%TF.CreationDate,2026-03-23T00:36:48+01:00*%
%TF.ProjectId,mmWave-Shield,6d6d5761-7665-42d5-9368-69656c642e6b,rev?*%
%TF.SameCoordinates,Original*%
%TF.FileFunction,Soldermask,Top*%
%TF.FilePolarity,Negative*%
%FSLAX46Y46*%
G04 Gerber Fmt 4.6, Leading zero omitted, Abs format (unit mm)*
G04 Created by KiCad (PCBNEW 9.0.4) date 2026-03-23 00:36:48*
%MOMM*%
%LPD*%
G01*
G04 APERTURE LIST*
G04 Aperture macros list*
%AMRoundRect*
0 Rectangle with rounded corners*
0 $1 Rounding radius*
0 $2 $3 $4 $5 $6 $7 $8 $9 X,Y pos of 4 corners*
0 Add a 4 corners polygon primitive as box body*
4,1,4,$2,$3,$4,$5,$6,$7,$8,$9,$2,$3,0*
0 Add four circle primitives for the rounded corners*
1,1,$1+$1,$2,$3*
1,1,$1+$1,$4,$5*
1,1,$1+$1,$6,$7*
1,1,$1+$1,$8,$9*
0 Add four rect primitives between the rounded corners*
20,1,$1+$1,$2,$3,$4,$5,0*
20,1,$1+$1,$4,$5,$6,$7,0*
20,1,$1+$1,$6,$7,$8,$9,0*
20,1,$1+$1,$8,$9,$2,$3,0*%
G04 Aperture macros list end*
%ADD10R,0.372400X0.549200*%
%ADD11RoundRect,0.135000X0.185000X-0.135000X0.185000X0.135000X-0.185000X0.135000X-0.185000X-0.135000X0*%
%ADD12RoundRect,0.140000X0.140000X0.170000X-0.140000X0.170000X-0.140000X-0.170000X0.140000X-0.170000X0*%
%ADD13RoundRect,0.140000X-0.170000X0.140000X-0.170000X-0.140000X0.170000X-0.140000X0.170000X0.140000X0*%
%ADD14RoundRect,0.140000X-0.140000X-0.170000X0.140000X-0.170000X0.140000X0.170000X-0.140000X0.170000X0*%
%ADD15RoundRect,0.239100X0.000010X-0.000010X0.000010X0.000010X-0.000010X0.000010X-0.000010X-0.000010X0*%
%ADD16RoundRect,0.140000X0.170000X-0.140000X0.170000X0.140000X-0.170000X0.140000X-0.170000X-0.140000X0*%
%ADD17C,0.503588*%
%ADD18R,0.812800X0.609600*%
G04 APERTURE END LIST*
D10*
%TO.C,FB7*%
X153158800Y-100550000D03*
X154091200Y-100550000D03*
%TD*%
D11*
%TO.C,R1*%
X150400000Y-104310000D03*
X150400000Y-103290000D03*
%TD*%
D12*
%TO.C,C14*%
X154105000Y-94700000D03*
X153145000Y-94700000D03*
%TD*%
D13*
%TO.C,C5*%
X147100000Y-103320000D03*
X147100000Y-104280000D03*
%TD*%
D10*
%TO.C,FB5*%
X153158800Y-95800000D03*
X154091200Y-95800000D03*
%TD*%
D14*
%TO.C,C2*%
X149945000Y-99200000D03*
X150905000Y-99200000D03*
%TD*%
D10*
%TO.C,FB1*%
X154091200Y-97450000D03*
X153158800Y-97450000D03*
%TD*%
D12*
%TO.C,C13*%
X152005000Y-94700000D03*
X151045000Y-94700000D03*
%TD*%
D10*
%TO.C,FB4*%
X154091200Y-99550000D03*
X153158800Y-99550000D03*
%TD*%
D15*
%TO.C,U$1*%
X142850000Y-101700000D03*
X142850000Y-101200000D03*
X142850000Y-100699996D03*
X142850000Y-100200000D03*
X142850000Y-99699997D03*
X142850000Y-99200000D03*
X142850000Y-98700000D03*
X142850000Y-98199997D03*
X142850000Y-97700000D03*
X143350000Y-101700000D03*
X143350000Y-100699996D03*
X143350000Y-100200000D03*
X143350000Y-98199997D03*
X143350000Y-97700000D03*
X143850000Y-101700000D03*
X143850000Y-97700000D03*
X144350000Y-101700000D03*
X144350000Y-97700000D03*
X144850000Y-101700000D03*
X144850000Y-97700000D03*
X145350000Y-101700000D03*
X145350000Y-97700000D03*
X145850000Y-101700000D03*
X145850000Y-97700000D03*
X146350000Y-101700000D03*
X146350000Y-97700000D03*
X146850000Y-101700000D03*
X146850000Y-97700000D03*
X147350003Y-101700000D03*
X147350003Y-97700000D03*
X147850000Y-101700000D03*
X147850000Y-97700000D03*
X148350000Y-101700000D03*
X148350000Y-101200000D03*
X148350000Y-100699996D03*
X148350000Y-100200000D03*
X148350000Y-99699997D03*
X148350000Y-99200000D03*
X148350000Y-98700000D03*
X148350000Y-97700000D03*
%TD*%
D13*
%TO.C,C8*%
X149300000Y-103320000D03*
X149300000Y-104280000D03*
%TD*%
D16*
%TO.C,C9*%
X146200000Y-95780000D03*
X146200000Y-94820000D03*
%TD*%
D17*
%TO.C,TP1*%
X150000000Y-97100000D03*
%TD*%
D14*
%TO.C,C16*%
X149420000Y-105500000D03*
X150380000Y-105500000D03*
%TD*%
%TO.C,C4*%
X149945000Y-100200000D03*
X150905000Y-100200000D03*
%TD*%
D12*
%TO.C,C12*%
X152005000Y-95800000D03*
X151045000Y-95800000D03*
%TD*%
D16*
%TO.C,C10*%
X147300000Y-95780000D03*
X147300000Y-94820000D03*
%TD*%
D13*
%TO.C,C6*%
X145975000Y-103320000D03*
X145975000Y-104280000D03*
%TD*%
%TO.C,C1*%
X148200000Y-103320000D03*
X148200000Y-104280000D03*
%TD*%
D12*
%TO.C,C11*%
X149905000Y-94700000D03*
X148945000Y-94700000D03*
%TD*%
D10*
%TO.C,FB2*%
X154091200Y-98500000D03*
X153158800Y-98500000D03*
%TD*%
%TO.C,FB6*%
X151058800Y-97200000D03*
X151991200Y-97200000D03*
%TD*%
%TO.C,FB3*%
X149891200Y-95750000D03*
X148958800Y-95750000D03*
%TD*%
D16*
%TO.C,C3*%
X145100000Y-95780000D03*
X145100000Y-94820000D03*
%TD*%
D14*
%TO.C,C7*%
X149945000Y-101200000D03*
X150905000Y-101200000D03*
%TD*%
D18*
%TO.C,U1*%
X153299999Y-105100001D03*
X153299999Y-103299999D03*
X152100001Y-103299999D03*
X152100001Y-105100001D03*
%TD*%
D14*
%TO.C,C15*%
X153145000Y-101850000D03*
X154105000Y-101850000D03*
%TD*%
M02*
