%TF.GenerationSoftware,KiCad,Pcbnew,9.0.4*%
%TF.CreationDate,2026-03-23T00:36:48+01:00*%
%TF.ProjectId,mmWave-Shield,6d6d5761-7665-42d5-9368-69656c642e6b,rev?*%
%TF.SameCoordinates,Original*%
%TF.FileFunction,Copper,L3,Inr*%
%TF.FilePolarity,Positive*%
%FSLAX46Y46*%
G04 Gerber Fmt 4.6, Leading zero omitted, Abs format (unit mm)*
G04 Created by KiCad (PCBNEW 9.0.4) date 2026-03-23 00:36:48*
%MOMM*%
%LPD*%
G01*
G04 APERTURE LIST*
%TA.AperFunction,ViaPad*%
%ADD10C,1.300000*%
%TD*%
%TA.AperFunction,ViaPad*%
%ADD11C,0.400000*%
%TD*%
%TA.AperFunction,Conductor*%
%ADD12C,0.150000*%
%TD*%
%TA.AperFunction,Conductor*%
%ADD13C,0.250000*%
%TD*%
%TA.AperFunction,Conductor*%
%ADD14C,0.400000*%
%TD*%
G04 APERTURE END LIST*
D10*
%TO.N,*%
X141100000Y-107300000D03*
D11*
%TO.N,GND*%
X155800000Y-101000000D03*
X147100000Y-105000000D03*
X155800000Y-98600000D03*
X142500000Y-96900000D03*
X144700000Y-96900000D03*
X142000000Y-100100000D03*
X147375001Y-102526415D03*
X155800000Y-99800000D03*
X147800000Y-96900000D03*
X146500000Y-96900000D03*
X144400000Y-94800000D03*
X149000000Y-98650000D03*
X152600000Y-95800000D03*
X148100000Y-94650000D03*
X148750000Y-105500000D03*
X142000000Y-100900000D03*
X143250000Y-96900000D03*
X139250000Y-103600000D03*
X146000000Y-105000000D03*
X149000000Y-98000000D03*
X154150000Y-94150000D03*
X142000000Y-97750000D03*
X147150000Y-96900000D03*
X152399479Y-101799479D03*
X151600000Y-99200000D03*
X148989124Y-97289124D03*
X152000000Y-94150000D03*
X138650000Y-98100000D03*
X150849479Y-101849479D03*
X142000000Y-98400000D03*
X142000000Y-101650000D03*
X142000000Y-99400000D03*
X148200000Y-105000000D03*
X143950000Y-96900000D03*
%TO.N,VDD_VCO*%
X149150000Y-99200000D03*
%TO.N,VDD_RF*%
X148150000Y-96200000D03*
X145850000Y-97150000D03*
X148350000Y-102200000D03*
X145350000Y-97150000D03*
%TO.N,VDD_PLL*%
X149150000Y-100210678D03*
X151450000Y-97875000D03*
%TO.N,VDD_A*%
X152500000Y-98700000D03*
X146850000Y-102250000D03*
%TO.N,VDD_D*%
X146350000Y-102500000D03*
X152500000Y-99400000D03*
%TO.N,VDD_LF*%
X154700000Y-95800000D03*
X148870329Y-100700000D03*
%TO.N,1V8*%
X149905000Y-94150000D03*
X140500000Y-97500000D03*
X151045000Y-94155000D03*
X139950000Y-97500000D03*
%TO.N,GAP_GPIO46*%
X145350000Y-102450000D03*
%TO.N,nRF_P1.11_GAP_GPIO63*%
X145850000Y-102200000D03*
%TO.N,nRF_P0.12_GAP_GPIO64*%
X143850000Y-102200000D03*
%TO.N,VD2*%
X153150000Y-94150000D03*
X140500000Y-98900000D03*
%TO.N,/sensor/DIV_OUT*%
X150000000Y-97700000D03*
X148900000Y-99700000D03*
%TO.N,SPI_A_CLK*%
X138750000Y-103078000D03*
%TO.N,SPI_A_MISO*%
X140450000Y-103078000D03*
%TO.N,SPI_A_MOSI*%
X138759801Y-104166752D03*
%TD*%
D12*
%TO.N,VDD_PLL*%
X149150000Y-100150000D02*
X149150000Y-100210678D01*
D13*
X151450000Y-97875000D02*
X151450000Y-97900000D01*
X151450000Y-97900000D02*
X149200000Y-100150000D01*
X149200000Y-100150000D02*
X149150000Y-100150000D01*
%TO.N,VDD_A*%
X146850000Y-102673166D02*
X146850000Y-102250000D01*
X153450000Y-100050000D02*
X150450000Y-103050000D01*
X153450000Y-98600000D02*
X153450000Y-100050000D01*
X150450000Y-103050000D02*
X147226834Y-103050000D01*
X152500000Y-98300000D02*
X152600000Y-98200000D01*
X152500000Y-98700000D02*
X152500000Y-98300000D01*
X147226834Y-103050000D02*
X146850000Y-102673166D01*
X152600000Y-98200000D02*
X153050000Y-98200000D01*
X153050000Y-98200000D02*
X153450000Y-98600000D01*
%TO.N,VDD_D*%
X146976834Y-101450000D02*
X150450000Y-101450000D01*
X146350000Y-102500000D02*
X146350000Y-102076834D01*
X150450000Y-101450000D02*
X152500000Y-99400000D01*
X146350000Y-102076834D02*
X146976834Y-101450000D01*
%TO.N,VDD_LF*%
X154700000Y-95800000D02*
X154326834Y-95800000D01*
X149426834Y-100700000D02*
X148870329Y-100700000D01*
X154326834Y-95800000D02*
X149426834Y-100700000D01*
D14*
%TO.N,1V8*%
X139950000Y-97500000D02*
X139950000Y-97499997D01*
X140500000Y-97500000D02*
X139950000Y-97500000D01*
X150990000Y-94100000D02*
X151045000Y-94155000D01*
X143349997Y-94100000D02*
X150990000Y-94100000D01*
X139950000Y-97499997D02*
X143349997Y-94100000D01*
D13*
%TO.N,VD2*%
X141200000Y-98200000D02*
X141200000Y-97350000D01*
X143200000Y-95350000D02*
X151950000Y-95350000D01*
X151950000Y-95350000D02*
X153150000Y-94150000D01*
X141200000Y-97350000D02*
X143200000Y-95350000D01*
X140500000Y-98900000D02*
X141200000Y-98200000D01*
%TD*%
M02*
