%TF.GenerationSoftware,KiCad,Pcbnew,9.0.4*%
%TF.CreationDate,2026-03-23T00:36:48+01:00*%
%TF.ProjectId,mmWave-Shield,6d6d5761-7665-42d5-9368-69656c642e6b,rev?*%
%TF.SameCoordinates,Original*%
%TF.FileFunction,Copper,L1,Top*%
%TF.FilePolarity,Positive*%
%FSLAX46Y46*%
G04 Gerber Fmt 4.6, Leading zero omitted, Abs format (unit mm)*
G04 Created by KiCad (PCBNEW 9.0.4) date 2026-03-23 00:36:48*
%MOMM*%
%LPD*%
G01*
G04 APERTURE LIST*
G04 Aperture macros list*
%AMRoundRect*
0 Rectangle with rounded corners*
0 $1 Rounding radius*
0 $2 $3 $4 $5 $6 $7 $8 $9 X,Y pos of 4 corners*
0 Add a 4 corners polygon primitive as box body*
4,1,4,$2,$3,$4,$5,$6,$7,$8,$9,$2,$3,0*
0 Add four circle primitives for the rounded corners*
1,1,$1+$1,$2,$3*
1,1,$1+$1,$4,$5*
1,1,$1+$1,$6,$7*
1,1,$1+$1,$8,$9*
0 Add four rect primitives between the rounded corners*
20,1,$1+$1,$2,$3,$4,$5,0*
20,1,$1+$1,$4,$5,$6,$7,0*
20,1,$1+$1,$6,$7,$8,$9,0*
20,1,$1+$1,$8,$9,$2,$3,0*%
G04 Aperture macros list end*
%TA.AperFunction,SMDPad,CuDef*%
%ADD10R,0.372400X0.549200*%
%TD*%
%TA.AperFunction,SMDPad,CuDef*%
%ADD11RoundRect,0.135000X0.185000X-0.135000X0.185000X0.135000X-0.185000X0.135000X-0.185000X-0.135000X0*%
%TD*%
%TA.AperFunction,SMDPad,CuDef*%
%ADD12RoundRect,0.140000X0.140000X0.170000X-0.140000X0.170000X-0.140000X-0.170000X0.140000X-0.170000X0*%
%TD*%
%TA.AperFunction,SMDPad,CuDef*%
%ADD13RoundRect,0.140000X-0.170000X0.140000X-0.170000X-0.140000X0.170000X-0.140000X0.170000X0.140000X0*%
%TD*%
%TA.AperFunction,SMDPad,CuDef*%
%ADD14RoundRect,0.140000X-0.140000X-0.170000X0.140000X-0.170000X0.140000X0.170000X-0.140000X0.170000X0*%
%TD*%
%TA.AperFunction,SMDPad,CuDef*%
%ADD15RoundRect,0.137500X0.000010X-0.000010X0.000010X0.000010X-0.000010X0.000010X-0.000010X-0.000010X0*%
%TD*%
%TA.AperFunction,SMDPad,CuDef*%
%ADD16RoundRect,0.140000X0.170000X-0.140000X0.170000X0.140000X-0.170000X0.140000X-0.170000X-0.140000X0*%
%TD*%
%TA.AperFunction,SMDPad,CuDef*%
%ADD17C,0.503588*%
%TD*%
%TA.AperFunction,SMDPad,CuDef*%
%ADD18R,0.812800X0.609600*%
%TD*%
%TA.AperFunction,ViaPad*%
%ADD19C,1.300000*%
%TD*%
%TA.AperFunction,ViaPad*%
%ADD20C,0.400000*%
%TD*%
%TA.AperFunction,Conductor*%
%ADD21C,0.250000*%
%TD*%
%TA.AperFunction,Conductor*%
%ADD22C,0.150000*%
%TD*%
%TA.AperFunction,Conductor*%
%ADD23C,0.400000*%
%TD*%
%TA.AperFunction,Conductor*%
%ADD24C,0.156000*%
%TD*%
G04 APERTURE END LIST*
D10*
%TO.P,FB7,1*%
%TO.N,Net-(C15--)*%
X153158800Y-100550000D03*
%TO.P,FB7,2*%
%TO.N,1V8*%
X154091200Y-100550000D03*
%TD*%
D11*
%TO.P,R1,1,+*%
%TO.N,Net-(R1-+)*%
X150400000Y-104310000D03*
%TO.P,R1,2,-*%
%TO.N,/sensor/OSC_80MHz*%
X150400000Y-103290000D03*
%TD*%
D12*
%TO.P,C14,1,+*%
%TO.N,GND*%
X154105000Y-94700000D03*
%TO.P,C14,2,-*%
%TO.N,VD2*%
X153145000Y-94700000D03*
%TD*%
D13*
%TO.P,C5,1,+*%
%TO.N,VDD_A*%
X147100000Y-103320000D03*
%TO.P,C5,2,-*%
%TO.N,GND*%
X147100000Y-104280000D03*
%TD*%
D10*
%TO.P,FB5,1*%
%TO.N,VD2*%
X153158800Y-95800000D03*
%TO.P,FB5,2*%
%TO.N,VDD_LF*%
X154091200Y-95800000D03*
%TD*%
D14*
%TO.P,C2,1,+*%
%TO.N,VDD_VCO*%
X149945000Y-99200000D03*
%TO.P,C2,2,-*%
%TO.N,GND*%
X150905000Y-99200000D03*
%TD*%
D10*
%TO.P,FB1,1*%
%TO.N,1V8*%
X154091200Y-97450000D03*
%TO.P,FB1,2*%
%TO.N,VDD_VCO*%
X153158800Y-97450000D03*
%TD*%
D12*
%TO.P,C13,1,+*%
%TO.N,GND*%
X152005000Y-94700000D03*
%TO.P,C13,2,-*%
%TO.N,1V8*%
X151045000Y-94700000D03*
%TD*%
D10*
%TO.P,FB4,1*%
%TO.N,1V8*%
X154091200Y-99550000D03*
%TO.P,FB4,2*%
%TO.N,VDD_D*%
X153158800Y-99550000D03*
%TD*%
D15*
%TO.P,U$1,A1,VSSD@1*%
%TO.N,GND*%
X142850000Y-101700000D03*
%TO.P,U$1,A2,VSSD@2*%
X142850000Y-101200000D03*
%TO.P,U$1,A3,VSSRF@1*%
X142850000Y-100699996D03*
%TO.P,U$1,A4,VSSRF@2*%
X142850000Y-100200000D03*
%TO.P,U$1,A5,VSSRF@3*%
X142850000Y-99699997D03*
%TO.P,U$1,A6,VSSRF@4*%
X142850000Y-99200000D03*
%TO.P,U$1,A7,VSSRF@5*%
X142850000Y-98700000D03*
%TO.P,U$1,A8,VSSRF@6*%
X142850000Y-98199997D03*
%TO.P,U$1,A9,VSSRF@7*%
X142850000Y-97700000D03*
%TO.P,U$1,B1,CLK*%
%TO.N,SPI_A_CLK*%
X143350000Y-101700000D03*
%TO.P,U$1,B3,VSSRF@8*%
%TO.N,GND*%
X143350000Y-100699996D03*
%TO.P,U$1,B4,VSSRF@9*%
X143350000Y-100200000D03*
%TO.P,U$1,B8,VSSRF@10*%
X143350000Y-98199997D03*
%TO.P,U$1,B9,VSSRF@11*%
X143350000Y-97700000D03*
%TO.P,U$1,C1,IRQ*%
%TO.N,nRF_P0.12_GAP_GPIO64*%
X143850000Y-101700000D03*
%TO.P,U$1,C9,VSSRF@12*%
%TO.N,GND*%
X143850000Y-97700000D03*
%TO.P,U$1,D1,DI*%
%TO.N,SPI_A_MOSI*%
X144350000Y-101700000D03*
%TO.P,U$1,D9,VSSRF@13*%
%TO.N,GND*%
X144350000Y-97700000D03*
%TO.P,U$1,E1,DO*%
%TO.N,SPI_A_MISO*%
X144850000Y-101700000D03*
%TO.P,U$1,E9,VSSRF@14*%
%TO.N,GND*%
X144850000Y-97700000D03*
%TO.P,U$1,F1,RST/DIO3_*%
%TO.N,GAP_GPIO46*%
X145350000Y-101700000D03*
%TO.P,U$1,F9,VDDRF@1*%
%TO.N,VDD_RF*%
X145350000Y-97700000D03*
%TO.P,U$1,G1,CS_N*%
%TO.N,nRF_P1.11_GAP_GPIO63*%
X145850000Y-101700000D03*
%TO.P,U$1,G9,VDDRF@2*%
%TO.N,VDD_RF*%
X145850000Y-97700000D03*
%TO.P,U$1,H1,VDDD*%
%TO.N,VDD_D*%
X146350000Y-101700000D03*
%TO.P,U$1,H9,VSSRF@15*%
%TO.N,GND*%
X146350000Y-97700000D03*
%TO.P,U$1,J1,VDDA*%
%TO.N,VDD_A*%
X146850000Y-101700000D03*
%TO.P,U$1,J9,VSSRF@16*%
%TO.N,GND*%
X146850000Y-97700000D03*
%TO.P,U$1,K1,VSSA*%
X147350003Y-101700000D03*
%TO.P,U$1,K9,VSSRF@17*%
X147350003Y-97700000D03*
%TO.P,U$1,L1,VAREF*%
%TO.N,Net-(C1-+)*%
X147850000Y-101700000D03*
%TO.P,U$1,L9,VSSRF@18*%
%TO.N,GND*%
X147850000Y-97700000D03*
%TO.P,U$1,M1,VDDRF@3*%
%TO.N,VDD_RF*%
X148350000Y-101700000D03*
%TO.P,U$1,M2,OSC_CLK*%
%TO.N,/sensor/OSC_80MHz*%
X148350000Y-101200000D03*
%TO.P,U$1,M3,VDDLF*%
%TO.N,VDD_LF*%
X148350000Y-100699996D03*
%TO.P,U$1,M4,VDDPLL*%
%TO.N,VDD_PLL*%
X148350000Y-100200000D03*
%TO.P,U$1,M5,DIV*%
%TO.N,/sensor/DIV_OUT*%
X148350000Y-99699997D03*
%TO.P,U$1,M6,VDDVCO*%
%TO.N,VDD_VCO*%
X148350000Y-99200000D03*
%TO.P,U$1,M7,VSSRF@19*%
%TO.N,GND*%
X148350000Y-98700000D03*
%TO.P,U$1,M9,VSSRF@20*%
X148350000Y-97700000D03*
%TD*%
D13*
%TO.P,C8,1,+*%
%TO.N,VDD_RF*%
X149300000Y-103320000D03*
%TO.P,C8,2,-*%
%TO.N,GND*%
X149300000Y-104280000D03*
%TD*%
D16*
%TO.P,C9,1,+*%
%TO.N,VDD_RF*%
X146200000Y-95780000D03*
%TO.P,C9,2,-*%
%TO.N,GND*%
X146200000Y-94820000D03*
%TD*%
D17*
%TO.P,TP1,1,1*%
%TO.N,/sensor/DIV_OUT*%
X150000000Y-97100000D03*
%TD*%
D14*
%TO.P,C16,1,+*%
%TO.N,GND*%
X149420000Y-105500000D03*
%TO.P,C16,2,-*%
%TO.N,Net-(C15--)*%
X150380000Y-105500000D03*
%TD*%
%TO.P,C4,1,+*%
%TO.N,VDD_PLL*%
X149945000Y-100200000D03*
%TO.P,C4,2,-*%
%TO.N,GND*%
X150905000Y-100200000D03*
%TD*%
D12*
%TO.P,C12,1,+*%
%TO.N,GND*%
X152005000Y-95800000D03*
%TO.P,C12,2,-*%
%TO.N,1V8*%
X151045000Y-95800000D03*
%TD*%
D16*
%TO.P,C10,1,+*%
%TO.N,VDD_RF*%
X147300000Y-95780000D03*
%TO.P,C10,2,-*%
%TO.N,GND*%
X147300000Y-94820000D03*
%TD*%
D13*
%TO.P,C6,1,+*%
%TO.N,VDD_D*%
X145975000Y-103320000D03*
%TO.P,C6,2,-*%
%TO.N,GND*%
X145975000Y-104280000D03*
%TD*%
%TO.P,C1,1,+*%
%TO.N,Net-(C1-+)*%
X148200000Y-103320000D03*
%TO.P,C1,2,-*%
%TO.N,GND*%
X148200000Y-104280000D03*
%TD*%
D12*
%TO.P,C11,1,+*%
%TO.N,1V8*%
X149905000Y-94700000D03*
%TO.P,C11,2,-*%
%TO.N,GND*%
X148945000Y-94700000D03*
%TD*%
D10*
%TO.P,FB2,1*%
%TO.N,1V8*%
X154091200Y-98500000D03*
%TO.P,FB2,2*%
%TO.N,VDD_A*%
X153158800Y-98500000D03*
%TD*%
%TO.P,FB6,1*%
%TO.N,1V8*%
X151058800Y-97200000D03*
%TO.P,FB6,2*%
%TO.N,VDD_PLL*%
X151991200Y-97200000D03*
%TD*%
%TO.P,FB3,1*%
%TO.N,1V8*%
X149891200Y-95750000D03*
%TO.P,FB3,2*%
%TO.N,VDD_RF*%
X148958800Y-95750000D03*
%TD*%
D16*
%TO.P,C3,1,+*%
%TO.N,VDD_RF*%
X145100000Y-95780000D03*
%TO.P,C3,2,-*%
%TO.N,GND*%
X145100000Y-94820000D03*
%TD*%
D14*
%TO.P,C7,1,+*%
%TO.N,VDD_LF*%
X149945000Y-101200000D03*
%TO.P,C7,2,-*%
%TO.N,GND*%
X150905000Y-101200000D03*
%TD*%
D18*
%TO.P,U1,1,INH*%
%TO.N,unconnected-(U1-INH-Pad1)*%
X153299999Y-105100001D03*
%TO.P,U1,2,CASEGND*%
%TO.N,GND*%
X153299999Y-103299999D03*
%TO.P,U1,3,OUTPUT*%
%TO.N,Net-(R1-+)*%
X152100001Y-103299999D03*
%TO.P,U1,4,VCC*%
%TO.N,Net-(C15--)*%
X152100001Y-105100001D03*
%TD*%
D14*
%TO.P,C15,1,+*%
%TO.N,GND*%
X153145000Y-101850000D03*
%TO.P,C15,2,-*%
%TO.N,Net-(C15--)*%
X154105000Y-101850000D03*
%TD*%
D19*
%TO.N,*%
X141100000Y-107300000D03*
D20*
%TO.N,GND*%
X155800000Y-101000000D03*
X147100000Y-105000000D03*
X155800000Y-98600000D03*
X142500000Y-96900000D03*
X144700000Y-96900000D03*
X142000000Y-100100000D03*
X147375001Y-102526415D03*
X155800000Y-99800000D03*
X147800000Y-96900000D03*
X146500000Y-96900000D03*
X144400000Y-94800000D03*
X149000000Y-98650000D03*
X152600000Y-95800000D03*
X148100000Y-94650000D03*
X148750000Y-105500000D03*
X142000000Y-100900000D03*
X143250000Y-96900000D03*
X139250000Y-103600000D03*
X146000000Y-105000000D03*
X149000000Y-98000000D03*
X154150000Y-94150000D03*
X142000000Y-97750000D03*
X147150000Y-96900000D03*
X152399479Y-101799479D03*
X151600000Y-99200000D03*
X148989124Y-97289124D03*
X152000000Y-94150000D03*
X138650000Y-98100000D03*
X150849479Y-101849479D03*
X142000000Y-98400000D03*
X142000000Y-101650000D03*
X142000000Y-99400000D03*
X148200000Y-105000000D03*
X143950000Y-96900000D03*
%TO.N,VDD_VCO*%
X149150000Y-99200000D03*
%TO.N,VDD_RF*%
X148150000Y-96200000D03*
X145850000Y-97150000D03*
X148350000Y-102200000D03*
X145350000Y-97150000D03*
%TO.N,VDD_PLL*%
X149150000Y-100210678D03*
X151450000Y-97875000D03*
%TO.N,VDD_A*%
X152500000Y-98700000D03*
X146850000Y-102250000D03*
%TO.N,VDD_D*%
X146350000Y-102500000D03*
X152500000Y-99400000D03*
%TO.N,VDD_LF*%
X154700000Y-95800000D03*
X148870329Y-100700000D03*
%TO.N,1V8*%
X149905000Y-94150000D03*
X140500000Y-97500000D03*
X151045000Y-94155000D03*
X139950000Y-97500000D03*
%TO.N,GAP_GPIO46*%
X145350000Y-102450000D03*
%TO.N,nRF_P1.11_GAP_GPIO63*%
X145850000Y-102200000D03*
%TO.N,nRF_P0.12_GAP_GPIO64*%
X143850000Y-102200000D03*
%TO.N,VD2*%
X153150000Y-94150000D03*
X140500000Y-98900000D03*
%TO.N,/sensor/DIV_OUT*%
X150000000Y-97700000D03*
X148900000Y-99700000D03*
%TO.N,SPI_A_CLK*%
X138750000Y-103078000D03*
%TO.N,SPI_A_MISO*%
X140450000Y-103078000D03*
%TO.N,SPI_A_MOSI*%
X138759801Y-104166752D03*
%TD*%
D21*
%TO.N,Net-(C1-+)*%
X148200000Y-103320000D02*
X148200000Y-103150000D01*
X148200000Y-103150000D02*
X147850000Y-102800000D01*
X147850000Y-102800000D02*
X147850000Y-101700000D01*
D22*
%TO.N,GND*%
X152600000Y-95800000D02*
X152005000Y-95800000D01*
X150905000Y-101793958D02*
X150905000Y-99200000D01*
X149420000Y-105500000D02*
X149420000Y-104400000D01*
X153299999Y-102004999D02*
X153145000Y-101850000D01*
X147375001Y-102526415D02*
X147375001Y-102524995D01*
X142850000Y-98199997D02*
X143350000Y-98199997D01*
X142850000Y-101700000D02*
X142850000Y-97700000D01*
X152000000Y-94150000D02*
X152000000Y-94695000D01*
X147100000Y-105000000D02*
X147100000Y-104280000D01*
X142850000Y-100699996D02*
X143350000Y-100699996D01*
X144850000Y-97700000D02*
X142850000Y-97700000D01*
X148350000Y-98700000D02*
X148350000Y-97700000D01*
X151600000Y-99200000D02*
X150905000Y-99200000D01*
X146000000Y-104305000D02*
X145975000Y-104280000D01*
X154100000Y-94290000D02*
X154105000Y-94295000D01*
X147375001Y-102524995D02*
X147350003Y-102499997D01*
X153094479Y-101799479D02*
X153145000Y-101850000D01*
X148200000Y-105000000D02*
X148200000Y-104280000D01*
X146200000Y-94820000D02*
X147300000Y-94820000D01*
X154100000Y-94200000D02*
X154100000Y-94290000D01*
X147350003Y-102499997D02*
X147350003Y-101700000D01*
X149420000Y-104400000D02*
X149300000Y-104280000D01*
X154105000Y-94295000D02*
X154105000Y-94700000D01*
X153299999Y-103299999D02*
X153299999Y-102004999D01*
X147300000Y-94820000D02*
X148825000Y-94820000D01*
X152000000Y-94695000D02*
X152005000Y-94700000D01*
X148750000Y-105500000D02*
X149420000Y-105500000D01*
X145100000Y-94820000D02*
X146200000Y-94820000D01*
X146350000Y-97700000D02*
X148350000Y-97700000D01*
X142850000Y-100200000D02*
X143350000Y-100200000D01*
X152005000Y-95800000D02*
X152005000Y-94700000D01*
X148825000Y-94820000D02*
X148945000Y-94700000D01*
X152399479Y-101799479D02*
X153094479Y-101799479D01*
X154150000Y-94150000D02*
X154100000Y-94200000D01*
X150849479Y-101849479D02*
X150905000Y-101793958D01*
X146000000Y-105000000D02*
X146000000Y-104305000D01*
D21*
%TO.N,VDD_VCO*%
X153158800Y-97450000D02*
X152975000Y-97450000D01*
X150600000Y-98400000D02*
X149945000Y-99055000D01*
X149150000Y-99200000D02*
X149945000Y-99200000D01*
X149150000Y-99200000D02*
X148350000Y-99200000D01*
X152025000Y-98400000D02*
X150600000Y-98400000D01*
X149945000Y-99055000D02*
X149945000Y-99100000D01*
X152975000Y-97450000D02*
X152025000Y-98400000D01*
%TO.N,VDD_RF*%
X145850000Y-97150000D02*
X145850000Y-95780000D01*
X145850000Y-97700000D02*
X145850000Y-97150000D01*
X149300000Y-103200000D02*
X149300000Y-103320000D01*
D23*
X148938800Y-95780000D02*
X148150000Y-95780000D01*
D21*
X148350000Y-102200000D02*
X148350000Y-102250000D01*
D23*
X148150000Y-96200000D02*
X148150000Y-95780000D01*
D21*
X145350000Y-97150000D02*
X145350000Y-96030000D01*
X148350000Y-102250000D02*
X149300000Y-103200000D01*
X148350000Y-102200000D02*
X148350000Y-101700000D01*
D23*
X148150000Y-95780000D02*
X147300000Y-95780000D01*
X147300000Y-95780000D02*
X145100000Y-95780000D01*
D21*
X145850000Y-95780000D02*
X146200000Y-95780000D01*
D23*
X148958800Y-95800000D02*
X148938800Y-95780000D01*
D21*
X145350000Y-97700000D02*
X145350000Y-97150000D01*
X145350000Y-96030000D02*
X145100000Y-95780000D01*
%TO.N,VDD_PLL*%
X151991200Y-97408800D02*
X151991200Y-97200000D01*
D22*
X149934322Y-100210678D02*
X149945000Y-100200000D01*
D21*
X151450000Y-97875000D02*
X151525000Y-97875000D01*
X149150000Y-100210678D02*
X148360678Y-100210678D01*
D22*
X148360678Y-100210678D02*
X148350000Y-100200000D01*
D21*
X151525000Y-97875000D02*
X151991200Y-97408800D01*
D22*
X149150000Y-100210678D02*
X149934322Y-100210678D01*
D21*
%TO.N,VDD_A*%
X152958800Y-98700000D02*
X153158800Y-98500000D01*
X146850000Y-101700000D02*
X146850000Y-102250000D01*
X152500000Y-98700000D02*
X152958800Y-98700000D01*
X146850000Y-102250000D02*
X146850000Y-103070000D01*
X146850000Y-103070000D02*
X147100000Y-103320000D01*
X146850000Y-102250000D02*
X146900000Y-102300000D01*
%TO.N,VDD_D*%
X153008800Y-99400000D02*
X153158800Y-99550000D01*
X146350000Y-102550000D02*
X146150000Y-102750000D01*
X146350000Y-101700000D02*
X146350000Y-102500000D01*
X146350000Y-102500000D02*
X146350000Y-102550000D01*
X146150000Y-102750000D02*
X146150000Y-103145000D01*
X152500000Y-99400000D02*
X153008800Y-99400000D01*
X146150000Y-103145000D02*
X145975000Y-103320000D01*
%TO.N,VDD_LF*%
X148870329Y-100700000D02*
X149445000Y-100700000D01*
D22*
X148350004Y-100700000D02*
X148350000Y-100699996D01*
D21*
X149445000Y-100700000D02*
X149945000Y-101200000D01*
X154700000Y-95800000D02*
X154091200Y-95800000D01*
X148870329Y-100700000D02*
X148350004Y-100700000D01*
D23*
%TO.N,1V8*%
X153815800Y-96500000D02*
X151050000Y-96500000D01*
X151058800Y-96508800D02*
X151058800Y-97200000D01*
X151045000Y-94155000D02*
X151050000Y-94150000D01*
X154091200Y-96775400D02*
X153815800Y-96500000D01*
X154091200Y-100550000D02*
X154091200Y-96775400D01*
X149905000Y-94150000D02*
X149905000Y-94700000D01*
X151050000Y-96500000D02*
X151050000Y-96200000D01*
X151050000Y-96200000D02*
X151045000Y-96195000D01*
X151045000Y-94700000D02*
X149905000Y-94700000D01*
X149891200Y-95800000D02*
X151045000Y-95800000D01*
X151045000Y-96195000D02*
X151045000Y-94700000D01*
X151050000Y-96500000D02*
X151058800Y-96508800D01*
X149905000Y-94700000D02*
X149905000Y-95786200D01*
D21*
%TO.N,Net-(C15--)*%
X154105000Y-101705000D02*
X153158800Y-100758800D01*
X152650000Y-104250000D02*
X152100001Y-104799999D01*
X152100001Y-104799999D02*
X152100001Y-105100001D01*
X152100001Y-105100001D02*
X150779999Y-105100001D01*
X153158800Y-100758800D02*
X153158800Y-100750000D01*
X150779999Y-105100001D02*
X150380000Y-105500000D01*
X154050000Y-104250000D02*
X152650000Y-104250000D01*
X154105000Y-101850000D02*
X154105000Y-101705000D01*
X154250000Y-104050000D02*
X154050000Y-104250000D01*
X154250000Y-101995000D02*
X154250000Y-104050000D01*
X154105000Y-101850000D02*
X154250000Y-101995000D01*
D22*
%TO.N,GAP_GPIO46*%
X145350000Y-101700000D02*
X145350000Y-102450000D01*
D24*
%TO.N,nRF_P1.11_GAP_GPIO63*%
X145850000Y-101700000D02*
X145850000Y-102200000D01*
D22*
%TO.N,nRF_P0.12_GAP_GPIO64*%
X143850000Y-102200000D02*
X143850000Y-101700000D01*
D21*
%TO.N,VD2*%
X153150000Y-94250000D02*
X153150000Y-94695000D01*
X153158800Y-94258800D02*
X153158800Y-95800000D01*
X153150000Y-94250000D02*
X153158800Y-94258800D01*
X153150000Y-94695000D02*
X153145000Y-94700000D01*
X153150000Y-94150000D02*
X153150000Y-94450000D01*
%TO.N,/sensor/OSC_80MHz*%
X150400000Y-103290000D02*
X150400000Y-103055546D01*
X150400000Y-103055546D02*
X148544454Y-101200000D01*
X148544454Y-101200000D02*
X148350000Y-101200000D01*
%TO.N,Net-(R1-+)*%
X150890000Y-104310000D02*
X150400000Y-104310000D01*
X152100001Y-103299999D02*
X151900001Y-103299999D01*
X151900001Y-103299999D02*
X150890000Y-104310000D01*
D22*
%TO.N,/sensor/DIV_OUT*%
X150000000Y-97700000D02*
X150000000Y-97100000D01*
X148899997Y-99699997D02*
X148900000Y-99700000D01*
X148350000Y-99699997D02*
X148899997Y-99699997D01*
D24*
%TO.N,SPI_A_CLK*%
X140670294Y-100802000D02*
X140670294Y-101868000D01*
X141112889Y-102100000D02*
X142968310Y-102100000D01*
X138950000Y-102100000D02*
X139858294Y-102100000D01*
X143350000Y-101718310D02*
X143350000Y-101700000D01*
X141018294Y-102100000D02*
X141112889Y-102100000D01*
X138750000Y-103078000D02*
X138750000Y-102300000D01*
X140090294Y-101868000D02*
X140090294Y-100802000D01*
X140902294Y-102100000D02*
X141018294Y-102100000D01*
X142968310Y-102100000D02*
X143350000Y-101718310D01*
X138750000Y-102300000D02*
X138950000Y-102100000D01*
X140322294Y-100570000D02*
X140438294Y-100570000D01*
X140438294Y-100570000D02*
G75*
G02*
X140670300Y-100802000I6J-232000D01*
G01*
X139858294Y-102100000D02*
G75*
G03*
X140090300Y-101868000I6J232000D01*
G01*
X140090294Y-100802000D02*
G75*
G02*
X140322294Y-100569994I232006J0D01*
G01*
X140670294Y-101868000D02*
G75*
G03*
X140902294Y-102100006I232006J0D01*
G01*
%TO.N,SPI_A_MISO*%
X140450000Y-103078000D02*
X144472000Y-103078000D01*
X144850000Y-102700000D02*
X144850000Y-101700000D01*
X144472000Y-103078000D02*
X144850000Y-102700000D01*
%TO.N,SPI_A_MOSI*%
X138760000Y-104166951D02*
X138760000Y-104210000D01*
X144006698Y-102650000D02*
X144350000Y-102306698D01*
X139700000Y-102800000D02*
X139850000Y-102650000D01*
X144350000Y-102306698D02*
X144350000Y-101700000D01*
X139850000Y-102650000D02*
X144006698Y-102650000D01*
X139000000Y-104450000D02*
X139550000Y-104450000D01*
X139700000Y-104300000D02*
X139700000Y-102800000D01*
X138759801Y-104166752D02*
X138760000Y-104166951D01*
X139550000Y-104450000D02*
X139700000Y-104300000D01*
X138760000Y-104210000D02*
X139000000Y-104450000D01*
%TD*%
%TA.AperFunction,Conductor*%
%TO.N,GND*%
G36*
X149502177Y-93869407D02*
G01*
X149538141Y-93918907D01*
X149538141Y-93980093D01*
X149534032Y-93989318D01*
X149534276Y-93989419D01*
X149531794Y-93995410D01*
X149504500Y-94097274D01*
X149504500Y-94268016D01*
X149486597Y-94324799D01*
X149481774Y-94331686D01*
X149431029Y-94440510D01*
X149431028Y-94440511D01*
X149424500Y-94490100D01*
X149424500Y-94909896D01*
X149424501Y-94909907D01*
X149431027Y-94959486D01*
X149431027Y-94959488D01*
X149481773Y-95068310D01*
X149481776Y-95068316D01*
X149481780Y-95068320D01*
X149486595Y-95075197D01*
X149504500Y-95131983D01*
X149504500Y-95326180D01*
X149485593Y-95384371D01*
X149436093Y-95420335D01*
X149374907Y-95420335D01*
X149325407Y-95384371D01*
X149323185Y-95381182D01*
X149289554Y-95330851D01*
X149289552Y-95330848D01*
X149280652Y-95324901D01*
X149223233Y-95286534D01*
X149223231Y-95286533D01*
X149223228Y-95286532D01*
X149223227Y-95286532D01*
X149164758Y-95274901D01*
X149164748Y-95274900D01*
X148752852Y-95274900D01*
X148752851Y-95274900D01*
X148752841Y-95274901D01*
X148694372Y-95286532D01*
X148694366Y-95286534D01*
X148628051Y-95330845D01*
X148628044Y-95330852D01*
X148624937Y-95335503D01*
X148576887Y-95373382D01*
X148542623Y-95379500D01*
X147731984Y-95379500D01*
X147675201Y-95361597D01*
X147668313Y-95356774D01*
X147559489Y-95306029D01*
X147559488Y-95306028D01*
X147542958Y-95303852D01*
X147509901Y-95299500D01*
X147509899Y-95299500D01*
X147090103Y-95299500D01*
X147090092Y-95299501D01*
X147040513Y-95306027D01*
X147040511Y-95306027D01*
X146931687Y-95356774D01*
X146924799Y-95361597D01*
X146868016Y-95379500D01*
X146631984Y-95379500D01*
X146575201Y-95361597D01*
X146568313Y-95356774D01*
X146459489Y-95306029D01*
X146459488Y-95306028D01*
X146442958Y-95303852D01*
X146409901Y-95299500D01*
X146409899Y-95299500D01*
X145990103Y-95299500D01*
X145990092Y-95299501D01*
X145940513Y-95306027D01*
X145940511Y-95306027D01*
X145831687Y-95356774D01*
X145824799Y-95361597D01*
X145768016Y-95379500D01*
X145531984Y-95379500D01*
X145475201Y-95361597D01*
X145468313Y-95356774D01*
X145359489Y-95306029D01*
X145359488Y-95306028D01*
X145342958Y-95303852D01*
X145309901Y-95299500D01*
X145309899Y-95299500D01*
X144890103Y-95299500D01*
X144890092Y-95299501D01*
X144840513Y-95306027D01*
X144840511Y-95306027D01*
X144731686Y-95356774D01*
X144646774Y-95441686D01*
X144596029Y-95550510D01*
X144596028Y-95550511D01*
X144589500Y-95600100D01*
X144589500Y-95959895D01*
X144589501Y-95959907D01*
X144596027Y-96009486D01*
X144596027Y-96009488D01*
X144646774Y-96118313D01*
X144646775Y-96118314D01*
X144646776Y-96118316D01*
X144731684Y-96203224D01*
X144840513Y-96253972D01*
X144890099Y-96260500D01*
X144925499Y-96260499D01*
X144983689Y-96279405D01*
X145019654Y-96328904D01*
X145024500Y-96359499D01*
X145024500Y-96886253D01*
X145011237Y-96935752D01*
X144976794Y-96995410D01*
X144976793Y-96995412D01*
X144976793Y-96995413D01*
X144949500Y-97097273D01*
X144949500Y-97202727D01*
X144976793Y-97304587D01*
X145000364Y-97345413D01*
X145011237Y-97364245D01*
X145024500Y-97413745D01*
X145024500Y-97576384D01*
X145020546Y-97604082D01*
X145018482Y-97611164D01*
X145012000Y-97660397D01*
X145012000Y-97739598D01*
X145012001Y-97739607D01*
X145018480Y-97788829D01*
X145068854Y-97896856D01*
X145068855Y-97896857D01*
X145068856Y-97896859D01*
X145153141Y-97981144D01*
X145261170Y-98031519D01*
X145310397Y-98038000D01*
X145389602Y-98037999D01*
X145438830Y-98031519D01*
X145546859Y-97981144D01*
X145546858Y-97981144D01*
X145554708Y-97977484D01*
X145555809Y-97979847D01*
X145601711Y-97965805D01*
X145644286Y-97979638D01*
X145645291Y-97977484D01*
X145717118Y-98010977D01*
X145761170Y-98031519D01*
X145810397Y-98038000D01*
X145889602Y-98037999D01*
X145938830Y-98031519D01*
X146046859Y-97981144D01*
X146131144Y-97896859D01*
X146181519Y-97788830D01*
X146188000Y-97739603D01*
X146187999Y-97660398D01*
X146182570Y-97619152D01*
X146181520Y-97611173D01*
X146179454Y-97604085D01*
X146175500Y-97576384D01*
X146175500Y-97413745D01*
X146188763Y-97364245D01*
X146223207Y-97304587D01*
X146250500Y-97202727D01*
X146250500Y-97097273D01*
X146235276Y-97040454D01*
X149547706Y-97040454D01*
X149547706Y-97159546D01*
X149560852Y-97208607D01*
X149578530Y-97274583D01*
X149638071Y-97377710D01*
X149638073Y-97377712D01*
X149638075Y-97377715D01*
X149638589Y-97378229D01*
X149638825Y-97378692D01*
X149642024Y-97382861D01*
X149641251Y-97383454D01*
X149666365Y-97432744D01*
X149656794Y-97493176D01*
X149654322Y-97497729D01*
X149626793Y-97545412D01*
X149626793Y-97545413D01*
X149599500Y-97647273D01*
X149599500Y-97752727D01*
X149618134Y-97822270D01*
X149626794Y-97854589D01*
X149626794Y-97854590D01*
X149679518Y-97945910D01*
X149679520Y-97945913D01*
X149754087Y-98020480D01*
X149845413Y-98073207D01*
X149947273Y-98100500D01*
X149947275Y-98100500D01*
X150052725Y-98100500D01*
X150052727Y-98100500D01*
X150154587Y-98073207D01*
X150245913Y-98020480D01*
X150320480Y-97945913D01*
X150373207Y-97854587D01*
X150400500Y-97752727D01*
X150400500Y-97647273D01*
X150373207Y-97545413D01*
X150345677Y-97497729D01*
X150344700Y-97493132D01*
X150341507Y-97489678D01*
X150338419Y-97463587D01*
X150332956Y-97437885D01*
X150334869Y-97433586D01*
X150334317Y-97428917D01*
X150347153Y-97405995D01*
X150357842Y-97381989D01*
X150361398Y-97378241D01*
X150361925Y-97377715D01*
X150380575Y-97345413D01*
X150421469Y-97274583D01*
X150421469Y-97274581D01*
X150421471Y-97274579D01*
X150452294Y-97159546D01*
X150452294Y-97040454D01*
X150421471Y-96925421D01*
X150421469Y-96925418D01*
X150421469Y-96925416D01*
X150361928Y-96822289D01*
X150361926Y-96822287D01*
X150361925Y-96822285D01*
X150277715Y-96738075D01*
X150277712Y-96738073D01*
X150277710Y-96738071D01*
X150174582Y-96678530D01*
X150174584Y-96678530D01*
X150129949Y-96666570D01*
X150059546Y-96647706D01*
X149940454Y-96647706D01*
X149870050Y-96666570D01*
X149825416Y-96678530D01*
X149722289Y-96738071D01*
X149638071Y-96822289D01*
X149578530Y-96925416D01*
X149578529Y-96925421D01*
X149547706Y-97040454D01*
X146235276Y-97040454D01*
X146223207Y-96995413D01*
X146210284Y-96973029D01*
X146188763Y-96935752D01*
X146175500Y-96886253D01*
X146175500Y-96359499D01*
X146194407Y-96301308D01*
X146243907Y-96265344D01*
X146274500Y-96260499D01*
X146409897Y-96260499D01*
X146409900Y-96260499D01*
X146459487Y-96253972D01*
X146459488Y-96253972D01*
X146497598Y-96236200D01*
X146568316Y-96203224D01*
X146568321Y-96203218D01*
X146575201Y-96198403D01*
X146631984Y-96180500D01*
X146868016Y-96180500D01*
X146924799Y-96198403D01*
X146931682Y-96203222D01*
X146931684Y-96203224D01*
X147040513Y-96253972D01*
X147090099Y-96260500D01*
X147509900Y-96260499D01*
X147559487Y-96253972D01*
X147621764Y-96224931D01*
X147682489Y-96217475D01*
X147736004Y-96247137D01*
X147759227Y-96289031D01*
X147776793Y-96354587D01*
X147776794Y-96354590D01*
X147819911Y-96429270D01*
X147829520Y-96445913D01*
X147904087Y-96520480D01*
X147995413Y-96573207D01*
X148097273Y-96600500D01*
X148097275Y-96600500D01*
X148202725Y-96600500D01*
X148202727Y-96600500D01*
X148304587Y-96573207D01*
X148395913Y-96520480D01*
X148470480Y-96445913D01*
X148523207Y-96354587D01*
X148545512Y-96271340D01*
X148578835Y-96220028D01*
X148635956Y-96198101D01*
X148684763Y-96211178D01*
X148685361Y-96209735D01*
X148694364Y-96213463D01*
X148694369Y-96213467D01*
X148738831Y-96222311D01*
X148752841Y-96225098D01*
X148752846Y-96225098D01*
X148752852Y-96225100D01*
X148752853Y-96225100D01*
X149164747Y-96225100D01*
X149164748Y-96225100D01*
X149223231Y-96213467D01*
X149289552Y-96169152D01*
X149333867Y-96102831D01*
X149333867Y-96102830D01*
X149339284Y-96094724D01*
X149340467Y-96095514D01*
X149373268Y-96057105D01*
X149432762Y-96042819D01*
X149489291Y-96066230D01*
X149510229Y-96095049D01*
X149510716Y-96094724D01*
X149527926Y-96120481D01*
X149560448Y-96169152D01*
X149626769Y-96213467D01*
X149671231Y-96222311D01*
X149685241Y-96225098D01*
X149685246Y-96225098D01*
X149685252Y-96225100D01*
X149685253Y-96225100D01*
X150097147Y-96225100D01*
X150097148Y-96225100D01*
X150155631Y-96213467D01*
X150155637Y-96213462D01*
X150164640Y-96209735D01*
X150165754Y-96212425D01*
X150205069Y-96200500D01*
X150550500Y-96200500D01*
X150608691Y-96219407D01*
X150644655Y-96268907D01*
X150649500Y-96299500D01*
X150649500Y-96552726D01*
X150654927Y-96572981D01*
X150658300Y-96598603D01*
X150658300Y-97252727D01*
X150668727Y-97291640D01*
X150668293Y-97299912D01*
X150672100Y-97317263D01*
X150672100Y-97494346D01*
X150672101Y-97494358D01*
X150683732Y-97552827D01*
X150683734Y-97552833D01*
X150728045Y-97619148D01*
X150728048Y-97619152D01*
X150794369Y-97663467D01*
X150838831Y-97672311D01*
X150852841Y-97675098D01*
X150852846Y-97675098D01*
X150852852Y-97675100D01*
X150959916Y-97675100D01*
X151018107Y-97694007D01*
X151054071Y-97743507D01*
X151055542Y-97799724D01*
X151049500Y-97822270D01*
X151049500Y-97927728D01*
X151055435Y-97949876D01*
X151052234Y-98010977D01*
X151013729Y-98058528D01*
X150959809Y-98074500D01*
X150642853Y-98074500D01*
X150557147Y-98074500D01*
X150515754Y-98085591D01*
X150474359Y-98096682D01*
X150413677Y-98131717D01*
X150413673Y-98131720D01*
X150400138Y-98139535D01*
X150358865Y-98180807D01*
X150358847Y-98180824D01*
X149879166Y-98660504D01*
X149824650Y-98688281D01*
X149809165Y-98689500D01*
X149765105Y-98689500D01*
X149765092Y-98689501D01*
X149715513Y-98696027D01*
X149715511Y-98696027D01*
X149606686Y-98746774D01*
X149521771Y-98831689D01*
X149521351Y-98832290D01*
X149520620Y-98832840D01*
X149515652Y-98837809D01*
X149514953Y-98837110D01*
X149508159Y-98842228D01*
X149498450Y-98855593D01*
X149484335Y-98860179D01*
X149472483Y-98869109D01*
X149440259Y-98874500D01*
X149413745Y-98874500D01*
X149364246Y-98861237D01*
X149304587Y-98826793D01*
X149202727Y-98799500D01*
X149097273Y-98799500D01*
X148995413Y-98826793D01*
X148935753Y-98861237D01*
X148886255Y-98874500D01*
X148473615Y-98874500D01*
X148445915Y-98870546D01*
X148438831Y-98868481D01*
X148414216Y-98865240D01*
X148389603Y-98862000D01*
X148389602Y-98862000D01*
X148310401Y-98862000D01*
X148310392Y-98862001D01*
X148261170Y-98868480D01*
X148153143Y-98918854D01*
X148068854Y-99003143D01*
X148018483Y-99111164D01*
X148018481Y-99111171D01*
X148012000Y-99160397D01*
X148012000Y-99239598D01*
X148012001Y-99239607D01*
X148018480Y-99288829D01*
X148072516Y-99404708D01*
X148070154Y-99405809D01*
X148084193Y-99451720D01*
X148070366Y-99494285D01*
X148072516Y-99495288D01*
X148018483Y-99611161D01*
X148018481Y-99611168D01*
X148012000Y-99660394D01*
X148012000Y-99739595D01*
X148012001Y-99739604D01*
X148018480Y-99788826D01*
X148072516Y-99904705D01*
X148070155Y-99905805D01*
X148084195Y-99951722D01*
X148070367Y-99994289D01*
X148072516Y-99995291D01*
X148018483Y-100111164D01*
X148018481Y-100111168D01*
X148018481Y-100111170D01*
X148015890Y-100130848D01*
X148012000Y-100160397D01*
X148012000Y-100239598D01*
X148012001Y-100239607D01*
X148018480Y-100288829D01*
X148072516Y-100404708D01*
X148070156Y-100405808D01*
X148084192Y-100451740D01*
X148070367Y-100494285D01*
X148072516Y-100495287D01*
X148018483Y-100611160D01*
X148018481Y-100611164D01*
X148018481Y-100611166D01*
X148015695Y-100632326D01*
X148012000Y-100660393D01*
X148012000Y-100739594D01*
X148012001Y-100739603D01*
X148018480Y-100788825D01*
X148072516Y-100904704D01*
X148070157Y-100905803D01*
X148084195Y-100951736D01*
X148070368Y-100994289D01*
X148072516Y-100995291D01*
X148018483Y-101111164D01*
X148018481Y-101111171D01*
X148012000Y-101160397D01*
X148012000Y-101239598D01*
X148013718Y-101252645D01*
X148002565Y-101312806D01*
X147958181Y-101354921D01*
X147902646Y-101363717D01*
X147898541Y-101363176D01*
X147889603Y-101362000D01*
X147889600Y-101362000D01*
X147810401Y-101362000D01*
X147810392Y-101362001D01*
X147761170Y-101368480D01*
X147653143Y-101418854D01*
X147568854Y-101503143D01*
X147518483Y-101611164D01*
X147518481Y-101611171D01*
X147512000Y-101660397D01*
X147512000Y-101739598D01*
X147512001Y-101739609D01*
X147518479Y-101788822D01*
X147520544Y-101795905D01*
X147520474Y-101798192D01*
X147524500Y-101823613D01*
X147524500Y-102767576D01*
X147505593Y-102825767D01*
X147456093Y-102861731D01*
X147394907Y-102861731D01*
X147383666Y-102857303D01*
X147359487Y-102846028D01*
X147309901Y-102839500D01*
X147309900Y-102839500D01*
X147274500Y-102839500D01*
X147216309Y-102820593D01*
X147180345Y-102771093D01*
X147175500Y-102740500D01*
X147175500Y-102513745D01*
X147188763Y-102464245D01*
X147223207Y-102404587D01*
X147250500Y-102302727D01*
X147250500Y-102197273D01*
X147223207Y-102095413D01*
X147202708Y-102059907D01*
X147188763Y-102035752D01*
X147175500Y-101986253D01*
X147175500Y-101823613D01*
X147179455Y-101795910D01*
X147181516Y-101788835D01*
X147181519Y-101788830D01*
X147188000Y-101739603D01*
X147187999Y-101660398D01*
X147181519Y-101611170D01*
X147138400Y-101518702D01*
X147131145Y-101503143D01*
X147131144Y-101503142D01*
X147131144Y-101503141D01*
X147046859Y-101418856D01*
X147046857Y-101418855D01*
X147046856Y-101418854D01*
X146938835Y-101368483D01*
X146938833Y-101368482D01*
X146938830Y-101368481D01*
X146889603Y-101362000D01*
X146889602Y-101362000D01*
X146810401Y-101362000D01*
X146810392Y-101362001D01*
X146761170Y-101368480D01*
X146645292Y-101422516D01*
X146644191Y-101420155D01*
X146598270Y-101434194D01*
X146555711Y-101420365D01*
X146554709Y-101422516D01*
X146438835Y-101368483D01*
X146438833Y-101368482D01*
X146438830Y-101368481D01*
X146389603Y-101362000D01*
X146389602Y-101362000D01*
X146310401Y-101362000D01*
X146310392Y-101362001D01*
X146261170Y-101368480D01*
X146145292Y-101422516D01*
X146144191Y-101420155D01*
X146098270Y-101434194D01*
X146055711Y-101420365D01*
X146054709Y-101422516D01*
X145938835Y-101368483D01*
X145938833Y-101368482D01*
X145938830Y-101368481D01*
X145889603Y-101362000D01*
X145889602Y-101362000D01*
X145810401Y-101362000D01*
X145810392Y-101362001D01*
X145761170Y-101368480D01*
X145645292Y-101422516D01*
X145644191Y-101420155D01*
X145598270Y-101434194D01*
X145555711Y-101420365D01*
X145554709Y-101422516D01*
X145438835Y-101368483D01*
X145438833Y-101368482D01*
X145438830Y-101368481D01*
X145389603Y-101362000D01*
X145389602Y-101362000D01*
X145310401Y-101362000D01*
X145310392Y-101362001D01*
X145261170Y-101368480D01*
X145145292Y-101422516D01*
X145144191Y-101420155D01*
X145098270Y-101434194D01*
X145055711Y-101420365D01*
X145054709Y-101422516D01*
X144938835Y-101368483D01*
X144938833Y-101368482D01*
X144938830Y-101368481D01*
X144889603Y-101362000D01*
X144889602Y-101362000D01*
X144810401Y-101362000D01*
X144810392Y-101362001D01*
X144761170Y-101368480D01*
X144645292Y-101422516D01*
X144644191Y-101420155D01*
X144598270Y-101434194D01*
X144555711Y-101420365D01*
X144554709Y-101422516D01*
X144438835Y-101368483D01*
X144438833Y-101368482D01*
X144438830Y-101368481D01*
X144389603Y-101362000D01*
X144389602Y-101362000D01*
X144310401Y-101362000D01*
X144310392Y-101362001D01*
X144261170Y-101368480D01*
X144145292Y-101422516D01*
X144144191Y-101420155D01*
X144098270Y-101434194D01*
X144055711Y-101420365D01*
X144054709Y-101422516D01*
X143938835Y-101368483D01*
X143938833Y-101368482D01*
X143938830Y-101368481D01*
X143889603Y-101362000D01*
X143889602Y-101362000D01*
X143810401Y-101362000D01*
X143810392Y-101362001D01*
X143761170Y-101368480D01*
X143645292Y-101422516D01*
X143644191Y-101420155D01*
X143598270Y-101434194D01*
X143555711Y-101420365D01*
X143554709Y-101422516D01*
X143438835Y-101368483D01*
X143438833Y-101368482D01*
X143438830Y-101368481D01*
X143389603Y-101362000D01*
X143389602Y-101362000D01*
X143310401Y-101362000D01*
X143310392Y-101362001D01*
X143261170Y-101368480D01*
X143153143Y-101418854D01*
X143068854Y-101503143D01*
X143018483Y-101611164D01*
X143018481Y-101611171D01*
X143016075Y-101629445D01*
X143015491Y-101630669D01*
X143015703Y-101632007D01*
X143002375Y-101658165D01*
X142989732Y-101684670D01*
X142987926Y-101686524D01*
X142881949Y-101792503D01*
X142827433Y-101820281D01*
X142811945Y-101821500D01*
X141047794Y-101821500D01*
X140989603Y-101802593D01*
X140953639Y-101753093D01*
X140948794Y-101722500D01*
X140948794Y-100843013D01*
X140948800Y-100842994D01*
X140948800Y-100744483D01*
X140948799Y-100744477D01*
X140947685Y-100739598D01*
X140923200Y-100632323D01*
X140873285Y-100528675D01*
X140801557Y-100438733D01*
X140801552Y-100438729D01*
X140801549Y-100438726D01*
X140711618Y-100367011D01*
X140711611Y-100367006D01*
X140607966Y-100317095D01*
X140495807Y-100291499D01*
X140438287Y-100291500D01*
X140379379Y-100291500D01*
X140379367Y-100291499D01*
X140363298Y-100291499D01*
X140363279Y-100291493D01*
X140264765Y-100291495D01*
X140152621Y-100317094D01*
X140152610Y-100317098D01*
X140048969Y-100367011D01*
X139959032Y-100438735D01*
X139959022Y-100438745D01*
X139887305Y-100528678D01*
X139887304Y-100528680D01*
X139837393Y-100632323D01*
X139837390Y-100632330D01*
X139811794Y-100744481D01*
X139811794Y-101722500D01*
X139792887Y-101780691D01*
X139743387Y-101816655D01*
X139712794Y-101821500D01*
X138986665Y-101821500D01*
X138913335Y-101821500D01*
X138866113Y-101834152D01*
X138842502Y-101840479D01*
X138778997Y-101877144D01*
X138578997Y-102077145D01*
X138578996Y-102077144D01*
X138527145Y-102128996D01*
X138527143Y-102128998D01*
X138490480Y-102192500D01*
X138490479Y-102192502D01*
X138490479Y-102192503D01*
X138474343Y-102252727D01*
X138471500Y-102263336D01*
X138471500Y-102749099D01*
X138452593Y-102807290D01*
X138442506Y-102819101D01*
X138429518Y-102832089D01*
X138376794Y-102923409D01*
X138376794Y-102923410D01*
X138376793Y-102923412D01*
X138376793Y-102923413D01*
X138349500Y-103025273D01*
X138349500Y-103130727D01*
X138376793Y-103232587D01*
X138376794Y-103232589D01*
X138376794Y-103232590D01*
X138398279Y-103269802D01*
X138429520Y-103323913D01*
X138504087Y-103398480D01*
X138595413Y-103451207D01*
X138697273Y-103478500D01*
X138697275Y-103478500D01*
X138802725Y-103478500D01*
X138802727Y-103478500D01*
X138904587Y-103451207D01*
X138995913Y-103398480D01*
X139070480Y-103323913D01*
X139123207Y-103232587D01*
X139150500Y-103130727D01*
X139150500Y-103025273D01*
X139123207Y-102923413D01*
X139119484Y-102916965D01*
X139070481Y-102832089D01*
X139070480Y-102832087D01*
X139057494Y-102819101D01*
X139029718Y-102764583D01*
X139028500Y-102749099D01*
X139028500Y-102477500D01*
X139047407Y-102419309D01*
X139096907Y-102383345D01*
X139127500Y-102378500D01*
X139488634Y-102378500D01*
X139546825Y-102397407D01*
X139582789Y-102446907D01*
X139582789Y-102508093D01*
X139558638Y-102547504D01*
X139528997Y-102577145D01*
X139528996Y-102577144D01*
X139477145Y-102628996D01*
X139477143Y-102628998D01*
X139440480Y-102692500D01*
X139440479Y-102692502D01*
X139440479Y-102692503D01*
X139425315Y-102749099D01*
X139421500Y-102763336D01*
X139421500Y-104072500D01*
X139416655Y-104087411D01*
X139416655Y-104103093D01*
X139407438Y-104115778D01*
X139402593Y-104130691D01*
X139389907Y-104139907D01*
X139380691Y-104152593D01*
X139365778Y-104157438D01*
X139353093Y-104166655D01*
X139322500Y-104171500D01*
X139251667Y-104171500D01*
X139193476Y-104152593D01*
X139157512Y-104103093D01*
X139156040Y-104098123D01*
X139133008Y-104012165D01*
X139133007Y-104012163D01*
X139133006Y-104012161D01*
X139088394Y-103934892D01*
X139080281Y-103920839D01*
X139005714Y-103846272D01*
X139005125Y-103845932D01*
X138914390Y-103793546D01*
X138914389Y-103793545D01*
X138914388Y-103793545D01*
X138812528Y-103766252D01*
X138707074Y-103766252D01*
X138605214Y-103793545D01*
X138605213Y-103793545D01*
X138605211Y-103793546D01*
X138605210Y-103793546D01*
X138513890Y-103846270D01*
X138439319Y-103920841D01*
X138386595Y-104012161D01*
X138386595Y-104012162D01*
X138386595Y-104012163D01*
X138386594Y-104012165D01*
X138359301Y-104114025D01*
X138359301Y-104219479D01*
X138386594Y-104321339D01*
X138386595Y-104321341D01*
X138386595Y-104321342D01*
X138395441Y-104336663D01*
X138439321Y-104412665D01*
X138513888Y-104487232D01*
X138513890Y-104487233D01*
X138605210Y-104539957D01*
X138605211Y-104539957D01*
X138605214Y-104539959D01*
X138703744Y-104566359D01*
X138748123Y-104591981D01*
X138777145Y-104621003D01*
X138777144Y-104621003D01*
X138828996Y-104672854D01*
X138828998Y-104672856D01*
X138851506Y-104685851D01*
X138892503Y-104709521D01*
X138963335Y-104728500D01*
X138963337Y-104728500D01*
X139586663Y-104728500D01*
X139586665Y-104728500D01*
X139657497Y-104709521D01*
X139721003Y-104672855D01*
X139922855Y-104471003D01*
X139959521Y-104407497D01*
X139978500Y-104336665D01*
X139978500Y-104263335D01*
X139978500Y-103411900D01*
X139997407Y-103353709D01*
X140046907Y-103317745D01*
X140108093Y-103317745D01*
X140147501Y-103341894D01*
X140204087Y-103398480D01*
X140295413Y-103451207D01*
X140397273Y-103478500D01*
X140397275Y-103478500D01*
X140502725Y-103478500D01*
X140502727Y-103478500D01*
X140604587Y-103451207D01*
X140695913Y-103398480D01*
X140708898Y-103385494D01*
X140763413Y-103357719D01*
X140778900Y-103356500D01*
X144508663Y-103356500D01*
X144508665Y-103356500D01*
X144579497Y-103337521D01*
X144643003Y-103300855D01*
X145072856Y-102871003D01*
X145075364Y-102866657D01*
X145120828Y-102825715D01*
X145181678Y-102819314D01*
X145189119Y-102821623D01*
X145189145Y-102821527D01*
X145195411Y-102823206D01*
X145195413Y-102823207D01*
X145297273Y-102850500D01*
X145297275Y-102850500D01*
X145402726Y-102850500D01*
X145402727Y-102850500D01*
X145403607Y-102850264D01*
X145404259Y-102850298D01*
X145409159Y-102849653D01*
X145409278Y-102850561D01*
X145464708Y-102853465D01*
X145512259Y-102891969D01*
X145528096Y-102951069D01*
X145518957Y-102987729D01*
X145471028Y-103090513D01*
X145464500Y-103140100D01*
X145464500Y-103499895D01*
X145464501Y-103499907D01*
X145471027Y-103549486D01*
X145471027Y-103549488D01*
X145521774Y-103658313D01*
X145521775Y-103658314D01*
X145521776Y-103658316D01*
X145606684Y-103743224D01*
X145715513Y-103793972D01*
X145765099Y-103800500D01*
X146184900Y-103800499D01*
X146234487Y-103793972D01*
X146234488Y-103793972D01*
X146293932Y-103766252D01*
X146343316Y-103743224D01*
X146428224Y-103658316D01*
X146447775Y-103616386D01*
X146489501Y-103571640D01*
X146549562Y-103559964D01*
X146605015Y-103585821D01*
X146627223Y-103616386D01*
X146646774Y-103658313D01*
X146646775Y-103658314D01*
X146646776Y-103658316D01*
X146731684Y-103743224D01*
X146840513Y-103793972D01*
X146890099Y-103800500D01*
X147309900Y-103800499D01*
X147359487Y-103793972D01*
X147359488Y-103793972D01*
X147418932Y-103766252D01*
X147468316Y-103743224D01*
X147553224Y-103658316D01*
X147560275Y-103643194D01*
X147602000Y-103598447D01*
X147662060Y-103586770D01*
X147717514Y-103612627D01*
X147739722Y-103643191D01*
X147746774Y-103658313D01*
X147746775Y-103658314D01*
X147746776Y-103658316D01*
X147831684Y-103743224D01*
X147940513Y-103793972D01*
X147990099Y-103800500D01*
X148409900Y-103800499D01*
X148459487Y-103793972D01*
X148459488Y-103793972D01*
X148518932Y-103766252D01*
X148568316Y-103743224D01*
X148653224Y-103658316D01*
X148660275Y-103643194D01*
X148702000Y-103598447D01*
X148762060Y-103586770D01*
X148817514Y-103612627D01*
X148839722Y-103643191D01*
X148846774Y-103658313D01*
X148846775Y-103658314D01*
X148846776Y-103658316D01*
X148931684Y-103743224D01*
X149040513Y-103793972D01*
X149090099Y-103800500D01*
X149509900Y-103800499D01*
X149559487Y-103793972D01*
X149559488Y-103793972D01*
X149618932Y-103766252D01*
X149668316Y-103743224D01*
X149753224Y-103658316D01*
X149764406Y-103634335D01*
X149806133Y-103589588D01*
X149866194Y-103577913D01*
X149920528Y-103602742D01*
X149932926Y-103613952D01*
X149935935Y-103620404D01*
X150019596Y-103704065D01*
X150046420Y-103716573D01*
X150057473Y-103726567D01*
X150065654Y-103740806D01*
X150077663Y-103752005D01*
X150080513Y-103766668D01*
X150087954Y-103779619D01*
X150086203Y-103795945D01*
X150089337Y-103812066D01*
X150083024Y-103825602D01*
X150081432Y-103840456D01*
X150070416Y-103852638D01*
X150063478Y-103867518D01*
X150044485Y-103881317D01*
X150040396Y-103885840D01*
X150037390Y-103886472D01*
X150032915Y-103889724D01*
X150019598Y-103895933D01*
X149935933Y-103979598D01*
X149885932Y-104086824D01*
X149885932Y-104086825D01*
X149879500Y-104135685D01*
X149879500Y-104484314D01*
X149885932Y-104533174D01*
X149885932Y-104533175D01*
X149935933Y-104640401D01*
X149935934Y-104640402D01*
X149935935Y-104640404D01*
X150019596Y-104724065D01*
X150019597Y-104724065D01*
X150019598Y-104724066D01*
X150126824Y-104774067D01*
X150126825Y-104774067D01*
X150126827Y-104774068D01*
X150175684Y-104780500D01*
X150175685Y-104780500D01*
X150400165Y-104780500D01*
X150422212Y-104787663D01*
X150445110Y-104791290D01*
X150450758Y-104796938D01*
X150458356Y-104799407D01*
X150471983Y-104818163D01*
X150488375Y-104834555D01*
X150489624Y-104842444D01*
X150494320Y-104848907D01*
X150494320Y-104872092D01*
X150497946Y-104894987D01*
X150494320Y-104902103D01*
X150494320Y-104910093D01*
X150470170Y-104949502D01*
X150459167Y-104960504D01*
X150404652Y-104988281D01*
X150389166Y-104989500D01*
X150200104Y-104989500D01*
X150200092Y-104989501D01*
X150150513Y-104996027D01*
X150150511Y-104996027D01*
X150041686Y-105046774D01*
X149956774Y-105131686D01*
X149906029Y-105240510D01*
X149906028Y-105240511D01*
X149899500Y-105290100D01*
X149899500Y-105709896D01*
X149899501Y-105709907D01*
X149906027Y-105759486D01*
X149906027Y-105759488D01*
X149956774Y-105868313D01*
X149956775Y-105868314D01*
X149956776Y-105868316D01*
X150041684Y-105953224D01*
X150150513Y-106003972D01*
X150200099Y-106010500D01*
X150559900Y-106010499D01*
X150609487Y-106003972D01*
X150609488Y-106003972D01*
X150668137Y-105976622D01*
X150718316Y-105953224D01*
X150803224Y-105868316D01*
X150853972Y-105759487D01*
X150860500Y-105709901D01*
X150860499Y-105524501D01*
X150879406Y-105466311D01*
X150928906Y-105430347D01*
X150959499Y-105425501D01*
X151414754Y-105425501D01*
X151472945Y-105444408D01*
X151497802Y-105475937D01*
X151499317Y-105474925D01*
X151540609Y-105536723D01*
X151549049Y-105549353D01*
X151615370Y-105593668D01*
X151659832Y-105602512D01*
X151673842Y-105605299D01*
X151673847Y-105605299D01*
X151673853Y-105605301D01*
X151673854Y-105605301D01*
X152526148Y-105605301D01*
X152526149Y-105605301D01*
X152584632Y-105593668D01*
X152644998Y-105553331D01*
X152703886Y-105536723D01*
X152755001Y-105553331D01*
X152815368Y-105593668D01*
X152859830Y-105602512D01*
X152873840Y-105605299D01*
X152873845Y-105605299D01*
X152873851Y-105605301D01*
X152873852Y-105605301D01*
X153726146Y-105605301D01*
X153726147Y-105605301D01*
X153784630Y-105593668D01*
X153850951Y-105549353D01*
X153895266Y-105483032D01*
X153906899Y-105424549D01*
X153906899Y-104775453D01*
X153903808Y-104759916D01*
X153897559Y-104728500D01*
X153895266Y-104716970D01*
X153895264Y-104716968D01*
X153893366Y-104712383D01*
X153888567Y-104651386D01*
X153920538Y-104599218D01*
X153977066Y-104575805D01*
X153984831Y-104575500D01*
X154092851Y-104575500D01*
X154092853Y-104575500D01*
X154175639Y-104553318D01*
X154175641Y-104553316D01*
X154175643Y-104553316D01*
X154249857Y-104510468D01*
X154249857Y-104510467D01*
X154249862Y-104510465D01*
X154449860Y-104310466D01*
X154449862Y-104310465D01*
X154510465Y-104249862D01*
X154544750Y-104190479D01*
X154553318Y-104175639D01*
X154575501Y-104092853D01*
X154575501Y-104007147D01*
X154575501Y-104001085D01*
X154575500Y-104001067D01*
X154575500Y-102135532D01*
X154578143Y-102117018D01*
X154577983Y-102116997D01*
X154578971Y-102109488D01*
X154578972Y-102109487D01*
X154585500Y-102059901D01*
X154585499Y-101640100D01*
X154578972Y-101590513D01*
X154578972Y-101590511D01*
X154528225Y-101481686D01*
X154528224Y-101481685D01*
X154528224Y-101481684D01*
X154443316Y-101396776D01*
X154443314Y-101396775D01*
X154443313Y-101396774D01*
X154334489Y-101346029D01*
X154334488Y-101346028D01*
X154309694Y-101342764D01*
X154284901Y-101339500D01*
X154284900Y-101339500D01*
X154240835Y-101339500D01*
X154233237Y-101337031D01*
X154225348Y-101338281D01*
X154204692Y-101327756D01*
X154182644Y-101320593D01*
X154170831Y-101310504D01*
X154054431Y-101194104D01*
X154026654Y-101139587D01*
X154036225Y-101079155D01*
X154079490Y-101035890D01*
X154124435Y-101025100D01*
X154297147Y-101025100D01*
X154297148Y-101025100D01*
X154355631Y-101013467D01*
X154421952Y-100969152D01*
X154466267Y-100902831D01*
X154477900Y-100844348D01*
X154477900Y-100667263D01*
X154481273Y-100641640D01*
X154483769Y-100632324D01*
X154491700Y-100602727D01*
X154491700Y-96722673D01*
X154464407Y-96620813D01*
X154452679Y-96600500D01*
X154411680Y-96529487D01*
X154337113Y-96454919D01*
X154337113Y-96454920D01*
X154311463Y-96429270D01*
X154283686Y-96374753D01*
X154293257Y-96314321D01*
X154323170Y-96279250D01*
X154340777Y-96266421D01*
X154355631Y-96263467D01*
X154421952Y-96219152D01*
X154437408Y-96196019D01*
X154451639Y-96185652D01*
X154464798Y-96181357D01*
X154475666Y-96172789D01*
X154493158Y-96172100D01*
X154509805Y-96166668D01*
X154522975Y-96170927D01*
X154536804Y-96170384D01*
X154543341Y-96172651D01*
X154545410Y-96173205D01*
X154545413Y-96173207D01*
X154647273Y-96200500D01*
X154647275Y-96200500D01*
X154752725Y-96200500D01*
X154752727Y-96200500D01*
X154854587Y-96173207D01*
X154945913Y-96120480D01*
X155020480Y-96045913D01*
X155073207Y-95954587D01*
X155100500Y-95852727D01*
X155100500Y-95747273D01*
X155073207Y-95645413D01*
X155052829Y-95610118D01*
X155020481Y-95554089D01*
X155020480Y-95554087D01*
X154945913Y-95479520D01*
X154929214Y-95469879D01*
X154854589Y-95426794D01*
X154854588Y-95426793D01*
X154854587Y-95426793D01*
X154752727Y-95399500D01*
X154647273Y-95399500D01*
X154545413Y-95426793D01*
X154545410Y-95426794D01*
X154539146Y-95428473D01*
X154538623Y-95426522D01*
X154486807Y-95430591D01*
X154434644Y-95398612D01*
X154427620Y-95389331D01*
X154421954Y-95380851D01*
X154421952Y-95380848D01*
X154402748Y-95368016D01*
X154355633Y-95336534D01*
X154355631Y-95336533D01*
X154355628Y-95336532D01*
X154355627Y-95336532D01*
X154297158Y-95324901D01*
X154297148Y-95324900D01*
X153885252Y-95324900D01*
X153885251Y-95324900D01*
X153885241Y-95324901D01*
X153826772Y-95336532D01*
X153826766Y-95336534D01*
X153760451Y-95380845D01*
X153760445Y-95380851D01*
X153710716Y-95455276D01*
X153709532Y-95454485D01*
X153676728Y-95492896D01*
X153617234Y-95507180D01*
X153560705Y-95483766D01*
X153541477Y-95461635D01*
X153534592Y-95450816D01*
X153533867Y-95447169D01*
X153500372Y-95397041D01*
X153499777Y-95396106D01*
X153496094Y-95381836D01*
X153484300Y-95342956D01*
X153484300Y-95193247D01*
X153503207Y-95135056D01*
X153513290Y-95123249D01*
X153568224Y-95068316D01*
X153618972Y-94959487D01*
X153625500Y-94909901D01*
X153625499Y-94490100D01*
X153618972Y-94440513D01*
X153618972Y-94440511D01*
X153568225Y-94331686D01*
X153568224Y-94331685D01*
X153568224Y-94331684D01*
X153567407Y-94330867D01*
X153566754Y-94329585D01*
X153563256Y-94324589D01*
X153563958Y-94324097D01*
X153539632Y-94276353D01*
X153541786Y-94235243D01*
X153550500Y-94202727D01*
X153550500Y-94097273D01*
X153523207Y-93995413D01*
X153523203Y-93995406D01*
X153520724Y-93989419D01*
X153523038Y-93988460D01*
X153512555Y-93939161D01*
X153537437Y-93883263D01*
X153590422Y-93852665D01*
X153611014Y-93850500D01*
X155860118Y-93850500D01*
X155896759Y-93850500D01*
X155903234Y-93850712D01*
X156128412Y-93865470D01*
X156141237Y-93867159D01*
X156359386Y-93910551D01*
X156371886Y-93913900D01*
X156446315Y-93939166D01*
X156582500Y-93985395D01*
X156594462Y-93990350D01*
X156614865Y-94000412D01*
X156793926Y-94088715D01*
X156805142Y-94095190D01*
X156990072Y-94218757D01*
X157000345Y-94226640D01*
X157061867Y-94280593D01*
X157117732Y-94329585D01*
X157167560Y-94373282D01*
X157176717Y-94382439D01*
X157323359Y-94549654D01*
X157331242Y-94559927D01*
X157454809Y-94744857D01*
X157461284Y-94756073D01*
X157559648Y-94955536D01*
X157564604Y-94967499D01*
X157636097Y-95178108D01*
X157639449Y-95190617D01*
X157682839Y-95408755D01*
X157684529Y-95421594D01*
X157699288Y-95646765D01*
X157699500Y-95653240D01*
X157699500Y-106646759D01*
X157699288Y-106653234D01*
X157684529Y-106878405D01*
X157682839Y-106891244D01*
X157639449Y-107109382D01*
X157636097Y-107121891D01*
X157564604Y-107332500D01*
X157559648Y-107344463D01*
X157461284Y-107543926D01*
X157454809Y-107555142D01*
X157331242Y-107740072D01*
X157323359Y-107750345D01*
X157176717Y-107917560D01*
X157167560Y-107926717D01*
X157000345Y-108073359D01*
X156990072Y-108081242D01*
X156805142Y-108204809D01*
X156793926Y-108211284D01*
X156594463Y-108309648D01*
X156582500Y-108314604D01*
X156371891Y-108386097D01*
X156359382Y-108389449D01*
X156141244Y-108432839D01*
X156128405Y-108434529D01*
X155903234Y-108449288D01*
X155896759Y-108449500D01*
X138903241Y-108449500D01*
X138896766Y-108449288D01*
X138671594Y-108434529D01*
X138658755Y-108432839D01*
X138440617Y-108389449D01*
X138428108Y-108386097D01*
X138217499Y-108314604D01*
X138205536Y-108309648D01*
X138006073Y-108211284D01*
X137994857Y-108204809D01*
X137809927Y-108081242D01*
X137799654Y-108073359D01*
X137632439Y-107926717D01*
X137623282Y-107917560D01*
X137476640Y-107750345D01*
X137468757Y-107740072D01*
X137345190Y-107555142D01*
X137338715Y-107543926D01*
X137240351Y-107344463D01*
X137235395Y-107332500D01*
X137205079Y-107243192D01*
X137195926Y-107216230D01*
X140249500Y-107216230D01*
X140249500Y-107383769D01*
X140282183Y-107548079D01*
X140282185Y-107548085D01*
X140346296Y-107702862D01*
X140346297Y-107702863D01*
X140439374Y-107842162D01*
X140557838Y-107960626D01*
X140697137Y-108053703D01*
X140851918Y-108117816D01*
X141016233Y-108150500D01*
X141016234Y-108150500D01*
X141183766Y-108150500D01*
X141183767Y-108150500D01*
X141348082Y-108117816D01*
X141502863Y-108053703D01*
X141642162Y-107960626D01*
X141760626Y-107842162D01*
X141853703Y-107702863D01*
X141917816Y-107548082D01*
X141950500Y-107383767D01*
X141950500Y-107216233D01*
X141917816Y-107051918D01*
X141853703Y-106897137D01*
X141760626Y-106757838D01*
X141642162Y-106639374D01*
X141502863Y-106546297D01*
X141502864Y-106546297D01*
X141502862Y-106546296D01*
X141348085Y-106482185D01*
X141348079Y-106482183D01*
X141183769Y-106449500D01*
X141183767Y-106449500D01*
X141016233Y-106449500D01*
X141016230Y-106449500D01*
X140851920Y-106482183D01*
X140851914Y-106482185D01*
X140697137Y-106546296D01*
X140557838Y-106639374D01*
X140557834Y-106639377D01*
X140439377Y-106757834D01*
X140439374Y-106757838D01*
X140346296Y-106897137D01*
X140282185Y-107051914D01*
X140282183Y-107051920D01*
X140249500Y-107216230D01*
X137195926Y-107216230D01*
X137163902Y-107121891D01*
X137160550Y-107109382D01*
X137117159Y-106891237D01*
X137115470Y-106878405D01*
X137100712Y-106653234D01*
X137100500Y-106646759D01*
X137100500Y-98847273D01*
X140099500Y-98847273D01*
X140099500Y-98952727D01*
X140125564Y-99050000D01*
X140126794Y-99054589D01*
X140126794Y-99054590D01*
X140164561Y-99120004D01*
X140179520Y-99145913D01*
X140254087Y-99220480D01*
X140345413Y-99273207D01*
X140447273Y-99300500D01*
X140447275Y-99300500D01*
X140552725Y-99300500D01*
X140552727Y-99300500D01*
X140654587Y-99273207D01*
X140745913Y-99220480D01*
X140820480Y-99145913D01*
X140873207Y-99054587D01*
X140900500Y-98952727D01*
X140900500Y-98847273D01*
X140873207Y-98745413D01*
X140820480Y-98654087D01*
X140745913Y-98579520D01*
X140654587Y-98526793D01*
X140552727Y-98499500D01*
X140447273Y-98499500D01*
X140345413Y-98526793D01*
X140345412Y-98526793D01*
X140345410Y-98526794D01*
X140345409Y-98526794D01*
X140254089Y-98579518D01*
X140179518Y-98654089D01*
X140126794Y-98745409D01*
X140126794Y-98745410D01*
X140126793Y-98745412D01*
X140126793Y-98745413D01*
X140099500Y-98847273D01*
X137100500Y-98847273D01*
X137100500Y-97447273D01*
X139549500Y-97447273D01*
X139549500Y-97552727D01*
X139574834Y-97647274D01*
X139576794Y-97654589D01*
X139576794Y-97654590D01*
X139625874Y-97739598D01*
X139629520Y-97745913D01*
X139704087Y-97820480D01*
X139795413Y-97873207D01*
X139897273Y-97900500D01*
X139897275Y-97900500D01*
X140002725Y-97900500D01*
X140002727Y-97900500D01*
X140104587Y-97873207D01*
X140175501Y-97832264D01*
X140235348Y-97819543D01*
X140274497Y-97832263D01*
X140345413Y-97873207D01*
X140447273Y-97900500D01*
X140447275Y-97900500D01*
X140552725Y-97900500D01*
X140552727Y-97900500D01*
X140654587Y-97873207D01*
X140745913Y-97820480D01*
X140820480Y-97745913D01*
X140873207Y-97654587D01*
X140900500Y-97552727D01*
X140900500Y-97447273D01*
X140873207Y-97345413D01*
X140849429Y-97304229D01*
X140820481Y-97254089D01*
X140820480Y-97254087D01*
X140745913Y-97179520D01*
X140711313Y-97159544D01*
X140654589Y-97126794D01*
X140654588Y-97126793D01*
X140654587Y-97126793D01*
X140552727Y-97099500D01*
X140447273Y-97099500D01*
X140345413Y-97126793D01*
X140274498Y-97167735D01*
X140214651Y-97180456D01*
X140175501Y-97167735D01*
X140104587Y-97126793D01*
X140002727Y-97099500D01*
X139897273Y-97099500D01*
X139795413Y-97126793D01*
X139795412Y-97126793D01*
X139795410Y-97126794D01*
X139795409Y-97126794D01*
X139704089Y-97179518D01*
X139629518Y-97254089D01*
X139576794Y-97345409D01*
X139576794Y-97345410D01*
X139576793Y-97345412D01*
X139576793Y-97345413D01*
X139549500Y-97447273D01*
X137100500Y-97447273D01*
X137100500Y-95653240D01*
X137100712Y-95646765D01*
X137103114Y-95610118D01*
X137115471Y-95421585D01*
X137117158Y-95408764D01*
X137160552Y-95190609D01*
X137163899Y-95178117D01*
X137235397Y-94967493D01*
X137240348Y-94955543D01*
X137338717Y-94756067D01*
X137345186Y-94744862D01*
X137468760Y-94559922D01*
X137476635Y-94549659D01*
X137623291Y-94382429D01*
X137632429Y-94373291D01*
X137799659Y-94226635D01*
X137809922Y-94218760D01*
X137994862Y-94095186D01*
X138006067Y-94088717D01*
X138205543Y-93990348D01*
X138217493Y-93985397D01*
X138428117Y-93913899D01*
X138440609Y-93910552D01*
X138658764Y-93867158D01*
X138671585Y-93865471D01*
X138896766Y-93850712D01*
X138903241Y-93850500D01*
X138939882Y-93850500D01*
X149443986Y-93850500D01*
X149502177Y-93869407D01*
G37*
%TD.AperFunction*%
%TA.AperFunction,Conductor*%
G36*
X152074430Y-98744407D02*
G01*
X152110394Y-98793907D01*
X152111863Y-98798866D01*
X152126793Y-98854587D01*
X152126794Y-98854588D01*
X152126794Y-98854590D01*
X152179518Y-98945910D01*
X152179520Y-98945913D01*
X152213605Y-98979998D01*
X152241381Y-99034513D01*
X152231810Y-99094945D01*
X152213606Y-99120000D01*
X152187697Y-99145910D01*
X152179518Y-99154089D01*
X152126794Y-99245409D01*
X152126794Y-99245410D01*
X152126793Y-99245412D01*
X152126793Y-99245413D01*
X152099500Y-99347273D01*
X152099500Y-99452727D01*
X152126793Y-99554587D01*
X152126794Y-99554589D01*
X152126794Y-99554590D01*
X152159456Y-99611161D01*
X152179520Y-99645913D01*
X152254087Y-99720480D01*
X152345413Y-99773207D01*
X152447273Y-99800500D01*
X152447275Y-99800500D01*
X152552725Y-99800500D01*
X152552727Y-99800500D01*
X152650622Y-99774269D01*
X152711720Y-99777471D01*
X152759270Y-99815976D01*
X152773339Y-99850581D01*
X152783732Y-99902827D01*
X152783734Y-99902833D01*
X152815249Y-99949998D01*
X152828048Y-99969152D01*
X152828051Y-99969154D01*
X152834943Y-99976046D01*
X152833545Y-99977443D01*
X152863733Y-100015739D01*
X152866132Y-100076877D01*
X152834781Y-100123792D01*
X152834943Y-100123954D01*
X152834129Y-100124767D01*
X152832137Y-100127749D01*
X152828520Y-100130376D01*
X152828045Y-100130851D01*
X152783734Y-100197166D01*
X152783732Y-100197172D01*
X152772101Y-100255641D01*
X152772100Y-100255653D01*
X152772100Y-100844346D01*
X152772101Y-100844358D01*
X152783732Y-100902827D01*
X152783734Y-100902833D01*
X152828045Y-100969148D01*
X152828048Y-100969152D01*
X152894369Y-101013467D01*
X152938279Y-101022201D01*
X152988967Y-101049294D01*
X153595504Y-101655831D01*
X153623281Y-101710348D01*
X153624500Y-101725835D01*
X153624500Y-102059895D01*
X153624501Y-102059907D01*
X153631027Y-102109486D01*
X153631027Y-102109488D01*
X153681774Y-102218313D01*
X153681775Y-102218314D01*
X153681776Y-102218316D01*
X153766684Y-102303224D01*
X153867341Y-102350161D01*
X153912087Y-102391887D01*
X153924500Y-102439884D01*
X153924500Y-103825500D01*
X153905593Y-103883691D01*
X153856093Y-103919655D01*
X153825500Y-103924500D01*
X152714811Y-103924500D01*
X152656620Y-103905593D01*
X152620656Y-103856093D01*
X152620656Y-103794907D01*
X152644807Y-103755496D01*
X152650946Y-103749355D01*
X152650953Y-103749351D01*
X152695268Y-103683030D01*
X152706901Y-103624547D01*
X152706901Y-102975451D01*
X152695268Y-102916968D01*
X152650953Y-102850647D01*
X152650949Y-102850644D01*
X152584634Y-102806333D01*
X152584632Y-102806332D01*
X152584629Y-102806331D01*
X152584628Y-102806331D01*
X152526159Y-102794700D01*
X152526149Y-102794699D01*
X151673853Y-102794699D01*
X151673852Y-102794699D01*
X151673842Y-102794700D01*
X151615373Y-102806331D01*
X151615367Y-102806333D01*
X151549052Y-102850644D01*
X151549046Y-102850650D01*
X151504735Y-102916965D01*
X151504733Y-102916971D01*
X151493102Y-102975440D01*
X151493101Y-102975452D01*
X151493101Y-103205564D01*
X151474194Y-103263755D01*
X151464104Y-103275568D01*
X151038093Y-103701578D01*
X150983577Y-103729355D01*
X150923145Y-103719784D01*
X150879880Y-103676519D01*
X150870309Y-103616087D01*
X150878364Y-103589738D01*
X150914068Y-103513173D01*
X150920500Y-103464316D01*
X150920500Y-103115684D01*
X150914068Y-103066827D01*
X150902208Y-103041394D01*
X150864066Y-102959598D01*
X150864065Y-102959597D01*
X150864065Y-102959596D01*
X150780404Y-102875935D01*
X150780402Y-102875934D01*
X150780401Y-102875933D01*
X150673175Y-102825932D01*
X150661861Y-102824442D01*
X150657592Y-102823880D01*
X150602368Y-102797538D01*
X150600513Y-102795732D01*
X149683629Y-101878848D01*
X149655852Y-101824331D01*
X149665423Y-101763899D01*
X149708688Y-101720634D01*
X149761785Y-101711521D01*
X149761866Y-101710288D01*
X149765083Y-101710498D01*
X149765099Y-101710500D01*
X150124900Y-101710499D01*
X150174487Y-101703972D01*
X150174488Y-101703972D01*
X150233137Y-101676622D01*
X150283316Y-101653224D01*
X150368224Y-101568316D01*
X150418972Y-101459487D01*
X150425500Y-101409901D01*
X150425499Y-100990100D01*
X150418972Y-100940513D01*
X150418972Y-100940511D01*
X150368225Y-100831686D01*
X150368224Y-100831685D01*
X150368224Y-100831684D01*
X150306541Y-100770001D01*
X150278766Y-100715487D01*
X150288337Y-100655055D01*
X150306540Y-100629999D01*
X150368224Y-100568316D01*
X150418972Y-100459487D01*
X150425500Y-100409901D01*
X150425499Y-99990100D01*
X150418972Y-99940513D01*
X150418972Y-99940511D01*
X150368225Y-99831686D01*
X150368224Y-99831685D01*
X150368224Y-99831684D01*
X150306541Y-99770001D01*
X150278766Y-99715487D01*
X150288337Y-99655055D01*
X150306540Y-99629999D01*
X150368224Y-99568316D01*
X150418972Y-99459487D01*
X150425500Y-99409901D01*
X150425499Y-99075832D01*
X150444406Y-99017642D01*
X150454489Y-99005836D01*
X150705831Y-98754496D01*
X150760347Y-98726719D01*
X150775834Y-98725500D01*
X152016239Y-98725500D01*
X152074430Y-98744407D01*
G37*
%TD.AperFunction*%
%TA.AperFunction,Conductor*%
G36*
X152747177Y-93869407D02*
G01*
X152783141Y-93918907D01*
X152783141Y-93980093D01*
X152779032Y-93989318D01*
X152779276Y-93989419D01*
X152776794Y-93995410D01*
X152776793Y-93995412D01*
X152776793Y-93995413D01*
X152749500Y-94097273D01*
X152749500Y-94202727D01*
X152753795Y-94218757D01*
X152756100Y-94227359D01*
X152752895Y-94288460D01*
X152730480Y-94322978D01*
X152721778Y-94331680D01*
X152721774Y-94331686D01*
X152671029Y-94440510D01*
X152671028Y-94440511D01*
X152664500Y-94490100D01*
X152664500Y-94909896D01*
X152664501Y-94909907D01*
X152671027Y-94959486D01*
X152671027Y-94959488D01*
X152721774Y-95068313D01*
X152721775Y-95068314D01*
X152721776Y-95068316D01*
X152804305Y-95150845D01*
X152807930Y-95157960D01*
X152814393Y-95162656D01*
X152821556Y-95184704D01*
X152832081Y-95205360D01*
X152833300Y-95220847D01*
X152833300Y-95342956D01*
X152816615Y-95397958D01*
X152783734Y-95447166D01*
X152783732Y-95447172D01*
X152772101Y-95505641D01*
X152772100Y-95505653D01*
X152772100Y-96000500D01*
X152753193Y-96058691D01*
X152703693Y-96094655D01*
X152673100Y-96099500D01*
X151624500Y-96099500D01*
X151566309Y-96080593D01*
X151530345Y-96031093D01*
X151525500Y-96000500D01*
X151525499Y-95590103D01*
X151525498Y-95590092D01*
X151518972Y-95540513D01*
X151518972Y-95540511D01*
X151482190Y-95461635D01*
X151468224Y-95431684D01*
X151468220Y-95431680D01*
X151463403Y-95424799D01*
X151445500Y-95368016D01*
X151445500Y-95131983D01*
X151463405Y-95075197D01*
X151468218Y-95068321D01*
X151468224Y-95068316D01*
X151518972Y-94959487D01*
X151525500Y-94909901D01*
X151525499Y-94490100D01*
X151518972Y-94440513D01*
X151518972Y-94440511D01*
X151468225Y-94331686D01*
X151468224Y-94331685D01*
X151468224Y-94331684D01*
X151467407Y-94330867D01*
X151466754Y-94329585D01*
X151463256Y-94324589D01*
X151463958Y-94324097D01*
X151439632Y-94276353D01*
X151441786Y-94235245D01*
X151450500Y-94202727D01*
X151450500Y-94097273D01*
X151423207Y-93995412D01*
X151423206Y-93995410D01*
X151423205Y-93995406D01*
X151420723Y-93989414D01*
X151423040Y-93988454D01*
X151412556Y-93939166D01*
X151437434Y-93883267D01*
X151490417Y-93852666D01*
X151511015Y-93850500D01*
X152688986Y-93850500D01*
X152747177Y-93869407D01*
G37*
%TD.AperFunction*%
%TD*%
M02*
