%TF.GenerationSoftware,KiCad,Pcbnew,9.0.4*%
%TF.CreationDate,2026-03-23T00:36:48+01:00*%
%TF.ProjectId,mmWave-Shield,6d6d5761-7665-42d5-9368-69656c642e6b,rev?*%
%TF.SameCoordinates,Original*%
%TF.FileFunction,Legend,Top*%
%TF.FilePolarity,Positive*%
%FSLAX46Y46*%
G04 Gerber Fmt 4.6, Leading zero omitted, Abs format (unit mm)*
G04 Created by KiCad (PCBNEW 9.0.4) date 2026-03-23 00:36:48*
%MOMM*%
%LPD*%
G01*
G04 APERTURE LIST*
%ADD10C,0.100000*%
%ADD11C,0.120000*%
%ADD12C,0.200000*%
%ADD13C,0.250000*%
%ADD14C,0.000000*%
%ADD15C,0.152400*%
G04 APERTURE END LIST*
D10*
X155248609Y-100862782D02*
X155296228Y-100719925D01*
X155296228Y-100719925D02*
X155343847Y-100672306D01*
X155343847Y-100672306D02*
X155439085Y-100624687D01*
X155439085Y-100624687D02*
X155581942Y-100624687D01*
X155581942Y-100624687D02*
X155677180Y-100672306D01*
X155677180Y-100672306D02*
X155724800Y-100719925D01*
X155724800Y-100719925D02*
X155772419Y-100815163D01*
X155772419Y-100815163D02*
X155772419Y-101196115D01*
X155772419Y-101196115D02*
X154772419Y-101196115D01*
X154772419Y-101196115D02*
X154772419Y-100862782D01*
X154772419Y-100862782D02*
X154820038Y-100767544D01*
X154820038Y-100767544D02*
X154867657Y-100719925D01*
X154867657Y-100719925D02*
X154962895Y-100672306D01*
X154962895Y-100672306D02*
X155058133Y-100672306D01*
X155058133Y-100672306D02*
X155153371Y-100719925D01*
X155153371Y-100719925D02*
X155200990Y-100767544D01*
X155200990Y-100767544D02*
X155248609Y-100862782D01*
X155248609Y-100862782D02*
X155248609Y-101196115D01*
X155772419Y-100196115D02*
X155105752Y-100196115D01*
X154772419Y-100196115D02*
X154820038Y-100243734D01*
X154820038Y-100243734D02*
X154867657Y-100196115D01*
X154867657Y-100196115D02*
X154820038Y-100148496D01*
X154820038Y-100148496D02*
X154772419Y-100196115D01*
X154772419Y-100196115D02*
X154867657Y-100196115D01*
X155772419Y-99577068D02*
X155724800Y-99672306D01*
X155724800Y-99672306D02*
X155677180Y-99719925D01*
X155677180Y-99719925D02*
X155581942Y-99767544D01*
X155581942Y-99767544D02*
X155296228Y-99767544D01*
X155296228Y-99767544D02*
X155200990Y-99719925D01*
X155200990Y-99719925D02*
X155153371Y-99672306D01*
X155153371Y-99672306D02*
X155105752Y-99577068D01*
X155105752Y-99577068D02*
X155105752Y-99434211D01*
X155105752Y-99434211D02*
X155153371Y-99338973D01*
X155153371Y-99338973D02*
X155200990Y-99291354D01*
X155200990Y-99291354D02*
X155296228Y-99243735D01*
X155296228Y-99243735D02*
X155581942Y-99243735D01*
X155581942Y-99243735D02*
X155677180Y-99291354D01*
X155677180Y-99291354D02*
X155724800Y-99338973D01*
X155724800Y-99338973D02*
X155772419Y-99434211D01*
X155772419Y-99434211D02*
X155772419Y-99577068D01*
X154820038Y-98291354D02*
X154772419Y-98386592D01*
X154772419Y-98386592D02*
X154772419Y-98529449D01*
X154772419Y-98529449D02*
X154820038Y-98672306D01*
X154820038Y-98672306D02*
X154915276Y-98767544D01*
X154915276Y-98767544D02*
X155010514Y-98815163D01*
X155010514Y-98815163D02*
X155200990Y-98862782D01*
X155200990Y-98862782D02*
X155343847Y-98862782D01*
X155343847Y-98862782D02*
X155534323Y-98815163D01*
X155534323Y-98815163D02*
X155629561Y-98767544D01*
X155629561Y-98767544D02*
X155724800Y-98672306D01*
X155724800Y-98672306D02*
X155772419Y-98529449D01*
X155772419Y-98529449D02*
X155772419Y-98434211D01*
X155772419Y-98434211D02*
X155724800Y-98291354D01*
X155724800Y-98291354D02*
X155677180Y-98243735D01*
X155677180Y-98243735D02*
X155343847Y-98243735D01*
X155343847Y-98243735D02*
X155343847Y-98434211D01*
X155486704Y-97862782D02*
X155486704Y-97386592D01*
X155772419Y-97958020D02*
X154772419Y-97624687D01*
X154772419Y-97624687D02*
X155772419Y-97291354D01*
X155772419Y-96958020D02*
X154772419Y-96958020D01*
X154772419Y-96958020D02*
X154772419Y-96577068D01*
X154772419Y-96577068D02*
X154820038Y-96481830D01*
X154820038Y-96481830D02*
X154867657Y-96434211D01*
X154867657Y-96434211D02*
X154962895Y-96386592D01*
X154962895Y-96386592D02*
X155105752Y-96386592D01*
X155105752Y-96386592D02*
X155200990Y-96434211D01*
X155200990Y-96434211D02*
X155248609Y-96481830D01*
X155248609Y-96481830D02*
X155296228Y-96577068D01*
X155296228Y-96577068D02*
X155296228Y-96958020D01*
X157072419Y-106196115D02*
X156405752Y-106196115D01*
X156500990Y-106196115D02*
X156453371Y-106148496D01*
X156453371Y-106148496D02*
X156405752Y-106053258D01*
X156405752Y-106053258D02*
X156405752Y-105910401D01*
X156405752Y-105910401D02*
X156453371Y-105815163D01*
X156453371Y-105815163D02*
X156548609Y-105767544D01*
X156548609Y-105767544D02*
X157072419Y-105767544D01*
X156548609Y-105767544D02*
X156453371Y-105719925D01*
X156453371Y-105719925D02*
X156405752Y-105624687D01*
X156405752Y-105624687D02*
X156405752Y-105481830D01*
X156405752Y-105481830D02*
X156453371Y-105386591D01*
X156453371Y-105386591D02*
X156548609Y-105338972D01*
X156548609Y-105338972D02*
X157072419Y-105338972D01*
X157072419Y-104862782D02*
X156405752Y-104862782D01*
X156500990Y-104862782D02*
X156453371Y-104815163D01*
X156453371Y-104815163D02*
X156405752Y-104719925D01*
X156405752Y-104719925D02*
X156405752Y-104577068D01*
X156405752Y-104577068D02*
X156453371Y-104481830D01*
X156453371Y-104481830D02*
X156548609Y-104434211D01*
X156548609Y-104434211D02*
X157072419Y-104434211D01*
X156548609Y-104434211D02*
X156453371Y-104386592D01*
X156453371Y-104386592D02*
X156405752Y-104291354D01*
X156405752Y-104291354D02*
X156405752Y-104148497D01*
X156405752Y-104148497D02*
X156453371Y-104053258D01*
X156453371Y-104053258D02*
X156548609Y-104005639D01*
X156548609Y-104005639D02*
X157072419Y-104005639D01*
X156072419Y-103624687D02*
X157072419Y-103386592D01*
X157072419Y-103386592D02*
X156358133Y-103196116D01*
X156358133Y-103196116D02*
X157072419Y-103005640D01*
X157072419Y-103005640D02*
X156072419Y-102767545D01*
X157072419Y-101958021D02*
X156548609Y-101958021D01*
X156548609Y-101958021D02*
X156453371Y-102005640D01*
X156453371Y-102005640D02*
X156405752Y-102100878D01*
X156405752Y-102100878D02*
X156405752Y-102291354D01*
X156405752Y-102291354D02*
X156453371Y-102386592D01*
X157024800Y-101958021D02*
X157072419Y-102053259D01*
X157072419Y-102053259D02*
X157072419Y-102291354D01*
X157072419Y-102291354D02*
X157024800Y-102386592D01*
X157024800Y-102386592D02*
X156929561Y-102434211D01*
X156929561Y-102434211D02*
X156834323Y-102434211D01*
X156834323Y-102434211D02*
X156739085Y-102386592D01*
X156739085Y-102386592D02*
X156691466Y-102291354D01*
X156691466Y-102291354D02*
X156691466Y-102053259D01*
X156691466Y-102053259D02*
X156643847Y-101958021D01*
X156405752Y-101577068D02*
X157072419Y-101338973D01*
X157072419Y-101338973D02*
X156405752Y-101100878D01*
X157024800Y-100338973D02*
X157072419Y-100434211D01*
X157072419Y-100434211D02*
X157072419Y-100624687D01*
X157072419Y-100624687D02*
X157024800Y-100719925D01*
X157024800Y-100719925D02*
X156929561Y-100767544D01*
X156929561Y-100767544D02*
X156548609Y-100767544D01*
X156548609Y-100767544D02*
X156453371Y-100719925D01*
X156453371Y-100719925D02*
X156405752Y-100624687D01*
X156405752Y-100624687D02*
X156405752Y-100434211D01*
X156405752Y-100434211D02*
X156453371Y-100338973D01*
X156453371Y-100338973D02*
X156548609Y-100291354D01*
X156548609Y-100291354D02*
X156643847Y-100291354D01*
X156643847Y-100291354D02*
X156739085Y-100767544D01*
X157024800Y-99148496D02*
X157072419Y-99053258D01*
X157072419Y-99053258D02*
X157072419Y-98862782D01*
X157072419Y-98862782D02*
X157024800Y-98767544D01*
X157024800Y-98767544D02*
X156929561Y-98719925D01*
X156929561Y-98719925D02*
X156881942Y-98719925D01*
X156881942Y-98719925D02*
X156786704Y-98767544D01*
X156786704Y-98767544D02*
X156739085Y-98862782D01*
X156739085Y-98862782D02*
X156739085Y-99005639D01*
X156739085Y-99005639D02*
X156691466Y-99100877D01*
X156691466Y-99100877D02*
X156596228Y-99148496D01*
X156596228Y-99148496D02*
X156548609Y-99148496D01*
X156548609Y-99148496D02*
X156453371Y-99100877D01*
X156453371Y-99100877D02*
X156405752Y-99005639D01*
X156405752Y-99005639D02*
X156405752Y-98862782D01*
X156405752Y-98862782D02*
X156453371Y-98767544D01*
X157072419Y-98291353D02*
X156072419Y-98291353D01*
X157072419Y-97862782D02*
X156548609Y-97862782D01*
X156548609Y-97862782D02*
X156453371Y-97910401D01*
X156453371Y-97910401D02*
X156405752Y-98005639D01*
X156405752Y-98005639D02*
X156405752Y-98148496D01*
X156405752Y-98148496D02*
X156453371Y-98243734D01*
X156453371Y-98243734D02*
X156500990Y-98291353D01*
X157072419Y-97386591D02*
X156405752Y-97386591D01*
X156072419Y-97386591D02*
X156120038Y-97434210D01*
X156120038Y-97434210D02*
X156167657Y-97386591D01*
X156167657Y-97386591D02*
X156120038Y-97338972D01*
X156120038Y-97338972D02*
X156072419Y-97386591D01*
X156072419Y-97386591D02*
X156167657Y-97386591D01*
X157024800Y-96529449D02*
X157072419Y-96624687D01*
X157072419Y-96624687D02*
X157072419Y-96815163D01*
X157072419Y-96815163D02*
X157024800Y-96910401D01*
X157024800Y-96910401D02*
X156929561Y-96958020D01*
X156929561Y-96958020D02*
X156548609Y-96958020D01*
X156548609Y-96958020D02*
X156453371Y-96910401D01*
X156453371Y-96910401D02*
X156405752Y-96815163D01*
X156405752Y-96815163D02*
X156405752Y-96624687D01*
X156405752Y-96624687D02*
X156453371Y-96529449D01*
X156453371Y-96529449D02*
X156548609Y-96481830D01*
X156548609Y-96481830D02*
X156643847Y-96481830D01*
X156643847Y-96481830D02*
X156739085Y-96958020D01*
X157072419Y-95910401D02*
X157024800Y-96005639D01*
X157024800Y-96005639D02*
X156929561Y-96053258D01*
X156929561Y-96053258D02*
X156072419Y-96053258D01*
X157072419Y-95100877D02*
X156072419Y-95100877D01*
X157024800Y-95100877D02*
X157072419Y-95196115D01*
X157072419Y-95196115D02*
X157072419Y-95386591D01*
X157072419Y-95386591D02*
X157024800Y-95481829D01*
X157024800Y-95481829D02*
X156977180Y-95529448D01*
X156977180Y-95529448D02*
X156881942Y-95577067D01*
X156881942Y-95577067D02*
X156596228Y-95577067D01*
X156596228Y-95577067D02*
X156500990Y-95529448D01*
X156500990Y-95529448D02*
X156453371Y-95481829D01*
X156453371Y-95481829D02*
X156405752Y-95386591D01*
X156405752Y-95386591D02*
X156405752Y-95196115D01*
X156405752Y-95196115D02*
X156453371Y-95100877D01*
X150437217Y-107048609D02*
X150580074Y-107096228D01*
X150580074Y-107096228D02*
X150627693Y-107143847D01*
X150627693Y-107143847D02*
X150675312Y-107239085D01*
X150675312Y-107239085D02*
X150675312Y-107381942D01*
X150675312Y-107381942D02*
X150627693Y-107477180D01*
X150627693Y-107477180D02*
X150580074Y-107524800D01*
X150580074Y-107524800D02*
X150484836Y-107572419D01*
X150484836Y-107572419D02*
X150103884Y-107572419D01*
X150103884Y-107572419D02*
X150103884Y-106572419D01*
X150103884Y-106572419D02*
X150437217Y-106572419D01*
X150437217Y-106572419D02*
X150532455Y-106620038D01*
X150532455Y-106620038D02*
X150580074Y-106667657D01*
X150580074Y-106667657D02*
X150627693Y-106762895D01*
X150627693Y-106762895D02*
X150627693Y-106858133D01*
X150627693Y-106858133D02*
X150580074Y-106953371D01*
X150580074Y-106953371D02*
X150532455Y-107000990D01*
X150532455Y-107000990D02*
X150437217Y-107048609D01*
X150437217Y-107048609D02*
X150103884Y-107048609D01*
X151103884Y-107477180D02*
X151151503Y-107524800D01*
X151151503Y-107524800D02*
X151103884Y-107572419D01*
X151103884Y-107572419D02*
X151056265Y-107524800D01*
X151056265Y-107524800D02*
X151103884Y-107477180D01*
X151103884Y-107477180D02*
X151103884Y-107572419D01*
X152056264Y-107572419D02*
X151580074Y-107572419D01*
X151580074Y-107572419D02*
X151580074Y-106572419D01*
X152532455Y-107572419D02*
X152437217Y-107524800D01*
X152437217Y-107524800D02*
X152389598Y-107477180D01*
X152389598Y-107477180D02*
X152341979Y-107381942D01*
X152341979Y-107381942D02*
X152341979Y-107096228D01*
X152341979Y-107096228D02*
X152389598Y-107000990D01*
X152389598Y-107000990D02*
X152437217Y-106953371D01*
X152437217Y-106953371D02*
X152532455Y-106905752D01*
X152532455Y-106905752D02*
X152675312Y-106905752D01*
X152675312Y-106905752D02*
X152770550Y-106953371D01*
X152770550Y-106953371D02*
X152818169Y-107000990D01*
X152818169Y-107000990D02*
X152865788Y-107096228D01*
X152865788Y-107096228D02*
X152865788Y-107381942D01*
X152865788Y-107381942D02*
X152818169Y-107477180D01*
X152818169Y-107477180D02*
X152770550Y-107524800D01*
X152770550Y-107524800D02*
X152675312Y-107572419D01*
X152675312Y-107572419D02*
X152532455Y-107572419D01*
X152437217Y-106572419D02*
X152484836Y-106620038D01*
X152484836Y-106620038D02*
X152437217Y-106667657D01*
X152437217Y-106667657D02*
X152389598Y-106620038D01*
X152389598Y-106620038D02*
X152437217Y-106572419D01*
X152437217Y-106572419D02*
X152437217Y-106667657D01*
X152818169Y-106572419D02*
X152865788Y-106620038D01*
X152865788Y-106620038D02*
X152818169Y-106667657D01*
X152818169Y-106667657D02*
X152770550Y-106620038D01*
X152770550Y-106620038D02*
X152818169Y-106572419D01*
X152818169Y-106572419D02*
X152818169Y-106667657D01*
X153437217Y-107572419D02*
X153341979Y-107524800D01*
X153341979Y-107524800D02*
X153294360Y-107429561D01*
X153294360Y-107429561D02*
X153294360Y-106572419D01*
X153818170Y-107572419D02*
X153818170Y-106905752D01*
X153818170Y-106572419D02*
X153770551Y-106620038D01*
X153770551Y-106620038D02*
X153818170Y-106667657D01*
X153818170Y-106667657D02*
X153865789Y-106620038D01*
X153865789Y-106620038D02*
X153818170Y-106572419D01*
X153818170Y-106572419D02*
X153818170Y-106667657D01*
X154722931Y-106905752D02*
X154722931Y-107715276D01*
X154722931Y-107715276D02*
X154675312Y-107810514D01*
X154675312Y-107810514D02*
X154627693Y-107858133D01*
X154627693Y-107858133D02*
X154532455Y-107905752D01*
X154532455Y-107905752D02*
X154389598Y-107905752D01*
X154389598Y-107905752D02*
X154294360Y-107858133D01*
X154722931Y-107524800D02*
X154627693Y-107572419D01*
X154627693Y-107572419D02*
X154437217Y-107572419D01*
X154437217Y-107572419D02*
X154341979Y-107524800D01*
X154341979Y-107524800D02*
X154294360Y-107477180D01*
X154294360Y-107477180D02*
X154246741Y-107381942D01*
X154246741Y-107381942D02*
X154246741Y-107096228D01*
X154246741Y-107096228D02*
X154294360Y-107000990D01*
X154294360Y-107000990D02*
X154341979Y-106953371D01*
X154341979Y-106953371D02*
X154437217Y-106905752D01*
X154437217Y-106905752D02*
X154627693Y-106905752D01*
X154627693Y-106905752D02*
X154722931Y-106953371D01*
X155580074Y-107524800D02*
X155484836Y-107572419D01*
X155484836Y-107572419D02*
X155294360Y-107572419D01*
X155294360Y-107572419D02*
X155199122Y-107524800D01*
X155199122Y-107524800D02*
X155151503Y-107429561D01*
X155151503Y-107429561D02*
X155151503Y-107048609D01*
X155151503Y-107048609D02*
X155199122Y-106953371D01*
X155199122Y-106953371D02*
X155294360Y-106905752D01*
X155294360Y-106905752D02*
X155484836Y-106905752D01*
X155484836Y-106905752D02*
X155580074Y-106953371D01*
X155580074Y-106953371D02*
X155627693Y-107048609D01*
X155627693Y-107048609D02*
X155627693Y-107143847D01*
X155627693Y-107143847D02*
X155151503Y-107239085D01*
X156056265Y-107572419D02*
X156056265Y-106905752D01*
X156056265Y-107096228D02*
X156103884Y-107000990D01*
X156103884Y-107000990D02*
X156151503Y-106953371D01*
X156151503Y-106953371D02*
X156246741Y-106905752D01*
X156246741Y-106905752D02*
X156341979Y-106905752D01*
D11*
%TO.C,R1*%
X150020000Y-103953641D02*
X150020000Y-103646359D01*
X150780000Y-103953641D02*
X150780000Y-103646359D01*
%TO.C,C14*%
X153732836Y-94340000D02*
X153517164Y-94340000D01*
X153732836Y-95060000D02*
X153517164Y-95060000D01*
%TO.C,C5*%
X146740000Y-103692164D02*
X146740000Y-103907836D01*
X147460000Y-103692164D02*
X147460000Y-103907836D01*
%TO.C,C2*%
X150317164Y-98840000D02*
X150532836Y-98840000D01*
X150317164Y-99560000D02*
X150532836Y-99560000D01*
%TO.C,C13*%
X151632836Y-94340000D02*
X151417164Y-94340000D01*
X151632836Y-95060000D02*
X151417164Y-95060000D01*
D12*
%TO.C,U$1*%
X142100000Y-102200000D02*
X142100000Y-97000000D01*
X148800000Y-97000000D02*
X142100000Y-97000000D01*
X148800000Y-102200000D02*
X142100000Y-102200000D01*
X148800000Y-102200000D02*
X148800000Y-97000000D01*
D13*
X142975000Y-102850000D02*
G75*
G02*
X142725000Y-102850000I-125000J0D01*
G01*
X142725000Y-102850000D02*
G75*
G02*
X142975000Y-102850000I125000J0D01*
G01*
D11*
%TO.C,C8*%
X148940000Y-103692164D02*
X148940000Y-103907836D01*
X149660000Y-103692164D02*
X149660000Y-103907836D01*
%TO.C,C9*%
X145840000Y-95407836D02*
X145840000Y-95192164D01*
X146560000Y-95407836D02*
X146560000Y-95192164D01*
%TO.C,TP1*%
X150380000Y-97100000D02*
G75*
G02*
X149620000Y-97100000I-380000J0D01*
G01*
X149620000Y-97100000D02*
G75*
G02*
X150380000Y-97100000I380000J0D01*
G01*
%TO.C,C16*%
X149792164Y-105140000D02*
X150007836Y-105140000D01*
X149792164Y-105860000D02*
X150007836Y-105860000D01*
%TO.C,C4*%
X150317164Y-99840000D02*
X150532836Y-99840000D01*
X150317164Y-100560000D02*
X150532836Y-100560000D01*
%TO.C,C12*%
X151632836Y-95440000D02*
X151417164Y-95440000D01*
X151632836Y-96160000D02*
X151417164Y-96160000D01*
%TO.C,C10*%
X146940000Y-95407836D02*
X146940000Y-95192164D01*
X147660000Y-95407836D02*
X147660000Y-95192164D01*
D14*
%TO.C,REF\u002A\u002A*%
G36*
X137309774Y-99757716D02*
G01*
X137393645Y-99770298D01*
X137443943Y-99785374D01*
X137469240Y-99810133D01*
X137478107Y-99851763D01*
X137479132Y-99899764D01*
X137475357Y-99966363D01*
X137462639Y-99998160D01*
X137448372Y-100003506D01*
X137410749Y-99999251D01*
X137349071Y-99988406D01*
X137310559Y-99980547D01*
X137203506Y-99957588D01*
X137203506Y-99850604D01*
X137203506Y-99743619D01*
X137309774Y-99757716D01*
G37*
G36*
X137293614Y-97270873D02*
G01*
X137381624Y-97289488D01*
X137436359Y-97303941D01*
X137465662Y-97320423D01*
X137477380Y-97345123D01*
X137479358Y-97384234D01*
X137479132Y-97417266D01*
X137475481Y-97484515D01*
X137463146Y-97517001D01*
X137448372Y-97522872D01*
X137410749Y-97518617D01*
X137349071Y-97507772D01*
X137310559Y-97499913D01*
X137203506Y-97476954D01*
X137203506Y-97364353D01*
X137203506Y-97251753D01*
X137293614Y-97270873D01*
G37*
G36*
X137251210Y-99208118D02*
G01*
X137303526Y-99219529D01*
X137371117Y-99233385D01*
X137383723Y-99235880D01*
X137468531Y-99252547D01*
X137474939Y-99363001D01*
X137475289Y-99424818D01*
X137469302Y-99464903D01*
X137462574Y-99473456D01*
X137432884Y-99469545D01*
X137375763Y-99459443D01*
X137323653Y-99449327D01*
X137203506Y-99425198D01*
X137203506Y-99311110D01*
X137204808Y-99245681D01*
X137211607Y-99213266D01*
X137228246Y-99204494D01*
X137251210Y-99208118D01*
G37*
G36*
X138528631Y-97518550D02*
G01*
X139217696Y-97656326D01*
X139217696Y-97770220D01*
X139216398Y-97835566D01*
X139209602Y-97867877D01*
X139192956Y-97876506D01*
X139169992Y-97872731D01*
X139139185Y-97866147D01*
X139074305Y-97852809D01*
X138981431Y-97833935D01*
X138866645Y-97810742D01*
X138736027Y-97784447D01*
X138595657Y-97756267D01*
X138451617Y-97727420D01*
X138309985Y-97699122D01*
X138176844Y-97672590D01*
X138058274Y-97649042D01*
X137960354Y-97629696D01*
X137889166Y-97615767D01*
X137850790Y-97608473D01*
X137845867Y-97607680D01*
X137842374Y-97588524D01*
X137840086Y-97539237D01*
X137839566Y-97494227D01*
X137839566Y-97380775D01*
X138528631Y-97518550D01*
G37*
G36*
X137961830Y-97899936D02*
G01*
X138004638Y-97933415D01*
X138040431Y-97967546D01*
X138123179Y-98052288D01*
X138078353Y-98100309D01*
X138029127Y-98181591D01*
X138017645Y-98275127D01*
X138043415Y-98374843D01*
X138105942Y-98474665D01*
X138109080Y-98478430D01*
X138146126Y-98517213D01*
X138189756Y-98550243D01*
X138245519Y-98579483D01*
X138318963Y-98606893D01*
X138415640Y-98634436D01*
X138541096Y-98664073D01*
X138700883Y-98697765D01*
X138767572Y-98711204D01*
X139217696Y-98801150D01*
X139217696Y-98915086D01*
X139216399Y-98980448D01*
X139209608Y-99012773D01*
X139192972Y-99021414D01*
X139169992Y-99017639D01*
X139139185Y-99011055D01*
X139074305Y-98997717D01*
X138981431Y-98978843D01*
X138866645Y-98955650D01*
X138736027Y-98929355D01*
X138595657Y-98901175D01*
X138451617Y-98872328D01*
X138309985Y-98844030D01*
X138176844Y-98817498D01*
X138058274Y-98793951D01*
X137960354Y-98774604D01*
X137889166Y-98760675D01*
X137850790Y-98753381D01*
X137845867Y-98752588D01*
X137842271Y-98733503D01*
X137839990Y-98684711D01*
X137839566Y-98646578D01*
X137841798Y-98582993D01*
X137851275Y-98551280D01*
X137872162Y-98541021D01*
X137881970Y-98540568D01*
X137916446Y-98538337D01*
X137924285Y-98535267D01*
X137915480Y-98515096D01*
X137892874Y-98468676D01*
X137871280Y-98425664D01*
X137826757Y-98296081D01*
X137818554Y-98161663D01*
X137846779Y-98033461D01*
X137867009Y-97988803D01*
X137899376Y-97933791D01*
X137927017Y-97897276D01*
X137936669Y-97889809D01*
X137961830Y-97899936D01*
G37*
G36*
X138047713Y-96095649D02*
G01*
X138089449Y-96130372D01*
X138129664Y-96172078D01*
X138154798Y-96207540D01*
X138157596Y-96217310D01*
X138144720Y-96242423D01*
X138112270Y-96285506D01*
X138095036Y-96305805D01*
X138037208Y-96399580D01*
X138017313Y-96500454D01*
X138032737Y-96603126D01*
X138080862Y-96702293D01*
X138159073Y-96792653D01*
X138264754Y-96868905D01*
X138395288Y-96925746D01*
X138401954Y-96927839D01*
X138571283Y-96971412D01*
X138711096Y-96987626D01*
X138824469Y-96976247D01*
X138914476Y-96937045D01*
X138972336Y-96884772D01*
X139026475Y-96790354D01*
X139041450Y-96686409D01*
X139017717Y-96578515D01*
X138955735Y-96472253D01*
X138936655Y-96449242D01*
X138872123Y-96375744D01*
X138944200Y-96314110D01*
X138993872Y-96276286D01*
X139033587Y-96254024D01*
X139043247Y-96251613D01*
X139070347Y-96268611D01*
X139107717Y-96313742D01*
X139148549Y-96376324D01*
X139186039Y-96445677D01*
X139213382Y-96511118D01*
X139217843Y-96525646D01*
X139240089Y-96669149D01*
X139231289Y-96814615D01*
X139192720Y-96946952D01*
X139179864Y-96973771D01*
X139133225Y-97049885D01*
X139079478Y-97102537D01*
X139007827Y-97145808D01*
X138937996Y-97178304D01*
X138873561Y-97196293D01*
X138796452Y-97203634D01*
X138732929Y-97204528D01*
X138524566Y-97188764D01*
X138335533Y-97143597D01*
X138169842Y-97070960D01*
X138031507Y-96972785D01*
X137924540Y-96851003D01*
X137893826Y-96800549D01*
X137850474Y-96691241D01*
X137824815Y-96564007D01*
X137818690Y-96435554D01*
X137833937Y-96322588D01*
X137839208Y-96304840D01*
X137867308Y-96243991D01*
X137908902Y-96180296D01*
X137955098Y-96124881D01*
X137997004Y-96088870D01*
X138018013Y-96081135D01*
X138047713Y-96095649D01*
G37*
G36*
X137927286Y-100544649D02*
G01*
X137955749Y-100552007D01*
X137988324Y-100566694D01*
X138028776Y-100591652D01*
X138080872Y-100629825D01*
X138148380Y-100684153D01*
X138235065Y-100757578D01*
X138344695Y-100853045D01*
X138481036Y-100973493D01*
X138515642Y-101004216D01*
X139016277Y-101448963D01*
X139022096Y-101096005D01*
X139024573Y-100965962D01*
X139027519Y-100872606D01*
X139031641Y-100810220D01*
X139037646Y-100773088D01*
X139046240Y-100755494D01*
X139058130Y-100751721D01*
X139064500Y-100752942D01*
X139113001Y-100765071D01*
X139159391Y-100775812D01*
X139217696Y-100788788D01*
X139217696Y-101286101D01*
X139217696Y-101783414D01*
X139148790Y-101771152D01*
X139119346Y-101764690D01*
X139089827Y-101754279D01*
X139056486Y-101737018D01*
X139015579Y-101710006D01*
X138963361Y-101670342D01*
X138896086Y-101615124D01*
X138810009Y-101541451D01*
X138701384Y-101446423D01*
X138566467Y-101327137D01*
X138503642Y-101271398D01*
X138387408Y-101168580D01*
X138281504Y-101075598D01*
X138190046Y-100996011D01*
X138117153Y-100933377D01*
X138066940Y-100891256D01*
X138043527Y-100873207D01*
X138042499Y-100872788D01*
X138038283Y-100892768D01*
X138034705Y-100947822D01*
X138032044Y-101030620D01*
X138030580Y-101133835D01*
X138030384Y-101190818D01*
X138030203Y-101312899D01*
X138029028Y-101398891D01*
X138025910Y-101455109D01*
X138019902Y-101487867D01*
X138010056Y-101503482D01*
X137995423Y-101508266D01*
X137982679Y-101508559D01*
X137921277Y-101502540D01*
X137887270Y-101495485D01*
X137871877Y-101490486D01*
X137860212Y-101481298D01*
X137851758Y-101462616D01*
X137846000Y-101429138D01*
X137842418Y-101375559D01*
X137840497Y-101296578D01*
X137839719Y-101186890D01*
X137839567Y-101041193D01*
X137839566Y-101006265D01*
X137839566Y-100529829D01*
X137927286Y-100544649D01*
G37*
G36*
X137867891Y-99180619D02*
G01*
X137925401Y-99191780D01*
X138012316Y-99208895D01*
X138122556Y-99230745D01*
X138250039Y-99256115D01*
X138388686Y-99283786D01*
X138532417Y-99312542D01*
X138675150Y-99341165D01*
X138810804Y-99368439D01*
X138933301Y-99393146D01*
X139036558Y-99414069D01*
X139114495Y-99429991D01*
X139161033Y-99439694D01*
X139169992Y-99441680D01*
X139198802Y-99454084D01*
X139213021Y-99481248D01*
X139217516Y-99535108D01*
X139217696Y-99558668D01*
X139215424Y-99622146D01*
X139205843Y-99653745D01*
X139184809Y-99663869D01*
X139175632Y-99664274D01*
X139151472Y-99666334D01*
X139145768Y-99679070D01*
X139159072Y-99712319D01*
X139180677Y-99754383D01*
X139218149Y-99857833D01*
X139235726Y-99976986D01*
X139232858Y-100096110D01*
X139208999Y-100199474D01*
X139197114Y-100226127D01*
X139140731Y-100310062D01*
X139067705Y-100367383D01*
X138966102Y-100407134D01*
X138953814Y-100410517D01*
X138916324Y-100418985D01*
X138877368Y-100423011D01*
X138830079Y-100421858D01*
X138767593Y-100414791D01*
X138683046Y-100401073D01*
X138569571Y-100379966D01*
X138448401Y-100356289D01*
X138314790Y-100329836D01*
X138188623Y-100304722D01*
X138078445Y-100282658D01*
X137992799Y-100265354D01*
X137940275Y-100254533D01*
X137839566Y-100233214D01*
X137839566Y-100121350D01*
X137839566Y-100009486D01*
X138299529Y-100101905D01*
X138437882Y-100129093D01*
X138565951Y-100153116D01*
X138676601Y-100172726D01*
X138762698Y-100186676D01*
X138817109Y-100193719D01*
X138827953Y-100194324D01*
X138906072Y-100175144D01*
X138976343Y-100125042D01*
X139025697Y-100055182D01*
X139038858Y-100014211D01*
X139037854Y-99911572D01*
X139001504Y-99808158D01*
X138935477Y-99713967D01*
X138845440Y-99638995D01*
X138817073Y-99623000D01*
X138773406Y-99607117D01*
X138695518Y-99585248D01*
X138590864Y-99559221D01*
X138466899Y-99530865D01*
X138331079Y-99502009D01*
X138289690Y-99493638D01*
X137839566Y-99403691D01*
X137839566Y-99290160D01*
X137840629Y-99227245D01*
X137843365Y-99186018D01*
X137845867Y-99176628D01*
X137867891Y-99180619D01*
G37*
G36*
X138241644Y-94769839D02*
G01*
X138327566Y-94780927D01*
X138439316Y-94798147D01*
X138569047Y-94820263D01*
X138708913Y-94846044D01*
X138756553Y-94855263D01*
X139217696Y-94945605D01*
X139217696Y-95057527D01*
X139214978Y-95119905D01*
X139207993Y-95160504D01*
X139201795Y-95169380D01*
X139177272Y-95165396D01*
X139117264Y-95154266D01*
X139027862Y-95137162D01*
X138915162Y-95115255D01*
X138785256Y-95089718D01*
X138712025Y-95075214D01*
X138556078Y-95044613D01*
X138435756Y-95022107D01*
X138345209Y-95006965D01*
X138278586Y-94998456D01*
X138230037Y-94995850D01*
X138193711Y-94998415D01*
X138163758Y-95005422D01*
X138160773Y-95006377D01*
X138085898Y-95049728D01*
X138039003Y-95116481D01*
X138019171Y-95199001D01*
X138025486Y-95289656D01*
X138057032Y-95380812D01*
X138112892Y-95464836D01*
X138192149Y-95534094D01*
X138226526Y-95554093D01*
X138279042Y-95574052D01*
X138367057Y-95599344D01*
X138484233Y-95628387D01*
X138624234Y-95659599D01*
X138761853Y-95687716D01*
X139207095Y-95775090D01*
X139213504Y-95885708D01*
X139214153Y-95955463D01*
X139204963Y-95989688D01*
X139192302Y-95995712D01*
X139166485Y-95991505D01*
X139103326Y-95979695D01*
X139007040Y-95961111D01*
X138881843Y-95936583D01*
X138731949Y-95906941D01*
X138561573Y-95873014D01*
X138374932Y-95835632D01*
X138189399Y-95798281D01*
X137214107Y-95601466D01*
X137207698Y-95491468D01*
X137207395Y-95429799D01*
X137213512Y-95389885D01*
X137220292Y-95381469D01*
X137246758Y-95385487D01*
X137307022Y-95396554D01*
X137393347Y-95413193D01*
X137497993Y-95433925D01*
X137553339Y-95445075D01*
X137664987Y-95467331D01*
X137762955Y-95486189D01*
X137839225Y-95500157D01*
X137885783Y-95507744D01*
X137895164Y-95508681D01*
X137906703Y-95496661D01*
X137892213Y-95457941D01*
X137877595Y-95431821D01*
X137847895Y-95362699D01*
X137830437Y-95271809D01*
X137824284Y-95193298D01*
X137821888Y-95104023D01*
X137826985Y-95041996D01*
X137842062Y-94992356D01*
X137865479Y-94947260D01*
X137942128Y-94856013D01*
X138044830Y-94794444D01*
X138165501Y-94767072D01*
X138189399Y-94766115D01*
X138241644Y-94769839D01*
G37*
G36*
X137268413Y-101894249D02*
G01*
X137333482Y-101905948D01*
X137431538Y-101924468D01*
X137558299Y-101948973D01*
X137709486Y-101978632D01*
X137880819Y-102012610D01*
X138068017Y-102050074D01*
X138247700Y-102086322D01*
X139217687Y-102282721D01*
X139217692Y-102606052D01*
X139217260Y-102717707D01*
X139216066Y-102812671D01*
X139214267Y-102883674D01*
X139212021Y-102923448D01*
X139210685Y-102929383D01*
X139188664Y-102925394D01*
X139131868Y-102914324D01*
X139047079Y-102897517D01*
X138941082Y-102876317D01*
X138836060Y-102855175D01*
X138717050Y-102831228D01*
X138613301Y-102810496D01*
X138531598Y-102794324D01*
X138478724Y-102784055D01*
X138461435Y-102780968D01*
X138458483Y-102800669D01*
X138456144Y-102853766D01*
X138454719Y-102931253D01*
X138454424Y-102991560D01*
X138455337Y-103089364D01*
X138458957Y-103152688D01*
X138466610Y-103189433D01*
X138479619Y-103207499D01*
X138491528Y-103212954D01*
X138524135Y-103220552D01*
X138590500Y-103234633D01*
X138682755Y-103253574D01*
X138793035Y-103275754D01*
X138873164Y-103291634D01*
X139217696Y-103359511D01*
X139217696Y-103685502D01*
X139217696Y-104011493D01*
X139169992Y-104000102D01*
X139139632Y-103993625D01*
X139074843Y-103980318D01*
X138981468Y-103961352D01*
X138865356Y-103937897D01*
X138732351Y-103911122D01*
X138588300Y-103882199D01*
X138439050Y-103852297D01*
X138290446Y-103822586D01*
X138148334Y-103794236D01*
X138018561Y-103768417D01*
X137906973Y-103746300D01*
X137819416Y-103729054D01*
X137761736Y-103717850D01*
X137739780Y-103713857D01*
X137737356Y-103733680D01*
X137735373Y-103787634D01*
X137734038Y-103867447D01*
X137733556Y-103963489D01*
X137733556Y-104213122D01*
X138475626Y-104360518D01*
X139217696Y-104507914D01*
X139217696Y-104831753D01*
X139216668Y-104943499D01*
X139213834Y-105038560D01*
X139209566Y-105109674D01*
X139204238Y-105149578D01*
X139201045Y-105155593D01*
X139177057Y-105151565D01*
X139116355Y-105140117D01*
X139023794Y-105122198D01*
X138904230Y-105098760D01*
X138762519Y-105070755D01*
X138603515Y-105039133D01*
X138458975Y-105010237D01*
X137733556Y-104864881D01*
X137733556Y-105569683D01*
X137733556Y-106274484D01*
X137831676Y-106289198D01*
X137896952Y-106300380D01*
X137946871Y-106311378D01*
X137958888Y-106315076D01*
X137968674Y-106312530D01*
X137976071Y-106293285D01*
X137981386Y-106252688D01*
X137984921Y-106186086D01*
X137986983Y-106088828D01*
X137987876Y-105956260D01*
X137987980Y-105871208D01*
X137987980Y-105416176D01*
X138215901Y-105461702D01*
X138443823Y-105507229D01*
X138454424Y-105961326D01*
X138465025Y-106415423D01*
X138586937Y-106439821D01*
X138708848Y-106464219D01*
X138708848Y-106009896D01*
X138709059Y-105859937D01*
X138709978Y-105747279D01*
X138712030Y-105666821D01*
X138715643Y-105613460D01*
X138721242Y-105582096D01*
X138729255Y-105567625D01*
X138740109Y-105564948D01*
X138745952Y-105566207D01*
X138783087Y-105574944D01*
X138849628Y-105588938D01*
X138933301Y-105605635D01*
X138963272Y-105611436D01*
X139049959Y-105628469D01*
X139123659Y-105643662D01*
X139172099Y-105654460D01*
X139180593Y-105656665D01*
X139190290Y-105661876D01*
X139198141Y-105674103D01*
X139204340Y-105697425D01*
X139209079Y-105735920D01*
X139212552Y-105793668D01*
X139214952Y-105874745D01*
X139216473Y-105983232D01*
X139217307Y-106123205D01*
X139217647Y-106298745D01*
X139217696Y-106439743D01*
X139217538Y-106615983D01*
X139217089Y-106778097D01*
X139216385Y-106921382D01*
X139215463Y-107041136D01*
X139214358Y-107132656D01*
X139213107Y-107191240D01*
X139211746Y-107212184D01*
X139211728Y-107212187D01*
X139189952Y-107208173D01*
X139131586Y-107196793D01*
X139041607Y-107179046D01*
X138924998Y-107155926D01*
X138786738Y-107128431D01*
X138631807Y-107097556D01*
X138465185Y-107064299D01*
X138291852Y-107029654D01*
X138116789Y-106994620D01*
X137944976Y-106960191D01*
X137781393Y-106927365D01*
X137631019Y-106897138D01*
X137498835Y-106870505D01*
X137389822Y-106848464D01*
X137308959Y-106832011D01*
X137261226Y-106822142D01*
X137251210Y-106819957D01*
X137203506Y-106808541D01*
X137203506Y-104879159D01*
X137203506Y-102949777D01*
X137251210Y-102960905D01*
X137287489Y-102968861D01*
X137357158Y-102983714D01*
X137452090Y-103003746D01*
X137564157Y-103027239D01*
X137644165Y-103043933D01*
X137989415Y-103115834D01*
X137983397Y-102901023D01*
X137977379Y-102686212D01*
X137595743Y-102607087D01*
X137474585Y-102581987D01*
X137368707Y-102560091D01*
X137284710Y-102542762D01*
X137229199Y-102531360D01*
X137208806Y-102527253D01*
X137206961Y-102507016D01*
X137205396Y-102451727D01*
X137204232Y-102368735D01*
X137203591Y-102265392D01*
X137203506Y-102208514D01*
X137203907Y-102085708D01*
X137205593Y-101999088D01*
X137209288Y-101942443D01*
X137215717Y-101909558D01*
X137225603Y-101894221D01*
X137239672Y-101890218D01*
X137240609Y-101890203D01*
X137268413Y-101894249D01*
G37*
D11*
%TO.C,C6*%
X145615000Y-103692164D02*
X145615000Y-103907836D01*
X146335000Y-103692164D02*
X146335000Y-103907836D01*
%TO.C,C1*%
X147840000Y-103692164D02*
X147840000Y-103907836D01*
X148560000Y-103692164D02*
X148560000Y-103907836D01*
%TO.C,C11*%
X149532836Y-94340000D02*
X149317164Y-94340000D01*
X149532836Y-95060000D02*
X149317164Y-95060000D01*
%TO.C,C3*%
X144740000Y-95407836D02*
X144740000Y-95192164D01*
X145460000Y-95407836D02*
X145460000Y-95192164D01*
%TO.C,C7*%
X150317164Y-100840000D02*
X150532836Y-100840000D01*
X150317164Y-101560000D02*
X150532836Y-101560000D01*
D15*
%TO.C,U1*%
X151772900Y-103937539D02*
X151772900Y-104462461D01*
X153627100Y-104462461D02*
X153627100Y-103937539D01*
X154397000Y-105150000D02*
G75*
G02*
X154143000Y-105150000I-127000J0D01*
G01*
X154143000Y-105150000D02*
G75*
G02*
X154397000Y-105150000I127000J0D01*
G01*
D11*
%TO.C,C15*%
X153517164Y-101490000D02*
X153732836Y-101490000D01*
X153517164Y-102210000D02*
X153732836Y-102210000D01*
%TD*%
M02*
