ISO-10303-21;
HEADER;
/* Generated by software containing ST-Developer
 * from STEP Tools, Inc. (www.steptools.com) 
 */
/* OPTION: strings as raw bytes, not using required /X/ escapes */

FILE_DESCRIPTION(
/* description */ ('Unknown'),
/* implementation_level */ '2;1');

FILE_NAME(
/* name */ 'PrintNormalBatterySpace_nofeet',
/* time_stamp */ '2026-05-08T17:27:21+02:00',
/* author */ ('Unknown'),
/* organization */ ('Unknown'),
/* preprocessor_version */ 'ST-DEVELOPER v19.4',
/* originating_system */ 'Solid Edge',
/* authorisation */ 'Unknown');

FILE_SCHEMA (('AUTOMOTIVE_DESIGN {1 0 10303 214 3 1 1}'));
ENDSEC;

DATA;
#10=PROPERTY_DEFINITION_REPRESENTATION(#14,#12);
#11=PROPERTY_DEFINITION_REPRESENTATION(#15,#13);
#12=REPRESENTATION('',(#16),#2418);
#13=REPRESENTATION('',(#17),#2418);
#14=PROPERTY_DEFINITION('pmi validation property','',#2423);
#15=PROPERTY_DEFINITION('pmi validation property','',#2423);
#16=VALUE_REPRESENTATION_ITEM('number of annotations',COUNT_MEASURE(0.));
#17=VALUE_REPRESENTATION_ITEM('number of views',COUNT_MEASURE(0.));
#18=SHAPE_REPRESENTATION_RELATIONSHIP('','',#1675,#19);
#19=ADVANCED_BREP_SHAPE_REPRESENTATION('',(#1673),#2418);
#20=B_SPLINE_CURVE_WITH_KNOTS('',3,(#2133,#2134,#2135,#2136),
 .UNSPECIFIED.,.F.,.F.,(4,4),(0.,1.),.UNSPECIFIED.);
#21=CIRCLE('',#1680,1.);
#22=CIRCLE('',#1683,1.);
#23=CIRCLE('',#1686,1.);
#24=CIRCLE('',#1688,1.);
#25=CIRCLE('',#1692,1.);
#26=CIRCLE('',#1693,1.);
#27=CIRCLE('',#1695,1.);
#28=ELLIPSE('',#1679,1.41421356237309,1.);
#29=ELLIPSE('',#1682,1.41421356237309,1.);
#30=ELLIPSE('',#1684,1.00000146168649,1.);
#31=ELLIPSE('',#1689,1.41421356237309,1.);
#32=ELLIPSE('',#1691,1.41421356237309,1.);
#33=CYLINDRICAL_SURFACE('',#1678,1.);
#34=CYLINDRICAL_SURFACE('',#1681,1.);
#35=CYLINDRICAL_SURFACE('',#1685,1.);
#36=CYLINDRICAL_SURFACE('',#1687,1.);
#37=CYLINDRICAL_SURFACE('',#1690,1.);
#38=CYLINDRICAL_SURFACE('',#1694,1.);
#39=ORIENTED_EDGE('',*,*,#397,.T.);
#40=ORIENTED_EDGE('',*,*,#398,.F.);
#41=ORIENTED_EDGE('',*,*,#399,.F.);
#42=ORIENTED_EDGE('',*,*,#400,.T.);
#43=ORIENTED_EDGE('',*,*,#401,.T.);
#44=ORIENTED_EDGE('',*,*,#402,.T.);
#45=ORIENTED_EDGE('',*,*,#403,.T.);
#46=ORIENTED_EDGE('',*,*,#404,.F.);
#47=ORIENTED_EDGE('',*,*,#405,.T.);
#48=ORIENTED_EDGE('',*,*,#406,.T.);
#49=ORIENTED_EDGE('',*,*,#401,.F.);
#50=ORIENTED_EDGE('',*,*,#407,.F.);
#51=ORIENTED_EDGE('',*,*,#408,.F.);
#52=ORIENTED_EDGE('',*,*,#409,.F.);
#53=ORIENTED_EDGE('',*,*,#410,.F.);
#54=ORIENTED_EDGE('',*,*,#411,.F.);
#55=ORIENTED_EDGE('',*,*,#412,.T.);
#56=ORIENTED_EDGE('',*,*,#413,.T.);
#57=ORIENTED_EDGE('',*,*,#414,.F.);
#58=ORIENTED_EDGE('',*,*,#405,.F.);
#59=ORIENTED_EDGE('',*,*,#415,.T.);
#60=ORIENTED_EDGE('',*,*,#416,.T.);
#61=ORIENTED_EDGE('',*,*,#417,.T.);
#62=ORIENTED_EDGE('',*,*,#418,.T.);
#63=ORIENTED_EDGE('',*,*,#419,.F.);
#64=ORIENTED_EDGE('',*,*,#420,.T.);
#65=ORIENTED_EDGE('',*,*,#421,.T.);
#66=ORIENTED_EDGE('',*,*,#422,.F.);
#67=ORIENTED_EDGE('',*,*,#423,.T.);
#68=ORIENTED_EDGE('',*,*,#424,.F.);
#69=ORIENTED_EDGE('',*,*,#425,.T.);
#70=ORIENTED_EDGE('',*,*,#418,.F.);
#71=ORIENTED_EDGE('',*,*,#426,.F.);
#72=ORIENTED_EDGE('',*,*,#427,.T.);
#73=ORIENTED_EDGE('',*,*,#428,.T.);
#74=ORIENTED_EDGE('',*,*,#420,.F.);
#75=ORIENTED_EDGE('',*,*,#429,.F.);
#76=ORIENTED_EDGE('',*,*,#430,.F.);
#77=ORIENTED_EDGE('',*,*,#404,.T.);
#78=ORIENTED_EDGE('',*,*,#431,.T.);
#79=ORIENTED_EDGE('',*,*,#432,.F.);
#80=ORIENTED_EDGE('',*,*,#433,.T.);
#81=ORIENTED_EDGE('',*,*,#408,.T.);
#82=ORIENTED_EDGE('',*,*,#434,.T.);
#83=ORIENTED_EDGE('',*,*,#435,.T.);
#84=ORIENTED_EDGE('',*,*,#436,.F.);
#85=ORIENTED_EDGE('',*,*,#437,.T.);
#86=ORIENTED_EDGE('',*,*,#409,.T.);
#87=ORIENTED_EDGE('',*,*,#433,.F.);
#88=ORIENTED_EDGE('',*,*,#438,.F.);
#89=ORIENTED_EDGE('',*,*,#439,.T.);
#90=ORIENTED_EDGE('',*,*,#402,.F.);
#91=ORIENTED_EDGE('',*,*,#406,.F.);
#92=ORIENTED_EDGE('',*,*,#414,.T.);
#93=ORIENTED_EDGE('',*,*,#440,.F.);
#94=ORIENTED_EDGE('',*,*,#441,.T.);
#95=ORIENTED_EDGE('',*,*,#442,.T.);
#96=ORIENTED_EDGE('',*,*,#410,.T.);
#97=ORIENTED_EDGE('',*,*,#437,.F.);
#98=ORIENTED_EDGE('',*,*,#411,.T.);
#99=ORIENTED_EDGE('',*,*,#442,.F.);
#100=ORIENTED_EDGE('',*,*,#443,.T.);
#101=ORIENTED_EDGE('',*,*,#444,.T.);
#102=ORIENTED_EDGE('',*,*,#445,.T.);
#103=ORIENTED_EDGE('',*,*,#415,.F.);
#104=ORIENTED_EDGE('',*,*,#412,.F.);
#105=ORIENTED_EDGE('',*,*,#444,.F.);
#106=ORIENTED_EDGE('',*,*,#446,.T.);
#107=ORIENTED_EDGE('',*,*,#431,.F.);
#108=ORIENTED_EDGE('',*,*,#403,.F.);
#109=ORIENTED_EDGE('',*,*,#439,.F.);
#110=ORIENTED_EDGE('',*,*,#413,.F.);
#111=ORIENTED_EDGE('',*,*,#445,.F.);
#112=ORIENTED_EDGE('',*,*,#447,.T.);
#113=ORIENTED_EDGE('',*,*,#440,.T.);
#114=ORIENTED_EDGE('',*,*,#438,.T.);
#115=ORIENTED_EDGE('',*,*,#436,.T.);
#116=ORIENTED_EDGE('',*,*,#448,.T.);
#117=ORIENTED_EDGE('',*,*,#449,.F.);
#118=ORIENTED_EDGE('',*,*,#450,.F.);
#119=ORIENTED_EDGE('',*,*,#451,.T.);
#120=ORIENTED_EDGE('',*,*,#452,.T.);
#121=ORIENTED_EDGE('',*,*,#453,.F.);
#122=ORIENTED_EDGE('',*,*,#454,.F.);
#123=ORIENTED_EDGE('',*,*,#455,.T.);
#124=ORIENTED_EDGE('',*,*,#450,.T.);
#125=ORIENTED_EDGE('',*,*,#456,.T.);
#126=ORIENTED_EDGE('',*,*,#457,.F.);
#127=ORIENTED_EDGE('',*,*,#458,.F.);
#128=ORIENTED_EDGE('',*,*,#459,.T.);
#129=ORIENTED_EDGE('',*,*,#460,.T.);
#130=ORIENTED_EDGE('',*,*,#459,.F.);
#131=ORIENTED_EDGE('',*,*,#461,.F.);
#132=ORIENTED_EDGE('',*,*,#462,.T.);
#133=ORIENTED_EDGE('',*,*,#463,.F.);
#134=ORIENTED_EDGE('',*,*,#424,.T.);
#135=ORIENTED_EDGE('',*,*,#464,.T.);
#136=ORIENTED_EDGE('',*,*,#465,.T.);
#137=ORIENTED_EDGE('',*,*,#466,.F.);
#138=ORIENTED_EDGE('',*,*,#464,.F.);
#139=ORIENTED_EDGE('',*,*,#423,.F.);
#140=ORIENTED_EDGE('',*,*,#467,.T.);
#141=ORIENTED_EDGE('',*,*,#468,.T.);
#142=ORIENTED_EDGE('',*,*,#426,.T.);
#143=ORIENTED_EDGE('',*,*,#417,.F.);
#144=ORIENTED_EDGE('',*,*,#469,.F.);
#145=ORIENTED_EDGE('',*,*,#429,.T.);
#146=ORIENTED_EDGE('',*,*,#470,.T.);
#147=ORIENTED_EDGE('',*,*,#421,.F.);
#148=ORIENTED_EDGE('',*,*,#471,.F.);
#149=ORIENTED_EDGE('',*,*,#472,.T.);
#150=ORIENTED_EDGE('',*,*,#470,.F.);
#151=ORIENTED_EDGE('',*,*,#473,.T.);
#152=ORIENTED_EDGE('',*,*,#474,.T.);
#153=ORIENTED_EDGE('',*,*,#467,.F.);
#154=ORIENTED_EDGE('',*,*,#422,.T.);
#155=ORIENTED_EDGE('',*,*,#469,.T.);
#156=ORIENTED_EDGE('',*,*,#416,.F.);
#157=ORIENTED_EDGE('',*,*,#475,.T.);
#158=ORIENTED_EDGE('',*,*,#476,.F.);
#159=ORIENTED_EDGE('',*,*,#465,.F.);
#160=ORIENTED_EDGE('',*,*,#468,.F.);
#161=ORIENTED_EDGE('',*,*,#474,.F.);
#162=ORIENTED_EDGE('',*,*,#477,.T.);
#163=ORIENTED_EDGE('',*,*,#478,.T.);
#164=ORIENTED_EDGE('',*,*,#427,.F.);
#165=ORIENTED_EDGE('',*,*,#479,.F.);
#166=ORIENTED_EDGE('',*,*,#480,.F.);
#167=ORIENTED_EDGE('',*,*,#481,.T.);
#168=ORIENTED_EDGE('',*,*,#482,.T.);
#169=ORIENTED_EDGE('',*,*,#483,.F.);
#170=ORIENTED_EDGE('',*,*,#484,.T.);
#171=ORIENTED_EDGE('',*,*,#480,.T.);
#172=ORIENTED_EDGE('',*,*,#485,.F.);
#173=ORIENTED_EDGE('',*,*,#486,.F.);
#174=ORIENTED_EDGE('',*,*,#487,.F.);
#175=ORIENTED_EDGE('',*,*,#488,.T.);
#176=ORIENTED_EDGE('',*,*,#489,.F.);
#177=ORIENTED_EDGE('',*,*,#490,.F.);
#178=ORIENTED_EDGE('',*,*,#491,.F.);
#179=ORIENTED_EDGE('',*,*,#492,.T.);
#180=ORIENTED_EDGE('',*,*,#493,.T.);
#181=ORIENTED_EDGE('',*,*,#494,.F.);
#182=ORIENTED_EDGE('',*,*,#495,.F.);
#183=ORIENTED_EDGE('',*,*,#496,.T.);
#184=ORIENTED_EDGE('',*,*,#497,.T.);
#185=ORIENTED_EDGE('',*,*,#498,.F.);
#186=ORIENTED_EDGE('',*,*,#499,.F.);
#187=ORIENTED_EDGE('',*,*,#492,.F.);
#188=ORIENTED_EDGE('',*,*,#500,.F.);
#189=ORIENTED_EDGE('',*,*,#501,.F.);
#190=ORIENTED_EDGE('',*,*,#496,.F.);
#191=ORIENTED_EDGE('',*,*,#502,.F.);
#192=ORIENTED_EDGE('',*,*,#503,.F.);
#193=ORIENTED_EDGE('',*,*,#504,.T.);
#194=ORIENTED_EDGE('',*,*,#505,.T.);
#195=ORIENTED_EDGE('',*,*,#506,.F.);
#196=ORIENTED_EDGE('',*,*,#507,.F.);
#197=ORIENTED_EDGE('',*,*,#508,.F.);
#198=ORIENTED_EDGE('',*,*,#504,.F.);
#199=ORIENTED_EDGE('',*,*,#400,.F.);
#200=ORIENTED_EDGE('',*,*,#509,.T.);
#201=ORIENTED_EDGE('',*,*,#510,.T.);
#202=ORIENTED_EDGE('',*,*,#511,.T.);
#203=ORIENTED_EDGE('',*,*,#512,.T.);
#204=ORIENTED_EDGE('',*,*,#513,.T.);
#205=ORIENTED_EDGE('',*,*,#514,.T.);
#206=ORIENTED_EDGE('',*,*,#515,.T.);
#207=ORIENTED_EDGE('',*,*,#516,.T.);
#208=ORIENTED_EDGE('',*,*,#507,.T.);
#209=ORIENTED_EDGE('',*,*,#517,.F.);
#210=ORIENTED_EDGE('',*,*,#513,.F.);
#211=ORIENTED_EDGE('',*,*,#518,.F.);
#212=ORIENTED_EDGE('',*,*,#497,.F.);
#213=ORIENTED_EDGE('',*,*,#501,.T.);
#214=ORIENTED_EDGE('',*,*,#519,.F.);
#215=ORIENTED_EDGE('',*,*,#520,.T.);
#216=ORIENTED_EDGE('',*,*,#521,.T.);
#217=ORIENTED_EDGE('',*,*,#522,.F.);
#218=ORIENTED_EDGE('',*,*,#523,.F.);
#219=ORIENTED_EDGE('',*,*,#524,.T.);
#220=ORIENTED_EDGE('',*,*,#519,.T.);
#221=ORIENTED_EDGE('',*,*,#500,.T.);
#222=ORIENTED_EDGE('',*,*,#491,.T.);
#223=ORIENTED_EDGE('',*,*,#525,.F.);
#224=ORIENTED_EDGE('',*,*,#526,.F.);
#225=ORIENTED_EDGE('',*,*,#527,.T.);
#226=ORIENTED_EDGE('',*,*,#523,.T.);
#227=ORIENTED_EDGE('',*,*,#528,.F.);
#228=ORIENTED_EDGE('',*,*,#521,.F.);
#229=ORIENTED_EDGE('',*,*,#529,.T.);
#230=ORIENTED_EDGE('',*,*,#526,.T.);
#231=ORIENTED_EDGE('',*,*,#475,.F.);
#232=ORIENTED_EDGE('',*,*,#419,.T.);
#233=ORIENTED_EDGE('',*,*,#530,.T.);
#234=ORIENTED_EDGE('',*,*,#531,.T.);
#235=ORIENTED_EDGE('',*,*,#532,.T.);
#236=ORIENTED_EDGE('',*,*,#533,.F.);
#237=ORIENTED_EDGE('',*,*,#432,.T.);
#238=ORIENTED_EDGE('',*,*,#534,.F.);
#239=ORIENTED_EDGE('',*,*,#535,.F.);
#240=ORIENTED_EDGE('',*,*,#536,.T.);
#241=ORIENTED_EDGE('',*,*,#537,.F.);
#242=ORIENTED_EDGE('',*,*,#538,.T.);
#243=ORIENTED_EDGE('',*,*,#485,.T.);
#244=ORIENTED_EDGE('',*,*,#479,.T.);
#245=ORIENTED_EDGE('',*,*,#539,.F.);
#246=ORIENTED_EDGE('',*,*,#540,.T.);
#247=ORIENTED_EDGE('',*,*,#446,.F.);
#248=ORIENTED_EDGE('',*,*,#541,.T.);
#249=ORIENTED_EDGE('',*,*,#542,.T.);
#250=ORIENTED_EDGE('',*,*,#543,.F.);
#251=ORIENTED_EDGE('',*,*,#471,.T.);
#252=ORIENTED_EDGE('',*,*,#428,.F.);
#253=ORIENTED_EDGE('',*,*,#478,.F.);
#254=ORIENTED_EDGE('',*,*,#544,.F.);
#255=ORIENTED_EDGE('',*,*,#545,.F.);
#256=ORIENTED_EDGE('',*,*,#486,.T.);
#257=ORIENTED_EDGE('',*,*,#529,.F.);
#258=ORIENTED_EDGE('',*,*,#520,.F.);
#259=ORIENTED_EDGE('',*,*,#524,.F.);
#260=ORIENTED_EDGE('',*,*,#527,.F.);
#261=ORIENTED_EDGE('',*,*,#542,.F.);
#262=ORIENTED_EDGE('',*,*,#546,.F.);
#263=ORIENTED_EDGE('',*,*,#532,.F.);
#264=ORIENTED_EDGE('',*,*,#547,.F.);
#265=ORIENTED_EDGE('',*,*,#548,.F.);
#266=ORIENTED_EDGE('',*,*,#457,.T.);
#267=ORIENTED_EDGE('',*,*,#549,.T.);
#268=ORIENTED_EDGE('',*,*,#550,.T.);
#269=ORIENTED_EDGE('',*,*,#551,.T.);
#270=ORIENTED_EDGE('',*,*,#498,.T.);
#271=ORIENTED_EDGE('',*,*,#495,.T.);
#272=ORIENTED_EDGE('',*,*,#552,.T.);
#273=ORIENTED_EDGE('',*,*,#505,.F.);
#274=ORIENTED_EDGE('',*,*,#508,.T.);
#275=ORIENTED_EDGE('',*,*,#516,.F.);
#276=ORIENTED_EDGE('',*,*,#512,.F.);
#277=ORIENTED_EDGE('',*,*,#493,.F.);
#278=ORIENTED_EDGE('',*,*,#499,.T.);
#279=ORIENTED_EDGE('',*,*,#551,.F.);
#280=ORIENTED_EDGE('',*,*,#511,.F.);
#281=ORIENTED_EDGE('',*,*,#553,.T.);
#282=ORIENTED_EDGE('',*,*,#554,.T.);
#283=ORIENTED_EDGE('',*,*,#552,.F.);
#284=ORIENTED_EDGE('',*,*,#494,.T.);
#285=ORIENTED_EDGE('',*,*,#518,.T.);
#286=ORIENTED_EDGE('',*,*,#528,.T.);
#287=ORIENTED_EDGE('',*,*,#525,.T.);
#288=ORIENTED_EDGE('',*,*,#522,.T.);
#289=ORIENTED_EDGE('',*,*,#490,.T.);
#290=ORIENTED_EDGE('',*,*,#554,.F.);
#291=ORIENTED_EDGE('',*,*,#555,.T.);
#292=ORIENTED_EDGE('',*,*,#502,.T.);
#293=ORIENTED_EDGE('',*,*,#556,.F.);
#294=ORIENTED_EDGE('',*,*,#487,.T.);
#295=ORIENTED_EDGE('',*,*,#545,.T.);
#296=ORIENTED_EDGE('',*,*,#557,.T.);
#297=ORIENTED_EDGE('',*,*,#535,.T.);
#298=ORIENTED_EDGE('',*,*,#558,.T.);
#299=ORIENTED_EDGE('',*,*,#539,.T.);
#300=ORIENTED_EDGE('',*,*,#482,.F.);
#301=ORIENTED_EDGE('',*,*,#559,.F.);
#302=ORIENTED_EDGE('',*,*,#550,.F.);
#303=ORIENTED_EDGE('',*,*,#560,.F.);
#304=ORIENTED_EDGE('',*,*,#561,.F.);
#305=ORIENTED_EDGE('',*,*,#562,.T.);
#306=ORIENTED_EDGE('',*,*,#466,.T.);
#307=ORIENTED_EDGE('',*,*,#476,.T.);
#308=ORIENTED_EDGE('',*,*,#536,.F.);
#309=ORIENTED_EDGE('',*,*,#557,.F.);
#310=ORIENTED_EDGE('',*,*,#544,.T.);
#311=ORIENTED_EDGE('',*,*,#477,.F.);
#312=ORIENTED_EDGE('',*,*,#473,.F.);
#313=ORIENTED_EDGE('',*,*,#472,.F.);
#314=ORIENTED_EDGE('',*,*,#543,.T.);
#315=ORIENTED_EDGE('',*,*,#547,.T.);
#316=ORIENTED_EDGE('',*,*,#531,.F.);
#317=ORIENTED_EDGE('',*,*,#509,.F.);
#318=ORIENTED_EDGE('',*,*,#399,.T.);
#319=ORIENTED_EDGE('',*,*,#563,.F.);
#320=ORIENTED_EDGE('',*,*,#564,.T.);
#321=ORIENTED_EDGE('',*,*,#462,.F.);
#322=ORIENTED_EDGE('',*,*,#565,.F.);
#323=ORIENTED_EDGE('',*,*,#566,.T.);
#324=ORIENTED_EDGE('',*,*,#453,.T.);
#325=ORIENTED_EDGE('',*,*,#449,.T.);
#326=ORIENTED_EDGE('',*,*,#567,.T.);
#327=ORIENTED_EDGE('',*,*,#560,.T.);
#328=ORIENTED_EDGE('',*,*,#549,.F.);
#329=ORIENTED_EDGE('',*,*,#456,.F.);
#330=ORIENTED_EDGE('',*,*,#460,.F.);
#331=ORIENTED_EDGE('',*,*,#564,.F.);
#332=ORIENTED_EDGE('',*,*,#568,.F.);
#333=ORIENTED_EDGE('',*,*,#452,.F.);
#334=ORIENTED_EDGE('',*,*,#569,.T.);
#335=ORIENTED_EDGE('',*,*,#561,.T.);
#336=ORIENTED_EDGE('',*,*,#567,.F.);
#337=ORIENTED_EDGE('',*,*,#570,.F.);
#338=ORIENTED_EDGE('',*,*,#488,.F.);
#339=ORIENTED_EDGE('',*,*,#556,.T.);
#340=ORIENTED_EDGE('',*,*,#569,.F.);
#341=ORIENTED_EDGE('',*,*,#451,.F.);
#342=ORIENTED_EDGE('',*,*,#455,.F.);
#343=ORIENTED_EDGE('',*,*,#571,.F.);
#344=ORIENTED_EDGE('',*,*,#514,.F.);
#345=ORIENTED_EDGE('',*,*,#517,.T.);
#346=ORIENTED_EDGE('',*,*,#506,.T.);
#347=ORIENTED_EDGE('',*,*,#503,.T.);
#348=ORIENTED_EDGE('',*,*,#555,.F.);
#349=ORIENTED_EDGE('',*,*,#553,.F.);
#350=ORIENTED_EDGE('',*,*,#510,.F.);
#351=ORIENTED_EDGE('',*,*,#565,.T.);
#352=ORIENTED_EDGE('',*,*,#461,.T.);
#353=ORIENTED_EDGE('',*,*,#458,.T.);
#354=ORIENTED_EDGE('',*,*,#548,.T.);
#355=ORIENTED_EDGE('',*,*,#559,.T.);
#356=ORIENTED_EDGE('',*,*,#481,.F.);
#357=ORIENTED_EDGE('',*,*,#484,.F.);
#358=ORIENTED_EDGE('',*,*,#572,.F.);
#359=ORIENTED_EDGE('',*,*,#573,.F.);
#360=ORIENTED_EDGE('',*,*,#533,.T.);
#361=ORIENTED_EDGE('',*,*,#546,.T.);
#362=ORIENTED_EDGE('',*,*,#541,.F.);
#363=ORIENTED_EDGE('',*,*,#443,.F.);
#364=ORIENTED_EDGE('',*,*,#441,.F.);
#365=ORIENTED_EDGE('',*,*,#447,.F.);
#366=ORIENTED_EDGE('',*,*,#540,.F.);
#367=ORIENTED_EDGE('',*,*,#558,.F.);
#368=ORIENTED_EDGE('',*,*,#534,.T.);
#369=ORIENTED_EDGE('',*,*,#448,.F.);
#370=ORIENTED_EDGE('',*,*,#435,.F.);
#371=ORIENTED_EDGE('',*,*,#425,.F.);
#372=ORIENTED_EDGE('',*,*,#463,.T.);
#373=ORIENTED_EDGE('',*,*,#562,.F.);
#374=ORIENTED_EDGE('',*,*,#530,.F.);
#375=ORIENTED_EDGE('',*,*,#434,.F.);
#376=ORIENTED_EDGE('',*,*,#407,.T.);
#377=ORIENTED_EDGE('',*,*,#430,.T.);
#378=ORIENTED_EDGE('',*,*,#573,.T.);
#379=ORIENTED_EDGE('',*,*,#563,.T.);
#380=ORIENTED_EDGE('',*,*,#398,.T.);
#381=ORIENTED_EDGE('',*,*,#574,.T.);
#382=ORIENTED_EDGE('',*,*,#568,.T.);
#383=ORIENTED_EDGE('',*,*,#397,.F.);
#384=ORIENTED_EDGE('',*,*,#515,.F.);
#385=ORIENTED_EDGE('',*,*,#571,.T.);
#386=ORIENTED_EDGE('',*,*,#454,.T.);
#387=ORIENTED_EDGE('',*,*,#566,.F.);
#388=ORIENTED_EDGE('',*,*,#574,.F.);
#389=ORIENTED_EDGE('',*,*,#483,.T.);
#390=ORIENTED_EDGE('',*,*,#538,.F.);
#391=ORIENTED_EDGE('',*,*,#575,.F.);
#392=ORIENTED_EDGE('',*,*,#572,.T.);
#393=ORIENTED_EDGE('',*,*,#489,.T.);
#394=ORIENTED_EDGE('',*,*,#570,.T.);
#395=ORIENTED_EDGE('',*,*,#575,.T.);
#396=ORIENTED_EDGE('',*,*,#537,.T.);
#397=EDGE_CURVE('',#576,#577,#693,.T.);
#398=EDGE_CURVE('',#578,#577,#694,.T.);
#399=EDGE_CURVE('',#579,#578,#695,.T.);
#400=EDGE_CURVE('',#579,#576,#696,.T.);
#401=EDGE_CURVE('',#580,#581,#28,.T.);
#402=EDGE_CURVE('',#581,#582,#697,.T.);
#403=EDGE_CURVE('',#582,#583,#21,.T.);
#404=EDGE_CURVE('',#580,#583,#698,.T.);
#405=EDGE_CURVE('',#584,#585,#29,.T.);
#406=EDGE_CURVE('',#585,#581,#699,.T.);
#407=EDGE_CURVE('',#586,#580,#700,.T.);
#408=EDGE_CURVE('',#587,#586,#22,.T.);
#409=EDGE_CURVE('',#588,#587,#701,.T.);
#410=EDGE_CURVE('',#589,#588,#30,.T.);
#411=EDGE_CURVE('',#590,#589,#702,.T.);
#412=EDGE_CURVE('',#590,#584,#703,.T.);
#413=EDGE_CURVE('',#591,#592,#23,.T.);
#414=EDGE_CURVE('',#585,#592,#704,.T.);
#415=EDGE_CURVE('',#584,#591,#705,.T.);
#416=EDGE_CURVE('',#593,#594,#24,.T.);
#417=EDGE_CURVE('',#594,#595,#706,.T.);
#418=EDGE_CURVE('',#595,#596,#31,.T.);
#419=EDGE_CURVE('',#593,#596,#707,.T.);
#420=EDGE_CURVE('',#597,#598,#32,.T.);
#421=EDGE_CURVE('',#598,#599,#708,.T.);
#422=EDGE_CURVE('',#600,#599,#25,.T.);
#423=EDGE_CURVE('',#600,#601,#709,.T.);
#424=EDGE_CURVE('',#602,#601,#26,.T.);
#425=EDGE_CURVE('',#602,#596,#710,.T.);
#426=EDGE_CURVE('',#597,#595,#711,.T.);
#427=EDGE_CURVE('',#603,#604,#27,.T.);
#428=EDGE_CURVE('',#604,#598,#712,.T.);
#429=EDGE_CURVE('',#603,#597,#713,.T.);
#430=EDGE_CURVE('',#580,#605,#714,.T.);
#431=EDGE_CURVE('',#583,#606,#715,.T.);
#432=EDGE_CURVE('',#605,#606,#20,.F.);
#433=EDGE_CURVE('',#607,#587,#716,.T.);
#434=EDGE_CURVE('',#586,#608,#717,.T.);
#435=EDGE_CURVE('',#608,#609,#718,.T.);
#436=EDGE_CURVE('',#607,#609,#719,.T.);
#437=EDGE_CURVE('',#610,#588,#720,.T.);
#438=EDGE_CURVE('',#610,#607,#721,.T.);
#439=EDGE_CURVE('',#592,#582,#722,.T.);
#440=EDGE_CURVE('',#611,#610,#723,.T.);
#441=EDGE_CURVE('',#611,#612,#724,.T.);
#442=EDGE_CURVE('',#612,#589,#725,.T.);
#443=EDGE_CURVE('',#612,#613,#726,.T.);
#444=EDGE_CURVE('',#613,#590,#727,.T.);
#445=EDGE_CURVE('',#614,#591,#728,.T.);
#446=EDGE_CURVE('',#613,#614,#729,.T.);
#447=EDGE_CURVE('',#614,#611,#730,.T.);
#448=EDGE_CURVE('',#609,#606,#731,.T.);
#449=EDGE_CURVE('',#615,#616,#732,.T.);
#450=EDGE_CURVE('',#617,#615,#733,.T.);
#451=EDGE_CURVE('',#617,#618,#734,.T.);
#452=EDGE_CURVE('',#618,#616,#735,.T.);
#453=EDGE_CURVE('',#619,#615,#736,.T.);
#454=EDGE_CURVE('',#620,#619,#737,.T.);
#455=EDGE_CURVE('',#620,#617,#738,.T.);
#456=EDGE_CURVE('',#621,#622,#739,.T.);
#457=EDGE_CURVE('',#623,#622,#740,.T.);
#458=EDGE_CURVE('',#624,#623,#741,.T.);
#459=EDGE_CURVE('',#624,#621,#742,.T.);
#460=EDGE_CURVE('',#625,#621,#743,.T.);
#461=EDGE_CURVE('',#626,#624,#744,.T.);
#462=EDGE_CURVE('',#626,#625,#745,.T.);
#463=EDGE_CURVE('',#602,#627,#746,.T.);
#464=EDGE_CURVE('',#601,#628,#747,.T.);
#465=EDGE_CURVE('',#628,#629,#748,.T.);
#466=EDGE_CURVE('',#627,#629,#749,.T.);
#467=EDGE_CURVE('',#600,#630,#750,.T.);
#468=EDGE_CURVE('',#630,#628,#751,.T.);
#469=EDGE_CURVE('',#603,#594,#752,.T.);
#470=EDGE_CURVE('',#631,#599,#753,.T.);
#471=EDGE_CURVE('',#632,#598,#754,.T.);
#472=EDGE_CURVE('',#632,#631,#755,.T.);
#473=EDGE_CURVE('',#631,#633,#756,.T.);
#474=EDGE_CURVE('',#633,#630,#757,.T.);
#475=EDGE_CURVE('',#593,#634,#758,.T.);
#476=EDGE_CURVE('',#629,#634,#759,.T.);
#477=EDGE_CURVE('',#633,#635,#760,.T.);
#478=EDGE_CURVE('',#635,#604,#761,.T.);
#479=EDGE_CURVE('',#636,#637,#762,.T.);
#480=EDGE_CURVE('',#638,#636,#763,.T.);
#481=EDGE_CURVE('',#638,#639,#764,.T.);
#482=EDGE_CURVE('',#639,#637,#765,.T.);
#483=EDGE_CURVE('',#640,#641,#766,.T.);
#484=EDGE_CURVE('',#640,#638,#767,.T.);
#485=EDGE_CURVE('',#641,#636,#768,.T.);
#486=EDGE_CURVE('',#642,#643,#769,.T.);
#487=EDGE_CURVE('',#644,#642,#770,.T.);
#488=EDGE_CURVE('',#644,#645,#771,.T.);
#489=EDGE_CURVE('',#643,#645,#772,.T.);
#490=EDGE_CURVE('',#646,#647,#773,.T.);
#491=EDGE_CURVE('',#648,#646,#774,.T.);
#492=EDGE_CURVE('',#648,#649,#775,.T.);
#493=EDGE_CURVE('',#649,#647,#776,.T.);
#494=EDGE_CURVE('',#650,#651,#777,.T.);
#495=EDGE_CURVE('',#652,#650,#778,.T.);
#496=EDGE_CURVE('',#652,#653,#779,.T.);
#497=EDGE_CURVE('',#653,#651,#780,.T.);
#498=EDGE_CURVE('',#654,#652,#781,.T.);
#499=EDGE_CURVE('',#649,#654,#782,.T.);
#500=EDGE_CURVE('',#655,#648,#783,.T.);
#501=EDGE_CURVE('',#653,#655,#784,.T.);
#502=EDGE_CURVE('',#656,#657,#785,.T.);
#503=EDGE_CURVE('',#658,#656,#786,.T.);
#504=EDGE_CURVE('',#658,#659,#787,.T.);
#505=EDGE_CURVE('',#659,#657,#788,.T.);
#506=EDGE_CURVE('',#660,#658,#789,.T.);
#507=EDGE_CURVE('',#661,#660,#790,.T.);
#508=EDGE_CURVE('',#659,#661,#791,.T.);
#509=EDGE_CURVE('',#579,#662,#792,.T.);
#510=EDGE_CURVE('',#662,#663,#793,.T.);
#511=EDGE_CURVE('',#663,#664,#794,.T.);
#512=EDGE_CURVE('',#664,#665,#795,.T.);
#513=EDGE_CURVE('',#665,#666,#796,.T.);
#514=EDGE_CURVE('',#666,#667,#797,.T.);
#515=EDGE_CURVE('',#667,#576,#798,.T.);
#516=EDGE_CURVE('',#665,#661,#799,.T.);
#517=EDGE_CURVE('',#666,#660,#800,.T.);
#518=EDGE_CURVE('',#651,#668,#801,.T.);
#519=EDGE_CURVE('',#669,#655,#802,.T.);
#520=EDGE_CURVE('',#669,#670,#803,.T.);
#521=EDGE_CURVE('',#670,#668,#804,.T.);
#522=EDGE_CURVE('',#671,#646,#805,.T.);
#523=EDGE_CURVE('',#672,#671,#806,.T.);
#524=EDGE_CURVE('',#672,#669,#807,.T.);
#525=EDGE_CURVE('',#673,#671,#808,.T.);
#526=EDGE_CURVE('',#674,#673,#809,.T.);
#527=EDGE_CURVE('',#674,#672,#810,.T.);
#528=EDGE_CURVE('',#668,#673,#811,.T.);
#529=EDGE_CURVE('',#670,#674,#812,.T.);
#530=EDGE_CURVE('',#596,#675,#813,.T.);
#531=EDGE_CURVE('',#675,#676,#814,.T.);
#532=EDGE_CURVE('',#676,#677,#815,.T.);
#533=EDGE_CURVE('',#605,#677,#816,.T.);
#534=EDGE_CURVE('',#678,#606,#817,.T.);
#535=EDGE_CURVE('',#679,#678,#818,.T.);
#536=EDGE_CURVE('',#679,#634,#819,.T.);
#537=EDGE_CURVE('',#680,#643,#820,.T.);
#538=EDGE_CURVE('',#680,#641,#821,.T.);
#539=EDGE_CURVE('',#681,#637,#822,.T.);
#540=EDGE_CURVE('',#681,#614,#823,.T.);
#541=EDGE_CURVE('',#613,#682,#824,.T.);
#542=EDGE_CURVE('',#682,#683,#825,.T.);
#543=EDGE_CURVE('',#632,#683,#826,.T.);
#544=EDGE_CURVE('',#684,#635,#827,.T.);
#545=EDGE_CURVE('',#642,#684,#828,.T.);
#546=EDGE_CURVE('',#677,#682,#829,.T.);
#547=EDGE_CURVE('',#683,#676,#830,.T.);
#548=EDGE_CURVE('',#623,#685,#831,.T.);
#549=EDGE_CURVE('',#622,#686,#832,.T.);
#550=EDGE_CURVE('',#686,#685,#833,.T.);
#551=EDGE_CURVE('',#664,#654,#834,.T.);
#552=EDGE_CURVE('',#650,#657,#835,.T.);
#553=EDGE_CURVE('',#663,#687,#836,.T.);
#554=EDGE_CURVE('',#687,#647,#837,.T.);
#555=EDGE_CURVE('',#687,#656,#838,.T.);
#556=EDGE_CURVE('',#644,#688,#839,.T.);
#557=EDGE_CURVE('',#684,#679,#840,.T.);
#558=EDGE_CURVE('',#678,#681,#841,.T.);
#559=EDGE_CURVE('',#685,#639,#842,.T.);
#560=EDGE_CURVE('',#689,#686,#843,.T.);
#561=EDGE_CURVE('',#688,#689,#844,.T.);
#562=EDGE_CURVE('',#675,#627,#845,.T.);
#563=EDGE_CURVE('',#690,#578,#846,.T.);
#564=EDGE_CURVE('',#690,#625,#847,.T.);
#565=EDGE_CURVE('',#662,#626,#848,.T.);
#566=EDGE_CURVE('',#691,#619,#849,.T.);
#567=EDGE_CURVE('',#616,#689,#850,.T.);
#568=EDGE_CURVE('',#691,#690,#851,.T.);
#569=EDGE_CURVE('',#618,#688,#852,.T.);
#570=EDGE_CURVE('',#645,#692,#853,.T.);
#571=EDGE_CURVE('',#667,#620,#854,.T.);
#572=EDGE_CURVE('',#692,#640,#855,.T.);
#573=EDGE_CURVE('',#605,#608,#856,.T.);
#574=EDGE_CURVE('',#577,#691,#857,.T.);
#575=EDGE_CURVE('',#692,#680,#858,.T.);
#576=VERTEX_POINT('',#2061);
#577=VERTEX_POINT('',#2062);
#578=VERTEX_POINT('',#2064);
#579=VERTEX_POINT('',#2066);
#580=VERTEX_POINT('',#2070);
#581=VERTEX_POINT('',#2071);
#582=VERTEX_POINT('',#2073);
#583=VERTEX_POINT('',#2075);
#584=VERTEX_POINT('',#2079);
#585=VERTEX_POINT('',#2080);
#586=VERTEX_POINT('',#2083);
#587=VERTEX_POINT('',#2085);
#588=VERTEX_POINT('',#2087);
#589=VERTEX_POINT('',#2089);
#590=VERTEX_POINT('',#2091);
#591=VERTEX_POINT('',#2095);
#592=VERTEX_POINT('',#2096);
#593=VERTEX_POINT('',#2101);
#594=VERTEX_POINT('',#2102);
#595=VERTEX_POINT('',#2104);
#596=VERTEX_POINT('',#2106);
#597=VERTEX_POINT('',#2110);
#598=VERTEX_POINT('',#2111);
#599=VERTEX_POINT('',#2113);
#600=VERTEX_POINT('',#2115);
#601=VERTEX_POINT('',#2117);
#602=VERTEX_POINT('',#2119);
#603=VERTEX_POINT('',#2124);
#604=VERTEX_POINT('',#2125);
#605=VERTEX_POINT('',#2130);
#606=VERTEX_POINT('',#2132);
#607=VERTEX_POINT('',#2139);
#608=VERTEX_POINT('',#2141);
#609=VERTEX_POINT('',#2143);
#610=VERTEX_POINT('',#2147);
#611=VERTEX_POINT('',#2153);
#612=VERTEX_POINT('',#2155);
#613=VERTEX_POINT('',#2159);
#614=VERTEX_POINT('',#2163);
#615=VERTEX_POINT('',#2170);
#616=VERTEX_POINT('',#2171);
#617=VERTEX_POINT('',#2173);
#618=VERTEX_POINT('',#2175);
#619=VERTEX_POINT('',#2179);
#620=VERTEX_POINT('',#2181);
#621=VERTEX_POINT('',#2185);
#622=VERTEX_POINT('',#2186);
#623=VERTEX_POINT('',#2188);
#624=VERTEX_POINT('',#2190);
#625=VERTEX_POINT('',#2194);
#626=VERTEX_POINT('',#2196);
#627=VERTEX_POINT('',#2200);
#628=VERTEX_POINT('',#2202);
#629=VERTEX_POINT('',#2204);
#630=VERTEX_POINT('',#2208);
#631=VERTEX_POINT('',#2214);
#632=VERTEX_POINT('',#2216);
#633=VERTEX_POINT('',#2220);
#634=VERTEX_POINT('',#2224);
#635=VERTEX_POINT('',#2227);
#636=VERTEX_POINT('',#2231);
#637=VERTEX_POINT('',#2232);
#638=VERTEX_POINT('',#2234);
#639=VERTEX_POINT('',#2236);
#640=VERTEX_POINT('',#2240);
#641=VERTEX_POINT('',#2241);
#642=VERTEX_POINT('',#2246);
#643=VERTEX_POINT('',#2247);
#644=VERTEX_POINT('',#2249);
#645=VERTEX_POINT('',#2251);
#646=VERTEX_POINT('',#2255);
#647=VERTEX_POINT('',#2256);
#648=VERTEX_POINT('',#2258);
#649=VERTEX_POINT('',#2260);
#650=VERTEX_POINT('',#2264);
#651=VERTEX_POINT('',#2265);
#652=VERTEX_POINT('',#2267);
#653=VERTEX_POINT('',#2269);
#654=VERTEX_POINT('',#2273);
#655=VERTEX_POINT('',#2276);
#656=VERTEX_POINT('',#2280);
#657=VERTEX_POINT('',#2281);
#658=VERTEX_POINT('',#2283);
#659=VERTEX_POINT('',#2285);
#660=VERTEX_POINT('',#2289);
#661=VERTEX_POINT('',#2291);
#662=VERTEX_POINT('',#2295);
#663=VERTEX_POINT('',#2297);
#664=VERTEX_POINT('',#2299);
#665=VERTEX_POINT('',#2301);
#666=VERTEX_POINT('',#2303);
#667=VERTEX_POINT('',#2305);
#668=VERTEX_POINT('',#2312);
#669=VERTEX_POINT('',#2314);
#670=VERTEX_POINT('',#2316);
#671=VERTEX_POINT('',#2320);
#672=VERTEX_POINT('',#2322);
#673=VERTEX_POINT('',#2326);
#674=VERTEX_POINT('',#2328);
#675=VERTEX_POINT('',#2335);
#676=VERTEX_POINT('',#2337);
#677=VERTEX_POINT('',#2339);
#678=VERTEX_POINT('',#2342);
#679=VERTEX_POINT('',#2344);
#680=VERTEX_POINT('',#2348);
#681=VERTEX_POINT('',#2351);
#682=VERTEX_POINT('',#2354);
#683=VERTEX_POINT('',#2356);
#684=VERTEX_POINT('',#2359);
#685=VERTEX_POINT('',#2366);
#686=VERTEX_POINT('',#2368);
#687=VERTEX_POINT('',#2375);
#688=VERTEX_POINT('',#2381);
#689=VERTEX_POINT('',#2386);
#690=VERTEX_POINT('',#2392);
#691=VERTEX_POINT('',#2397);
#692=VERTEX_POINT('',#2404);
#693=LINE('',#2060,#859);
#694=LINE('',#2063,#860);
#695=LINE('',#2065,#861);
#696=LINE('',#2067,#862);
#697=LINE('',#2072,#863);
#698=LINE('',#2076,#864);
#699=LINE('',#2081,#865);
#700=LINE('',#2082,#866);
#701=LINE('',#2086,#867);
#702=LINE('',#2090,#868);
#703=LINE('',#2092,#869);
#704=LINE('',#2097,#870);
#705=LINE('',#2098,#871);
#706=LINE('',#2103,#872);
#707=LINE('',#2107,#873);
#708=LINE('',#2112,#874);
#709=LINE('',#2116,#875);
#710=LINE('',#2120,#876);
#711=LINE('',#2121,#877);
#712=LINE('',#2126,#878);
#713=LINE('',#2127,#879);
#714=LINE('',#2129,#880);
#715=LINE('',#2131,#881);
#716=LINE('',#2138,#882);
#717=LINE('',#2140,#883);
#718=LINE('',#2142,#884);
#719=LINE('',#2144,#885);
#720=LINE('',#2146,#886);
#721=LINE('',#2148,#887);
#722=LINE('',#2150,#888);
#723=LINE('',#2152,#889);
#724=LINE('',#2154,#890);
#725=LINE('',#2156,#891);
#726=LINE('',#2158,#892);
#727=LINE('',#2160,#893);
#728=LINE('',#2162,#894);
#729=LINE('',#2164,#895);
#730=LINE('',#2166,#896);
#731=LINE('',#2167,#897);
#732=LINE('',#2169,#898);
#733=LINE('',#2172,#899);
#734=LINE('',#2174,#900);
#735=LINE('',#2176,#901);
#736=LINE('',#2178,#902);
#737=LINE('',#2180,#903);
#738=LINE('',#2182,#904);
#739=LINE('',#2184,#905);
#740=LINE('',#2187,#906);
#741=LINE('',#2189,#907);
#742=LINE('',#2191,#908);
#743=LINE('',#2193,#909);
#744=LINE('',#2195,#910);
#745=LINE('',#2197,#911);
#746=LINE('',#2199,#912);
#747=LINE('',#2201,#913);
#748=LINE('',#2203,#914);
#749=LINE('',#2205,#915);
#750=LINE('',#2207,#916);
#751=LINE('',#2209,#917);
#752=LINE('',#2211,#918);
#753=LINE('',#2213,#919);
#754=LINE('',#2215,#920);
#755=LINE('',#2217,#921);
#756=LINE('',#2219,#922);
#757=LINE('',#2221,#923);
#758=LINE('',#2223,#924);
#759=LINE('',#2225,#925);
#760=LINE('',#2226,#926);
#761=LINE('',#2228,#927);
#762=LINE('',#2230,#928);
#763=LINE('',#2233,#929);
#764=LINE('',#2235,#930);
#765=LINE('',#2237,#931);
#766=LINE('',#2239,#932);
#767=LINE('',#2242,#933);
#768=LINE('',#2243,#934);
#769=LINE('',#2245,#935);
#770=LINE('',#2248,#936);
#771=LINE('',#2250,#937);
#772=LINE('',#2252,#938);
#773=LINE('',#2254,#939);
#774=LINE('',#2257,#940);
#775=LINE('',#2259,#941);
#776=LINE('',#2261,#942);
#777=LINE('',#2263,#943);
#778=LINE('',#2266,#944);
#779=LINE('',#2268,#945);
#780=LINE('',#2270,#946);
#781=LINE('',#2272,#947);
#782=LINE('',#2274,#948);
#783=LINE('',#2275,#949);
#784=LINE('',#2277,#950);
#785=LINE('',#2279,#951);
#786=LINE('',#2282,#952);
#787=LINE('',#2284,#953);
#788=LINE('',#2286,#954);
#789=LINE('',#2288,#955);
#790=LINE('',#2290,#956);
#791=LINE('',#2292,#957);
#792=LINE('',#2294,#958);
#793=LINE('',#2296,#959);
#794=LINE('',#2298,#960);
#795=LINE('',#2300,#961);
#796=LINE('',#2302,#962);
#797=LINE('',#2304,#963);
#798=LINE('',#2306,#964);
#799=LINE('',#2308,#965);
#800=LINE('',#2309,#966);
#801=LINE('',#2311,#967);
#802=LINE('',#2313,#968);
#803=LINE('',#2315,#969);
#804=LINE('',#2317,#970);
#805=LINE('',#2319,#971);
#806=LINE('',#2321,#972);
#807=LINE('',#2323,#973);
#808=LINE('',#2325,#974);
#809=LINE('',#2327,#975);
#810=LINE('',#2329,#976);
#811=LINE('',#2331,#977);
#812=LINE('',#2332,#978);
#813=LINE('',#2334,#979);
#814=LINE('',#2336,#980);
#815=LINE('',#2338,#981);
#816=LINE('',#2340,#982);
#817=LINE('',#2341,#983);
#818=LINE('',#2343,#984);
#819=LINE('',#2345,#985);
#820=LINE('',#2347,#986);
#821=LINE('',#2349,#987);
#822=LINE('',#2350,#988);
#823=LINE('',#2352,#989);
#824=LINE('',#2353,#990);
#825=LINE('',#2355,#991);
#826=LINE('',#2357,#992);
#827=LINE('',#2358,#993);
#828=LINE('',#2360,#994);
#829=LINE('',#2362,#995);
#830=LINE('',#2363,#996);
#831=LINE('',#2365,#997);
#832=LINE('',#2367,#998);
#833=LINE('',#2369,#999);
#834=LINE('',#2371,#1000);
#835=LINE('',#2372,#1001);
#836=LINE('',#2374,#1002);
#837=LINE('',#2376,#1003);
#838=LINE('',#2378,#1004);
#839=LINE('',#2380,#1005);
#840=LINE('',#2382,#1006);
#841=LINE('',#2383,#1007);
#842=LINE('',#2384,#1008);
#843=LINE('',#2385,#1009);
#844=LINE('',#2387,#1010);
#845=LINE('',#2389,#1011);
#846=LINE('',#2391,#1012);
#847=LINE('',#2393,#1013);
#848=LINE('',#2394,#1014);
#849=LINE('',#2396,#1015);
#850=LINE('',#2398,#1016);
#851=LINE('',#2399,#1017);
#852=LINE('',#2401,#1018);
#853=LINE('',#2403,#1019);
#854=LINE('',#2405,#1020);
#855=LINE('',#2406,#1021);
#856=LINE('',#2408,#1022);
#857=LINE('',#2412,#1023);
#858=LINE('',#2415,#1024);
#859=VECTOR('',#1752,1000.);
#860=VECTOR('',#1753,1000.);
#861=VECTOR('',#1754,1000.);
#862=VECTOR('',#1755,1000.);
#863=VECTOR('',#1760,1000.);
#864=VECTOR('',#1763,1000.);
#865=VECTOR('',#1768,1000.);
#866=VECTOR('',#1769,1000.);
#867=VECTOR('',#1772,1000.);
#868=VECTOR('',#1775,1000.);
#869=VECTOR('',#1776,1000.);
#870=VECTOR('',#1781,1000.);
#871=VECTOR('',#1782,1000.);
#872=VECTOR('',#1787,1000.);
#873=VECTOR('',#1790,1000.);
#874=VECTOR('',#1795,1000.);
#875=VECTOR('',#1798,1000.);
#876=VECTOR('',#1801,1000.);
#877=VECTOR('',#1802,1000.);
#878=VECTOR('',#1807,1000.);
#879=VECTOR('',#1808,1000.);
#880=VECTOR('',#1811,1000.);
#881=VECTOR('',#1812,1000.);
#882=VECTOR('',#1815,1000.);
#883=VECTOR('',#1816,1000.);
#884=VECTOR('',#1817,1000.);
#885=VECTOR('',#1818,1000.);
#886=VECTOR('',#1821,1000.);
#887=VECTOR('',#1822,1000.);
#888=VECTOR('',#1825,1000.);
#889=VECTOR('',#1828,1000.);
#890=VECTOR('',#1829,1000.);
#891=VECTOR('',#1830,1000.);
#892=VECTOR('',#1833,1000.);
#893=VECTOR('',#1834,1000.);
#894=VECTOR('',#1837,1000.);
#895=VECTOR('',#1838,1000.);
#896=VECTOR('',#1841,1000.);
#897=VECTOR('',#1842,1000.);
#898=VECTOR('',#1845,1000.);
#899=VECTOR('',#1846,1000.);
#900=VECTOR('',#1847,1000.);
#901=VECTOR('',#1848,1000.);
#902=VECTOR('',#1851,1000.);
#903=VECTOR('',#1852,1000.);
#904=VECTOR('',#1853,1000.);
#905=VECTOR('',#1856,1000.);
#906=VECTOR('',#1857,1000.);
#907=VECTOR('',#1858,1000.);
#908=VECTOR('',#1859,1000.);
#909=VECTOR('',#1862,1000.);
#910=VECTOR('',#1863,1000.);
#911=VECTOR('',#1864,1000.);
#912=VECTOR('',#1867,1000.);
#913=VECTOR('',#1868,1000.);
#914=VECTOR('',#1869,1000.);
#915=VECTOR('',#1870,1000.);
#916=VECTOR('',#1873,1000.);
#917=VECTOR('',#1874,1000.);
#918=VECTOR('',#1877,1000.);
#919=VECTOR('',#1880,1000.);
#920=VECTOR('',#1881,1000.);
#921=VECTOR('',#1882,1000.);
#922=VECTOR('',#1885,1000.);
#923=VECTOR('',#1886,1000.);
#924=VECTOR('',#1889,1000.);
#925=VECTOR('',#1890,1000.);
#926=VECTOR('',#1891,1000.);
#927=VECTOR('',#1892,1000.);
#928=VECTOR('',#1895,1000.);
#929=VECTOR('',#1896,1000.);
#930=VECTOR('',#1897,1000.);
#931=VECTOR('',#1898,1000.);
#932=VECTOR('',#1901,1000.);
#933=VECTOR('',#1902,1000.);
#934=VECTOR('',#1903,1000.);
#935=VECTOR('',#1906,1000.);
#936=VECTOR('',#1907,1000.);
#937=VECTOR('',#1908,1000.);
#938=VECTOR('',#1909,1000.);
#939=VECTOR('',#1912,1000.);
#940=VECTOR('',#1913,1000.);
#941=VECTOR('',#1914,1000.);
#942=VECTOR('',#1915,1000.);
#943=VECTOR('',#1918,1000.);
#944=VECTOR('',#1919,1000.);
#945=VECTOR('',#1920,1000.);
#946=VECTOR('',#1921,1000.);
#947=VECTOR('',#1924,1000.);
#948=VECTOR('',#1925,1000.);
#949=VECTOR('',#1926,1000.);
#950=VECTOR('',#1927,1000.);
#951=VECTOR('',#1930,1000.);
#952=VECTOR('',#1931,1000.);
#953=VECTOR('',#1932,1000.);
#954=VECTOR('',#1933,1000.);
#955=VECTOR('',#1936,1000.);
#956=VECTOR('',#1937,1000.);
#957=VECTOR('',#1938,1000.);
#958=VECTOR('',#1941,1000.);
#959=VECTOR('',#1942,1000.);
#960=VECTOR('',#1943,1000.);
#961=VECTOR('',#1944,1000.);
#962=VECTOR('',#1945,1000.);
#963=VECTOR('',#1946,1000.);
#964=VECTOR('',#1947,1000.);
#965=VECTOR('',#1950,1000.);
#966=VECTOR('',#1951,1000.);
#967=VECTOR('',#1954,1000.);
#968=VECTOR('',#1955,1000.);
#969=VECTOR('',#1956,1000.);
#970=VECTOR('',#1957,1000.);
#971=VECTOR('',#1960,1000.);
#972=VECTOR('',#1961,1000.);
#973=VECTOR('',#1962,1000.);
#974=VECTOR('',#1965,1000.);
#975=VECTOR('',#1966,1000.);
#976=VECTOR('',#1967,1000.);
#977=VECTOR('',#1970,1000.);
#978=VECTOR('',#1971,1000.);
#979=VECTOR('',#1974,1000.);
#980=VECTOR('',#1975,1000.);
#981=VECTOR('',#1976,1000.);
#982=VECTOR('',#1977,1000.);
#983=VECTOR('',#1978,1000.);
#984=VECTOR('',#1979,1000.);
#985=VECTOR('',#1980,1000.);
#986=VECTOR('',#1983,1000.);
#987=VECTOR('',#1984,1000.);
#988=VECTOR('',#1985,1000.);
#989=VECTOR('',#1986,1000.);
#990=VECTOR('',#1987,1000.);
#991=VECTOR('',#1988,1000.);
#992=VECTOR('',#1989,1000.);
#993=VECTOR('',#1990,1000.);
#994=VECTOR('',#1991,1000.);
#995=VECTOR('',#1994,1000.);
#996=VECTOR('',#1995,1000.);
#997=VECTOR('',#1998,1000.);
#998=VECTOR('',#1999,1000.);
#999=VECTOR('',#2000,1000.);
#1000=VECTOR('',#2003,1000.);
#1001=VECTOR('',#2004,1000.);
#1002=VECTOR('',#2007,1000.);
#1003=VECTOR('',#2008,1000.);
#1004=VECTOR('',#2011,1000.);
#1005=VECTOR('',#2014,1000.);
#1006=VECTOR('',#2015,1000.);
#1007=VECTOR('',#2016,1000.);
#1008=VECTOR('',#2017,1000.);
#1009=VECTOR('',#2018,1000.);
#1010=VECTOR('',#2019,1000.);
#1011=VECTOR('',#2022,1000.);
#1012=VECTOR('',#2025,1000.);
#1013=VECTOR('',#2026,1000.);
#1014=VECTOR('',#2027,1000.);
#1015=VECTOR('',#2030,1000.);
#1016=VECTOR('',#2031,1000.);
#1017=VECTOR('',#2032,1000.);
#1018=VECTOR('',#2035,1000.);
#1019=VECTOR('',#2038,1000.);
#1020=VECTOR('',#2039,1000.);
#1021=VECTOR('',#2040,1000.);
#1022=VECTOR('',#2043,1000.);
#1023=VECTOR('',#2050,1000.);
#1024=VECTOR('',#2055,1000.);
#1025=EDGE_LOOP('',(#39,#40,#41,#42));
#1026=EDGE_LOOP('',(#43,#44,#45,#46));
#1027=EDGE_LOOP('',(#47,#48,#49,#50,#51,#52,#53,#54,#55));
#1028=EDGE_LOOP('',(#56,#57,#58,#59));
#1029=EDGE_LOOP('',(#60,#61,#62,#63));
#1030=EDGE_LOOP('',(#64,#65,#66,#67,#68,#69,#70,#71));
#1031=EDGE_LOOP('',(#72,#73,#74,#75));
#1032=EDGE_LOOP('',(#76,#77,#78,#79));
#1033=EDGE_LOOP('',(#80,#81,#82,#83,#84));
#1034=EDGE_LOOP('',(#85,#86,#87,#88));
#1035=EDGE_LOOP('',(#89,#90,#91,#92));
#1036=EDGE_LOOP('',(#93,#94,#95,#96,#97));
#1037=EDGE_LOOP('',(#98,#99,#100,#101));
#1038=EDGE_LOOP('',(#102,#103,#104,#105,#106));
#1039=EDGE_LOOP('',(#107,#108,#109,#110,#111,#112,#113,#114,#115,#116));
#1040=EDGE_LOOP('',(#117,#118,#119,#120));
#1041=EDGE_LOOP('',(#121,#122,#123,#124));
#1042=EDGE_LOOP('',(#125,#126,#127,#128));
#1043=EDGE_LOOP('',(#129,#130,#131,#132));
#1044=EDGE_LOOP('',(#133,#134,#135,#136,#137));
#1045=EDGE_LOOP('',(#138,#139,#140,#141));
#1046=EDGE_LOOP('',(#142,#143,#144,#145));
#1047=EDGE_LOOP('',(#146,#147,#148,#149));
#1048=EDGE_LOOP('',(#150,#151,#152,#153,#154));
#1049=EDGE_LOOP('',(#155,#156,#157,#158,#159,#160,#161,#162,#163,#164));
#1050=EDGE_LOOP('',(#165,#166,#167,#168));
#1051=EDGE_LOOP('',(#169,#170,#171,#172));
#1052=EDGE_LOOP('',(#173,#174,#175,#176));
#1053=EDGE_LOOP('',(#177,#178,#179,#180));
#1054=EDGE_LOOP('',(#181,#182,#183,#184));
#1055=EDGE_LOOP('',(#185,#186,#187,#188,#189,#190));
#1056=EDGE_LOOP('',(#191,#192,#193,#194));
#1057=EDGE_LOOP('',(#195,#196,#197,#198));
#1058=EDGE_LOOP('',(#199,#200,#201,#202,#203,#204,#205,#206));
#1059=EDGE_LOOP('',(#207,#208,#209,#210));
#1060=EDGE_LOOP('',(#211,#212,#213,#214,#215,#216));
#1061=EDGE_LOOP('',(#217,#218,#219,#220,#221,#222));
#1062=EDGE_LOOP('',(#223,#224,#225,#226));
#1063=EDGE_LOOP('',(#227,#228,#229,#230));
#1064=EDGE_LOOP('',(#231,#232,#233,#234,#235,#236,#237,#238,#239,#240));
#1065=EDGE_LOOP('',(#241,#242,#243,#244,#245,#246,#247,#248,#249,#250,#251,
#252,#253,#254,#255,#256));
#1066=EDGE_LOOP('',(#257,#258,#259,#260));
#1067=EDGE_LOOP('',(#261,#262,#263,#264));
#1068=EDGE_LOOP('',(#265,#266,#267,#268));
#1069=EDGE_LOOP('',(#269,#270,#271,#272,#273,#274,#275,#276));
#1070=EDGE_LOOP('',(#277,#278,#279,#280,#281,#282));
#1071=EDGE_LOOP('',(#283,#284,#285,#286,#287,#288,#289,#290,#291,#292));
#1072=EDGE_LOOP('',(#293,#294,#295,#296,#297,#298,#299,#300,#301,#302,#303,
#304));
#1073=EDGE_LOOP('',(#305,#306,#307,#308,#309,#310,#311,#312,#313,#314,#315,
#316));
#1074=EDGE_LOOP('',(#317,#318,#319,#320,#321,#322));
#1075=EDGE_LOOP('',(#323,#324,#325,#326,#327,#328,#329,#330,#331,#332));
#1076=EDGE_LOOP('',(#333,#334,#335,#336));
#1077=EDGE_LOOP('',(#337,#338,#339,#340,#341,#342,#343,#344,#345,#346,#347,
#348,#349,#350,#351,#352,#353,#354,#355,#356,#357,#358));
#1078=EDGE_LOOP('',(#359,#360,#361,#362,#363,#364,#365,#366,#367,#368,#369,
#370));
#1079=EDGE_LOOP('',(#371,#372,#373,#374));
#1080=EDGE_LOOP('',(#375,#376,#377,#378));
#1081=EDGE_LOOP('',(#379,#380,#381,#382));
#1082=EDGE_LOOP('',(#383,#384,#385,#386,#387,#388));
#1083=EDGE_LOOP('',(#389,#390,#391,#392));
#1084=EDGE_LOOP('',(#393,#394,#395,#396));
#1085=FACE_BOUND('',#1025,.T.);
#1086=FACE_BOUND('',#1026,.T.);
#1087=FACE_BOUND('',#1027,.T.);
#1088=FACE_BOUND('',#1028,.T.);
#1089=FACE_BOUND('',#1029,.T.);
#1090=FACE_BOUND('',#1030,.T.);
#1091=FACE_BOUND('',#1031,.T.);
#1092=FACE_BOUND('',#1032,.T.);
#1093=FACE_BOUND('',#1033,.T.);
#1094=FACE_BOUND('',#1034,.T.);
#1095=FACE_BOUND('',#1035,.T.);
#1096=FACE_BOUND('',#1036,.T.);
#1097=FACE_BOUND('',#1037,.T.);
#1098=FACE_BOUND('',#1038,.T.);
#1099=FACE_BOUND('',#1039,.T.);
#1100=FACE_BOUND('',#1040,.T.);
#1101=FACE_BOUND('',#1041,.T.);
#1102=FACE_BOUND('',#1042,.T.);
#1103=FACE_BOUND('',#1043,.T.);
#1104=FACE_BOUND('',#1044,.T.);
#1105=FACE_BOUND('',#1045,.T.);
#1106=FACE_BOUND('',#1046,.T.);
#1107=FACE_BOUND('',#1047,.T.);
#1108=FACE_BOUND('',#1048,.T.);
#1109=FACE_BOUND('',#1049,.T.);
#1110=FACE_BOUND('',#1050,.T.);
#1111=FACE_BOUND('',#1051,.T.);
#1112=FACE_BOUND('',#1052,.T.);
#1113=FACE_BOUND('',#1053,.T.);
#1114=FACE_BOUND('',#1054,.T.);
#1115=FACE_BOUND('',#1055,.T.);
#1116=FACE_BOUND('',#1056,.T.);
#1117=FACE_BOUND('',#1057,.T.);
#1118=FACE_BOUND('',#1058,.T.);
#1119=FACE_BOUND('',#1059,.T.);
#1120=FACE_BOUND('',#1060,.T.);
#1121=FACE_BOUND('',#1061,.T.);
#1122=FACE_BOUND('',#1062,.T.);
#1123=FACE_BOUND('',#1063,.T.);
#1124=FACE_BOUND('',#1064,.T.);
#1125=FACE_BOUND('',#1065,.T.);
#1126=FACE_BOUND('',#1066,.T.);
#1127=FACE_BOUND('',#1067,.T.);
#1128=FACE_BOUND('',#1068,.T.);
#1129=FACE_BOUND('',#1069,.T.);
#1130=FACE_BOUND('',#1070,.T.);
#1131=FACE_BOUND('',#1071,.T.);
#1132=FACE_BOUND('',#1072,.T.);
#1133=FACE_BOUND('',#1073,.T.);
#1134=FACE_BOUND('',#1074,.T.);
#1135=FACE_BOUND('',#1075,.T.);
#1136=FACE_BOUND('',#1076,.T.);
#1137=FACE_BOUND('',#1077,.T.);
#1138=FACE_BOUND('',#1078,.T.);
#1139=FACE_BOUND('',#1079,.T.);
#1140=FACE_BOUND('',#1080,.T.);
#1141=FACE_BOUND('',#1081,.T.);
#1142=FACE_BOUND('',#1082,.T.);
#1143=FACE_BOUND('',#1083,.T.);
#1144=FACE_BOUND('',#1084,.T.);
#1145=PLANE('',#1677);
#1146=PLANE('',#1696);
#1147=PLANE('',#1697);
#1148=PLANE('',#1698);
#1149=PLANE('',#1699);
#1150=PLANE('',#1700);
#1151=PLANE('',#1701);
#1152=PLANE('',#1702);
#1153=PLANE('',#1703);
#1154=PLANE('',#1704);
#1155=PLANE('',#1705);
#1156=PLANE('',#1706);
#1157=PLANE('',#1707);
#1158=PLANE('',#1708);
#1159=PLANE('',#1709);
#1160=PLANE('',#1710);
#1161=PLANE('',#1711);
#1162=PLANE('',#1712);
#1163=PLANE('',#1713);
#1164=PLANE('',#1714);
#1165=PLANE('',#1715);
#1166=PLANE('',#1716);
#1167=PLANE('',#1717);
#1168=PLANE('',#1718);
#1169=PLANE('',#1719);
#1170=PLANE('',#1720);
#1171=PLANE('',#1721);
#1172=PLANE('',#1722);
#1173=PLANE('',#1723);
#1174=PLANE('',#1724);
#1175=PLANE('',#1725);
#1176=PLANE('',#1726);
#1177=PLANE('',#1727);
#1178=PLANE('',#1728);
#1179=PLANE('',#1729);
#1180=PLANE('',#1730);
#1181=PLANE('',#1731);
#1182=PLANE('',#1732);
#1183=PLANE('',#1733);
#1184=PLANE('',#1734);
#1185=PLANE('',#1735);
#1186=PLANE('',#1736);
#1187=PLANE('',#1737);
#1188=PLANE('',#1738);
#1189=PLANE('',#1739);
#1190=PLANE('',#1740);
#1191=PLANE('',#1741);
#1192=PLANE('',#1742);
#1193=PLANE('',#1743);
#1194=PLANE('',#1744);
#1195=PLANE('',#1745);
#1196=PLANE('',#1746);
#1197=PLANE('',#1747);
#1198=STYLED_ITEM('',(#1257),#1613);
#1199=STYLED_ITEM('',(#1258),#1614);
#1200=STYLED_ITEM('',(#1259),#1615);
#1201=STYLED_ITEM('',(#1260),#1616);
#1202=STYLED_ITEM('',(#1261),#1617);
#1203=STYLED_ITEM('',(#1262),#1618);
#1204=STYLED_ITEM('',(#1263),#1619);
#1205=STYLED_ITEM('',(#1264),#1620);
#1206=STYLED_ITEM('',(#1265),#1621);
#1207=STYLED_ITEM('',(#1266),#1622);
#1208=STYLED_ITEM('',(#1267),#1623);
#1209=STYLED_ITEM('',(#1268),#1624);
#1210=STYLED_ITEM('',(#1269),#1625);
#1211=STYLED_ITEM('',(#1270),#1626);
#1212=STYLED_ITEM('',(#1271),#1627);
#1213=STYLED_ITEM('',(#1272),#1628);
#1214=STYLED_ITEM('',(#1273),#1629);
#1215=STYLED_ITEM('',(#1274),#1630);
#1216=STYLED_ITEM('',(#1275),#1631);
#1217=STYLED_ITEM('',(#1276),#1632);
#1218=STYLED_ITEM('',(#1277),#1633);
#1219=STYLED_ITEM('',(#1278),#1634);
#1220=STYLED_ITEM('',(#1279),#1635);
#1221=STYLED_ITEM('',(#1280),#1636);
#1222=STYLED_ITEM('',(#1281),#1637);
#1223=STYLED_ITEM('',(#1282),#1638);
#1224=STYLED_ITEM('',(#1283),#1639);
#1225=STYLED_ITEM('',(#1284),#1640);
#1226=STYLED_ITEM('',(#1285),#1641);
#1227=STYLED_ITEM('',(#1286),#1642);
#1228=STYLED_ITEM('',(#1287),#1643);
#1229=STYLED_ITEM('',(#1288),#1644);
#1230=STYLED_ITEM('',(#1289),#1645);
#1231=STYLED_ITEM('',(#1290),#1646);
#1232=STYLED_ITEM('',(#1291),#1647);
#1233=STYLED_ITEM('',(#1292),#1648);
#1234=STYLED_ITEM('',(#1293),#1649);
#1235=STYLED_ITEM('',(#1294),#1650);
#1236=STYLED_ITEM('',(#1295),#1651);
#1237=STYLED_ITEM('',(#1296),#1652);
#1238=STYLED_ITEM('',(#1297),#1653);
#1239=STYLED_ITEM('',(#1298),#1654);
#1240=STYLED_ITEM('',(#1299),#1655);
#1241=STYLED_ITEM('',(#1300),#1656);
#1242=STYLED_ITEM('',(#1301),#1657);
#1243=STYLED_ITEM('',(#1302),#1658);
#1244=STYLED_ITEM('',(#1303),#1659);
#1245=STYLED_ITEM('',(#1304),#1660);
#1246=STYLED_ITEM('',(#1305),#1661);
#1247=STYLED_ITEM('',(#1306),#1662);
#1248=STYLED_ITEM('',(#1307),#1663);
#1249=STYLED_ITEM('',(#1308),#1664);
#1250=STYLED_ITEM('',(#1309),#1665);
#1251=STYLED_ITEM('',(#1310),#1666);
#1252=STYLED_ITEM('',(#1311),#1667);
#1253=STYLED_ITEM('',(#1312),#1668);
#1254=STYLED_ITEM('',(#1313),#1669);
#1255=STYLED_ITEM('',(#1314),#1670);
#1256=STYLED_ITEM('',(#1315),#1671);
#1257=PRESENTATION_STYLE_ASSIGNMENT((#1316));
#1258=PRESENTATION_STYLE_ASSIGNMENT((#1317));
#1259=PRESENTATION_STYLE_ASSIGNMENT((#1318));
#1260=PRESENTATION_STYLE_ASSIGNMENT((#1319));
#1261=PRESENTATION_STYLE_ASSIGNMENT((#1320));
#1262=PRESENTATION_STYLE_ASSIGNMENT((#1321));
#1263=PRESENTATION_STYLE_ASSIGNMENT((#1322));
#1264=PRESENTATION_STYLE_ASSIGNMENT((#1323));
#1265=PRESENTATION_STYLE_ASSIGNMENT((#1324));
#1266=PRESENTATION_STYLE_ASSIGNMENT((#1325));
#1267=PRESENTATION_STYLE_ASSIGNMENT((#1326));
#1268=PRESENTATION_STYLE_ASSIGNMENT((#1327));
#1269=PRESENTATION_STYLE_ASSIGNMENT((#1328));
#1270=PRESENTATION_STYLE_ASSIGNMENT((#1329));
#1271=PRESENTATION_STYLE_ASSIGNMENT((#1330));
#1272=PRESENTATION_STYLE_ASSIGNMENT((#1331));
#1273=PRESENTATION_STYLE_ASSIGNMENT((#1332));
#1274=PRESENTATION_STYLE_ASSIGNMENT((#1333));
#1275=PRESENTATION_STYLE_ASSIGNMENT((#1334));
#1276=PRESENTATION_STYLE_ASSIGNMENT((#1335));
#1277=PRESENTATION_STYLE_ASSIGNMENT((#1336));
#1278=PRESENTATION_STYLE_ASSIGNMENT((#1337));
#1279=PRESENTATION_STYLE_ASSIGNMENT((#1338));
#1280=PRESENTATION_STYLE_ASSIGNMENT((#1339));
#1281=PRESENTATION_STYLE_ASSIGNMENT((#1340));
#1282=PRESENTATION_STYLE_ASSIGNMENT((#1341));
#1283=PRESENTATION_STYLE_ASSIGNMENT((#1342));
#1284=PRESENTATION_STYLE_ASSIGNMENT((#1343));
#1285=PRESENTATION_STYLE_ASSIGNMENT((#1344));
#1286=PRESENTATION_STYLE_ASSIGNMENT((#1345));
#1287=PRESENTATION_STYLE_ASSIGNMENT((#1346));
#1288=PRESENTATION_STYLE_ASSIGNMENT((#1347));
#1289=PRESENTATION_STYLE_ASSIGNMENT((#1348));
#1290=PRESENTATION_STYLE_ASSIGNMENT((#1349));
#1291=PRESENTATION_STYLE_ASSIGNMENT((#1350));
#1292=PRESENTATION_STYLE_ASSIGNMENT((#1351));
#1293=PRESENTATION_STYLE_ASSIGNMENT((#1352));
#1294=PRESENTATION_STYLE_ASSIGNMENT((#1353));
#1295=PRESENTATION_STYLE_ASSIGNMENT((#1354));
#1296=PRESENTATION_STYLE_ASSIGNMENT((#1355));
#1297=PRESENTATION_STYLE_ASSIGNMENT((#1356));
#1298=PRESENTATION_STYLE_ASSIGNMENT((#1357));
#1299=PRESENTATION_STYLE_ASSIGNMENT((#1358));
#1300=PRESENTATION_STYLE_ASSIGNMENT((#1359));
#1301=PRESENTATION_STYLE_ASSIGNMENT((#1360));
#1302=PRESENTATION_STYLE_ASSIGNMENT((#1361));
#1303=PRESENTATION_STYLE_ASSIGNMENT((#1362));
#1304=PRESENTATION_STYLE_ASSIGNMENT((#1363));
#1305=PRESENTATION_STYLE_ASSIGNMENT((#1364));
#1306=PRESENTATION_STYLE_ASSIGNMENT((#1365));
#1307=PRESENTATION_STYLE_ASSIGNMENT((#1366));
#1308=PRESENTATION_STYLE_ASSIGNMENT((#1367));
#1309=PRESENTATION_STYLE_ASSIGNMENT((#1368));
#1310=PRESENTATION_STYLE_ASSIGNMENT((#1369));
#1311=PRESENTATION_STYLE_ASSIGNMENT((#1370));
#1312=PRESENTATION_STYLE_ASSIGNMENT((#1371));
#1313=PRESENTATION_STYLE_ASSIGNMENT((#1372));
#1314=PRESENTATION_STYLE_ASSIGNMENT((#1373));
#1315=PRESENTATION_STYLE_ASSIGNMENT((#1374));
#1316=SURFACE_STYLE_USAGE(.BOTH.,#1375);
#1317=SURFACE_STYLE_USAGE(.BOTH.,#1376);
#1318=SURFACE_STYLE_USAGE(.BOTH.,#1377);
#1319=SURFACE_STYLE_USAGE(.BOTH.,#1378);
#1320=SURFACE_STYLE_USAGE(.BOTH.,#1379);
#1321=SURFACE_STYLE_USAGE(.BOTH.,#1380);
#1322=SURFACE_STYLE_USAGE(.BOTH.,#1381);
#1323=SURFACE_STYLE_USAGE(.BOTH.,#1382);
#1324=SURFACE_STYLE_USAGE(.BOTH.,#1383);
#1325=SURFACE_STYLE_USAGE(.BOTH.,#1384);
#1326=SURFACE_STYLE_USAGE(.BOTH.,#1385);
#1327=SURFACE_STYLE_USAGE(.BOTH.,#1386);
#1328=SURFACE_STYLE_USAGE(.BOTH.,#1387);
#1329=SURFACE_STYLE_USAGE(.BOTH.,#1388);
#1330=SURFACE_STYLE_USAGE(.BOTH.,#1389);
#1331=SURFACE_STYLE_USAGE(.BOTH.,#1390);
#1332=SURFACE_STYLE_USAGE(.BOTH.,#1391);
#1333=SURFACE_STYLE_USAGE(.BOTH.,#1392);
#1334=SURFACE_STYLE_USAGE(.BOTH.,#1393);
#1335=SURFACE_STYLE_USAGE(.BOTH.,#1394);
#1336=SURFACE_STYLE_USAGE(.BOTH.,#1395);
#1337=SURFACE_STYLE_USAGE(.BOTH.,#1396);
#1338=SURFACE_STYLE_USAGE(.BOTH.,#1397);
#1339=SURFACE_STYLE_USAGE(.BOTH.,#1398);
#1340=SURFACE_STYLE_USAGE(.BOTH.,#1399);
#1341=SURFACE_STYLE_USAGE(.BOTH.,#1400);
#1342=SURFACE_STYLE_USAGE(.BOTH.,#1401);
#1343=SURFACE_STYLE_USAGE(.BOTH.,#1402);
#1344=SURFACE_STYLE_USAGE(.BOTH.,#1403);
#1345=SURFACE_STYLE_USAGE(.BOTH.,#1404);
#1346=SURFACE_STYLE_USAGE(.BOTH.,#1405);
#1347=SURFACE_STYLE_USAGE(.BOTH.,#1406);
#1348=SURFACE_STYLE_USAGE(.BOTH.,#1407);
#1349=SURFACE_STYLE_USAGE(.BOTH.,#1408);
#1350=SURFACE_STYLE_USAGE(.BOTH.,#1409);
#1351=SURFACE_STYLE_USAGE(.BOTH.,#1410);
#1352=SURFACE_STYLE_USAGE(.BOTH.,#1411);
#1353=SURFACE_STYLE_USAGE(.BOTH.,#1412);
#1354=SURFACE_STYLE_USAGE(.BOTH.,#1413);
#1355=SURFACE_STYLE_USAGE(.BOTH.,#1414);
#1356=SURFACE_STYLE_USAGE(.BOTH.,#1415);
#1357=SURFACE_STYLE_USAGE(.BOTH.,#1416);
#1358=SURFACE_STYLE_USAGE(.BOTH.,#1417);
#1359=SURFACE_STYLE_USAGE(.BOTH.,#1418);
#1360=SURFACE_STYLE_USAGE(.BOTH.,#1419);
#1361=SURFACE_STYLE_USAGE(.BOTH.,#1420);
#1362=SURFACE_STYLE_USAGE(.BOTH.,#1421);
#1363=SURFACE_STYLE_USAGE(.BOTH.,#1422);
#1364=SURFACE_STYLE_USAGE(.BOTH.,#1423);
#1365=SURFACE_STYLE_USAGE(.BOTH.,#1424);
#1366=SURFACE_STYLE_USAGE(.BOTH.,#1425);
#1367=SURFACE_STYLE_USAGE(.BOTH.,#1426);
#1368=SURFACE_STYLE_USAGE(.BOTH.,#1427);
#1369=SURFACE_STYLE_USAGE(.BOTH.,#1428);
#1370=SURFACE_STYLE_USAGE(.BOTH.,#1429);
#1371=SURFACE_STYLE_USAGE(.BOTH.,#1430);
#1372=SURFACE_STYLE_USAGE(.BOTH.,#1431);
#1373=SURFACE_STYLE_USAGE(.BOTH.,#1432);
#1374=SURFACE_STYLE_USAGE(.BOTH.,#1433);
#1375=SURFACE_SIDE_STYLE('',(#1434));
#1376=SURFACE_SIDE_STYLE('',(#1435));
#1377=SURFACE_SIDE_STYLE('',(#1436));
#1378=SURFACE_SIDE_STYLE('',(#1437));
#1379=SURFACE_SIDE_STYLE('',(#1438));
#1380=SURFACE_SIDE_STYLE('',(#1439));
#1381=SURFACE_SIDE_STYLE('',(#1440));
#1382=SURFACE_SIDE_STYLE('',(#1441));
#1383=SURFACE_SIDE_STYLE('',(#1442));
#1384=SURFACE_SIDE_STYLE('',(#1443));
#1385=SURFACE_SIDE_STYLE('',(#1444));
#1386=SURFACE_SIDE_STYLE('',(#1445));
#1387=SURFACE_SIDE_STYLE('',(#1446));
#1388=SURFACE_SIDE_STYLE('',(#1447));
#1389=SURFACE_SIDE_STYLE('',(#1448));
#1390=SURFACE_SIDE_STYLE('',(#1449));
#1391=SURFACE_SIDE_STYLE('',(#1450));
#1392=SURFACE_SIDE_STYLE('',(#1451));
#1393=SURFACE_SIDE_STYLE('',(#1452));
#1394=SURFACE_SIDE_STYLE('',(#1453));
#1395=SURFACE_SIDE_STYLE('',(#1454));
#1396=SURFACE_SIDE_STYLE('',(#1455));
#1397=SURFACE_SIDE_STYLE('',(#1456));
#1398=SURFACE_SIDE_STYLE('',(#1457));
#1399=SURFACE_SIDE_STYLE('',(#1458));
#1400=SURFACE_SIDE_STYLE('',(#1459));
#1401=SURFACE_SIDE_STYLE('',(#1460));
#1402=SURFACE_SIDE_STYLE('',(#1461));
#1403=SURFACE_SIDE_STYLE('',(#1462));
#1404=SURFACE_SIDE_STYLE('',(#1463));
#1405=SURFACE_SIDE_STYLE('',(#1464));
#1406=SURFACE_SIDE_STYLE('',(#1465));
#1407=SURFACE_SIDE_STYLE('',(#1466));
#1408=SURFACE_SIDE_STYLE('',(#1467));
#1409=SURFACE_SIDE_STYLE('',(#1468));
#1410=SURFACE_SIDE_STYLE('',(#1469));
#1411=SURFACE_SIDE_STYLE('',(#1470));
#1412=SURFACE_SIDE_STYLE('',(#1471));
#1413=SURFACE_SIDE_STYLE('',(#1472));
#1414=SURFACE_SIDE_STYLE('',(#1473));
#1415=SURFACE_SIDE_STYLE('',(#1474));
#1416=SURFACE_SIDE_STYLE('',(#1475));
#1417=SURFACE_SIDE_STYLE('',(#1476));
#1418=SURFACE_SIDE_STYLE('',(#1477));
#1419=SURFACE_SIDE_STYLE('',(#1478));
#1420=SURFACE_SIDE_STYLE('',(#1479));
#1421=SURFACE_SIDE_STYLE('',(#1480));
#1422=SURFACE_SIDE_STYLE('',(#1481));
#1423=SURFACE_SIDE_STYLE('',(#1482));
#1424=SURFACE_SIDE_STYLE('',(#1483));
#1425=SURFACE_SIDE_STYLE('',(#1484));
#1426=SURFACE_SIDE_STYLE('',(#1485));
#1427=SURFACE_SIDE_STYLE('',(#1486));
#1428=SURFACE_SIDE_STYLE('',(#1487));
#1429=SURFACE_SIDE_STYLE('',(#1488));
#1430=SURFACE_SIDE_STYLE('',(#1489));
#1431=SURFACE_SIDE_STYLE('',(#1490));
#1432=SURFACE_SIDE_STYLE('',(#1491));
#1433=SURFACE_SIDE_STYLE('',(#1492));
#1434=SURFACE_STYLE_FILL_AREA(#1493);
#1435=SURFACE_STYLE_FILL_AREA(#1494);
#1436=SURFACE_STYLE_FILL_AREA(#1495);
#1437=SURFACE_STYLE_FILL_AREA(#1496);
#1438=SURFACE_STYLE_FILL_AREA(#1497);
#1439=SURFACE_STYLE_FILL_AREA(#1498);
#1440=SURFACE_STYLE_FILL_AREA(#1499);
#1441=SURFACE_STYLE_FILL_AREA(#1500);
#1442=SURFACE_STYLE_FILL_AREA(#1501);
#1443=SURFACE_STYLE_FILL_AREA(#1502);
#1444=SURFACE_STYLE_FILL_AREA(#1503);
#1445=SURFACE_STYLE_FILL_AREA(#1504);
#1446=SURFACE_STYLE_FILL_AREA(#1505);
#1447=SURFACE_STYLE_FILL_AREA(#1506);
#1448=SURFACE_STYLE_FILL_AREA(#1507);
#1449=SURFACE_STYLE_FILL_AREA(#1508);
#1450=SURFACE_STYLE_FILL_AREA(#1509);
#1451=SURFACE_STYLE_FILL_AREA(#1510);
#1452=SURFACE_STYLE_FILL_AREA(#1511);
#1453=SURFACE_STYLE_FILL_AREA(#1512);
#1454=SURFACE_STYLE_FILL_AREA(#1513);
#1455=SURFACE_STYLE_FILL_AREA(#1514);
#1456=SURFACE_STYLE_FILL_AREA(#1515);
#1457=SURFACE_STYLE_FILL_AREA(#1516);
#1458=SURFACE_STYLE_FILL_AREA(#1517);
#1459=SURFACE_STYLE_FILL_AREA(#1518);
#1460=SURFACE_STYLE_FILL_AREA(#1519);
#1461=SURFACE_STYLE_FILL_AREA(#1520);
#1462=SURFACE_STYLE_FILL_AREA(#1521);
#1463=SURFACE_STYLE_FILL_AREA(#1522);
#1464=SURFACE_STYLE_FILL_AREA(#1523);
#1465=SURFACE_STYLE_FILL_AREA(#1524);
#1466=SURFACE_STYLE_FILL_AREA(#1525);
#1467=SURFACE_STYLE_FILL_AREA(#1526);
#1468=SURFACE_STYLE_FILL_AREA(#1527);
#1469=SURFACE_STYLE_FILL_AREA(#1528);
#1470=SURFACE_STYLE_FILL_AREA(#1529);
#1471=SURFACE_STYLE_FILL_AREA(#1530);
#1472=SURFACE_STYLE_FILL_AREA(#1531);
#1473=SURFACE_STYLE_FILL_AREA(#1532);
#1474=SURFACE_STYLE_FILL_AREA(#1533);
#1475=SURFACE_STYLE_FILL_AREA(#1534);
#1476=SURFACE_STYLE_FILL_AREA(#1535);
#1477=SURFACE_STYLE_FILL_AREA(#1536);
#1478=SURFACE_STYLE_FILL_AREA(#1537);
#1479=SURFACE_STYLE_FILL_AREA(#1538);
#1480=SURFACE_STYLE_FILL_AREA(#1539);
#1481=SURFACE_STYLE_FILL_AREA(#1540);
#1482=SURFACE_STYLE_FILL_AREA(#1541);
#1483=SURFACE_STYLE_FILL_AREA(#1542);
#1484=SURFACE_STYLE_FILL_AREA(#1543);
#1485=SURFACE_STYLE_FILL_AREA(#1544);
#1486=SURFACE_STYLE_FILL_AREA(#1545);
#1487=SURFACE_STYLE_FILL_AREA(#1546);
#1488=SURFACE_STYLE_FILL_AREA(#1547);
#1489=SURFACE_STYLE_FILL_AREA(#1548);
#1490=SURFACE_STYLE_FILL_AREA(#1549);
#1491=SURFACE_STYLE_FILL_AREA(#1550);
#1492=SURFACE_STYLE_FILL_AREA(#1551);
#1493=FILL_AREA_STYLE('',(#1552));
#1494=FILL_AREA_STYLE('',(#1553));
#1495=FILL_AREA_STYLE('',(#1554));
#1496=FILL_AREA_STYLE('',(#1555));
#1497=FILL_AREA_STYLE('',(#1556));
#1498=FILL_AREA_STYLE('',(#1557));
#1499=FILL_AREA_STYLE('',(#1558));
#1500=FILL_AREA_STYLE('',(#1559));
#1501=FILL_AREA_STYLE('',(#1560));
#1502=FILL_AREA_STYLE('',(#1561));
#1503=FILL_AREA_STYLE('',(#1562));
#1504=FILL_AREA_STYLE('',(#1563));
#1505=FILL_AREA_STYLE('',(#1564));
#1506=FILL_AREA_STYLE('',(#1565));
#1507=FILL_AREA_STYLE('',(#1566));
#1508=FILL_AREA_STYLE('',(#1567));
#1509=FILL_AREA_STYLE('',(#1568));
#1510=FILL_AREA_STYLE('',(#1569));
#1511=FILL_AREA_STYLE('',(#1570));
#1512=FILL_AREA_STYLE('',(#1571));
#1513=FILL_AREA_STYLE('',(#1572));
#1514=FILL_AREA_STYLE('',(#1573));
#1515=FILL_AREA_STYLE('',(#1574));
#1516=FILL_AREA_STYLE('',(#1575));
#1517=FILL_AREA_STYLE('',(#1576));
#1518=FILL_AREA_STYLE('',(#1577));
#1519=FILL_AREA_STYLE('',(#1578));
#1520=FILL_AREA_STYLE('',(#1579));
#1521=FILL_AREA_STYLE('',(#1580));
#1522=FILL_AREA_STYLE('',(#1581));
#1523=FILL_AREA_STYLE('',(#1582));
#1524=FILL_AREA_STYLE('',(#1583));
#1525=FILL_AREA_STYLE('',(#1584));
#1526=FILL_AREA_STYLE('',(#1585));
#1527=FILL_AREA_STYLE('',(#1586));
#1528=FILL_AREA_STYLE('',(#1587));
#1529=FILL_AREA_STYLE('',(#1588));
#1530=FILL_AREA_STYLE('',(#1589));
#1531=FILL_AREA_STYLE('',(#1590));
#1532=FILL_AREA_STYLE('',(#1591));
#1533=FILL_AREA_STYLE('',(#1592));
#1534=FILL_AREA_STYLE('',(#1593));
#1535=FILL_AREA_STYLE('',(#1594));
#1536=FILL_AREA_STYLE('',(#1595));
#1537=FILL_AREA_STYLE('',(#1596));
#1538=FILL_AREA_STYLE('',(#1597));
#1539=FILL_AREA_STYLE('',(#1598));
#1540=FILL_AREA_STYLE('',(#1599));
#1541=FILL_AREA_STYLE('',(#1600));
#1542=FILL_AREA_STYLE('',(#1601));
#1543=FILL_AREA_STYLE('',(#1602));
#1544=FILL_AREA_STYLE('',(#1603));
#1545=FILL_AREA_STYLE('',(#1604));
#1546=FILL_AREA_STYLE('',(#1605));
#1547=FILL_AREA_STYLE('',(#1606));
#1548=FILL_AREA_STYLE('',(#1607));
#1549=FILL_AREA_STYLE('',(#1608));
#1550=FILL_AREA_STYLE('',(#1609));
#1551=FILL_AREA_STYLE('',(#1610));
#1552=FILL_AREA_STYLE_COLOUR('',#1611);
#1553=FILL_AREA_STYLE_COLOUR('',#1611);
#1554=FILL_AREA_STYLE_COLOUR('',#1611);
#1555=FILL_AREA_STYLE_COLOUR('',#1611);
#1556=FILL_AREA_STYLE_COLOUR('',#1611);
#1557=FILL_AREA_STYLE_COLOUR('',#1611);
#1558=FILL_AREA_STYLE_COLOUR('',#1611);
#1559=FILL_AREA_STYLE_COLOUR('',#1611);
#1560=FILL_AREA_STYLE_COLOUR('',#1611);
#1561=FILL_AREA_STYLE_COLOUR('',#1611);
#1562=FILL_AREA_STYLE_COLOUR('',#1611);
#1563=FILL_AREA_STYLE_COLOUR('',#1611);
#1564=FILL_AREA_STYLE_COLOUR('',#1611);
#1565=FILL_AREA_STYLE_COLOUR('',#1611);
#1566=FILL_AREA_STYLE_COLOUR('',#1611);
#1567=FILL_AREA_STYLE_COLOUR('',#1611);
#1568=FILL_AREA_STYLE_COLOUR('',#1611);
#1569=FILL_AREA_STYLE_COLOUR('',#1611);
#1570=FILL_AREA_STYLE_COLOUR('',#1611);
#1571=FILL_AREA_STYLE_COLOUR('',#1611);
#1572=FILL_AREA_STYLE_COLOUR('',#1611);
#1573=FILL_AREA_STYLE_COLOUR('',#1611);
#1574=FILL_AREA_STYLE_COLOUR('',#1611);
#1575=FILL_AREA_STYLE_COLOUR('',#1611);
#1576=FILL_AREA_STYLE_COLOUR('',#1611);
#1577=FILL_AREA_STYLE_COLOUR('',#1611);
#1578=FILL_AREA_STYLE_COLOUR('',#1611);
#1579=FILL_AREA_STYLE_COLOUR('',#1612);
#1580=FILL_AREA_STYLE_COLOUR('',#1611);
#1581=FILL_AREA_STYLE_COLOUR('',#1611);
#1582=FILL_AREA_STYLE_COLOUR('',#1611);
#1583=FILL_AREA_STYLE_COLOUR('',#1611);
#1584=FILL_AREA_STYLE_COLOUR('',#1611);
#1585=FILL_AREA_STYLE_COLOUR('',#1611);
#1586=FILL_AREA_STYLE_COLOUR('',#1611);
#1587=FILL_AREA_STYLE_COLOUR('',#1611);
#1588=FILL_AREA_STYLE_COLOUR('',#1611);
#1589=FILL_AREA_STYLE_COLOUR('',#1611);
#1590=FILL_AREA_STYLE_COLOUR('',#1611);
#1591=FILL_AREA_STYLE_COLOUR('',#1611);
#1592=FILL_AREA_STYLE_COLOUR('',#1611);
#1593=FILL_AREA_STYLE_COLOUR('',#1611);
#1594=FILL_AREA_STYLE_COLOUR('',#1611);
#1595=FILL_AREA_STYLE_COLOUR('',#1611);
#1596=FILL_AREA_STYLE_COLOUR('',#1611);
#1597=FILL_AREA_STYLE_COLOUR('',#1611);
#1598=FILL_AREA_STYLE_COLOUR('',#1611);
#1599=FILL_AREA_STYLE_COLOUR('',#1611);
#1600=FILL_AREA_STYLE_COLOUR('',#1611);
#1601=FILL_AREA_STYLE_COLOUR('',#1611);
#1602=FILL_AREA_STYLE_COLOUR('',#1611);
#1603=FILL_AREA_STYLE_COLOUR('',#1611);
#1604=FILL_AREA_STYLE_COLOUR('',#1611);
#1605=FILL_AREA_STYLE_COLOUR('',#1611);
#1606=FILL_AREA_STYLE_COLOUR('',#1611);
#1607=FILL_AREA_STYLE_COLOUR('',#1611);
#1608=FILL_AREA_STYLE_COLOUR('',#1611);
#1609=FILL_AREA_STYLE_COLOUR('',#1612);
#1610=FILL_AREA_STYLE_COLOUR('',#1612);
#1611=COLOUR_RGB('',0.439215689897537,0.501960813999176,0.501960813999176);
#1612=COLOUR_RGB('',0.506983280181885,0.531564235687256,0.550000011920929);
#1613=ADVANCED_FACE('',(#1085),#1145,.F.);
#1614=ADVANCED_FACE('',(#1086),#33,.T.);
#1615=ADVANCED_FACE('',(#1087),#34,.T.);
#1616=ADVANCED_FACE('',(#1088),#35,.T.);
#1617=ADVANCED_FACE('',(#1089),#36,.T.);
#1618=ADVANCED_FACE('',(#1090),#37,.T.);
#1619=ADVANCED_FACE('',(#1091),#38,.T.);
#1620=ADVANCED_FACE('',(#1092),#1146,.F.);
#1621=ADVANCED_FACE('',(#1093),#1147,.F.);
#1622=ADVANCED_FACE('',(#1094),#1148,.F.);
#1623=ADVANCED_FACE('',(#1095),#1149,.F.);
#1624=ADVANCED_FACE('',(#1096),#1150,.F.);
#1625=ADVANCED_FACE('',(#1097),#1151,.F.);
#1626=ADVANCED_FACE('',(#1098),#1152,.F.);
#1627=ADVANCED_FACE('',(#1099),#1153,.F.);
#1628=ADVANCED_FACE('',(#1100),#1154,.T.);
#1629=ADVANCED_FACE('',(#1101),#1155,.T.);
#1630=ADVANCED_FACE('',(#1102),#1156,.F.);
#1631=ADVANCED_FACE('',(#1103),#1157,.F.);
#1632=ADVANCED_FACE('',(#1104),#1158,.F.);
#1633=ADVANCED_FACE('',(#1105),#1159,.F.);
#1634=ADVANCED_FACE('',(#1106),#1160,.F.);
#1635=ADVANCED_FACE('',(#1107),#1161,.F.);
#1636=ADVANCED_FACE('',(#1108),#1162,.F.);
#1637=ADVANCED_FACE('',(#1109),#1163,.F.);
#1638=ADVANCED_FACE('',(#1110),#1164,.T.);
#1639=ADVANCED_FACE('',(#1111),#1165,.T.);
#1640=ADVANCED_FACE('',(#1112),#1166,.T.);
#1641=ADVANCED_FACE('',(#1113),#1167,.T.);
#1642=ADVANCED_FACE('',(#1114),#1168,.T.);
#1643=ADVANCED_FACE('',(#1115),#1169,.F.);
#1644=ADVANCED_FACE('',(#1116),#1170,.T.);
#1645=ADVANCED_FACE('',(#1117),#1171,.F.);
#1646=ADVANCED_FACE('',(#1118),#1172,.T.);
#1647=ADVANCED_FACE('',(#1119),#1173,.F.);
#1648=ADVANCED_FACE('',(#1120),#1174,.T.);
#1649=ADVANCED_FACE('',(#1121),#1175,.T.);
#1650=ADVANCED_FACE('',(#1122),#1176,.T.);
#1651=ADVANCED_FACE('',(#1123),#1177,.T.);
#1652=ADVANCED_FACE('',(#1124),#1178,.F.);
#1653=ADVANCED_FACE('',(#1125),#1179,.F.);
#1654=ADVANCED_FACE('',(#1126,#1127),#1180,.F.);
#1655=ADVANCED_FACE('',(#1128),#1181,.F.);
#1656=ADVANCED_FACE('',(#1129),#1182,.F.);
#1657=ADVANCED_FACE('',(#1130),#1183,.F.);
#1658=ADVANCED_FACE('',(#1131),#1184,.T.);
#1659=ADVANCED_FACE('',(#1132),#1185,.T.);
#1660=ADVANCED_FACE('',(#1133),#1186,.F.);
#1661=ADVANCED_FACE('',(#1134),#1187,.F.);
#1662=ADVANCED_FACE('',(#1135),#1188,.F.);
#1663=ADVANCED_FACE('',(#1136),#1189,.F.);
#1664=ADVANCED_FACE('',(#1137),#1190,.F.);
#1665=ADVANCED_FACE('',(#1138),#1191,.F.);
#1666=ADVANCED_FACE('',(#1139),#1192,.F.);
#1667=ADVANCED_FACE('',(#1140),#1193,.F.);
#1668=ADVANCED_FACE('',(#1141),#1194,.T.);
#1669=ADVANCED_FACE('',(#1142),#1195,.F.);
#1670=ADVANCED_FACE('',(#1143),#1196,.F.);
#1671=ADVANCED_FACE('',(#1144),#1197,.T.);
#1672=CLOSED_SHELL('',(#1613,#1614,#1615,#1616,#1617,#1618,#1619,#1620,
#1621,#1622,#1623,#1624,#1625,#1626,#1627,#1628,#1629,#1630,#1631,#1632,
#1633,#1634,#1635,#1636,#1637,#1638,#1639,#1640,#1641,#1642,#1643,#1644,
#1645,#1646,#1647,#1648,#1649,#1650,#1651,#1652,#1653,#1654,#1655,#1656,
#1657,#1658,#1659,#1660,#1661,#1662,#1663,#1664,#1665,#1666,#1667,#1668,
#1669,#1670,#1671));
#1673=MANIFOLD_SOLID_BREP('',#1672);
#1674=SHAPE_DEFINITION_REPRESENTATION(#2423,#1675);
#1675=SHAPE_REPRESENTATION('PrintNormalBatterySpace_nofeet',(#1676),#2418);
#1676=AXIS2_PLACEMENT_3D('',#2058,#1748,#1749);
#1677=AXIS2_PLACEMENT_3D('',#2059,#1750,#1751);
#1678=AXIS2_PLACEMENT_3D('',#2068,#1756,#1757);
#1679=AXIS2_PLACEMENT_3D('',#2069,#1758,#1759);
#1680=AXIS2_PLACEMENT_3D('',#2074,#1761,#1762);
#1681=AXIS2_PLACEMENT_3D('',#2077,#1764,#1765);
#1682=AXIS2_PLACEMENT_3D('',#2078,#1766,#1767);
#1683=AXIS2_PLACEMENT_3D('',#2084,#1770,#1771);
#1684=AXIS2_PLACEMENT_3D('',#2088,#1773,#1774);
#1685=AXIS2_PLACEMENT_3D('',#2093,#1777,#1778);
#1686=AXIS2_PLACEMENT_3D('',#2094,#1779,#1780);
#1687=AXIS2_PLACEMENT_3D('',#2099,#1783,#1784);
#1688=AXIS2_PLACEMENT_3D('',#2100,#1785,#1786);
#1689=AXIS2_PLACEMENT_3D('',#2105,#1788,#1789);
#1690=AXIS2_PLACEMENT_3D('',#2108,#1791,#1792);
#1691=AXIS2_PLACEMENT_3D('',#2109,#1793,#1794);
#1692=AXIS2_PLACEMENT_3D('',#2114,#1796,#1797);
#1693=AXIS2_PLACEMENT_3D('',#2118,#1799,#1800);
#1694=AXIS2_PLACEMENT_3D('',#2122,#1803,#1804);
#1695=AXIS2_PLACEMENT_3D('',#2123,#1805,#1806);
#1696=AXIS2_PLACEMENT_3D('',#2128,#1809,#1810);
#1697=AXIS2_PLACEMENT_3D('',#2137,#1813,#1814);
#1698=AXIS2_PLACEMENT_3D('',#2145,#1819,#1820);
#1699=AXIS2_PLACEMENT_3D('',#2149,#1823,#1824);
#1700=AXIS2_PLACEMENT_3D('',#2151,#1826,#1827);
#1701=AXIS2_PLACEMENT_3D('',#2157,#1831,#1832);
#1702=AXIS2_PLACEMENT_3D('',#2161,#1835,#1836);
#1703=AXIS2_PLACEMENT_3D('',#2165,#1839,#1840);
#1704=AXIS2_PLACEMENT_3D('',#2168,#1843,#1844);
#1705=AXIS2_PLACEMENT_3D('',#2177,#1849,#1850);
#1706=AXIS2_PLACEMENT_3D('',#2183,#1854,#1855);
#1707=AXIS2_PLACEMENT_3D('',#2192,#1860,#1861);
#1708=AXIS2_PLACEMENT_3D('',#2198,#1865,#1866);
#1709=AXIS2_PLACEMENT_3D('',#2206,#1871,#1872);
#1710=AXIS2_PLACEMENT_3D('',#2210,#1875,#1876);
#1711=AXIS2_PLACEMENT_3D('',#2212,#1878,#1879);
#1712=AXIS2_PLACEMENT_3D('',#2218,#1883,#1884);
#1713=AXIS2_PLACEMENT_3D('',#2222,#1887,#1888);
#1714=AXIS2_PLACEMENT_3D('',#2229,#1893,#1894);
#1715=AXIS2_PLACEMENT_3D('',#2238,#1899,#1900);
#1716=AXIS2_PLACEMENT_3D('',#2244,#1904,#1905);
#1717=AXIS2_PLACEMENT_3D('',#2253,#1910,#1911);
#1718=AXIS2_PLACEMENT_3D('',#2262,#1916,#1917);
#1719=AXIS2_PLACEMENT_3D('',#2271,#1922,#1923);
#1720=AXIS2_PLACEMENT_3D('',#2278,#1928,#1929);
#1721=AXIS2_PLACEMENT_3D('',#2287,#1934,#1935);
#1722=AXIS2_PLACEMENT_3D('',#2293,#1939,#1940);
#1723=AXIS2_PLACEMENT_3D('',#2307,#1948,#1949);
#1724=AXIS2_PLACEMENT_3D('',#2310,#1952,#1953);
#1725=AXIS2_PLACEMENT_3D('',#2318,#1958,#1959);
#1726=AXIS2_PLACEMENT_3D('',#2324,#1963,#1964);
#1727=AXIS2_PLACEMENT_3D('',#2330,#1968,#1969);
#1728=AXIS2_PLACEMENT_3D('',#2333,#1972,#1973);
#1729=AXIS2_PLACEMENT_3D('',#2346,#1981,#1982);
#1730=AXIS2_PLACEMENT_3D('',#2361,#1992,#1993);
#1731=AXIS2_PLACEMENT_3D('',#2364,#1996,#1997);
#1732=AXIS2_PLACEMENT_3D('',#2370,#2001,#2002);
#1733=AXIS2_PLACEMENT_3D('',#2373,#2005,#2006);
#1734=AXIS2_PLACEMENT_3D('',#2377,#2009,#2010);
#1735=AXIS2_PLACEMENT_3D('',#2379,#2012,#2013);
#1736=AXIS2_PLACEMENT_3D('',#2388,#2020,#2021);
#1737=AXIS2_PLACEMENT_3D('',#2390,#2023,#2024);
#1738=AXIS2_PLACEMENT_3D('',#2395,#2028,#2029);
#1739=AXIS2_PLACEMENT_3D('',#2400,#2033,#2034);
#1740=AXIS2_PLACEMENT_3D('',#2402,#2036,#2037);
#1741=AXIS2_PLACEMENT_3D('',#2407,#2041,#2042);
#1742=AXIS2_PLACEMENT_3D('',#2409,#2044,#2045);
#1743=AXIS2_PLACEMENT_3D('',#2410,#2046,#2047);
#1744=AXIS2_PLACEMENT_3D('',#2411,#2048,#2049);
#1745=AXIS2_PLACEMENT_3D('',#2413,#2051,#2052);
#1746=AXIS2_PLACEMENT_3D('',#2414,#2053,#2054);
#1747=AXIS2_PLACEMENT_3D('',#2416,#2056,#2057);
#1748=DIRECTION('',(0.,0.,1.));
#1749=DIRECTION('',(1.,0.,0.));
#1750=DIRECTION('',(0.,-0.624695047554424,-0.780868809443031));
#1751=DIRECTION('',(0.,0.780868809443031,-0.624695047554424));
#1752=DIRECTION('',(0.,0.780868809443031,-0.624695047554424));
#1753=DIRECTION('',(1.,0.,0.));
#1754=DIRECTION('',(0.,0.780868809443031,-0.624695047554424));
#1755=DIRECTION('',(1.,0.,0.));
#1756=DIRECTION('',(0.,0.,1.));
#1757=DIRECTION('',(1.,0.,0.));
#1758=DIRECTION('',(-1.10012083708224E-16,0.707106781186548,0.707106781186548));
#1759=DIRECTION('',(-1.10012083708224E-16,0.707106781186548,-0.707106781186548));
#1760=DIRECTION('',(0.,0.,1.));
#1761=DIRECTION('',(0.,0.,-1.));
#1762=DIRECTION('',(-1.,0.,0.));
#1763=DIRECTION('',(0.,0.,1.));
#1764=DIRECTION('',(-1.55580580805095E-16,1.,0.));
#1765=DIRECTION('',(-1.,-1.55580580805095E-16,0.));
#1766=DIRECTION('',(-1.10012083708224E-16,0.707106781186548,-0.707106781186548));
#1767=DIRECTION('',(-1.10012083708224E-16,0.707106781186548,0.707106781186548));
#1768=DIRECTION('',(-1.55580580805095E-16,1.,0.));
#1769=DIRECTION('',(-1.55580580805095E-16,1.,0.));
#1770=DIRECTION('',(0.,1.,0.));
#1771=DIRECTION('',(0.,0.,1.));
#1772=DIRECTION('',(-1.55580580805095E-16,1.,0.));
#1773=DIRECTION('',(-0.00170978553075554,-0.999998538315651,0.));
#1774=DIRECTION('',(-0.999998538315651,0.00170978553075554,0.));
#1775=DIRECTION('',(-1.55580580805095E-16,1.,0.));
#1776=DIRECTION('',(-0.999998538315651,0.00170978553075554,0.));
#1777=DIRECTION('',(0.,0.,1.));
#1778=DIRECTION('',(1.,0.,0.));
#1779=DIRECTION('',(0.,0.,-1.));
#1780=DIRECTION('',(-1.,0.,0.));
#1781=DIRECTION('',(0.,0.,1.));
#1782=DIRECTION('',(0.,0.,1.));
#1783=DIRECTION('',(0.,0.,-1.));
#1784=DIRECTION('',(-1.,0.,0.));
#1785=DIRECTION('',(0.,0.,-1.));
#1786=DIRECTION('',(-1.,0.,0.));
#1787=DIRECTION('',(0.,0.,-1.));
#1788=DIRECTION('',(-1.10012083708224E-16,0.707106781186548,0.707106781186548));
#1789=DIRECTION('',(-1.10012083708224E-16,0.707106781186548,-0.707106781186548));
#1790=DIRECTION('',(0.,0.,-1.));
#1791=DIRECTION('',(-1.55580580805095E-16,1.,0.));
#1792=DIRECTION('',(-1.,-1.55580580805095E-16,0.));
#1793=DIRECTION('',(-1.10012083708224E-16,0.707106781186548,-0.707106781186548));
#1794=DIRECTION('',(1.10012083708224E-16,-0.707106781186548,-0.707106781186548));
#1795=DIRECTION('',(-1.55580580805095E-16,1.,0.));
#1796=DIRECTION('',(0.,-1.,0.));
#1797=DIRECTION('',(0.,0.,-1.));
#1798=DIRECTION('',(-1.55580580805095E-16,1.,0.));
#1799=DIRECTION('',(0.,1.,0.));
#1800=DIRECTION('',(0.,0.,1.));
#1801=DIRECTION('',(-1.55580580805095E-16,1.,0.));
#1802=DIRECTION('',(-1.55580580805095E-16,1.,0.));
#1803=DIRECTION('',(0.,0.,-1.));
#1804=DIRECTION('',(-1.,0.,0.));
#1805=DIRECTION('',(0.,0.,-1.));
#1806=DIRECTION('',(-1.,0.,0.));
#1807=DIRECTION('',(0.,0.,-1.));
#1808=DIRECTION('',(0.,0.,-1.));
#1809=DIRECTION('',(0.,-1.,0.));
#1810=DIRECTION('',(0.,0.,-1.));
#1811=DIRECTION('',(1.,0.,0.));
#1812=DIRECTION('',(1.,0.,0.));
#1813=DIRECTION('',(0.,1.,0.));
#1814=DIRECTION('',(0.,0.,1.));
#1815=DIRECTION('',(0.,0.,-1.));
#1816=DIRECTION('',(1.,0.,0.));
#1817=DIRECTION('',(0.,0.,1.));
#1818=DIRECTION('',(1.,0.,0.));
#1819=DIRECTION('',(-1.,-1.55580580805095E-16,0.));
#1820=DIRECTION('',(1.55580580805095E-16,-1.,0.));
#1821=DIRECTION('',(0.,0.,-1.));
#1822=DIRECTION('',(-1.55580580805095E-16,1.,0.));
#1823=DIRECTION('',(1.,1.55580580805095E-16,0.));
#1824=DIRECTION('',(-1.55580580805095E-16,1.,0.));
#1825=DIRECTION('',(-1.55580580805095E-16,1.,0.));
#1826=DIRECTION('',(-0.00170978553075554,-0.999998538315651,0.));
#1827=DIRECTION('',(0.999998538315651,-0.00170978553075554,0.));
#1828=DIRECTION('',(-0.999998538315651,0.00170978553075554,0.));
#1829=DIRECTION('',(0.,0.,-1.));
#1830=DIRECTION('',(-0.999998538315651,0.00170978553075554,0.));
#1831=DIRECTION('',(0.,0.,1.));
#1832=DIRECTION('',(1.,0.,0.));
#1833=DIRECTION('',(0.,-1.,0.));
#1834=DIRECTION('',(-0.999998538315651,0.00170978553075554,0.));
#1835=DIRECTION('',(0.00170978553075554,0.999998538315651,0.));
#1836=DIRECTION('',(-0.999998538315651,0.00170978553075554,0.));
#1837=DIRECTION('',(-0.999998538315651,0.00170978553075554,0.));
#1838=DIRECTION('',(0.,0.,1.));
#1839=DIRECTION('',(0.,0.,-1.));
#1840=DIRECTION('',(-1.,0.,0.));
#1841=DIRECTION('',(0.,1.,0.));
#1842=DIRECTION('',(0.,1.,0.));
#1843=DIRECTION('',(6.53796945228264E-16,-7.56104606272928E-32,1.));
#1844=DIRECTION('',(1.,0.,-6.53796945228264E-16));
#1845=DIRECTION('',(1.,-1.15648231731787E-16,-6.53796945228264E-16));
#1846=DIRECTION('',(1.15648231731787E-16,1.,0.));
#1847=DIRECTION('',(1.,-1.15648231731787E-16,-6.53796945228264E-16));
#1848=DIRECTION('',(1.15648231731787E-16,1.,0.));
#1849=DIRECTION('',(-0.866025403784438,1.00154306582477E-16,-0.5));
#1850=DIRECTION('',(-0.5,0.,0.866025403784439));
#1851=DIRECTION('',(-0.5,5.78241158658936E-17,0.866025403784439));
#1852=DIRECTION('',(1.15648231731787E-16,1.,0.));
#1853=DIRECTION('',(-0.5,5.78241158658936E-17,0.866025403784439));
#1854=DIRECTION('',(-7.70490680859618E-16,8.91058848072356E-32,-1.));
#1855=DIRECTION('',(-1.,0.,7.70490680859618E-16));
#1856=DIRECTION('',(-1.,1.15648231731787E-16,7.70490680859618E-16));
#1857=DIRECTION('',(1.15648231731787E-16,1.,0.));
#1858=DIRECTION('',(-1.,1.15648231731787E-16,7.70490680859618E-16));
#1859=DIRECTION('',(1.15648231731787E-16,1.,0.));
#1860=DIRECTION('',(-0.866025403784439,1.00154306582477E-16,0.499999999999999));
#1861=DIRECTION('',(0.499999999999999,0.,0.866025403784439));
#1862=DIRECTION('',(0.499999999999999,-5.78241158658934E-17,0.866025403784439));
#1863=DIRECTION('',(0.499999999999999,-5.78241158658934E-17,0.866025403784439));
#1864=DIRECTION('',(1.15648231731787E-16,1.,0.));
#1865=DIRECTION('',(0.,1.,0.));
#1866=DIRECTION('',(0.,0.,1.));
#1867=DIRECTION('',(-1.,0.,0.));
#1868=DIRECTION('',(0.,0.,1.));
#1869=DIRECTION('',(-1.,0.,0.));
#1870=DIRECTION('',(0.,0.,1.));
#1871=DIRECTION('',(1.,1.55580580805095E-16,0.));
#1872=DIRECTION('',(-1.55580580805095E-16,1.,0.));
#1873=DIRECTION('',(0.,0.,1.));
#1874=DIRECTION('',(-1.55580580805095E-16,1.,0.));
#1875=DIRECTION('',(-1.,-1.55580580805095E-16,0.));
#1876=DIRECTION('',(1.55580580805095E-16,-1.,0.));
#1877=DIRECTION('',(-1.55580580805095E-16,1.,0.));
#1878=DIRECTION('',(0.,0.,1.));
#1879=DIRECTION('',(1.,0.,0.));
#1880=DIRECTION('',(1.,0.,0.));
#1881=DIRECTION('',(1.,0.,0.));
#1882=DIRECTION('',(1.42775594730601E-16,1.,0.));
#1883=DIRECTION('',(0.,-1.,0.));
#1884=DIRECTION('',(0.,0.,-1.));
#1885=DIRECTION('',(0.,0.,1.));
#1886=DIRECTION('',(1.,0.,0.));
#1887=DIRECTION('',(0.,0.,-1.));
#1888=DIRECTION('',(-1.,0.,0.));
#1889=DIRECTION('',(-1.,0.,0.));
#1890=DIRECTION('',(4.31956697203054E-17,1.,0.));
#1891=DIRECTION('',(-1.42775594730601E-16,-1.,0.));
#1892=DIRECTION('',(1.,0.,0.));
#1893=DIRECTION('',(1.,1.0842021724855E-16,0.));
#1894=DIRECTION('',(-1.0842021724855E-16,1.,0.));
#1895=DIRECTION('',(0.,0.,1.));
#1896=DIRECTION('',(1.0842021724855E-16,-1.,0.));
#1897=DIRECTION('',(0.,0.,1.));
#1898=DIRECTION('',(1.0842021724855E-16,-1.,0.));
#1899=DIRECTION('',(-1.0842021724855E-16,-1.17549435082229E-32,1.));
#1900=DIRECTION('',(1.,0.,1.0842021724855E-16));
#1901=DIRECTION('',(1.27447352890596E-48,-1.,-1.17549435082229E-32));
#1902=DIRECTION('',(-1.,-1.0842021724855E-16,-1.0842021724855E-16));
#1903=DIRECTION('',(-1.,-1.0842021724855E-16,-1.0842021724855E-16));
#1904=DIRECTION('',(-1.,-1.0842021724855E-16,0.));
#1905=DIRECTION('',(1.0842021724855E-16,-1.,0.));
#1906=DIRECTION('',(0.,0.,-1.));
#1907=DIRECTION('',(1.0842021724855E-16,-1.,0.));
#1908=DIRECTION('',(0.,0.,-1.));
#1909=DIRECTION('',(-1.27447352890596E-48,1.,1.17549435082229E-32));
#1910=DIRECTION('',(0.,-1.,0.));
#1911=DIRECTION('',(0.,0.,-1.));
#1912=DIRECTION('',(-1.,0.,0.));
#1913=DIRECTION('',(0.,0.,-1.));
#1914=DIRECTION('',(-1.,0.,0.));
#1915=DIRECTION('',(0.,0.,-1.));
#1916=DIRECTION('',(1.,0.,0.));
#1917=DIRECTION('',(0.,0.,-1.));
#1918=DIRECTION('',(0.,-1.,0.));
#1919=DIRECTION('',(0.,0.,-1.));
#1920=DIRECTION('',(0.,-1.,0.));
#1921=DIRECTION('',(0.,0.,-1.));
#1922=DIRECTION('',(0.,0.,-1.));
#1923=DIRECTION('',(-1.,0.,0.));
#1924=DIRECTION('',(1.,1.73578454795335E-15,0.));
#1925=DIRECTION('',(8.26058798084205E-16,1.,0.));
#1926=DIRECTION('',(0.,-1.,0.));
#1927=DIRECTION('',(-1.,5.86733785533607E-17,0.));
#1928=DIRECTION('',(-1.,-2.29764698804875E-16,0.));
#1929=DIRECTION('',(2.29764698804875E-16,-1.,0.));
#1930=DIRECTION('',(-2.29764698804875E-16,1.,0.));
#1931=DIRECTION('',(0.,0.,-1.));
#1932=DIRECTION('',(-2.29764698804875E-16,1.,0.));
#1933=DIRECTION('',(0.,0.,-1.));
#1934=DIRECTION('',(0.,0.,-1.));
#1935=DIRECTION('',(-1.,0.,0.));
#1936=DIRECTION('',(-1.,0.,0.));
#1937=DIRECTION('',(-1.14882349402438E-16,-1.,0.));
#1938=DIRECTION('',(1.,1.73472347597681E-15,0.));
#1939=DIRECTION('',(0.,0.,1.));
#1940=DIRECTION('',(1.,0.,0.));
#1941=DIRECTION('',(0.,-1.,0.));
#1942=DIRECTION('',(1.,0.,0.));
#1943=DIRECTION('',(0.,1.,0.));
#1944=DIRECTION('',(1.,4.95938442272384E-16,0.));
#1945=DIRECTION('',(-1.14882349402438E-16,-1.,0.));
#1946=DIRECTION('',(1.,0.,0.));
#1947=DIRECTION('',(0.,1.,0.));
#1948=DIRECTION('',(1.,-1.14882349402438E-16,0.));
#1949=DIRECTION('',(1.14882349402438E-16,1.,0.));
#1950=DIRECTION('',(0.,0.,-1.));
#1951=DIRECTION('',(0.,0.,-1.));
#1952=DIRECTION('',(-7.2280144832367E-17,-1.,0.));
#1953=DIRECTION('',(1.,-7.2280144832367E-17,0.));
#1954=DIRECTION('',(1.,-7.2280144832367E-17,0.));
#1955=DIRECTION('',(0.,0.,1.));
#1956=DIRECTION('',(1.,-7.2280144832367E-17,0.));
#1957=DIRECTION('',(0.,0.,1.));
#1958=DIRECTION('',(1.,0.,0.));
#1959=DIRECTION('',(0.,0.,-1.));
#1960=DIRECTION('',(0.,1.,0.));
#1961=DIRECTION('',(0.,0.,1.));
#1962=DIRECTION('',(0.,1.,0.));
#1963=DIRECTION('',(-1.44560289664734E-16,1.,0.));
#1964=DIRECTION('',(-1.,-1.44560289664734E-16,0.));
#1965=DIRECTION('',(-1.,-1.44560289664734E-16,0.));
#1966=DIRECTION('',(0.,0.,1.));
#1967=DIRECTION('',(-1.,-1.44560289664734E-16,0.));
#1968=DIRECTION('',(-1.,-1.5770213417971E-16,0.));
#1969=DIRECTION('',(1.5770213417971E-16,-1.,0.));
#1970=DIRECTION('',(1.5770213417971E-16,-1.,0.));
#1971=DIRECTION('',(1.5770213417971E-16,-1.,0.));
#1972=DIRECTION('',(-1.0842021724855E-16,-1.,0.));
#1973=DIRECTION('',(1.,-1.0842021724855E-16,0.));
#1974=DIRECTION('',(-1.,0.,0.));
#1975=DIRECTION('',(0.,0.,-1.));
#1976=DIRECTION('',(-1.,1.0842021724855E-16,0.));
#1977=DIRECTION('',(0.,0.,-1.));
#1978=DIRECTION('',(0.,0.,-1.));
#1979=DIRECTION('',(-1.,1.0842021724855E-16,0.));
#1980=DIRECTION('',(0.,0.,-1.));
#1981=DIRECTION('',(-1.0842021724855E-16,1.,0.));
#1982=DIRECTION('',(-1.,-1.0842021724855E-16,0.));
#1983=DIRECTION('',(1.,0.,1.0842021724855E-16));
#1984=DIRECTION('',(-1.0842021724855E-16,-1.17549435082229E-32,1.));
#1985=DIRECTION('',(1.,1.0842021724855E-16,0.));
#1986=DIRECTION('',(0.,0.,-1.));
#1987=DIRECTION('',(0.,0.,-1.));
#1988=DIRECTION('',(1.,1.0842021724855E-16,0.));
#1989=DIRECTION('',(0.,0.,-1.));
#1990=DIRECTION('',(0.,0.,-1.));
#1991=DIRECTION('',(1.,1.0842021724855E-16,0.));
#1992=DIRECTION('',(0.,0.,1.));
#1993=DIRECTION('',(1.,0.,0.));
#1994=DIRECTION('',(0.,-1.,0.));
#1995=DIRECTION('',(1.42775594730601E-16,1.,0.));
#1996=DIRECTION('',(-1.,0.,0.));
#1997=DIRECTION('',(0.,0.,1.));
#1998=DIRECTION('',(0.,0.,1.));
#1999=DIRECTION('',(0.,0.,1.));
#2000=DIRECTION('',(0.,-1.,0.));
#2001=DIRECTION('',(-1.73472347597681E-15,1.,0.));
#2002=DIRECTION('',(-1.,-1.73472347597681E-15,0.));
#2003=DIRECTION('',(0.,0.,-1.));
#2004=DIRECTION('',(1.,1.73472347597681E-15,0.));
#2005=DIRECTION('',(-1.,0.,0.));
#2006=DIRECTION('',(0.,0.,1.));
#2007=DIRECTION('',(0.,0.,-1.));
#2008=DIRECTION('',(0.,1.,0.));
#2009=DIRECTION('',(0.,0.,1.));
#2010=DIRECTION('',(1.,0.,0.));
#2011=DIRECTION('',(1.,1.15648231731787E-16,0.));
#2012=DIRECTION('',(0.,0.,1.));
#2013=DIRECTION('',(1.,0.,0.));
#2014=DIRECTION('',(1.,1.15648231731787E-16,0.));
#2015=DIRECTION('',(1.42775594730601E-16,1.,0.));
#2016=DIRECTION('',(0.,-1.,0.));
#2017=DIRECTION('',(1.,1.15648231731787E-16,0.));
#2018=DIRECTION('',(-1.,1.15648231731787E-16,0.));
#2019=DIRECTION('',(0.,1.,0.));
#2020=DIRECTION('',(-1.,1.42775594730601E-16,0.));
#2021=DIRECTION('',(-1.42775594730601E-16,-1.,0.));
#2022=DIRECTION('',(-4.31956697203054E-17,-1.,0.));
#2023=DIRECTION('',(-1.,0.,0.));
#2024=DIRECTION('',(0.,0.,1.));
#2025=DIRECTION('',(0.,-1.,0.));
#2026=DIRECTION('',(0.,0.,1.));
#2027=DIRECTION('',(0.,0.,1.));
#2028=DIRECTION('',(1.15648231731787E-16,1.,0.));
#2029=DIRECTION('',(-1.,1.15648231731787E-16,0.));
#2030=DIRECTION('',(0.,0.,1.));
#2031=DIRECTION('',(0.,0.,1.));
#2032=DIRECTION('',(-1.,1.15648231731787E-16,0.));
#2033=DIRECTION('',(1.,0.,0.));
#2034=DIRECTION('',(0.,0.,-1.));
#2035=DIRECTION('',(0.,0.,1.));
#2036=DIRECTION('',(1.15648231731787E-16,-1.,0.));
#2037=DIRECTION('',(1.,1.15648231731787E-16,0.));
#2038=DIRECTION('',(-1.,0.,-1.0842021724855E-16));
#2039=DIRECTION('',(0.,0.,1.));
#2040=DIRECTION('',(-1.0842021724855E-16,-1.17549435082229E-32,1.));
#2041=DIRECTION('',(1.,0.,0.));
#2042=DIRECTION('',(0.,0.,-1.));
#2043=DIRECTION('',(0.,-1.,0.));
#2044=DIRECTION('',(0.,0.,1.));
#2045=DIRECTION('',(1.,0.,0.));
#2046=DIRECTION('',(0.,0.,1.));
#2047=DIRECTION('',(1.,0.,0.));
#2048=DIRECTION('',(0.,0.,1.));
#2049=DIRECTION('',(1.,0.,0.));
#2050=DIRECTION('',(0.,1.,0.));
#2051=DIRECTION('',(1.,0.,0.));
#2052=DIRECTION('',(0.,0.,-1.));
#2053=DIRECTION('',(-1.,-1.48368246027497E-64,-1.0842021724855E-16));
#2054=DIRECTION('',(-1.0842021724855E-16,0.,1.));
#2055=DIRECTION('',(1.27447352890596E-48,-1.,-1.17549435082229E-32));
#2056=DIRECTION('',(-1.0842021724855E-16,-1.17549435082229E-32,1.));
#2057=DIRECTION('',(1.,0.,1.0842021724855E-16));
#2058=CARTESIAN_POINT('',(0.,0.,0.));
#2059=CARTESIAN_POINT('',(-15.,6.14999999999999,-3.15));
#2060=CARTESIAN_POINT('',(15.,6.14999999999999,-3.15));
#2061=CARTESIAN_POINT('',(15.,6.14999999999999,-3.15));
#2062=CARTESIAN_POINT('',(15.,8.64999999999999,-5.15));
#2063=CARTESIAN_POINT('',(-15.,8.64999999999999,-5.15));
#2064=CARTESIAN_POINT('',(-15.,8.64999999999999,-5.15));
#2065=CARTESIAN_POINT('',(-15.,6.14999999999999,-3.15));
#2066=CARTESIAN_POINT('',(-15.,6.14999999999999,-3.15));
#2067=CARTESIAN_POINT('',(-15.,6.14999999999999,-3.15));
#2068=CARTESIAN_POINT('',(-19.9999985383157,11.1568376904354,-1.05));
#2069=CARTESIAN_POINT('',(-19.9999985383157,11.1568376904354,-0.0500000000000014));
#2070=CARTESIAN_POINT('',(-19.9999985383157,12.1568376904354,-1.05));
#2071=CARTESIAN_POINT('',(-20.9999985383157,11.1568376904354,-0.0500000000000014));
#2072=CARTESIAN_POINT('',(-20.9999985383157,11.1568376904354,-1.05));
#2073=CARTESIAN_POINT('',(-20.9999985383157,11.1568376904354,0.949999999999999));
#2074=CARTESIAN_POINT('',(-19.9999985383157,11.1568376904354,0.949999999999999));
#2075=CARTESIAN_POINT('',(-19.9999985383157,12.1568376904354,0.949999999999999));
#2076=CARTESIAN_POINT('',(-19.9999985383157,12.1568376904354,-1.05));
#2077=CARTESIAN_POINT('',(-19.9999985383156,-10.15,-0.0500000000000014));
#2078=CARTESIAN_POINT('',(-19.9999985383156,-11.143159388693,-0.0500000000000014));
#2079=CARTESIAN_POINT('',(-20.0017083238464,-12.1431579270086,-1.05));
#2080=CARTESIAN_POINT('',(-20.9999985383156,-11.143159388693,-0.0500000000000014));
#2081=CARTESIAN_POINT('',(-20.9999985383156,-12.3411091052434,-0.0500000000000014));
#2082=CARTESIAN_POINT('',(-19.9999985383156,-10.15,-1.05));
#2083=CARTESIAN_POINT('',(-19.9999985383157,10.1568406138041,-1.05));
#2084=CARTESIAN_POINT('',(-20.0000014616843,10.1568406138041,-0.0500000000000014));
#2085=CARTESIAN_POINT('',(-19.0000014616843,10.1568406138041,-0.0500000000000014));
#2086=CARTESIAN_POINT('',(-19.0000014616843,-12.3376895341819,-0.0500000000000014));
#2087=CARTESIAN_POINT('',(-19.0000014616843,-10.1448706334111,-0.0500000000000014));
#2088=CARTESIAN_POINT('',(-20.0000014616843,-10.1431608453811,-0.0500000000000014));
#2089=CARTESIAN_POINT('',(-19.9999985383156,-10.1431608503795,-1.05));
#2090=CARTESIAN_POINT('',(-19.9999985383156,-10.15,-1.05));
#2091=CARTESIAN_POINT('',(-19.9999985383156,-12.1431608503795,-1.05));
#2092=CARTESIAN_POINT('',(-16.,-12.15,-1.05));
#2093=CARTESIAN_POINT('',(-19.9999985383156,-11.143159388693,-1.05));
#2094=CARTESIAN_POINT('',(-19.9999985383156,-11.143159388693,0.949999999999999));
#2095=CARTESIAN_POINT('',(-20.0017083238464,-12.1431579270086,0.949999999999999));
#2096=CARTESIAN_POINT('',(-20.9999985383156,-11.143159388693,0.949999999999999));
#2097=CARTESIAN_POINT('',(-20.9999985383156,-11.143159388693,-1.05));
#2098=CARTESIAN_POINT('',(-20.0017083238464,-12.1431579270086,-1.05));
#2099=CARTESIAN_POINT('',(20.,11.15,8.15));
#2100=CARTESIAN_POINT('',(20.,11.15,0.949999999999999));
#2101=CARTESIAN_POINT('',(20.,12.15,0.949999999999999));
#2102=CARTESIAN_POINT('',(21.,11.15,0.949999999999999));
#2103=CARTESIAN_POINT('',(21.,11.15,0.949999999999999));
#2104=CARTESIAN_POINT('',(21.,11.15,-0.0500000000000014));
#2105=CARTESIAN_POINT('',(20.,11.15,-0.0500000000000014));
#2106=CARTESIAN_POINT('',(20.,12.15,-1.05));
#2107=CARTESIAN_POINT('',(20.,12.15,8.15));
#2108=CARTESIAN_POINT('',(20.,-12.35,-0.0500000000000014));
#2109=CARTESIAN_POINT('',(20.,-11.15,-0.0500000000000014));
#2110=CARTESIAN_POINT('',(21.,-11.15,-0.0500000000000014));
#2111=CARTESIAN_POINT('',(20.,-12.15,-1.05));
#2112=CARTESIAN_POINT('',(20.,-12.15,-1.05));
#2113=CARTESIAN_POINT('',(20.,-10.15,-1.05));
#2114=CARTESIAN_POINT('',(20.,-10.15,-0.0500000000000014));
#2115=CARTESIAN_POINT('',(19.,-10.15,-0.0500000000000014));
#2116=CARTESIAN_POINT('',(19.,-12.35,-0.0500000000000014));
#2117=CARTESIAN_POINT('',(19.,10.15,-0.0500000000000014));
#2118=CARTESIAN_POINT('',(20.,10.15,-0.0500000000000014));
#2119=CARTESIAN_POINT('',(20.,10.15,-1.05));
#2120=CARTESIAN_POINT('',(20.,-12.15,-1.05));
#2121=CARTESIAN_POINT('',(21.,-12.35,-0.0500000000000014));
#2122=CARTESIAN_POINT('',(20.,-11.15,0.949999999999999));
#2123=CARTESIAN_POINT('',(20.,-11.15,0.949999999999999));
#2124=CARTESIAN_POINT('',(21.,-11.15,0.949999999999999));
#2125=CARTESIAN_POINT('',(20.,-12.15,0.949999999999999));
#2126=CARTESIAN_POINT('',(20.,-12.15,8.15));
#2127=CARTESIAN_POINT('',(21.,-11.15,0.949999999999999));
#2128=CARTESIAN_POINT('',(-21.1998274135941,12.1568376904354,-1.05));
#2129=CARTESIAN_POINT('',(-21.1998274135941,12.1568376904354,-1.05));
#2130=CARTESIAN_POINT('',(-16.0008548927654,12.1534188452177,-1.05));
#2131=CARTESIAN_POINT('',(-21.1998274135941,12.1568376904354,0.949999999999999));
#2132=CARTESIAN_POINT('',(-16.0008548927654,12.1534188452177,0.949999999999999));
#2133=CARTESIAN_POINT('',(-16.0017097855308,12.1568376904354,0.949999999999999));
#2134=CARTESIAN_POINT('',(-16.0017097855308,12.1568376904354,0.283333333333333));
#2135=CARTESIAN_POINT('',(-16.0017097855308,12.1568376904354,-0.383333333333334));
#2136=CARTESIAN_POINT('',(-16.0017097855308,12.1568376904354,-1.05));
#2137=CARTESIAN_POINT('',(-21.1964078425326,10.1568406138041,0.949999999999999));
#2138=CARTESIAN_POINT('',(-19.0000014616843,10.1568406138041,0.949999999999999));
#2139=CARTESIAN_POINT('',(-19.0000014616843,10.1568406138041,0.949999999999999));
#2140=CARTESIAN_POINT('',(-21.1964078425326,10.1568406138041,-1.05));
#2141=CARTESIAN_POINT('',(-16.,10.1568406138041,-1.05));
#2142=CARTESIAN_POINT('',(-16.,10.1568406138041,8.15));
#2143=CARTESIAN_POINT('',(-16.,10.1568406138041,0.949999999999999));
#2144=CARTESIAN_POINT('',(-21.1964078425326,10.1568406138041,0.949999999999999));
#2145=CARTESIAN_POINT('',(-19.0000014616843,-12.3376895341819,0.949999999999999));
#2146=CARTESIAN_POINT('',(-19.0000014616843,-10.1448706334111,0.949999999999999));
#2147=CARTESIAN_POINT('',(-19.0000014616843,-10.1448706334111,0.949999999999999));
#2148=CARTESIAN_POINT('',(-19.0000014616843,-12.3376895341819,0.949999999999999));
#2149=CARTESIAN_POINT('',(-20.9999985383156,-12.3411091052434,-1.05));
#2150=CARTESIAN_POINT('',(-20.9999985383156,-12.3411091052434,0.949999999999999));
#2151=CARTESIAN_POINT('',(-16.,-10.15,0.949999999999999));
#2152=CARTESIAN_POINT('',(-16.,-10.15,0.949999999999999));
#2153=CARTESIAN_POINT('',(-16.,-10.15,0.949999999999999));
#2154=CARTESIAN_POINT('',(-16.,-10.15,0.949999999999999));
#2155=CARTESIAN_POINT('',(-16.,-10.15,-1.05));
#2156=CARTESIAN_POINT('',(-16.,-10.15,-1.05));
#2157=CARTESIAN_POINT('',(-16.,-10.15,-1.05));
#2158=CARTESIAN_POINT('',(-16.,-10.15,-1.05));
#2159=CARTESIAN_POINT('',(-16.,-12.15,-1.05));
#2160=CARTESIAN_POINT('',(-16.,-12.15,-1.05));
#2161=CARTESIAN_POINT('',(-16.,-12.15,-1.05));
#2162=CARTESIAN_POINT('',(-16.,-12.15,0.949999999999999));
#2163=CARTESIAN_POINT('',(-16.,-12.15,0.949999999999999));
#2164=CARTESIAN_POINT('',(-16.,-12.15,-1.05));
#2165=CARTESIAN_POINT('',(-16.,-12.15,0.949999999999999));
#2166=CARTESIAN_POINT('',(-16.,-12.15,0.949999999999999));
#2167=CARTESIAN_POINT('',(-16.,12.15,0.949999999999999));
#2168=CARTESIAN_POINT('',(13.673346909436,-11.15,7.15));
#2169=CARTESIAN_POINT('',(13.673346909436,11.15,7.15));
#2170=CARTESIAN_POINT('',(13.673346909436,11.15,7.15));
#2171=CARTESIAN_POINT('',(15.,11.15,7.15));
#2172=CARTESIAN_POINT('',(13.673346909436,-11.15,7.15));
#2173=CARTESIAN_POINT('',(13.673346909436,-11.15,7.15));
#2174=CARTESIAN_POINT('',(13.673346909436,-11.15,7.15));
#2175=CARTESIAN_POINT('',(15.,-11.15,7.15));
#2176=CARTESIAN_POINT('',(15.,-11.15,7.15));
#2177=CARTESIAN_POINT('',(15.,-11.15,4.85216944312481));
#2178=CARTESIAN_POINT('',(15.,11.15,4.85216944312481));
#2179=CARTESIAN_POINT('',(15.,11.15,4.85216944312481));
#2180=CARTESIAN_POINT('',(15.,-11.15,4.85216944312481));
#2181=CARTESIAN_POINT('',(15.,-11.15,4.85216944312481));
#2182=CARTESIAN_POINT('',(15.,-11.15,4.85216944312481));
#2183=CARTESIAN_POINT('',(-13.8742735512119,-11.15,7.15));
#2184=CARTESIAN_POINT('',(-13.8742735512119,11.15,7.15));
#2185=CARTESIAN_POINT('',(-13.8742735512119,11.15,7.15));
#2186=CARTESIAN_POINT('',(-15.,11.15,7.15));
#2187=CARTESIAN_POINT('',(-15.,-11.15,7.15));
#2188=CARTESIAN_POINT('',(-15.,-11.15,7.15));
#2189=CARTESIAN_POINT('',(-13.8742735512119,-11.15,7.15));
#2190=CARTESIAN_POINT('',(-13.8742735512119,-11.15,7.15));
#2191=CARTESIAN_POINT('',(-13.8742735512119,-11.15,7.15));
#2192=CARTESIAN_POINT('',(-15.,-11.15,5.20018459527496));
#2193=CARTESIAN_POINT('',(-15.,11.15,5.20018459527496));
#2194=CARTESIAN_POINT('',(-15.,11.15,5.20018459527496));
#2195=CARTESIAN_POINT('',(-15.,-11.15,5.20018459527496));
#2196=CARTESIAN_POINT('',(-15.,-11.15,5.20018459527496));
#2197=CARTESIAN_POINT('',(-15.,-11.15,5.20018459527496));
#2198=CARTESIAN_POINT('',(21.2,10.15,-1.05));
#2199=CARTESIAN_POINT('',(21.2,10.15,-1.05));
#2200=CARTESIAN_POINT('',(16.,10.15,-1.05));
#2201=CARTESIAN_POINT('',(19.,10.15,-1.05));
#2202=CARTESIAN_POINT('',(19.,10.15,0.949999999999999));
#2203=CARTESIAN_POINT('',(21.2,10.15,0.949999999999999));
#2204=CARTESIAN_POINT('',(16.,10.15,0.949999999999999));
#2205=CARTESIAN_POINT('',(16.,10.15,-1.05));
#2206=CARTESIAN_POINT('',(19.,-12.35,-1.05));
#2207=CARTESIAN_POINT('',(19.,-10.15,-1.05));
#2208=CARTESIAN_POINT('',(19.,-10.15,0.949999999999999));
#2209=CARTESIAN_POINT('',(19.,-12.35,0.949999999999999));
#2210=CARTESIAN_POINT('',(21.,-12.35,0.949999999999999));
#2211=CARTESIAN_POINT('',(21.,-12.35,0.949999999999999));
#2212=CARTESIAN_POINT('',(16.,-12.15,-1.05));
#2213=CARTESIAN_POINT('',(16.,-10.15,-1.05));
#2214=CARTESIAN_POINT('',(16.,-10.15,-1.05));
#2215=CARTESIAN_POINT('',(16.,-12.15,-1.05));
#2216=CARTESIAN_POINT('',(16.,-12.15,-1.05));
#2217=CARTESIAN_POINT('',(16.,-12.15,-1.05));
#2218=CARTESIAN_POINT('',(16.,-10.15,-1.05));
#2219=CARTESIAN_POINT('',(16.,-10.15,-1.05));
#2220=CARTESIAN_POINT('',(16.,-10.15,0.949999999999999));
#2221=CARTESIAN_POINT('',(16.,-10.15,0.949999999999999));
#2222=CARTESIAN_POINT('',(16.,-10.15,0.949999999999999));
#2223=CARTESIAN_POINT('',(21.2,12.15,0.949999999999999));
#2224=CARTESIAN_POINT('',(16.,12.15,0.949999999999999));
#2225=CARTESIAN_POINT('',(16.,10.15,0.949999999999999));
#2226=CARTESIAN_POINT('',(16.,-10.15,0.949999999999999));
#2227=CARTESIAN_POINT('',(16.,-12.15,0.949999999999999));
#2228=CARTESIAN_POINT('',(16.,-12.15,0.949999999999999));
#2229=CARTESIAN_POINT('',(-1.5,-11.15,0.349999999999997));
#2230=CARTESIAN_POINT('',(-1.5,-12.15,0.349999999999997));
#2231=CARTESIAN_POINT('',(-1.5,-12.15,0.349999999999998));
#2232=CARTESIAN_POINT('',(-1.5,-12.15,8.15));
#2233=CARTESIAN_POINT('',(-1.5,-11.15,0.349999999999997));
#2234=CARTESIAN_POINT('',(-1.5,-11.15,0.349999999999997));
#2235=CARTESIAN_POINT('',(-1.5,-11.15,0.349999999999997));
#2236=CARTESIAN_POINT('',(-1.5,-11.15,8.15));
#2237=CARTESIAN_POINT('',(-1.5,-11.15,8.15));
#2238=CARTESIAN_POINT('',(10.5,-11.15,0.349999999999999));
#2239=CARTESIAN_POINT('',(7.5,-11.15,0.349999999999999));
#2240=CARTESIAN_POINT('',(7.5,-11.15,0.349999999999999));
#2241=CARTESIAN_POINT('',(7.5,-12.15,0.349999999999999));
#2242=CARTESIAN_POINT('',(10.5,-11.15,0.349999999999999));
#2243=CARTESIAN_POINT('',(10.5,-12.15,0.349999999999999));
#2244=CARTESIAN_POINT('',(10.5,-11.15,8.15));
#2245=CARTESIAN_POINT('',(10.5,-12.15,8.15));
#2246=CARTESIAN_POINT('',(10.5,-12.15,8.15));
#2247=CARTESIAN_POINT('',(10.5,-12.15,-1.65));
#2248=CARTESIAN_POINT('',(10.5,-11.15,8.15));
#2249=CARTESIAN_POINT('',(10.5,-11.15,8.15));
#2250=CARTESIAN_POINT('',(10.5,-11.15,8.15));
#2251=CARTESIAN_POINT('',(10.5,-11.15,-1.65));
#2252=CARTESIAN_POINT('',(10.5,-12.15,-1.65));
#2253=CARTESIAN_POINT('',(-9.3,-3.05,-5.15));
#2254=CARTESIAN_POINT('',(-9.3,-3.05,-7.15));
#2255=CARTESIAN_POINT('',(-5.99999999999999,-3.05,-7.15));
#2256=CARTESIAN_POINT('',(-9.3,-3.05,-7.15));
#2257=CARTESIAN_POINT('',(-5.99999999999999,-3.05,-5.15));
#2258=CARTESIAN_POINT('',(-5.99999999999999,-3.05,-5.15));
#2259=CARTESIAN_POINT('',(-9.3,-3.05,-5.15));
#2260=CARTESIAN_POINT('',(-9.3,-3.05,-5.15));
#2261=CARTESIAN_POINT('',(-9.3,-3.05,-5.15));
#2262=CARTESIAN_POINT('',(-2.30427904709978,3.94999999999999,-5.15));
#2263=CARTESIAN_POINT('',(-2.30427904709978,3.94999999999999,-7.15));
#2264=CARTESIAN_POINT('',(-2.30427904709978,3.94999999999999,-7.15));
#2265=CARTESIAN_POINT('',(-2.30427904709978,1.85,-7.15));
#2266=CARTESIAN_POINT('',(-2.30427904709978,3.94999999999999,-5.15));
#2267=CARTESIAN_POINT('',(-2.30427904709978,3.94999999999999,-5.15));
#2268=CARTESIAN_POINT('',(-2.30427904709978,3.94999999999999,-5.15));
#2269=CARTESIAN_POINT('',(-2.30427904709978,1.85,-5.15));
#2270=CARTESIAN_POINT('',(-2.30427904709978,1.85,-5.15));
#2271=CARTESIAN_POINT('',(0.,0.,-5.15));
#2272=CARTESIAN_POINT('',(-2.30427904709978,3.94999999999999,-5.15));
#2273=CARTESIAN_POINT('',(-9.3,3.94999999999997,-5.15));
#2274=CARTESIAN_POINT('',(-9.3,1.85,-5.15));
#2275=CARTESIAN_POINT('',(-5.99999999999999,-3.05,-5.15));
#2276=CARTESIAN_POINT('',(-5.99999999999999,1.85,-5.15));
#2277=CARTESIAN_POINT('',(-2.30427904709978,1.85,-5.15));
#2278=CARTESIAN_POINT('',(9.80000000000001,-11.15,-5.15));
#2279=CARTESIAN_POINT('',(9.80000000000001,-11.15,-7.15));
#2280=CARTESIAN_POINT('',(9.80000000000001,-11.15,-7.15));
#2281=CARTESIAN_POINT('',(9.8,3.95000000000001,-7.15));
#2282=CARTESIAN_POINT('',(9.80000000000001,-11.15,-5.15));
#2283=CARTESIAN_POINT('',(9.80000000000001,-11.15,-5.15));
#2284=CARTESIAN_POINT('',(9.80000000000001,-11.15,-5.15));
#2285=CARTESIAN_POINT('',(9.8,3.95000000000001,-5.15));
#2286=CARTESIAN_POINT('',(9.8,3.95000000000001,-5.15));
#2287=CARTESIAN_POINT('',(0.,0.,-5.15));
#2288=CARTESIAN_POINT('',(11.8,-11.15,-5.15));
#2289=CARTESIAN_POINT('',(11.8,-11.15,-5.15));
#2290=CARTESIAN_POINT('',(11.8,-11.15,-5.15));
#2291=CARTESIAN_POINT('',(11.8,3.95000000000001,-5.15));
#2292=CARTESIAN_POINT('',(11.8,3.95000000000001,-5.15));
#2293=CARTESIAN_POINT('',(0.,0.,-3.15));
#2294=CARTESIAN_POINT('',(-15.,3.95000000000001,-3.15));
#2295=CARTESIAN_POINT('',(-15.,-11.15,-3.15));
#2296=CARTESIAN_POINT('',(-15.,-11.15,-3.15));
#2297=CARTESIAN_POINT('',(-9.3,-11.15,-3.15));
#2298=CARTESIAN_POINT('',(-9.3,-11.15,-3.15));
#2299=CARTESIAN_POINT('',(-9.3,3.95000000000001,-3.15));
#2300=CARTESIAN_POINT('',(-2.30427904709978,3.95000000000001,-3.15));
#2301=CARTESIAN_POINT('',(11.8,3.95000000000001,-3.15));
#2302=CARTESIAN_POINT('',(11.8,-11.15,-3.15));
#2303=CARTESIAN_POINT('',(11.8,-11.15,-3.15));
#2304=CARTESIAN_POINT('',(15.,-11.15,-3.15));
#2305=CARTESIAN_POINT('',(15.,-11.15,-3.15));
#2306=CARTESIAN_POINT('',(15.,3.95000000000001,-3.15));
#2307=CARTESIAN_POINT('',(11.8,-11.15,-3.15));
#2308=CARTESIAN_POINT('',(11.8,3.95000000000001,-3.15));
#2309=CARTESIAN_POINT('',(11.8,-11.15,-3.15));
#2310=CARTESIAN_POINT('',(-5.99999999999999,1.85,-8.15));
#2311=CARTESIAN_POINT('',(-5.99999999999999,1.85,-7.15));
#2312=CARTESIAN_POINT('',(6.00000000000001,1.85,-7.15));
#2313=CARTESIAN_POINT('',(-5.99999999999999,1.85,-8.15));
#2314=CARTESIAN_POINT('',(-5.99999999999999,1.85,-8.15));
#2315=CARTESIAN_POINT('',(-5.99999999999999,1.85,-8.15));
#2316=CARTESIAN_POINT('',(6.00000000000001,1.85,-8.15));
#2317=CARTESIAN_POINT('',(6.00000000000001,1.85,-8.15));
#2318=CARTESIAN_POINT('',(-5.99999999999999,-9.15,-8.15));
#2319=CARTESIAN_POINT('',(-5.99999999999999,-9.15,-7.15));
#2320=CARTESIAN_POINT('',(-5.99999999999999,-9.15,-7.15));
#2321=CARTESIAN_POINT('',(-5.99999999999999,-9.15,-8.15));
#2322=CARTESIAN_POINT('',(-5.99999999999999,-9.15,-8.15));
#2323=CARTESIAN_POINT('',(-5.99999999999999,-9.15,-8.15));
#2324=CARTESIAN_POINT('',(6.00000000000001,-9.15,-8.15));
#2325=CARTESIAN_POINT('',(6.00000000000001,-9.15,-7.15));
#2326=CARTESIAN_POINT('',(6.00000000000001,-9.15,-7.15));
#2327=CARTESIAN_POINT('',(6.00000000000001,-9.15,-8.15));
#2328=CARTESIAN_POINT('',(6.00000000000001,-9.15,-8.15));
#2329=CARTESIAN_POINT('',(6.00000000000001,-9.15,-8.15));
#2330=CARTESIAN_POINT('',(6.00000000000001,1.85,-8.15));
#2331=CARTESIAN_POINT('',(6.00000000000001,1.85,-7.15));
#2332=CARTESIAN_POINT('',(6.00000000000001,1.85,-8.15));
#2333=CARTESIAN_POINT('',(16.,12.15,8.15));
#2334=CARTESIAN_POINT('',(21.2,12.15,-1.05));
#2335=CARTESIAN_POINT('',(16.,12.15,-1.05));
#2336=CARTESIAN_POINT('',(16.,12.15,8.15));
#2337=CARTESIAN_POINT('',(16.,12.15,-8.15));
#2338=CARTESIAN_POINT('',(16.,12.15,-8.15));
#2339=CARTESIAN_POINT('',(-16.,12.15,-8.15));
#2340=CARTESIAN_POINT('',(-16.,12.15,8.15));
#2341=CARTESIAN_POINT('',(-16.,12.15,8.15));
#2342=CARTESIAN_POINT('',(-16.,12.15,8.15));
#2343=CARTESIAN_POINT('',(16.,12.15,8.15));
#2344=CARTESIAN_POINT('',(16.,12.15,8.15));
#2345=CARTESIAN_POINT('',(16.,12.15,8.15));
#2346=CARTESIAN_POINT('',(-16.,-12.15,8.15));
#2347=CARTESIAN_POINT('',(7.5,-12.15,-1.65));
#2348=CARTESIAN_POINT('',(7.5,-12.15,-1.65));
#2349=CARTESIAN_POINT('',(7.5,-12.15,-1.65));
#2350=CARTESIAN_POINT('',(-16.,-12.15,8.15));
#2351=CARTESIAN_POINT('',(-16.,-12.15,8.15));
#2352=CARTESIAN_POINT('',(-16.,-12.15,8.15));
#2353=CARTESIAN_POINT('',(-16.,-12.15,8.15));
#2354=CARTESIAN_POINT('',(-16.,-12.15,-8.15));
#2355=CARTESIAN_POINT('',(-16.,-12.15,-8.15));
#2356=CARTESIAN_POINT('',(16.,-12.15,-8.15));
#2357=CARTESIAN_POINT('',(16.,-12.15,8.15));
#2358=CARTESIAN_POINT('',(16.,-12.15,8.15));
#2359=CARTESIAN_POINT('',(16.,-12.15,8.15));
#2360=CARTESIAN_POINT('',(-16.,-12.15,8.15));
#2361=CARTESIAN_POINT('',(0.,0.,-8.15));
#2362=CARTESIAN_POINT('',(-16.,12.15,-8.15));
#2363=CARTESIAN_POINT('',(16.,-12.15,-8.15));
#2364=CARTESIAN_POINT('',(-15.,11.15,-7.15));
#2365=CARTESIAN_POINT('',(-15.,-11.15,-7.15));
#2366=CARTESIAN_POINT('',(-15.,-11.15,8.15));
#2367=CARTESIAN_POINT('',(-15.,11.15,-7.15));
#2368=CARTESIAN_POINT('',(-15.,11.15,8.15));
#2369=CARTESIAN_POINT('',(-15.,11.15,8.15));
#2370=CARTESIAN_POINT('',(11.8,3.95000000000001,-3.15));
#2371=CARTESIAN_POINT('',(-9.3,3.95000000000001,-3.15));
#2372=CARTESIAN_POINT('',(11.8,3.95000000000001,-7.15));
#2373=CARTESIAN_POINT('',(-9.3,1.85,-3.15));
#2374=CARTESIAN_POINT('',(-9.3,-11.15,-3.15));
#2375=CARTESIAN_POINT('',(-9.3,-11.15,-7.15));
#2376=CARTESIAN_POINT('',(-9.3,1.85,-7.15));
#2377=CARTESIAN_POINT('',(0.,0.,-7.15));
#2378=CARTESIAN_POINT('',(-15.,-11.15,-7.15));
#2379=CARTESIAN_POINT('',(0.,0.,8.15));
#2380=CARTESIAN_POINT('',(-15.,-11.15,8.15));
#2381=CARTESIAN_POINT('',(15.,-11.15,8.15));
#2382=CARTESIAN_POINT('',(16.,-12.15,8.15));
#2383=CARTESIAN_POINT('',(-16.,12.15,8.15));
#2384=CARTESIAN_POINT('',(-15.,-11.15,8.15));
#2385=CARTESIAN_POINT('',(15.,11.15,8.15));
#2386=CARTESIAN_POINT('',(15.,11.15,8.15));
#2387=CARTESIAN_POINT('',(15.,-11.15,8.15));
#2388=CARTESIAN_POINT('',(16.,-12.15,8.15));
#2389=CARTESIAN_POINT('',(16.,12.15,-1.05));
#2390=CARTESIAN_POINT('',(-15.,11.15,-7.15));
#2391=CARTESIAN_POINT('',(-15.,11.15,-5.15));
#2392=CARTESIAN_POINT('',(-15.,11.15,-5.15));
#2393=CARTESIAN_POINT('',(-15.,11.15,-7.15));
#2394=CARTESIAN_POINT('',(-15.,-11.15,-7.15));
#2395=CARTESIAN_POINT('',(15.,11.15,-7.15));
#2396=CARTESIAN_POINT('',(15.,11.15,-7.15));
#2397=CARTESIAN_POINT('',(15.,11.15,-5.15));
#2398=CARTESIAN_POINT('',(15.,11.15,-7.15));
#2399=CARTESIAN_POINT('',(15.,11.15,-5.15));
#2400=CARTESIAN_POINT('',(15.,-11.15,-7.15));
#2401=CARTESIAN_POINT('',(15.,-11.15,-7.15));
#2402=CARTESIAN_POINT('',(-15.,-11.15,-7.15));
#2403=CARTESIAN_POINT('',(10.5,-11.15,-1.65));
#2404=CARTESIAN_POINT('',(7.5,-11.15,-1.65));
#2405=CARTESIAN_POINT('',(15.,-11.15,-7.15));
#2406=CARTESIAN_POINT('',(7.5,-11.15,-1.65));
#2407=CARTESIAN_POINT('',(-16.,12.15,8.15));
#2408=CARTESIAN_POINT('',(-16.,12.15,-1.05));
#2409=CARTESIAN_POINT('',(16.,-12.15,-1.05));
#2410=CARTESIAN_POINT('',(-16.,-10.15,-1.05));
#2411=CARTESIAN_POINT('',(0.,0.,-5.15));
#2412=CARTESIAN_POINT('',(15.,6.14999999999999,-5.15));
#2413=CARTESIAN_POINT('',(15.,-11.15,-7.15));
#2414=CARTESIAN_POINT('',(7.5,-11.15,-1.65));
#2415=CARTESIAN_POINT('',(7.5,-11.15,-1.65));
#2416=CARTESIAN_POINT('',(1.78893358460108E-16,1.93956567885678E-32,-1.65));
#2417=MECHANICAL_DESIGN_GEOMETRIC_PRESENTATION_REPRESENTATION('',(#1198,
#1199,#1200,#1201,#1202,#1203,#1204,#1205,#1206,#1207,#1208,#1209,#1210,
#1211,#1212,#1213,#1214,#1215,#1216,#1217,#1218,#1219,#1220,#1221,#1222,
#1223,#1224,#1225,#1226,#1227,#1228,#1229,#1230,#1231,#1232,#1233,#1234,
#1235,#1236,#1237,#1238,#1239,#1240,#1241,#1242,#1243,#1244,#1245,#1246,
#1247,#1248,#1249,#1250,#1251,#1252,#1253,#1254,#1255,#1256),#2418);
#2418=(
GEOMETRIC_REPRESENTATION_CONTEXT(3)
GLOBAL_UNCERTAINTY_ASSIGNED_CONTEXT((#2419))
GLOBAL_UNIT_ASSIGNED_CONTEXT((#2422,#2421,#2420))
REPRESENTATION_CONTEXT('PrintNormalBatterySpace_nofeet',
'TOP_LEVEL_ASSEMBLY_PART')
);
#2419=UNCERTAINTY_MEASURE_WITH_UNIT(LENGTH_MEASURE(0.005),#2422,
'DISTANCE_ACCURACY_VALUE','Maximum Tolerance applied to model');
#2420=(
NAMED_UNIT(*)
SI_UNIT($,.STERADIAN.)
SOLID_ANGLE_UNIT()
);
#2421=(
NAMED_UNIT(*)
PLANE_ANGLE_UNIT()
SI_UNIT($,.RADIAN.)
);
#2422=(
LENGTH_UNIT()
NAMED_UNIT(*)
SI_UNIT(.MILLI.,.METRE.)
);
#2423=PRODUCT_DEFINITION_SHAPE('','',#2424);
#2424=PRODUCT_DEFINITION('','',#2426,#2425);
#2425=PRODUCT_DEFINITION_CONTEXT('',#2432,'design');
#2426=PRODUCT_DEFINITION_FORMATION_WITH_SPECIFIED_SOURCE('','',#2428,
 .NOT_KNOWN.);
#2427=PRODUCT_RELATED_PRODUCT_CATEGORY('','',(#2428));
#2428=PRODUCT('PrintNormalBatterySpace_nofeet',
'PrintNormalBatterySpace_nofeet','PrintNormalBatterySpace_nofeet',(#2430));
#2429=PRODUCT_CATEGORY('','');
#2430=PRODUCT_CONTEXT('',#2432,'mechanical');
#2431=APPLICATION_PROTOCOL_DEFINITION('international standard',
'automotive_design',2010,#2432);
#2432=APPLICATION_CONTEXT(
'core data for automotive mechanical design processes');
ENDSEC;
END-ISO-10303-21;
