ISO-10303-21;
HEADER;
/* Generated by software containing ST-Developer
 * from STEP Tools, Inc. (www.steptools.com) 
 */
/* OPTION: strings as raw bytes, not using required /X/ escapes */

FILE_DESCRIPTION(
/* description */ ('Unknown'),
/* implementation_level */ '2;1');

FILE_NAME(
/* name */ 'PrintNormalBatterySpace',
/* time_stamp */ '2026-05-08T17:22:05+02:00',
/* author */ ('Unknown'),
/* organization */ ('Unknown'),
/* preprocessor_version */ 'ST-DEVELOPER v19.4',
/* originating_system */ 'Solid Edge',
/* authorisation */ 'Unknown');

FILE_SCHEMA (('AUTOMOTIVE_DESIGN {1 0 10303 214 3 1 1}'));
ENDSEC;

DATA;
#10=PROPERTY_DEFINITION_REPRESENTATION(#14,#12);
#11=PROPERTY_DEFINITION_REPRESENTATION(#15,#13);
#12=REPRESENTATION('',(#16),#2396);
#13=REPRESENTATION('',(#17),#2396);
#14=PROPERTY_DEFINITION('pmi validation property','',#2401);
#15=PROPERTY_DEFINITION('pmi validation property','',#2401);
#16=VALUE_REPRESENTATION_ITEM('number of annotations',COUNT_MEASURE(0.));
#17=VALUE_REPRESENTATION_ITEM('number of views',COUNT_MEASURE(0.));
#18=SHAPE_REPRESENTATION_RELATIONSHIP('','',#1515,#19);
#19=ADVANCED_BREP_SHAPE_REPRESENTATION('',(#1513),#2396);
#20=CYLINDRICAL_SURFACE('',#1578,1.);
#21=CYLINDRICAL_SURFACE('',#1580,1.);
#22=CYLINDRICAL_SURFACE('',#1582,1.);
#23=CYLINDRICAL_SURFACE('',#1583,1.);
#24=CYLINDRICAL_SURFACE('',#1585,1.);
#25=CYLINDRICAL_SURFACE('',#1587,1.);
#26=ELLIPSE('',#1572,1.00000146168649,1.);
#27=ELLIPSE('',#1579,1.41421356237309,1.);
#28=ELLIPSE('',#1581,1.41421356237309,1.);
#29=ELLIPSE('',#1584,1.41421356237309,1.);
#30=ELLIPSE('',#1586,1.41421356237309,1.);
#31=CIRCLE('',#1553,1.);
#32=CIRCLE('',#1554,1.);
#33=CIRCLE('',#1556,1.);
#34=CIRCLE('',#1561,1.);
#35=CIRCLE('',#1567,1.);
#36=CIRCLE('',#1568,1.);
#37=CIRCLE('',#1576,1.);
#38=ORIENTED_EDGE('',*,*,#468,.F.);
#39=ORIENTED_EDGE('',*,*,#469,.T.);
#40=ORIENTED_EDGE('',*,*,#470,.T.);
#41=ORIENTED_EDGE('',*,*,#471,.T.);
#42=ORIENTED_EDGE('',*,*,#472,.F.);
#43=ORIENTED_EDGE('',*,*,#473,.T.);
#44=ORIENTED_EDGE('',*,*,#474,.F.);
#45=ORIENTED_EDGE('',*,*,#475,.F.);
#46=ORIENTED_EDGE('',*,*,#476,.F.);
#47=ORIENTED_EDGE('',*,*,#477,.T.);
#48=ORIENTED_EDGE('',*,*,#478,.F.);
#49=ORIENTED_EDGE('',*,*,#479,.F.);
#50=ORIENTED_EDGE('',*,*,#480,.F.);
#51=ORIENTED_EDGE('',*,*,#481,.F.);
#52=ORIENTED_EDGE('',*,*,#482,.F.);
#53=ORIENTED_EDGE('',*,*,#483,.F.);
#54=ORIENTED_EDGE('',*,*,#484,.F.);
#55=ORIENTED_EDGE('',*,*,#485,.T.);
#56=ORIENTED_EDGE('',*,*,#486,.F.);
#57=ORIENTED_EDGE('',*,*,#487,.F.);
#58=ORIENTED_EDGE('',*,*,#488,.F.);
#59=ORIENTED_EDGE('',*,*,#489,.F.);
#60=ORIENTED_EDGE('',*,*,#490,.T.);
#61=ORIENTED_EDGE('',*,*,#491,.T.);
#62=ORIENTED_EDGE('',*,*,#492,.F.);
#63=ORIENTED_EDGE('',*,*,#493,.F.);
#64=ORIENTED_EDGE('',*,*,#494,.T.);
#65=ORIENTED_EDGE('',*,*,#495,.T.);
#66=ORIENTED_EDGE('',*,*,#493,.T.);
#67=ORIENTED_EDGE('',*,*,#496,.T.);
#68=ORIENTED_EDGE('',*,*,#497,.F.);
#69=ORIENTED_EDGE('',*,*,#498,.T.);
#70=ORIENTED_EDGE('',*,*,#499,.T.);
#71=ORIENTED_EDGE('',*,*,#500,.T.);
#72=ORIENTED_EDGE('',*,*,#501,.T.);
#73=ORIENTED_EDGE('',*,*,#502,.T.);
#74=ORIENTED_EDGE('',*,*,#503,.T.);
#75=ORIENTED_EDGE('',*,*,#504,.F.);
#76=ORIENTED_EDGE('',*,*,#500,.F.);
#77=ORIENTED_EDGE('',*,*,#505,.T.);
#78=ORIENTED_EDGE('',*,*,#475,.T.);
#79=ORIENTED_EDGE('',*,*,#506,.F.);
#80=ORIENTED_EDGE('',*,*,#507,.T.);
#81=ORIENTED_EDGE('',*,*,#508,.T.);
#82=ORIENTED_EDGE('',*,*,#509,.T.);
#83=ORIENTED_EDGE('',*,*,#510,.F.);
#84=ORIENTED_EDGE('',*,*,#511,.F.);
#85=ORIENTED_EDGE('',*,*,#512,.T.);
#86=ORIENTED_EDGE('',*,*,#513,.F.);
#87=ORIENTED_EDGE('',*,*,#514,.F.);
#88=ORIENTED_EDGE('',*,*,#515,.T.);
#89=ORIENTED_EDGE('',*,*,#516,.F.);
#90=ORIENTED_EDGE('',*,*,#517,.T.);
#91=ORIENTED_EDGE('',*,*,#518,.F.);
#92=ORIENTED_EDGE('',*,*,#519,.F.);
#93=ORIENTED_EDGE('',*,*,#520,.F.);
#94=ORIENTED_EDGE('',*,*,#490,.F.);
#95=ORIENTED_EDGE('',*,*,#521,.F.);
#96=ORIENTED_EDGE('',*,*,#522,.T.);
#97=ORIENTED_EDGE('',*,*,#523,.T.);
#98=ORIENTED_EDGE('',*,*,#524,.T.);
#99=ORIENTED_EDGE('',*,*,#525,.F.);
#100=ORIENTED_EDGE('',*,*,#526,.F.);
#101=ORIENTED_EDGE('',*,*,#527,.F.);
#102=ORIENTED_EDGE('',*,*,#528,.T.);
#103=ORIENTED_EDGE('',*,*,#529,.T.);
#104=ORIENTED_EDGE('',*,*,#530,.T.);
#105=ORIENTED_EDGE('',*,*,#531,.T.);
#106=ORIENTED_EDGE('',*,*,#532,.T.);
#107=ORIENTED_EDGE('',*,*,#533,.F.);
#108=ORIENTED_EDGE('',*,*,#470,.F.);
#109=ORIENTED_EDGE('',*,*,#534,.F.);
#110=ORIENTED_EDGE('',*,*,#535,.F.);
#111=ORIENTED_EDGE('',*,*,#518,.T.);
#112=ORIENTED_EDGE('',*,*,#536,.T.);
#113=ORIENTED_EDGE('',*,*,#537,.F.);
#114=ORIENTED_EDGE('',*,*,#492,.T.);
#115=ORIENTED_EDGE('',*,*,#538,.T.);
#116=ORIENTED_EDGE('',*,*,#539,.T.);
#117=ORIENTED_EDGE('',*,*,#537,.T.);
#118=ORIENTED_EDGE('',*,*,#540,.T.);
#119=ORIENTED_EDGE('',*,*,#541,.F.);
#120=ORIENTED_EDGE('',*,*,#542,.F.);
#121=ORIENTED_EDGE('',*,*,#543,.F.);
#122=ORIENTED_EDGE('',*,*,#544,.F.);
#123=ORIENTED_EDGE('',*,*,#496,.F.);
#124=ORIENTED_EDGE('',*,*,#545,.F.);
#125=ORIENTED_EDGE('',*,*,#546,.T.);
#126=ORIENTED_EDGE('',*,*,#494,.F.);
#127=ORIENTED_EDGE('',*,*,#544,.T.);
#128=ORIENTED_EDGE('',*,*,#547,.F.);
#129=ORIENTED_EDGE('',*,*,#528,.F.);
#130=ORIENTED_EDGE('',*,*,#503,.F.);
#131=ORIENTED_EDGE('',*,*,#548,.F.);
#132=ORIENTED_EDGE('',*,*,#549,.F.);
#133=ORIENTED_EDGE('',*,*,#550,.F.);
#134=ORIENTED_EDGE('',*,*,#551,.F.);
#135=ORIENTED_EDGE('',*,*,#552,.T.);
#136=ORIENTED_EDGE('',*,*,#553,.T.);
#137=ORIENTED_EDGE('',*,*,#554,.T.);
#138=ORIENTED_EDGE('',*,*,#555,.T.);
#139=ORIENTED_EDGE('',*,*,#556,.T.);
#140=ORIENTED_EDGE('',*,*,#482,.T.);
#141=ORIENTED_EDGE('',*,*,#557,.F.);
#142=ORIENTED_EDGE('',*,*,#517,.F.);
#143=ORIENTED_EDGE('',*,*,#558,.T.);
#144=ORIENTED_EDGE('',*,*,#559,.T.);
#145=ORIENTED_EDGE('',*,*,#551,.T.);
#146=ORIENTED_EDGE('',*,*,#560,.T.);
#147=ORIENTED_EDGE('',*,*,#511,.T.);
#148=ORIENTED_EDGE('',*,*,#561,.T.);
#149=ORIENTED_EDGE('',*,*,#562,.F.);
#150=ORIENTED_EDGE('',*,*,#532,.F.);
#151=ORIENTED_EDGE('',*,*,#563,.F.);
#152=ORIENTED_EDGE('',*,*,#540,.F.);
#153=ORIENTED_EDGE('',*,*,#536,.F.);
#154=ORIENTED_EDGE('',*,*,#564,.F.);
#155=ORIENTED_EDGE('',*,*,#565,.T.);
#156=ORIENTED_EDGE('',*,*,#566,.T.);
#157=ORIENTED_EDGE('',*,*,#567,.T.);
#158=ORIENTED_EDGE('',*,*,#568,.T.);
#159=ORIENTED_EDGE('',*,*,#569,.T.);
#160=ORIENTED_EDGE('',*,*,#570,.T.);
#161=ORIENTED_EDGE('',*,*,#571,.F.);
#162=ORIENTED_EDGE('',*,*,#525,.T.);
#163=ORIENTED_EDGE('',*,*,#572,.T.);
#164=ORIENTED_EDGE('',*,*,#573,.F.);
#165=ORIENTED_EDGE('',*,*,#574,.T.);
#166=ORIENTED_EDGE('',*,*,#575,.F.);
#167=ORIENTED_EDGE('',*,*,#576,.F.);
#168=ORIENTED_EDGE('',*,*,#526,.T.);
#169=ORIENTED_EDGE('',*,*,#571,.T.);
#170=ORIENTED_EDGE('',*,*,#575,.T.);
#171=ORIENTED_EDGE('',*,*,#577,.T.);
#172=ORIENTED_EDGE('',*,*,#578,.T.);
#173=ORIENTED_EDGE('',*,*,#564,.T.);
#174=ORIENTED_EDGE('',*,*,#579,.F.);
#175=ORIENTED_EDGE('',*,*,#580,.T.);
#176=ORIENTED_EDGE('',*,*,#581,.F.);
#177=ORIENTED_EDGE('',*,*,#582,.F.);
#178=ORIENTED_EDGE('',*,*,#531,.F.);
#179=ORIENTED_EDGE('',*,*,#583,.T.);
#180=ORIENTED_EDGE('',*,*,#541,.T.);
#181=ORIENTED_EDGE('',*,*,#563,.T.);
#182=ORIENTED_EDGE('',*,*,#584,.T.);
#183=ORIENTED_EDGE('',*,*,#585,.T.);
#184=ORIENTED_EDGE('',*,*,#468,.T.);
#185=ORIENTED_EDGE('',*,*,#586,.T.);
#186=ORIENTED_EDGE('',*,*,#561,.F.);
#187=ORIENTED_EDGE('',*,*,#510,.T.);
#188=ORIENTED_EDGE('',*,*,#587,.T.);
#189=ORIENTED_EDGE('',*,*,#506,.T.);
#190=ORIENTED_EDGE('',*,*,#474,.T.);
#191=ORIENTED_EDGE('',*,*,#588,.F.);
#192=ORIENTED_EDGE('',*,*,#589,.T.);
#193=ORIENTED_EDGE('',*,*,#590,.T.);
#194=ORIENTED_EDGE('',*,*,#591,.T.);
#195=ORIENTED_EDGE('',*,*,#592,.T.);
#196=ORIENTED_EDGE('',*,*,#476,.T.);
#197=ORIENTED_EDGE('',*,*,#593,.F.);
#198=ORIENTED_EDGE('',*,*,#594,.T.);
#199=ORIENTED_EDGE('',*,*,#595,.F.);
#200=ORIENTED_EDGE('',*,*,#596,.T.);
#201=ORIENTED_EDGE('',*,*,#597,.T.);
#202=ORIENTED_EDGE('',*,*,#483,.T.);
#203=ORIENTED_EDGE('',*,*,#556,.F.);
#204=ORIENTED_EDGE('',*,*,#598,.T.);
#205=ORIENTED_EDGE('',*,*,#599,.T.);
#206=ORIENTED_EDGE('',*,*,#600,.F.);
#207=ORIENTED_EDGE('',*,*,#552,.F.);
#208=ORIENTED_EDGE('',*,*,#559,.F.);
#209=ORIENTED_EDGE('',*,*,#601,.T.);
#210=ORIENTED_EDGE('',*,*,#602,.F.);
#211=ORIENTED_EDGE('',*,*,#603,.T.);
#212=ORIENTED_EDGE('',*,*,#604,.F.);
#213=ORIENTED_EDGE('',*,*,#605,.T.);
#214=ORIENTED_EDGE('',*,*,#606,.T.);
#215=ORIENTED_EDGE('',*,*,#486,.T.);
#216=ORIENTED_EDGE('',*,*,#607,.F.);
#217=ORIENTED_EDGE('',*,*,#608,.T.);
#218=ORIENTED_EDGE('',*,*,#609,.T.);
#219=ORIENTED_EDGE('',*,*,#610,.T.);
#220=ORIENTED_EDGE('',*,*,#611,.T.);
#221=ORIENTED_EDGE('',*,*,#472,.T.);
#222=ORIENTED_EDGE('',*,*,#505,.F.);
#223=ORIENTED_EDGE('',*,*,#612,.F.);
#224=ORIENTED_EDGE('',*,*,#512,.F.);
#225=ORIENTED_EDGE('',*,*,#560,.F.);
#226=ORIENTED_EDGE('',*,*,#550,.T.);
#227=ORIENTED_EDGE('',*,*,#613,.F.);
#228=ORIENTED_EDGE('',*,*,#614,.T.);
#229=ORIENTED_EDGE('',*,*,#504,.T.);
#230=ORIENTED_EDGE('',*,*,#557,.T.);
#231=ORIENTED_EDGE('',*,*,#481,.T.);
#232=ORIENTED_EDGE('',*,*,#606,.F.);
#233=ORIENTED_EDGE('',*,*,#615,.T.);
#234=ORIENTED_EDGE('',*,*,#593,.T.);
#235=ORIENTED_EDGE('',*,*,#479,.T.);
#236=ORIENTED_EDGE('',*,*,#616,.T.);
#237=ORIENTED_EDGE('',*,*,#567,.F.);
#238=ORIENTED_EDGE('',*,*,#617,.F.);
#239=ORIENTED_EDGE('',*,*,#487,.T.);
#240=ORIENTED_EDGE('',*,*,#568,.F.);
#241=ORIENTED_EDGE('',*,*,#616,.F.);
#242=ORIENTED_EDGE('',*,*,#478,.T.);
#243=ORIENTED_EDGE('',*,*,#618,.T.);
#244=ORIENTED_EDGE('',*,*,#592,.F.);
#245=ORIENTED_EDGE('',*,*,#619,.T.);
#246=ORIENTED_EDGE('',*,*,#607,.T.);
#247=ORIENTED_EDGE('',*,*,#485,.F.);
#248=ORIENTED_EDGE('',*,*,#620,.T.);
#249=ORIENTED_EDGE('',*,*,#621,.T.);
#250=ORIENTED_EDGE('',*,*,#622,.T.);
#251=ORIENTED_EDGE('',*,*,#569,.F.);
#252=ORIENTED_EDGE('',*,*,#618,.F.);
#253=ORIENTED_EDGE('',*,*,#477,.F.);
#254=ORIENTED_EDGE('',*,*,#566,.F.);
#255=ORIENTED_EDGE('',*,*,#623,.F.);
#256=ORIENTED_EDGE('',*,*,#624,.T.);
#257=ORIENTED_EDGE('',*,*,#620,.F.);
#258=ORIENTED_EDGE('',*,*,#484,.T.);
#259=ORIENTED_EDGE('',*,*,#617,.T.);
#260=ORIENTED_EDGE('',*,*,#581,.T.);
#261=ORIENTED_EDGE('',*,*,#625,.T.);
#262=ORIENTED_EDGE('',*,*,#522,.F.);
#263=ORIENTED_EDGE('',*,*,#626,.F.);
#264=ORIENTED_EDGE('',*,*,#627,.F.);
#265=ORIENTED_EDGE('',*,*,#545,.T.);
#266=ORIENTED_EDGE('',*,*,#527,.T.);
#267=ORIENTED_EDGE('',*,*,#576,.T.);
#268=ORIENTED_EDGE('',*,*,#582,.T.);
#269=ORIENTED_EDGE('',*,*,#626,.T.);
#270=ORIENTED_EDGE('',*,*,#521,.T.);
#271=ORIENTED_EDGE('',*,*,#489,.T.);
#272=ORIENTED_EDGE('',*,*,#523,.F.);
#273=ORIENTED_EDGE('',*,*,#625,.F.);
#274=ORIENTED_EDGE('',*,*,#580,.F.);
#275=ORIENTED_EDGE('',*,*,#628,.F.);
#276=ORIENTED_EDGE('',*,*,#572,.F.);
#277=ORIENTED_EDGE('',*,*,#524,.F.);
#278=ORIENTED_EDGE('',*,*,#628,.T.);
#279=ORIENTED_EDGE('',*,*,#579,.T.);
#280=ORIENTED_EDGE('',*,*,#577,.F.);
#281=ORIENTED_EDGE('',*,*,#574,.F.);
#282=ORIENTED_EDGE('',*,*,#629,.F.);
#283=ORIENTED_EDGE('',*,*,#621,.F.);
#284=ORIENTED_EDGE('',*,*,#624,.F.);
#285=ORIENTED_EDGE('',*,*,#630,.F.);
#286=ORIENTED_EDGE('',*,*,#565,.F.);
#287=ORIENTED_EDGE('',*,*,#578,.F.);
#288=ORIENTED_EDGE('',*,*,#630,.T.);
#289=ORIENTED_EDGE('',*,*,#623,.T.);
#290=ORIENTED_EDGE('',*,*,#570,.F.);
#291=ORIENTED_EDGE('',*,*,#622,.F.);
#292=ORIENTED_EDGE('',*,*,#629,.T.);
#293=ORIENTED_EDGE('',*,*,#573,.T.);
#294=ORIENTED_EDGE('',*,*,#601,.F.);
#295=ORIENTED_EDGE('',*,*,#558,.F.);
#296=ORIENTED_EDGE('',*,*,#516,.T.);
#297=ORIENTED_EDGE('',*,*,#631,.T.);
#298=ORIENTED_EDGE('',*,*,#586,.F.);
#299=ORIENTED_EDGE('',*,*,#471,.F.);
#300=ORIENTED_EDGE('',*,*,#533,.T.);
#301=ORIENTED_EDGE('',*,*,#562,.T.);
#302=ORIENTED_EDGE('',*,*,#632,.T.);
#303=ORIENTED_EDGE('',*,*,#633,.T.);
#304=ORIENTED_EDGE('',*,*,#613,.T.);
#305=ORIENTED_EDGE('',*,*,#549,.T.);
#306=ORIENTED_EDGE('',*,*,#634,.F.);
#307=ORIENTED_EDGE('',*,*,#635,.F.);
#308=ORIENTED_EDGE('',*,*,#636,.F.);
#309=ORIENTED_EDGE('',*,*,#553,.F.);
#310=ORIENTED_EDGE('',*,*,#600,.T.);
#311=ORIENTED_EDGE('',*,*,#637,.T.);
#312=ORIENTED_EDGE('',*,*,#638,.F.);
#313=ORIENTED_EDGE('',*,*,#554,.F.);
#314=ORIENTED_EDGE('',*,*,#636,.T.);
#315=ORIENTED_EDGE('',*,*,#639,.F.);
#316=ORIENTED_EDGE('',*,*,#640,.T.);
#317=ORIENTED_EDGE('',*,*,#638,.T.);
#318=ORIENTED_EDGE('',*,*,#641,.T.);
#319=ORIENTED_EDGE('',*,*,#598,.F.);
#320=ORIENTED_EDGE('',*,*,#555,.F.);
#321=ORIENTED_EDGE('',*,*,#642,.T.);
#322=ORIENTED_EDGE('',*,*,#643,.T.);
#323=ORIENTED_EDGE('',*,*,#632,.F.);
#324=ORIENTED_EDGE('',*,*,#644,.T.);
#325=ORIENTED_EDGE('',*,*,#645,.F.);
#326=ORIENTED_EDGE('',*,*,#646,.T.);
#327=ORIENTED_EDGE('',*,*,#639,.T.);
#328=ORIENTED_EDGE('',*,*,#635,.T.);
#329=ORIENTED_EDGE('',*,*,#502,.F.);
#330=ORIENTED_EDGE('',*,*,#647,.T.);
#331=ORIENTED_EDGE('',*,*,#645,.T.);
#332=ORIENTED_EDGE('',*,*,#634,.T.);
#333=ORIENTED_EDGE('',*,*,#548,.T.);
#334=ORIENTED_EDGE('',*,*,#543,.T.);
#335=ORIENTED_EDGE('',*,*,#648,.F.);
#336=ORIENTED_EDGE('',*,*,#529,.F.);
#337=ORIENTED_EDGE('',*,*,#547,.T.);
#338=ORIENTED_EDGE('',*,*,#542,.T.);
#339=ORIENTED_EDGE('',*,*,#583,.F.);
#340=ORIENTED_EDGE('',*,*,#530,.F.);
#341=ORIENTED_EDGE('',*,*,#648,.T.);
#342=ORIENTED_EDGE('',*,*,#538,.F.);
#343=ORIENTED_EDGE('',*,*,#491,.F.);
#344=ORIENTED_EDGE('',*,*,#520,.T.);
#345=ORIENTED_EDGE('',*,*,#649,.T.);
#346=ORIENTED_EDGE('',*,*,#539,.F.);
#347=ORIENTED_EDGE('',*,*,#649,.F.);
#348=ORIENTED_EDGE('',*,*,#519,.T.);
#349=ORIENTED_EDGE('',*,*,#535,.T.);
#350=ORIENTED_EDGE('',*,*,#650,.F.);
#351=ORIENTED_EDGE('',*,*,#651,.T.);
#352=ORIENTED_EDGE('',*,*,#652,.F.);
#353=ORIENTED_EDGE('',*,*,#653,.T.);
#354=ORIENTED_EDGE('',*,*,#654,.F.);
#355=ORIENTED_EDGE('',*,*,#509,.F.);
#356=ORIENTED_EDGE('',*,*,#655,.T.);
#357=ORIENTED_EDGE('',*,*,#656,.T.);
#358=ORIENTED_EDGE('',*,*,#657,.T.);
#359=ORIENTED_EDGE('',*,*,#513,.T.);
#360=ORIENTED_EDGE('',*,*,#654,.T.);
#361=ORIENTED_EDGE('',*,*,#658,.T.);
#362=ORIENTED_EDGE('',*,*,#659,.F.);
#363=ORIENTED_EDGE('',*,*,#660,.F.);
#364=ORIENTED_EDGE('',*,*,#587,.F.);
#365=ORIENTED_EDGE('',*,*,#661,.T.);
#366=ORIENTED_EDGE('',*,*,#662,.F.);
#367=ORIENTED_EDGE('',*,*,#507,.F.);
#368=ORIENTED_EDGE('',*,*,#660,.T.);
#369=ORIENTED_EDGE('',*,*,#655,.F.);
#370=ORIENTED_EDGE('',*,*,#508,.F.);
#371=ORIENTED_EDGE('',*,*,#662,.T.);
#372=ORIENTED_EDGE('',*,*,#663,.T.);
#373=ORIENTED_EDGE('',*,*,#664,.F.);
#374=ORIENTED_EDGE('',*,*,#652,.T.);
#375=ORIENTED_EDGE('',*,*,#665,.T.);
#376=ORIENTED_EDGE('',*,*,#666,.T.);
#377=ORIENTED_EDGE('',*,*,#667,.T.);
#378=ORIENTED_EDGE('',*,*,#664,.T.);
#379=ORIENTED_EDGE('',*,*,#668,.T.);
#380=ORIENTED_EDGE('',*,*,#669,.F.);
#381=ORIENTED_EDGE('',*,*,#656,.F.);
#382=ORIENTED_EDGE('',*,*,#669,.T.);
#383=ORIENTED_EDGE('',*,*,#670,.T.);
#384=ORIENTED_EDGE('',*,*,#497,.T.);
#385=ORIENTED_EDGE('',*,*,#514,.T.);
#386=ORIENTED_EDGE('',*,*,#657,.F.);
#387=ORIENTED_EDGE('',*,*,#499,.F.);
#388=ORIENTED_EDGE('',*,*,#671,.T.);
#389=ORIENTED_EDGE('',*,*,#650,.T.);
#390=ORIENTED_EDGE('',*,*,#612,.T.);
#391=ORIENTED_EDGE('',*,*,#637,.F.);
#392=ORIENTED_EDGE('',*,*,#599,.F.);
#393=ORIENTED_EDGE('',*,*,#672,.F.);
#394=ORIENTED_EDGE('',*,*,#644,.F.);
#395=ORIENTED_EDGE('',*,*,#672,.T.);
#396=ORIENTED_EDGE('',*,*,#641,.F.);
#397=ORIENTED_EDGE('',*,*,#640,.F.);
#398=ORIENTED_EDGE('',*,*,#646,.F.);
#399=ORIENTED_EDGE('',*,*,#647,.F.);
#400=ORIENTED_EDGE('',*,*,#501,.F.);
#401=ORIENTED_EDGE('',*,*,#673,.F.);
#402=ORIENTED_EDGE('',*,*,#642,.F.);
#403=ORIENTED_EDGE('',*,*,#633,.F.);
#404=ORIENTED_EDGE('',*,*,#643,.F.);
#405=ORIENTED_EDGE('',*,*,#673,.T.);
#406=ORIENTED_EDGE('',*,*,#614,.F.);
#407=ORIENTED_EDGE('',*,*,#653,.F.);
#408=ORIENTED_EDGE('',*,*,#667,.F.);
#409=ORIENTED_EDGE('',*,*,#674,.F.);
#410=ORIENTED_EDGE('',*,*,#658,.F.);
#411=ORIENTED_EDGE('',*,*,#674,.T.);
#412=ORIENTED_EDGE('',*,*,#666,.F.);
#413=ORIENTED_EDGE('',*,*,#675,.F.);
#414=ORIENTED_EDGE('',*,*,#498,.F.);
#415=ORIENTED_EDGE('',*,*,#670,.F.);
#416=ORIENTED_EDGE('',*,*,#668,.F.);
#417=ORIENTED_EDGE('',*,*,#663,.F.);
#418=ORIENTED_EDGE('',*,*,#661,.F.);
#419=ORIENTED_EDGE('',*,*,#659,.T.);
#420=ORIENTED_EDGE('',*,*,#675,.T.);
#421=ORIENTED_EDGE('',*,*,#665,.F.);
#422=ORIENTED_EDGE('',*,*,#651,.F.);
#423=ORIENTED_EDGE('',*,*,#671,.F.);
#424=ORIENTED_EDGE('',*,*,#488,.T.);
#425=ORIENTED_EDGE('',*,*,#495,.F.);
#426=ORIENTED_EDGE('',*,*,#546,.F.);
#427=ORIENTED_EDGE('',*,*,#627,.T.);
#428=ORIENTED_EDGE('',*,*,#604,.T.);
#429=ORIENTED_EDGE('',*,*,#676,.T.);
#430=ORIENTED_EDGE('',*,*,#595,.T.);
#431=ORIENTED_EDGE('',*,*,#677,.T.);
#432=ORIENTED_EDGE('',*,*,#597,.F.);
#433=ORIENTED_EDGE('',*,*,#678,.T.);
#434=ORIENTED_EDGE('',*,*,#602,.T.);
#435=ORIENTED_EDGE('',*,*,#480,.T.);
#436=ORIENTED_EDGE('',*,*,#590,.F.);
#437=ORIENTED_EDGE('',*,*,#679,.T.);
#438=ORIENTED_EDGE('',*,*,#609,.F.);
#439=ORIENTED_EDGE('',*,*,#680,.T.);
#440=ORIENTED_EDGE('',*,*,#611,.F.);
#441=ORIENTED_EDGE('',*,*,#681,.T.);
#442=ORIENTED_EDGE('',*,*,#588,.T.);
#443=ORIENTED_EDGE('',*,*,#473,.F.);
#444=ORIENTED_EDGE('',*,*,#603,.F.);
#445=ORIENTED_EDGE('',*,*,#678,.F.);
#446=ORIENTED_EDGE('',*,*,#596,.F.);
#447=ORIENTED_EDGE('',*,*,#676,.F.);
#448=ORIENTED_EDGE('',*,*,#594,.F.);
#449=ORIENTED_EDGE('',*,*,#615,.F.);
#450=ORIENTED_EDGE('',*,*,#605,.F.);
#451=ORIENTED_EDGE('',*,*,#677,.F.);
#452=ORIENTED_EDGE('',*,*,#610,.F.);
#453=ORIENTED_EDGE('',*,*,#679,.F.);
#454=ORIENTED_EDGE('',*,*,#589,.F.);
#455=ORIENTED_EDGE('',*,*,#681,.F.);
#456=ORIENTED_EDGE('',*,*,#591,.F.);
#457=ORIENTED_EDGE('',*,*,#680,.F.);
#458=ORIENTED_EDGE('',*,*,#608,.F.);
#459=ORIENTED_EDGE('',*,*,#619,.F.);
#460=ORIENTED_EDGE('',*,*,#469,.F.);
#461=ORIENTED_EDGE('',*,*,#585,.F.);
#462=ORIENTED_EDGE('',*,*,#682,.T.);
#463=ORIENTED_EDGE('',*,*,#534,.T.);
#464=ORIENTED_EDGE('',*,*,#584,.F.);
#465=ORIENTED_EDGE('',*,*,#631,.F.);
#466=ORIENTED_EDGE('',*,*,#515,.F.);
#467=ORIENTED_EDGE('',*,*,#682,.F.);
#468=EDGE_CURVE('',#683,#684,#824,.T.);
#469=EDGE_CURVE('',#683,#685,#825,.T.);
#470=EDGE_CURVE('',#685,#686,#826,.T.);
#471=EDGE_CURVE('',#686,#684,#827,.T.);
#472=EDGE_CURVE('',#687,#688,#828,.T.);
#473=EDGE_CURVE('',#687,#689,#829,.T.);
#474=EDGE_CURVE('',#690,#689,#830,.T.);
#475=EDGE_CURVE('',#688,#690,#831,.T.);
#476=EDGE_CURVE('',#691,#692,#832,.T.);
#477=EDGE_CURVE('',#691,#693,#833,.T.);
#478=EDGE_CURVE('',#694,#693,#834,.T.);
#479=EDGE_CURVE('',#692,#694,#835,.T.);
#480=EDGE_CURVE('',#695,#696,#836,.T.);
#481=EDGE_CURVE('',#697,#695,#837,.T.);
#482=EDGE_CURVE('',#698,#697,#838,.T.);
#483=EDGE_CURVE('',#696,#698,#839,.T.);
#484=EDGE_CURVE('',#699,#700,#840,.T.);
#485=EDGE_CURVE('',#699,#701,#841,.T.);
#486=EDGE_CURVE('',#702,#701,#842,.T.);
#487=EDGE_CURVE('',#700,#702,#843,.T.);
#488=EDGE_CURVE('',#703,#704,#844,.T.);
#489=EDGE_CURVE('',#705,#703,#845,.T.);
#490=EDGE_CURVE('',#705,#706,#846,.T.);
#491=EDGE_CURVE('',#706,#707,#847,.T.);
#492=EDGE_CURVE('',#708,#707,#848,.T.);
#493=EDGE_CURVE('',#704,#708,#849,.T.);
#494=EDGE_CURVE('',#709,#710,#850,.T.);
#495=EDGE_CURVE('',#710,#704,#851,.T.);
#496=EDGE_CURVE('',#708,#709,#852,.T.);
#497=EDGE_CURVE('',#711,#712,#853,.T.);
#498=EDGE_CURVE('',#711,#713,#854,.T.);
#499=EDGE_CURVE('',#713,#714,#855,.T.);
#500=EDGE_CURVE('',#714,#712,#856,.T.);
#501=EDGE_CURVE('',#715,#716,#857,.F.);
#502=EDGE_CURVE('',#716,#717,#858,.T.);
#503=EDGE_CURVE('',#717,#718,#859,.F.);
#504=EDGE_CURVE('',#715,#718,#860,.T.);
#505=EDGE_CURVE('',#714,#688,#861,.T.);
#506=EDGE_CURVE('',#719,#690,#862,.T.);
#507=EDGE_CURVE('',#719,#720,#863,.F.);
#508=EDGE_CURVE('',#720,#721,#864,.F.);
#509=EDGE_CURVE('',#721,#722,#865,.F.);
#510=EDGE_CURVE('',#723,#722,#866,.T.);
#511=EDGE_CURVE('',#724,#723,#867,.T.);
#512=EDGE_CURVE('',#724,#725,#868,.T.);
#513=EDGE_CURVE('',#726,#725,#869,.T.);
#514=EDGE_CURVE('',#712,#726,#870,.T.);
#515=EDGE_CURVE('',#727,#728,#871,.T.);
#516=EDGE_CURVE('',#729,#728,#872,.T.);
#517=EDGE_CURVE('',#729,#730,#873,.T.);
#518=EDGE_CURVE('',#731,#730,#874,.T.);
#519=EDGE_CURVE('',#732,#731,#875,.T.);
#520=EDGE_CURVE('',#706,#732,#876,.T.);
#521=EDGE_CURVE('',#733,#705,#877,.T.);
#522=EDGE_CURVE('',#733,#734,#878,.T.);
#523=EDGE_CURVE('',#734,#735,#879,.T.);
#524=EDGE_CURVE('',#735,#736,#880,.T.);
#525=EDGE_CURVE('',#737,#736,#881,.T.);
#526=EDGE_CURVE('',#738,#737,#882,.T.);
#527=EDGE_CURVE('',#739,#738,#883,.T.);
#528=EDGE_CURVE('',#739,#740,#884,.T.);
#529=EDGE_CURVE('',#740,#741,#885,.T.);
#530=EDGE_CURVE('',#741,#742,#886,.T.);
#531=EDGE_CURVE('',#742,#743,#887,.T.);
#532=EDGE_CURVE('',#743,#744,#888,.T.);
#533=EDGE_CURVE('',#686,#744,#889,.T.);
#534=EDGE_CURVE('',#727,#685,#890,.T.);
#535=EDGE_CURVE('',#731,#745,#891,.T.);
#536=EDGE_CURVE('',#730,#746,#892,.T.);
#537=EDGE_CURVE('',#745,#746,#893,.T.);
#538=EDGE_CURVE('',#707,#747,#894,.T.);
#539=EDGE_CURVE('',#747,#745,#895,.T.);
#540=EDGE_CURVE('',#746,#748,#896,.T.);
#541=EDGE_CURVE('',#749,#748,#897,.T.);
#542=EDGE_CURVE('',#750,#749,#898,.T.);
#543=EDGE_CURVE('',#751,#750,#899,.T.);
#544=EDGE_CURVE('',#709,#751,#900,.T.);
#545=EDGE_CURVE('',#752,#739,#901,.T.);
#546=EDGE_CURVE('',#752,#710,#902,.T.);
#547=EDGE_CURVE('',#740,#751,#903,.T.);
#548=EDGE_CURVE('',#753,#717,#904,.F.);
#549=EDGE_CURVE('',#754,#753,#905,.F.);
#550=EDGE_CURVE('',#755,#754,#906,.T.);
#551=EDGE_CURVE('',#756,#755,#907,.T.);
#552=EDGE_CURVE('',#756,#757,#908,.T.);
#553=EDGE_CURVE('',#757,#758,#909,.F.);
#554=EDGE_CURVE('',#758,#759,#910,.F.);
#555=EDGE_CURVE('',#759,#760,#911,.F.);
#556=EDGE_CURVE('',#760,#698,#912,.T.);
#557=EDGE_CURVE('',#718,#697,#913,.T.);
#558=EDGE_CURVE('',#729,#761,#914,.T.);
#559=EDGE_CURVE('',#761,#756,#915,.T.);
#560=EDGE_CURVE('',#755,#724,#916,.T.);
#561=EDGE_CURVE('',#723,#762,#917,.T.);
#562=EDGE_CURVE('',#744,#762,#918,.T.);
#563=EDGE_CURVE('',#748,#743,#919,.T.);
#564=EDGE_CURVE('',#763,#764,#920,.T.);
#565=EDGE_CURVE('',#763,#765,#921,.T.);
#566=EDGE_CURVE('',#765,#766,#922,.T.);
#567=EDGE_CURVE('',#766,#767,#923,.T.);
#568=EDGE_CURVE('',#767,#768,#924,.T.);
#569=EDGE_CURVE('',#768,#769,#925,.T.);
#570=EDGE_CURVE('',#769,#770,#926,.T.);
#571=EDGE_CURVE('',#737,#770,#927,.T.);
#572=EDGE_CURVE('',#736,#764,#928,.T.);
#573=EDGE_CURVE('',#771,#770,#929,.T.);
#574=EDGE_CURVE('',#771,#772,#930,.T.);
#575=EDGE_CURVE('',#773,#772,#931,.T.);
#576=EDGE_CURVE('',#738,#773,#932,.T.);
#577=EDGE_CURVE('',#772,#774,#933,.T.);
#578=EDGE_CURVE('',#774,#763,#934,.T.);
#579=EDGE_CURVE('',#775,#764,#935,.T.);
#580=EDGE_CURVE('',#775,#776,#936,.T.);
#581=EDGE_CURVE('',#777,#776,#937,.T.);
#582=EDGE_CURVE('',#773,#777,#938,.T.);
#583=EDGE_CURVE('',#742,#749,#939,.T.);
#584=EDGE_CURVE('',#778,#779,#940,.T.);
#585=EDGE_CURVE('',#779,#683,#941,.T.);
#586=EDGE_CURVE('',#684,#762,#942,.T.);
#587=EDGE_CURVE('',#722,#719,#943,.F.);
#588=EDGE_CURVE('',#780,#689,#944,.T.);
#589=EDGE_CURVE('',#780,#781,#945,.T.);
#590=EDGE_CURVE('',#781,#782,#946,.T.);
#591=EDGE_CURVE('',#782,#783,#947,.T.);
#592=EDGE_CURVE('',#783,#691,#948,.T.);
#593=EDGE_CURVE('',#784,#692,#949,.T.);
#594=EDGE_CURVE('',#784,#785,#950,.F.);
#595=EDGE_CURVE('',#786,#785,#951,.T.);
#596=EDGE_CURVE('',#786,#787,#952,.T.);
#597=EDGE_CURVE('',#787,#696,#953,.T.);
#598=EDGE_CURVE('',#760,#788,#954,.T.);
#599=EDGE_CURVE('',#788,#789,#955,.F.);
#600=EDGE_CURVE('',#757,#789,#956,.T.);
#601=EDGE_CURVE('',#761,#778,#957,.T.);
#602=EDGE_CURVE('',#790,#695,#958,.T.);
#603=EDGE_CURVE('',#790,#791,#959,.T.);
#604=EDGE_CURVE('',#792,#791,#960,.T.);
#605=EDGE_CURVE('',#792,#793,#961,.F.);
#606=EDGE_CURVE('',#793,#702,#962,.T.);
#607=EDGE_CURVE('',#794,#701,#963,.T.);
#608=EDGE_CURVE('',#794,#795,#964,.T.);
#609=EDGE_CURVE('',#795,#796,#965,.T.);
#610=EDGE_CURVE('',#796,#797,#966,.T.);
#611=EDGE_CURVE('',#797,#687,#967,.T.);
#612=EDGE_CURVE('',#725,#714,#968,.F.);
#613=EDGE_CURVE('',#798,#754,#969,.T.);
#614=EDGE_CURVE('',#798,#715,#970,.T.);
#615=EDGE_CURVE('',#793,#784,#971,.T.);
#616=EDGE_CURVE('',#694,#767,#972,.T.);
#617=EDGE_CURVE('',#700,#766,#973,.T.);
#618=EDGE_CURVE('',#693,#768,#974,.T.);
#619=EDGE_CURVE('',#783,#794,#975,.T.);
#620=EDGE_CURVE('',#699,#799,#976,.T.);
#621=EDGE_CURVE('',#799,#800,#977,.T.);
#622=EDGE_CURVE('',#800,#769,#978,.T.);
#623=EDGE_CURVE('',#801,#765,#979,.T.);
#624=EDGE_CURVE('',#801,#799,#980,.T.);
#625=EDGE_CURVE('',#776,#734,#981,.T.);
#626=EDGE_CURVE('',#777,#733,#982,.T.);
#627=EDGE_CURVE('',#752,#703,#983,.T.);
#628=EDGE_CURVE('',#735,#775,#984,.T.);
#629=EDGE_CURVE('',#800,#771,#985,.T.);
#630=EDGE_CURVE('',#774,#801,#986,.T.);
#631=EDGE_CURVE('',#728,#778,#987,.T.);
#632=EDGE_CURVE('',#802,#803,#988,.T.);
#633=EDGE_CURVE('',#803,#798,#31,.F.);
#634=EDGE_CURVE('',#804,#753,#989,.T.);
#635=EDGE_CURVE('',#805,#804,#990,.T.);
#636=EDGE_CURVE('',#758,#805,#991,.T.);
#637=EDGE_CURVE('',#789,#802,#32,.F.);
#638=EDGE_CURVE('',#759,#806,#992,.T.);
#639=EDGE_CURVE('',#807,#805,#993,.T.);
#640=EDGE_CURVE('',#807,#806,#33,.T.);
#641=EDGE_CURVE('',#806,#788,#994,.F.);
#642=EDGE_CURVE('',#808,#809,#995,.T.);
#643=EDGE_CURVE('',#809,#803,#996,.F.);
#644=EDGE_CURVE('',#802,#808,#997,.T.);
#645=EDGE_CURVE('',#810,#804,#998,.T.);
#646=EDGE_CURVE('',#810,#807,#999,.F.);
#647=EDGE_CURVE('',#716,#810,#34,.T.);
#648=EDGE_CURVE('',#741,#750,#1000,.T.);
#649=EDGE_CURVE('',#732,#747,#1001,.T.);
#650=EDGE_CURVE('',#811,#725,#1002,.T.);
#651=EDGE_CURVE('',#811,#812,#35,.F.);
#652=EDGE_CURVE('',#813,#812,#1003,.T.);
#653=EDGE_CURVE('',#813,#814,#36,.F.);
#654=EDGE_CURVE('',#722,#814,#1004,.T.);
#655=EDGE_CURVE('',#721,#815,#1005,.T.);
#656=EDGE_CURVE('',#815,#816,#1006,.T.);
#657=EDGE_CURVE('',#816,#726,#1007,.T.);
#658=EDGE_CURVE('',#814,#817,#1008,.F.);
#659=EDGE_CURVE('',#818,#817,#1009,.T.);
#660=EDGE_CURVE('',#719,#818,#1010,.T.);
#661=EDGE_CURVE('',#818,#819,#1011,.T.);
#662=EDGE_CURVE('',#720,#819,#1012,.T.);
#663=EDGE_CURVE('',#819,#820,#26,.T.);
#664=EDGE_CURVE('',#815,#820,#1013,.T.);
#665=EDGE_CURVE('',#812,#821,#1014,.F.);
#666=EDGE_CURVE('',#821,#822,#1015,.F.);
#667=EDGE_CURVE('',#822,#813,#1016,.T.);
#668=EDGE_CURVE('',#820,#823,#1017,.T.);
#669=EDGE_CURVE('',#816,#823,#1018,.T.);
#670=EDGE_CURVE('',#823,#711,#37,.T.);
#671=EDGE_CURVE('',#713,#811,#1019,.T.);
#672=EDGE_CURVE('',#808,#788,#27,.T.);
#673=EDGE_CURVE('',#809,#715,#28,.T.);
#674=EDGE_CURVE('',#817,#822,#29,.T.);
#675=EDGE_CURVE('',#713,#821,#30,.T.);
#676=EDGE_CURVE('',#791,#786,#1020,.T.);
#677=EDGE_CURVE('',#785,#792,#1021,.T.);
#678=EDGE_CURVE('',#787,#790,#1022,.T.);
#679=EDGE_CURVE('',#781,#796,#1023,.T.);
#680=EDGE_CURVE('',#795,#782,#1024,.T.);
#681=EDGE_CURVE('',#797,#780,#1025,.T.);
#682=EDGE_CURVE('',#779,#727,#1026,.T.);
#683=VERTEX_POINT('',#1971);
#684=VERTEX_POINT('',#1972);
#685=VERTEX_POINT('',#1974);
#686=VERTEX_POINT('',#1976);
#687=VERTEX_POINT('',#1980);
#688=VERTEX_POINT('',#1981);
#689=VERTEX_POINT('',#1983);
#690=VERTEX_POINT('',#1985);
#691=VERTEX_POINT('',#1989);
#692=VERTEX_POINT('',#1990);
#693=VERTEX_POINT('',#1992);
#694=VERTEX_POINT('',#1994);
#695=VERTEX_POINT('',#1998);
#696=VERTEX_POINT('',#1999);
#697=VERTEX_POINT('',#2001);
#698=VERTEX_POINT('',#2003);
#699=VERTEX_POINT('',#2007);
#700=VERTEX_POINT('',#2008);
#701=VERTEX_POINT('',#2010);
#702=VERTEX_POINT('',#2012);
#703=VERTEX_POINT('',#2016);
#704=VERTEX_POINT('',#2017);
#705=VERTEX_POINT('',#2019);
#706=VERTEX_POINT('',#2021);
#707=VERTEX_POINT('',#2023);
#708=VERTEX_POINT('',#2025);
#709=VERTEX_POINT('',#2029);
#710=VERTEX_POINT('',#2030);
#711=VERTEX_POINT('',#2035);
#712=VERTEX_POINT('',#2036);
#713=VERTEX_POINT('',#2038);
#714=VERTEX_POINT('',#2040);
#715=VERTEX_POINT('',#2044);
#716=VERTEX_POINT('',#2045);
#717=VERTEX_POINT('',#2047);
#718=VERTEX_POINT('',#2049);
#719=VERTEX_POINT('',#2054);
#720=VERTEX_POINT('',#2056);
#721=VERTEX_POINT('',#2058);
#722=VERTEX_POINT('',#2060);
#723=VERTEX_POINT('',#2062);
#724=VERTEX_POINT('',#2064);
#725=VERTEX_POINT('',#2066);
#726=VERTEX_POINT('',#2068);
#727=VERTEX_POINT('',#2072);
#728=VERTEX_POINT('',#2073);
#729=VERTEX_POINT('',#2075);
#730=VERTEX_POINT('',#2077);
#731=VERTEX_POINT('',#2079);
#732=VERTEX_POINT('',#2081);
#733=VERTEX_POINT('',#2084);
#734=VERTEX_POINT('',#2086);
#735=VERTEX_POINT('',#2088);
#736=VERTEX_POINT('',#2090);
#737=VERTEX_POINT('',#2092);
#738=VERTEX_POINT('',#2094);
#739=VERTEX_POINT('',#2096);
#740=VERTEX_POINT('',#2098);
#741=VERTEX_POINT('',#2100);
#742=VERTEX_POINT('',#2102);
#743=VERTEX_POINT('',#2104);
#744=VERTEX_POINT('',#2106);
#745=VERTEX_POINT('',#2111);
#746=VERTEX_POINT('',#2113);
#747=VERTEX_POINT('',#2117);
#748=VERTEX_POINT('',#2120);
#749=VERTEX_POINT('',#2122);
#750=VERTEX_POINT('',#2124);
#751=VERTEX_POINT('',#2126);
#752=VERTEX_POINT('',#2130);
#753=VERTEX_POINT('',#2135);
#754=VERTEX_POINT('',#2137);
#755=VERTEX_POINT('',#2139);
#756=VERTEX_POINT('',#2141);
#757=VERTEX_POINT('',#2143);
#758=VERTEX_POINT('',#2145);
#759=VERTEX_POINT('',#2147);
#760=VERTEX_POINT('',#2149);
#761=VERTEX_POINT('',#2154);
#762=VERTEX_POINT('',#2158);
#763=VERTEX_POINT('',#2163);
#764=VERTEX_POINT('',#2164);
#765=VERTEX_POINT('',#2166);
#766=VERTEX_POINT('',#2168);
#767=VERTEX_POINT('',#2170);
#768=VERTEX_POINT('',#2172);
#769=VERTEX_POINT('',#2174);
#770=VERTEX_POINT('',#2176);
#771=VERTEX_POINT('',#2181);
#772=VERTEX_POINT('',#2183);
#773=VERTEX_POINT('',#2185);
#774=VERTEX_POINT('',#2189);
#775=VERTEX_POINT('',#2192);
#776=VERTEX_POINT('',#2194);
#777=VERTEX_POINT('',#2196);
#778=VERTEX_POINT('',#2202);
#779=VERTEX_POINT('',#2203);
#780=VERTEX_POINT('',#2208);
#781=VERTEX_POINT('',#2210);
#782=VERTEX_POINT('',#2212);
#783=VERTEX_POINT('',#2214);
#784=VERTEX_POINT('',#2217);
#785=VERTEX_POINT('',#2219);
#786=VERTEX_POINT('',#2221);
#787=VERTEX_POINT('',#2223);
#788=VERTEX_POINT('',#2226);
#789=VERTEX_POINT('',#2228);
#790=VERTEX_POINT('',#2233);
#791=VERTEX_POINT('',#2235);
#792=VERTEX_POINT('',#2237);
#793=VERTEX_POINT('',#2239);
#794=VERTEX_POINT('',#2242);
#795=VERTEX_POINT('',#2244);
#796=VERTEX_POINT('',#2246);
#797=VERTEX_POINT('',#2248);
#798=VERTEX_POINT('',#2252);
#799=VERTEX_POINT('',#2263);
#800=VERTEX_POINT('',#2265);
#801=VERTEX_POINT('',#2269);
#802=VERTEX_POINT('',#2289);
#803=VERTEX_POINT('',#2290);
#804=VERTEX_POINT('',#2293);
#805=VERTEX_POINT('',#2295);
#806=VERTEX_POINT('',#2300);
#807=VERTEX_POINT('',#2302);
#808=VERTEX_POINT('',#2308);
#809=VERTEX_POINT('',#2309);
#810=VERTEX_POINT('',#2314);
#811=VERTEX_POINT('',#2326);
#812=VERTEX_POINT('',#2328);
#813=VERTEX_POINT('',#2330);
#814=VERTEX_POINT('',#2332);
#815=VERTEX_POINT('',#2335);
#816=VERTEX_POINT('',#2337);
#817=VERTEX_POINT('',#2341);
#818=VERTEX_POINT('',#2343);
#819=VERTEX_POINT('',#2347);
#820=VERTEX_POINT('',#2351);
#821=VERTEX_POINT('',#2355);
#822=VERTEX_POINT('',#2357);
#823=VERTEX_POINT('',#2361);
#824=LINE('',#1970,#1027);
#825=LINE('',#1973,#1028);
#826=LINE('',#1975,#1029);
#827=LINE('',#1977,#1030);
#828=LINE('',#1979,#1031);
#829=LINE('',#1982,#1032);
#830=LINE('',#1984,#1033);
#831=LINE('',#1986,#1034);
#832=LINE('',#1988,#1035);
#833=LINE('',#1991,#1036);
#834=LINE('',#1993,#1037);
#835=LINE('',#1995,#1038);
#836=LINE('',#1997,#1039);
#837=LINE('',#2000,#1040);
#838=LINE('',#2002,#1041);
#839=LINE('',#2004,#1042);
#840=LINE('',#2006,#1043);
#841=LINE('',#2009,#1044);
#842=LINE('',#2011,#1045);
#843=LINE('',#2013,#1046);
#844=LINE('',#2015,#1047);
#845=LINE('',#2018,#1048);
#846=LINE('',#2020,#1049);
#847=LINE('',#2022,#1050);
#848=LINE('',#2024,#1051);
#849=LINE('',#2026,#1052);
#850=LINE('',#2028,#1053);
#851=LINE('',#2031,#1054);
#852=LINE('',#2032,#1055);
#853=LINE('',#2034,#1056);
#854=LINE('',#2037,#1057);
#855=LINE('',#2039,#1058);
#856=LINE('',#2041,#1059);
#857=LINE('',#2043,#1060);
#858=LINE('',#2046,#1061);
#859=LINE('',#2048,#1062);
#860=LINE('',#2050,#1063);
#861=LINE('',#2052,#1064);
#862=LINE('',#2053,#1065);
#863=LINE('',#2055,#1066);
#864=LINE('',#2057,#1067);
#865=LINE('',#2059,#1068);
#866=LINE('',#2061,#1069);
#867=LINE('',#2063,#1070);
#868=LINE('',#2065,#1071);
#869=LINE('',#2067,#1072);
#870=LINE('',#2069,#1073);
#871=LINE('',#2071,#1074);
#872=LINE('',#2074,#1075);
#873=LINE('',#2076,#1076);
#874=LINE('',#2078,#1077);
#875=LINE('',#2080,#1078);
#876=LINE('',#2082,#1079);
#877=LINE('',#2083,#1080);
#878=LINE('',#2085,#1081);
#879=LINE('',#2087,#1082);
#880=LINE('',#2089,#1083);
#881=LINE('',#2091,#1084);
#882=LINE('',#2093,#1085);
#883=LINE('',#2095,#1086);
#884=LINE('',#2097,#1087);
#885=LINE('',#2099,#1088);
#886=LINE('',#2101,#1089);
#887=LINE('',#2103,#1090);
#888=LINE('',#2105,#1091);
#889=LINE('',#2107,#1092);
#890=LINE('',#2108,#1093);
#891=LINE('',#2110,#1094);
#892=LINE('',#2112,#1095);
#893=LINE('',#2114,#1096);
#894=LINE('',#2116,#1097);
#895=LINE('',#2118,#1098);
#896=LINE('',#2119,#1099);
#897=LINE('',#2121,#1100);
#898=LINE('',#2123,#1101);
#899=LINE('',#2125,#1102);
#900=LINE('',#2127,#1103);
#901=LINE('',#2129,#1104);
#902=LINE('',#2131,#1105);
#903=LINE('',#2132,#1106);
#904=LINE('',#2134,#1107);
#905=LINE('',#2136,#1108);
#906=LINE('',#2138,#1109);
#907=LINE('',#2140,#1110);
#908=LINE('',#2142,#1111);
#909=LINE('',#2144,#1112);
#910=LINE('',#2146,#1113);
#911=LINE('',#2148,#1114);
#912=LINE('',#2150,#1115);
#913=LINE('',#2151,#1116);
#914=LINE('',#2153,#1117);
#915=LINE('',#2155,#1118);
#916=LINE('',#2156,#1119);
#917=LINE('',#2157,#1120);
#918=LINE('',#2159,#1121);
#919=LINE('',#2160,#1122);
#920=LINE('',#2162,#1123);
#921=LINE('',#2165,#1124);
#922=LINE('',#2167,#1125);
#923=LINE('',#2169,#1126);
#924=LINE('',#2171,#1127);
#925=LINE('',#2173,#1128);
#926=LINE('',#2175,#1129);
#927=LINE('',#2177,#1130);
#928=LINE('',#2178,#1131);
#929=LINE('',#2180,#1132);
#930=LINE('',#2182,#1133);
#931=LINE('',#2184,#1134);
#932=LINE('',#2186,#1135);
#933=LINE('',#2188,#1136);
#934=LINE('',#2190,#1137);
#935=LINE('',#2191,#1138);
#936=LINE('',#2193,#1139);
#937=LINE('',#2195,#1140);
#938=LINE('',#2197,#1141);
#939=LINE('',#2199,#1142);
#940=LINE('',#2201,#1143);
#941=LINE('',#2204,#1144);
#942=LINE('',#2205,#1145);
#943=LINE('',#2206,#1146);
#944=LINE('',#2207,#1147);
#945=LINE('',#2209,#1148);
#946=LINE('',#2211,#1149);
#947=LINE('',#2213,#1150);
#948=LINE('',#2215,#1151);
#949=LINE('',#2216,#1152);
#950=LINE('',#2218,#1153);
#951=LINE('',#2220,#1154);
#952=LINE('',#2222,#1155);
#953=LINE('',#2224,#1156);
#954=LINE('',#2225,#1157);
#955=LINE('',#2227,#1158);
#956=LINE('',#2229,#1159);
#957=LINE('',#2230,#1160);
#958=LINE('',#2232,#1161);
#959=LINE('',#2234,#1162);
#960=LINE('',#2236,#1163);
#961=LINE('',#2238,#1164);
#962=LINE('',#2240,#1165);
#963=LINE('',#2241,#1166);
#964=LINE('',#2243,#1167);
#965=LINE('',#2245,#1168);
#966=LINE('',#2247,#1169);
#967=LINE('',#2249,#1170);
#968=LINE('',#2250,#1171);
#969=LINE('',#2251,#1172);
#970=LINE('',#2253,#1173);
#971=LINE('',#2255,#1174);
#972=LINE('',#2256,#1175);
#973=LINE('',#2257,#1176);
#974=LINE('',#2259,#1177);
#975=LINE('',#2261,#1178);
#976=LINE('',#2262,#1179);
#977=LINE('',#2264,#1180);
#978=LINE('',#2266,#1181);
#979=LINE('',#2268,#1182);
#980=LINE('',#2270,#1183);
#981=LINE('',#2272,#1184);
#982=LINE('',#2273,#1185);
#983=LINE('',#2275,#1186);
#984=LINE('',#2277,#1187);
#985=LINE('',#2280,#1188);
#986=LINE('',#2281,#1189);
#987=LINE('',#2285,#1190);
#988=LINE('',#2288,#1191);
#989=LINE('',#2292,#1192);
#990=LINE('',#2294,#1193);
#991=LINE('',#2296,#1194);
#992=LINE('',#2299,#1195);
#993=LINE('',#2301,#1196);
#994=LINE('',#2305,#1197);
#995=LINE('',#2307,#1198);
#996=LINE('',#2310,#1199);
#997=LINE('',#2311,#1200);
#998=LINE('',#2313,#1201);
#999=LINE('',#2315,#1202);
#1000=LINE('',#2319,#1203);
#1001=LINE('',#2322,#1204);
#1002=LINE('',#2325,#1205);
#1003=LINE('',#2329,#1206);
#1004=LINE('',#2333,#1207);
#1005=LINE('',#2334,#1208);
#1006=LINE('',#2336,#1209);
#1007=LINE('',#2338,#1210);
#1008=LINE('',#2340,#1211);
#1009=LINE('',#2342,#1212);
#1010=LINE('',#2344,#1213);
#1011=LINE('',#2346,#1214);
#1012=LINE('',#2348,#1215);
#1013=LINE('',#2352,#1216);
#1014=LINE('',#2354,#1217);
#1015=LINE('',#2356,#1218);
#1016=LINE('',#2358,#1219);
#1017=LINE('',#2360,#1220);
#1018=LINE('',#2362,#1221);
#1019=LINE('',#2366,#1222);
#1020=LINE('',#2379,#1223);
#1021=LINE('',#2380,#1224);
#1022=LINE('',#2382,#1225);
#1023=LINE('',#2384,#1226);
#1024=LINE('',#2385,#1227);
#1025=LINE('',#2387,#1228);
#1026=LINE('',#2393,#1229);
#1027=VECTOR('',#1603,1000.);
#1028=VECTOR('',#1604,1000.);
#1029=VECTOR('',#1605,1000.);
#1030=VECTOR('',#1606,1000.);
#1031=VECTOR('',#1609,1000.);
#1032=VECTOR('',#1610,1000.);
#1033=VECTOR('',#1611,1000.);
#1034=VECTOR('',#1612,1000.);
#1035=VECTOR('',#1615,1000.);
#1036=VECTOR('',#1616,1000.);
#1037=VECTOR('',#1617,1000.);
#1038=VECTOR('',#1618,1000.);
#1039=VECTOR('',#1621,1000.);
#1040=VECTOR('',#1622,1000.);
#1041=VECTOR('',#1623,1000.);
#1042=VECTOR('',#1624,1000.);
#1043=VECTOR('',#1627,1000.);
#1044=VECTOR('',#1628,1000.);
#1045=VECTOR('',#1629,1000.);
#1046=VECTOR('',#1630,1000.);
#1047=VECTOR('',#1633,1000.);
#1048=VECTOR('',#1634,1000.);
#1049=VECTOR('',#1635,1000.);
#1050=VECTOR('',#1636,1000.);
#1051=VECTOR('',#1637,1000.);
#1052=VECTOR('',#1638,1000.);
#1053=VECTOR('',#1641,1000.);
#1054=VECTOR('',#1642,1000.);
#1055=VECTOR('',#1643,1000.);
#1056=VECTOR('',#1646,1000.);
#1057=VECTOR('',#1647,1000.);
#1058=VECTOR('',#1648,1000.);
#1059=VECTOR('',#1649,1000.);
#1060=VECTOR('',#1652,1000.);
#1061=VECTOR('',#1653,1000.);
#1062=VECTOR('',#1654,1000.);
#1063=VECTOR('',#1655,1000.);
#1064=VECTOR('',#1658,1000.);
#1065=VECTOR('',#1659,1000.);
#1066=VECTOR('',#1660,1000.);
#1067=VECTOR('',#1661,1000.);
#1068=VECTOR('',#1662,1000.);
#1069=VECTOR('',#1663,1000.);
#1070=VECTOR('',#1664,1000.);
#1071=VECTOR('',#1665,1000.);
#1072=VECTOR('',#1666,1000.);
#1073=VECTOR('',#1667,1000.);
#1074=VECTOR('',#1670,1000.);
#1075=VECTOR('',#1671,1000.);
#1076=VECTOR('',#1672,1000.);
#1077=VECTOR('',#1673,1000.);
#1078=VECTOR('',#1674,1000.);
#1079=VECTOR('',#1675,1000.);
#1080=VECTOR('',#1676,1000.);
#1081=VECTOR('',#1677,1000.);
#1082=VECTOR('',#1678,1000.);
#1083=VECTOR('',#1679,1000.);
#1084=VECTOR('',#1680,1000.);
#1085=VECTOR('',#1681,1000.);
#1086=VECTOR('',#1682,1000.);
#1087=VECTOR('',#1683,1000.);
#1088=VECTOR('',#1684,1000.);
#1089=VECTOR('',#1685,1000.);
#1090=VECTOR('',#1686,1000.);
#1091=VECTOR('',#1687,1000.);
#1092=VECTOR('',#1688,1000.);
#1093=VECTOR('',#1689,1000.);
#1094=VECTOR('',#1692,1000.);
#1095=VECTOR('',#1693,1000.);
#1096=VECTOR('',#1694,1000.);
#1097=VECTOR('',#1697,1000.);
#1098=VECTOR('',#1698,1000.);
#1099=VECTOR('',#1699,1000.);
#1100=VECTOR('',#1700,1000.);
#1101=VECTOR('',#1701,1000.);
#1102=VECTOR('',#1702,1000.);
#1103=VECTOR('',#1703,1000.);
#1104=VECTOR('',#1706,1000.);
#1105=VECTOR('',#1707,1000.);
#1106=VECTOR('',#1708,1000.);
#1107=VECTOR('',#1711,1000.);
#1108=VECTOR('',#1712,1000.);
#1109=VECTOR('',#1713,1000.);
#1110=VECTOR('',#1714,1000.);
#1111=VECTOR('',#1715,1000.);
#1112=VECTOR('',#1716,1000.);
#1113=VECTOR('',#1717,1000.);
#1114=VECTOR('',#1718,1000.);
#1115=VECTOR('',#1719,1000.);
#1116=VECTOR('',#1720,1000.);
#1117=VECTOR('',#1723,1000.);
#1118=VECTOR('',#1724,1000.);
#1119=VECTOR('',#1725,1000.);
#1120=VECTOR('',#1726,1000.);
#1121=VECTOR('',#1727,1000.);
#1122=VECTOR('',#1728,1000.);
#1123=VECTOR('',#1731,1000.);
#1124=VECTOR('',#1732,1000.);
#1125=VECTOR('',#1733,1000.);
#1126=VECTOR('',#1734,1000.);
#1127=VECTOR('',#1735,1000.);
#1128=VECTOR('',#1736,1000.);
#1129=VECTOR('',#1737,1000.);
#1130=VECTOR('',#1738,1000.);
#1131=VECTOR('',#1739,1000.);
#1132=VECTOR('',#1742,1000.);
#1133=VECTOR('',#1743,1000.);
#1134=VECTOR('',#1744,1000.);
#1135=VECTOR('',#1745,1000.);
#1136=VECTOR('',#1748,1000.);
#1137=VECTOR('',#1749,1000.);
#1138=VECTOR('',#1750,1000.);
#1139=VECTOR('',#1751,1000.);
#1140=VECTOR('',#1752,1000.);
#1141=VECTOR('',#1753,1000.);
#1142=VECTOR('',#1756,1000.);
#1143=VECTOR('',#1759,1000.);
#1144=VECTOR('',#1760,1000.);
#1145=VECTOR('',#1761,1000.);
#1146=VECTOR('',#1762,1000.);
#1147=VECTOR('',#1763,1000.);
#1148=VECTOR('',#1764,1000.);
#1149=VECTOR('',#1765,1000.);
#1150=VECTOR('',#1766,1000.);
#1151=VECTOR('',#1767,1000.);
#1152=VECTOR('',#1768,1000.);
#1153=VECTOR('',#1769,1000.);
#1154=VECTOR('',#1770,1000.);
#1155=VECTOR('',#1771,1000.);
#1156=VECTOR('',#1772,1000.);
#1157=VECTOR('',#1773,1000.);
#1158=VECTOR('',#1774,1000.);
#1159=VECTOR('',#1775,1000.);
#1160=VECTOR('',#1776,1000.);
#1161=VECTOR('',#1779,1000.);
#1162=VECTOR('',#1780,1000.);
#1163=VECTOR('',#1781,1000.);
#1164=VECTOR('',#1782,1000.);
#1165=VECTOR('',#1783,1000.);
#1166=VECTOR('',#1784,1000.);
#1167=VECTOR('',#1785,1000.);
#1168=VECTOR('',#1786,1000.);
#1169=VECTOR('',#1787,1000.);
#1170=VECTOR('',#1788,1000.);
#1171=VECTOR('',#1789,1000.);
#1172=VECTOR('',#1790,1000.);
#1173=VECTOR('',#1791,1000.);
#1174=VECTOR('',#1794,1000.);
#1175=VECTOR('',#1795,1000.);
#1176=VECTOR('',#1796,1000.);
#1177=VECTOR('',#1799,1000.);
#1178=VECTOR('',#1802,1000.);
#1179=VECTOR('',#1803,1000.);
#1180=VECTOR('',#1804,1000.);
#1181=VECTOR('',#1805,1000.);
#1182=VECTOR('',#1808,1000.);
#1183=VECTOR('',#1809,1000.);
#1184=VECTOR('',#1812,1000.);
#1185=VECTOR('',#1813,1000.);
#1186=VECTOR('',#1816,1000.);
#1187=VECTOR('',#1819,1000.);
#1188=VECTOR('',#1824,1000.);
#1189=VECTOR('',#1825,1000.);
#1190=VECTOR('',#1832,1000.);
#1191=VECTOR('',#1837,1000.);
#1192=VECTOR('',#1840,1000.);
#1193=VECTOR('',#1841,1000.);
#1194=VECTOR('',#1842,1000.);
#1195=VECTOR('',#1847,1000.);
#1196=VECTOR('',#1848,1000.);
#1197=VECTOR('',#1853,1000.);
#1198=VECTOR('',#1856,1000.);
#1199=VECTOR('',#1857,1000.);
#1200=VECTOR('',#1858,1000.);
#1201=VECTOR('',#1861,1000.);
#1202=VECTOR('',#1862,1000.);
#1203=VECTOR('',#1869,1000.);
#1204=VECTOR('',#1874,1000.);
#1205=VECTOR('',#1879,1000.);
#1206=VECTOR('',#1882,1000.);
#1207=VECTOR('',#1885,1000.);
#1208=VECTOR('',#1886,1000.);
#1209=VECTOR('',#1887,1000.);
#1210=VECTOR('',#1888,1000.);
#1211=VECTOR('',#1891,1000.);
#1212=VECTOR('',#1892,1000.);
#1213=VECTOR('',#1893,1000.);
#1214=VECTOR('',#1896,1000.);
#1215=VECTOR('',#1897,1000.);
#1216=VECTOR('',#1902,1000.);
#1217=VECTOR('',#1905,1000.);
#1218=VECTOR('',#1906,1000.);
#1219=VECTOR('',#1907,1000.);
#1220=VECTOR('',#1910,1000.);
#1221=VECTOR('',#1911,1000.);
#1222=VECTOR('',#1918,1000.);
#1223=VECTOR('',#1943,1000.);
#1224=VECTOR('',#1944,1000.);
#1225=VECTOR('',#1947,1000.);
#1226=VECTOR('',#1950,1000.);
#1227=VECTOR('',#1951,1000.);
#1228=VECTOR('',#1954,1000.);
#1229=VECTOR('',#1965,1000.);
#1230=EDGE_LOOP('',(#38,#39,#40,#41));
#1231=EDGE_LOOP('',(#42,#43,#44,#45));
#1232=EDGE_LOOP('',(#46,#47,#48,#49));
#1233=EDGE_LOOP('',(#50,#51,#52,#53));
#1234=EDGE_LOOP('',(#54,#55,#56,#57));
#1235=EDGE_LOOP('',(#58,#59,#60,#61,#62,#63));
#1236=EDGE_LOOP('',(#64,#65,#66,#67));
#1237=EDGE_LOOP('',(#68,#69,#70,#71));
#1238=EDGE_LOOP('',(#72,#73,#74,#75));
#1239=EDGE_LOOP('',(#76,#77,#78,#79,#80,#81,#82,#83,#84,#85,#86,#87));
#1240=EDGE_LOOP('',(#88,#89,#90,#91,#92,#93,#94,#95,#96,#97,#98,#99,#100,
#101,#102,#103,#104,#105,#106,#107,#108,#109));
#1241=EDGE_LOOP('',(#110,#111,#112,#113));
#1242=EDGE_LOOP('',(#114,#115,#116,#117,#118,#119,#120,#121,#122,#123));
#1243=EDGE_LOOP('',(#124,#125,#126,#127,#128,#129));
#1244=EDGE_LOOP('',(#130,#131,#132,#133,#134,#135,#136,#137,#138,#139,#140,
#141));
#1245=EDGE_LOOP('',(#142,#143,#144,#145,#146,#147,#148,#149,#150,#151,#152,
#153));
#1246=EDGE_LOOP('',(#154,#155,#156,#157,#158,#159,#160,#161,#162,#163));
#1247=EDGE_LOOP('',(#164,#165,#166,#167,#168,#169));
#1248=EDGE_LOOP('',(#170,#171,#172,#173,#174,#175,#176,#177));
#1249=EDGE_LOOP('',(#178,#179,#180,#181));
#1250=EDGE_LOOP('',(#182,#183,#184,#185,#186,#187,#188,#189,#190,#191,#192,
#193,#194,#195,#196,#197,#198,#199,#200,#201,#202,#203,#204,#205,#206,#207,
#208,#209));
#1251=EDGE_LOOP('',(#210,#211,#212,#213,#214,#215,#216,#217,#218,#219,#220,
#221,#222,#223,#224,#225,#226,#227,#228,#229,#230,#231));
#1252=EDGE_LOOP('',(#232,#233,#234,#235,#236,#237,#238,#239));
#1253=EDGE_LOOP('',(#240,#241,#242,#243));
#1254=EDGE_LOOP('',(#244,#245,#246,#247,#248,#249,#250,#251,#252,#253));
#1255=EDGE_LOOP('',(#254,#255,#256,#257,#258,#259));
#1256=EDGE_LOOP('',(#260,#261,#262,#263));
#1257=EDGE_LOOP('',(#264,#265,#266,#267,#268,#269,#270,#271));
#1258=EDGE_LOOP('',(#272,#273,#274,#275));
#1259=EDGE_LOOP('',(#276,#277,#278,#279));
#1260=EDGE_LOOP('',(#280,#281,#282,#283,#284,#285));
#1261=EDGE_LOOP('',(#286,#287,#288,#289));
#1262=EDGE_LOOP('',(#290,#291,#292,#293));
#1263=EDGE_LOOP('',(#294,#295,#296,#297));
#1264=EDGE_LOOP('',(#298,#299,#300,#301));
#1265=EDGE_LOOP('',(#302,#303,#304,#305,#306,#307,#308,#309,#310,#311));
#1266=EDGE_LOOP('',(#312,#313,#314,#315,#316));
#1267=EDGE_LOOP('',(#317,#318,#319,#320));
#1268=EDGE_LOOP('',(#321,#322,#323,#324));
#1269=EDGE_LOOP('',(#325,#326,#327,#328));
#1270=EDGE_LOOP('',(#329,#330,#331,#332,#333));
#1271=EDGE_LOOP('',(#334,#335,#336,#337));
#1272=EDGE_LOOP('',(#338,#339,#340,#341));
#1273=EDGE_LOOP('',(#342,#343,#344,#345));
#1274=EDGE_LOOP('',(#346,#347,#348,#349));
#1275=EDGE_LOOP('',(#350,#351,#352,#353,#354,#355,#356,#357,#358,#359));
#1276=EDGE_LOOP('',(#360,#361,#362,#363,#364));
#1277=EDGE_LOOP('',(#365,#366,#367,#368));
#1278=EDGE_LOOP('',(#369,#370,#371,#372,#373));
#1279=EDGE_LOOP('',(#374,#375,#376,#377));
#1280=EDGE_LOOP('',(#378,#379,#380,#381));
#1281=EDGE_LOOP('',(#382,#383,#384,#385,#386));
#1282=EDGE_LOOP('',(#387,#388,#389,#390));
#1283=EDGE_LOOP('',(#391,#392,#393,#394));
#1284=EDGE_LOOP('',(#395,#396,#397,#398,#399,#400,#401,#402));
#1285=EDGE_LOOP('',(#403,#404,#405,#406));
#1286=EDGE_LOOP('',(#407,#408,#409,#410));
#1287=EDGE_LOOP('',(#411,#412,#413,#414,#415,#416,#417,#418,#419));
#1288=EDGE_LOOP('',(#420,#421,#422,#423));
#1289=EDGE_LOOP('',(#424,#425,#426,#427));
#1290=EDGE_LOOP('',(#428,#429,#430,#431));
#1291=EDGE_LOOP('',(#432,#433,#434,#435));
#1292=EDGE_LOOP('',(#436,#437,#438,#439));
#1293=EDGE_LOOP('',(#440,#441,#442,#443));
#1294=EDGE_LOOP('',(#444,#445,#446,#447));
#1295=EDGE_LOOP('',(#448,#449,#450,#451));
#1296=EDGE_LOOP('',(#452,#453,#454,#455));
#1297=EDGE_LOOP('',(#456,#457,#458,#459));
#1298=EDGE_LOOP('',(#460,#461,#462,#463));
#1299=EDGE_LOOP('',(#464,#465,#466,#467));
#1300=FACE_BOUND('',#1230,.T.);
#1301=FACE_BOUND('',#1231,.T.);
#1302=FACE_BOUND('',#1232,.T.);
#1303=FACE_BOUND('',#1233,.T.);
#1304=FACE_BOUND('',#1234,.T.);
#1305=FACE_BOUND('',#1235,.T.);
#1306=FACE_BOUND('',#1236,.T.);
#1307=FACE_BOUND('',#1237,.T.);
#1308=FACE_BOUND('',#1238,.T.);
#1309=FACE_BOUND('',#1239,.T.);
#1310=FACE_BOUND('',#1240,.T.);
#1311=FACE_BOUND('',#1241,.T.);
#1312=FACE_BOUND('',#1242,.T.);
#1313=FACE_BOUND('',#1243,.T.);
#1314=FACE_BOUND('',#1244,.T.);
#1315=FACE_BOUND('',#1245,.T.);
#1316=FACE_BOUND('',#1246,.T.);
#1317=FACE_BOUND('',#1247,.T.);
#1318=FACE_BOUND('',#1248,.T.);
#1319=FACE_BOUND('',#1249,.T.);
#1320=FACE_BOUND('',#1250,.T.);
#1321=FACE_BOUND('',#1251,.T.);
#1322=FACE_BOUND('',#1252,.T.);
#1323=FACE_BOUND('',#1253,.T.);
#1324=FACE_BOUND('',#1254,.T.);
#1325=FACE_BOUND('',#1255,.T.);
#1326=FACE_BOUND('',#1256,.T.);
#1327=FACE_BOUND('',#1257,.T.);
#1328=FACE_BOUND('',#1258,.T.);
#1329=FACE_BOUND('',#1259,.T.);
#1330=FACE_BOUND('',#1260,.T.);
#1331=FACE_BOUND('',#1261,.T.);
#1332=FACE_BOUND('',#1262,.T.);
#1333=FACE_BOUND('',#1263,.T.);
#1334=FACE_BOUND('',#1264,.T.);
#1335=FACE_BOUND('',#1265,.T.);
#1336=FACE_BOUND('',#1266,.T.);
#1337=FACE_BOUND('',#1267,.T.);
#1338=FACE_BOUND('',#1268,.T.);
#1339=FACE_BOUND('',#1269,.T.);
#1340=FACE_BOUND('',#1270,.T.);
#1341=FACE_BOUND('',#1271,.T.);
#1342=FACE_BOUND('',#1272,.T.);
#1343=FACE_BOUND('',#1273,.T.);
#1344=FACE_BOUND('',#1274,.T.);
#1345=FACE_BOUND('',#1275,.T.);
#1346=FACE_BOUND('',#1276,.T.);
#1347=FACE_BOUND('',#1277,.T.);
#1348=FACE_BOUND('',#1278,.T.);
#1349=FACE_BOUND('',#1279,.T.);
#1350=FACE_BOUND('',#1280,.T.);
#1351=FACE_BOUND('',#1281,.T.);
#1352=FACE_BOUND('',#1282,.T.);
#1353=FACE_BOUND('',#1283,.T.);
#1354=FACE_BOUND('',#1284,.T.);
#1355=FACE_BOUND('',#1285,.T.);
#1356=FACE_BOUND('',#1286,.T.);
#1357=FACE_BOUND('',#1287,.T.);
#1358=FACE_BOUND('',#1288,.T.);
#1359=FACE_BOUND('',#1289,.T.);
#1360=FACE_BOUND('',#1290,.T.);
#1361=FACE_BOUND('',#1291,.T.);
#1362=FACE_BOUND('',#1292,.T.);
#1363=FACE_BOUND('',#1293,.T.);
#1364=FACE_BOUND('',#1294,.T.);
#1365=FACE_BOUND('',#1295,.T.);
#1366=FACE_BOUND('',#1296,.T.);
#1367=FACE_BOUND('',#1297,.T.);
#1368=FACE_BOUND('',#1298,.T.);
#1369=FACE_BOUND('',#1299,.T.);
#1370=PLANE('',#1517);
#1371=PLANE('',#1518);
#1372=PLANE('',#1519);
#1373=PLANE('',#1520);
#1374=PLANE('',#1521);
#1375=PLANE('',#1522);
#1376=PLANE('',#1523);
#1377=PLANE('',#1524);
#1378=PLANE('',#1525);
#1379=PLANE('',#1526);
#1380=PLANE('',#1527);
#1381=PLANE('',#1528);
#1382=PLANE('',#1529);
#1383=PLANE('',#1530);
#1384=PLANE('',#1531);
#1385=PLANE('',#1532);
#1386=PLANE('',#1533);
#1387=PLANE('',#1534);
#1388=PLANE('',#1535);
#1389=PLANE('',#1536);
#1390=PLANE('',#1537);
#1391=PLANE('',#1538);
#1392=PLANE('',#1539);
#1393=PLANE('',#1540);
#1394=PLANE('',#1541);
#1395=PLANE('',#1542);
#1396=PLANE('',#1543);
#1397=PLANE('',#1544);
#1398=PLANE('',#1545);
#1399=PLANE('',#1546);
#1400=PLANE('',#1547);
#1401=PLANE('',#1548);
#1402=PLANE('',#1549);
#1403=PLANE('',#1550);
#1404=PLANE('',#1551);
#1405=PLANE('',#1552);
#1406=PLANE('',#1555);
#1407=PLANE('',#1557);
#1408=PLANE('',#1558);
#1409=PLANE('',#1559);
#1410=PLANE('',#1560);
#1411=PLANE('',#1562);
#1412=PLANE('',#1563);
#1413=PLANE('',#1564);
#1414=PLANE('',#1565);
#1415=PLANE('',#1566);
#1416=PLANE('',#1569);
#1417=PLANE('',#1570);
#1418=PLANE('',#1571);
#1419=PLANE('',#1573);
#1420=PLANE('',#1574);
#1421=PLANE('',#1575);
#1422=PLANE('',#1577);
#1423=PLANE('',#1588);
#1424=PLANE('',#1589);
#1425=PLANE('',#1590);
#1426=PLANE('',#1591);
#1427=PLANE('',#1592);
#1428=PLANE('',#1593);
#1429=PLANE('',#1594);
#1430=PLANE('',#1595);
#1431=PLANE('',#1596);
#1432=PLANE('',#1597);
#1433=PLANE('',#1598);
#1434=ADVANCED_FACE('',(#1300),#1370,.T.);
#1435=ADVANCED_FACE('',(#1301),#1371,.F.);
#1436=ADVANCED_FACE('',(#1302),#1372,.F.);
#1437=ADVANCED_FACE('',(#1303),#1373,.F.);
#1438=ADVANCED_FACE('',(#1304),#1374,.F.);
#1439=ADVANCED_FACE('',(#1305),#1375,.F.);
#1440=ADVANCED_FACE('',(#1306),#1376,.T.);
#1441=ADVANCED_FACE('',(#1307),#1377,.F.);
#1442=ADVANCED_FACE('',(#1308),#1378,.F.);
#1443=ADVANCED_FACE('',(#1309),#1379,.F.);
#1444=ADVANCED_FACE('',(#1310),#1380,.F.);
#1445=ADVANCED_FACE('',(#1311),#1381,.F.);
#1446=ADVANCED_FACE('',(#1312),#1382,.F.);
#1447=ADVANCED_FACE('',(#1313),#1383,.F.);
#1448=ADVANCED_FACE('',(#1314),#1384,.F.);
#1449=ADVANCED_FACE('',(#1315),#1385,.T.);
#1450=ADVANCED_FACE('',(#1316),#1386,.T.);
#1451=ADVANCED_FACE('',(#1317),#1387,.F.);
#1452=ADVANCED_FACE('',(#1318),#1388,.F.);
#1453=ADVANCED_FACE('',(#1319),#1389,.F.);
#1454=ADVANCED_FACE('',(#1320),#1390,.F.);
#1455=ADVANCED_FACE('',(#1321),#1391,.F.);
#1456=ADVANCED_FACE('',(#1322),#1392,.T.);
#1457=ADVANCED_FACE('',(#1323),#1393,.T.);
#1458=ADVANCED_FACE('',(#1324),#1394,.T.);
#1459=ADVANCED_FACE('',(#1325),#1395,.T.);
#1460=ADVANCED_FACE('',(#1326),#1396,.F.);
#1461=ADVANCED_FACE('',(#1327),#1397,.T.);
#1462=ADVANCED_FACE('',(#1328),#1398,.F.);
#1463=ADVANCED_FACE('',(#1329),#1399,.T.);
#1464=ADVANCED_FACE('',(#1330),#1400,.F.);
#1465=ADVANCED_FACE('',(#1331),#1401,.T.);
#1466=ADVANCED_FACE('',(#1332),#1402,.T.);
#1467=ADVANCED_FACE('',(#1333),#1403,.T.);
#1468=ADVANCED_FACE('',(#1334),#1404,.T.);
#1469=ADVANCED_FACE('',(#1335),#1405,.F.);
#1470=ADVANCED_FACE('',(#1336),#1406,.F.);
#1471=ADVANCED_FACE('',(#1337),#1407,.F.);
#1472=ADVANCED_FACE('',(#1338),#1408,.F.);
#1473=ADVANCED_FACE('',(#1339),#1409,.F.);
#1474=ADVANCED_FACE('',(#1340),#1410,.F.);
#1475=ADVANCED_FACE('',(#1341),#1411,.F.);
#1476=ADVANCED_FACE('',(#1342),#1412,.F.);
#1477=ADVANCED_FACE('',(#1343),#1413,.T.);
#1478=ADVANCED_FACE('',(#1344),#1414,.T.);
#1479=ADVANCED_FACE('',(#1345),#1415,.F.);
#1480=ADVANCED_FACE('',(#1346),#1416,.F.);
#1481=ADVANCED_FACE('',(#1347),#1417,.F.);
#1482=ADVANCED_FACE('',(#1348),#1418,.F.);
#1483=ADVANCED_FACE('',(#1349),#1419,.F.);
#1484=ADVANCED_FACE('',(#1350),#1420,.F.);
#1485=ADVANCED_FACE('',(#1351),#1421,.F.);
#1486=ADVANCED_FACE('',(#1352),#1422,.F.);
#1487=ADVANCED_FACE('',(#1353),#20,.T.);
#1488=ADVANCED_FACE('',(#1354),#21,.T.);
#1489=ADVANCED_FACE('',(#1355),#22,.T.);
#1490=ADVANCED_FACE('',(#1356),#23,.T.);
#1491=ADVANCED_FACE('',(#1357),#24,.T.);
#1492=ADVANCED_FACE('',(#1358),#25,.T.);
#1493=ADVANCED_FACE('',(#1359),#1423,.F.);
#1494=ADVANCED_FACE('',(#1360),#1424,.T.);
#1495=ADVANCED_FACE('',(#1361),#1425,.F.);
#1496=ADVANCED_FACE('',(#1362),#1426,.F.);
#1497=ADVANCED_FACE('',(#1363),#1427,.T.);
#1498=ADVANCED_FACE('',(#1364),#1428,.T.);
#1499=ADVANCED_FACE('',(#1365),#1429,.F.);
#1500=ADVANCED_FACE('',(#1366),#1430,.T.);
#1501=ADVANCED_FACE('',(#1367),#1431,.T.);
#1502=ADVANCED_FACE('',(#1368),#1432,.T.);
#1503=ADVANCED_FACE('',(#1369),#1433,.F.);
#1504=CLOSED_SHELL('',(#1434,#1435,#1436,#1437,#1438,#1439,#1440,#1441,
#1442,#1443,#1444,#1445,#1446,#1447,#1448,#1449,#1450,#1451,#1452,#1453,
#1454,#1455,#1456,#1457,#1458,#1459,#1460,#1461,#1462,#1463,#1464,#1465,
#1466,#1467,#1468,#1469,#1470,#1471,#1472,#1473,#1474,#1475,#1476,#1477,
#1478,#1479,#1480,#1481,#1482,#1483,#1484,#1485,#1486,#1487,#1488,#1489,
#1490,#1491,#1492,#1493,#1494,#1495,#1496,#1497,#1498,#1499,#1500,#1501,
#1502,#1503));
#1505=STYLED_ITEM('',(#1506),#1513);
#1506=PRESENTATION_STYLE_ASSIGNMENT((#1507));
#1507=SURFACE_STYLE_USAGE(.BOTH.,#1508);
#1508=SURFACE_SIDE_STYLE('',(#1509));
#1509=SURFACE_STYLE_FILL_AREA(#1510);
#1510=FILL_AREA_STYLE('',(#1511));
#1511=FILL_AREA_STYLE_COLOUR('',#1512);
#1512=COLOUR_RGB('',0.506983280181885,0.531564235687256,0.550000011920929);
#1513=MANIFOLD_SOLID_BREP('',#1504);
#1514=SHAPE_DEFINITION_REPRESENTATION(#2401,#1515);
#1515=SHAPE_REPRESENTATION('PrintNormal',(#1516),#2396);
#1516=AXIS2_PLACEMENT_3D('',#1968,#1599,#1600);
#1517=AXIS2_PLACEMENT_3D('',#1969,#1601,#1602);
#1518=AXIS2_PLACEMENT_3D('',#1978,#1607,#1608);
#1519=AXIS2_PLACEMENT_3D('',#1987,#1613,#1614);
#1520=AXIS2_PLACEMENT_3D('',#1996,#1619,#1620);
#1521=AXIS2_PLACEMENT_3D('',#2005,#1625,#1626);
#1522=AXIS2_PLACEMENT_3D('',#2014,#1631,#1632);
#1523=AXIS2_PLACEMENT_3D('',#2027,#1639,#1640);
#1524=AXIS2_PLACEMENT_3D('',#2033,#1644,#1645);
#1525=AXIS2_PLACEMENT_3D('',#2042,#1650,#1651);
#1526=AXIS2_PLACEMENT_3D('',#2051,#1656,#1657);
#1527=AXIS2_PLACEMENT_3D('',#2070,#1668,#1669);
#1528=AXIS2_PLACEMENT_3D('',#2109,#1690,#1691);
#1529=AXIS2_PLACEMENT_3D('',#2115,#1695,#1696);
#1530=AXIS2_PLACEMENT_3D('',#2128,#1704,#1705);
#1531=AXIS2_PLACEMENT_3D('',#2133,#1709,#1710);
#1532=AXIS2_PLACEMENT_3D('',#2152,#1721,#1722);
#1533=AXIS2_PLACEMENT_3D('',#2161,#1729,#1730);
#1534=AXIS2_PLACEMENT_3D('',#2179,#1740,#1741);
#1535=AXIS2_PLACEMENT_3D('',#2187,#1746,#1747);
#1536=AXIS2_PLACEMENT_3D('',#2198,#1754,#1755);
#1537=AXIS2_PLACEMENT_3D('',#2200,#1757,#1758);
#1538=AXIS2_PLACEMENT_3D('',#2231,#1777,#1778);
#1539=AXIS2_PLACEMENT_3D('',#2254,#1792,#1793);
#1540=AXIS2_PLACEMENT_3D('',#2258,#1797,#1798);
#1541=AXIS2_PLACEMENT_3D('',#2260,#1800,#1801);
#1542=AXIS2_PLACEMENT_3D('',#2267,#1806,#1807);
#1543=AXIS2_PLACEMENT_3D('',#2271,#1810,#1811);
#1544=AXIS2_PLACEMENT_3D('',#2274,#1814,#1815);
#1545=AXIS2_PLACEMENT_3D('',#2276,#1817,#1818);
#1546=AXIS2_PLACEMENT_3D('',#2278,#1820,#1821);
#1547=AXIS2_PLACEMENT_3D('',#2279,#1822,#1823);
#1548=AXIS2_PLACEMENT_3D('',#2282,#1826,#1827);
#1549=AXIS2_PLACEMENT_3D('',#2283,#1828,#1829);
#1550=AXIS2_PLACEMENT_3D('',#2284,#1830,#1831);
#1551=AXIS2_PLACEMENT_3D('',#2286,#1833,#1834);
#1552=AXIS2_PLACEMENT_3D('',#2287,#1835,#1836);
#1553=AXIS2_PLACEMENT_3D('',#2291,#1838,#1839);
#1554=AXIS2_PLACEMENT_3D('',#2297,#1843,#1844);
#1555=AXIS2_PLACEMENT_3D('',#2298,#1845,#1846);
#1556=AXIS2_PLACEMENT_3D('',#2303,#1849,#1850);
#1557=AXIS2_PLACEMENT_3D('',#2304,#1851,#1852);
#1558=AXIS2_PLACEMENT_3D('',#2306,#1854,#1855);
#1559=AXIS2_PLACEMENT_3D('',#2312,#1859,#1860);
#1560=AXIS2_PLACEMENT_3D('',#2316,#1863,#1864);
#1561=AXIS2_PLACEMENT_3D('',#2317,#1865,#1866);
#1562=AXIS2_PLACEMENT_3D('',#2318,#1867,#1868);
#1563=AXIS2_PLACEMENT_3D('',#2320,#1870,#1871);
#1564=AXIS2_PLACEMENT_3D('',#2321,#1872,#1873);
#1565=AXIS2_PLACEMENT_3D('',#2323,#1875,#1876);
#1566=AXIS2_PLACEMENT_3D('',#2324,#1877,#1878);
#1567=AXIS2_PLACEMENT_3D('',#2327,#1880,#1881);
#1568=AXIS2_PLACEMENT_3D('',#2331,#1883,#1884);
#1569=AXIS2_PLACEMENT_3D('',#2339,#1889,#1890);
#1570=AXIS2_PLACEMENT_3D('',#2345,#1894,#1895);
#1571=AXIS2_PLACEMENT_3D('',#2349,#1898,#1899);
#1572=AXIS2_PLACEMENT_3D('',#2350,#1900,#1901);
#1573=AXIS2_PLACEMENT_3D('',#2353,#1903,#1904);
#1574=AXIS2_PLACEMENT_3D('',#2359,#1908,#1909);
#1575=AXIS2_PLACEMENT_3D('',#2363,#1912,#1913);
#1576=AXIS2_PLACEMENT_3D('',#2364,#1914,#1915);
#1577=AXIS2_PLACEMENT_3D('',#2365,#1916,#1917);
#1578=AXIS2_PLACEMENT_3D('',#2367,#1919,#1920);
#1579=AXIS2_PLACEMENT_3D('',#2368,#1921,#1922);
#1580=AXIS2_PLACEMENT_3D('',#2369,#1923,#1924);
#1581=AXIS2_PLACEMENT_3D('',#2370,#1925,#1926);
#1582=AXIS2_PLACEMENT_3D('',#2371,#1927,#1928);
#1583=AXIS2_PLACEMENT_3D('',#2372,#1929,#1930);
#1584=AXIS2_PLACEMENT_3D('',#2373,#1931,#1932);
#1585=AXIS2_PLACEMENT_3D('',#2374,#1933,#1934);
#1586=AXIS2_PLACEMENT_3D('',#2375,#1935,#1936);
#1587=AXIS2_PLACEMENT_3D('',#2376,#1937,#1938);
#1588=AXIS2_PLACEMENT_3D('',#2377,#1939,#1940);
#1589=AXIS2_PLACEMENT_3D('',#2378,#1941,#1942);
#1590=AXIS2_PLACEMENT_3D('',#2381,#1945,#1946);
#1591=AXIS2_PLACEMENT_3D('',#2383,#1948,#1949);
#1592=AXIS2_PLACEMENT_3D('',#2386,#1952,#1953);
#1593=AXIS2_PLACEMENT_3D('',#2388,#1955,#1956);
#1594=AXIS2_PLACEMENT_3D('',#2389,#1957,#1958);
#1595=AXIS2_PLACEMENT_3D('',#2390,#1959,#1960);
#1596=AXIS2_PLACEMENT_3D('',#2391,#1961,#1962);
#1597=AXIS2_PLACEMENT_3D('',#2392,#1963,#1964);
#1598=AXIS2_PLACEMENT_3D('',#2394,#1966,#1967);
#1599=DIRECTION('',(0.,0.,1.));
#1600=DIRECTION('',(1.,0.,0.));
#1601=DIRECTION('',(-1.0842021724855E-16,-1.17549435082229E-32,1.));
#1602=DIRECTION('',(1.,0.,1.0842021724855E-16));
#1603=DIRECTION('',(-1.,-1.0842021724855E-16,-1.0842021724855E-16));
#1604=DIRECTION('',(-1.27447352890596E-48,1.,1.17549435082229E-32));
#1605=DIRECTION('',(-1.,-1.0842021724855E-16,-1.0842021724855E-16));
#1606=DIRECTION('',(1.0842021724855E-16,-1.,0.));
#1607=DIRECTION('',(0.,0.,1.));
#1608=DIRECTION('',(1.,0.,0.));
#1609=DIRECTION('',(-1.,1.0842021724855E-16,0.));
#1610=DIRECTION('',(0.,-1.,0.));
#1611=DIRECTION('',(1.,1.0842021724855E-16,0.));
#1612=DIRECTION('',(0.,-1.,0.));
#1613=DIRECTION('',(0.,0.,1.));
#1614=DIRECTION('',(1.,0.,0.));
#1615=DIRECTION('',(1.,1.0842021724855E-16,0.));
#1616=DIRECTION('',(-5.89469142322216E-16,1.,0.));
#1617=DIRECTION('',(-1.,-1.44560289664734E-16,0.));
#1618=DIRECTION('',(-5.89469142322216E-16,1.,0.));
#1619=DIRECTION('',(0.,0.,1.));
#1620=DIRECTION('',(1.,0.,0.));
#1621=DIRECTION('',(0.,-1.,0.));
#1622=DIRECTION('',(-1.,1.0842021724855E-16,0.));
#1623=DIRECTION('',(1.42775594730601E-16,1.,0.));
#1624=DIRECTION('',(1.,1.0842021724855E-16,0.));
#1625=DIRECTION('',(0.,0.,1.));
#1626=DIRECTION('',(1.,0.,0.));
#1627=DIRECTION('',(1.,-7.2280144832367E-17,0.));
#1628=DIRECTION('',(-5.89469142322216E-16,1.,0.));
#1629=DIRECTION('',(-1.,1.0842021724855E-16,0.));
#1630=DIRECTION('',(-5.89469142322216E-16,1.,0.));
#1631=DIRECTION('',(1.,0.,0.));
#1632=DIRECTION('',(0.,0.,-1.));
#1633=DIRECTION('',(0.,0.780868809443031,-0.624695047554424));
#1634=DIRECTION('',(0.,1.,0.));
#1635=DIRECTION('',(0.,0.,1.));
#1636=DIRECTION('',(1.15648231731787E-16,1.,0.));
#1637=DIRECTION('',(0.,0.,1.));
#1638=DIRECTION('',(0.,1.,0.));
#1639=DIRECTION('',(0.,0.,1.));
#1640=DIRECTION('',(1.,0.,0.));
#1641=DIRECTION('',(0.,-1.,0.));
#1642=DIRECTION('',(1.,0.,0.));
#1643=DIRECTION('',(-1.,1.15648231731787E-16,0.));
#1644=DIRECTION('',(0.,0.,1.));
#1645=DIRECTION('',(1.,0.,0.));
#1646=DIRECTION('',(1.,0.,0.));
#1647=DIRECTION('',(-1.55580580805095E-16,1.,0.));
#1648=DIRECTION('',(1.,0.,0.));
#1649=DIRECTION('',(0.,-1.,0.));
#1650=DIRECTION('',(0.,0.,1.));
#1651=DIRECTION('',(1.,0.,0.));
#1652=DIRECTION('',(-1.55580580805095E-16,1.,0.));
#1653=DIRECTION('',(-1.,0.,0.));
#1654=DIRECTION('',(-4.31956697203054E-17,-1.,0.));
#1655=DIRECTION('',(-1.,0.,0.));
#1656=DIRECTION('',(1.,0.,0.));
#1657=DIRECTION('',(0.,0.,-1.));
#1658=DIRECTION('',(0.,0.,-1.));
#1659=DIRECTION('',(0.,0.,-1.));
#1660=DIRECTION('',(0.,-1.,0.));
#1661=DIRECTION('',(0.,0.,-1.));
#1662=DIRECTION('',(0.,1.,0.));
#1663=DIRECTION('',(0.,0.,-1.));
#1664=DIRECTION('',(0.,-1.,0.));
#1665=DIRECTION('',(0.,0.,-1.));
#1666=DIRECTION('',(0.,1.,0.));
#1667=DIRECTION('',(0.,0.,1.));
#1668=DIRECTION('',(1.15648231731787E-16,-1.,0.));
#1669=DIRECTION('',(1.,1.15648231731787E-16,0.));
#1670=DIRECTION('',(1.,0.,1.0842021724855E-16));
#1671=DIRECTION('',(0.,0.,-1.));
#1672=DIRECTION('',(1.,1.15648231731787E-16,0.));
#1673=DIRECTION('',(0.,0.,1.));
#1674=DIRECTION('',(1.,-1.15648231731787E-16,-6.53796945228264E-16));
#1675=DIRECTION('',(-0.5,5.78241158658936E-17,0.866025403784439));
#1676=DIRECTION('',(1.,0.,0.));
#1677=DIRECTION('',(0.,0.,-1.));
#1678=DIRECTION('',(-1.,0.,0.));
#1679=DIRECTION('',(0.,0.,-1.));
#1680=DIRECTION('',(1.,1.15648231731787E-16,0.));
#1681=DIRECTION('',(0.,0.,-1.));
#1682=DIRECTION('',(1.,0.,0.));
#1683=DIRECTION('',(0.,0.,1.));
#1684=DIRECTION('',(0.499999999999999,-5.78241158658934E-17,0.866025403784439));
#1685=DIRECTION('',(-1.,1.15648231731787E-16,7.70490680859618E-16));
#1686=DIRECTION('',(0.,0.,1.));
#1687=DIRECTION('',(1.,1.15648231731787E-16,0.));
#1688=DIRECTION('',(0.,0.,1.));
#1689=DIRECTION('',(-1.0842021724855E-16,-1.17549435082229E-32,1.));
#1690=DIRECTION('',(1.,0.,0.));
#1691=DIRECTION('',(0.,0.,-1.));
#1692=DIRECTION('',(1.15648231731787E-16,1.,0.));
#1693=DIRECTION('',(0.,1.,0.));
#1694=DIRECTION('',(0.,0.,1.));
#1695=DIRECTION('',(1.15648231731787E-16,1.,0.));
#1696=DIRECTION('',(-1.,1.15648231731787E-16,0.));
#1697=DIRECTION('',(-0.5,5.78241158658936E-17,0.866025403784439));
#1698=DIRECTION('',(1.,-1.15648231731787E-16,-6.53796945228264E-16));
#1699=DIRECTION('',(-1.,1.15648231731787E-16,0.));
#1700=DIRECTION('',(0.,0.,1.));
#1701=DIRECTION('',(-1.,1.15648231731787E-16,7.70490680859618E-16));
#1702=DIRECTION('',(0.499999999999999,-5.78241158658934E-17,0.866025403784439));
#1703=DIRECTION('',(0.,0.,1.));
#1704=DIRECTION('',(-1.,0.,0.));
#1705=DIRECTION('',(0.,0.,1.));
#1706=DIRECTION('',(0.,-1.,0.));
#1707=DIRECTION('',(0.,0.780868809443031,-0.624695047554424));
#1708=DIRECTION('',(1.15648231731787E-16,1.,0.));
#1709=DIRECTION('',(-1.,1.42775594730601E-16,0.));
#1710=DIRECTION('',(-1.42775594730601E-16,-1.,0.));
#1711=DIRECTION('',(0.,0.,1.));
#1712=DIRECTION('',(4.31956697203054E-17,1.,0.));
#1713=DIRECTION('',(0.,0.,-1.));
#1714=DIRECTION('',(1.42775594730601E-16,1.,0.));
#1715=DIRECTION('',(0.,0.,-1.));
#1716=DIRECTION('',(-1.42775594730601E-16,-1.,0.));
#1717=DIRECTION('',(0.,0.,1.));
#1718=DIRECTION('',(1.42775594730601E-16,1.,0.));
#1719=DIRECTION('',(0.,0.,-1.));
#1720=DIRECTION('',(0.,0.,-1.));
#1721=DIRECTION('',(0.,0.,1.));
#1722=DIRECTION('',(1.,0.,0.));
#1723=DIRECTION('',(1.0842021724855E-16,-1.,0.));
#1724=DIRECTION('',(1.,1.0842021724855E-16,0.));
#1725=DIRECTION('',(-1.,1.0842021724855E-16,0.));
#1726=DIRECTION('',(1.,1.0842021724855E-16,0.));
#1727=DIRECTION('',(1.0842021724855E-16,-1.,0.));
#1728=DIRECTION('',(0.,-1.,0.));
#1729=DIRECTION('',(0.,0.,1.));
#1730=DIRECTION('',(1.,0.,0.));
#1731=DIRECTION('',(1.,1.73472347597681E-15,0.));
#1732=DIRECTION('',(0.,-1.,0.));
#1733=DIRECTION('',(1.,-7.2280144832367E-17,0.));
#1734=DIRECTION('',(1.5770213417971E-16,-1.,0.));
#1735=DIRECTION('',(-1.,-1.44560289664734E-16,0.));
#1736=DIRECTION('',(0.,1.,0.));
#1737=DIRECTION('',(-1.,0.,0.));
#1738=DIRECTION('',(0.,1.,0.));
#1739=DIRECTION('',(-2.29764698804875E-16,1.,0.));
#1740=DIRECTION('',(-1.,0.,0.));
#1741=DIRECTION('',(0.,0.,1.));
#1742=DIRECTION('',(0.,0.,-1.));
#1743=DIRECTION('',(8.26058798084205E-16,1.,0.));
#1744=DIRECTION('',(0.,0.,-1.));
#1745=DIRECTION('',(0.,1.,0.));
#1746=DIRECTION('',(-1.73472347597681E-15,1.,0.));
#1747=DIRECTION('',(-1.,-1.73472347597681E-15,0.));
#1748=DIRECTION('',(1.,1.73578454795335E-15,0.));
#1749=DIRECTION('',(0.,0.,-1.));
#1750=DIRECTION('',(0.,0.,-1.));
#1751=DIRECTION('',(1.,1.73472347597681E-15,0.));
#1752=DIRECTION('',(0.,0.,-1.));
#1753=DIRECTION('',(1.,4.95938442272384E-16,0.));
#1754=DIRECTION('',(-1.,0.,0.));
#1755=DIRECTION('',(0.,0.,1.));
#1756=DIRECTION('',(1.15648231731787E-16,1.,0.));
#1757=DIRECTION('',(-1.0842021724855E-16,1.,0.));
#1758=DIRECTION('',(-1.,-1.0842021724855E-16,0.));
#1759=DIRECTION('',(-1.,0.,-1.0842021724855E-16));
#1760=DIRECTION('',(-1.0842021724855E-16,-1.17549435082229E-32,1.));
#1761=DIRECTION('',(0.,0.,1.));
#1762=DIRECTION('',(0.,0.,1.));
#1763=DIRECTION('',(0.,0.,1.));
#1764=DIRECTION('',(0.707106781186548,7.66646708341687E-17,-0.707106781186548));
#1765=DIRECTION('',(1.,8.67361737988403E-16,0.));
#1766=DIRECTION('',(0.707106781186548,7.66646708341687E-17,0.707106781186548));
#1767=DIRECTION('',(0.,0.,1.));
#1768=DIRECTION('',(0.,0.,1.));
#1769=DIRECTION('',(-0.707106781186547,-7.66646708341687E-17,0.707106781186548));
#1770=DIRECTION('',(-1.,-8.67361737988403E-16,0.));
#1771=DIRECTION('',(0.707106781186548,7.66646708341687E-17,0.707106781186548));
#1772=DIRECTION('',(0.,0.,1.));
#1773=DIRECTION('',(1.,0.,0.));
#1774=DIRECTION('',(0.,0.,-1.));
#1775=DIRECTION('',(1.,0.,0.));
#1776=DIRECTION('',(0.,0.,-1.));
#1777=DIRECTION('',(-1.0842021724855E-16,-1.,0.));
#1778=DIRECTION('',(1.,-1.0842021724855E-16,0.));
#1779=DIRECTION('',(0.,0.,1.));
#1780=DIRECTION('',(-0.707106781186548,7.66646708341687E-17,-0.707106781186548));
#1781=DIRECTION('',(1.,-1.73472347597681E-15,0.));
#1782=DIRECTION('',(0.707106781186547,-7.66646708341687E-17,-0.707106781186548));
#1783=DIRECTION('',(0.,0.,1.));
#1784=DIRECTION('',(0.,0.,1.));
#1785=DIRECTION('',(-0.707106781186548,7.66646708341687E-17,-0.707106781186548));
#1786=DIRECTION('',(-1.,8.67361737988401E-16,0.));
#1787=DIRECTION('',(-0.707106781186548,7.66646708341687E-17,0.707106781186548));
#1788=DIRECTION('',(0.,0.,1.));
#1789=DIRECTION('',(0.,0.,1.));
#1790=DIRECTION('',(-1.,0.,0.));
#1791=DIRECTION('',(0.,0.,-1.));
#1792=DIRECTION('',(-1.,-1.5770213417971E-16,0.));
#1793=DIRECTION('',(1.5770213417971E-16,-1.,0.));
#1794=DIRECTION('',(1.5770213417971E-16,-1.,0.));
#1795=DIRECTION('',(0.,0.,1.));
#1796=DIRECTION('',(0.,0.,1.));
#1797=DIRECTION('',(-1.44560289664734E-16,1.,0.));
#1798=DIRECTION('',(-1.,-1.44560289664734E-16,0.));
#1799=DIRECTION('',(0.,0.,1.));
#1800=DIRECTION('',(1.,0.,0.));
#1801=DIRECTION('',(0.,0.,-1.));
#1802=DIRECTION('',(0.,1.,0.));
#1803=DIRECTION('',(0.,0.,1.));
#1804=DIRECTION('',(0.,-1.,0.));
#1805=DIRECTION('',(0.,0.,-1.));
#1806=DIRECTION('',(-7.2280144832367E-17,-1.,0.));
#1807=DIRECTION('',(1.,-7.2280144832367E-17,0.));
#1808=DIRECTION('',(0.,0.,-1.));
#1809=DIRECTION('',(-1.,5.86733785533607E-17,0.));
#1810=DIRECTION('',(1.,-1.14882349402438E-16,0.));
#1811=DIRECTION('',(1.14882349402438E-16,1.,0.));
#1812=DIRECTION('',(-1.14882349402438E-16,-1.,0.));
#1813=DIRECTION('',(-1.14882349402438E-16,-1.,0.));
#1814=DIRECTION('',(0.,0.,1.));
#1815=DIRECTION('',(1.,0.,0.));
#1816=DIRECTION('',(1.,0.,0.));
#1817=DIRECTION('',(0.,0.,-1.));
#1818=DIRECTION('',(-1.,0.,0.));
#1819=DIRECTION('',(-2.29764698804875E-16,1.,0.));
#1820=DIRECTION('',(-1.,-2.29764698804875E-16,0.));
#1821=DIRECTION('',(2.29764698804875E-16,-1.,0.));
#1822=DIRECTION('',(0.,0.,-1.));
#1823=DIRECTION('',(-1.,0.,0.));
#1824=DIRECTION('',(-1.,0.,0.));
#1825=DIRECTION('',(0.,-1.,0.));
#1826=DIRECTION('',(1.,0.,0.));
#1827=DIRECTION('',(0.,0.,-1.));
#1828=DIRECTION('',(0.,-1.,0.));
#1829=DIRECTION('',(0.,0.,-1.));
#1830=DIRECTION('',(-1.,-1.0842021724855E-16,0.));
#1831=DIRECTION('',(1.0842021724855E-16,-1.,0.));
#1832=DIRECTION('',(1.27447352890596E-48,-1.,-1.17549435082229E-32));
#1833=DIRECTION('',(1.,1.0842021724855E-16,0.));
#1834=DIRECTION('',(-1.0842021724855E-16,1.,0.));
#1835=DIRECTION('',(0.,0.,-1.));
#1836=DIRECTION('',(-1.,0.,0.));
#1837=DIRECTION('',(-1.55580580805095E-16,1.,0.));
#1838=DIRECTION('',(0.,0.,-1.));
#1839=DIRECTION('',(-1.,0.,0.));
#1840=DIRECTION('',(-1.,0.,0.));
#1841=DIRECTION('',(-1.55580580805095E-16,1.,0.));
#1842=DIRECTION('',(1.,0.,0.));
#1843=DIRECTION('',(0.,0.,-1.));
#1844=DIRECTION('',(-1.,0.,0.));
#1845=DIRECTION('',(0.,-1.,0.));
#1846=DIRECTION('',(0.,0.,-1.));
#1847=DIRECTION('',(1.,0.,0.));
#1848=DIRECTION('',(0.,0.,1.));
#1849=DIRECTION('',(0.,-1.,0.));
#1850=DIRECTION('',(0.,0.,-1.));
#1851=DIRECTION('',(0.,0.,1.));
#1852=DIRECTION('',(1.,0.,0.));
#1853=DIRECTION('',(-1.55580580805095E-16,1.,0.));
#1854=DIRECTION('',(-1.,-1.55580580805095E-16,0.));
#1855=DIRECTION('',(1.55580580805095E-16,-1.,0.));
#1856=DIRECTION('',(-1.55580580805095E-16,1.,0.));
#1857=DIRECTION('',(0.,0.,-1.));
#1858=DIRECTION('',(0.,0.,-1.));
#1859=DIRECTION('',(1.,1.55580580805095E-16,0.));
#1860=DIRECTION('',(-1.55580580805095E-16,1.,0.));
#1861=DIRECTION('',(0.,0.,1.));
#1862=DIRECTION('',(-1.55580580805095E-16,1.,0.));
#1863=DIRECTION('',(0.,1.,0.));
#1864=DIRECTION('',(0.,0.,1.));
#1865=DIRECTION('',(0.,1.,0.));
#1866=DIRECTION('',(0.,0.,1.));
#1867=DIRECTION('',(-0.866025403784439,1.00154306582477E-16,0.499999999999999));
#1868=DIRECTION('',(0.499999999999999,0.,0.866025403784439));
#1869=DIRECTION('',(1.15648231731787E-16,1.,0.));
#1870=DIRECTION('',(-7.70490680859618E-16,8.91058848072356E-32,-1.));
#1871=DIRECTION('',(-1.,0.,7.70490680859618E-16));
#1872=DIRECTION('',(-0.866025403784438,1.00154306582477E-16,-0.5));
#1873=DIRECTION('',(-0.5,0.,0.866025403784439));
#1874=DIRECTION('',(1.15648231731787E-16,1.,0.));
#1875=DIRECTION('',(6.53796945228264E-16,-7.56104606272928E-32,1.));
#1876=DIRECTION('',(1.,0.,-6.53796945228264E-16));
#1877=DIRECTION('',(0.,0.,-1.));
#1878=DIRECTION('',(-1.,0.,0.));
#1879=DIRECTION('',(1.,0.,0.));
#1880=DIRECTION('',(0.,0.,-1.));
#1881=DIRECTION('',(-1.,0.,0.));
#1882=DIRECTION('',(-1.55580580805095E-16,1.,0.));
#1883=DIRECTION('',(0.,0.,-1.));
#1884=DIRECTION('',(-1.,0.,0.));
#1885=DIRECTION('',(-0.999998538315651,0.00170978553075554,0.));
#1886=DIRECTION('',(-0.999998538315651,0.00170978553075554,0.));
#1887=DIRECTION('',(-1.55580580805095E-16,1.,0.));
#1888=DIRECTION('',(1.,0.,0.));
#1889=DIRECTION('',(0.00170978553075554,0.999998538315651,0.));
#1890=DIRECTION('',(-0.999998538315651,0.00170978553075554,0.));
#1891=DIRECTION('',(0.,0.,1.));
#1892=DIRECTION('',(-0.999998538315651,0.00170978553075554,0.));
#1893=DIRECTION('',(-0.999998538315651,0.00170978553075554,0.));
#1894=DIRECTION('',(0.,0.,1.));
#1895=DIRECTION('',(1.,0.,0.));
#1896=DIRECTION('',(-1.55580580805095E-16,1.,0.));
#1897=DIRECTION('',(-0.999998538315651,0.00170978553075554,0.));
#1898=DIRECTION('',(-0.00170978553075554,-0.999998538315651,0.));
#1899=DIRECTION('',(0.999998538315651,-0.00170978553075554,0.));
#1900=DIRECTION('',(-0.00170978553075554,-0.999998538315651,0.));
#1901=DIRECTION('',(-0.999998538315651,0.00170978553075554,0.));
#1902=DIRECTION('',(0.,0.,-1.));
#1903=DIRECTION('',(1.,1.55580580805095E-16,0.));
#1904=DIRECTION('',(-1.55580580805095E-16,1.,0.));
#1905=DIRECTION('',(0.,0.,1.));
#1906=DIRECTION('',(-1.55580580805095E-16,1.,0.));
#1907=DIRECTION('',(0.,0.,1.));
#1908=DIRECTION('',(-1.,-1.55580580805095E-16,0.));
#1909=DIRECTION('',(1.55580580805095E-16,-1.,0.));
#1910=DIRECTION('',(-1.55580580805095E-16,1.,0.));
#1911=DIRECTION('',(0.,0.,-1.));
#1912=DIRECTION('',(0.,1.,0.));
#1913=DIRECTION('',(0.,0.,1.));
#1914=DIRECTION('',(0.,1.,0.));
#1915=DIRECTION('',(0.,0.,1.));
#1916=DIRECTION('',(0.,-1.,0.));
#1917=DIRECTION('',(0.,0.,-1.));
#1918=DIRECTION('',(0.,0.,1.));
#1919=DIRECTION('',(0.,0.,-1.));
#1920=DIRECTION('',(-1.,0.,0.));
#1921=DIRECTION('',(-1.10012083708224E-16,0.707106781186547,-0.707106781186547));
#1922=DIRECTION('',(1.10012083708224E-16,-0.707106781186547,-0.707106781186547));
#1923=DIRECTION('',(-1.55580580805095E-16,1.,0.));
#1924=DIRECTION('',(-1.,-1.55580580805095E-16,0.));
#1925=DIRECTION('',(-1.10012083708224E-16,0.707106781186547,0.707106781186547));
#1926=DIRECTION('',(-1.10012083708224E-16,0.707106781186547,-0.707106781186547));
#1927=DIRECTION('',(0.,0.,-1.));
#1928=DIRECTION('',(-1.,0.,0.));
#1929=DIRECTION('',(0.,0.,1.));
#1930=DIRECTION('',(1.,0.,0.));
#1931=DIRECTION('',(-1.10012083708224E-16,0.707106781186547,-0.707106781186547));
#1932=DIRECTION('',(-1.10012083708224E-16,0.707106781186547,0.707106781186547));
#1933=DIRECTION('',(-1.55580580805095E-16,1.,0.));
#1934=DIRECTION('',(-1.,-1.55580580805095E-16,0.));
#1935=DIRECTION('',(-1.10012083708224E-16,0.707106781186547,0.707106781186547));
#1936=DIRECTION('',(-1.10012083708224E-16,0.707106781186547,-0.707106781186547));
#1937=DIRECTION('',(0.,0.,1.));
#1938=DIRECTION('',(1.,0.,0.));
#1939=DIRECTION('',(0.,-0.624695047554424,-0.780868809443031));
#1940=DIRECTION('',(0.,0.780868809443031,-0.624695047554424));
#1941=DIRECTION('',(0.,0.,-1.));
#1942=DIRECTION('',(-1.,0.,0.));
#1943=DIRECTION('',(0.,-1.,0.));
#1944=DIRECTION('',(-1.5770213417971E-16,1.,0.));
#1945=DIRECTION('',(-1.,0.,0.));
#1946=DIRECTION('',(0.,0.,1.));
#1947=DIRECTION('',(0.,1.,0.));
#1948=DIRECTION('',(0.,0.,1.));
#1949=DIRECTION('',(1.,0.,0.));
#1950=DIRECTION('',(0.,1.,0.));
#1951=DIRECTION('',(0.,-1.,0.));
#1952=DIRECTION('',(-1.,0.,0.));
#1953=DIRECTION('',(0.,0.,1.));
#1954=DIRECTION('',(0.,-1.,0.));
#1955=DIRECTION('',(0.707106781186547,0.,-0.707106781186547));
#1956=DIRECTION('',(0.,1.,0.));
#1957=DIRECTION('',(0.707106781186548,1.11512248486064E-16,0.707106781186547));
#1958=DIRECTION('',(-1.5770213417971E-16,1.,0.));
#1959=DIRECTION('',(-0.707106781186547,0.,-0.707106781186547));
#1960=DIRECTION('',(0.,1.,0.));
#1961=DIRECTION('',(0.707106781186547,0.,-0.707106781186547));
#1962=DIRECTION('',(0.,-1.,0.));
#1963=DIRECTION('',(1.,0.,1.0842021724855E-16));
#1964=DIRECTION('',(1.0842021724855E-16,0.,-1.));
#1965=DIRECTION('',(-1.27447352890596E-48,1.,1.17549435082229E-32));
#1966=DIRECTION('',(1.0842021724855E-16,1.17549435082229E-32,-1.));
#1967=DIRECTION('',(-1.,0.,-1.0842021724855E-16));
#1968=CARTESIAN_POINT('',(0.,0.,0.));
#1969=CARTESIAN_POINT('',(10.5,-11.15,0.349999999999999));
#1970=CARTESIAN_POINT('',(10.5,-12.15,0.349999999999999));
#1971=CARTESIAN_POINT('',(7.50000000000001,-12.15,0.349999999999998));
#1972=CARTESIAN_POINT('',(-1.5,-12.15,0.349999999999998));
#1973=CARTESIAN_POINT('',(7.50000000000001,-12.15,0.349999999999998));
#1974=CARTESIAN_POINT('',(7.50000000000001,-11.15,0.349999999999998));
#1975=CARTESIAN_POINT('',(10.5,-11.15,0.349999999999999));
#1976=CARTESIAN_POINT('',(-1.5,-11.15,0.349999999999997));
#1977=CARTESIAN_POINT('',(-1.5,-11.15,0.349999999999997));
#1978=CARTESIAN_POINT('',(0.,0.,-8.15));
#1979=CARTESIAN_POINT('',(16.,12.15,-8.15));
#1980=CARTESIAN_POINT('',(-8.,12.15,-8.15));
#1981=CARTESIAN_POINT('',(-16.,12.15,-8.15));
#1982=CARTESIAN_POINT('',(-8.,12.15,-8.15));
#1983=CARTESIAN_POINT('',(-8.,-12.15,-8.15));
#1984=CARTESIAN_POINT('',(-16.,-12.15,-8.15));
#1985=CARTESIAN_POINT('',(-16.,-12.15,-8.15));
#1986=CARTESIAN_POINT('',(-16.,12.15,-8.15));
#1987=CARTESIAN_POINT('',(0.,0.,-8.15));
#1988=CARTESIAN_POINT('',(-16.,-12.15,-8.15));
#1989=CARTESIAN_POINT('',(-6.,-12.15,-8.15));
#1990=CARTESIAN_POINT('',(6.,-12.15,-8.15));
#1991=CARTESIAN_POINT('',(-5.99999999999999,1.85,-8.15));
#1992=CARTESIAN_POINT('',(-5.99999999999999,-9.15,-8.15));
#1993=CARTESIAN_POINT('',(6.00000000000001,-9.15,-8.15));
#1994=CARTESIAN_POINT('',(6.00000000000001,-9.15,-8.15));
#1995=CARTESIAN_POINT('',(6.00000000000001,1.85,-8.15));
#1996=CARTESIAN_POINT('',(0.,0.,-8.15));
#1997=CARTESIAN_POINT('',(8.,12.15,-8.15));
#1998=CARTESIAN_POINT('',(8.,12.15,-8.15));
#1999=CARTESIAN_POINT('',(8.,-12.15,-8.15));
#2000=CARTESIAN_POINT('',(16.,12.15,-8.15));
#2001=CARTESIAN_POINT('',(16.,12.15,-8.15));
#2002=CARTESIAN_POINT('',(16.,-12.15,-8.15));
#2003=CARTESIAN_POINT('',(16.,-12.15,-8.15));
#2004=CARTESIAN_POINT('',(-16.,-12.15,-8.15));
#2005=CARTESIAN_POINT('',(0.,0.,-8.15));
#2006=CARTESIAN_POINT('',(-5.99999999999999,1.85,-8.15));
#2007=CARTESIAN_POINT('',(-5.99999999999999,1.85,-8.15));
#2008=CARTESIAN_POINT('',(6.00000000000001,1.85,-8.15));
#2009=CARTESIAN_POINT('',(-5.99999999999999,1.85,-8.15));
#2010=CARTESIAN_POINT('',(-6.,12.15,-8.15));
#2011=CARTESIAN_POINT('',(16.,12.15,-8.15));
#2012=CARTESIAN_POINT('',(6.,12.15,-8.15));
#2013=CARTESIAN_POINT('',(6.00000000000001,1.85,-8.15));
#2014=CARTESIAN_POINT('',(15.,-11.15,-7.15));
#2015=CARTESIAN_POINT('',(15.,6.14999999999999,-3.15));
#2016=CARTESIAN_POINT('',(15.,6.14999999999999,-3.15));
#2017=CARTESIAN_POINT('',(15.,8.64999999999999,-5.15));
#2018=CARTESIAN_POINT('',(15.,3.95000000000001,-3.15));
#2019=CARTESIAN_POINT('',(15.,-11.15,-3.15));
#2020=CARTESIAN_POINT('',(15.,-11.15,-7.15));
#2021=CARTESIAN_POINT('',(15.,-11.15,4.85216944312481));
#2022=CARTESIAN_POINT('',(15.,-11.15,4.85216944312481));
#2023=CARTESIAN_POINT('',(15.,11.15,4.85216944312481));
#2024=CARTESIAN_POINT('',(15.,11.15,-7.15));
#2025=CARTESIAN_POINT('',(15.,11.15,-5.15));
#2026=CARTESIAN_POINT('',(15.,6.14999999999999,-5.15));
#2027=CARTESIAN_POINT('',(0.,0.,-5.15));
#2028=CARTESIAN_POINT('',(-15.,11.15,-5.15));
#2029=CARTESIAN_POINT('',(-15.,11.15,-5.15));
#2030=CARTESIAN_POINT('',(-15.,8.64999999999999,-5.15));
#2031=CARTESIAN_POINT('',(-15.,8.64999999999999,-5.15));
#2032=CARTESIAN_POINT('',(15.,11.15,-5.15));
#2033=CARTESIAN_POINT('',(-16.,-10.15,-1.05));
#2034=CARTESIAN_POINT('',(-21.1964078425326,10.1568406138041,-1.05));
#2035=CARTESIAN_POINT('',(-19.9999985383157,10.1568406138041,-1.05));
#2036=CARTESIAN_POINT('',(-16.,10.1568406138041,-1.05));
#2037=CARTESIAN_POINT('',(-19.9999985383156,-10.15,-1.05));
#2038=CARTESIAN_POINT('',(-19.9999985383157,12.1568376904354,-1.05));
#2039=CARTESIAN_POINT('',(-21.1998274135941,12.1568376904354,-1.05));
#2040=CARTESIAN_POINT('',(-16.0008548927654,12.1534188452177,-1.05));
#2041=CARTESIAN_POINT('',(-16.,12.15,-1.05));
#2042=CARTESIAN_POINT('',(16.,-12.15,-1.05));
#2043=CARTESIAN_POINT('',(20.,-12.15,-1.05));
#2044=CARTESIAN_POINT('',(20.,12.15,-1.05));
#2045=CARTESIAN_POINT('',(20.,10.15,-1.05));
#2046=CARTESIAN_POINT('',(21.2,10.15,-1.05));
#2047=CARTESIAN_POINT('',(16.,10.15,-1.05));
#2048=CARTESIAN_POINT('',(16.,12.15,-1.05));
#2049=CARTESIAN_POINT('',(16.,12.15,-1.05));
#2050=CARTESIAN_POINT('',(21.2,12.15,-1.05));
#2051=CARTESIAN_POINT('',(-16.,12.15,8.15));
#2052=CARTESIAN_POINT('',(-16.,12.15,8.15));
#2053=CARTESIAN_POINT('',(-16.,-12.15,8.15));
#2054=CARTESIAN_POINT('',(-16.,-12.15,-1.05));
#2055=CARTESIAN_POINT('',(-16.,-10.15,-1.05));
#2056=CARTESIAN_POINT('',(-16.,-10.15,-1.05));
#2057=CARTESIAN_POINT('',(-16.,-10.15,0.949999999999999));
#2058=CARTESIAN_POINT('',(-16.,-10.15,0.949999999999999));
#2059=CARTESIAN_POINT('',(-16.,-12.15,0.949999999999999));
#2060=CARTESIAN_POINT('',(-16.,-12.15,0.949999999999999));
#2061=CARTESIAN_POINT('',(-16.,-12.15,8.15));
#2062=CARTESIAN_POINT('',(-16.,-12.15,8.15));
#2063=CARTESIAN_POINT('',(-16.,12.15,8.15));
#2064=CARTESIAN_POINT('',(-16.,12.15,8.15));
#2065=CARTESIAN_POINT('',(-16.,12.15,8.15));
#2066=CARTESIAN_POINT('',(-16.0008548927654,12.1534188452177,0.949999999999999));
#2067=CARTESIAN_POINT('',(-16.,12.15,0.949999999999999));
#2068=CARTESIAN_POINT('',(-16.,10.1568406138041,0.949999999999999));
#2069=CARTESIAN_POINT('',(-16.,10.1568406138041,8.15));
#2070=CARTESIAN_POINT('',(-15.,-11.15,-7.15));
#2071=CARTESIAN_POINT('',(7.50000000000001,-11.15,-1.65));
#2072=CARTESIAN_POINT('',(7.50000000000001,-11.15,-1.65));
#2073=CARTESIAN_POINT('',(10.5,-11.15,-1.65));
#2074=CARTESIAN_POINT('',(10.5,-11.15,8.15));
#2075=CARTESIAN_POINT('',(10.5,-11.15,8.15));
#2076=CARTESIAN_POINT('',(-15.,-11.15,8.15));
#2077=CARTESIAN_POINT('',(15.,-11.15,8.15));
#2078=CARTESIAN_POINT('',(15.,-11.15,-7.15));
#2079=CARTESIAN_POINT('',(15.,-11.15,7.15));
#2080=CARTESIAN_POINT('',(13.673346909436,-11.15,7.15));
#2081=CARTESIAN_POINT('',(13.673346909436,-11.15,7.15));
#2082=CARTESIAN_POINT('',(15.,-11.15,4.85216944312481));
#2083=CARTESIAN_POINT('',(15.,-11.15,-3.15));
#2084=CARTESIAN_POINT('',(11.8,-11.15,-3.15));
#2085=CARTESIAN_POINT('',(11.8,-11.15,-3.15));
#2086=CARTESIAN_POINT('',(11.8,-11.15,-5.15));
#2087=CARTESIAN_POINT('',(11.8,-11.15,-5.15));
#2088=CARTESIAN_POINT('',(9.80000000000001,-11.15,-5.15));
#2089=CARTESIAN_POINT('',(9.80000000000001,-11.15,-5.15));
#2090=CARTESIAN_POINT('',(9.80000000000001,-11.15,-7.15));
#2091=CARTESIAN_POINT('',(-15.,-11.15,-7.15));
#2092=CARTESIAN_POINT('',(-9.3,-11.15,-7.15));
#2093=CARTESIAN_POINT('',(-9.3,-11.15,-3.15));
#2094=CARTESIAN_POINT('',(-9.3,-11.15,-3.15));
#2095=CARTESIAN_POINT('',(-15.,-11.15,-3.15));
#2096=CARTESIAN_POINT('',(-15.,-11.15,-3.15));
#2097=CARTESIAN_POINT('',(-15.,-11.15,-7.15));
#2098=CARTESIAN_POINT('',(-15.,-11.15,5.20018459527496));
#2099=CARTESIAN_POINT('',(-15.,-11.15,5.20018459527496));
#2100=CARTESIAN_POINT('',(-13.8742735512119,-11.15,7.15));
#2101=CARTESIAN_POINT('',(-13.8742735512119,-11.15,7.15));
#2102=CARTESIAN_POINT('',(-15.,-11.15,7.15));
#2103=CARTESIAN_POINT('',(-15.,-11.15,-7.15));
#2104=CARTESIAN_POINT('',(-15.,-11.15,8.15));
#2105=CARTESIAN_POINT('',(-15.,-11.15,8.15));
#2106=CARTESIAN_POINT('',(-1.5,-11.15,8.15));
#2107=CARTESIAN_POINT('',(-1.5,-11.15,0.349999999999997));
#2108=CARTESIAN_POINT('',(7.50000000000001,-11.15,-1.65));
#2109=CARTESIAN_POINT('',(15.,-11.15,-7.15));
#2110=CARTESIAN_POINT('',(15.,-11.15,7.15));
#2111=CARTESIAN_POINT('',(15.,11.15,7.15));
#2112=CARTESIAN_POINT('',(15.,-11.15,8.15));
#2113=CARTESIAN_POINT('',(15.,11.15,8.15));
#2114=CARTESIAN_POINT('',(15.,11.15,-7.15));
#2115=CARTESIAN_POINT('',(15.,11.15,-7.15));
#2116=CARTESIAN_POINT('',(15.,11.15,4.85216944312481));
#2117=CARTESIAN_POINT('',(13.673346909436,11.15,7.15));
#2118=CARTESIAN_POINT('',(13.673346909436,11.15,7.15));
#2119=CARTESIAN_POINT('',(15.,11.15,8.15));
#2120=CARTESIAN_POINT('',(-15.,11.15,8.15));
#2121=CARTESIAN_POINT('',(-15.,11.15,-7.15));
#2122=CARTESIAN_POINT('',(-15.,11.15,7.15));
#2123=CARTESIAN_POINT('',(-13.8742735512119,11.15,7.15));
#2124=CARTESIAN_POINT('',(-13.8742735512119,11.15,7.15));
#2125=CARTESIAN_POINT('',(-15.,11.15,5.20018459527496));
#2126=CARTESIAN_POINT('',(-15.,11.15,5.20018459527496));
#2127=CARTESIAN_POINT('',(-15.,11.15,-7.15));
#2128=CARTESIAN_POINT('',(-15.,11.15,-7.15));
#2129=CARTESIAN_POINT('',(-15.,3.95000000000001,-3.15));
#2130=CARTESIAN_POINT('',(-15.,6.14999999999999,-3.15));
#2131=CARTESIAN_POINT('',(-15.,6.14999999999999,-3.15));
#2132=CARTESIAN_POINT('',(-15.,-11.15,5.20018459527496));
#2133=CARTESIAN_POINT('',(16.,-12.15,8.15));
#2134=CARTESIAN_POINT('',(16.,10.15,-1.05));
#2135=CARTESIAN_POINT('',(16.,10.15,0.949999999999999));
#2136=CARTESIAN_POINT('',(16.,10.15,0.949999999999999));
#2137=CARTESIAN_POINT('',(16.,12.15,0.949999999999999));
#2138=CARTESIAN_POINT('',(16.,12.15,8.15));
#2139=CARTESIAN_POINT('',(16.,12.15,8.15));
#2140=CARTESIAN_POINT('',(16.,-12.15,8.15));
#2141=CARTESIAN_POINT('',(16.,-12.15,8.15));
#2142=CARTESIAN_POINT('',(16.,-12.15,8.15));
#2143=CARTESIAN_POINT('',(16.,-12.15,0.949999999999999));
#2144=CARTESIAN_POINT('',(16.,-10.15,0.949999999999999));
#2145=CARTESIAN_POINT('',(16.,-10.15,0.949999999999999));
#2146=CARTESIAN_POINT('',(16.,-10.15,-1.05));
#2147=CARTESIAN_POINT('',(16.,-10.15,-1.05));
#2148=CARTESIAN_POINT('',(16.,-12.15,-1.05));
#2149=CARTESIAN_POINT('',(16.,-12.15,-1.05));
#2150=CARTESIAN_POINT('',(16.,-12.15,8.15));
#2151=CARTESIAN_POINT('',(16.,12.15,8.15));
#2152=CARTESIAN_POINT('',(0.,0.,8.15));
#2153=CARTESIAN_POINT('',(10.5,-11.15,8.15));
#2154=CARTESIAN_POINT('',(10.5,-12.15,8.15));
#2155=CARTESIAN_POINT('',(-16.,-12.15,8.15));
#2156=CARTESIAN_POINT('',(16.,12.15,8.15));
#2157=CARTESIAN_POINT('',(-16.,-12.15,8.15));
#2158=CARTESIAN_POINT('',(-1.5,-12.15,8.15));
#2159=CARTESIAN_POINT('',(-1.5,-11.15,8.15));
#2160=CARTESIAN_POINT('',(-15.,11.15,8.15));
#2161=CARTESIAN_POINT('',(0.,0.,-7.15));
#2162=CARTESIAN_POINT('',(11.8,3.95000000000001,-7.15));
#2163=CARTESIAN_POINT('',(-2.30427904709978,3.94999999999999,-7.15));
#2164=CARTESIAN_POINT('',(9.8,3.95000000000001,-7.15));
#2165=CARTESIAN_POINT('',(-2.30427904709978,3.94999999999999,-7.15));
#2166=CARTESIAN_POINT('',(-2.30427904709978,1.85,-7.15));
#2167=CARTESIAN_POINT('',(-5.99999999999999,1.85,-7.15));
#2168=CARTESIAN_POINT('',(6.00000000000001,1.85,-7.15));
#2169=CARTESIAN_POINT('',(6.00000000000001,1.85,-7.15));
#2170=CARTESIAN_POINT('',(6.00000000000001,-9.15,-7.15));
#2171=CARTESIAN_POINT('',(6.00000000000001,-9.15,-7.15));
#2172=CARTESIAN_POINT('',(-5.99999999999999,-9.15,-7.15));
#2173=CARTESIAN_POINT('',(-5.99999999999999,-9.15,-7.15));
#2174=CARTESIAN_POINT('',(-5.99999999999999,-3.05,-7.15));
#2175=CARTESIAN_POINT('',(-9.3,-3.05,-7.15));
#2176=CARTESIAN_POINT('',(-9.3,-3.05,-7.15));
#2177=CARTESIAN_POINT('',(-9.3,1.85,-7.15));
#2178=CARTESIAN_POINT('',(9.80000000000001,-11.15,-7.15));
#2179=CARTESIAN_POINT('',(-9.3,1.85,-3.15));
#2180=CARTESIAN_POINT('',(-9.3,-3.05,-5.15));
#2181=CARTESIAN_POINT('',(-9.3,-3.05,-5.15));
#2182=CARTESIAN_POINT('',(-9.3,1.85,-5.15));
#2183=CARTESIAN_POINT('',(-9.3,3.94999999999997,-5.15));
#2184=CARTESIAN_POINT('',(-9.3,3.95000000000001,-3.15));
#2185=CARTESIAN_POINT('',(-9.3,3.95000000000001,-3.15));
#2186=CARTESIAN_POINT('',(-9.3,-11.15,-3.15));
#2187=CARTESIAN_POINT('',(11.8,3.95000000000001,-3.15));
#2188=CARTESIAN_POINT('',(-2.30427904709978,3.94999999999999,-5.15));
#2189=CARTESIAN_POINT('',(-2.30427904709978,3.94999999999999,-5.15));
#2190=CARTESIAN_POINT('',(-2.30427904709978,3.94999999999999,-5.15));
#2191=CARTESIAN_POINT('',(9.8,3.95000000000001,-5.15));
#2192=CARTESIAN_POINT('',(9.8,3.95000000000001,-5.15));
#2193=CARTESIAN_POINT('',(11.8,3.95000000000001,-5.15));
#2194=CARTESIAN_POINT('',(11.8,3.95000000000001,-5.15));
#2195=CARTESIAN_POINT('',(11.8,3.95000000000001,-3.15));
#2196=CARTESIAN_POINT('',(11.8,3.95000000000001,-3.15));
#2197=CARTESIAN_POINT('',(-2.30427904709978,3.95000000000001,-3.15));
#2198=CARTESIAN_POINT('',(-15.,11.15,-7.15));
#2199=CARTESIAN_POINT('',(-15.,-11.15,7.15));
#2200=CARTESIAN_POINT('',(-16.,-12.15,8.15));
#2201=CARTESIAN_POINT('',(10.5,-12.15,-1.65));
#2202=CARTESIAN_POINT('',(10.5,-12.15,-1.65));
#2203=CARTESIAN_POINT('',(7.50000000000001,-12.15,-1.65));
#2204=CARTESIAN_POINT('',(7.50000000000001,-12.15,-1.65));
#2205=CARTESIAN_POINT('',(-1.5,-12.15,0.349999999999997));
#2206=CARTESIAN_POINT('',(-16.,-12.15,-1.05));
#2207=CARTESIAN_POINT('',(-8.,-12.15,-10.15));
#2208=CARTESIAN_POINT('',(-8.,-12.15,-9.65));
#2209=CARTESIAN_POINT('',(-8.,-12.15,-9.65));
#2210=CARTESIAN_POINT('',(-7.5,-12.15,-10.15));
#2211=CARTESIAN_POINT('',(-8.,-12.15,-10.15));
#2212=CARTESIAN_POINT('',(-6.49999999999999,-12.15,-10.15));
#2213=CARTESIAN_POINT('',(-5.99999999999999,-12.15,-9.65));
#2214=CARTESIAN_POINT('',(-6.,-12.15,-9.65));
#2215=CARTESIAN_POINT('',(-6.,-12.15,-10.15));
#2216=CARTESIAN_POINT('',(6.,-12.15,-10.15));
#2217=CARTESIAN_POINT('',(6.,-12.15,-9.65));
#2218=CARTESIAN_POINT('',(6.50000000000001,-12.15,-10.15));
#2219=CARTESIAN_POINT('',(6.50000000000001,-12.15,-10.15));
#2220=CARTESIAN_POINT('',(8.,-12.15,-10.15));
#2221=CARTESIAN_POINT('',(7.5,-12.15,-10.15));
#2222=CARTESIAN_POINT('',(7.5,-12.15,-10.15));
#2223=CARTESIAN_POINT('',(8.,-12.15,-9.65));
#2224=CARTESIAN_POINT('',(8.,-12.15,-10.15));
#2225=CARTESIAN_POINT('',(16.,-12.15,-1.05));
#2226=CARTESIAN_POINT('',(20.,-12.15,-1.05));
#2227=CARTESIAN_POINT('',(20.,-12.15,8.15));
#2228=CARTESIAN_POINT('',(20.,-12.15,0.949999999999999));
#2229=CARTESIAN_POINT('',(16.,-12.15,0.949999999999999));
#2230=CARTESIAN_POINT('',(10.5,-12.15,8.15));
#2231=CARTESIAN_POINT('',(16.,12.15,8.15));
#2232=CARTESIAN_POINT('',(8.,12.15,-10.15));
#2233=CARTESIAN_POINT('',(8.,12.15,-9.65));
#2234=CARTESIAN_POINT('',(7.5,12.15,-10.15));
#2235=CARTESIAN_POINT('',(7.5,12.15,-10.15));
#2236=CARTESIAN_POINT('',(6.,12.15,-10.15));
#2237=CARTESIAN_POINT('',(6.50000000000001,12.15,-10.15));
#2238=CARTESIAN_POINT('',(6.50000000000001,12.15,-10.15));
#2239=CARTESIAN_POINT('',(6.,12.15,-9.65));
#2240=CARTESIAN_POINT('',(6.,12.15,-10.15));
#2241=CARTESIAN_POINT('',(-6.,12.15,-10.15));
#2242=CARTESIAN_POINT('',(-6.,12.15,-9.65));
#2243=CARTESIAN_POINT('',(-5.99999999999999,12.15,-9.65));
#2244=CARTESIAN_POINT('',(-6.49999999999999,12.15,-10.15));
#2245=CARTESIAN_POINT('',(-6.,12.15,-10.15));
#2246=CARTESIAN_POINT('',(-7.5,12.15,-10.15));
#2247=CARTESIAN_POINT('',(-8.,12.15,-9.65));
#2248=CARTESIAN_POINT('',(-8.,12.15,-9.65));
#2249=CARTESIAN_POINT('',(-8.,12.15,-10.15));
#2250=CARTESIAN_POINT('',(-16.0017097855308,12.1568376904354,-1.05));
#2251=CARTESIAN_POINT('',(21.2,12.15,0.949999999999999));
#2252=CARTESIAN_POINT('',(20.,12.15,0.949999999999999));
#2253=CARTESIAN_POINT('',(20.,12.15,8.15));
#2254=CARTESIAN_POINT('',(6.00000000000001,1.85,-8.15));
#2255=CARTESIAN_POINT('',(6.00000000000001,1.85,-9.65));
#2256=CARTESIAN_POINT('',(6.00000000000001,-9.15,-8.15));
#2257=CARTESIAN_POINT('',(6.00000000000001,1.85,-8.15));
#2258=CARTESIAN_POINT('',(6.00000000000001,-9.15,-8.15));
#2259=CARTESIAN_POINT('',(-5.99999999999999,-9.15,-8.15));
#2260=CARTESIAN_POINT('',(-5.99999999999999,-9.15,-8.15));
#2261=CARTESIAN_POINT('',(-5.99999999999999,12.15,-9.65));
#2262=CARTESIAN_POINT('',(-5.99999999999999,1.85,-8.15));
#2263=CARTESIAN_POINT('',(-5.99999999999999,1.85,-5.15));
#2264=CARTESIAN_POINT('',(-5.99999999999999,-3.05,-5.15));
#2265=CARTESIAN_POINT('',(-5.99999999999999,-3.05,-5.15));
#2266=CARTESIAN_POINT('',(-5.99999999999999,-3.05,-5.15));
#2267=CARTESIAN_POINT('',(-5.99999999999999,1.85,-8.15));
#2268=CARTESIAN_POINT('',(-2.30427904709978,1.85,-5.15));
#2269=CARTESIAN_POINT('',(-2.30427904709978,1.85,-5.15));
#2270=CARTESIAN_POINT('',(-2.30427904709978,1.85,-5.15));
#2271=CARTESIAN_POINT('',(11.8,-11.15,-3.15));
#2272=CARTESIAN_POINT('',(11.8,-11.15,-5.15));
#2273=CARTESIAN_POINT('',(11.8,-11.15,-3.15));
#2274=CARTESIAN_POINT('',(0.,0.,-3.15));
#2275=CARTESIAN_POINT('',(-15.,6.14999999999999,-3.15));
#2276=CARTESIAN_POINT('',(0.,0.,-5.15));
#2277=CARTESIAN_POINT('',(9.80000000000001,-11.15,-5.15));
#2278=CARTESIAN_POINT('',(9.80000000000001,-11.15,-5.15));
#2279=CARTESIAN_POINT('',(0.,0.,-5.15));
#2280=CARTESIAN_POINT('',(-9.3,-3.05,-5.15));
#2281=CARTESIAN_POINT('',(-2.30427904709978,3.94999999999999,-5.15));
#2282=CARTESIAN_POINT('',(-2.30427904709978,3.94999999999999,-5.15));
#2283=CARTESIAN_POINT('',(-9.3,-3.05,-5.15));
#2284=CARTESIAN_POINT('',(10.5,-11.15,8.15));
#2285=CARTESIAN_POINT('',(10.5,-11.15,-1.65));
#2286=CARTESIAN_POINT('',(-1.5,-11.15,0.349999999999997));
#2287=CARTESIAN_POINT('',(16.,-10.15,0.949999999999999));
#2288=CARTESIAN_POINT('',(21.,-12.35,0.949999999999999));
#2289=CARTESIAN_POINT('',(21.,-11.15,0.949999999999999));
#2290=CARTESIAN_POINT('',(21.,11.15,0.949999999999999));
#2291=CARTESIAN_POINT('',(20.,11.15,0.949999999999999));
#2292=CARTESIAN_POINT('',(21.2,10.15,0.949999999999999));
#2293=CARTESIAN_POINT('',(19.,10.15,0.949999999999999));
#2294=CARTESIAN_POINT('',(19.,-12.35,0.949999999999999));
#2295=CARTESIAN_POINT('',(19.,-10.15,0.949999999999999));
#2296=CARTESIAN_POINT('',(16.,-10.15,0.949999999999999));
#2297=CARTESIAN_POINT('',(20.,-11.15,0.949999999999999));
#2298=CARTESIAN_POINT('',(16.,-10.15,-1.05));
#2299=CARTESIAN_POINT('',(16.,-10.15,-1.05));
#2300=CARTESIAN_POINT('',(20.,-10.15,-1.05));
#2301=CARTESIAN_POINT('',(19.,-10.15,-1.05));
#2302=CARTESIAN_POINT('',(19.,-10.15,-0.0500000000000014));
#2303=CARTESIAN_POINT('',(20.,-10.15,-0.0500000000000014));
#2304=CARTESIAN_POINT('',(16.,-12.15,-1.05));
#2305=CARTESIAN_POINT('',(20.,-12.15,-1.05));
#2306=CARTESIAN_POINT('',(21.,-12.35,0.949999999999999));
#2307=CARTESIAN_POINT('',(21.,-12.35,-0.0500000000000014));
#2308=CARTESIAN_POINT('',(21.,-11.15,-0.0500000000000014));
#2309=CARTESIAN_POINT('',(21.,11.15,-0.0500000000000014));
#2310=CARTESIAN_POINT('',(21.,11.15,0.949999999999999));
#2311=CARTESIAN_POINT('',(21.,-11.15,0.949999999999999));
#2312=CARTESIAN_POINT('',(19.,-12.35,-1.05));
#2313=CARTESIAN_POINT('',(19.,10.15,-1.05));
#2314=CARTESIAN_POINT('',(19.,10.15,-0.0500000000000014));
#2315=CARTESIAN_POINT('',(19.,-12.35,-0.0500000000000014));
#2316=CARTESIAN_POINT('',(21.2,10.15,-1.05));
#2317=CARTESIAN_POINT('',(20.,10.15,-0.0500000000000014));
#2318=CARTESIAN_POINT('',(-15.,-11.15,5.20018459527496));
#2319=CARTESIAN_POINT('',(-13.8742735512119,-11.15,7.15));
#2320=CARTESIAN_POINT('',(-13.8742735512119,-11.15,7.15));
#2321=CARTESIAN_POINT('',(15.,-11.15,4.85216944312481));
#2322=CARTESIAN_POINT('',(13.673346909436,-11.15,7.15));
#2323=CARTESIAN_POINT('',(13.673346909436,-11.15,7.15));
#2324=CARTESIAN_POINT('',(-16.,-12.15,0.949999999999999));
#2325=CARTESIAN_POINT('',(-21.1998274135941,12.1568376904354,0.949999999999999));
#2326=CARTESIAN_POINT('',(-19.9999985383157,12.1568376904354,0.949999999999999));
#2327=CARTESIAN_POINT('',(-19.9999985383157,11.1568376904354,0.949999999999999));
#2328=CARTESIAN_POINT('',(-20.9999985383157,11.1568376904354,0.949999999999999));
#2329=CARTESIAN_POINT('',(-20.9999985383156,-12.3411091052434,0.949999999999999));
#2330=CARTESIAN_POINT('',(-20.9999985383156,-11.143159388693,0.949999999999999));
#2331=CARTESIAN_POINT('',(-19.9999985383156,-11.143159388693,0.949999999999999));
#2332=CARTESIAN_POINT('',(-20.0017083238464,-12.1431579270086,0.949999999999999));
#2333=CARTESIAN_POINT('',(-16.,-12.15,0.949999999999999));
#2334=CARTESIAN_POINT('',(-16.,-10.15,0.949999999999999));
#2335=CARTESIAN_POINT('',(-19.0000014616843,-10.1448706334111,0.949999999999999));
#2336=CARTESIAN_POINT('',(-19.0000014616843,-12.3376895341819,0.949999999999999));
#2337=CARTESIAN_POINT('',(-19.0000014616843,10.1568406138041,0.949999999999999));
#2338=CARTESIAN_POINT('',(-21.1964078425326,10.1568406138041,0.949999999999999));
#2339=CARTESIAN_POINT('',(-16.,-12.15,-1.05));
#2340=CARTESIAN_POINT('',(-20.0017083238464,-12.1431579270086,-1.05));
#2341=CARTESIAN_POINT('',(-20.0017083238464,-12.1431579270086,-1.05));
#2342=CARTESIAN_POINT('',(-16.,-12.15,-1.05));
#2343=CARTESIAN_POINT('',(-19.9999985383156,-12.1431608503795,-1.05));
#2344=CARTESIAN_POINT('',(-16.,-12.15,-1.05));
#2345=CARTESIAN_POINT('',(-16.,-10.15,-1.05));
#2346=CARTESIAN_POINT('',(-19.9999985383156,-10.15,-1.05));
#2347=CARTESIAN_POINT('',(-19.9999985383156,-10.1431608503795,-1.05));
#2348=CARTESIAN_POINT('',(-16.,-10.15,-1.05));
#2349=CARTESIAN_POINT('',(-16.,-10.15,0.949999999999999));
#2350=CARTESIAN_POINT('',(-20.0000014616843,-10.1431608453811,-0.0500000000000014));
#2351=CARTESIAN_POINT('',(-19.0000014616843,-10.1448706334111,-0.0500000000000014));
#2352=CARTESIAN_POINT('',(-19.0000014616843,-10.1448706334111,0.949999999999999));
#2353=CARTESIAN_POINT('',(-20.9999985383156,-12.3411091052434,-1.05));
#2354=CARTESIAN_POINT('',(-20.9999985383157,11.1568376904354,-1.05));
#2355=CARTESIAN_POINT('',(-20.9999985383157,11.1568376904354,-0.0500000000000014));
#2356=CARTESIAN_POINT('',(-20.9999985383156,-12.3411091052434,-0.0500000000000014));
#2357=CARTESIAN_POINT('',(-20.9999985383156,-11.143159388693,-0.0500000000000014));
#2358=CARTESIAN_POINT('',(-20.9999985383156,-11.143159388693,-1.05));
#2359=CARTESIAN_POINT('',(-19.0000014616843,-12.3376895341819,0.949999999999999));
#2360=CARTESIAN_POINT('',(-19.0000014616843,-12.3376895341819,-0.0500000000000014));
#2361=CARTESIAN_POINT('',(-19.0000014616843,10.1568406138041,-0.0500000000000014));
#2362=CARTESIAN_POINT('',(-19.0000014616843,10.1568406138041,0.949999999999999));
#2363=CARTESIAN_POINT('',(-21.1964078425326,10.1568406138041,0.949999999999999));
#2364=CARTESIAN_POINT('',(-20.0000014616843,10.1568406138041,-0.0500000000000014));
#2365=CARTESIAN_POINT('',(-21.1998274135941,12.1568376904354,-1.05));
#2366=CARTESIAN_POINT('',(-19.9999985383157,12.1568376904354,-1.05));
#2367=CARTESIAN_POINT('',(20.,-11.15,0.949999999999999));
#2368=CARTESIAN_POINT('',(20.,-11.15,-0.0500000000000014));
#2369=CARTESIAN_POINT('',(20.,-12.35,-0.0500000000000014));
#2370=CARTESIAN_POINT('',(20.,11.15,-0.0500000000000014));
#2371=CARTESIAN_POINT('',(20.,11.15,8.15));
#2372=CARTESIAN_POINT('',(-19.9999985383156,-11.143159388693,-1.05));
#2373=CARTESIAN_POINT('',(-19.9999985383156,-11.143159388693,-0.0500000000000014));
#2374=CARTESIAN_POINT('',(-19.9999985383156,-10.15,-0.0500000000000014));
#2375=CARTESIAN_POINT('',(-19.9999985383157,11.1568376904354,-0.0500000000000014));
#2376=CARTESIAN_POINT('',(-19.9999985383157,11.1568376904354,-1.05));
#2377=CARTESIAN_POINT('',(-15.,6.14999999999999,-3.15));
#2378=CARTESIAN_POINT('',(0.,0.,-10.15));
#2379=CARTESIAN_POINT('',(7.5,-12.15,-10.15));
#2380=CARTESIAN_POINT('',(6.50000000000001,1.02506387216812E-15,-10.15));
#2381=CARTESIAN_POINT('',(8.,12.15,-10.15));
#2382=CARTESIAN_POINT('',(8.,12.15,-9.65));
#2383=CARTESIAN_POINT('',(0.,0.,-10.15));
#2384=CARTESIAN_POINT('',(-7.5,12.15,-10.15));
#2385=CARTESIAN_POINT('',(-6.49999999999999,-12.15,-10.15));
#2386=CARTESIAN_POINT('',(-8.,12.15,-10.15));
#2387=CARTESIAN_POINT('',(-8.,-12.15,-9.65));
#2388=CARTESIAN_POINT('',(7.5,0.,-10.15));
#2389=CARTESIAN_POINT('',(6.50000000000001,1.02506387216812E-15,-10.15));
#2390=CARTESIAN_POINT('',(-8.,12.15,-9.65));
#2391=CARTESIAN_POINT('',(-5.99999999999999,-9.15,-9.65));
#2392=CARTESIAN_POINT('',(7.50000000000001,-12.15,-1.65));
#2393=CARTESIAN_POINT('',(7.50000000000001,-12.15,-1.65));
#2394=CARTESIAN_POINT('',(1.78893358460108E-16,1.93956567885678E-32,-1.65));
#2395=MECHANICAL_DESIGN_GEOMETRIC_PRESENTATION_REPRESENTATION('',(#1505),
#2396);
#2396=(
GEOMETRIC_REPRESENTATION_CONTEXT(3)
GLOBAL_UNCERTAINTY_ASSIGNED_CONTEXT((#2397))
GLOBAL_UNIT_ASSIGNED_CONTEXT((#2400,#2399,#2398))
REPRESENTATION_CONTEXT('PrintNormal','TOP_LEVEL_ASSEMBLY_PART')
);
#2397=UNCERTAINTY_MEASURE_WITH_UNIT(LENGTH_MEASURE(0.005),#2400,
'DISTANCE_ACCURACY_VALUE','Maximum Tolerance applied to model');
#2398=(
NAMED_UNIT(*)
SI_UNIT($,.STERADIAN.)
SOLID_ANGLE_UNIT()
);
#2399=(
NAMED_UNIT(*)
PLANE_ANGLE_UNIT()
SI_UNIT($,.RADIAN.)
);
#2400=(
LENGTH_UNIT()
NAMED_UNIT(*)
SI_UNIT(.MILLI.,.METRE.)
);
#2401=PRODUCT_DEFINITION_SHAPE('','',#2402);
#2402=PRODUCT_DEFINITION('','',#2404,#2403);
#2403=PRODUCT_DEFINITION_CONTEXT('',#2410,'design');
#2404=PRODUCT_DEFINITION_FORMATION_WITH_SPECIFIED_SOURCE('','',#2406,
 .NOT_KNOWN.);
#2405=PRODUCT_RELATED_PRODUCT_CATEGORY('','',(#2406));
#2406=PRODUCT('PrintNormal','PrintNormal','PrintNormal',(#2408));
#2407=PRODUCT_CATEGORY('','');
#2408=PRODUCT_CONTEXT('',#2410,'mechanical');
#2409=APPLICATION_PROTOCOL_DEFINITION('international standard',
'automotive_design',2010,#2410);
#2410=APPLICATION_CONTEXT(
'core data for automotive mechanical design processes');
ENDSEC;
END-ISO-10303-21;
